<?xml version="1.0" encoding="UTF-8" standalone="no"?>
<!-- Created with Inkscape (http://www.inkscape.org/) -->

<svg
   xmlns:dc="http://purl.org/dc/elements/1.1/"
   xmlns:cc="http://creativecommons.org/ns#"
   xmlns:rdf="http://www.w3.org/1999/02/22-rdf-syntax-ns#"
   xmlns:svg="http://www.w3.org/2000/svg"
   xmlns="http://www.w3.org/2000/svg"
   xmlns:sodipodi="http://sodipodi.sourceforge.net/DTD/sodipodi-0.dtd"
   xmlns:inkscape="http://www.inkscape.org/namespaces/inkscape"
   width="210mm"
   height="297mm"
   viewBox="0 0 210 297"
   version="1.1"
   id="svg8"
   inkscape:version="0.92.4 (5da689c313, 2019-01-14)"
   sodipodi:docname="Breaking open a cold one with the boys.svg">
  <defs
     id="defs2" />
  <sodipodi:namedview
     id="base"
     pagecolor="#ffffff"
     bordercolor="#666666"
     borderopacity="1.0"
     inkscape:pageopacity="0.0"
     inkscape:pageshadow="2"
     inkscape:zoom="0.98994949"
     inkscape:cx="866.24834"
     inkscape:cy="782.57526"
     inkscape:document-units="mm"
     inkscape:current-layer="layer1"
     showgrid="false"
     inkscape:window-width="1920"
     inkscape:window-height="1001"
     inkscape:window-x="-9"
     inkscape:window-y="-9"
     inkscape:window-maximized="1" />
  <metadata
     id="metadata5">
    <rdf:RDF>
      <cc:Work
         rdf:about="">
        <dc:format>image/svg+xml</dc:format>
        <dc:type
           rdf:resource="http://purl.org/dc/dcmitype/StillImage" />
        <dc:title></dc:title>
      </cc:Work>
    </rdf:RDF>
  </metadata>
  <g
     inkscape:label="Layer 1"
     inkscape:groupmode="layer"
     id="layer1">
    <text
       xml:space="preserve"
       style="font-style:normal;font-weight:normal;font-size:10.58333302px;line-height:1.25;font-family:sans-serif;letter-spacing:0px;word-spacing:0px;fill:#000000;fill-opacity:1;stroke:none;stroke-width:0.26458332"
       x="5.6696429"
       y="12.383929"
       id="text12"><tspan
         sodipodi:role="line"
         id="tspan10"
         x="5.6696429"
         y="12.383929"
         style="stroke-width:0.26458332">Crack open a Cold One with the Boys</tspan><tspan
         sodipodi:role="line"
         x="5.6696429"
         y="25.613096"
         style="stroke-width:0.26458332"
         id="tspan14" /><tspan
         sodipodi:role="line"
         x="5.6696429"
         y="38.842262"
         style="stroke-width:0.26458332"
         id="tspan16">Break-opening 1 Cold-item including</tspan><tspan
         sodipodi:role="line"
         x="5.6696429"
         y="52.071426"
         style="stroke-width:0.26458332"
         id="tspan18">Me-Comrads</tspan></text>
    <path
       id="path73"
       d="m 6.1700417,114.8917 c 0.8814012,0.0133 1.7629653,0.007 2.6444236,0.004 0.6123657,-0.003 1.2247347,-0.004 1.8371057,-0.004 0.53404,-2.7e-4 1.068081,-2.7e-4 1.602122,-2.7e-4 0.533291,2e-5 1.066583,4e-5 1.599874,5e-5 0.534468,0 1.068936,0 1.603404,1e-5 0.534554,0 1.069108,0 1.603662,-1e-5 0.534541,0 1.069082,0 1.603623,0 0.534539,0 1.069078,0 1.603617,0 0.559107,-0.001 1.118208,8e-4 1.677311,0.002 0.593069,1.3e-4 1.186138,-8e-4 1.779207,-10e-4 0.580694,-0.001 1.16138,10e-4 1.742073,10e-4 0.580509,-5.3e-4 1.161017,-10e-4 1.741526,-0.002 0.567846,0.0504 1.112872,-0.0635 1.670878,-0.14238 0.710086,-0.0906 1.427803,-0.10175 2.142689,-0.11684 0.641281,-0.0121 1.282679,-0.008 1.924026,-0.008 0.592939,5.2e-4 1.185881,-0.001 1.778817,10e-4 0.669904,0.003 1.339805,0.002 2.009712,5.3e-4 0.688403,-0.004 1.376751,0.004 2.065152,0.003 0.684147,-5.3e-4 1.368285,-0.005 2.052429,-0.003 0.663286,-2.6e-4 1.32657,-2.6e-4 1.989851,0.002 0.683649,-8e-4 1.367293,-0.001 2.050939,-0.001 0.607039,-5.3e-4 1.214081,-0.002 1.821122,-0.002 0.665522,0.003 1.331047,0.003 1.996575,0.002 0.585578,-0.001 1.171154,-0.002 1.756733,-0.002 0.600202,-0.002 1.200391,0.002 1.800587,0.003 0.712878,0.002 1.425758,-0.001 2.138635,-1e-4 0.576035,0.006 1.136161,-0.1546 1.708026,-0.21778 0.587253,-0.0475 1.177435,-0.0486 1.766311,-0.0529 0.622305,-0.001 1.244615,5.3e-4 1.866923,5.3e-4 0.584703,-0.001 1.1694,5.3e-4 1.7541,0.001 0.729785,0.005 1.459577,0.003 2.189367,10e-4 0.694647,1.8e-4 1.389295,0.001 2.083943,1.7e-4 0.670443,0.002 1.340889,-5.3e-4 2.011333,-0.002 0.578916,-0.002 1.157827,-2.6e-4 1.736738,5.3e-4 0.602277,5.3e-4 1.20455,-0.002 1.806821,-3e-5 0.609457,7.9e-4 1.218915,-5.3e-4 1.828369,-0.001 0.608939,0.001 1.217874,0.001 1.826813,5.3e-4 0.569013,-2.6e-4 1.138026,-0.002 1.707036,6e-5 0.643123,-2e-5 1.286243,0.002 1.929368,0.001 0.591585,-7.9e-4 1.183169,-0.002 1.774754,-0.002 0.590743,-2.7e-4 1.181481,0.002 1.772226,10e-4 0.680742,0.001 1.361488,0.002 2.042229,0.001 0.663586,2.2e-4 1.327169,-1.8e-4 1.990752,-0.001 0.562633,-10e-4 1.125265,-10e-4 1.687898,-0.002 0.598284,0.002 1.196568,0.002 1.794854,0.001 0.598525,-0.002 1.197041,7.9e-4 1.795566,5.3e-4 0.645538,10e-4 1.291077,7.9e-4 1.936618,-2.7e-4 0.562776,-0.001 1.125553,-0.001 1.68833,-0.002 0.544684,2.3e-4 1.089371,-10e-4 1.634053,0.001 0.665771,0.002 1.331545,8e-4 1.997319,0.002 0.760989,0.002 1.521988,0.002 2.282978,1.6e-4 0.70732,2.1e-4 1.41465,-5.3e-4 2.12197,-5.3e-4 0.73471,10e-4 1.46942,6e-5 2.20413,10e-4 0.78416,0.001 1.56833,0.001 2.3525,-8e-4 0.74821,-10e-4 1.49642,0.001 2.24463,0.001 0.83383,10e-4 1.66767,7.9e-4 2.5015,0.002 0.87813,5.3e-4 1.75625,0.002 2.63438,-8e-4 0.8698,0.001 1.73961,8e-4 2.60941,0.002 0.91654,0.001 1.83308,-2.7e-4 2.74962,-2.5e-4 0.8318,6e-5 1.66361,-0.001 2.49541,-0.003 0.79668,0.003 1.59338,0.002 2.39007,5e-5 0.75309,-0.001 1.50618,10e-4 2.25928,7.9e-4 0.73296,8e-4 1.46593,-0.003 2.19889,-0.002 0.72969,-0.001 1.45936,0.002 2.18905,7.9e-4 0.62604,-0.002 1.25208,-0.003 1.87813,-0.004 0.53901,-5.3e-4 1.07802,-5.3e-4 1.61704,-5.3e-4 0.53339,-10e-6 1.06679,1e-5 1.60018,2e-5 0.60748,7.9e-4 1.21498,2.7e-4 1.82245,0.004 0.77083,-5.3e-4 1.54166,10e-4 2.31249,10e-4 0.71611,-0.002 1.43222,-10e-4 2.14833,-0.003 0.57852,-10e-4 1.15704,-0.002 1.73555,-0.002 0.67132,0.004 1.34264,0.003 2.01397,0.002 0.57572,-10e-4 1.15145,-0.002 1.72717,-0.002 0.53503,-2.2e-4 1.07005,-2e-4 1.60508,-2e-4 0.50604,0.0599 0.97121,-0.0541 1.4593,-0.15449 0.48972,-0.087 0.98815,-0.0991 1.48414,-0.1095 0.53583,0.0183 1.05235,-0.005 1.57701,-0.10696 0.53371,-0.10407 1.0768,-0.1353 1.61899,-0.15409 0.53634,-0.0136 1.07291,-0.0118 1.60938,-0.0114 0.54437,0.0145 0.97724,0.0248 1.50669,-0.10718 0.4737,-0.11129 0.96106,-0.13278 1.4454,-0.14938 0.52975,-0.013 1.05972,-0.0112 1.58959,-0.0107 0.55964,-1.3e-4 1.11928,0.002 1.67892,0.003 0.60326,7.9e-4 1.20652,-0.002 1.80977,2.6e-4 0.67379,0.002 1.34758,0.002 2.02136,2.5e-4 0.56962,-0.0111 1.12762,-0.15478 1.69541,-0.21472 0.53748,-0.0485 1.07752,-0.0525 1.61676,-0.056 0.54115,0.0521 1.055,-0.0578 1.58358,-0.14705 0.53568,-0.0851 1.0783,-0.10339 1.61957,-0.11511 0.52469,-0.12789 1.0586,-0.19863 1.5963,-0.23915 0.53733,-0.0326 1.07589,-0.0329 1.614,-0.0341 0.53479,-1e-4 1.06959,0.001 1.60438,0.002 0.53831,0.0259 1.05707,10e-4 1.58399,-0.10147 0.53311,-0.10493 1.07575,-0.13652 1.6175,-0.15552 0.53627,-0.0138 1.07278,-0.012 1.60918,-0.0116 0.55915,-1.5e-4 1.11829,0.002 1.67743,0.003 0.59305,5.3e-4 1.1861,-5.3e-4 1.77915,-0.001 0.61364,0.003 1.22729,0.001 1.84094,5.3e-4 0.70981,2.6e-4 1.41957,0.005 2.1294,0.004 0.63897,-0.002 1.27794,-0.003 1.9169,-0.004 0.53956,-5.3e-4 1.07911,-5.3e-4 1.61867,-5.3e-4 0.53322,-1e-5 1.06645,1e-5 1.59967,3e-5 0.53438,0 1.06876,1e-5 1.60314,1e-5 0.53454,0 1.06909,0 1.60364,0 0.0891,0 0.17819,0 0.26728,0 0,0 -3.21423,2.33527 -3.21423,2.33527 v 0 c -0.0891,0 -0.17818,0 -0.26728,0 -0.53455,0 -1.0691,0 -1.60364,0 -0.53439,0 -1.06878,0 -1.60317,10e-6 -0.53325,1e-5 -1.06649,3e-5 -1.59974,3e-5 -0.53896,-3e-5 -1.07791,-5e-5 -1.61687,-5.3e-4 -0.63512,-8e-4 -1.27024,-0.002 -1.90537,-0.004 -0.71332,-0.001 -1.42657,0.004 -2.13987,0.004 -0.61411,-8e-4 -1.22822,-0.002 -1.84232,5.3e-4 -0.59195,-5.3e-4 -1.1839,-0.002 -1.77586,-0.002 -0.56066,5.3e-4 -1.12133,0.001 -1.682,5.3e-4 -0.53274,8e-4 -1.0658,8e-4 -1.59805,0.0268 -0.53362,0.0324 -1.06422,0.0917 -1.58974,0.19215 -0.53868,0.0732 -1.08074,0.0471 -1.62324,0.0492 -0.53428,-5.3e-4 -1.06857,-0.002 -1.60285,5.3e-4 -0.53148,0.005 -1.06381,0.0103 -1.59324,0.0621 -0.53934,0.0604 -1.06989,0.17902 -1.61097,0.21945 -0.53182,0.0219 -1.0633,0.0602 -1.58746,0.15761 -0.53812,0.0889 -1.07489,0.11381 -1.62043,0.0982 -0.53104,0.009 -1.06306,0.0223 -1.59049,0.0902 -0.5708,0.0778 -1.1391,0.20234 -1.71871,0.17266 -0.67403,-0.001 -1.34805,-0.002 -2.02207,2.4e-4 -0.60332,0.002 -1.20664,-7.9e-4 -1.80996,-5.2e-4 -0.56117,5.2e-4 -1.12234,10e-4 -1.68352,5.2e-4 -0.52649,8e-4 -1.05334,5.3e-4 -1.57928,0.0276 -0.47613,0.0316 -0.94862,0.0891 -1.41407,0.19759 -0.5126,0.0757 -1.03176,0.0311 -1.54832,0.042 -0.53285,7.9e-4 -1.066,7.9e-4 -1.59837,0.0264 -0.53406,0.0321 -1.06519,0.0906 -1.59122,0.19072 -0.53409,0.0727 -1.07145,0.0463 -1.60915,0.0664 -0.48596,0.0216 -0.9724,0.0564 -1.44801,0.16531 -0.4975,0.0989 -0.99588,0.10063 -1.50224,0.0876 -0.53484,10e-6 -1.06968,2e-5 -1.60451,-2e-4 -0.57382,-2.6e-4 -1.14763,-7.9e-4 -1.72144,-0.002 -0.67323,-0.001 -1.34647,-0.002 -2.01969,0.002 -0.57642,-2.6e-4 -1.15285,-0.001 -1.72927,-0.002 -0.71361,-0.001 -1.42721,-0.001 -2.14082,-0.003 -0.77182,-2.6e-4 -1.54364,0.002 -2.31546,10e-4 -0.61125,0.004 -1.22254,0.003 -1.83381,0.004 -0.53341,1e-5 -1.06682,3e-5 -1.60024,2e-5 -0.53848,-2e-5 -1.07697,-4e-5 -1.61546,-5.3e-4 -0.62269,-7.9e-4 -1.24539,-0.002 -1.86809,-0.004 -0.73038,-0.001 -1.46075,0.002 -2.19114,7.9e-4 -0.73157,0.001 -1.46314,-0.002 -2.19472,-0.002 -0.75383,-1.5e-4 -1.50766,0.002 -2.26149,7.9e-4 -0.79673,-0.002 -1.59347,-0.003 -2.39019,5e-5 -0.82896,-0.002 -1.65791,-0.003 -2.48687,-0.003 -0.91631,7e-5 -1.83262,-0.001 -2.74893,-2.5e-4 -0.87143,10e-4 -1.74285,7.9e-4 -2.61427,0.002 -0.87739,-0.003 -1.75476,-0.001 -2.63214,-7.9e-4 -0.83528,7.9e-4 -1.67056,5.3e-4 -2.50584,0.002 -0.74916,-1.2e-4 -1.49832,0.002 -2.24748,0.001 -0.78353,-0.002 -1.56706,-0.002 -2.35059,-8e-4 -0.73603,0.001 -1.47205,0 -2.208073,0.001 -0.706782,-1.7e-4 -1.41356,-7.9e-4 -2.120339,-5.2e-4 -0.761143,-0.002 -1.522294,-0.002 -2.283436,1.6e-4 -0.667907,0.002 -1.335815,7.9e-4 -2.003722,0.002 -0.545724,0.002 -1.091454,0.001 -1.63718,0.001 -0.561396,-2.1e-4 -1.122792,-5.3e-4 -1.684184,-0.002 -0.645285,-0.001 -1.290564,-0.001 -1.935846,-2.6e-4 -0.599096,-1.1e-4 -1.198186,0.002 -1.797282,5.3e-4 -0.599366,-5.3e-4 -1.19873,-2.7e-4 -1.798093,10e-4 -0.561178,-2e-4 -1.12236,-5.3e-4 -1.683541,-0.002 -0.662392,-0.001 -1.324785,-0.002 -1.987177,-0.001 -0.68204,-7.9e-4 -1.36408,1.5e-4 -2.046118,0.001 -0.591857,-5.3e-4 -1.183701,0.002 -1.775555,0.001 -0.589624,-5.3e-4 -1.179251,-0.001 -1.768875,-0.002 -0.644146,-5.3e-4 -1.288293,0.001 -1.932442,0.001 -0.569066,0.002 -1.13814,2.7e-4 -1.707208,6e-5 -0.609476,-5.2e-4 -1.218949,-5.2e-4 -1.828422,5.3e-4 -0.608515,-5.3e-4 -1.217033,-0.002 -1.825548,-0.001 -0.602242,0.002 -1.204484,-5.3e-4 -1.806729,-4e-5 -0.579302,7.9e-4 -1.158602,0.002 -1.737907,5.3e-4 -0.668975,-10e-4 -1.337953,-0.003 -2.006931,-0.002 -0.694812,-7.9e-4 -1.389623,1e-5 -2.084438,1.9e-4 -0.730655,-0.002 -1.461309,-0.004 -2.191959,8e-4 -0.585173,5.3e-4 -1.170342,0.002 -1.755513,-8e-4 -0.621649,-0.001 -1.243306,-0.003 -1.864934,0.004 -0.581787,0.008 -1.165508,0.015 -1.74303,0.0933 -0.573373,0.0834 -1.144109,0.20577 -1.727599,0.1696 -0.712777,0.001 -1.42556,-0.002 -2.138337,-1.1e-4 -0.603173,7.9e-4 -1.206335,0.005 -1.809514,0.003 -0.583462,-2.7e-4 -1.166926,-0.001 -1.750388,-0.002 -0.667412,-10e-4 -1.334818,-5.3e-4 -2.002226,0.002 -0.604925,-5.3e-4 -1.20985,-0.002 -1.814775,-0.002 -0.682794,3e-5 -1.365583,-1.5e-4 -2.048375,-10e-4 -0.664662,0.002 -1.329322,0.002 -1.993987,0.002 -0.681178,0.002 -1.362348,-0.003 -2.043525,-0.003 -0.691592,-4e-5 -1.383131,0.007 -2.074723,0.003 -0.670343,-0.001 -1.340683,-0.002 -2.011024,1.1e-4 -0.592444,0.002 -1.184886,-0.001 -1.77733,-0.002 -0.638284,-5.3e-4 -1.276636,8e-4 -1.914819,0.0132 -0.708221,0.019 -1.417856,0.0459 -2.118693,0.15796 -0.568287,0.0837 -1.133518,0.12766 -1.708882,0.0997 -0.579171,-2.6e-4 -1.158341,-10e-4 -1.737513,-0.002 -0.581866,2e-5 -1.163725,0.003 -1.745593,0.001 -0.591929,-5.3e-4 -1.183857,-0.001 -1.775787,-0.001 -0.560708,8e-4 -1.121413,0.003 -1.682125,0.002 -0.534539,0 -1.069077,0 -1.603616,0 -0.534541,0 -1.069082,0 -1.603623,0 -0.534554,0 -1.069108,0 -1.603662,0 -0.534475,0 -1.068951,0 -1.603426,1e-5 -0.533335,1e-5 -1.0666689,3e-5 -1.6000035,5e-5 -0.5337334,1e-5 -1.0674668,6e-5 -1.6012001,-2.6e-4 -0.6083779,-5.3e-4 -1.2167547,-0.002 -1.8251279,-0.004 -0.8849653,-0.003 -1.7700304,-0.009 -2.6549408,0.004 0,0 3.211998,-2.33365 3.211998,-2.33365 z"
       inkscape:connector-curvature="0"
       style="stroke-width:0.26458332" />
    <path
       id="path75"
       d="m 11.54566,201.18581 c 0.974616,0.0135 1.949409,0.008 2.92409,0.005 0.754325,1.4e-4 1.508644,-0.003 2.262965,-0.005 0.567304,-0.001 1.134611,-0.003 1.701913,-5.3e-4 0.668336,0.0142 1.339018,-0.0369 2.002889,0.0487 0.644069,0.1 1.291865,0.1654 1.942599,0.19837 0.573998,0.0341 1.149938,-0.0154 1.718975,0.0713 0.637157,0.11875 1.283142,0.16671 1.929575,0.1966 0.57342,0.0215 1.147343,0.0207 1.72107,0.0207 0.639183,2e-5 1.278361,0.002 1.917544,0.001 0.605372,-0.001 1.210741,-0.002 1.816113,-0.003 0.563324,-0.002 1.126643,5.3e-4 1.689965,0.001 0.655243,5.3e-4 1.310487,3e-5 1.965727,0.002 0.760529,5.2e-4 1.52105,0.001 2.281582,0.002 0.787693,-0.002 1.575387,-5.3e-4 2.363083,5.3e-4 0.772221,-0.003 1.544429,-0.002 2.31665,2.7e-4 0.835078,0.002 1.670166,5.2e-4 2.505241,-0.002 0.617572,-0.002 1.235144,-0.003 1.852716,-0.004 0.600416,0.001 1.20083,0.001 1.801249,8e-4 0.622236,7.9e-4 1.244473,7.9e-4 1.866712,1.5e-4 0.559935,-7.9e-4 1.119873,-10e-4 1.679811,-10e-4 0.55936,-0.001 1.118713,7.9e-4 1.678072,0.002 0.656656,0.002 1.313309,0.001 1.969965,6e-5 0.654574,-5.3e-4 1.309151,10e-4 1.963725,10e-4 0.706612,-2.2e-4 1.413221,8e-4 2.119833,5.3e-4 0.717177,-0.002 1.434346,0.001 2.151523,2.7e-4 0.744308,7.9e-4 1.488615,-8e-4 2.232922,5.3e-4 0.763503,-0.002 1.527001,10e-4 2.290503,-1.1e-4 0.84499,-0.003 1.689939,0.004 2.534926,0.004 0.934558,-0.003 1.869122,8e-4 2.803683,-7.9e-4 0.789731,-5.3e-4 1.579465,-0.005 2.369193,-0.004 0.726906,-1e-4 1.453812,5.3e-4 2.180715,1.4e-4 0.725934,-2.6e-4 1.451869,-0.001 2.177801,0.001 0.692822,2.5e-4 1.385644,-0.002 2.078463,-0.004 0.551635,-0.001 1.10327,-0.001 1.654908,-0.001 0.553302,5.3e-4 1.106607,-0.002 1.659893,0.002 0.681574,0.003 1.363149,-10e-4 2.044724,2.1e-4 0.625067,2.1e-4 1.250137,-0.001 1.875205,-0.002 0.544719,-5.3e-4 1.089438,-8e-4 1.634156,-8e-4 0.534117,-0.12272 1.075008,-0.19864 1.621632,-0.23097 0.655116,-0.035 1.311333,-0.0347 1.967163,-0.0343 0.724318,-0.006 1.441321,-0.14258 2.162549,-0.20979 0.648702,-0.0444 1.298987,-0.0543 1.948965,-0.0595 0.576011,-0.004 1.152023,-5.3e-4 1.728031,7.9e-4 0.645276,5.3e-4 1.290545,0.002 1.935821,0.001 0.56876,-0.10615 1.1394,-0.19095 1.71632,-0.23532 0.57796,-0.0372 1.1574,-0.0327 1.73624,-0.0342 0.58068,-7.9e-4 1.16136,-2.6e-4 1.74204,-1.5e-4 0.64913,-0.0395 1.29307,-0.15554 1.94487,-0.2028 0.76145,-0.0392 1.50811,-0.20497 2.26823,-0.26989 0.64426,0.005 1.26636,-0.10285 1.89806,-0.20849 0.5394,-0.11237 1.09911,-0.05 1.63448,-0.1683 0.56697,-0.14014 1.14937,-0.17173 1.73019,-0.19851 0.59738,-0.1393 1.20245,-0.21291 1.81346,-0.25229 0.5991,-0.0333 1.19928,-0.036 1.79912,-0.0377 0.5409,-2.6e-4 1.08181,8e-4 1.62272,0.001 0.59788,0.002 1.19575,0.002 1.79364,0.002 0.55931,-5.3e-4 1.11862,-0.001 1.67792,-0.001 0.58808,-5e-5 1.17614,0.002 1.76422,0.001 0.76096,0.005 1.52192,0.005 2.2829,0.003 0.61099,-0.002 1.22198,-0.003 1.83297,-0.004 0.53589,-5.3e-4 1.07179,-2.7e-4 1.60768,-2.7e-4 0.5435,2.7e-4 1.08701,-0.001 1.63051,0.001 0.60311,0.001 1.20621,3e-5 1.80932,-5.3e-4 0.59842,-5.3e-4 1.19684,0.001 1.79527,7.9e-4 0.56904,-7.9e-4 1.13807,-0.001 1.70711,-0.001 0.60702,-0.0135 1.21704,0.0425 1.81909,-0.0449 0.68782,-0.12591 1.3837,-0.16784 2.08092,-0.19586 0.7174,-7.9e-4 1.42301,-0.0243 2.13313,-0.12045 0.64718,-0.0944 1.29937,-0.13987 1.95251,-0.16278 0.55764,-0.0145 1.11555,-0.0142 1.67332,-0.0114 0.62234,0.003 1.24469,-7.9e-4 1.86702,0.004 0.72973,-0.10455 1.46235,-0.18107 2.19781,-0.23032 0.71134,-0.0453 1.42429,-0.0341 2.13659,-0.036 0.685,-0.001 1.37001,-0.004 2.05501,-0.002 0.71591,2.6e-4 1.43181,0.002 2.14771,0.004 0.83038,0.004 1.66076,0.001 2.49113,-0.002 0.67469,0.001 1.34938,-0.003 2.02407,-0.001 0.61918,2.6e-4 1.23836,-0.001 1.85754,-0.002 0.60855,-0.002 1.21709,0.002 1.82564,0.003 0.63884,-2.3e-4 1.27768,-0.002 1.91651,-0.003 0.54465,-8e-4 1.08929,-8e-4 1.63393,-8e-4 0.53354,-3e-5 1.06709,-1e-5 1.60064,-1e-5 0.5444,2.7e-4 1.08879,-0.001 1.63318,10e-4 0.65427,-0.13443 1.33012,-0.13073 1.98028,-0.27814 0.65376,-0.0901 1.27766,-0.30162 1.92591,-0.42013 0.5478,-0.17877 1.10325,-0.34798 1.63425,-0.5728 0.53827,-0.17846 1.06046,-0.3885 1.61796,-0.50191 0.647,-0.1816 1.28058,-0.38546 1.94267,-0.50928 0.67095,-0.0602 1.32579,-0.21532 1.9928,-0.30693 0.64514,-0.12236 1.2544,-0.36278 1.89633,-0.49894 0.51639,-0.0343 0.9919,-0.22839 1.49905,-0.31389 0.48808,-0.16895 0.99177,-0.27049 1.48815,-0.41112 0.53049,-0.13992 1.07901,-0.17135 1.62463,-0.19092 0.44886,-0.14608 0.91279,-0.20961 1.38143,-0.24526 0.51909,-0.0579 1.02691,-0.18791 1.54994,-0.24383 0.44416,-0.18135 0.91345,-0.2506 1.38787,-0.29014 0.50523,-0.15856 1.02967,-0.22501 1.55547,-0.26578 0.44836,-0.0283 0.89777,-0.0305 1.34684,-0.0327 0,0 -3.21188,2.33843 -3.21188,2.33843 v 0 c -0.44243,0.007 -0.88552,0.0147 -1.32595,0.0612 -0.52385,0.0638 -1.03444,0.18663 -1.55424,0.27262 -0.46837,0.0694 -0.91655,0.21298 -1.38225,0.29231 -0.5201,0.078 -1.03196,0.20773 -1.55854,0.23778 -0.46702,0.0608 -0.92141,0.1883 -1.39066,0.22723 -0.53129,0.0365 -1.06064,0.10104 -1.57091,0.26147 -0.5004,0.14086 -1.00904,0.25359 -1.51035,0.39066 -0.49301,0.118 -0.9831,0.23653 -1.48396,0.31814 -0.6363,0.16623 -1.26041,0.38431 -1.91535,0.47147 -0.65892,0.10588 -1.31663,0.21883 -1.97566,0.3227 -0.65428,0.15102 -1.28917,0.36948 -1.94249,0.52509 -0.53737,0.15208 -1.06009,0.35261 -1.58548,0.5411 -0.55216,0.19014 -1.09733,0.40784 -1.67289,0.51937 -0.64196,0.14282 -1.27661,0.31772 -1.92891,0.41141 -0.67248,0.0906 -1.34829,0.17602 -2.0248,0.22347 -0.54557,0.002 -1.09114,7.9e-4 -1.6367,0.001 -0.53354,1e-5 -1.06708,3e-5 -1.60062,-1e-5 -0.54388,-6e-5 -1.08775,-1.6e-4 -1.63163,-7.9e-4 -0.63635,-7.9e-4 -1.27271,-0.002 -1.90906,-0.003 -0.61111,7.9e-4 -1.22221,0.005 -1.83333,0.003 -0.61761,-8e-4 -1.23523,-0.002 -1.85285,-0.002 -0.67366,0.002 -1.34731,-0.002 -2.02097,-0.001 -0.82877,-0.003 -1.65754,-0.006 -2.48631,-0.002 -0.71881,0.001 -1.43761,0.003 -2.15641,0.002 -0.68156,7.9e-4 -1.36311,-0.005 -2.04467,-0.003 -0.70944,0.004 -1.41937,0.0124 -2.12731,0.0631 -0.73952,0.0584 -1.47392,0.16737 -2.21458,0.20657 -0.62408,0.004 -1.24817,-0.001 -1.87227,5.3e-4 -0.55479,0.003 -1.10982,0.002 -1.66422,0.0258 -0.64438,0.0331 -1.28647,0.0935 -1.92567,0.18259 -0.71438,0.0808 -1.43168,0.062 -2.14919,0.0954 -0.69523,0.0397 -1.38447,0.12363 -2.07463,0.2146 -0.61553,0.0315 -1.23208,0.0129 -1.84827,0.019 -0.56774,-2.6e-4 -1.13549,-8e-4 -1.70323,-0.001 -0.59923,-5.3e-4 -1.19846,0.001 -1.7977,7.9e-4 -0.60262,-5.3e-4 -1.20523,-0.002 -1.80785,-5.3e-4 -0.5447,0.002 -1.0894,0.001 -1.6341,0.001 -0.53553,0 -1.07105,2e-5 -1.60658,-2.6e-4 -0.60757,-5.3e-4 -1.21513,-0.002 -1.82269,-0.004 -0.76329,-0.002 -1.52656,-0.002 -2.28984,0.003 -0.5894,-2.6e-4 -1.17879,0.002 -1.7682,0.002 -0.55825,-1.8e-4 -1.1165,-5.3e-4 -1.67475,-0.001 -0.59914,-8e-4 -1.19829,-5.3e-4 -1.79743,2.6e-4 -0.53998,-7.9e-4 -1.07997,-0.002 -1.61995,-2.6e-4 -0.59266,0.004 -1.18594,0.0103 -1.77699,0.0585 -0.61045,0.0588 -1.2099,0.1837 -1.81956,0.24594 -0.57652,0.0406 -1.14581,0.1212 -1.7133,0.2308 -0.54393,0.0463 -1.09093,0.0677 -1.62847,0.17157 -0.63251,0.1041 -1.26725,0.13854 -1.90621,0.183 -0.75644,0.0884 -1.50751,0.22445 -2.26917,0.26361 -0.65837,0.0665 -1.31302,0.19461 -1.97654,0.18298 -0.57888,-0.001 -1.15777,-0.003 -1.73666,-7.9e-4 -0.57372,0.004 -1.148342,0.0105 -1.719961,0.065 -0.578512,0.0625 -1.150824,0.18116 -1.732979,0.20217 -0.645604,-0.001 -1.291204,-9e-5 -1.936808,-8e-4 -0.575736,2.2e-4 -1.151485,2.7e-4 -1.727211,0.004 -0.642141,0.008 -1.285142,0.0207 -1.924581,0.0851 -0.725303,0.076 -1.449565,0.19446 -2.181011,0.17701 -0.652068,0.006 -1.305105,0.01 -1.955319,0.0648 -0.549902,0.0602 -1.092133,0.18071 -1.644872,0.20669 -0.544007,-7e-5 -1.088017,-1.7e-4 -1.632027,-7.9e-4 -0.623286,-8e-4 -1.246576,-0.002 -1.869863,-0.002 -0.681765,0.002 -1.36353,-0.003 -2.045295,2.1e-4 -0.555588,0.004 -1.111189,0.002 -1.666793,0.002 -0.550415,-1.1e-4 -1.100833,-2.6e-4 -1.651251,-10e-4 -0.68952,-0.001 -1.37904,-0.004 -2.068563,-0.004 -0.726935,0.002 -1.453867,0.001 -2.180802,0.001 -0.727038,-2.7e-4 -1.454073,2.4e-4 -2.181111,1.4e-4 -0.785831,8e-4 -1.571662,-0.004 -2.357493,-0.004 -0.933937,-0.002 -1.867874,0.002 -2.801808,-8e-4 -0.84881,-1.1e-4 -1.697585,0.007 -2.5464,0.004 -0.763402,-10e-4 -1.526797,0.002 -2.290202,-1.1e-4 -0.744849,10e-4 -1.489694,-1.5e-4 -2.234543,5.3e-4 -0.717482,-0.001 -1.43495,0.003 -2.152431,2.7e-4 -0.707051,-2.3e-4 -1.414105,7.9e-4 -2.121156,5.3e-4 -0.655834,1.5e-4 -1.311667,0.002 -1.9675,0.001 -0.656717,-0.001 -1.313432,-0.002 -1.970146,7e-5 -0.560848,7.9e-4 -1.121693,0.003 -1.682546,0.002 -0.558745,-1.8e-4 -1.117489,-5.3e-4 -1.676233,-10e-4 -0.622383,-7.9e-4 -1.244759,-7.9e-4 -1.867139,1.5e-4 -0.601199,-5.3e-4 -1.202396,-2.6e-4 -1.80359,8e-4 -0.613966,-5.3e-4 -1.227926,-0.002 -1.841886,-0.004 -0.833499,-0.002 -1.667008,-0.003 -2.500506,-0.002 -0.77247,0.002 -1.544928,0.003 -2.317401,2.6e-4 -0.788069,0.001 -1.576141,0.002 -2.36421,5.3e-4 -0.762389,7.9e-4 -1.524773,0.001 -2.287159,0.002 -0.656728,0.002 -1.313458,0.001 -1.970186,0.002 -0.564486,7.9e-4 -1.128969,0.003 -1.693457,10e-4 -0.602936,-5.3e-4 -1.205868,-10e-4 -1.808801,-0.002 -0.642032,0 -1.284052,0.004 -1.926081,0.004 -0.576344,-0.003 -1.15299,-0.008 -1.728496,-0.0419 -0.650234,-0.0436 -1.296553,-0.117 -1.941336,-0.21146 -0.570086,-0.0306 -1.141989,-0.0121 -1.711738,-0.0563 -0.649709,-0.0488 -1.294513,-0.13647 -1.941436,-0.21208 -0.662388,-0.0319 -1.325668,-0.0108 -1.988648,-0.0153 -0.566807,0.002 -1.13362,5.3e-4 -1.700429,-5.3e-4 -0.749459,-0.002 -1.498917,-0.005 -2.24838,-0.005 -0.979298,-0.003 -1.9587028,-0.008 -2.9379382,0.005 0,0 3.2085122,-2.33112 3.2085122,-2.33112 z"
       inkscape:connector-curvature="0"
       style="stroke-width:0.26458332" />
    <g
       id="g242"
       transform="matrix(1.9437917,0,0,1.9437917,-16.180933,-126.43857)">
      <path
         style="stroke-width:0.34247088"
         inkscape:connector-curvature="0"
         d="m 10.447214,137.77764 c 0.243698,0.4581 0.519456,0.89964 0.750368,1.36428 0.150771,0.2559 0.300565,0.51334 0.466428,0.7596 0.141912,0.20655 0.281209,0.41369 0.411985,0.62833 0.117154,0.25768 0.281161,0.48917 0.430228,0.72855 0.185452,0.29013 0.368702,0.57869 0.530858,0.88258 0.221178,0.32563 0.388267,0.68443 0.623166,1.00064 0.194712,0.2513 0.340419,0.53204 0.491019,0.81048 0.12817,0.26262 0.299237,0.49488 0.470851,0.72919 0.123355,0.23388 0.304151,0.42766 0.433352,0.65721 0.09306,0.22896 0.199791,0.45563 0.362655,0.6434 0.172701,0.21581 0.311779,0.45589 0.496324,0.66199 0.204069,0.29462 0.28742,0.26422 0.612384,0.24225 0.277198,-0.0951 0.543835,-0.21506 0.825903,-0.29569 0.276394,-0.14234 0.566679,-0.26666 0.866235,-0.35232 0.120818,-0.0963 0.278368,-0.1161 0.41342,-0.1784 0.129088,-0.0597 0.231872,-0.13061 0.369937,-0.17672 0.136137,-0.13589 0.322622,-0.14354 0.490265,-0.20563 0.08168,-0.0303 0.155239,-0.0795 0.235869,-0.11248 0.260614,-0.0947 0.510916,-0.24065 0.750978,-0.38407 0.302666,-0.13164 0.616168,-0.21191 0.90645,-0.37305 0.337332,-0.11857 0.632228,-0.32388 0.969516,-0.44559 -0.295951,0.21437 0.94343,-0.4923 0.617748,-0.30388 -0.55958,0.32373 -5.350822,3.06809 0.2875,-0.16247 0.310596,-0.18981 0.631938,-0.35127 0.984924,-0.44368 0.04841,-0.0232 0.09603,-0.048 0.145218,-0.0694 0.552144,-0.24059 -0.264625,0.13496 0.282134,-0.13262 0.04853,-0.0237 0.195476,-0.0915 0.148755,-0.0643 -3.736312,2.17003 -2.661931,1.53214 -1.949619,1.10853 0.819002,-0.48747 1.659315,-0.93889 2.47303,-1.43513 0.680321,-0.41488 -1.378922,0.79909 -2.071719,1.19279 -0.04344,0.0247 0.07997,-0.0603 0.123135,-0.0854 0.775551,-0.45133 1.559563,-0.88807 2.332617,-1.34366 0.691015,-0.40722 -1.390995,0.79907 -2.086493,1.19861 0.972508,-0.6015 1.956182,-1.19669 2.982346,-1.69164 0.04321,-0.0268 0.173757,-0.10575 0.129613,-0.0805 -6.844851,3.91872 5.432531,-3.15702 -1.430209,0.79992 0.789213,-0.4516 1.578451,-0.90316 2.367639,-1.3548 0.397146,-0.22728 -0.06331,0.0298 0.342896,-0.17823 0.05773,-0.0295 0.226261,-0.12697 0.170001,-0.0946 -2.120106,1.21643 -2.688726,1.61425 -1.900427,1.07092 0.897267,-0.59084 0.02307,-0.0198 2.495987,-1.41953 0.08493,-0.048 0.342031,-0.18804 0.257609,-0.1391 -2.315643,1.34264 -2.754948,1.63654 -1.984719,1.12714 0.882135,-0.57857 1.821287,-1.06398 2.732921,-1.59435 0.686274,-0.39926 -1.37552,0.79342 -2.065523,1.18619 -0.04525,0.0258 0.08737,-0.0567 0.131054,-0.085 0.309534,-0.198 0.612346,-0.40674 0.914354,-0.61613 0.291186,-0.19421 0.596742,-0.36631 0.87352,-0.58127 0.851164,-0.63912 1.833956,-1.086 2.740116,-1.63297 0.679195,-0.40999 -1.37378,0.79392 -2.063198,1.18646 -0.04546,0.0259 0.08737,-0.0576 0.131046,-0.0863 0.807081,-0.57834 1.690546,-0.962 2.551151,-1.51739 0.676178,-0.43637 -1.392325,0.80747 -2.091151,1.20657 -0.15167,0.0866 0.105932,-0.0726 0.230134,-0.14988 7.781357,-4.48026 -1.432306,0.80957 0.370649,-0.23547 0.775526,-0.44951 1.555623,-0.89109 2.332135,-1.33891 0.695544,-0.40111 -1.391922,0.8008 -2.089237,1.19883 -0.03928,0.0224 0.07669,-0.0479 0.115032,-0.072 0.04211,-0.0246 0.08421,-0.049 0.126318,-0.0737 0.77857,-0.44887 1.558954,-0.89463 2.335713,-1.34664 0.68475,-0.39848 -2.758531,1.55923 -2.059688,1.18602 0.79721,-0.42573 1.56518,-0.90425 2.354926,-1.34369 0.214311,-0.0757 0.114332,-0.0285 0.301175,-0.13929 2.44392,-1.3424 -6.723089,3.85751 0.816379,-0.44543 0.273151,-0.098 0.536679,-0.22291 0.811642,-0.32269 0.154318,-0.14319 0.35829,-0.16805 0.543858,-0.24035 0.08566,-0.0334 0.163523,-0.0845 0.248267,-0.12012 0.04543,-0.0135 0.09308,-0.021 0.136293,-0.0404 0.07919,-0.0356 0.303142,-0.16959 0.227962,-0.12607 -0.663167,0.38345 -2.662087,1.51735 -1.99929,1.13325 0.771731,-0.4472 1.546339,-0.88944 2.319507,-1.33416 -0.70039,0.40229 -1.399499,0.80681 -2.101168,1.20686 -0.03677,0.021 0.06953,-0.0485 0.106295,-0.0695 0.774864,-0.44261 1.540214,-0.90273 2.328366,-1.32125 0.712905,-0.37855 -2.789296,1.62549 -2.102535,1.20134 2.002623,-1.23683 1.490638,-1.05454 2.444657,-1.37698 0.253538,-0.14119 0.538717,-0.23782 0.77656,-0.40413 0.04062,-0.021 0.08125,-0.0418 0.121866,-0.0628 0.04422,-0.0157 0.09087,-0.0255 0.132624,-0.0469 0.07729,-0.0395 0.298275,-0.17738 0.223199,-0.1339 -0.693076,0.40143 -2.781422,1.58978 -2.083062,1.19764 0.782964,-0.43968 1.557921,-0.89345 2.33688,-1.34016 -6.952014,3.94832 5.465922,-3.10297 -1.417434,0.82695 7.778639,-4.47617 -1.419159,0.81898 0.360484,-0.22538 0.771343,-0.45264 1.560338,-0.87565 2.320754,-1.34641 0.684737,-0.42392 -1.394162,0.8066 -2.093604,1.20579 -0.03789,0.0216 0.07243,-0.0487 0.108651,-0.073 7.851453,-4.52432 -4.974503,2.82951 2.824145,-1.64883 0,0 -2.008757,1.61138 -2.008757,1.61138 v 0 c 5.541193,-3.22081 -0.360817,0.22768 -0.365501,0.2307 -0.671203,0.4324 1.378654,-0.80579 2.070887,-1.20366 0.04112,-0.0237 -0.07813,0.0538 -0.117193,0.0808 -0.852776,0.4727 -0.917627,0.5075 -2.423568,1.4145 -0.688075,0.41441 1.386415,-0.81155 2.081591,-1.21395 0.03952,-0.0229 -0.07518,0.052 -0.114436,0.0753 -0.769889,0.4572 -1.579257,0.8528 -2.312864,1.3662 -0.653499,0.45734 1.381152,-0.79831 2.07173,-1.19746 -0.780189,0.4468 -1.559308,0.89545 -2.340568,1.34037 -2.021021,1.15095 6.854866,-4.00109 -0.650661,0.36984 4.50003,-2.60465 0.763305,-0.40246 -0.727687,0.39313 -0.267325,0.12284 -0.520167,0.27489 -0.79471,0.38305 -1.128407,0.61813 5.626646,-3.08113 1.981198,-1.14911 -0.78745,0.41733 -1.530962,0.91438 -2.319189,1.33026 -0.712921,0.37613 1.395973,-0.80636 2.093121,-1.21099 0.03607,-0.021 -0.07324,0.0399 -0.109854,0.0599 -0.77006,0.44785 -1.54012,0.89569 -2.310183,1.34354 0.69734,-0.40522 1.39395,-0.81169 2.092014,-1.21565 0.03602,-0.0208 -0.06987,0.0453 -0.105815,0.0663 -0.769724,0.44906 -1.539324,0.89834 -2.311141,1.3438 -0.117503,0.0678 -0.248671,0.0988 -0.370272,0.15742 -0.265425,0.1174 -0.537467,0.21805 -0.795656,0.35184 -0.267035,0.11183 -0.536456,0.2177 -0.79795,0.34191 4.442326,-2.57528 0.701658,-0.37375 -0.813543,0.44635 -0.100884,0.0441 -0.394701,0.19464 -0.299686,0.13898 0.682048,-0.39955 2.741887,-1.57448 2.052507,-1.18772 -0.787026,0.44154 -1.554465,0.91769 -2.345468,1.35207 -0.698807,0.38375 1.377559,-0.80297 2.068826,-1.20016 0.04233,-0.0243 -0.08113,0.0542 -0.121698,0.0814 -0.972986,0.5183 1.218814,-0.65104 -2.439899,1.40782 -0.697668,0.3926 1.384268,-0.80456 2.076402,-1.20684 -0.04093,0.0246 -0.08161,0.0497 -0.122772,0.0739 -0.772768,0.45492 -1.564801,0.87851 -2.319014,1.36359 -0.67148,0.43185 1.380397,-0.80256 2.070596,-1.20383 -0.790516,0.54397 -1.917796,1.1199 -2.540199,1.50038 -0.684627,0.41853 1.383712,-0.81294 2.078113,-1.21504 0.08398,-0.0487 -0.342653,0.21558 -0.227701,0.18138 -1.456009,0.85642 -4.707736,2.72561 -0.418073,0.25415 0.363663,-0.20952 -0.78533,0.4392 -0.395773,0.2602 -0.290535,0.20059 -0.560621,0.42898 -0.874567,0.59691 -0.312542,0.19071 -0.604492,0.4141 -0.906924,0.62001 -1.456957,0.85354 -4.709845,2.7236 -0.415014,0.24983 0.386656,-0.22271 -0.807998,0.44873 -0.381359,0.2393 -0.864554,0.52324 -0.306381,0.18633 -2.42857,1.41456 -0.08433,0.0488 -0.345965,0.17905 -0.261967,0.12967 0.684473,-0.40237 1.375535,-0.79345 2.060867,-1.19437 0.0478,-0.028 -0.09871,0.0502 -0.14807,0.0755 -0.04846,0.0329 -0.09503,0.0686 -0.145387,0.0985 -0.781033,0.46301 -1.563912,0.92293 -2.34848,1.37994 -0.11142,0.0649 -0.228898,0.11882 -0.342465,0.17983 -0.0573,0.0308 -0.228058,0.12529 -0.171859,0.0925 0.676273,-0.39441 1.354778,-0.78499 2.032166,-1.1775 -7.689671,4.44927 1.569537,-0.915 -0.629038,0.37132 -2.410486,1.41029 -1.535947,0.95267 -2.477471,1.44217 -0.329336,0.17611 0.08105,-0.0397 -0.263494,0.12975 -0.0459,0.0225 -0.179692,0.0977 -0.135519,0.072 3.58515,-2.09319 2.585066,-1.50402 1.827057,-1.05394 -7.732918,4.49312 1.427749,-0.84391 -0.375023,0.22113 -0.773927,0.45722 -1.571845,0.8758 -2.323344,1.36902 -0.620128,0.40699 2.894113,-1.75529 1.930508,-1.10679 -1.007324,0.57357 -1.959783,1.27759 -3.061632,1.65596 -0.334821,0.12814 -0.643917,0.30859 -0.957366,0.48125 0.685444,-0.39652 2.749145,-1.57302 2.056333,-1.18953 -1.0011,0.55413 -1.92014,1.21164 -2.976125,1.63533 -0.321354,0.1517 -0.63279,0.32408 -0.962151,0.45889 -0.30013,0.12594 -0.615388,0.21662 -0.896471,0.38426 -0.252898,0.13204 -0.500682,0.27354 -0.772569,0.36383 -0.243425,0.10394 -0.493666,0.18889 -0.727222,0.31567 -0.258148,0.12517 -0.520242,0.24284 -0.790404,0.34005 -0.291171,0.11235 -0.574691,0.24388 -0.867832,0.35035 -0.28369,0.10303 -0.570974,0.23052 -0.877627,0.23111 -0.320374,-0.0243 -0.553913,-0.15209 -0.73432,-0.42468 -0.17788,-0.21402 -0.327065,-0.44882 -0.501038,-0.66594 -0.162595,-0.20634 -0.293989,-0.43582 -0.385012,-0.68272 -0.123458,-0.21994 -0.300784,-0.4053 -0.416602,-0.63085 -0.179314,-0.24364 -0.3489,-0.49153 -0.487953,-0.76106 -0.143772,-0.26963 -0.284053,-0.53987 -0.471431,-0.78287 -0.232336,-0.33169 -0.405793,-0.6991 -0.640458,-1.02954 -0.160921,-0.2975 -0.33564,-0.58506 -0.521883,-0.86759 -0.151597,-0.23896 -0.3207761,-0.46873 -0.4367231,-0.72836 -0.129965,-0.2116 -0.267928,-0.41598 -0.407097,-0.6211 -0.167421,-0.25871 -0.326007,-0.52352 -0.473455,-0.79435 -0.221425,-0.46784 -0.487504,-0.91559 -0.752128,-1.35984 0,0 2.2330511,-1.27146 2.2330511,-1.27146 z"
         id="path77" />
      <path
         style="stroke-width:0.55627126"
         inkscape:connector-curvature="0"
         d="m 18.585632,140.75543 c -0.411775,-0.4839 -0.816562,-0.97371 -1.238381,-1.449 -0.438723,-0.51216 -0.863854,-1.03606 -1.280413,-1.56638 -0.401308,-0.5285 -0.823401,-1.04084 -1.220533,-1.5725 -0.552808,-0.76786 -1.029137,-1.58544 -1.519312,-2.39349 -0.432123,-0.69766 -0.821333,-1.41995 -1.214564,-2.13974 -0.169814,-0.29158 -0.34227,-0.58163 -0.512739,-0.87284 0,0 1.786237,-1.03222 1.786237,-1.03222 v 0 c 0.170235,0.29343 0.342431,0.58572 0.51061,0.88035 0.393342,0.71634 0.766879,1.44391 1.194404,2.14109 0.485599,0.80294 0.96299,1.61416 1.52696,2.3656 0.397923,0.52927 0.822324,1.038 1.221418,1.56647 0.414138,0.52689 0.832796,1.05052 1.270098,1.5585 0.422379,0.47832 0.828642,0.97048 1.2634,1.43776 0,0 -1.787185,1.0764 -1.787185,1.0764 z"
         id="path88" />
      <ellipse
         style="stroke-width:0.34247088"
         ry="2.6378522"
         rx="2.8108263"
         cy="150.83168"
         cx="26.502075"
         id="path90" />
      <path
         style="stroke-width:0.26458332"
         inkscape:connector-curvature="0"
         d="m 13.898063,150.6293 c 0.179701,0.25992 0.400053,0.48709 0.588483,0.7402 0.146374,0.15394 0.263462,0.33067 0.393078,0.49766 0.101076,0.14915 0.236048,0.26075 0.368272,0.37939 0.110582,0.1269 0.220152,0.25363 0.330094,0.381 0.162648,0.14163 0.30077,0.30707 0.444252,0.46733 0.159372,0.169 0.336765,0.32506 0.523201,0.46392 0.169187,0.13728 0.315902,0.2988 0.454383,0.46618 0.150179,0.16638 0.312783,0.31993 0.461457,0.48782 0.155457,0.17973 0.291253,0.37482 0.444561,0.5566 0.14596,0.19501 0.313939,0.37153 0.473867,0.55498 0.178513,0.1986 0.329419,0.41993 0.499545,0.62537 0.147786,0.1901 0.327543,0.35044 0.488775,0.52825 0.163115,0.14968 0.315042,0.3103 0.472255,0.46567 0.165718,0.15289 0.325914,0.30934 0.471199,0.48181 0.133304,0.14578 0.272004,0.28606 0.403852,0.43319 0.123458,0.13645 0.265165,0.25344 0.389593,0.38917 0.121921,0.14677 0.250626,0.28739 0.369215,0.43712 0.14499,0.17281 0.289589,0.34685 0.442407,0.51271 0.13043,0.14949 0.233698,0.31919 0.365955,0.46698 0.16136,0.18395 0.298749,0.38644 0.450905,0.57773 0.151564,0.16938 0.286863,0.35336 0.444891,0.51677 0.121164,0.1227 0.23387,0.2424 0.32769,0.38807 0.101017,0.13207 0.215283,0.25219 0.308264,0.39043 0.108519,0.14645 0.216825,0.29195 0.336374,0.42985 0.123964,0.17355 0.275874,0.32322 0.399701,0.49677 0.115452,0.16732 0.267992,0.30319 0.398937,0.45832 0.143679,0.15645 0.288474,0.31239 0.432579,0.46892 0.155944,0.15401 0.288481,0.32945 0.441973,0.48543 0.116334,0.13607 0.216922,0.28323 0.326456,0.42464 0.08563,0.15044 0.222234,0.25571 0.32632,0.39028 0.07004,0.0809 0.136687,0.20422 0.223147,0.0745 -2.472494,1.313 -1.382884,0.93491 -1.087691,0.58867 0.04514,-0.053 0.07467,-0.11956 0.112622,-0.17765 0.109971,-0.13868 0.165298,-0.30851 0.243359,-0.46546 0.08982,-0.17459 0.202889,-0.33601 0.307481,-0.50215 0.09427,-0.16274 0.187501,-0.32399 0.294239,-0.47913 0.116269,-0.13301 0.201123,-0.28384 0.277495,-0.44186 0.08454,-0.17888 0.163148,-0.36072 0.260549,-0.5331 0.146187,-0.24965 0.280432,-0.50585 0.422804,-0.75762 0.136551,-0.2338 0.306843,-0.44511 0.453326,-0.6723 0.13456,-0.1847 0.248399,-0.38156 0.367078,-0.57627 0.110964,-0.16686 0.23391,-0.32492 0.344069,-0.49232 0.125987,-0.21206 0.274699,-0.4095 0.423019,-0.60622 0.132064,-0.19109 0.279538,-0.37035 0.415184,-0.55874 0.132382,-0.16899 0.253757,-0.34667 0.3913,-0.51151 0.118854,-0.13903 0.240787,-0.27456 0.34402,-0.42583 0.112191,-0.15451 0.230703,-0.30472 0.364624,-0.44103 0.132393,-0.14787 0.275604,-0.28509 0.416037,-0.42515 0.130138,-0.11669 0.231372,-0.26122 0.339389,-0.39792 0.119155,-0.14758 0.232997,-0.29927 0.348649,-0.44958 0.125423,-0.17694 0.258114,-0.34863 0.384085,-0.52519 0.130926,-0.15277 0.25581,-0.30952 0.381511,-0.46664 0.11811,-0.14214 0.216482,-0.29813 0.332488,-0.44192 0.108276,-0.13973 0.200896,-0.29059 0.312404,-0.42785 0.118526,-0.14163 0.205235,-0.30484 0.300853,-0.46176 0.119245,-0.16491 0.220488,-0.34127 0.325556,-0.51527 0.117454,-0.17161 0.241075,-0.3385 0.355352,-0.51242 0.09454,-0.1281 0.183126,-0.25952 0.272991,-0.39071 0.10358,-0.15482 0.20877,-0.30796 0.303626,-0.46842 0.115017,-0.17498 0.216561,-0.35833 0.32994,-0.53427 0.111866,-0.17154 0.229302,-0.33946 0.345438,-0.50816 0.106108,-0.15991 0.201051,-0.32691 0.318087,-0.47931 0.102685,-0.14474 0.203912,-0.28924 0.312867,-0.42938 0.105196,-0.13975 0.201737,-0.28601 0.318191,-0.41682 0.100023,-0.13911 0.205126,-0.27453 0.30693,-0.41254 0.102962,-0.13633 0.194453,-0.28074 0.293425,-0.41983 0.04171,-0.0644 0.09199,-0.12231 0.139071,-0.18267 0,0 1.298691,-0.54312 1.298691,-0.54312 v 0 c -0.05692,0.0503 -0.09457,0.10975 -0.149207,0.16242 -0.09114,0.14405 -0.188727,0.28586 -0.29465,0.41964 -0.09032,0.15094 -0.217191,0.27188 -0.299715,0.42742 -0.109558,0.1354 -0.23382,0.25958 -0.321185,0.41236 -0.11012,0.13867 -0.220007,0.27391 -0.313283,0.42442 -0.109829,0.15689 -0.232884,0.3038 -0.324519,0.47376 -0.107167,0.17333 -0.230339,0.33648 -0.344721,0.50502 -0.108683,0.17855 -0.220578,0.35523 -0.332353,0.53217 -0.09609,0.1589 -0.184262,0.32232 -0.298559,0.46938 -0.0809,0.14096 -0.176871,0.26952 -0.272788,0.40026 -0.126984,0.16185 -0.221443,0.34839 -0.358201,0.50388 -0.111075,0.17162 -0.202229,0.35466 -0.3264,0.51735 -0.103624,0.15367 -0.179552,0.32387 -0.292976,0.47072 -0.102865,0.14401 -0.222282,0.27559 -0.314447,0.42801 -0.10719,0.15199 -0.23319,0.28883 -0.329237,0.44953 -0.134945,0.14901 -0.235024,0.32394 -0.388953,0.45677 -0.126259,0.17729 -0.261236,0.34779 -0.379444,0.53069 -0.119531,0.14744 -0.228439,0.30182 -0.347583,0.449 -0.110697,0.14074 -0.219158,0.28134 -0.330957,0.42031 -0.152583,0.12347 -0.282985,0.27461 -0.420296,0.41439 -0.125704,0.13914 -0.260213,0.26935 -0.373666,0.41982 -0.103304,0.1564 -0.210267,0.30597 -0.337616,0.44363 -0.147066,0.15567 -0.268132,0.33149 -0.395018,0.50384 -0.143227,0.1672 0.0046,-0.0139 -0.121107,0.16721 -0.0936,0.13489 -0.221375,0.24459 -0.29867,0.39207 -0.149603,0.1906 -0.294119,0.38633 -0.42464,0.59039 -0.09978,0.17647 -0.226301,0.3329 -0.340816,0.49956 -0.140139,0.17905 -0.219583,0.39948 -0.371231,0.57228 -0.144267,0.23031 -0.308618,0.44438 -0.461039,0.66977 -0.14722,0.24561 -0.271836,0.50346 -0.414743,0.75143 -0.0949,0.17112 -0.18851,0.34136 -0.266324,0.52169 -0.06914,0.16823 -0.145804,0.33222 -0.262363,0.47347 -0.126238,0.13852 -0.216556,0.30253 -0.300585,0.46885 -0.110054,0.15878 -0.202952,0.32849 -0.315111,0.48503 -0.07666,0.16342 -0.147347,0.32866 -0.229664,0.48837 -0.05217,0.0615 -0.07742,0.10492 -0.110834,0.17719 -0.219038,0.47373 -1.576124,0.28809 -1.315514,0.84138 -0.152379,-0.0131 -0.233461,-0.10886 -0.322112,-0.22541 -0.10692,-0.13213 -0.236342,-0.24498 -0.32554,-0.39209 -0.106918,-0.13751 -0.204143,-0.28168 -0.31884,-0.4129 -0.14836,-0.16148 -0.284376,-0.33405 -0.440603,-0.48841 -0.146065,-0.15722 -0.292832,-0.314 -0.436151,-0.47353 -0.134616,-0.15684 -0.290828,-0.29496 -0.405845,-0.46776 -0.121901,-0.16901 -0.269283,-0.31736 -0.391545,-0.48628 -0.123712,-0.14167 -0.23776,-0.29002 -0.347867,-0.44239 -0.09482,-0.13752 -0.212216,-0.25706 -0.309337,-0.393 -0.09059,-0.13712 -0.20401,-0.24696 -0.314727,-0.36765 -0.154366,-0.17146 -0.294316,-0.35536 -0.446819,-0.52852 -0.150504,-0.18988 -0.286508,-0.39099 -0.450121,-0.57025 -0.128894,-0.14981 -0.236578,-0.315 -0.364068,-0.46592 -0.15108,-0.17143 -0.301536,-0.34357 -0.448051,-0.51898 -0.11761,-0.14591 -0.242923,-0.28534 -0.36501,-0.42728 -0.126641,-0.13392 -0.266925,-0.25402 -0.389894,-0.39145 -0.133775,-0.14696 -0.271448,-0.29002 -0.40369,-0.43839 -0.144257,-0.16887 -0.305789,-0.31917 -0.466846,-0.47186 -0.155111,-0.16009 -0.315262,-0.31434 -0.473158,-0.47173 -0.164255,-0.17861 -0.345103,-0.34165 -0.492486,-0.53561 -0.164844,-0.2075 -0.320069,-0.42317 -0.496598,-0.62117 -0.16075,-0.18381 -0.330883,-0.35968 -0.475824,-0.55672 -0.152225,-0.18099 -0.287806,-0.37476 -0.443238,-0.55283 -0.150519,-0.16783 -0.316254,-0.32033 -0.4644,-0.49038 -0.135638,-0.1571 -0.273019,-0.3133 -0.437632,-0.44129 -0.188938,-0.1497 -0.374896,-0.30658 -0.536751,-0.48566 -0.144545,-0.16003 -0.286842,-0.32178 -0.447001,-0.46664 -0.110019,-0.12012 -0.211667,-0.24654 -0.322422,-0.36598 -0.140794,-0.12286 -0.272418,-0.25083 -0.381867,-0.40351 -0.126455,-0.1701 -0.249295,-0.34231 -0.389198,-0.50212 -0.18438,-0.25194 -0.395752,-0.48253 -0.586839,-0.72932 0,0 1.202155,-0.72405 1.202155,-0.72405 z"
         id="path94" />
    </g>
    <ellipse
       id="path96"
       cx="68.716316"
       cy="162.49382"
       rx="4.4173717"
       ry="4.6772165"
       style="stroke-width:0.5144676" />
    <g
       id="g231"
       transform="matrix(1.6462999,0,0,1.6462999,-54.35786,-79.420193)">
      <g
         transform="matrix(1.6436933,0,0,1.6436933,-64.581727,-93.759216)"
         id="g173">
        <path
           id="path138"
           d="m 94.413434,158.57157 c 0.38688,-0.16373 0.78821,-0.28512 1.18382,-0.42406 0.3745,-0.10579 0.74399,-0.2283 1.11354,-0.35024 0.3942,-0.11858 0.80067,-0.19185 1.19111,-0.32259 0.32559,-0.12171 0.65761,-0.21782 0.99347,-0.30594 0.28823,-0.096 0.59556,-0.12849 0.88401,-0.21945 0.534846,-0.1741 1.472476,-0.77938 -1.16622,0.69507 -0.0237,0.0133 0.0458,-0.03 0.065,-0.0493 0.0496,-0.0495 0.0545,-0.0786 0.0816,-0.14215 0.0542,-0.20463 0.0474,-0.41914 0.0476,-0.62914 -0.003,-0.28122 -1.1e-4,-0.56241 -8.6e-4,-0.84364 -0.001,-0.28651 -0.003,-0.57302 -0.004,-0.85953 -6.5e-4,-0.23247 -6.5e-4,-0.46493 -6.5e-4,-0.69741 -1e-5,-0.22743 10e-6,-0.45486 2e-5,-0.6823 0.002,-0.28226 0.002,-0.56452 0.002,-0.84679 4.5e-4,-0.29173 2.4e-4,-0.58345 2.4e-4,-0.87518 -4.6e-4,-0.26024 -0.001,-0.52049 -0.002,-0.78073 -8.6e-4,-0.24781 8.6e-4,-0.49561 8.6e-4,-0.74343 -4.5e-4,-0.27017 6.5e-4,-0.54033 1.2e-4,-0.81051 4.5e-4,-0.27162 4.5e-4,-0.54325 -2.4e-4,-0.81487 -8.6e-4,-0.28398 8.6e-4,-0.56796 0.002,-0.85194 10e-4,-0.33967 6.4e-4,-0.67936 -4.5e-4,-1.01904 8.5e-4,-0.33716 10e-4,-0.67431 2.3e-4,-1.01147 8.6e-4,-0.35852 0.002,-0.71703 0.001,-1.07554 -0.001,-0.34516 -1.1e-4,-0.69032 -4.5e-4,-1.03548 4.5e-4,-0.36935 0.002,-0.7387 8.6e-4,-1.10805 -0.001,-0.29263 -0.003,-0.58527 -0.004,-0.87792 4.5e-4,-0.25943 6.5e-4,-0.51885 1.7e-4,-0.77829 -4.5e-4,-0.23756 -6.4e-4,-0.47512 -8.6e-4,-0.71269 -0.005,-0.22513 0.0101,-0.45105 -0.009,-0.67557 -0.0387,-0.21529 -0.15221,-0.39523 -0.29173,-0.55922 -0.17085,-0.15783 -0.29958,-0.35396 -0.48841,-0.49124 -0.21736,-0.17753 -0.4127,-0.37902 -0.59646,-0.59042 -0.31261,-0.34774 -0.64846,-0.67258 -0.96394,-1.01797 -0.18712,-0.18096 -0.37241,-0.3639 -0.56631,-0.53742 -0.2127,-0.19727 -0.42353,-0.39425 -0.64968,-0.57611 -0.19464,-0.18254 -0.38685,-0.36758 -0.58541,-0.54569 -0.18135,-0.15065 -0.32887,-0.33483 -0.51852,-0.47559 -0.18415,-0.17011 -0.36213,-0.3444 -0.55212,-0.50808 -0.207736,-0.2228 -0.485296,-0.35701 -0.706439,-0.56142 -0.153854,-0.1606 -0.338082,-0.27521 -0.518003,-0.40103 -0.179634,-0.12067 -0.379063,-0.20795 -0.559198,-0.32693 -0.175872,-0.10928 -0.343584,-0.23401 -0.506462,-0.36187 -0.142916,-0.0987 -0.280028,-0.21077 -0.399504,-0.33735 -0.103902,-0.0835 -0.220129,-0.14857 -0.320742,-0.23702 0,0 1.440661,-0.9018 1.440661,-0.9018 v 0 c 0.110019,0.084 0.230434,0.15524 0.329982,0.2521 0.119474,0.11584 0.248156,0.22241 0.384926,0.31728 0.164002,0.11949 0.319579,0.25038 0.496831,0.35034 0.187453,0.11107 0.383298,0.20823 0.563058,0.33225 0.18858,0.12573 0.36593,0.26238 0.52852,0.42121 0.22461,0.19637 0.48848,0.34597 0.70024,0.55929 0.19114,0.15962 0.36455,0.33698 0.5526,0.49996 0.18533,0.152 0.34255,0.33252 0.52556,0.48725 0.19109,0.18061 0.38376,0.35922 0.57531,0.53935 0.22755,0.18595 0.44098,0.38723 0.66096,0.58195 0.19156,0.1822 0.3842,0.36291 0.56504,0.55602 0.31132,0.34777 0.63851,0.67939 0.95814,1.0194 0.19092,0.19419 0.3832,0.38818 0.59542,0.55949 0.18704,0.15668 0.33472,0.35143 0.50861,0.52209 0.154076,0.19338 0.283246,0.39905 0.338086,0.64369 0.0342,0.22942 0.0126,0.4621 0.0183,0.69355 -1.2e-4,0.23782 -4.3e-4,0.47563 -8.6e-4,0.71345 -4.3e-4,0.25937 -1.7e-4,0.51875 1.7e-4,0.77812 -8.6e-4,0.29389 -0.002,0.58778 -0.004,0.88167 -6.5e-4,0.36906 4.2e-4,0.73812 8.5e-4,1.10719 -2.1e-4,0.34532 4.3e-4,0.69063 -4.3e-4,1.03595 -8.5e-4,0.35816 1.8e-4,0.71631 0.001,1.07446 -0.001,0.33707 -6.5e-4,0.67413 2.1e-4,1.01119 -0.001,0.33983 -0.002,0.67967 -4.3e-4,1.0195 0.001,0.28327 0.003,0.56654 0.002,0.84981 -6.4e-4,0.27171 -6.4e-4,0.54343 -4.3e-4,0.81514 -4.3e-4,0.27014 4.3e-4,0.54027 1.1e-4,0.81041 2e-5,0.24755 0.002,0.49508 8.6e-4,0.74263 -4.3e-4,0.26079 -0.001,0.52157 -0.001,0.78236 0,0.29163 -1.7e-4,0.58326 2.2e-4,0.87489 -6.5e-4,0.2817 -2.2e-4,0.56339 0.002,0.84508 10e-6,0.22744 2e-5,0.45487 -1e-5,0.68231 -5e-5,0.23268 -1.1e-4,0.46536 -6.4e-4,0.69805 -8.6e-4,0.28734 -0.002,0.57469 -0.002,0.86204 8.6e-4,0.28005 0.006,0.56001 0.008,0.84005 0.002,0.22411 0.006,0.44952 -0.0236,0.67216 -0.15551,0.78894 -1.128956,1.04836 -1.857546,1.2532 -0.29546,0.0637 -0.58713,0.13918 -0.87901,0.21773 -0.33174,0.0954 -0.66112,0.19564 -0.98764,0.30776 -0.39643,0.11102 -0.79862,0.20118 -1.19126,0.32579 -0.37032,0.11707 -0.73891,0.2393 -1.11084,0.35118 -0.39951,0.13047 -0.796049,0.2705 -1.180529,0.44112 0,0 1.326399,-1.05115 1.326399,-1.05115 z"
           inkscape:connector-curvature="0"
           style="stroke-width:0.15964912" />
        <path
           id="path163"
           d="m 87.036455,129.9351 c 0.231386,0.28629 0.46686,0.56992 0.680513,0.86985 0.222745,0.29044 0.440548,0.57943 0.600245,0.90979 0.114985,0.23273 0.236495,0.46233 0.38671,0.67437 0.145991,0.23013 0.32952,0.43171 0.481549,0.65746 0.161208,0.20516 0.327155,0.4068 0.49375,0.60777 0.270227,0.31084 0.53889,0.62289 0.815297,0.92831 0.352576,0.33682 0.666565,0.71021 1.002954,1.06224 0.318338,0.31042 0.625133,0.63192 0.941816,0.94397 0.330676,0.32673 0.665742,0.64895 0.997807,0.97427 0.271166,0.22349 0.513863,0.47716 0.756941,0.73008 0.186849,0.20141 0.387406,0.38888 0.595524,0.568 0.197469,0.17559 0.404763,0.33945 0.59671,0.52118 0.167362,0.16318 0.370768,0.27907 0.555286,0.42 0.179332,0.12042 0.347435,0.25593 0.523513,0.38058 0.148047,0.11707 0.291279,0.23882 0.435626,0.36017 0.143928,0.0983 0.279048,0.20787 0.421743,0.30754 0.146214,0.0679 0.2657,0.16731 0.207539,0.33856 -0.419582,0.39864 0.223483,-0.20476 -1.321856,0.78989 -0.367091,0.23628 0.755838,-0.43709 1.134899,-0.65365 0.02379,-0.0136 -0.0452,0.0311 -0.06899,0.0447 -0.42599,0.24365 -0.847614,0.4953 -1.280221,0.72699 -0.385479,0.20646 0.759193,-0.43416 1.138791,-0.65125 -3.347863,1.92534 -0.171517,0.0975 -0.12863,0.0731 0.02088,-0.0119 -0.03891,0.0281 -0.05863,0.0418 -0.07279,0.0505 -0.143412,0.10125 -0.212945,0.15629 -0.143073,0.10694 -0.274986,0.22763 -0.414194,0.33915 -0.140917,0.0918 -0.266727,0.20596 -0.392017,0.31783 -0.144656,0.11826 -0.291069,0.23449 -0.440762,0.34628 -0.142721,0.11072 -0.29205,0.21286 -0.428778,0.33106 -0.112334,0.0929 -0.215159,0.19601 -0.324361,0.29257 -0.100092,0.11375 -0.213312,0.20964 -0.331372,0.30325 -0.117668,0.0811 -0.221623,0.17917 -0.333708,0.26764 -0.129779,0.087 -0.24823,0.1887 -0.372772,0.28276 -0.138036,0.0908 -0.259358,0.20422 -0.385821,0.30999 -0.08933,0.0807 -0.170362,0.1695 -0.27093,0.23631 0,0 -1.308108,0.52122 -1.308108,0.52122 v 0 c 0.120097,-0.10353 -0.01648,0.006 0.115856,-0.0757 0.07825,-0.0483 0.03594,-0.0357 0.103502,-0.10036 0.01791,-0.0172 0.0393,-0.0302 0.05895,-0.0454 0.113191,-0.12487 0.255823,-0.21693 0.37652,-0.33481 0.137356,-0.0767 0.250471,-0.18454 0.372907,-0.28116 0.125944,-0.0703 0.228039,-0.1696 0.333303,-0.2656 0.128921,-0.076 0.240671,-0.16802 0.34325,-0.27651 0.09377,-0.11597 0.220921,-0.19671 0.317182,-0.31046 0.146164,-0.10729 0.277024,-0.23483 0.428826,-0.33564 0.149066,-0.11215 0.297998,-0.22183 0.442198,-0.3403 0.13588,-0.10189 0.254619,-0.22347 0.38521,-0.33241 0.16106,-0.0809 0.27037,-0.2291 0.423127,-0.32391 0.693573,-0.61272 2.920918,-1.66622 0.389112,-0.29197 4.244004,-2.43342 -0.77271,0.46086 0.213344,-0.11377 0.423521,-0.24682 0.844904,-0.49731 1.269534,-0.74222 0.360495,-0.20791 -1.590217,0.91956 -1.0766,0.63214 0.01619,-0.001 0.03239,-0.002 0.04858,-0.003 0.01199,0.003 0.02355,0.01 0.03599,0.01 0.0033,0 0.0027,-0.007 5.29e-4,-0.01 -0.04634,-0.0541 -0.120944,-0.0762 -0.175128,-0.11994 -0.141951,-0.1056 -0.285718,-0.20857 -0.427024,-0.31504 -0.144552,-0.11705 -0.277987,-0.24622 -0.429882,-0.35395 -0.1724,-0.12983 -0.345432,-0.25868 -0.521504,-0.38356 -0.1915,-0.13952 -0.394293,-0.26457 -0.562099,-0.43431 -0.192294,-0.17888 -0.398545,-0.34148 -0.594633,-0.51611 -0.209314,-0.18341 -0.410088,-0.3764 -0.59827,-0.58155 -0.240591,-0.25314 -0.48567,-0.50098 -0.750118,-0.7295 -0.329274,-0.32745 -0.659249,-0.65425 -0.993584,-0.97655 -0.318638,-0.3126 -0.630198,-0.63222 -0.946508,-0.94716 -0.332644,-0.35668 -0.648321,-0.72931 -1.002305,-1.06596 -0.278439,-0.3071 -0.552704,-0.6181 -0.829577,-0.92651 -0.170243,-0.2037 -0.341704,-0.40695 -0.500671,-0.61951 -0.153435,-0.22383 -0.335748,-0.42552 -0.482338,-0.65423 -0.153654,-0.21925 -0.278207,-0.45576 -0.395663,-0.69609 -0.154289,-0.32413 -0.359733,-0.61186 -0.583586,-0.89216 -0.209847,-0.29771 -0.443725,-0.5793 -0.683761,-0.85292 0,0 1.202156,-0.72405 1.202156,-0.72405 z"
           inkscape:connector-curvature="0"
           style="stroke-width:0.26458332" />
        <path
           id="path165"
           d="m 97.80304,144.01392 c -0.271994,0.26253 -0.527399,0.54117 -0.795263,0.80784 -0.205444,0.21714 -0.398595,0.44528 -0.602396,0.66403 -0.268978,0.27702 -0.51748,0.57276 -0.776666,0.85879 -0.241345,0.27912 -0.487325,0.55449 -0.725431,0.83639 -0.183145,0.22039 -0.3492,0.454 -0.529307,0.67675 -0.196615,0.22219 -0.387057,0.44926 -0.570439,0.6825 -0.152197,0.17557 -0.281334,0.36918 -0.426406,0.55014 -0.130659,0.16861 -0.26735,0.33207 -0.403838,0.49596 -0.146733,0.19715 -0.305851,0.38401 -0.471533,0.56534 -0.19282,0.19705 -0.37973,0.39863 -0.558869,0.60818 -0.164854,0.20518 -0.317664,0.4196 -0.479287,0.62733 -0.170529,0.22252 -0.353391,0.43553 -0.550537,0.63483 -0.150135,0.15466 -0.310758,0.29956 -0.458936,0.45597 -0.120025,0.13927 -0.242969,0.27689 -0.370451,0.40943 -0.126735,0.11719 -0.262461,0.22306 -0.386617,0.34313 -0.458041,0.42923 -1.003546,0.64972 -1.57076,0.975 2.556709,-1.46557 0.432896,-0.2496 -0.120337,0.0738 -0.377833,0.22086 1.519644,-0.86897 1.137615,-0.65546 -0.428175,0.2393 -0.84818,0.49301 -1.276059,0.73284 -0.106362,0.0366 -0.05699,0.0127 -0.148735,0.0703 -0.09358,0.0546 -0.200009,0.0636 -0.294815,0.11342 0,0 1.104897,-0.87147 1.104897,-0.87147 v 0 c 0.09951,-0.0319 0.196102,-0.0695 0.286319,-0.12308 0.05011,-0.022 0.195464,-0.0983 0.148201,-0.0707 -0.376645,0.21991 -1.509231,0.87505 -1.132146,0.6559 4.209055,-2.44615 -2.804605,1.62862 1.393986,-0.80494 -2.342647,1.36265 -1.166479,0.76331 -0.831032,0.43302 0.136247,-0.10462 0.242583,-0.24474 0.391607,-0.33455 0.132437,-0.12594 0.246819,-0.26634 0.375983,-0.3959 0.127461,-0.18011 0.314235,-0.30631 0.45656,-0.47515 0.20873,-0.18189 0.384619,-0.3981 0.558395,-0.6129 0.158414,-0.21275 0.326536,-0.41818 0.478946,-0.63583 0.179285,-0.20966 0.354698,-0.4217 0.554622,-0.61255 0.166733,-0.17698 0.331156,-0.35678 0.474179,-0.55389 0.127111,-0.17171 0.281506,-0.32186 0.399909,-0.5007 0.157306,-0.1723 0.27435,-0.37464 0.434822,-0.5449 0.176268,-0.24039 0.369443,-0.46798 0.569891,-0.68846 0.184796,-0.21913 0.347848,-0.45427 0.529059,-0.67625 0.231888,-0.29017 0.494646,-0.55492 0.727011,-0.84503 0.261136,-0.28354 0.5089,-0.57898 0.773359,-0.85928 0.205668,-0.21841 0.403775,-0.44324 0.600818,-0.66941 0.268827,-0.26237 0.526187,-0.53469 0.788104,-0.80378 0,0 1.295577,-0.53665 1.295577,-0.53665 z"
           inkscape:connector-curvature="0"
           style="stroke-width:0.26458332" />
        <circle
           id="path167"
           cx="95.533485"
           cy="154.2195"
           r="1.2284226"
           style="stroke-width:0.26458332" />
      </g>
    </g>
    <g
       id="g224"
       transform="matrix(1.8334535,0,0,1.8334535,-56.343906,-104.33187)">
      <g
         id="g236"
         transform="translate(5.6696429,-0.37797619)">
        <path
           id="path175"
           d="m 91.940115,123.65022 c 0.09791,0.35063 0.272652,0.66631 0.433714,0.98948 0.08485,0.17444 0.206651,0.3211 0.326917,0.4706 0.13891,0.16317 0.274901,0.32707 0.391524,0.50719 0.160531,0.21734 0.324099,0.43552 0.498245,0.6426 0.157594,0.18842 0.333296,0.35938 0.491374,0.5473 0.168581,0.20786 0.359763,0.39556 0.531994,0.60007 0.18184,0.24279 0.395098,0.45334 0.620282,0.65487 0.233634,0.20836 0.442015,0.44295 0.651134,0.67545 0.267854,0.2866 0.513776,0.58994 0.798015,0.86065 0.321062,0.29631 0.650541,0.58179 0.981601,0.86641 0.20552,0.16758 0.42707,0.31346 0.62121,0.49421 0.18684,0.17721 0.38017,0.34766 0.56245,0.52965 0.13915,0.16987 0.33461,0.27289 0.49914,0.41314 0.18638,0.17702 0.3613,0.36569 0.54003,0.55035 0.174965,0.1811 0.338505,0.37323 0.516445,0.55146 0.17547,0.18212 0.33641,0.37597 0.49101,0.57623 0.18753,0.20119 0.3637,0.41077 0.56402,0.59957 0.1994,0.1937 0.41173,0.37293 0.61675,0.56008 0.17857,0.14788 0.364,0.28793 0.53918,0.43948 0.18502,0.16515 0.35425,0.34682 0.53936,0.51166 0.19937,0.20236 0.40841,0.39419 0.61972,0.58414 0.18843,0.18266 0.36532,0.37453 0.55834,0.55299 0.20534,0.18865 0.40515,0.38316 0.60401,0.57858 0.1897,0.20197 0.4108,0.36758 0.60387,0.56584 0.15916,0.1373 0.30387,0.28806 0.4433,0.4451 0.14725,0.13552 0.27896,0.28615 0.43151,0.41603 0,0 -1.33264,0.82763 -1.33264,0.82763 v 0 c -0.15128,-0.13929 -0.29266,-0.28819 -0.43966,-0.4319 -0.13931,-0.15335 -0.28448,-0.30051 -0.43719,-0.44064 -0.19353,-0.19538 -0.41155,-0.36377 -0.59999,-0.56468 -0.19856,-0.19402 -0.39858,-0.38657 -0.60394,-0.57341 -0.19205,-0.17799 -0.36428,-0.37366 -0.55539,-0.55215 -0.21148,-0.19019 -0.41778,-0.38561 -0.62125,-0.58429 -0.18056,-0.16769 -0.35521,-0.34157 -0.53895,-0.50592 -0.17876,-0.14986 -0.3638,-0.29227 -0.54038,-0.4448 -0.20624,-0.18738 -0.41526,-0.37166 -0.61686,-0.56422 -0.203135,-0.19585 -0.387085,-0.40968 -0.576795,-0.61832 -0.15407,-0.19397 -0.30971,-0.38517 -0.48529,-0.56034 -0.17266,-0.18295 -0.33865,-0.37204 -0.5126,-0.55368 -0.17562,-0.18025 -0.3475,-0.36486 -0.53462,-0.53336 -0.17282,-0.13722 -0.3632,-0.254 -0.5065,-0.42561 -0.18141,-0.17905 -0.36758,-0.353 -0.556106,-0.52453 -0.19887,-0.17257 -0.416032,-0.32216 -0.615309,-0.49448 -0.32933,-0.28807 -0.648851,-0.58596 -0.976199,-0.87645 -0.293383,-0.26854 -0.537568,-0.57954 -0.812164,-0.86681 -0.208799,-0.22662 -0.415562,-0.45587 -0.647069,-0.65984 -0.228472,-0.20722 -0.439615,-0.42902 -0.629513,-0.67271 -0.176496,-0.20164 -0.366627,-0.39111 -0.536989,-0.59828 -0.159302,-0.18696 -0.333044,-0.3606 -0.489218,-0.5504 -0.175525,-0.21428 -0.345954,-0.43387 -0.510266,-0.65663 -0.114485,-0.17551 -0.251288,-0.33204 -0.387507,-0.49076 -0.128412,-0.15822 -0.247917,-0.32111 -0.336698,-0.50595 -0.157639,-0.33184 -0.328525,-0.65628 -0.44717,-1.00546 0,0 1.371118,-0.75514 1.371118,-0.75514 z"
           inkscape:connector-curvature="0"
           style="stroke-width:0.29520249" />
        <path
           id="path177"
           d="m 103.59224,144.65936 c -0.44923,-0.007 -0.89853,-0.003 -1.34779,-0.001 -0.3516,0.001 -0.70321,3.9e-4 -1.05481,3.9e-4 -0.31979,3.8e-4 -0.63957,0.001 -0.95936,0.001 -0.276068,3.1e-4 -0.552148,3.3e-4 -0.828218,3.5e-4 -0.29208,4e-4 -0.58415,-6.8e-4 -0.87623,-6.8e-4 -0.3036,-0.007 -0.60888,0.0223 -0.90954,-0.0248 -0.35034,-0.0617 -0.7053,-0.0862 -1.06021,-0.10134 -0.383105,-0.0129 -0.766487,-0.0129 -1.149761,-0.0115 -0.342489,0.0253 -0.675766,-0.0222 -1.012986,-0.0721 -0.281395,-0.042 -0.565791,-0.0533 -0.849828,-0.0596 -0.276778,-0.004 -0.553601,-0.003 -0.830402,-0.003 -0.307219,-2e-4 -0.614435,6.8e-4 -0.921655,0.001 -0.278007,3.4e-4 -0.556018,3.8e-4 -0.834025,3.8e-4 -0.272248,4e-5 -0.544491,2e-5 -0.81674,2e-5 -0.272335,-2e-5 -0.544674,-2e-5 -0.81701,-2e-5 -0.04541,0 -0.09082,0 -0.136212,0 0,0 1.63819,-1.1902 1.63819,-1.1902 v 0 c 0.04541,0 0.0908,0 0.136212,0 0.272343,0 0.544686,0 0.817026,0 0.27223,0 0.544457,0 0.816682,1e-5 0.277664,3e-5 0.555328,8e-5 0.832991,1.9e-4 0.306972,1.1e-4 0.613945,3.5e-4 0.920915,-3.9e-4 0.278607,-0.001 0.557297,-0.001 0.835805,0.007 0.288212,0.0115 0.575969,0.0332 0.860926,0.0799 0.330402,0.0476 0.660102,0.0613 0.993992,0.0502 0.38497,0.001 0.7701,0.003 1.15475,0.0205 0.35804,0.0211 0.71415,0.0584 1.06941,0.10783 0.2988,0.0144 0.59812,0.004 0.897188,0.007 0.2929,-2e-5 0.5858,-10e-4 0.87871,-6.7e-4 0.27575,2e-5 0.55152,4e-5 0.82727,3.4e-4 0.31841,3.7e-4 0.63682,0.001 0.95523,0.001 0.35112,-2e-5 0.70226,-0.001 1.05338,3.8e-4 0.45103,0.001 0.90212,0.004 1.35313,-0.001 0,0 -1.63704,1.18939 -1.63704,1.18939 z"
           inkscape:connector-curvature="0"
           style="stroke-width:0.38141158" />
        <path
           id="path179"
           d="m 89.333391,147.22318 c 0.21086,0.25429 0.442029,0.4909 0.654766,0.74341 0.135673,0.15714 0.275925,0.3097 0.411847,0.4666 0.115748,0.15692 0.244718,0.30271 0.372589,0.44951 0.110005,0.14095 0.220252,0.28106 0.332011,0.42091 0.114542,0.13221 0.207881,0.28262 0.329507,0.40854 0.13802,0.12368 0.244451,0.27652 0.364936,0.41591 0.1434,0.1631 0.276938,0.33497 0.417793,0.50031 0.12786,0.1477 0.243706,0.30556 0.368566,0.45568 0.111631,0.16252 0.245754,0.30723 0.366494,0.46248 0.112968,0.15134 0.245492,0.28601 0.373134,0.42451 0.121021,0.15911 0.264848,0.29825 0.395206,0.44947 0.126745,0.15128 0.238606,0.3141 0.358093,0.47113 0.110858,0.16246 0.24474,0.30349 0.373439,0.45106 0.151653,0.13281 0.217383,0.32609 0.299947,0.50352 0.05705,0.17872 0.191927,0.3073 0.291296,0.46077 0.128131,0.15753 0.254342,0.31788 0.395197,0.46439 0.16999,0.16388 0.339741,0.32794 0.495152,0.50585 0.129433,0.12857 0.280149,0.23515 0.434739,0.33139 0.155611,0.0933 0.278969,0.22213 0.413895,0.34048 0.111138,0.13623 0.246983,0.2406 0.390293,0.33986 0.150816,0.11752 0.256024,0.2773 0.389604,0.41221 0.159753,0.15773 0.334191,0.29747 0.481931,0.46718 0.13242,0.13187 0.26576,0.25862 0.39334,0.39507 0.12354,0.15108 0.2457,0.30321 0.36267,0.45933 0.1031,0.14962 0.22267,0.28541 0.33529,0.4274 0.120801,0.12588 0.225371,0.26595 0.326011,0.40811 0.12742,0.12609 0.21536,0.27928 0.30978,0.4291 0.0837,0.15057 0.17236,0.29793 0.259863,0.44627 0.0974,0.15444 0.20406,0.30236 0.30937,0.45179 0.10694,0.1684 0.21073,0.33902 0.32383,0.50339 0.10932,0.16778 0.2,0.34449 0.33251,0.49546 0.14657,0.14095 0.25639,0.31193 0.37431,0.47593 0.10573,0.15238 0.21218,0.30342 0.31056,0.46086 0.0981,0.15393 0.1896,0.31027 0.28959,0.4631 0.0967,0.11458 0.1724,0.24441 0.25418,0.3697 0.0613,0.0682 0.0305,0.0322 0.0921,0.10849 0,0 -1.12335,0.67252 -1.12335,0.67252 v 0 c -0.0632,-0.0773 -0.0303,-0.0374 -0.0987,-0.11977 -0.0828,-0.1248 -0.15794,-0.25468 -0.25297,-0.37082 -0.10052,-0.15355 -0.19002,-0.31195 -0.29026,-0.46551 -0.0975,-0.15448 -0.20188,-0.30375 -0.30494,-0.45451 -0.11619,-0.16076 -0.22558,-0.32707 -0.369183,-0.46574 -0.13291,-0.15657 -0.22785,-0.33609 -0.33881,-0.50822 -0.11298,-0.16382 -0.21724,-0.33352 -0.324271,-0.50124 -0.10784,-0.15197 -0.21599,-0.30307 -0.31473,-0.46103 -0.0873,-0.14735 -0.17792,-0.29247 -0.26005,-0.44287 -0.0912,-0.14888 -0.18187,-0.29572 -0.30397,-0.4228 -0.1004,-0.13965 -0.20689,-0.27455 -0.32305,-0.40158 -0.11457,-0.14225 -0.231483,-0.28197 -0.337427,-0.43107 -0.113694,-0.15269 -0.231174,-0.30246 -0.354979,-0.44713 -0.128081,-0.1369 -0.26607,-0.26199 -0.393102,-0.40001 -0.147712,-0.1666 -0.323502,-0.30219 -0.480194,-0.45987 -0.126497,-0.1303 -0.22822,-0.28396 -0.37681,-0.39138 -0.146898,-0.10285 -0.280736,-0.21846 -0.399624,-0.35321 -0.127177,-0.11723 -0.253993,-0.23151 -0.401592,-0.32364 -0.161112,-0.10773 -0.323143,-0.21763 -0.453965,-0.36229 -0.154182,-0.17608 -0.319852,-0.34113 -0.488202,-0.50361 -0.145027,-0.15371 -0.286024,-0.31313 -0.412928,-0.48206 -0.102504,-0.15814 -0.241083,-0.29261 -0.298778,-0.47746 -0.07782,-0.16715 -0.139305,-0.34533 -0.281868,-0.47098 -0.131719,-0.14892 -0.262486,-0.29659 -0.378209,-0.45876 -0.117973,-0.15453 -0.226128,-0.31668 -0.351971,-0.46499 -0.130878,-0.14919 -0.273343,-0.28799 -0.395955,-0.44432 -0.130523,-0.14055 -0.260479,-0.28201 -0.376451,-0.4351 -0.121142,-0.1539 -0.255261,-0.29755 -0.366069,-0.45968 -0.121727,-0.15213 -0.24311,-0.30436 -0.366598,-0.45505 -0.137698,-0.16804 -0.275562,-0.33541 -0.419128,-0.49851 -0.116563,-0.14044 -0.227667,-0.28625 -0.362668,-0.41022 -0.119124,-0.13258 -0.218459,-0.28128 -0.333958,-0.41695 -0.111077,-0.13801 -0.21809,-0.27873 -0.329122,-0.41648 -0.127929,-0.14691 -0.252234,-0.29646 -0.372782,-0.44959 -0.136535,-0.15684 -0.273233,-0.31299 -0.406133,-0.47294 -0.208382,-0.25154 -0.432449,-0.49037 -0.6539,-0.73032 0,0 1.112881,-0.68198 1.112881,-0.68198 z"
           inkscape:connector-curvature="0"
           style="stroke-width:0.24626212" />
      </g>
    </g>
    <g
       id="g219"
       transform="matrix(1.5502417,0,0,1.5502417,-27.653166,-64.95362)">
      <path
         style="stroke-width:0.26458332"
         inkscape:connector-curvature="0"
         d="m 128.91269,126.89995 c -0.4007,0.47517 -0.78004,0.96766 -1.17536,1.44719 -0.30385,0.34899 -0.58967,0.71311 -0.88764,1.06697 -0.27654,0.27612 -0.47748,0.61075 -0.76386,0.87627 -0.32844,0.26237 -0.63756,0.54615 -0.92414,0.85335 -0.25267,0.25976 -0.51722,0.50673 -0.76801,0.76832 -0.21741,0.21683 -0.44824,0.42032 -0.65903,0.64353 -0.19517,0.27622 -0.43242,0.50783 -0.67977,0.73605 -0.26333,0.21871 -0.55168,0.40377 -0.8272,0.60633 -0.22826,0.21909 -0.40761,0.48086 -0.62236,0.71318 -0.0692,0.0212 -0.14404,0.24559 -0.23249,0.24673 -0.0432,5.3e-4 -0.0452,-0.0746 0.0685,-0.0839 0.32611,0.0123 0.65248,0.0106 0.97875,0.009 0.38124,-0.002 0.76249,-0.003 1.14374,-0.004 0.37894,-5.3e-4 0.75789,-5.3e-4 1.13683,-5.3e-4 0.37799,-1e-5 0.75598,1e-5 1.13396,2e-5 0.37796,1e-5 0.75592,1e-5 1.13389,1e-5 0.37797,0 0.75595,0 1.13392,0 0.37798,0 0.75595,0 1.13393,0 0.37798,0 0.75595,0 1.13393,0 0.37798,0 0.75595,0 1.13393,0 0.37798,0 0.75595,0 1.13393,0 0.37797,0 0.75595,0 1.13392,0 0.31499,0 0.62997,0 0.94495,0 0,0 -2.27281,1.65129 -2.27281,1.65129 v 0 c -0.31498,0 -0.62996,0 -0.94494,0 -0.37797,0 -0.75595,0 -1.13393,0 -0.37797,0 -0.75595,0 -1.13393,0 -0.37797,0 -0.75595,0 -1.13392,0 -0.37798,0 -0.75596,0 -1.13393,0 -0.37798,0 -0.75595,0 -1.13393,0 -0.37798,0 -0.75595,0 -1.13393,0 -0.37796,0 -0.75593,0 -1.13389,-10e-6 -0.37797,-2e-5 -0.75595,-4e-5 -1.13392,-1e-5 -0.37878,7e-5 -0.75757,1.6e-4 -1.13635,10e-4 -0.38137,0.001 -0.76274,0.003 -1.14411,0.004 -0.34301,-2.6e-4 -0.69282,0.0137 -1.02937,-0.0618 -0.32062,-0.15088 -0.40639,-0.43644 -0.10098,-0.66085 0.19222,-0.25988 0.44665,-0.46822 0.60643,-0.7543 0.23892,-0.25026 0.54908,-0.40809 0.82204,-0.61616 0.2643,-0.18962 0.52895,-0.41149 0.69581,-0.69453 0.20265,-0.2409 0.43072,-0.44599 0.65047,-0.66979 0.2803,-0.22705 0.49203,-0.52893 0.78119,-0.74816 0.28454,-0.31649 0.57237,-0.62833 0.91217,-0.88675 0.1075,-0.0828 0.22871,-0.15068 0.32191,-0.24935 0.16904,-0.17897 0.25405,-0.43785 0.45049,-0.59743 0.33951,-0.31625 0.58316,-0.72335 0.9064,-1.05627 0.40155,-0.47066 0.78523,-0.95734 1.164,-1.44564 0,0 2.58475,-1.09396 2.58475,-1.09396 z"
         id="path213" />
      <path
         style="stroke-width:0.26458332"
         inkscape:connector-curvature="0"
         d="m 124.75495,138.42823 c -0.44959,0.49006 -0.85446,1.01876 -1.32294,1.49125 -0.30017,0.29914 -0.61692,0.58063 -0.9124,0.88436 -0.28724,0.26737 -0.55148,0.55783 -0.83782,0.82607 -0.231,0.21132 -0.4504,0.43525 -0.68261,0.64503 -0.21218,0.21407 -0.42419,0.42838 -0.6303,0.64853 -0.2387,0.2626 -0.47024,0.53343 -0.65995,0.83383 -0.17512,0.26677 -0.34834,0.53551 -0.51309,0.80875 -0.1445,0.24931 -0.0118,0.35986 0.15647,0.53598 0.22631,0.18176 0.49106,0.29579 0.74827,0.42529 0.30044,0.1226 0.58283,0.30006 0.822,0.51957 0.24305,0.21721 0.43998,0.48324 0.71638,0.65983 0.2379,0.19679 0.45469,0.42479 0.65217,0.6625 0.20539,0.19543 0.36849,0.4406 0.4944,0.69406 0.11721,0.23732 0.29027,0.43279 0.45203,0.6387 0.19194,0.22373 0.39827,0.4416 0.62222,0.63437 0.21758,0.26762 0.48425,0.48737 0.692,0.76211 0.17912,0.23632 0.38259,0.45139 0.57095,0.67967 0.14747,0.2244 0.29288,0.45501 0.48113,0.64784 0.22364,0.26771 0.43421,0.54695 0.66531,0.80795 0.20233,0.24146 0.40346,0.48976 0.63639,0.70277 0.21921,0.23652 0.43253,0.46373 0.61246,0.73251 0.21264,0.23246 0.39506,0.48478 0.58565,0.73417 0.22262,0.26607 0.46963,0.51164 0.65761,0.80417 0.17742,0.3297 0.23158,0.70116 0.22827,1.071 -0.0487,0.32811 -0.11048,0.65274 -0.14096,0.98347 -0.0276,0.36728 -0.029,0.73585 -0.0308,1.10397 0.002,0.3536 -0.0216,0.70638 0.0431,1.0554 0.0277,0.28629 0.20165,0.50784 0.32832,0.7541 0.15417,0.3199 0.39044,0.58606 0.64978,0.82441 0.24913,0.19759 0.52127,0.34416 0.81423,0.46612 0.33475,0.11881 0.69137,0.13428 1.04281,0.14691 0.33943,0.014 0.66652,0.11746 1.00538,0.15608 0.35632,0.0325 0.71448,0.0337 1.07198,0.0359 0.35765,0.0432 0.68618,-0.0384 1.03101,-0.10966 0.32735,-0.10058 0.68889,-0.13583 1.00493,-0.26956 0.3177,-0.13183 0.66077,-0.15907 1.00021,-0.17858 0.36004,-0.008 0.7375,-0.042 1.07196,-0.18304 0.14766,-0.0842 0.32446,-0.0857 0.48077,-0.13902 0.14443,-0.0493 0.27309,-0.12319 0.42251,-0.16617 0.29577,-0.0828 0.5986,-0.18879 0.86246,-0.35241 0.0561,-0.0275 0.11215,-0.055 0.16822,-0.0825 -0.12091,0.0435 0.46661,-0.25715 0.35141,-0.19028 -3.89755,2.26241 -2.76931,1.61997 -1.95427,1.10258 0.25768,-0.19505 0.52236,-0.38022 0.78568,-0.56739 0.23654,-0.18887 0.48412,-0.36163 0.72705,-0.54301 0.24018,-0.19265 0.46615,-0.3983 0.67343,-0.62591 0.20514,-0.25865 0.42377,-0.50747 0.62463,-0.76936 0.15222,-0.23588 0.30912,-0.47026 0.49852,-0.67809 0.21296,-0.25988 0.42919,-0.51817 0.62288,-0.79283 0.17908,-0.2682 0.3382,-0.54963 0.51835,-0.817 0.15883,-0.24826 0.28436,-0.51512 0.43014,-0.7705 0.12319,-0.27487 0.28567,-0.52913 0.41845,-0.79902 0.12972,-0.27777 0.26621,-0.55207 0.40024,-0.82774 0.10532,-0.27862 0.21409,-0.55387 0.2997,-0.83934 0.088,-0.27682 0.22336,-0.53446 0.32093,-0.80711 0.11037,-0.3505 0.24894,-0.69109 0.37929,-1.03444 0.16063,-0.30409 0.22599,-0.64023 0.31761,-0.96803 0.13703,-0.35647 0.2344,-0.72182 0.32295,-1.09247 0.11252,-0.30428 0.15169,-0.62727 0.24305,-0.93694 0.10771,-0.30906 0.14035,-0.63359 0.16081,-0.95796 0.022,-0.37655 0.003,-0.75398 0.0309,-1.13001 0.0618,-0.37502 0.11745,-0.74994 0.14674,-1.12901 0.0239,-0.37483 0.025,-0.75058 0.0263,-1.12601 5.3e-4,-0.37784 -2.5e-4,-0.75567 -5.2e-4,-1.13351 -0.0407,-0.32359 -0.11293,-0.64119 -0.14953,-0.96584 -0.0254,-0.31789 -0.10241,-0.63223 -0.18319,-0.9404 -0.11722,-0.36434 -0.25614,-0.71723 -0.33749,-1.09249 -0.0816,-0.33382 -0.23757,-0.64009 -0.38143,-0.94977 -0.10694,-0.32039 -0.22726,-0.62742 -0.39453,-0.92067 -0.13128,-0.25162 -0.26742,-0.50025 -0.4037,-0.74953 -0.16251,-0.22371 -0.31417,-0.45994 -0.43349,-0.70988 -0.15391,-0.28433 -0.34522,-0.54426 -0.4937,-0.83144 -0.18429,-0.31173 -0.4318,-0.57865 -0.65577,-0.86123 -0.20975,-0.25146 -0.43427,-0.49717 -0.68121,-0.71314 -0.19837,-0.19154 -0.38175,-0.40053 -0.5902,-0.58135 -0.19485,-0.2423 -0.47532,-0.38214 -0.7058,-0.58416 -0.26428,-0.17226 -0.51237,-0.36589 -0.76914,-0.54876 -0.25104,-0.12879 -0.47194,-0.30714 -0.69619,-0.47774 -0.26847,-0.14274 -0.47143,-0.37698 -0.73987,-0.51777 -0.25756,-0.18714 -0.53237,-0.35228 -0.81755,-0.49408 -0.32954,-0.12275 -0.61902,-0.3253 -0.9489,-0.44805 -0.32322,-0.19699 -0.70537,-0.21074 -1.05383,-0.32794 -0.31194,-0.11565 -0.64226,-0.14421 -0.97147,-0.16229 -0.36822,-0.0143 -0.73683,-0.0123 -1.10527,-0.0119 -0.37451,-0.0158 -0.75572,0.0409 -1.12423,-0.0354 -0.31758,-0.1027 -0.65819,-0.0826 -0.97478,-0.17775 -0.2895,-0.15771 -0.43972,-0.47001 -0.55748,-0.76563 -0.11352,-0.34168 -0.12619,-0.70359 -0.13764,-1.06018 -0.008,-0.37836 -0.005,-0.75684 -0.004,-1.13525 10e-4,-0.37844 0.002,-0.75688 0.002,-1.13532 0.032,-0.34018 -0.0438,-0.6663 -0.10391,-0.99766 -0.0609,-0.35713 -0.0728,-0.71974 -0.0814,-1.08113 0.0147,-0.34672 -0.0112,-0.68272 -0.079,-1.02191 -0.0724,-0.34857 -0.0926,-0.70422 -0.10571,-1.05902 -0.0102,-0.37686 -0.009,-0.75391 -0.009,-1.13087 5.3e-4,-0.37832 7.9e-4,-0.75663 0.001,-1.13495 1.8e-4,-0.37802 1.9e-4,-0.75603 2.1e-4,-1.13405 0,-0.37797 -1e-5,-0.75594 -1e-5,-1.13392 0,-0.31498 0,-0.62995 0,-0.94494 0,0 2.50314,-1.27541 2.50314,-1.27541 v 0 c 0,0.31498 0,0.62996 0,0.94494 1e-5,0.37797 1e-5,0.75595 1e-5,1.13393 -1e-5,0.37805 -1e-5,0.75611 -1.6e-4,1.13417 -1.8e-4,0.37833 -5.2e-4,0.75666 -10e-4,1.13498 -2.7e-4,0.3741 -0.002,0.74824 0.006,1.12228 0.009,0.34002 0.0219,0.68148 0.0868,1.01635 0.0715,0.35509 0.12657,0.70307 0.0992,1.06773 0.006,0.34775 0.0124,0.69678 0.064,1.04141 0.0589,0.34688 0.15837,0.68682 0.12347,1.0428 -1.9e-4,0.37863 -5.3e-4,0.75726 -0.002,1.13588 -0.001,0.37587 -0.003,0.75175 0.001,1.1276 0.007,0.32573 0.009,0.65696 0.0969,0.97314 0.0786,0.21266 0.17454,0.46883 0.41123,0.53354 0.32016,0.049 0.64072,0.0928 0.95842,0.15686 0.36631,0.0185 0.73355,0.001 1.1002,0.007 0.37311,8e-4 0.74676,2.3e-4 1.11905,0.0283 0.34276,0.0335 0.67963,0.0945 1.00547,0.20966 0.36682,0.089 0.731,0.18025 1.06986,0.3534 0.32562,0.14638 0.63353,0.32891 0.96213,0.46946 0.28496,0.15501 0.56438,0.31945 0.83072,0.50506 0.25833,0.17087 0.48845,0.38149 0.75466,0.54187 0.22792,0.16543 0.45358,0.33333 0.69661,0.47667 0.2541,0.19452 0.52183,0.3692 0.77445,0.56526 0.24318,0.19245 0.51522,0.35073 0.71717,0.59172 0.19967,0.19081 0.39281,0.38844 0.5887,0.58307 0.24736,0.23713 0.487,0.48494 0.70091,0.75273 0.23581,0.29639 0.49273,0.58007 0.68277,0.90931 0.14864,0.29086 0.35276,0.54702 0.50363,0.83717 0.11395,0.24658 0.27173,0.47187 0.42541,0.69496 0.13541,0.24803 0.27073,0.49541 0.4004,0.74613 0.16994,0.30082 0.30028,0.61247 0.40107,0.94335 0.15301,0.3296 0.32336,0.65272 0.4129,1.00747 0.0703,0.37156 0.20677,0.71652 0.32963,1.07238 0.0968,0.31844 0.16954,0.6537 0.20604,0.98348 0.0317,0.33496 0.0983,0.66233 0.16075,0.99253 2.7e-4,0.37811 0.001,0.75622 0.001,1.13434 -5.3e-4,0.38085 -2.7e-4,0.7619 -0.0181,1.14243 -0.0225,0.38335 -0.0616,0.76538 -0.14052,1.14177 -0.0626,0.36661 -0.0132,0.7419 -0.0381,1.11242 -0.0134,0.34255 -0.0303,0.68848 -0.12652,1.01974 -0.10141,0.30896 -0.14652,0.6249 -0.24716,0.93497 -0.12942,0.35449 -0.14142,0.74918 -0.32659,1.08789 -0.0918,0.3379 -0.15051,0.68704 -0.29909,1.00609 -0.16515,0.31603 -0.25152,0.67102 -0.39198,0.99895 -0.0701,0.29335 -0.21559,0.54334 -0.3107,0.82706 -0.0686,0.14151 -0.0863,0.2834 -0.13819,0.43102 -0.0162,0.046 -0.0369,0.0902 -0.0553,0.13534 -0.0211,0.0405 -0.0476,0.0787 -0.0634,0.12166 -0.0188,0.0513 -0.0265,0.10594 -0.0397,0.15891 -0.10328,0.28961 -0.26154,0.55779 -0.40191,0.83028 -0.10609,0.2917 -0.28573,0.53881 -0.40421,0.82181 -0.13654,0.26714 -0.28916,0.52293 -0.42389,0.79045 -0.16657,0.2742 -0.34281,0.5435 -0.52282,0.80948 -0.15588,0.3071 -0.39383,0.55684 -0.6023,0.82907 -0.16351,0.22211 -0.37118,0.40723 -0.51506,0.64617 -0.15701,0.30669 -0.42644,0.52361 -0.60838,0.81492 -0.20585,0.23454 -0.40043,0.47841 -0.65775,0.65735 -0.2149,0.21602 -0.46668,0.38857 -0.72525,0.54556 -0.23061,0.23187 -0.52195,0.38511 -0.78187,0.58216 -0.1681,0.1515 -0.0836,0.0908 -0.2838,0.20711 -1.02327,0.59434 -2.03051,1.22478 -3.0857,1.76393 -0.29033,0.12599 -0.58963,0.23024 -0.89294,0.31981 -0.29726,0.11405 -0.60226,0.19993 -0.90522,0.29797 -0.36625,0.0753 -0.73333,0.12624 -1.10773,0.13505 -0.33071,0.0378 -0.65111,0.1103 -0.9626,0.23009 -0.34252,0.0794 -0.67848,0.18346 -1.02484,0.24532 -0.35215,0.0703 -0.70502,0.0726 -1.06352,0.0599 -0.36542,-0.006 -0.73195,-0.0123 -1.0945,-0.063 -0.32951,-0.052 -0.65389,-0.14276 -0.99003,-0.13908 -0.37673,-0.0274 -0.75478,-0.0725 -1.10281,-0.23011 -0.3119,-0.1478 -0.60729,-0.31565 -0.86529,-0.54858 -0.27114,-0.27004 -0.52951,-0.5574 -0.70253,-0.90225 -0.13647,-0.26883 -0.32883,-0.51306 -0.36353,-0.82356 -0.0773,-0.3668 -0.0745,-0.73264 -0.0657,-1.10687 8e-4,-0.37405 8e-4,-0.74835 0.02,-1.12201 0.0216,-0.33117 0.0555,-0.6617 0.13826,-0.98407 0.0556,-0.30413 -0.01,-0.63033 -0.13972,-0.90878 -0.18535,-0.28621 -0.4355,-0.52216 -0.65012,-0.78592 -0.18809,-0.25641 -0.38452,-0.50298 -0.58951,-0.74677 -0.17176,-0.24916 -0.37805,-0.46101 -0.58552,-0.68076 -0.22801,-0.22999 -0.44139,-0.47494 -0.6436,-0.72776 -0.2244,-0.26387 -0.44259,-0.53282 -0.66764,-0.79634 -0.18129,-0.20539 -0.33929,-0.42941 -0.48748,-0.65959 -0.19479,-0.22794 -0.39079,-0.45413 -0.57318,-0.69234 -0.20161,-0.25723 -0.4548,-0.46946 -0.66858,-0.71685 -0.22633,-0.21329 -0.44952,-0.4329 -0.64752,-0.67281 -0.17752,-0.21948 -0.35263,-0.43912 -0.48199,-0.69189 -0.11372,-0.23579 -0.27398,-0.44952 -0.45941,-0.63371 -0.18764,-0.21579 -0.38081,-0.43345 -0.61107,-0.60439 -0.26664,-0.20381 -0.48326,-0.45959 -0.73453,-0.68154 -0.23649,-0.19085 -0.49865,-0.34358 -0.78004,-0.45915 -0.28714,-0.135 -0.56786,-0.29341 -0.80356,-0.5081 -0.23709,-0.24695 -0.41162,-0.4857 -0.31759,-0.84474 0.132,-0.30129 0.3446,-0.55256 0.49794,-0.84356 0.21987,-0.28471 0.38607,-0.61094 0.64729,-0.86651 0.19831,-0.22821 0.40623,-0.44705 0.62402,-0.65346 0.19974,-0.24372 0.45605,-0.4404 0.68585,-0.65523 0.26836,-0.28329 0.55748,-0.55315 0.84177,-0.82004 0.29483,-0.31436 0.60712,-0.60301 0.91615,-0.90292 0.49932,-0.43296 0.88796,-0.96719 1.32589,-1.45911 0,0 2.58475,-1.09396 2.58475,-1.09396 z"
         id="path215" />
    </g>
  </g>
</svg>
