<?xml version="1.0" encoding="UTF-8" standalone="no"?>
<!-- Created with Inkscape (http://www.inkscape.org/) -->

<svg
   xmlns:dc="http://purl.org/dc/elements/1.1/"
   xmlns:cc="http://creativecommons.org/ns#"
   xmlns:rdf="http://www.w3.org/1999/02/22-rdf-syntax-ns#"
   xmlns:svg="http://www.w3.org/2000/svg"
   xmlns="http://www.w3.org/2000/svg"
   xmlns:sodipodi="http://sodipodi.sourceforge.net/DTD/sodipodi-0.dtd"
   xmlns:inkscape="http://www.inkscape.org/namespaces/inkscape"
   width="210mm"
   height="297mm"
   viewBox="0 0 210 297"
   version="1.1"
   id="svg267"
   inkscape:version="0.92.4 (5da689c313, 2019-01-14)"
   sodipodi:docname="Looks like your going to the shadow realm.svg">
  <defs
     id="defs261" />
  <sodipodi:namedview
     id="base"
     pagecolor="#ffffff"
     bordercolor="#666666"
     borderopacity="1.0"
     inkscape:pageopacity="0.0"
     inkscape:pageshadow="2"
     inkscape:zoom="1.4"
     inkscape:cx="500.11599"
     inkscape:cy="815.20097"
     inkscape:document-units="mm"
     inkscape:current-layer="layer1"
     showgrid="false"
     inkscape:window-width="1920"
     inkscape:window-height="1001"
     inkscape:window-x="-9"
     inkscape:window-y="-9"
     inkscape:window-maximized="1" />
  <metadata
     id="metadata264">
    <rdf:RDF>
      <cc:Work
         rdf:about="">
        <dc:format>image/svg+xml</dc:format>
        <dc:type
           rdf:resource="http://purl.org/dc/dcmitype/StillImage" />
        <dc:title></dc:title>
      </cc:Work>
    </rdf:RDF>
  </metadata>
  <g
     inkscape:label="Layer 1"
     inkscape:groupmode="layer"
     id="layer1">
    <text
       xml:space="preserve"
       style="font-style:normal;font-weight:normal;font-size:7.87169933px;line-height:1.25;font-family:sans-serif;letter-spacing:0px;word-spacing:0px;fill:#000000;fill-opacity:1;stroke:none;stroke-width:0.19679248"
       x="19.262005"
       y="16.523508"
       id="text271"
       transform="matrix(1.042938,0.07039884,-0.21376148,0.94440076,0,0)"><tspan
         sodipodi:role="line"
         id="tspan269"
         x="19.262005"
         y="16.523508"
         style="stroke-width:0.19679248">Looks like your going to the shadow realm</tspan><tspan
         sodipodi:role="line"
         x="19.262005"
         y="26.363132"
         style="stroke-width:0.19679248"
         id="tspan273"></tspan><tspan
         sodipodi:role="line"
         x="19.262005"
         y="36.202755"
         style="stroke-width:0.19679248"
         id="tspan275">appears you-go darkness cursed-place</tspan></text>
    <path
       id="path277"
       d="m 15.252442,72.128578 c 0.88491,0.01312 1.769975,0.0071 2.654941,0.0038 0.608373,-0.0026 1.21675,-0.0038 1.825127,-0.0043 0.533734,-2.64e-4 1.067467,-2.64e-4 1.601201,-2.64e-4 0.587727,1.37e-4 1.175445,0.0021 1.763174,0.0016 1.143365,-0.06597 2.285603,-0.147928 3.429959,-0.200128 0.891135,-0.04189 1.783019,-0.05954 2.675041,-0.06416 0.82927,-0.0013 1.658538,-0.0011 2.487805,0.0011 0.796097,0.0021 1.592192,-0.0024 2.388288,-0.0016 0.783752,2.15e-4 1.567506,0.0019 2.351257,0.0013 0.727229,-1.53e-4 1.454452,-0.0013 2.181678,-0.0032 0.566634,-0.0013 1.133271,-0.0019 1.699905,-0.0021 0.713253,0.0038 1.426514,0.005 2.139775,0.0039 0.692434,0.0013 1.384869,-0.0011 2.0773,-0.0026 0.565549,-7.94e-4 1.131101,-0.0024 1.696648,-2.11e-4 0.601486,0.0011 1.202971,-3.8e-5 1.804456,-5.3e-4 0.709165,0.0033 1.418341,0.0036 2.127515,0.0034 0.6576,-0.0021 1.315196,-0.0019 1.972794,-0.0016 0.663411,0.0011 1.326816,5.29e-4 1.990227,-5.29e-4 0.61781,-0.0011 1.235618,5.29e-4 1.85343,-8.5e-5 0.567947,-7.94e-4 1.135896,-0.0013 1.703843,-0.0016 0.535636,-1.99e-4 1.071269,-1.99e-4 1.606902,-2.04e-4 0.653634,0.0021 1.307256,0.0038 1.960898,0.0029 0.711486,1.53e-4 1.422961,0.0019 2.134452,2.65e-4 0.713566,-2.31e-4 1.427123,0.0013 2.140691,-2.4e-5 0.593243,-0.0016 1.18649,-0.0024 1.779736,-0.0029 0.561893,-0.0013 1.123778,5.29e-4 1.685665,0.0013 0.591087,1.4e-4 1.182174,-7.94e-4 1.773262,-0.0013 0.540631,-2.65e-4 1.081262,-5.29e-4 1.621893,-5.29e-4 0.599667,5.29e-4 1.19934,0.0011 1.799008,0.0028 0.636188,5.29e-4 1.272376,-0.0011 1.908566,-0.0019 0.611545,7.93e-4 1.22309,0.0011 1.83464,2.64e-4 0.598693,-0.0019 1.197382,7.94e-4 1.796076,5.29e-4 0.621072,-0.0016 1.242142,5.29e-4 1.863214,2.15e-4 0.582697,-5.3e-4 1.165392,-0.0013 1.748089,-0.0019 0.548621,6e-5 1.097243,-0.0013 1.645862,0.0011 0.675521,0.0041 1.351063,0.0016 2.026592,5.29e-4 0.680386,5.29e-4 1.360765,0.0024 2.041157,0.0013 0.591442,-0.0013 1.182886,-0.0021 1.77433,-0.0026 0.536125,-2.64e-4 1.072248,-2.64e-4 1.608373,-2.64e-4 0.533749,2e-6 1.067501,1.5e-5 1.60125,2.1e-5 0.534464,5e-6 1.06893,5e-6 1.603394,5e-6 0.534546,3e-6 1.069094,3e-6 1.603639,0 0.588934,1.08e-4 1.177859,0.0019 1.766795,0.0016 0.568151,-5.29e-4 1.1363,-0.0011 1.70446,-0.0013 0.5361,-2.07e-4 1.07219,-2.12e-4 1.60829,-2.23e-4 0.53411,-2e-6 1.06823,6e-6 1.60234,8e-6 0.64905,0.0021 1.2981,0.0033 1.94715,0.0028 0.63693,-0.0021 1.27386,-2.06e-4 1.91079,-5.29e-4 0.58291,-7.94e-4 1.16583,-0.0016 1.74874,-0.0019 0.53715,-2.64e-4 1.0743,-2.64e-4 1.61145,-2.64e-4 0.53394,-6e-6 1.06789,5e-6 1.60184,7e-6 0.56063,-0.0011 1.12126,7.94e-4 1.68189,0.0019 0.59193,1.37e-4 1.18387,-7.94e-4 1.7758,-0.0013 0.5407,-2.65e-4 1.08141,-5.3e-4 1.62211,-5.3e-4 0.53404,-2.6e-5 1.06807,-1.5e-5 1.6021,-1e-5 0.53441,3e-6 1.06882,5e-6 1.60323,5e-6 0.53454,3e-6 1.06908,0 1.60362,0 0.53454,0 1.06908,0 1.60362,0 0.57571,-0.0011 1.1514,0.0019 1.7271,0.0019 0.57968,-2.64e-4 1.15936,-0.0011 1.73904,-0.0013 0.5379,-2.64e-4 1.0758,-2.64e-4 1.6137,-2.64e-4 0.58844,9.8e-5 1.17687,0.0019 1.76531,0.0016 0.56807,-5.29e-4 1.13614,-0.0011 1.70421,-0.0013 0.5361,-2.06e-4 1.0722,-2.11e-4 1.6083,-2.22e-4 0.53411,-3e-6 1.06823,5e-6 1.60234,8e-6 0.60789,0.003 1.21578,0.0016 1.82367,0.0011 0.55063,-5.29e-4 1.10126,-7.93e-4 1.65189,-0.0011 0.53441,-8.5e-5 1.06882,-7.7e-5 1.60323,-7.4e-5 0.53428,5e-6 1.06856,8e-6 1.60284,1.1e-5 0.53453,0 1.06905,0 1.60358,0 0.53454,0 1.06908,0 1.60362,0 0.53454,0 1.06908,0 1.60362,0 0.53454,0 1.06908,0 1.60362,0 0.53454,0 1.06908,0 1.60362,0 0.53453,0 1.06907,0 1.60361,0 0.53454,0 1.06908,0 1.60362,0 0.53454,0 1.06908,0 1.60362,0 0.53454,0 1.06907,0 1.60361,0 0.53454,0 1.06908,0 1.60362,0 0.53662,0.03891 1.05984,-0.0529 1.58663,-0.136899 0.53538,-0.08521 1.07725,-0.109145 1.6183,-0.123642 0.53528,-0.01034 1.0707,-0.0088 1.60605,-0.0083 0.53451,7.93e-4 1.06902,0.0011 1.60353,0.0013 0.53453,2.06e-4 1.06905,2.09e-4 1.60358,2.19e-4 0.53454,3e-6 1.06907,-5e-6 1.60361,-8e-6 0.53454,-2e-6 1.06908,-5e-6 1.60362,-5e-6 0.53454,0 1.06908,0 1.60362,0 0.53645,0.02368 1.06138,-0.101521 1.58963,-0.173958 0.59004,-0.07532 1.18574,-0.08119 1.77961,-0.08965 0.56857,-0.006 1.13717,-0.0051 1.70576,-0.0048 0.53606,5.29e-4 1.07212,7.94e-4 1.60819,0.0011 0.5341,1.33e-4 1.0682,1.33e-4 1.6023,1.38e-4 0.53449,3e-6 1.06898,-3e-6 1.60347,-5e-6 0.53454,-3e-6 1.06908,-3e-6 1.60362,-3e-6 0.53454,0 1.06908,0 1.60362,0 0.53454,0 1.06908,0 1.60362,0 0.53454,0 1.06908,0 1.60362,0 0.53454,0 1.06908,0 1.60362,0 0.53453,0 1.06908,0 1.60361,0 0,0 3.21423,2.335273 3.21423,2.335273 v 0 c -0.53454,0 -1.06908,0 -1.60361,0 -0.53454,0 -1.06908,0 -1.60362,0 -0.53454,0 -1.06908,0 -1.60362,0 -0.53454,0 -1.06908,0 -1.60362,0 -0.53454,0 -1.06908,0 -1.60362,0 -0.53454,0 -1.06908,0 -1.60362,3e-6 -0.53449,3e-6 -1.06897,5e-6 -1.60345,1.6e-5 -0.53412,5e-6 -1.06824,2.6e-5 -1.60235,-4.2e-5 -0.53634,-1.09e-4 -1.07267,-2.65e-4 -1.60901,-0.0011 -0.56898,-0.0011 -1.13796,-0.0029 -1.70694,-0.0016 -0.58345,0.0033 -1.16799,0.0048 -1.74961,0.05657 -0.54206,0.0581 -1.07451,0.196156 -1.6176,0.21341 -0.53454,0 -1.06908,0 -1.60362,0 -0.53454,0 -1.06908,0 -1.60362,3e-6 -0.53454,0 -1.06907,5e-6 -1.60361,10e-6 -0.53456,3e-6 -1.06911,1.3e-5 -1.60366,-10e-5 -0.53457,-1.51e-4 -1.06914,-5.3e-4 -1.6037,-0.0011 -0.53373,-7.93e-4 -1.06747,-0.0024 -1.60119,0.0016 -0.53035,0.0067 -1.06193,0.01595 -1.58894,0.08182 -0.54034,0.07533 -1.07096,0.225856 -1.6206,0.185086 -0.53454,0 -1.06908,0 -1.60362,0 -0.53454,0 -1.06907,0 -1.60361,0 -0.53454,0 -1.06908,0 -1.60362,0 -0.53454,0 -1.06908,0 -1.60362,0 -0.53454,0 -1.06908,0 -1.60361,0 -0.53454,0 -1.06908,0 -1.60362,0 -0.53454,0 -1.06908,0 -1.60362,0 -0.53454,0 -1.06908,0 -1.60362,0 -0.53454,0 -1.06908,0 -1.60362,0 -0.53453,0 -1.06905,0 -1.60357,3e-6 -0.53427,0 -1.06854,5e-6 -1.60282,8e-6 -0.53447,2e-6 -1.06895,1.3e-5 -1.60343,-7.4e-5 -0.55149,-1.19e-4 -1.10298,-2.65e-4 -1.65446,-0.0011 -0.60697,-5.29e-4 -1.21395,-0.0021 -1.82092,0.0011 -0.5341,5e-6 -1.06821,1e-5 -1.60232,8e-6 -0.5363,-8e-6 -1.0726,-1.6e-5 -1.60891,-2.2e-4 -0.56932,-2.62e-4 -1.13865,-7.94e-4 -1.70797,-0.0013 -0.58699,-2.64e-4 -1.17397,0.0016 -1.76095,0.0016 -0.53822,-2.2e-5 -1.07643,-5.1e-5 -1.61465,-2.65e-4 -0.581,-2.65e-4 -1.162,-0.0011 -1.74301,-0.0013 -0.57407,5.8e-5 -1.14813,0.0027 -1.7222,0.0019 -0.53454,0 -1.06908,0 -1.60362,0 -0.53454,0 -1.06908,0 -1.60362,0 -0.5344,3e-6 -1.0688,3e-6 -1.60321,8e-6 -0.53404,3e-6 -1.06809,1.3e-5 -1.60213,-1.3e-5 -0.54116,-4.2e-5 -1.08233,-1.09e-4 -1.6235,-5.29e-4 -0.59307,-5.29e-4 -1.18614,-0.0013 -1.77921,-0.0013 -0.55902,7.94e-4 -1.11804,0.0028 -1.67706,0.0019 -0.53395,5e-6 -1.06789,1.6e-5 -1.60183,8e-6 -0.53745,-1.6e-5 -1.0749,-3.2e-5 -1.61235,-2.65e-4 -0.58462,-2.64e-4 -1.16924,-0.0011 -1.75387,-0.0019 -0.63748,-2.64e-4 -1.27495,0.0016 -1.91244,-5.29e-4 -0.64649,-5.29e-4 -1.293,7.94e-4 -1.93949,0.0028 -0.53411,5e-6 -1.06821,1.1e-5 -1.60232,8e-6 -0.5363,-8e-6 -1.0726,-1.6e-5 -1.6089,-2.2e-4 -0.56941,-2.61e-4 -1.13883,-7.93e-4 -1.70824,-0.0013 -0.58748,-2.65e-4 -1.17495,0.0016 -1.76243,0.0016 -0.53455,0 -1.069099,0 -1.603644,0 -0.534459,0 -1.068917,0 -1.603375,5e-6 -0.533731,8e-6 -1.067464,1.9e-5 -1.601195,2.1e-5 -0.536432,-7e-6 -1.072867,-5e-6 -1.609299,-2.64e-4 -0.593884,-5.29e-4 -1.187768,-0.0013 -1.781649,-0.0027 -0.679246,-0.0011 -1.358476,7.93e-4 -2.037717,0.0013 -0.675103,-0.0013 -1.350219,-0.0037 -2.025314,5.29e-4 -0.547767,0.0024 -1.095539,7.93e-4 -1.643309,0.0011 -0.584324,-2.65e-4 -1.168649,-0.0011 -1.752973,-0.0019 -0.620879,-2.65e-4 -1.24175,0.0019 -1.862629,2.14e-4 -0.598163,-10e-5 -1.196322,0.0024 -1.794487,5.29e-4 -0.611203,-7.93e-4 -1.222406,-5.29e-4 -1.83361,2.65e-4 -0.637937,-7.94e-4 -1.275873,-0.0024 -1.913813,-0.0019 -0.597061,0.0019 -1.194131,0.0024 -1.791195,0.0028 -0.541086,-4.2e-5 -1.082172,-1.06e-4 -1.623256,-5.29e-4 -0.592206,-5.29e-4 -1.184409,-0.0013 -1.776613,-0.0013 -0.560589,7.94e-4 -1.121172,0.0028 -1.681763,0.0013 -0.595895,-5.29e-4 -1.191789,-0.0013 -1.787681,-0.0029 -0.713589,-0.0013 -1.427168,1.96e-4 -2.140757,-2.4e-5 -0.711182,-0.0013 -1.42235,1.72e-4 -2.133529,2.65e-4 -0.650991,-7.94e-4 -1.301961,7.93e-4 -1.952945,0.0029 -0.535818,-6e-6 -1.071639,-6e-6 -1.60746,-2.02e-4 -0.569333,-2.61e-4 -1.138666,-7.93e-4 -1.707997,-0.0016 -0.617889,-5.29e-4 -1.235773,0.0011 -1.853662,-8.2e-5 -0.664004,-0.0011 -1.328008,-0.0016 -1.992011,-5.29e-4 -0.659101,2.33e-4 -1.318197,5.29e-4 -1.977295,-0.0016 -0.706091,-2.64e-4 -1.412184,9.6e-5 -2.11827,0.0034 -0.60203,-5.3e-4 -1.204061,-0.0016 -1.806088,-5.3e-4 -0.565743,0.0024 -1.131491,5.3e-4 -1.697236,-2.14e-4 -0.694754,-0.0013 -1.389512,-0.0039 -2.084268,-0.0026 -0.709637,-0.0011 -1.419273,1.72e-4 -2.128901,0.0039 -0.568558,-2.43e-4 -1.137116,-7.93e-4 -1.705674,-0.0021 -0.730141,-0.0019 -1.46028,-0.003 -2.190422,-0.0032 -0.782555,-2.65e-4 -1.565113,0.0013 -2.347666,0.0013 -0.798449,5.29e-4 -1.596896,-0.0042 -2.395347,-0.0032 -0.827485,0.0011 -1.654966,-0.0013 -2.482451,5.29e-4 -0.896964,0.0026 -1.794062,0.0055 -2.690645,0.03494 -1.137238,0.04125 -2.276219,0.09289 -3.405806,0.237535 -0.586233,-2.65e-4 -1.172455,0.0016 -1.758687,0.0016 -0.534041,1.1e-5 -1.068082,5.6e-5 -1.602122,-2.64e-4 -0.612371,-5.29e-4 -1.22474,-0.0019 -1.837105,-0.0043 -0.881459,-0.0033 -1.763023,-0.0094 -2.644424,0.0038 0,0 -3.211998,-2.333654 -3.211998,-2.333654 z"
       inkscape:connector-curvature="0"
       style="stroke-width:0.26458332" />
    <path
       id="path279"
       d="m 17.633127,115.9325 c 0.87859,-0.1957 1.772295,-0.30233 2.659686,-0.44552 0.602327,-0.13652 1.217147,-0.2053 1.819268,-0.34081 0.588893,-0.13076 1.16176,-0.32052 1.746616,-0.46803 0.989459,-0.20649 2.004271,-0.25351 3.01178,-0.29289 0.801246,-0.023 1.602846,-0.0281 2.404372,-0.0302 0.700508,0.004 1.401019,0.004 2.101535,0.003 0.572011,-8e-4 1.144024,-0.001 1.716037,-0.002 0.534297,-1.8e-4 1.068594,-1.8e-4 1.602891,-1.8e-4 0.56011,-10e-4 1.120214,7.9e-4 1.680324,0.002 0.591894,1.4e-4 1.183788,-8e-4 1.775685,-0.001 0.694669,0.002 1.38934,0.004 2.084012,0.004 0.641125,-0.001 1.28225,-0.003 1.923377,-0.004 0.542002,-7.9e-4 1.084009,-7.9e-4 1.626013,-7.9e-4 0.533345,-3e-5 1.066692,-1e-5 1.600036,0 0.607743,0.003 1.215499,0.002 1.823244,10e-4 0.588047,-10e-4 1.176083,-7.9e-4 1.764125,0.002 0.659966,10e-4 1.319932,-8e-4 1.979896,-0.002 0.550738,-7.9e-4 1.101473,-10e-4 1.652209,-10e-4 0.533603,-7e-5 1.067207,-5e-5 1.600811,-5e-5 0.534228,10e-6 1.068454,2e-5 1.602682,2e-5 0.588925,1.1e-4 1.177843,0.002 1.766773,0.002 0.622549,-8e-4 1.245093,7.9e-4 1.867644,2.1e-4 0.569711,-7.9e-4 1.139423,-0.001 1.709137,-0.002 0.546909,1.6e-4 1.093822,-0.001 1.640726,10e-4 0.69778,2.6e-4 1.395547,0.004 2.093328,0.003 0.743085,-2.3e-4 1.486162,0.001 2.229249,-5.3e-4 0.703284,-0.003 1.40657,-8e-5 2.109854,0.002 0.767019,0.004 1.534035,-0.002 2.301055,-10e-4 0.706493,0.003 1.412994,-1.8e-4 2.119487,-0.002 0.697941,0.003 1.395883,0.002 2.093827,5.3e-4 0.573342,-0.001 1.146686,-0.002 1.720028,-0.002 0.534424,-2.1e-4 1.068845,-1.9e-4 1.603266,-1.9e-4 0.545163,2.7e-4 1.090329,-10e-4 1.63549,0.001 0.602665,0.001 1.205331,3e-5 1.807993,-5.3e-4 0.586005,-0.002 1.172001,0.001 1.758003,0.001 0.579266,-5.3e-4 1.158529,-0.001 1.737794,-0.002 0.633272,-8e-4 1.266526,0.003 1.899798,0.003 0.680128,-0.003 1.360247,2.7e-4 2.040374,8e-4 0.761458,5.3e-4 1.522902,0.002 2.284363,-2.7e-4 0.60059,-0.002 1.201184,-0.003 1.801778,-0.003 0.535434,-2.7e-4 1.070872,-2.7e-4 1.606306,-2.7e-4 0.533564,10e-6 1.067128,2e-5 1.600692,3e-5 0.630023,-5.3e-4 1.260023,0.004 1.890046,0.003 0.624541,-5.3e-4 1.249083,-0.003 1.873623,-0.002 0.66201,5.3e-4 1.32403,0.002 1.98604,5.3e-4 0.71826,-1.9e-4 1.43652,0.002 2.15478,0.002 0.74972,-0.002 1.49943,8e-4 2.24915,-5.2e-4 0.62208,-0.002 1.24416,-0.003 1.86624,-0.004 0.53815,-5.2e-4 1.0763,-5.2e-4 1.61444,-5.2e-4 0.5334,-1e-5 1.0668,10e-6 1.6002,2e-5 0.56058,-0.001 1.12116,7.9e-4 1.68174,0.002 0.59194,1.4e-4 1.18388,-7.9e-4 1.77582,-10e-4 0.5407,-2.7e-4 1.08141,-5.3e-4 1.62211,-5.3e-4 0.53404,-3e-5 1.06807,-2e-5 1.6021,-1e-5 0.53441,0 1.06882,0 1.60323,0 0.53454,0 1.06908,0 1.60362,0 0.53454,0 1.06908,0 1.60362,0 0.54578,2.7e-4 1.09156,-0.001 1.63733,0.001 0.60271,10e-4 1.20541,3e-5 1.80811,-5.3e-4 0.54483,-5.3e-4 1.08966,-5.3e-4 1.6345,-8e-4 0.53412,-5e-5 1.06825,-4e-5 1.60237,-3e-5 0.72669,-0.002 1.45332,0.005 2.17998,0.0109 1.20183,0.01 2.40368,0.002 3.60551,-10e-4 0.89874,-0.004 1.79749,-0.001 2.69624,-0.004 0.71114,-0.001 1.42228,-0.002 2.13343,-0.004 0.6023,-0.002 1.20461,8e-5 1.80691,-4e-5 0.57858,-5.3e-4 1.15717,-10e-4 1.73575,-0.002 0.53742,-2.7e-4 1.07483,-2.7e-4 1.61225,-2.7e-4 0.53403,0 1.06806,0 1.6021,1e-5 0.53446,0 1.06892,0 1.60338,0 0.53454,0 1.06909,0 1.60363,0 0.53454,0 1.06908,0 1.60362,0 0.53454,0 1.06908,0 1.60362,0 0.53454,0 1.06908,0 1.60362,0 0.53453,0 1.06907,0 1.60361,0 0.5997,0.002 1.19939,0.002 1.79909,10e-4 0.62352,7.9e-4 1.24705,7.9e-4 1.87057,1.2e-4 0.55884,-8e-4 1.11768,-0.001 1.67653,-0.001 0.5459,2.3e-4 1.09181,-0.001 1.63771,0.001 0.6285,1.5e-4 1.257,8e-4 1.8855,10e-4 0.66735,0.001 1.3347,5.2e-4 2.00206,-5.3e-4 0.60528,-0.002 1.21057,2.1e-4 1.81585,6e-5 0.60563,-0.002 1.21125,-5.2e-4 1.81687,1.7e-4 0.69739,8e-4 1.39476,5.3e-4 2.09214,0.003 0.80912,0.002 1.61822,0.002 2.42734,-5.3e-4 0.67566,-0.004 1.35131,-7.9e-4 2.02697,-2.6e-4 0.6921,-7.9e-4 1.3842,-2.4e-4 2.0763,-0.002 0.57656,-10e-4 1.15313,-0.002 1.7297,-0.002 0.53502,-2.4e-4 1.07004,-2.3e-4 1.60505,-2.3e-4 0.53392,1e-5 1.06783,2e-5 1.60174,2e-5 0.53449,1e-5 1.06898,1e-5 1.60348,1e-5 0.53454,0 1.06909,0 1.60363,0 0.53454,0 1.06908,0 1.60363,0 0.53453,0 1.06907,0 1.60361,0 0.53454,0 1.06908,0 1.60362,0 0.52995,-0.006 1.06048,0.0138 1.58993,-0.0127 0.26724,-0.0343 0.53249,-0.0818 0.79851,-0.12421 0,0 3.2482,2.28708 3.2482,2.28708 v 0 c -0.26954,0.0376 -0.53861,0.0779 -0.80511,0.13383 -0.53282,0.0972 -1.07751,0.0342 -1.6173,0.0513 -0.53454,0 -1.06908,0 -1.60362,0 -0.53454,0 -1.06908,0 -1.60362,0 -0.53454,0 -1.06908,0 -1.60362,0 -0.53454,0 -1.06909,0 -1.60363,0 -0.53449,0 -1.06898,0 -1.60347,0 -0.53389,1e-5 -1.06778,2e-5 -1.60168,2e-5 -0.53522,0 -1.07045,2e-5 -1.60567,-2.2e-4 -0.57857,-2.6e-4 -1.15714,-0.001 -1.7357,-0.002 -0.69347,-0.001 -1.38694,-5.3e-4 -2.08041,-0.002 -0.67599,5.2e-4 -1.35198,0.004 -2.02797,-2.7e-4 -0.80964,-0.002 -1.61927,-0.002 -2.42892,-5.3e-4 -0.69485,0.002 -1.38971,0.002 -2.08457,0.003 -0.60548,5.3e-4 -1.21095,0.002 -1.81642,1.7e-4 -0.60522,-1.5e-4 -1.21044,0.002 -1.81567,7e-5 -0.66794,-0.001 -1.33589,-0.002 -2.00383,-5.3e-4 -0.62738,5.3e-4 -1.25475,10e-4 -1.88213,10e-4 -0.54486,0.002 -1.08972,7.9e-4 -1.63458,0.001 -0.56004,-1.8e-4 -1.12008,-5.3e-4 -1.68012,-0.001 -0.62341,-8e-4 -1.24683,-8e-4 -1.87024,1.2e-4 -0.59851,-5.3e-4 -1.19701,-2.7e-4 -1.79552,0.001 -0.53454,0 -1.06908,0 -1.60361,0 -0.53454,0 -1.06908,0 -1.60362,0 -0.53454,0 -1.06908,0 -1.60362,0 -0.53454,0 -1.06908,0 -1.60362,0 -0.53454,0 -1.06908,0 -1.60363,0 -0.53445,0 -1.06891,0 -1.60337,1e-5 -0.53403,0 -1.06806,1e-5 -1.60208,0 -0.53771,-2e-5 -1.07542,-4e-5 -1.61313,-2.6e-4 -0.58,-2.7e-4 -1.15999,-0.001 -1.73998,-0.002 -0.60235,-1.2e-4 -1.20469,0.002 -1.80703,-4e-5 -0.71483,-0.002 -1.42966,-0.003 -2.14448,-0.004 -0.90227,-0.003 -1.80454,1.5e-4 -2.70681,-0.004 -1.20282,-0.003 -2.40566,-0.011 -3.60848,-0.001 -0.71672,0.006 -1.43341,0.0124 -2.15016,0.0108 -0.53416,1e-5 -1.06832,2e-5 -1.60248,-3e-5 -0.54547,-8e-5 -1.09095,-2e-4 -1.63643,-7.9e-4 -0.60319,-5.3e-4 -1.20639,-0.002 -1.80958,-5.3e-4 -0.54461,0.002 -1.08923,7.9e-4 -1.63385,0.001 -0.53454,0 -1.06908,0 -1.60362,0 -0.53454,0 -1.06908,0 -1.60362,0 -0.5344,0 -1.0688,0 -1.60321,1e-5 -0.53404,0 -1.06808,10e-6 -1.60213,-1e-5 -0.54117,-5e-5 -1.08233,-1.1e-4 -1.6235,-5.3e-4 -0.59308,-5.3e-4 -1.18615,-0.001 -1.77923,-0.001 -0.55897,8e-4 -1.11793,0.003 -1.6769,0.002 -0.53338,1e-5 -1.06676,2e-5 -1.60014,2e-5 -0.53866,-2e-5 -1.07732,-4e-5 -1.61598,-5.3e-4 -0.62549,-7.9e-4 -1.25099,-0.002 -1.87648,-0.004 -0.75018,-0.001 -1.50036,0.002 -2.25054,-5.3e-4 -0.71601,1e-4 -1.43201,0.003 -2.14801,0.002 -0.66158,-10e-4 -1.32315,-1.1e-4 -1.98472,5.3e-4 -0.62596,0.002 -1.25193,-10e-4 -1.87789,-0.002 -0.62693,-2.6e-4 -1.25384,0.004 -1.88077,0.003 -0.533535,1e-5 -1.06707,3e-5 -1.600608,4e-5 -0.535763,-1e-5 -1.071525,1e-5 -1.607291,-2.7e-4 -0.603697,-5.3e-4 -1.207394,-0.002 -1.811088,-0.003 -0.761794,-0.002 -1.523577,-8e-4 -2.285371,-2.7e-4 -0.679471,5.3e-4 -1.358939,0.004 -2.038413,7.9e-4 -0.630492,-2.6e-4 -1.260962,0.004 -1.891454,0.003 -0.580625,-2.6e-4 -1.161248,-0.001 -1.741873,-0.002 -0.585013,-10e-6 -1.17002,0.003 -1.755032,0.001 -0.603155,-5.3e-4 -1.206312,-0.002 -1.809467,-5.3e-4 -0.543975,0.002 -1.087958,8e-4 -1.631939,0.001 -0.534593,0 -1.069187,2e-5 -1.60378,-1.9e-4 -0.575355,-2.6e-4 -1.150707,-7.9e-4 -1.726057,-0.002 -0.697428,-10e-4 -1.394857,-0.003 -2.092282,5.3e-4 -0.708065,-0.002 -1.416135,-0.004 -2.124202,-0.002 -0.768332,7.9e-4 -1.536666,-0.005 -2.304998,-10e-4 -0.701923,0.002 -1.403847,0.004 -2.105768,0.002 -0.743672,-0.002 -1.487334,-5.3e-4 -2.231006,-5.3e-4 -0.695177,-7.9e-4 -1.390341,0.002 -2.08552,0.003 -0.545939,0.002 -1.091883,8e-4 -1.637827,10e-4 -0.571177,-2.6e-4 -1.142351,-7.9e-4 -1.713529,-0.002 -0.622358,-5.3e-4 -1.244708,8e-4 -1.867066,2.1e-4 -0.587473,-2.6e-4 -1.174938,0.002 -1.762411,0.002 -0.534212,0 -1.068424,0 -1.602637,1e-5 -0.533646,10e-6 -1.067292,3e-5 -1.600938,-4e-5 -0.551831,-1.2e-4 -1.103664,-2.7e-4 -1.655495,-10e-4 -0.661667,-0.001 -1.323337,-0.003 -1.985007,-0.002 -0.586129,0.003 -1.172253,0.003 -1.75839,0.002 -0.606821,-5.3e-4 -1.213649,-0.002 -1.820465,10e-4 -0.533342,1e-5 -1.066681,3e-5 -1.600023,1e-5 -0.542729,-6e-5 -1.085458,-1.2e-4 -1.628187,-8e-4 -0.644396,-7.9e-4 -1.288788,-0.003 -1.933181,-0.004 -0.691163,-7e-5 -1.382321,0.002 -2.073479,0.004 -0.593032,-5.3e-4 -1.186063,-0.001 -1.779093,-0.001 -0.558482,8e-4 -1.116959,0.003 -1.675444,0.002 -0.534464,10e-6 -1.068928,4e-5 -1.603389,-1.6e-4 -0.574053,-2.6e-4 -1.148106,-7.9e-4 -1.722159,-0.002 -0.700538,-0.002 -1.401072,-0.004 -2.101612,-0.003 -0.804429,-0.004 -1.608984,-0.01 -2.413318,0.007 -0.987541,0.026 -1.981213,0.0558 -2.955102,0.23477 -0.586623,0.13326 -1.15195,0.34186 -1.73679,0.47822 -0.610144,0.1465 -1.227374,0.22529 -1.842965,0.34923 -0.874845,0.17112 -1.774621,0.20723 -2.639678,0.43933 0,0 -3.261479,-2.26232 -3.261479,-2.26232 z"
       inkscape:connector-curvature="0"
       style="stroke-width:0.26458332" />
    <g
       id="g330"
       transform="matrix(2.0126219,0,0,2.0487968,-26.104384,-91.875909)">
      <path
         style="stroke-width:0.26458332"
         inkscape:connector-curvature="0"
         d="m 23.344068,82.575724 c 0.155811,0.0024 0.311651,0.0013 0.467472,7.94e-4 0.108252,-5.29e-4 0.216505,-5.29e-4 0.324758,-7.94e-4 0.09514,0.0073 0.186542,-0.01976 0.280078,-0.03271 0.09472,-0.01164 0.190243,-0.01331 0.28555,-0.01453 0.09462,-7.94e-4 0.189251,-5.29e-4 0.283877,-2.65e-4 0.09449,1.35e-4 0.188983,1.8e-4 0.283475,2.06e-4 0.1058,2.65e-4 0.211599,2.65e-4 0.317399,2.47e-4 0.0989,-1.17e-4 0.197794,-1.78e-4 0.296692,-2.09e-4 0.09638,4.2e-5 0.19276,-2.12e-4 0.28914,2.01e-4 0.119382,7.93e-4 0.238766,2.64e-4 0.358148,8.2e-5 0.12532,7.93e-4 0.250642,1.35e-4 0.375962,2.64e-4 0.126765,5.29e-4 0.253532,-2.6e-5 0.380299,-2.64e-4 0.112546,-5.3e-4 0.225092,3.4e-5 0.337637,5.29e-4 0.153464,7.94e-4 0.30693,5.29e-4 0.460394,1.29e-4 0.127042,-2.64e-4 0.254087,-5.29e-4 0.38113,-2.64e-4 0.123174,-6.4e-5 0.246348,3.4e-5 0.369525,-1.93e-4 0.102632,-2.23e-4 0.205266,-2.65e-4 0.307901,-5.29e-4 0.118771,1.72e-4 0.237545,7.93e-4 0.356317,7.93e-4 0.117713,-1.8e-5 0.235426,-7.93e-4 0.353139,-5.29e-4 0.115419,-1.24e-4 0.230836,1.51e-4 0.346255,5.8e-5 0.115729,8.8e-5 0.231457,3.2e-5 0.347186,-1.5e-4 0.110575,-1.14e-4 0.221152,-8.5e-5 0.331729,2.3e-4 0.127376,7.93e-4 0.254752,-1.7e-4 0.382125,3.9e-5 0.131596,2.65e-4 0.263191,2.65e-4 0.394785,7.2e-5 0.118784,-4e-5 0.237569,-1.22e-4 0.356356,-2.65e-4 0.101158,-1.08e-4 0.202319,-5.29e-4 0.303477,-5.8e-5 0.108345,2.65e-4 0.216689,-2.35e-4 0.325033,1.09e-4 0.108485,1.21e-4 0.216969,-1.01e-4 0.325453,-2.17e-4 0.09636,-9.8e-5 0.192712,-1.17e-4 0.289068,-1.3e-4 0.103751,1.1e-5 0.207502,2.65e-4 0.311254,2.65e-4 0.111762,-4.5e-5 0.223525,-4.5e-5 0.335287,2.61e-4 0.127702,7.94e-4 0.255405,-1.85e-4 0.383107,2.4e-5 0.126391,5.29e-4 0.25278,-2.43e-4 0.379171,-2.1e-5 0.131197,2.65e-4 0.262393,2.65e-4 0.393592,8.7e-5 0.11181,-5.29e-4 0.223618,-2.64e-4 0.335428,-2.51e-4 0.105328,-4.5e-5 0.210656,-2.09e-4 0.315984,-2.65e-4 0.111839,-1.82e-4 0.223676,5.3e-4 0.335515,5.3e-4 0.126895,-2.65e-4 0.253789,6.3e-5 0.38068,2.64e-4 0.139108,2.65e-4 0.278212,-5.5e-5 0.417317,-2.06e-4 0.110567,-2.3e-4 0.221133,-5.29e-4 0.331703,-5.29e-4 0.111744,-2.09e-4 0.223485,5.29e-4 0.335229,5.29e-4 0.108681,-1.67e-4 0.217358,-2.65e-4 0.326039,-5.29e-4 0.09543,-8.8e-5 0.190857,-9.3e-5 0.286287,-9.8e-5 0.09406,-0.0039 0.186332,-0.02776 0.280439,-0.03767 0.09499,-0.0085 0.190429,-0.0092 0.285724,-0.0098 0.09458,-2.65e-4 0.189164,-4.2e-5 0.283747,7.7e-5 0.09449,1.14e-4 0.188976,1.4e-4 0.283464,1.56e-4 0.09449,1.3e-5 0.188984,1e-5 0.283477,1e-5 0.09449,-2e-6 0.18899,-2e-6 0.283483,-2e-6 0.09449,0 0.188986,0 0.283482,0 0.09093,-2.65e-4 0.18187,7.94e-4 0.272796,-5.29e-4 0.262359,-0.0072 0.22301,-0.123026 -0.568004,0.425487 -0.01132,0.0079 -0.0909,0.0227 -0.110964,0.03033 -0.0927,0.04435 -0.182002,0.09552 -0.275066,0.13915 -0.01564,0.0088 -0.03126,0.01752 -0.04688,0.02625 0.185975,-0.106407 0.371221,-0.214098 0.557926,-0.319219 0.01394,-0.0079 -0.02638,0.01818 -0.03952,0.02733 -0.04029,0.02804 -0.08013,0.05632 -0.121271,0.08311 -0.07268,0.05518 -0.146487,0.109196 -0.218644,0.165126 -0.03704,0.0266 -0.07353,0.05398 -0.113057,0.07688 -0.213944,0.123936 -0.428453,0.246898 -0.64262,0.370451 -0.01439,0.0083 -0.05743,0.03338 -0.04303,0.02511 0.185087,-0.106376 0.370067,-0.21294 0.555101,-0.319408 -0.104373,0.06495 -0.194596,0.149042 -0.283686,0.232989 -0.09273,0.08346 -0.190389,0.161076 -0.28347,0.244192 -0.09988,0.09141 -0.194783,0.187844 -0.297135,0.276543 -0.115882,0.09354 -0.21464,0.205441 -0.315737,0.314169 -0.09034,0.09766 -0.182097,0.193886 -0.279562,0.284472 -0.07174,0.0699 -0.153048,0.128624 -0.231034,0.191084 -0.0685,0.05791 -0.143047,0.106741 -0.210368,0.166082 -0.07825,0.07314 -0.156699,0.146196 -0.240921,0.212455 -0.22152,0.169045 -0.440015,0.26796 -0.707107,0.422913 -0.01252,0.0073 -0.05055,0.02828 -0.03799,0.02106 0.57867,-0.331989 0.726506,-0.454639 0.516099,-0.285383 -0.08769,0.08192 -0.172921,0.166357 -0.260318,0.248635 -0.07376,0.06481 -0.14582,0.131392 -0.219067,0.19681 -0.07254,0.0684 -0.150913,0.13022 -0.224229,0.197731 -0.08318,0.07025 -0.16627,0.140682 -0.251968,0.207849 -0.07312,0.06248 -0.144288,0.127121 -0.219927,0.186658 -0.07869,0.06231 -0.155954,0.12668 -0.236541,0.18656 -0.109728,0.08102 -0.209782,0.174011 -0.312904,0.263065 -0.07592,0.06266 -0.145102,0.132932 -0.219927,0.196734 -0.216625,0.173833 -0.452593,0.26422 -0.705823,0.423605 -0.185164,0.116544 0.378857,-0.218956 0.568785,-0.327562 -0.04304,0.02774 -0.0209,0.01408 -0.06643,0.04096 -0.23115,0.155006 -0.470492,0.276823 -0.718838,0.418449 -0.01405,0.008 -0.05683,0.03089 -0.04283,0.02281 0.620305,-0.358341 0.734415,-0.429728 0.510106,-0.290804 -0.102116,0.06782 -0.188891,0.154962 -0.283427,0.232373 -0.266737,0.220253 -0.584541,0.370555 -0.882012,0.541745 -0.26511,0.152236 0.336418,-0.194786 0.505449,-0.290742 0.01664,-0.0094 -0.03213,0.02074 -0.04805,0.03137 -0.04755,0.03171 -0.09495,0.06369 -0.141965,0.09618 -0.08189,0.05555 -0.16016,0.116059 -0.242882,0.170397 -0.254571,0.209396 -0.544325,0.345935 -0.833848,0.513591 -0.01696,0.0082 -0.0339,0.01638 -0.05085,0.02455 -0.01823,0.0072 -0.03697,0.01328 -0.05467,0.02175 -0.0164,0.0078 -0.06318,0.03605 -0.0474,0.02701 0.977447,-0.560012 0.672668,-0.389943 0.465034,-0.262618 -0.08545,0.06309 -0.167595,0.130559 -0.253564,0.193106 -0.09505,0.07439 -0.171555,0.16864 -0.260437,0.25 -0.08492,0.07635 -0.186142,0.130005 -0.280162,0.19367 -0.09125,0.06562 -0.188227,0.122478 -0.282654,0.183268 -0.09615,0.06088 -0.192781,0.121354 -0.285068,0.188019 -0.09844,0.06834 -0.193952,0.139946 -0.284718,0.218225 -0.103134,0.09017 -0.21155,0.173713 -0.321262,0.255612 -0.01654,0.01201 -0.03204,0.02561 -0.04964,0.036 -0.215059,0.127135 -0.431856,0.251307 -0.648079,0.376455 -0.07531,0.04359 -0.02175,0.01177 -0.09849,0.04901 -0.01606,0.0078 -0.0628,0.0339 -0.04735,0.02498 0.184147,-0.106413 0.368985,-0.211632 0.553476,-0.317447 -0.215905,0.123947 -0.431813,0.247893 -0.647718,0.371837 0,0 0.546087,-0.440208 0.546087,-0.440208 v 0 c -0.184333,0.106638 -0.368663,0.213278 -0.552993,0.319916 0.216178,-0.124254 0.431845,-0.249405 0.648534,-0.372761 0.03095,-0.01762 0.06383,-0.03166 0.09508,-0.04876 0.01627,-0.0089 0.06453,-0.03669 0.04851,-0.02732 -0.585854,0.342905 -0.725416,0.433744 -0.497718,0.287258 0.108156,-0.08307 0.219593,-0.161388 0.323069,-0.250516 0.08876,-0.08084 0.179885,-0.15952 0.282244,-0.22298 0.08967,-0.0714 0.186556,-0.131254 0.281988,-0.194421 0.097,-0.05605 0.189264,-0.120182 0.284869,-0.178625 0.09079,-0.06859 0.190479,-0.121428 0.28325,-0.187058 0.09202,-0.07894 0.174823,-0.165688 0.256317,-0.255474 0.08623,-0.06324 0.176263,-0.122047 0.252595,-0.197403 0.283523,-0.188809 0.583288,-0.353777 0.887704,-0.506301 -1.056023,0.614005 -0.567494,0.361582 -0.365294,0.186809 0.07646,-0.06294 0.165745,-0.111366 0.244295,-0.171847 0.275399,-0.206579 0.584792,-0.363699 0.882502,-0.534649 -1.060136,0.61554 -0.530839,0.331774 -0.314204,0.159478 0.09629,-0.07628 0.185439,-0.159862 0.280459,-0.237694 0.244358,-0.177774 0.04425,-0.0346 0.6903,-0.404683 0.01416,-0.0081 0.0575,-0.03079 0.04344,-0.02254 -0.186275,0.10927 -0.373391,0.217098 -0.560105,0.325617 -0.02609,0.01516 0.104349,-0.05863 0.07525,-0.05031 0.218226,-0.144124 0.545227,-0.320281 0.700374,-0.409462 0.188894,-0.108577 -0.37587,0.220472 -0.564312,0.329833 -0.02535,0.01471 0.104386,-0.06333 0.07028,-0.05284 0.08433,-0.05273 0.144428,-0.132099 0.224293,-0.190963 0.0995,-0.09337 0.206563,-0.179197 0.309398,-0.26905 0.08061,-0.05898 0.157139,-0.122242 0.237535,-0.181533 0.07083,-0.06546 0.154527,-0.117255 0.219263,-0.189825 0.08569,-0.06633 0.170601,-0.132908 0.251754,-0.204804 0.07891,-0.06082 0.149201,-0.133032 0.22661,-0.195958 0.07235,-0.06673 0.146741,-0.131 0.218514,-0.197861 0.09311,-0.07602 0.175985,-0.163544 0.26089,-0.248597 0.21867,-0.211704 0.02782,-0.03296 0.680172,-0.420449 0.01252,-0.0074 0.05065,-0.02876 0.03809,-0.02141 -1.025824,0.601006 -0.676424,0.429191 -0.493149,0.276185 0.09099,-0.05599 0.166994,-0.132082 0.245245,-0.203956 0.03458,-0.03337 0.07015,-0.07536 0.110035,-0.102614 0.03303,-0.02257 0.07321,-0.03297 0.09632,-0.06985 0.08202,-0.05649 0.157263,-0.122174 0.235935,-0.183518 0.09434,-0.09366 0.195768,-0.180451 0.282879,-0.281705 0.102052,-0.109077 0.199231,-0.224115 0.312695,-0.321492 0.103317,-0.08692 0.200716,-0.179308 0.296889,-0.274114 0.09155,-0.08464 0.185703,-0.166256 0.28434,-0.242609 0.08847,-0.0859 0.177207,-0.172345 0.276958,-0.245285 2.078595,-1.212789 -0.415184,0.250804 0.243768,-0.14872 0.07636,-0.0506 0.149905,-0.107262 0.218525,-0.168137 0.275402,-0.183158 0.552013,-0.367475 0.851712,-0.510799 0.09223,-0.0478 0.184399,-0.09785 0.283139,-0.130924 0.0168,-0.004 0.06383,-0.01508 0.08211,-0.01918 0.01146,-0.0026 0.04356,-0.01479 0.03442,-0.0074 -0.649018,0.523708 -0.311143,0.422093 -0.563153,0.414182 -0.09051,-0.0011 -0.181044,-7.2e-5 -0.27156,-5.3e-4 -0.0945,0 -0.188989,0 -0.283483,0 -0.09449,0 -0.188989,3e-6 -0.283482,3e-6 -0.0945,0 -0.188992,0 -0.283488,-2.4e-5 -0.0945,-3.2e-5 -0.189003,-8.4e-5 -0.283504,-2.11e-4 -0.09441,-1.06e-4 -0.188817,-2.65e-4 -0.283223,5.29e-4 -0.09385,0.0016 -0.187894,0.0039 -0.281093,0.01603 -0.09486,0.01328 -0.189143,0.0355 -0.285555,0.03081 -0.09534,-6e-6 -0.190677,-1.1e-5 -0.286017,-9.8e-5 -0.108225,-1.11e-4 -0.216447,-2.65e-4 -0.324673,-5.29e-4 -0.112194,-5.9e-5 -0.224385,7.93e-4 -0.336579,5.29e-4 -0.110011,-1.3e-4 -0.220022,-2.65e-4 -0.33003,-5.29e-4 -0.138917,-1.51e-4 -0.277834,-5.3e-4 -0.416748,-2.07e-4 -0.127188,2.57e-4 -0.254376,5.29e-4 -0.381561,2.65e-4 -0.112308,-6.1e-5 -0.224613,7.93e-4 -0.336921,5.29e-4 -0.105055,-8.5e-5 -0.21011,-2.51e-4 -0.315169,-2.65e-4 -0.11158,7.4e-5 -0.223157,2.15e-4 -0.334737,-2.51e-4 -0.131278,-2.33e-4 -0.262559,-2.2e-4 -0.393838,8.7e-5 -0.12637,2.2e-4 -0.25274,-5.29e-4 -0.379108,-2.1e-5 -0.127725,2.09e-4 -0.255447,-7.94e-4 -0.38317,2.4e-5 -0.112003,2.64e-4 -0.224009,2.64e-4 -0.336012,2.62e-4 -0.104006,-6.6e-5 -0.208008,2.64e-4 -0.31201,2.64e-4 -0.09624,-1.3e-5 -0.192474,-3.1e-5 -0.288711,-1.29e-4 -0.108286,-1.17e-4 -0.216572,-2.65e-4 -0.324858,-2.17e-4 -0.108445,2.64e-4 -0.21689,-1.56e-4 -0.325334,1.08e-4 -0.101103,2.65e-4 -0.202208,5.6e-5 -0.303313,-5.8e-5 -0.118478,-2.12e-4 -0.236959,-2.64e-4 -0.355439,-2.64e-4 -0.131659,-2.36e-4 -0.263319,-2.25e-4 -0.394978,7.1e-5 -0.12741,2.09e-4 -0.254823,-7.94e-4 -0.382236,4e-5 -0.110789,2.64e-4 -0.221578,2.64e-4 -0.332367,2.3e-4 -0.115591,-1.83e-4 -0.231179,-2.38e-4 -0.34677,-1.51e-4 -0.115472,-9.3e-5 -0.230945,1.83e-4 -0.346417,5.8e-5 -0.117334,2.65e-4 -0.234667,-2.64e-4 -0.352001,-5.29e-4 -0.11947,6.9e-5 -0.238938,5.29e-4 -0.358405,7.94e-4 -0.102267,-6.1e-5 -0.204533,-1.75e-4 -0.3068,-5.29e-4 -0.122997,-2.28e-4 -0.245996,-1.3e-4 -0.368996,-1.94e-4 -0.126714,2.25e-4 -0.253431,-2.1e-5 -0.380145,-2.64e-4 -0.153583,-2.65e-4 -0.307166,-5.29e-4 -0.460746,1.27e-4 -0.11303,5.29e-4 -0.226057,0.0011 -0.339085,5.29e-4 -0.126481,-2.65e-4 -0.252962,-7.94e-4 -0.379442,-2.65e-4 -0.125633,2.04e-4 -0.251266,-2.64e-4 -0.376898,2.65e-4 -0.119459,-2.17e-4 -0.238919,-5.29e-4 -0.358377,8.2e-5 -0.09656,5.29e-4 -0.193127,1.61e-4 -0.289691,2.01e-4 -0.09871,-3.2e-5 -0.197414,-8.7e-5 -0.29612,-2.06e-4 -0.106016,-1.03e-4 -0.212031,-6.1e-5 -0.318045,1.9e-4 -0.0945,-4.5e-5 -0.189003,-1.24e-4 -0.283505,-2.48e-4 -0.09434,-7.4e-5 -0.18869,-2.65e-4 -0.283017,0.0016 -0.09366,0.0026 -0.18748,0.0067 -0.280113,0.0218 -0.09498,0.01542 -0.189435,0.03103 -0.286194,0.02421 -0.107547,-1.06e-4 -0.215094,-2.64e-4 -0.32264,-7.94e-4 -0.156441,-5.29e-4 -0.3129,-0.0016 -0.469332,7.94e-4 0,0 0.567807,-0.412536 0.567807,-0.412536 z"
         id="path321" />
      <path
         style="stroke-width:0.26458332"
         inkscape:connector-curvature="0"
         d="m 20.934469,92.119623 c 0.155812,0.0024 0.311652,0.0013 0.467473,7.94e-4 0.108252,-5.29e-4 0.216504,-7.94e-4 0.324757,-7.94e-4 0.09441,-7.1e-5 0.188812,-6.3e-5 0.283218,-6e-5 0.09427,5e-6 0.188547,8e-6 0.282821,8e-6 0.09541,0.003 0.191685,-0.0081 0.285863,0.0091 0.093,0.02037 0.187583,0.0297 0.282475,0.03483 0.09399,0.0039 0.188081,0.0037 0.282131,0.0037 0.09447,-8.2e-5 0.188941,-2.3e-4 0.283411,-2.64e-4 0.106976,-0.0061 0.211399,0.004 0.317187,0.01746 0.139093,0.01646 0.278968,0.02418 0.418906,0.02822 0.102301,0.0062 0.205841,-0.0072 0.306922,0.0109 0.09277,0.02019 0.18708,0.02948 0.281711,0.03454 0.09386,0.0039 0.187827,0.0037 0.281749,0.0037 0.09447,-8.2e-5 0.188934,-2.28e-4 0.283401,-2.65e-4 0.0973,-0.0046 0.191381,5.6e-5 0.286808,0.01807 0.09268,0.01831 0.186971,0.02405 0.281161,0.0274 0.103083,-0.01138 0.192965,0.03117 0.288593,0.06082 0.09054,0.0263 0.184791,0.03148 0.27843,0.03469 0.09412,0.0021 0.188272,0.0013 0.282408,0.0011 0.0945,-2.64e-4 0.189,-5.29e-4 0.283498,-5.29e-4 0.0945,-5e-5 0.189,-4.7e-5 0.283501,-4.7e-5 0.09449,0 0.18899,2e-6 0.283483,2e-6 0.09729,-0.0045 0.191368,1.3e-4 0.286787,0.01815 0.09267,0.01831 0.186968,0.02405 0.281157,0.0274 0.09415,0.0024 0.188338,0.0021 0.282511,0.0021 0.06298,-8.2e-5 0.125971,-1.67e-4 0.188955,-2.33e-4 0,0 -0.568155,0.412885 -0.568155,0.412885 v 0 c -0.06301,7.1e-5 -0.126014,1.72e-4 -0.189019,1.45e-4 -0.09483,-1.59e-4 -0.189711,-1.77e-4 -0.284453,-0.0047 -0.09591,-0.0057 -0.19135,-0.01601 -0.285806,-0.03408 -0.09295,-0.01304 -0.186529,-0.0082 -0.280178,-0.0088 -0.0945,0 -0.188989,-3e-6 -0.283482,0 -0.09449,5e-6 -0.188976,8e-6 -0.283464,9.8e-5 -0.09449,1.03e-4 -0.188976,2.64e-4 -0.283465,5.29e-4 -0.09486,8.2e-5 -0.189786,5.29e-4 -0.284557,-0.0042 -0.09772,-0.0065 -0.195263,-0.01807 -0.288534,-0.04967 -0.09172,-0.0299 -0.180702,-0.05149 -0.278372,-0.04568 -0.09591,-0.0057 -0.191348,-0.01603 -0.285804,-0.03407 -0.09295,-0.01304 -0.186522,-0.0081 -0.280166,-0.0086 -0.09451,9.5e-5 -0.189027,2.65e-4 -0.283541,1.16e-4 -0.09485,-5.29e-4 -0.189787,-7.93e-4 -0.284453,-0.0074 -0.09523,-0.0079 -0.189356,-0.02244 -0.283667,-0.03748 -0.100687,-0.0053 -0.201667,-0.0016 -0.302384,-0.0072 -0.140638,-0.0066 -0.280998,-0.01762 -0.420938,-0.03325 -0.104815,-0.01053 -0.209604,-0.01074 -0.314893,-0.0093 -0.09452,9.8e-5 -0.189034,2.64e-4 -0.283552,1.14e-4 -0.09498,-5.3e-4 -0.190045,-7.94e-4 -0.284835,-0.0075 -0.09551,-0.0079 -0.189917,-0.02259 -0.284505,-0.03773 -0.09358,-0.0047 -0.187358,-0.0011 -0.28103,-0.0021 -0.09428,0 -0.188562,2e-6 -0.282843,8e-6 -0.09435,0 -0.188704,1e-5 -0.283055,-6.1e-5 -0.107547,-1.04e-4 -0.215094,-2.65e-4 -0.32264,-7.94e-4 -0.156442,-5.29e-4 -0.312901,-0.0016 -0.469332,7.94e-4 0,0 0.567806,-0.412536 0.567806,-0.412536 z"
         id="path323" />
      <path
         style="stroke-width:0.26458332"
         inkscape:connector-curvature="0"
         d="m 30.337225,92.806416 c 0.105429,0.15908 0.24129,0.292086 0.371507,0.42999 0.09086,0.09391 0.190159,0.177234 0.297966,0.250746 0.121652,0.08324 0.241249,0.169074 0.360434,0.255875 0.08356,0.08583 0.192886,0.129805 0.294103,0.188696 0.09295,0.05399 0.17776,0.118136 0.26181,0.184822 0.09454,0.07665 0.163647,0.180263 0.229965,0.281202 0.06296,0.09539 0.127622,0.190082 0.203708,0.275513 0.08125,0.0789 0.150736,0.16828 0.224333,0.254082 0.0758,0.09557 0.160525,0.184166 0.233283,0.282088 0.05821,0.07234 0.110662,0.148646 0.17803,0.213024 0.07374,0.0609 0.124002,0.142653 0.179242,0.219327 0.08227,0.103415 0.185438,0.185875 0.269369,0.288263 0.08222,0.09022 0.155372,0.187071 0.242203,0.272955 0.0775,0.08176 0.146928,0.17055 0.214206,0.260771 0.07401,0.09926 0.168535,0.179839 0.253267,0.269721 0.08295,0.07446 0.155107,0.160724 0.24578,0.22606 0.109728,0.07109 0.196583,0.169484 0.285922,0.263557 0.08438,0.101084 0.187166,0.182949 0.281112,0.274106 0.07043,0.06405 0.147751,0.119197 0.224276,0.175566 0.07462,0.05707 0.151797,0.11058 0.225372,0.169217 0.08357,0.06377 0.149495,0.145987 0.224333,0.218856 0.05551,0.07277 0.126407,0.130413 0.193826,0.191566 0.0773,0.08141 0.166859,0.144949 0.266342,0.196006 0.106567,0.05163 0.192617,0.133485 0.286589,0.203446 0.10132,0.07323 0.194172,0.156967 0.285266,0.242316 0.08114,0.09924 0.192199,0.157279 0.294074,0.2301 0.07495,0.05581 0.142581,0.120245 0.215712,0.178261 0,0 -0.592791,0.371776 -0.592791,0.371776 v 0 c -0.07046,-0.05842 -0.137793,-0.120764 -0.212723,-0.173596 -0.107584,-0.07098 -0.213473,-0.140901 -0.299807,-0.238656 -0.09012,-0.08332 -0.182602,-0.164068 -0.28217,-0.236075 -0.09014,-0.07007 -0.177715,-0.144243 -0.281514,-0.194053 -0.101018,-0.05803 -0.192992,-0.126662 -0.275116,-0.209733 -0.06918,-0.06132 -0.139764,-0.121163 -0.196935,-0.194402 -0.07051,-0.07314 -0.136652,-0.151202 -0.219165,-0.211606 -0.07429,-0.05659 -0.149836,-0.111469 -0.224756,-0.167182 -0.0789,-0.05765 -0.156686,-0.117306 -0.227742,-0.18451 -0.09516,-0.09114 -0.194998,-0.177284 -0.281263,-0.277509 -0.08742,-0.09152 -0.1744,-0.18406 -0.282125,-0.25233 -0.09068,-0.07082 -0.165378,-0.159038 -0.249185,-0.237591 -0.08751,-0.09122 -0.185745,-0.172492 -0.26049,-0.275137 -0.0652,-0.08738 -0.130847,-0.174765 -0.207092,-0.252973 -0.08795,-0.08781 -0.16305,-0.185973 -0.244917,-0.27934 -0.08558,-0.102782 -0.192765,-0.184115 -0.273844,-0.290716 -0.05373,-0.07358 -0.103613,-0.150572 -0.174805,-0.209121 -0.06658,-0.06946 -0.123343,-0.146333 -0.181266,-0.22297 -0.07185,-0.09651 -0.15567,-0.183846 -0.2307,-0.277886 -0.07362,-0.08554 -0.144077,-0.173784 -0.224653,-0.253051 -0.07688,-0.08889 -0.142893,-0.186634 -0.207907,-0.284403 -0.06227,-0.09513 -0.127712,-0.191847 -0.219408,-0.26107 -0.08185,-0.06389 -0.164473,-0.125685 -0.255635,-0.176082 -0.104669,-0.05736 -0.20873,-0.11361 -0.296037,-0.19702 -0.118901,-0.08659 -0.238583,-0.171738 -0.36081,-0.253611 -0.110448,-0.0774 -0.211339,-0.166073 -0.30298,-0.265231 -0.130667,-0.141169 -0.264829,-0.278794 -0.379105,-0.434256 0,0 0.602911,-0.357798 0.602911,-0.357798 z"
         id="path325" />
    </g>
    <g
       id="g350"
       transform="matrix(1.4199411,0,0,1.2926878,-13.211673,-28.927962)">
      <path
         style="stroke-width:0.26458332"
         inkscape:connector-curvature="0"
         d="m 71.810046,78.496588 c -0.139089,0.413795 -0.289955,0.823682 -0.443373,1.232381 -0.109442,0.272804 -0.15788,0.56006 -0.180771,0.851292 -0.01487,0.264313 -0.0123,0.529201 -0.01154,0.793816 0.0011,0.266901 0.0019,0.533802 0.0021,0.800703 2.65e-4,0.267287 2.65e-4,0.534575 2.65e-4,0.801865 3e-6,0.267277 -8e-6,0.534553 -1.3e-5,0.801828 -6e-6,0.267271 -6e-6,0.53454 -6e-6,0.801809 0.0083,0.218884 -0.06697,0.469633 0.134988,0.613058 0.217025,0.08883 0.458118,0.08295 0.688843,0.08621 0.268666,5.3e-4 0.537321,-0.0027 0.805979,-0.0044 0.280085,-0.0038 0.553172,0.0773 0.819457,0.155919 0.280289,0.07146 0.551071,0.182139 0.810191,0.310206 0.344813,0.166767 0.602948,0.331147 0.868013,0.608062 0.250074,0.289224 0.507162,0.568524 0.791181,0.824524 0.301921,0.263647 0.596059,0.535837 0.885441,0.813126 0.272918,0.304651 0.538102,0.615913 0.814901,0.917125 0.29677,0.278857 0.60647,0.543409 0.906111,0.819211 0.247496,0.263469 0.478628,0.541528 0.722503,0.808386 0.236289,0.247378 0.459184,0.506498 0.683622,0.764368 0.173591,0.23331 0.319678,0.48481 0.483119,0.724893 0.155128,0.232851 0.316381,0.460647 0.465092,0.698029 0.167818,0.423592 0.309896,0.856313 0.489951,1.275678 0.132376,0.32508 0.263945,0.65021 0.401536,0.973145 0.0991,0.265996 0.163238,0.54443 0.229884,0.820206 0.06216,0.268038 0.07786,0.542999 0.08733,0.817007 -0.01363,0.267538 0.03827,0.528473 0.07835,0.79126 0.03992,0.269205 0.05004,0.541343 0.05629,0.813017 0.0098,0.264303 -0.0084,0.529494 0.01378,0.793131 0.04667,0.267372 0.08378,0.535519 0.104298,0.806169 0.01699,0.268848 0.01786,0.538338 0.01884,0.807608 2.64e-4,0.26737 -1.8e-4,0.53474 -5.29e-4,0.80211 -2.44e-4,0.26725 -2.65e-4,0.53449 -2.65e-4,0.80174 -2.1e-5,0.26726 -1.3e-5,0.53453 -1.3e-5,0.8018 2e-6,0.26727 5e-6,0.53454 5e-6,0.80181 0.01381,0.27535 -0.008,0.54547 -0.05324,0.81666 -0.06236,0.30769 -0.246229,0.57635 -0.410075,0.83972 -0.205407,0.29874 -0.441791,0.57646 -0.688422,0.84185 -0.216816,0.24774 -0.486516,0.43449 -0.749681,0.6278 -0.02257,0.0155 -0.198803,0.13736 -0.223266,0.15138 -0.60557,0.34687 -1.212988,0.69051 -1.821294,1.03255 -0.07999,0.045 -0.320924,0.17815 -0.241252,0.13261 0.523766,-0.29938 1.046303,-0.6009 1.569453,-0.90135 -0.680533,0.43306 -1.387301,0.82467 -2.08797,1.22298 -0.129866,0.0738 -0.270918,0.12356 -0.400627,0.20166 -0.258517,0.15667 -0.522531,0.27296 -0.819473,0.33123 -0.269912,0.0416 -0.543758,0.0409 -0.816136,0.0417 -0.267544,-5.3e-4 -0.535088,-0.002 -0.802632,-0.003 -0.267214,-7.9e-4 -0.534427,-7.9e-4 -0.80164,-7.9e-4 -0.311645,0.0291 -0.530008,-0.0222 -0.819743,-0.125 -0.295177,-0.12161 -0.504751,-0.36063 -0.697055,-0.60579 -0.162192,-0.22767 -0.313894,-0.46096 -0.457687,-0.70068 -0.124275,-0.24074 -0.255527,-0.4764 -0.399844,-0.70568 -0.119957,-0.20535 -0.258088,-0.39964 -0.39769,-0.5919 -0.156797,-0.21419 -0.26839,-0.45282 -0.372382,-0.69569 -0.121079,-0.26381 -0.250891,-0.52235 -0.338135,-0.79975 -0.07384,-0.26572 -0.07838,-0.5421 -0.127532,-0.81228 -0.03967,-0.26887 -0.08944,-0.53445 -0.146941,-0.80002 -0.05805,-0.26878 -0.07521,-0.54335 -0.08541,-0.81737 -0.0053,-0.17902 -0.0056,-0.35812 -0.0061,-0.5372 0,0 1.769864,-0.90209 1.769864,-0.90209 v 0 c 4e-5,0.17729 -8.5e-5,0.3546 0.0033,0.53187 0.0068,0.26315 0.0173,0.52728 0.06862,0.78624 0.05586,0.26759 0.116658,0.53227 0.149215,0.80412 0.05125,0.26404 0.0636,0.53029 0.117014,0.7938 0.07852,0.27301 0.20872,0.52372 0.328076,0.7806 0.09702,0.23011 0.203279,0.45478 0.352435,0.65651 0.140015,0.19691 0.283478,0.39236 0.402508,0.60295 0.145349,0.23012 0.274662,0.46859 0.400908,0.70959 0.14052,0.23154 0.286223,0.45889 0.443015,0.67989 0.174096,0.21687 0.362903,0.42209 0.636778,0.50808 0.257517,0.0801 0.515422,0.0822 0.783873,0.0722 0.267325,1.4e-4 0.534649,2.7e-4 0.801974,0.001 0.266991,0.001 0.533995,0.003 0.800983,5.3e-4 0.264086,-0.005 0.530784,-0.0112 0.787871,-0.0786 0.279541,-0.0861 0.531718,-0.22759 0.78562,-0.37104 0.0457,-0.0235 0.09141,-0.047 0.137112,-0.0705 0.04468,-0.0215 0.08988,-0.0419 0.134038,-0.0644 0.04311,-0.022 0.169476,-0.0935 0.12769,-0.0691 -2.763326,1.61431 -1.888992,1.10923 -1.302713,0.74565 0.60805,-0.35526 1.214782,-0.71279 1.824149,-1.06579 0.08059,-0.0467 0.330729,-0.17104 0.250484,-0.12377 -2.796474,1.64698 -1.933469,1.15251 -1.358305,0.78017 0.272703,-0.17369 0.54075,-0.36476 0.771194,-0.59265 0.251312,-0.25295 0.480349,-0.52554 0.699625,-0.8067 0.08937,-0.12945 0.163078,-0.26102 0.241853,-0.39669 0.04858,-0.0837 0.11662,-0.1557 0.159797,-0.24228 0.01953,-0.0391 0.02663,-0.0833 0.03995,-0.12493 0.04442,-0.26228 0.09159,-0.51894 0.06779,-0.78695 0,-0.26727 0,-0.53454 -3e-6,-0.80181 -2e-6,-0.26727 -8e-6,-0.53454 5e-6,-0.80182 1.9e-5,-0.26729 4.5e-5,-0.53458 2.47e-4,-0.80188 2.27e-4,-0.26717 7.93e-4,-0.53434 7.93e-4,-0.80151 -2.64e-4,-0.26536 -1.48e-4,-0.53088 -0.01283,-0.796 -0.01624,-0.26787 -0.04657,-0.53413 -0.09966,-0.797457 -0.03966,-0.268192 -0.01357,-0.539993 -0.02294,-0.810495 -0.004,-0.263975 -0.0099,-0.528534 -0.04444,-0.790649 -0.03856,-0.270148 -0.105466,-0.53711 -0.08934,-0.811914 -0.006,-0.261641 -0.01482,-0.524621 -0.06833,-0.781738 -0.06059,-0.26634 -0.127471,-0.532619 -0.21186,-0.792059 -0.134895,-0.324247 -0.267242,-0.649084 -0.39225,-0.977318 -0.173567,-0.40963 -0.317029,-0.830754 -0.484838,-1.242361 -0.148386,-0.2344 -0.307539,-0.460857 -0.459566,-0.69273 -0.159832,-0.233376 -0.303728,-0.477192 -0.472167,-0.7048 -0.222269,-0.257307 -0.440119,-0.51831 -0.677193,-0.762357 C 77.491534,91.29529 77.264315,91.021441 77.019737,90.76321 76.715964,90.483895 76.401305,90.216483 76.104691,89.929524 75.832062,89.630301 75.57212,89.3199 75.296104,89.023847 75.007901,88.748083 74.714714,88.477705 74.414888,88.214574 74.12909,87.95455 73.87068,87.670728 73.614211,87.381973 c -0.240144,-0.239207 -0.524169,-0.407551 -0.833353,-0.546238 -0.257125,-0.114041 -0.519443,-0.216733 -0.793419,-0.283218 -0.256466,-0.07115 -0.519708,-0.122309 -0.787284,-0.109262 -0.270211,0.0019 -0.540533,0.006 -0.81068,-0.0019 -0.268396,-0.01381 -0.544029,-0.03206 -0.767689,-0.198279 -0.238905,-0.239133 -0.228507,-0.441322 -0.215151,-0.761458 0,-0.267268 0,-0.53454 5e-6,-0.801811 5e-6,-0.267275 1.3e-5,-0.534549 1.9e-5,-0.801823 -3e-6,-0.267213 10e-6,-0.534426 -2.17e-4,-0.80164 -2.65e-4,-0.266761 -7.94e-4,-0.533519 -0.0021,-0.800277 -0.0011,-0.268742 -0.0039,-0.537617 0.0057,-0.806246 0.01648,-0.308256 0.05211,-0.615567 0.16175,-0.906719 0.152348,-0.405858 0.319413,-0.807837 0.442101,-1.223616 0,0 1.795886,-0.843415 1.795886,-0.843415 z"
         id="path332" />
      <path
         style="stroke-width:0.26458332"
         inkscape:connector-curvature="0"
         d="m 70.362479,102.00468 c -0.113649,-0.42759 -0.212024,-0.85902 -0.346927,-1.2805 -0.108045,-0.27599 -0.230095,-0.54584 -0.346514,-0.818361 -0.122529,-0.258824 -0.214852,-0.526939 -0.303983,-0.798378 -0.128973,-0.263358 -0.258299,-0.529381 -0.405315,-0.783733 -0.181623,-0.210423 -0.316878,-0.452112 -0.452964,-0.692716 -0.161792,-0.282236 -0.393176,-0.512887 -0.59605,-0.76418 -0.211416,-0.260313 -0.41124,-0.53041 -0.596993,-0.809638 -0.200538,-0.286279 -0.398089,-0.573217 -0.593601,-0.863071 -0.196297,-0.242126 -0.377354,-0.495684 -0.532781,-0.765895 -0.156358,-0.203874 -0.265903,-0.434787 -0.390583,-0.65723 -0.03776,-0.04405 -0.05891,-0.09378 -0.125865,-0.09205 -0.05849,0.0016 -0.07554,0.05477 -0.114294,0.08537 -0.02572,0.02032 -0.112758,0.06686 -0.08427,0.05066 0.535729,-0.304596 1.070669,-0.610579 1.606003,-0.915868 -0.241176,0.135816 -0.380786,0.380947 -0.55902,0.583173 -0.235495,0.245933 -0.482915,0.480137 -0.726384,0.718114 -0.236024,0.228713 -0.418883,0.502332 -0.601885,0.773244 -0.184679,0.273918 -0.403095,0.523151 -0.583843,0.7996 -0.170635,0.305745 -0.373644,0.591503 -0.580416,0.873491 -0.215715,0.278862 -0.414716,0.567697 -0.66905,0.813268 -0.23241,0.19671 -0.446502,0.413639 -0.661818,0.628555 -0.272147,0.248692 -0.484264,0.550481 -0.718849,0.832246 -0.215418,0.235538 -0.416697,0.483585 -0.602051,0.743361 -0.211095,0.266678 -0.400063,0.543868 -0.560994,0.843388 -0.02857,0.0483 -0.05715,0.0967 -0.08572,0.14502 0,0 -1.81542,0.79623 -1.81542,0.79623 v 0 c 0.0314,-0.0434 0.06279,-0.0868 0.09419,-0.13013 0.162576,-0.30253 0.315897,-0.60728 0.548855,-0.86452 0.18493,-0.26403 0.372261,-0.528474 0.595706,-0.761898 0.247489,-0.274404 0.447961,-0.586703 0.7136,-0.845074 0.215212,-0.216937 0.428078,-0.436618 0.653577,-0.642974 0.284908,-0.211103 0.477065,-0.496655 0.691226,-0.774745 0.209865,-0.272566 0.411552,-0.553834 0.584176,-0.851503 0.157684,-0.292788 0.378516,-0.543928 0.581549,-0.805868 0.173347,-0.286523 0.369144,-0.561721 0.587269,-0.81583 0.240845,-0.236897 0.48323,-0.472209 0.724914,-0.708247 0.197691,-0.19872 0.341146,-0.431903 0.534852,-0.63374 0.603017,-0.345597 1.202677,-0.697122 1.809052,-1.036791 0.192876,-0.108043 0.385106,0.04964 0.488664,0.202244 0.122481,0.222801 0.234088,0.450819 0.386284,0.656582 0.151921,0.266505 0.333748,0.513234 0.520374,0.756344 0.195689,0.290311 0.3985,0.574468 0.597519,0.862369 0.181896,0.274294 0.378757,0.538856 0.586269,0.794264 0.210482,0.259159 0.448083,0.498681 0.616128,0.789934 0.137091,0.23944 0.27405,0.478428 0.450331,0.692261 0.154739,0.26543 0.287481,0.544338 0.426707,0.817708 0.09082,0.26492 0.170696,0.531921 0.295696,0.784104 0.12098,0.278159 0.240657,0.556815 0.352398,0.838872 0.130117,0.428418 0.217869,0.867528 0.358468,1.293088 0,0 -1.748213,0.93946 -1.748213,0.93946 z"
         id="path336" />
      <path
         style="stroke-width:0.26458332"
         inkscape:connector-curvature="0"
         d="m 68.823821,88.693134 c 0.251163,0.407027 0.507026,0.811393 0.740433,1.228979 0.123394,0.274164 0.243481,0.549548 0.36952,0.822759 0.100592,0.215749 0.268285,0.387763 0.417587,0.570024 0.152736,0.247168 0.343691,0.46595 0.517276,0.697733 0.184409,0.22888 0.400039,0.424703 0.648105,0.581588 0.213069,0.169675 0.454869,0.295532 0.678651,0.449488 0.290446,0.18551 0.485473,0.467309 0.709961,0.720926 0.277694,0.256368 0.564632,0.498972 0.820608,0.777626 0.17898,0.264573 0.399802,0.49095 0.626589,0.713928 0,0 -1.689595,1.03741 -1.689595,1.03741 v 0 c -0.229142,-0.225079 -0.44704,-0.458044 -0.629673,-0.723466 -0.257998,-0.27867 -0.551046,-0.517277 -0.823889,-0.780804 -0.212939,-0.242441 -0.402828,-0.507079 -0.685631,-0.675339 -0.22802,-0.147137 -0.464145,-0.282164 -0.678352,-0.449942 -0.25686,-0.180393 -0.489833,-0.389329 -0.681865,-0.639146 -0.173038,-0.228732 -0.362805,-0.444823 -0.517539,-0.687287 -0.161472,-0.194453 -0.333348,-0.384858 -0.44246,-0.615376 -0.122764,-0.270007 -0.240633,-0.541171 -0.352956,-0.815522 -0.225613,-0.417582 -0.472459,-0.824556 -0.741643,-1.215475 0,0 1.714873,-0.998104 1.714873,-0.998104 z"
         id="path338" />
      <path
         style="stroke-width:0.26458332"
         d="m 75.099146,96.967911 a 0.82682288,0.79138768 0 0 1 -0.817006,0.791332 0.82682288,0.79138768 0 0 1 -0.836406,-0.772542 0.82682288,0.79138768 0 0 1 0.797146,-0.809676 0.82682288,0.79138768 0 0 1 0.855334,0.753317 l -0.82589,0.03757 z"
         sodipodi:end="6.2356949"
         sodipodi:start="0"
         sodipodi:ry="0.79138768"
         sodipodi:rx="0.82682288"
         sodipodi:cy="96.967911"
         sodipodi:cx="74.272324"
         sodipodi:type="arc"
         id="path344" />
    </g>
    <g
       id="g426"
       transform="matrix(1.4366501,0,0,1.3322896,-13.357105,-25.65174)">
      <path
         style="stroke-width:0.26458332"
         inkscape:connector-curvature="0"
         d="m 108.48761,76.059455 c -0.47021,0.461888 -0.96312,0.898231 -1.44616,1.346308 -0.37421,0.396624 -0.78041,0.760564 -1.17878,1.13229 -0.41743,0.372084 -0.79898,0.777592 -1.16435,1.199989 -0.29456,0.393631 -0.62835,0.752364 -0.97306,1.101778 -0.3654,0.362116 -0.80019,0.641336 -1.20784,0.951936 -0.4354,0.352684 -0.87703,0.697479 -1.32043,1.039992 -0.41471,0.31872 -0.81602,0.653032 -1.203703,1.004004 -0.390424,0.34866 -0.733258,0.743731 -1.121788,1.094134 -0.303541,0.277929 -0.633907,0.52378 -0.976572,0.750853 -0.320841,0.173067 -0.604274,0.371433 -0.721971,0.727771 0.0058,0.314061 0.276326,0.570037 0.484669,0.781931 0.221131,0.275477 0.497655,0.497541 0.734901,0.757259 0.216842,0.226131 0.505728,0.35328 0.750867,0.538872 0.33909,0.213113 0.663151,0.4416 0.985027,0.678957 0.32977,0.264528 0.64417,0.544299 1.00369,0.76875 0.33671,0.220443 0.64299,0.482875 0.97105,0.71479 0.32993,0.262422 0.65648,0.540896 0.9527,0.842206 0.28718,0.30157 0.59647,0.589788 0.92778,0.842833 0.39419,0.286634 0.75804,0.610822 1.11456,0.942247 0.43718,0.31196 0.85692,0.638519 1.2681,0.983917 0.32378,0.326226 0.70756,0.567195 1.03768,0.886658 0.34759,0.347626 0.73298,0.654873 1.09741,0.984832 0.35504,0.33165 0.70267,0.671209 1.07978,0.977763 0.2109,0.171122 0.105,0.08382 0.31761,0.262001 0,0 -2.37953,1.488255 -2.37953,1.488255 v 0 c -0.21329,-0.176205 -0.10702,-0.08847 -0.31881,-0.263218 -0.36816,-0.320538 -0.72138,-0.657051 -1.07937,-0.988833 -0.36818,-0.329234 -0.75361,-0.639768 -1.10264,-0.989756 -0.33131,-0.30575 -0.71494,-0.546095 -1.02501,-0.87634 -0.41192,-0.351126 -0.85515,-0.654703 -1.27688,-0.992611 -0.35442,-0.324574 -0.71916,-0.637116 -1.10713,-0.921374 -0.33231,-0.270169 -0.65526,-0.555519 -0.94738,-0.869095 -0.29244,-0.285682 -0.6007,-0.561631 -0.928296,-0.805794 -0.318866,-0.237633 -0.634315,-0.479166 -0.963099,-0.703316 -0.354394,-0.24118 -0.678154,-0.519437 -1.016072,-0.782417 -0.31582,-0.240634 -0.65143,-0.448837 -0.981636,-0.669134 -0.277259,-0.17363 -0.555146,-0.350145 -0.782698,-0.588836 -0.24284,-0.251923 -0.505844,-0.484732 -0.729726,-0.755131 -0.272804,-0.286258 -0.551593,-0.609367 -0.614151,-1.011661 0.02801,-0.425577 0.248565,-0.751414 0.629624,-0.950984 0.360103,-0.194911 0.678907,-0.446595 1.000617,-0.698391 0.727839,-0.689849 -0.437465,0.40587 0.362307,-0.314802 0.270909,-0.244118 0.477589,-0.552632 0.764087,-0.781941 0.382501,-0.357913 0.772962,-0.708052 1.194951,-1.019458 0.427914,-0.363194 0.899417,-0.674616 1.321755,-1.045837 0.397207,-0.318469 0.821207,-0.598213 1.216977,-0.918139 0.34641,-0.344739 0.70598,-0.683575 0.98684,-1.08581 0.36618,-0.426006 0.72475,-0.856938 1.15068,-1.2264 0.39638,-0.373517 0.81218,-0.72872 1.18276,-1.127876 0.45953,-0.470956 1.00426,-0.850604 1.42942,-1.359024 0,0 2.60124,-1.054148 2.60124,-1.054148 z"
         id="path414" />
      <path
         style="stroke-width:0.26458332"
         inkscape:connector-curvature="0"
         d="m 108.58765,103.92797 c -0.61892,-0.0776 -1.24179,-0.11628 -1.8648,-0.14059 -0.43912,-0.0111 -0.86822,-0.11844 -1.30495,-0.16483 -0.37363,-0.0337 -0.74908,-0.0358 -1.12392,-0.038 -0.37677,-10e-4 -0.75354,1.1e-4 -1.1303,5.3e-4 -0.37796,5.3e-4 -0.75591,5.3e-4 -1.13387,5.3e-4 -0.37799,5e-5 -0.75598,3e-5 -1.13398,3e-5 -0.37797,0 -0.75595,-1e-5 -1.133927,-1e-5 -0.377976,0 -0.755951,0 -1.133927,0 -0.377976,0 -0.755952,0 -1.133928,0 -0.377975,0 -0.755954,0 -1.13393,0 0,0 2.272805,-1.65129 2.272805,-1.65129 v 0 c 0.377976,0 0.755952,0 1.133928,0 0.377969,0 0.755949,0 1.133929,0 0.37797,0 0.75595,10e-6 1.13392,10e-6 0.37798,0 0.75596,0 1.13394,0 0.37797,0 0.75596,1e-5 1.13393,-8e-5 0.37791,-1.3e-4 0.75581,-2.7e-4 1.13371,-8e-4 0.37745,-5.3e-4 0.75492,-0.002 1.13236,0.002 0.38101,0.006 0.76273,0.0152 1.14117,0.0637 0.4274,0.0584 0.85136,0.15193 1.28463,0.15412 0.62858,0.0356 1.25577,0.0891 1.88242,0.14965 0,0 -2.28921,1.62481 -2.28921,1.62481 z"
         id="path416" />
      <path
         style="stroke-width:0.26458332"
         d="m 96.98543,100.90768 a 1.0356694,0.98555636 0 0 1 -1.023374,0.98548 1.0356694,0.98555636 0 0 1 -1.047673,-0.96208 1.0356694,0.98555636 0 0 1 0.998497,-1.008335 1.0356694,0.98555636 0 0 1 1.071382,0.938145 l -1.034502,0.0468 z"
         sodipodi:end="6.2356949"
         sodipodi:start="0"
         sodipodi:ry="0.98555636"
         sodipodi:rx="1.0356694"
         sodipodi:cy="100.90768"
         sodipodi:cx="95.94976"
         sodipodi:type="arc"
         id="path418" />
      <path
         style="stroke-width:0.26458332"
         d="m 107.50916,86.174454 a 1.3029389,1.252826 0 0 1 -1.28747,1.252737 1.3029389,1.252826 0 0 1 -1.31804,-1.222991 1.3029389,1.252826 0 0 1 1.25617,-1.281778 1.3029389,1.252826 0 0 1 1.34787,1.192557 l -1.30147,0.05947 z"
         sodipodi:end="6.2356949"
         sodipodi:start="0"
         sodipodi:ry="1.252826"
         sodipodi:rx="1.3029389"
         sodipodi:cy="86.174454"
         sodipodi:cx="106.20622"
         sodipodi:type="arc"
         id="path420" />
    </g>
    <g
       id="g457"
       transform="matrix(1.0662541,0,0,1.1736486,35.605499,-17.954341)">
      <path
         style="stroke-width:0.52683812"
         inkscape:connector-curvature="0"
         d="m 119.68075,96.37186 c 0.15581,0.0095 0.31165,0.0052 0.46747,0.0031 0.11004,-0.0011 0.22007,-0.0031 0.3301,-0.0021 0.12721,0.0021 0.25442,0.0021 0.38163,10e-4 0.11987,1.59e-4 0.23973,-10e-4 0.35959,-4.48e-4 0.11137,1.23e-4 0.22274,-9.16e-4 0.33411,-0.0011 0.10918,0.0021 0.21836,6.29e-4 0.32753,1.34e-4 0.0974,-4.48e-4 0.19469,-5.87e-4 0.29203,-6.7e-4 0.0944,-5.2e-5 0.18889,-4e-5 0.28334,-4e-5 0.0944,0 0.18889,8e-6 0.28334,8e-6 0.0975,0.06316 0.19327,0.134727 0.28853,0.235791 0.0955,0.0684 0.18685,0.195112 0.28246,0.263267 0.0961,0.02022 0.1888,0.100394 0.28317,0.16831 0.0955,0.04457 0.18949,0.07406 0.28363,0.15237 0.0923,0.07743 0.18655,0.09872 0.28057,0.111373 0.10549,0.0083 0.21101,0.0095 0.31652,0.0095 0.11305,-6.49e-4 0.2261,-0.0021 0.33915,-0.0031 0.0963,-6.62e-4 0.19263,-7.38e-4 0.28895,-7.97e-4 0.0943,-2.4e-5 0.18864,0 0.28296,0 0.0945,8e-6 0.18891,8e-6 0.28337,2e-5 0.0945,0 0.18898,0 0.28348,0 0.0945,0 0.18899,0 0.28348,0 0.0945,0 0.18899,0 0.28349,0 0.0945,0 0.18898,0 0.28348,0 0.0945,0 0.18898,0 0.28348,0 0.0945,0 0.18899,0 0.28348,0 0.0945,0 0.18899,0 0.28348,0 0.0945,0 0.18899,0 0.28349,0 0.0472,0 0.0945,0 0.14174,0 0,0 -0.5682,1.636783 -0.5682,1.636783 v 0 c -0.0473,0 -0.0945,0 -0.14175,0 -0.0945,0 -0.18898,0 -0.28348,0 -0.0945,0 -0.18898,0 -0.28348,0 -0.0945,0 -0.18899,0 -0.28348,0 -0.0945,0 -0.18899,0 -0.28348,0 -0.0945,0 -0.18899,0 -0.28349,0 -0.0945,0 -0.18898,0 -0.28348,0 -0.0945,0 -0.18899,0 -0.28348,0 -0.0945,0 -0.18899,0 -0.28349,0 -0.0945,0 -0.18891,0 -0.28336,0 -0.0943,0 -0.18864,1.3e-5 -0.28295,0 -0.0962,-2e-5 -0.19235,-5.1e-5 -0.28853,-2.5e-4 -0.11262,-2.61e-4 -0.22524,-7.65e-4 -0.33787,-7.34e-4 -0.10672,3.66e-4 -0.21351,0.0052 -0.32015,-0.01506 -0.0962,-0.0226 -0.19208,-0.06272 -0.28639,-0.144719 -0.0939,-0.0668 -0.18972,-0.07355 -0.28334,-0.150705 -0.0942,-0.07208 -0.18917,-0.109828 -0.28378,-0.171877 -0.0952,-0.08528 -0.18893,-0.195627 -0.28451,-0.275598 -0.0911,-0.09052 -0.18467,-0.156177 -0.27842,-0.177667 -0.0945,0 -0.1889,1.3e-5 -0.28335,1.3e-5 -0.0944,0 -0.18887,7e-6 -0.2833,-4.4e-5 -0.0972,-8.3e-5 -0.19438,-2.17e-4 -0.29157,-6.7e-4 -0.10921,-4.96e-4 -0.21841,-0.0011 -0.32762,1.35e-4 -0.11103,-5.55e-4 -0.22206,-0.0021 -0.33309,-10e-4 -0.11976,10e-4 -0.23952,-6.1e-4 -0.35928,-4.52e-4 -0.12754,-10e-4 -0.25507,-3.18e-4 -0.3826,0.001 -0.10954,0.0011 -0.21907,-7.34e-4 -0.3286,-0.0021 -0.15644,-0.0021 -0.3129,-0.0064 -0.46934,0.0031 0,0 0.56781,-1.635653 0.56781,-1.635653 z"
         id="path430" />
      <path
         style="stroke-width:0.52683812"
         inkscape:connector-curvature="0"
         d="m 134.56356,97.683158 c 0.15581,0.0095 0.31165,0.0052 0.46748,0.0031 0.10825,-0.0021 0.2165,-0.0031 0.32475,-0.0031 0.0944,-2.81e-4 0.18881,-2.49e-4 0.28322,-2.37e-4 0.10709,0.0021 0.21418,0.001 0.32126,7.33e-4 0.10879,6.59e-4 0.21757,7.54e-4 0.32636,2.62e-4 0.0989,-5.23e-4 0.19778,-7.58e-4 0.29666,-8.8e-4 0.10737,0.0021 0.21474,0.001 0.3221,6.06e-4 0.0974,-4.2e-4 0.19485,-5.54e-4 0.29228,-6.38e-4 0.0936,-0.01585 0.18877,0.03806 0.28093,-0.03569 0.0935,-0.0835 0.1889,-0.118081 0.28441,-0.138216 0.0949,-0.01546 0.1899,-0.01467 0.28486,-0.01506 0.1015,-2.53e-4 0.203,0.0021 0.30451,0.0021 0.10705,-7.53e-4 0.21409,1.07e-4 0.32114,5.35e-4 0.10549,-8.3e-5 0.21098,-7.57e-4 0.31647,-0.0011 0.0956,-2.94e-4 0.19115,-3.33e-4 0.28673,-3.57e-4 0.0944,-2e-5 0.18878,-7e-6 0.28317,-7e-6 0.0945,7e-6 0.18894,7e-6 0.28342,7e-6 0.0945,0 0.18898,0 0.28348,0 0.0945,0 0.18899,0 0.28348,0 0.0945,0 0.18899,0 0.28348,0 0.0945,0 0.18899,0 0.28349,0 0.0945,0 0.18898,0 0.28348,0 0.0945,0 0.18898,0 0.28348,0 0.0945,0 0.18899,0 0.28348,0 0.0945,0 0.18899,0 0.28348,0 0.0945,0 0.18899,0 0.28349,0 0.0945,0 0.18898,0 0.28348,0 0.0945,0 0.18898,0 0.28348,0 0.0945,0 0.18899,0 0.28348,0 0.0963,2.65e-4 0.19255,-7.41e-4 0.28883,8.84e-4 0.10663,8.17e-4 0.21326,1.9e-5 0.31989,-3.8e-4 0.0964,-3.46e-4 0.19285,-4.41e-4 0.28928,-4.93e-4 0.0944,-3.1e-5 0.18886,-1.8e-5 0.28328,-1.8e-5 0.0945,0 0.18892,7e-6 0.28338,7e-6 0.0945,0 0.18899,0 0.28348,0 0.0945,0 0.18899,0 0.28348,0 0.0945,0 0.18899,0 0.28349,0 0,0 -0.56821,1.636788 -0.56821,1.636788 v 0 c -0.0945,0 -0.18898,0 -0.28348,0 -0.0945,0 -0.18899,0 -0.28348,0 -0.0945,0 -0.18899,0 -0.28348,0 -0.0945,0 -0.18892,0 -0.28338,1.1e-5 -0.0944,0 -0.18884,8e-6 -0.28327,-3.1e-5 -0.0963,-5.5e-5 -0.19262,-1.4e-4 -0.28894,-4.96e-4 -0.10654,-3.96e-4 -0.21308,-0.001 -0.31963,-3.77e-4 -0.0965,0.0021 -0.19296,6.39e-4 -0.28944,8.93e-4 -0.0945,0 -0.18899,0 -0.28348,0 -0.0945,0 -0.18899,0 -0.28348,0 -0.0945,0 -0.18899,0 -0.28349,0 -0.0945,0 -0.18898,0 -0.28348,0 -0.0945,0 -0.18899,0 -0.28348,0 -0.0945,0 -0.18899,0 -0.28348,0 -0.0945,0 -0.18899,0 -0.28349,0 -0.0945,0 -0.18898,0 -0.28348,0 -0.0945,0 -0.18898,0 -0.28348,0 -0.0945,0 -0.18899,0 -0.28348,0 -0.0945,0 -0.18899,0 -0.28348,0 -0.0945,0 -0.18899,0 -0.28349,0 -0.0945,0 -0.18894,0 -0.28341,0 -0.0944,1.1e-5 -0.18878,1.9e-5 -0.28317,0 -0.0955,-2e-5 -0.19099,-6.4e-5 -0.28649,-3.45e-4 -0.10524,-3.5e-4 -0.21047,-0.001 -0.3157,-0.0011 -0.10711,3.69e-4 -0.21421,0.0011 -0.32132,-2.61e-4 -0.10174,-3.17e-4 -0.20349,6.89e-4 -0.30524,7.77e-4 -0.0941,0.0021 -0.18823,0.0031 -0.2821,0.02973 -0.0948,0.03172 -0.18833,0.09222 -0.28228,0.149476 -0.0952,0.01745 -0.19059,0.0064 -0.28589,0.0095 -0.0973,-8.3e-5 -0.19455,-2.22e-4 -0.29183,-6.5e-4 -0.10751,-4.28e-4 -0.21501,-0.0011 -0.32252,6.18e-4 -0.0987,-1.26e-4 -0.19737,-3.56e-4 -0.29606,-8.8e-4 -0.10885,-4.91e-4 -0.21769,-4.01e-4 -0.32654,2.62e-4 -0.10725,-4.28e-4 -0.21451,-0.0011 -0.32177,7.33e-4 -0.0943,0 -0.1887,4.4e-5 -0.28305,-2.41e-4 -0.10755,-4.09e-4 -0.21509,-0.001 -0.32264,-0.0031 -0.15644,-0.0021 -0.3129,-0.0063 -0.46933,0.0031 0,0 0.5678,-1.63565 0.5678,-1.63565 z"
         id="path432" />
      <path
         style="stroke-width:0.26458332"
         d="m 132.64633,102.84374 a 1.5702084,1.2027128 0 0 1 -1.55156,1.20263 1.5702084,1.2027128 0 0 1 -1.58841,-1.17407 1.5702084,1.2027128 0 0 1 1.51385,-1.23051 1.5702084,1.2027128 0 0 1 1.62435,1.14486 l -1.56843,0.0571 z"
         sodipodi:end="6.2356949"
         sodipodi:start="0"
         sodipodi:ry="1.2027128"
         sodipodi:rx="1.5702084"
         sodipodi:cy="102.84374"
         sodipodi:cx="131.07613"
         sodipodi:type="arc"
         id="path434" />
      <g
         transform="translate(0.14174107,5.0554316)"
         id="g447">
        <path
           id="path436"
           d="m 130.79781,95.883377 c 0.004,-0.156282 0.002,-0.312624 0.001,-0.468924 -7.9e-4,-0.107701 -0.001,-0.215402 -0.001,-0.323106 -1e-4,-0.09436 -9e-5,-0.188728 -9e-5,-0.283091 1e-5,-0.09428 1e-5,-0.188558 2e-5,-0.282837 0,-0.09448 0,-0.188966 0,-0.283448 0,-0.0945 0,-0.188992 0,-0.283491 0,-0.09449 0,-0.188989 0,-0.283482 0,-0.09449 0,-0.188987 0,-0.283483 0,-0.09449 0,-0.188986 0,-0.283482 0,-0.09449 0,-0.188987 0,-0.28348 0,-0.0945 0,-0.188989 0,-0.283483 0,-0.0945 0,-0.188989 0,-0.283482 -0.002,-0.09324 0.004,-0.186793 -0.004,-0.279779 -0.0166,-0.09453 -0.0298,-0.189341 -0.0371,-0.285046 -0.014,-0.09335 -0.0309,-0.186311 -0.0546,-0.277717 -0.0183,-0.09868 -0.0594,-0.188418 -0.10447,-0.277045 -0.0447,-0.09141 -0.0652,-0.191609 -0.10027,-0.286732 -0.039,-0.0948 -0.079,-0.187775 -0.10249,-0.287859 -0.0182,-0.08772 -0.0523,-0.168851 -0.0999,-0.24431 -0.0671,-0.08026 -0.1093,-0.175073 -0.14874,-0.270873 -0.0248,-0.07552 -0.0552,-0.150622 -0.10624,-0.212323 -0.0455,-0.06349 -0.0806,-0.133688 -0.12007,-0.20103 -0.0566,-0.06521 -0.11019,-0.13135 -0.15082,-0.207883 -0.0489,-0.09334 -0.10667,-0.182253 -0.16709,-0.26855 -0.0756,-0.104899 -0.15803,-0.204576 -0.24185,-0.303059 -0.0744,-0.09517 -0.14054,-0.195231 -0.22124,-0.285316 -0.0702,-0.08309 -0.14217,-0.162555 -0.22167,-0.236966 -0.0914,-0.0844 -0.18071,-0.170961 -0.26953,-0.258043 -0.0724,-0.08542 -0.14319,-0.171611 -0.24169,-0.227332 -0.10516,-0.06777 -0.2017,-0.148847 -0.30371,-0.221883 -0.0956,-0.06468 -0.19905,-0.115617 -0.29997,-0.171071 -0.0914,-0.04242 -0.17994,-0.08986 -0.26475,-0.144301 -0.0841,-0.0498 -0.1719,-0.09248 -0.25743,-0.139597 -0.0855,-0.03921 -0.15933,-0.098 -0.24645,-0.133916 -0.10561,-0.03392 -0.20368,-0.08812 -0.30435,-0.13474 -0.10598,-0.06652 -0.22808,-0.09562 -0.33919,-0.150659 -0.0992,-0.04397 -0.18517,-0.108405 -0.28799,-0.144446 -0.0873,-0.04759 -0.18676,-0.05351 -0.28044,-0.07947 -0.0994,-0.01741 -0.1921,-0.05517 -0.28576,-0.09109 -0.0973,-0.02392 -0.18998,-0.06031 -0.28345,-0.09574 -0.0926,-0.04891 -0.19424,-0.07531 -0.29473,-0.102447 -0.10589,-0.03495 -0.20624,-0.08295 -0.31459,-0.11018 -0.0909,-0.04152 -0.19131,-0.04681 -0.2862,-0.07269 -0.0967,-0.02138 -0.19298,-0.0389 -0.28535,-0.07572 -0.10754,-0.037 -0.21429,-0.07608 -0.32176,-0.113461 -0.10735,-0.02968 -0.2175,-0.04533 -0.32478,-0.0757 -0.11187,-0.0313 -0.22626,-0.04839 -0.33889,-0.0762 -0.0975,-0.01566 -0.19069,-0.04759 -0.28796,-0.06467 -0.0958,-0.0067 -0.18762,-0.03428 -0.28238,-0.04861 -0.0962,-0.005 -0.18836,-0.03272 -0.28335,-0.04706 -0.093,-0.0122 -0.18688,-0.01347 -0.28051,-0.0145 -0.0976,0.0085 -0.19096,-0.01019 -0.28644,-0.02625 -0.0966,-0.0059 -0.18946,-0.02812 -0.2841,-0.04635 -0.0925,-0.01648 -0.1865,-0.01939 -0.28017,-0.02135 -0.0943,-0.0013 -0.18855,-7.93e-4 -0.28282,-7.93e-4 -0.0945,1.8e-4 -0.189,2.51e-4 -0.2835,2.64e-4 -0.0945,3.2e-5 -0.18899,2.9e-5 -0.28349,2.9e-5 -0.0945,0 -0.18899,-2e-6 -0.28348,-2e-6 -0.0945,0 -0.18899,0 -0.28348,0 -0.0945,0 -0.18899,0 -0.28348,0 -0.0945,0 -0.18899,0 -0.28349,0 -0.0945,0 -0.18899,0 -0.28348,0 -0.0945,0 -0.18899,0 -0.28348,0 -0.0945,0 -0.18899,0 -0.28348,0 -0.0945,0 -0.18899,0 -0.28349,0 -0.0945,0 -0.18898,0 -0.28348,0 -0.0945,0 -0.18899,0 -0.28348,0 -0.0787,0 -0.15749,0 -0.23624,0 0,0 0.56821,-0.412824 0.56821,-0.412824 v 0 c 0.0787,0 0.15749,0 0.23623,0 0.0945,0 0.18899,0 0.28348,0 0.0945,0 0.18899,0 0.28349,0 0.0945,0 0.18898,0 0.28348,0 0.0945,0 0.18899,0 0.28348,0 0.0945,0 0.18899,0 0.28348,0 0.0945,0 0.18899,0 0.28348,0 0.0945,0 0.18899,0 0.28349,0 0.0945,0 0.18898,0 0.28348,0 0.0945,0 0.18899,2e-6 0.28348,2e-6 0.0945,0 0.18899,3e-6 0.28348,0 0.0945,-2e-6 0.18898,-5e-6 0.28347,-5.8e-5 0.0945,-6.6e-5 0.18898,-1.88e-4 0.28347,-2.64e-4 0.0947,-5.9e-5 0.18946,-2.65e-4 0.28415,0.0026 0.0962,0.0039 0.19243,0.01072 0.2868,0.03091 0.0938,0.01932 0.18804,0.03156 0.28286,0.04451 0.0932,0.0154 0.18601,0.02024 0.28052,0.01781 0.0958,0.0024 0.19186,0.0064 0.28646,0.02299 0.0943,0.0173 0.18786,0.03747 0.28339,0.04712 0.0944,0.01749 0.18819,0.03788 0.28351,0.05029 0.0967,0.02127 0.19199,0.04851 0.28924,0.06752 0.11244,0.02713 0.22713,0.04433 0.33803,0.07804 0.10998,0.0259 0.22262,0.04193 0.3294,0.07995 0.1071,0.03883 0.2147,0.07633 0.32243,0.113331 0.0923,0.02932 0.18715,0.04621 0.28109,0.06911 0.0974,0.0195 0.19394,0.04108 0.28755,0.07532 0.10601,0.03303 0.20692,0.07999 0.31384,0.110453 0.10215,0.0294 0.20336,0.06041 0.29915,0.107378 0.0933,0.03605 0.18887,0.06394 0.28352,0.09586 0.0915,0.03539 0.18483,0.06354 0.28096,0.08354 0.0979,0.02066 0.1946,0.044 0.2855,0.08742 0.10005,0.0433 0.18959,0.105592 0.28985,0.148608 0.11274,0.04975 0.2301,0.0889 0.33736,0.150895 0.10192,0.04553 0.20153,0.09609 0.30699,0.133109 0.0849,0.04228 0.16259,0.09722 0.24824,0.138173 0.0878,0.04595 0.17565,0.09178 0.26053,0.142979 0.0849,0.05134 0.17222,0.09785 0.26145,0.14134 0.1037,0.05538 0.20702,0.111757 0.30344,0.179358 0.1008,0.07261 0.19638,0.153059 0.30309,0.216916 0.0969,0.06569 0.17302,0.152046 0.24805,0.241202 0.0888,0.08658 0.1784,0.172355 0.26993,0.256077 0.0808,0.07593 0.15237,0.158856 0.22508,0.242372 0.0803,0.09101 0.14507,0.192548 0.21993,0.287856 0.0853,0.100227 0.17054,0.200491 0.24697,0.307655 0.0622,0.08869 0.1217,0.179962 0.1729,0.275423 0.0397,0.07605 0.098,0.137165 0.14996,0.204735 0.0378,0.06463 0.0719,0.131752 0.1157,0.1925 0.0521,0.06906 0.0899,0.147262 0.11438,0.230307 0.0371,0.09244 0.0777,0.18303 0.14277,0.25977 0.0524,0.08221 0.0905,0.170262 0.11181,0.265734 0.02,0.09783 0.059,0.187384 0.0974,0.279107 0.0357,0.09239 0.0553,0.189918 0.0962,0.280231 0.0472,0.09292 0.0932,0.186316 0.11228,0.289919 0.0252,0.09551 0.043,0.192064 0.0609,0.289248 0.006,0.0947 0.0166,0.188839 0.0354,0.281919 0.0142,0.095 0.005,0.191347 0.008,0.287184 0,0.0945 0,0.188989 0,0.283483 0,0.09449 0,0.188989 0,0.283482 0,0.09449 0,0.188989 0,0.283483 0,0.09449 0,0.188986 0,0.283482 0,0.09449 0,0.188987 0,0.283483 0,0.09449 0,0.188986 0,0.283482 0,0.0945 0,0.188992 0,0.283491 0,0.09448 0,0.188962 0,0.283445 0,0.09427 1e-5,0.18855 1e-5,0.282824 0,0.0944 1e-5,0.188788 -9e-5,0.283183 -1.6e-4,0.108098 -5.3e-4,0.216197 -0.001,0.324292 -7.9e-4,0.155953 -0.003,0.311949 0.001,0.467881 0,0 -0.62535,0.318633 -0.62535,0.318633 z"
           inkscape:connector-curvature="0"
           style="stroke-width:0.26458332" />
        <path
           id="path438"
           d="m 119.07287,80.664896 c 0.15828,0.05542 0.32203,0.101219 0.47007,0.181033 0.10826,0.07339 0.22056,0.140668 0.32726,0.216281 0.10128,0.07897 0.2048,0.155178 0.31597,0.219673 0.10169,0.06032 0.19401,0.134358 0.29615,0.193979 0.10064,0.06034 0.19081,0.135747 0.28522,0.205079 0.0938,0.06189 0.18358,0.129476 0.27678,0.192455 0.0837,0.06899 0.18417,0.10786 0.28478,0.144555 0.10006,0.01643 0.18911,0.0634 0.28384,0.09644 0.0975,0.02405 0.18746,0.06947 0.28295,0.09957 0.10225,0.03852 0.19326,0.09891 0.28719,0.153355 0.0871,0.06004 0.18758,0.09493 0.28192,0.141327 0.0924,0.04393 0.18639,0.0837 0.28217,0.119835 0.0965,0.04087 0.18932,0.08944 0.28466,0.132736 0.0898,0.04407 0.18707,0.06484 0.28102,0.09648 0.0949,0.02826 0.19129,0.05306 0.28405,0.08783 0.095,0.03502 0.18879,0.07321 0.28397,0.108101 0.0948,0.03084 0.18858,0.06445 0.283,0.0966 0.0938,0.04001 0.18379,0.08655 0.2827,0.112688 0.0921,0.0351 0.1885,0.05495 0.28317,0.08167 0.0952,0.01781 0.18651,0.04909 0.28197,0.06595 0.0911,0.03245 0.18581,0.04871 0.28179,0.05726 0.10027,0.0031 0.19025,0.0523 0.28656,0.07648 0.0925,0.03503 0.18888,0.05594 0.28371,0.08323 0.0951,0.01826 0.18641,0.0496 0.28188,0.06652 0.0955,0.0094 0.18907,0.01521 0.28316,0.03405 0.0965,0.0099 0.18934,0.03403 0.28405,0.05342 0.0602,0.01794 0.12545,0.0083 0.18626,0.01955 0.0495,0.0092 0.0976,0.02516 0.14682,0.03594 0.1734,0.03333 0.34535,0.07235 0.52061,0.09504 0.11117,0.0034 0.21849,0.03165 0.32809,0.04732 0.0916,0.0302 0.18591,0.04666 0.28169,0.0552 0.10499,0.0013 0.20728,0.02577 0.31123,0.0387 0.10272,0.0034 0.20134,0.03181 0.30254,0.04695 0.0933,0.01228 0.18755,0.01363 0.28152,0.01468 0.0943,5.29e-4 0.18856,2.33e-4 0.28284,8e-5 0.0971,-0.0074 0.19096,0.01921 0.28648,0.0325 0.0967,0.0026 0.18956,0.02328 0.28423,0.04062 0.0926,0.01582 0.18664,0.01876 0.28037,0.02069 0.0943,0.0013 0.18855,7.94e-4 0.28283,7.94e-4 0.0945,-1.67e-4 0.189,-2.35e-4 0.28349,-2.65e-4 0.0944,0.01963 0.18935,0.03385 0.28541,0.04134 0.0938,0.0059 0.18777,0.006 0.28169,0.0062 0.0945,5e-5 0.18889,-1.51e-4 0.28334,-2.49e-4 0.0945,-9e-5 0.189,-1.03e-4 0.2835,-1.13e-4 0.0945,-8e-6 0.18899,-6e-6 0.28348,-6e-6 0.0945,3e-6 0.18899,3e-6 0.28349,3e-6 0.0945,0 0.18899,0 0.28348,0 0.0945,0 0.18899,0 0.28348,0 0.0945,0 0.18899,0 0.28348,0 0.0952,0.0045 0.18689,1.48e-4 0.28004,-0.01804 0.0951,-0.01381 0.18885,-0.024 0.28248,-0.04547 0.0982,-0.01614 0.18648,-0.06379 0.2809,-0.09295 0.0645,-0.01521 0.12585,-0.039 0.19032,-0.05482 0,0 -0.5568,0.427694 -0.5568,0.427694 v 0 c -0.0627,0.01894 -0.12504,0.03892 -0.18766,0.05806 -0.0936,0.03462 -0.18676,0.07125 -0.28606,0.08658 -0.0942,0.01855 -0.19026,0.02418 -0.28449,0.04291 -0.0952,0.01296 -0.19103,0.0084 -0.28693,0.0089 -0.0945,0 -0.18899,0 -0.28348,0 -0.0945,0 -0.18899,0 -0.28348,0 -0.0945,0 -0.18899,0 -0.28348,0 -0.0945,0 -0.18899,0 -0.28349,0 -0.0945,-3e-6 -0.18898,-3e-6 -0.28347,1.1e-5 -0.0945,2.1e-5 -0.18898,5.5e-5 -0.28347,1.66e-4 -0.0945,1.09e-4 -0.18908,2.65e-4 -0.28363,-1.51e-4 -0.0952,-7.93e-4 -0.19047,-0.0021 -0.28527,-0.01127 -0.0942,-0.01035 -0.18702,-0.03048 -0.28156,-0.03594 -0.0945,6.1e-5 -0.18898,1.8e-4 -0.28347,2.65e-4 -0.0947,4.2e-5 -0.18945,2.64e-4 -0.28413,-0.0026 -0.0961,-0.0039 -0.19217,-0.0105 -0.28659,-0.02965 -0.0938,-0.01804 -0.18792,-0.0277 -0.28274,-0.03844 -0.0931,-0.01479 -0.1856,-0.03095 -0.28043,-0.02392 -0.0946,1.19e-4 -0.18912,5.29e-4 -0.28367,-0.0013 -0.0961,-0.0024 -0.19236,-0.0066 -0.28723,-0.02307 -0.0999,-0.01791 -0.19917,-0.03849 -0.30068,-0.0457 -0.10351,-0.01487 -0.20658,-0.03159 -0.31118,-0.03686 -0.0959,-0.01286 -0.1891,-0.0364 -0.28331,-0.0579 -0.10809,-0.01857 -0.21567,-0.03879 -0.3251,-0.04835 -0.17493,-0.02796 -0.34735,-0.06854 -0.52174,-0.09954 -0.112,-0.02228 -0.22516,-0.03146 -0.33721,-0.05307 -0.0938,-0.0209 -0.18808,-0.0364 -0.28291,-0.05172 -0.0942,-0.01569 -0.1902,-0.01487 -0.28381,-0.03502 -0.0956,-0.02138 -0.18978,-0.04877 -0.28508,-0.07139 -0.0945,-0.02742 -0.19039,-0.04958 -0.28325,-0.08251 -0.0925,-0.02772 -0.1821,-0.06646 -0.28041,-0.06732 -0.0969,-0.01312 -0.1909,-0.03678 -0.28517,-0.06221 -0.0955,-0.02127 -0.18965,-0.04849 -0.285,-0.07055 -0.0948,-0.02693 -0.19126,-0.04796 -0.28379,-0.08263 -0.0972,-0.03259 -0.18819,-0.07955 -0.28427,-0.115165 -0.0944,-0.03336 -0.18971,-0.06421 -0.28396,-0.09813 -0.0941,-0.03623 -0.18803,-0.07284 -0.283,-0.106553 -0.094,-0.02977 -0.18828,-0.05841 -0.28291,-0.08604 -0.0978,-0.02822 -0.19348,-0.06134 -0.28595,-0.104463 -0.0933,-0.04475 -0.18647,-0.08975 -0.2823,-0.128855 -0.0961,-0.03878 -0.19157,-0.07872 -0.28479,-0.124156 -0.0972,-0.04466 -0.19586,-0.08693 -0.28505,-0.14673 -0.0896,-0.05379 -0.1802,-0.107344 -0.27975,-0.140927 -0.0945,-0.03421 -0.18745,-0.07256 -0.28393,-0.101132 -0.0938,-0.03638 -0.1873,-0.07053 -0.28432,-0.09731 -0.10363,-0.04185 -0.20487,-0.08747 -0.29263,-0.158374 -0.094,-0.06326 -0.18443,-0.131376 -0.27828,-0.194821 -0.0929,-0.06822 -0.18186,-0.142308 -0.28223,-0.199715 -0.0998,-0.06286 -0.19371,-0.13434 -0.29536,-0.194215 -0.11015,-0.06887 -0.21502,-0.145341 -0.31878,-0.223422 -0.1051,-0.07219 -0.21192,-0.142168 -0.32014,-0.209539 -0.14934,-0.07211 -0.30821,-0.122709 -0.46673,-0.170522 0,0 0.58047,-0.393848 0.58047,-0.393848 z"
           inkscape:connector-curvature="0"
           style="stroke-width:0.26458332" />
        <path
           id="path440"
           sodipodi:type="arc"
           sodipodi:cx="120.55078"
           sodipodi:cy="77.159599"
           sodipodi:rx="1.6300223"
           sodipodi:ry="1.4646577"
           sodipodi:start="0"
           sodipodi:end="6.2356949"
           d="m 122.1808,77.159599 a 1.6300223,1.4646577 0 0 1 -1.61067,1.464555 1.6300223,1.4646577 0 0 1 -1.64891,-1.429779 1.6300223,1.4646577 0 0 1 1.57152,-1.498504 1.6300223,1.4646577 0 0 1 1.68623,1.394197 l -1.62819,0.06953 z"
           style="stroke-width:0.26458332" />
      </g>
      <path
         style="stroke-width:0.26458332"
         inkscape:connector-curvature="0"
         d="m 121.35088,100.15681 c 0.33109,0.37653 0.59072,0.80737 0.916,1.1882 0.25645,0.28499 0.46056,0.61178 0.72247,0.89151 0.24066,0.2598 0.44502,0.54926 0.66978,0.82244 0.25435,0.32068 0.51866,0.62986 0.79512,0.93141 0.25043,0.28797 0.5271,0.5522 0.77411,0.84291 0.19423,0.24774 0.40738,0.48402 0.57001,0.75434 0.17284,0.24083 0.37998,0.45403 0.56927,0.68148 0.18691,0.20345 0.3777,0.39077 0.53427,0.6203 0.13834,0.27191 0.31573,0.51653 0.51081,0.74976 0.24144,0.2673 0.48211,0.53836 0.75561,0.77344 0.23719,0.18232 0.50964,0.29847 0.78718,0.40351 0.24668,0.13309 0.51395,0.19569 0.78987,0.22707 0.27177,0.009 0.53586,0.0208 0.803,0.0711 0.26209,0.051 0.5287,0.0662 0.79494,0.0752 0.26509,0.0619 0.5334,0.1014 0.80458,0.12233 0.26522,0.0163 0.53108,0.0163 0.79669,0.0168 0.26715,1e-5 0.53429,-5.3e-4 0.80143,-7.9e-4 0.26729,-2.5e-4 0.53458,-2.6e-4 0.80187,-2.6e-4 0.26727,-2e-5 0.53455,-1e-5 0.80182,-1e-5 0.26727,0 0.53454,0 0.80181,0 0.26727,0 0.53454,0 0.80181,0 0.27481,-0.0204 0.54013,0.0549 0.8103,0.0925 0.27284,0.0127 0.53381,0.0923 0.80289,0.13344 0.26292,0.035 0.52851,0.0387 0.79332,0.0417 0.26687,0.002 0.53376,5.3e-4 0.80063,2.3e-4 0.26729,-5.3e-4 0.53459,-5.3e-4 0.80188,-5.3e-4 0.26727,-6e-5 0.53455,-5e-5 0.80183,-5e-5 0.26727,10e-6 0.53454,10e-6 0.80181,10e-6 0.26726,0 0.53454,0 0.80181,0 0.0445,0 0.0891,0 0.13363,0 0,0 -1.60712,1.16764 -1.60712,1.16764 v 0 c -0.0445,0 -0.0891,0 -0.13363,0 -0.26727,0 -0.53454,0 -0.80181,0 -0.26727,0 -0.53454,-1e-5 -0.80181,-1e-5 -0.26726,0 -0.53452,0 -0.80178,1.1e-4 -0.26725,1.3e-4 -0.5345,2.6e-4 -0.80175,7.9e-4 -0.26766,2.6e-4 -0.53535,0.001 -0.80298,-0.003 -0.27104,-0.007 -0.54277,-0.0184 -0.81029,-0.066 -0.26622,-0.0493 -0.53029,-0.10754 -0.80073,-0.13028 -0.2634,-0.042 -0.52501,-0.0879 -0.79332,-0.0684 -0.26727,0 -0.53454,0 -0.80181,0 -0.26727,0 -0.53454,0 -0.80181,0 -0.26726,-1e-5 -0.53453,-1e-5 -0.8018,3e-5 -0.26725,5e-5 -0.5345,1.5e-4 -0.80175,5.3e-4 -0.26739,2.6e-4 -0.53479,10e-4 -0.80218,-1.9e-4 -0.26917,-0.002 -0.53877,-0.005 -0.80693,-0.0312 -0.26789,-0.0298 -0.5312,-0.0865 -0.79903,-0.11447 -0.27133,-0.0156 -0.54152,-0.0434 -0.80866,-0.0949 -0.26571,-0.0391 -0.5349,-0.0267 -0.80065,-0.0677 -0.28432,-0.0506 -0.55484,-0.13999 -0.81519,-0.26609 -0.29168,-0.12233 -0.57836,-0.25475 -0.82049,-0.46348 -0.27363,-0.24945 -0.52638,-0.52128 -0.77174,-0.79838 -0.19851,-0.23804 -0.38252,-0.48635 -0.52458,-0.76306 -0.15443,-0.22237 -0.34873,-0.40041 -0.52448,-0.6051 -0.19572,-0.23555 -0.40777,-0.45818 -0.58622,-0.70746 -0.15454,-0.26188 -0.36014,-0.4906 -0.5475,-0.72902 -0.24592,-0.28826 -0.51986,-0.55167 -0.7672,-0.83895 -0.27776,-0.30493 -0.5432,-0.61818 -0.80245,-0.93913 -0.22228,-0.27082 -0.42972,-0.55365 -0.66548,-0.81323 -0.25601,-0.28809 -0.47214,-0.60826 -0.72117,-0.90244 -0.31583,-0.38757 -0.57704,-0.81821 -0.92431,-1.18005 0,0 1.7001,-1.02396 1.7001,-1.02396 z"
         id="path442" />
    </g>
  </g>
</svg>
