<?xml version="1.0" encoding="UTF-8" standalone="no"?>
<!-- Created with Inkscape (http://www.inkscape.org/) -->

<svg
   xmlns:dc="http://purl.org/dc/elements/1.1/"
   xmlns:cc="http://creativecommons.org/ns#"
   xmlns:rdf="http://www.w3.org/1999/02/22-rdf-syntax-ns#"
   xmlns:svg="http://www.w3.org/2000/svg"
   xmlns="http://www.w3.org/2000/svg"
   xmlns:sodipodi="http://sodipodi.sourceforge.net/DTD/sodipodi-0.dtd"
   xmlns:inkscape="http://www.inkscape.org/namespaces/inkscape"
   width="210mm"
   height="297mm"
   viewBox="0 0 210 297"
   version="1.1"
   id="svg56"
   inkscape:version="0.92.4 (5da689c313, 2019-01-14)"
   sodipodi:docname="Animals Non-Logriftican Life.svg">
  <defs
     id="defs50" />
  <sodipodi:namedview
     id="base"
     pagecolor="#ffffff"
     bordercolor="#666666"
     borderopacity="1.0"
     inkscape:pageopacity="0.0"
     inkscape:pageshadow="2"
     inkscape:zoom="1.4"
     inkscape:cx="295.22366"
     inkscape:cy="908.31962"
     inkscape:document-units="mm"
     inkscape:current-layer="layer1"
     showgrid="false"
     inkscape:window-width="1920"
     inkscape:window-height="1001"
     inkscape:window-x="-9"
     inkscape:window-y="-9"
     inkscape:window-maximized="1" />
  <metadata
     id="metadata53">
    <rdf:RDF>
      <cc:Work
         rdf:about="">
        <dc:format>image/svg+xml</dc:format>
        <dc:type
           rdf:resource="http://purl.org/dc/dcmitype/StillImage" />
        <dc:title></dc:title>
      </cc:Work>
    </rdf:RDF>
  </metadata>
  <g
     inkscape:label="Layer 1"
     inkscape:groupmode="layer"
     id="layer1">
    <text
       xml:space="preserve"
       style="font-style:normal;font-weight:normal;font-size:10.58333302px;line-height:1.25;font-family:sans-serif;letter-spacing:0px;word-spacing:0px;fill:#000000;fill-opacity:1;stroke:none;stroke-width:0.26458332"
       x="6.4255948"
       y="9.7380953"
       id="text60"><tspan
         sodipodi:role="line"
         x="6.4255948"
         y="9.7380953"
         style="stroke-width:0.26458332"
         id="tspan62">Animal/Non-Logriftican life</tspan><tspan
         sodipodi:role="line"
         x="6.4255948"
         y="22.967262"
         style="stroke-width:0.26458332"
         id="tspan70">Flexable Base</tspan><tspan
         sodipodi:role="line"
         x="6.4255948"
         y="36.196426"
         style="stroke-width:0.26458332"
         id="tspan72">Root Word: Human</tspan></text>
    <path
       id="path66"
       d="m 65.247805,53.689403 c -0.627407,0.311867 -1.245732,0.641498 -1.873448,0.952672 -0.480293,0.267184 -0.985706,0.482618 -1.485361,0.709702 -0.394062,0.188616 -0.750922,0.440772 -1.121492,0.669888 -0.385926,0.222565 -0.762743,0.457258 -1.160356,0.658646 -0.378979,0.181943 -0.759923,0.359746 -1.13728,0.545042 -0.378833,0.184737 -0.75687,0.371205 -1.133121,0.561157 -0.402986,0.174665 -0.762116,0.425572 -1.126228,0.667258 -0.372207,0.23998 -0.766757,0.440365 -1.132337,0.690531 -0.385945,0.292237 -0.744863,0.619662 -1.101352,0.946772 -0.333724,0.280535 -0.667755,0.559805 -0.989446,0.854244 -0.433274,0.400214 -0.849212,0.818679 -1.266357,1.23553 -0.315161,0.316354 -0.659812,0.594548 -1.012917,0.866031 -0.329518,0.221044 -0.629608,0.479674 -0.939763,0.725895 -0.389097,0.28312 -0.751795,0.598657 -1.105289,0.924423 -0.381212,0.317807 -0.766895,0.62924 -1.13628,0.960972 -0.356605,0.355745 -0.751406,0.66766 -1.136443,0.991139 -0.375383,0.292608 -0.737336,0.602163 -1.115005,0.891884 -0.340841,0.251093 -0.695939,0.482164 -1.039053,0.730235 -0.354896,0.241924 -0.705506,0.489682 -1.072563,0.713041 -0.406524,0.213249 -0.805862,0.437629 -1.196586,0.678524 -0.371678,0.222094 -0.750826,0.431792 -1.135851,0.62978 -0.400018,0.229235 -0.817054,0.427196 -1.2329,0.625708 -0.407,0.184491 -0.797158,0.399068 -1.17842,0.631481 -0.431397,0.308808 -0.869428,0.603482 -1.342559,0.844304 -0.42078,0.214132 -0.85812,0.394099 -1.272011,0.621543 -0.436824,0.21894 -0.875749,0.43076 -1.303549,0.666975 -0.436173,0.2017 -0.887142,0.368353 -1.327237,0.561139 -0.409472,0.183176 -0.812157,0.379838 -1.223828,0.558141 -0.445021,0.195696 -0.894326,0.380828 -1.343078,0.567682 -0.424137,0.1719 -0.842986,0.353613 -1.229275,0.600186 -0.362498,0.25732 -0.749683,0.468167 -1.151522,0.65614 -0.376994,0.152736 -0.763958,0.280874 -1.124691,0.470202 -0.0977,0.09309 -0.322379,0.138401 -0.387683,0.273613 -0.0042,0.0088 0.110389,0.01958 0.203515,0.06259 0.943811,0.393504 0.03399,0.0209 -2.134486,-1.266823 -0.04842,-0.02875 0.102068,0.04781 0.154598,0.06809 0.177985,0.06872 0.363142,0.124682 0.545387,0.180782 0.388245,0.117425 0.776347,0.235259 1.157948,0.373041 0.364585,0.15661 0.746683,0.266354 1.126021,0.380646 0.375685,0.08972 0.744032,0.204345 1.124109,0.274666 0.370798,0.06005 0.74704,0.0672 1.121764,0.07268 0.377664,0.0031 0.755344,0.0016 1.133012,7.94e-4 0.386554,-0.01585 0.766866,0.0026 1.14811,0.06578 0.370615,0.06925 0.746445,0.09655 1.122523,0.1122 0.476422,0.01421 0.953204,0.0141 1.429806,0.01431 0.500311,-0.0011 1.000622,-0.0013 1.500934,-0.0024 0.447066,0.02122 0.8929,0.09243 1.33079,0.183968 0.399638,0.09686 0.806794,0.147658 1.216388,0.174892 0.389099,0.02307 0.778975,0.01027 1.168043,0.03062 0.475054,0.06335 0.950822,0.117443 1.429067,0.149169 0.476546,5.29e-4 0.943941,0.06592 1.407589,0.171596 0.467082,0.127341 0.944729,0.186996 1.426657,0.215818 0.521078,0.02246 1.041535,0.008 1.5607,0.06236 0.483002,0.06793 0.96887,0.10646 1.455891,0.128548 0.443926,-0.0094 0.880856,0.05713 1.319056,0.116877 0.407565,0.02772 0.806215,0.107079 1.207045,0.180382 0.399762,0.07137 0.806001,0.08489 1.210977,0.09364 0.503478,-0.0356 0.985401,0.07152 1.471973,0.182552 0.546631,0.139118 1.094258,0.266692 1.654582,0.334624 0.482772,0.02294 0.959903,0.0916 1.438309,0.155948 0.410806,0.03441 0.809779,0.139978 1.215872,0.204925 0.372255,0.05421 0.748797,0.06265 1.124275,0.06846 0.377238,0.0036 0.754502,0.0021 1.131753,0.0016 0.469217,-0.02291 0.933151,0.04554 1.397346,0.101746 0.465662,0.08303 0.924261,0.185187 1.395783,0.231772 0.44872,0.03731 0.899174,0.04254 1.349166,0.04527 0.393467,-0.02622 0.777957,0.03442 1.164511,0.09611 0.370758,0.0597 0.746109,0.07622 1.120883,0.08628 0.377212,0.0073 0.754518,0.0062 1.131779,0.0058 0.378,-5.3e-4 0.755997,-7.94e-4 1.133997,-0.0011 0.377989,-1.43e-4 0.755975,-1.45e-4 1.133964,-1.53e-4 0.251987,0 0.125992,0 0.377979,0 0,0 2.272802,1.651291 2.272802,1.651291 v 0 c -0.252008,-3e-6 -0.125968,-3e-6 -0.377976,-3e-6 -0.377968,-2e-6 -0.755935,-1e-5 -1.133906,6.9e-5 -0.377957,1.06e-4 -0.755917,2.65e-4 -1.133877,7.94e-4 -0.378391,5.29e-4 -0.756796,0.0019 -1.135182,-0.0011 -0.381288,-0.0048 -0.763413,-0.0114 -1.142399,-0.05766 -0.381288,-0.05219 -0.754303,-0.159932 -1.142108,-0.129339 -0.456211,-0.0013 -0.912681,-0.0044 -1.368224,-0.03187 -0.473882,-0.03241 -0.942893,-0.0838 -1.399567,-0.222877 -0.456708,-0.05191 -0.910741,-0.145875 -1.371904,-0.124259 -0.377889,5.29e-4 -0.755774,0.0019 -1.133663,0.0011 -0.38222,-0.0019 -0.76517,-0.0035 -1.145987,-0.04027 -0.41152,-0.04782 -0.808874,-0.157194 -1.218033,-0.209971 -0.479645,-0.05808 -0.95358,-0.157543 -1.438135,-0.163565 -0.568039,-0.05096 -1.126908,-0.151088 -1.674953,-0.312418 -0.47648,-0.09649 -0.938371,-0.267729 -1.432335,-0.221511 -0.411427,-0.0043 -0.824275,-0.0039 -1.232953,-0.05815 -0.403251,-0.06004 -0.794533,-0.177514 -1.203859,-0.190468 -0.43483,-0.05324 -0.864397,-0.15208 -1.30447,-0.137155 -0.492302,-0.01669 -0.985224,-0.04325 -1.473221,-0.113379 -0.515541,-0.07032 -1.028518,-0.07987 -1.548966,-0.07863 -0.49044,-0.01807 -0.981298,-0.04268 -1.457518,-0.173697 -0.451991,-0.113186 -0.90382,-0.223927 -1.373889,-0.208116 -0.480634,-0.02429 -0.95999,-0.067 -1.436206,-0.137821 -0.382127,-0.06333 -0.771012,-0.01953 -1.157145,-0.04133 -0.418777,-0.01606 -0.837885,-0.04666 -1.247494,-0.141094 -0.428951,-0.09776 -0.859989,-0.165696 -1.295175,-0.232765 -0.501634,-7.94e-4 -1.003266,-1.59e-4 -1.5049,-5.29e-4 -0.47544,5.29e-4 -0.950883,0.0041 -1.426316,-5.29e-4 -0.382791,-0.0084 -0.766551,-0.02143 -1.145333,-0.08202 -0.373753,-0.0635 -0.736997,-0.142012 -1.119751,-0.10355 -0.378278,5.3e-4 -0.756558,0.0019 -1.134838,0.0019 -0.382214,-0.0016 -0.765289,-0.0021 -1.145992,-0.04039 -0.391147,-0.04869 -0.763395,-0.154917 -1.143754,-0.249846 -0.388994,-0.09485 -0.770692,-0.222994 -1.14826,-0.354235 -0.366964,-0.168998 -0.75682,-0.262073 -1.135536,-0.399495 -1.239248,-0.293343 -2.480236,-0.908259 -3.395035,-1.775491 -0.203905,-0.380146 0.121941,-0.609635 0.432143,-0.77909 0.349607,-0.225785 0.750184,-0.357208 1.140531,-0.497406 0.396668,-0.168423 0.776005,-0.366482 1.129086,-0.614963 0.390869,-0.269624 0.815065,-0.473165 1.258856,-0.641614 0.443518,-0.195612 0.897514,-0.368131 1.340334,-0.565494 0.40767,-0.184632 0.814509,-0.368856 1.220742,-0.556811 0.429938,-0.202755 0.877269,-0.364953 1.317244,-0.544266 0.429374,-0.22864 0.853964,-0.46377 1.299155,-0.661784 0.411787,-0.245933 0.857499,-0.421124 1.285875,-0.635254 0.472898,-0.219252 0.907428,-0.504836 1.323993,-0.817393 0.38008,-0.254947 0.781958,-0.471197 1.196052,-0.665583 0.418322,-0.187365 0.833453,-0.388512 1.230188,-0.617488 0.382021,-0.184975 0.744958,-0.405913 1.117111,-0.609385 0.38936,-0.248714 0.79371,-0.469686 1.202182,-0.685229 0.367172,-0.206211 0.702024,-0.459533 1.054793,-0.688493 0.338166,-0.256323 0.698838,-0.478975 1.043008,-0.726308 0.380969,-0.276923 0.726356,-0.59948 1.106633,-0.877252 0.380834,-0.324096 0.78091,-0.62543 1.132364,-0.982634 0.366136,-0.33366 0.744445,-0.652512 1.134661,-0.957762 0.356438,-0.333217 0.719423,-0.660379 1.114178,-0.948293 0.315103,-0.237834 0.596509,-0.519756 0.934871,-0.727247 0.340503,-0.271193 0.699426,-0.518446 1.007579,-0.829919 0.42016,-0.417883 0.840962,-0.835136 1.265941,-1.248127 0.318608,-0.297616 0.644157,-0.587391 0.988171,-0.855646 0.363646,-0.336304 0.738007,-0.663332 1.121296,-0.977265 0.361064,-0.262234 0.751414,-0.470742 1.135515,-0.69646 0.368673,-0.249598 0.730819,-0.517054 1.141513,-0.694458 0.372295,-0.199165 0.75537,-0.378081 1.134512,-0.563512 0.372213,-0.195082 0.756476,-0.366773 1.137164,-0.544303 0.390577,-0.201213 0.770233,-0.413975 1.148632,-0.637673 0.377929,-0.237849 0.745411,-0.49004 1.140855,-0.698134 0.496292,-0.236308 1.016968,-0.420918 1.494718,-0.696212 0.626004,-0.306027 1.249236,-0.620125 1.85642,-0.961816 0,0 2.345407,1.543196 2.345407,1.543196 z"
       inkscape:connector-curvature="0"
       style="stroke-width:0.26458332" />
    <path
       id="path68"
       sodipodi:type="arc"
       sodipodi:cx="45.357143"
       sodipodi:cy="97.050591"
       sodipodi:rx="4.9136906"
       sodipodi:ry="4.7247024"
       sodipodi:start="0"
       sodipodi:end="6.2356949"
       d="m 50.270834,97.050591 a 4.9136906,4.7247024 0 0 1 -4.855354,4.724369 4.9136906,4.7247024 0 0 1 -4.970642,-4.612191 4.9136906,4.7247024 0 0 1 4.737328,-4.833884 4.9136906,4.7247024 0 0 1 5.083128,4.497412 l -4.908151,0.224294 z"
       style="stroke-width:0.26458332" />
  </g>
</svg>
