<?xml version="1.0" encoding="UTF-8" standalone="no"?>
<!-- Created with Inkscape (http://www.inkscape.org/) -->

<svg
   xmlns:dc="http://purl.org/dc/elements/1.1/"
   xmlns:cc="http://creativecommons.org/ns#"
   xmlns:rdf="http://www.w3.org/1999/02/22-rdf-syntax-ns#"
   xmlns:svg="http://www.w3.org/2000/svg"
   xmlns="http://www.w3.org/2000/svg"
   xmlns:sodipodi="http://sodipodi.sourceforge.net/DTD/sodipodi-0.dtd"
   xmlns:inkscape="http://www.inkscape.org/namespaces/inkscape"
   width="210mm"
   height="297mm"
   viewBox="0 0 210 297"
   version="1.1"
   id="svg287"
   inkscape:version="0.92.4 (5da689c313, 2019-01-14)"
   sodipodi:docname="Appears Looks Assumed.svg">
  <defs
     id="defs281" />
  <sodipodi:namedview
     id="base"
     pagecolor="#ffffff"
     bordercolor="#666666"
     borderopacity="1.0"
     inkscape:pageopacity="0.0"
     inkscape:pageshadow="2"
     inkscape:zoom="1.4"
     inkscape:cx="307.83448"
     inkscape:cy="894.81486"
     inkscape:document-units="mm"
     inkscape:current-layer="layer1"
     showgrid="false"
     inkscape:window-width="1920"
     inkscape:window-height="1001"
     inkscape:window-x="-9"
     inkscape:window-y="-9"
     inkscape:window-maximized="1" />
  <metadata
     id="metadata284">
    <rdf:RDF>
      <cc:Work
         rdf:about="">
        <dc:format>image/svg+xml</dc:format>
        <dc:type
           rdf:resource="http://purl.org/dc/dcmitype/StillImage" />
        <dc:title></dc:title>
      </cc:Work>
    </rdf:RDF>
  </metadata>
  <g
     inkscape:label="Layer 1"
     inkscape:groupmode="layer"
     id="layer1">
    <text
       xml:space="preserve"
       style="font-style:normal;font-weight:normal;font-size:10.58333302px;line-height:1.25;font-family:sans-serif;letter-spacing:0px;word-spacing:0px;fill:#000000;fill-opacity:1;stroke:none;stroke-width:0.26458332"
       x="10.690781"
       y="9.952527"
       id="text291"><tspan
         sodipodi:role="line"
         id="tspan289"
         x="10.690781"
         y="9.952527"
         style="stroke-width:0.26458332">Appears/looks/Assumed</tspan><tspan
         sodipodi:role="line"
         x="10.690781"
         y="23.181694"
         style="stroke-width:0.26458332"
         id="tspan293">Flexable Base</tspan><tspan
         sodipodi:role="line"
         x="10.690781"
         y="36.410858"
         style="stroke-width:0.26458332"
         id="tspan295">Root Word: Appears</tspan></text>
    <path
       id="path313"
       d="m 23.258319,74.113916 c 0.625726,0.0093 1.251562,0.005 1.877327,0.0027 0.611686,-0.0033 1.22335,0.0039 1.835042,0.004 0.613698,7.94e-4 1.227392,-0.0029 1.841085,-0.0052 0.402899,-0.0016 0.805801,-0.0019 1.208706,-0.0021 0.383815,1.4e-4 0.767633,-7.94e-4 1.151448,7.94e-4 0.54246,0.0027 1.08493,0.0024 1.627394,0.0036 0.54764,-5.29e-4 1.095277,-7.94e-4 1.642915,-0.0024 0.414107,-0.0013 0.828214,-0.0019 1.242324,-0.0021 0.471829,-7.94e-4 0.943652,0.0026 1.415479,0.0043 0.586443,5.3e-4 1.172887,-1.87e-4 1.759331,-0.0011 0.45049,-0.0011 0.90098,-0.0024 1.35147,-0.003 0.487291,0.0032 0.97459,0.0011 1.461884,0.0021 0.453482,-8e-6 0.906965,-0.0013 1.36045,-0.0019 0.385384,-5.29e-4 0.770769,-5.29e-4 1.156153,-5.29e-4 0.377266,-3.2e-5 0.75453,-1.6e-5 1.131795,-10e-6 0.377817,5e-6 0.755631,7e-6 1.133448,7e-6 0.377976,3e-6 0.755954,3e-6 1.13393,0 0.416441,7.7e-5 0.832874,0.0013 1.249315,0.0011 0.430853,-0.0013 0.8617,5.29e-4 1.292553,2.64e-4 0.449456,-5.29e-4 0.898911,5.3e-4 1.34837,-5.8e-5 0.40382,-5.29e-4 0.80764,-0.0011 1.211461,-0.0013 0.3972,-7.93e-4 0.794395,5.29e-4 1.191593,0.0011 0.436705,-5.3e-4 0.873408,1.5e-5 1.310111,2.64e-4 0.468953,7.94e-4 0.937905,5.29e-4 1.406861,-2.64e-4 0.43729,-7.94e-4 0.874577,2.64e-4 1.31187,-7.4e-5 0.40163,-5.3e-4 0.803259,-7.94e-4 1.204889,-0.0011 0.378745,-1.4e-4 0.757491,-1.4e-4 1.136237,-1.43e-4 0.377656,0 0.755309,3e-6 1.132964,6e-6 1.249365,-0.01601 1.426467,0.464851 2.942707,1.561253 0.01545,0.01117 -0.09489,0.328472 -0.102439,0.351036 -0.163465,0.398013 -0.391544,0.746614 -0.684758,1.059495 -0.306326,0.316346 -0.590351,0.640699 -0.947674,0.901118 -0.293634,0.232833 -0.598368,0.4534 -0.886946,0.69293 -0.343964,0.273849 -0.703972,0.526373 -1.053915,0.792345 -0.42494,0.312129 -0.81008,0.671248 -1.213729,1.009288 -0.360174,0.291176 -0.769067,0.509989 -1.147328,0.775115 -0.354592,0.309002 -0.742103,0.56706 -1.135999,0.821717 -0.404606,0.27329 -0.775483,0.590928 -1.155573,0.89631 -0.395169,0.290026 -0.804551,0.559805 -1.199642,0.849926 -0.460402,0.336175 -0.815137,0.787771 -1.217528,1.186522 -0.304858,0.328575 -0.654153,0.610978 -0.986803,0.910243 -0.375029,0.341754 -0.736023,0.698439 -1.096603,1.055269 -0.428638,0.385411 -0.888024,0.73252 -1.260631,1.174772 -0.32372,0.384974 -0.661498,0.759682 -1.032253,1.099947 -0.331365,0.290456 -0.654855,0.588801 -1.001731,0.861168 -0.463397,0.326874 -0.86654,0.7239 -1.279285,1.110022 -0.464282,0.404588 -0.863906,0.872369 -1.270979,1.332267 -0.344283,0.40463 -0.758322,0.740458 -1.153043,1.093481 -0.332531,0.296775 -0.66213,0.598585 -1.025356,0.857856 -0.350935,0.242604 -0.715811,0.46351 -1.059391,0.7166 0,0 -2.369802,-1.497952 -2.369802,-1.497952 v 0 c 0.341397,-0.263443 0.707181,-0.487812 1.06258,-0.731155 0.366342,-0.235029 0.684932,-0.536519 1.012005,-0.821518 0.386289,-0.347906 0.797314,-0.672573 1.141767,-1.063379 0.414483,-0.464502 0.815247,-0.943128 1.286301,-1.352788 0.417208,-0.39167 0.815488,-0.803881 1.283597,-1.136938 0.343693,-0.267007 0.662387,-0.562777 0.99206,-0.845989 0.371637,-0.320019 0.691108,-0.695495 1.016569,-1.06126 0.375169,-0.452001 0.827289,-0.816898 1.271532,-1.198719 0.362455,-0.360045 0.724972,-0.720219 1.099227,-1.068072 0.32824,-0.300869 0.675865,-0.581083 0.986777,-0.899941 0.421034,-0.39678 0.772697,-0.866642 1.236771,-1.217035 0.388448,-0.292802 0.788106,-0.570527 1.190345,-0.843963 0.387373,-0.309457 0.766294,-0.628994 1.168413,-0.919475 0.387199,-0.25823 0.79135,-0.486754 1.130435,-0.811289 0.368448,-0.271169 0.769498,-0.487537 1.139153,-0.756825 0.408834,-0.337907 0.79449,-0.700971 1.220573,-1.017394 0.341812,-0.266838 0.690755,-0.524206 1.035973,-0.7865 0.288131,-0.253797 0.612106,-0.46154 0.903309,-0.711941 0.350541,-0.24456 0.631944,-0.541142 0.921221,-0.854864 0.26783,-0.275931 0.476652,-0.582305 0.608235,-0.947086 0.200794,-0.916035 -2.75295,-1.667555 2.337966,1.215654 0.03658,0.02072 -0.05094,-0.07061 -0.08812,-0.09023 -0.1021,-0.05388 -0.237879,-0.03873 -0.345176,-0.03873 -0.37765,0 -0.755298,5e-6 -1.132945,5e-6 -0.378878,-2e-6 -0.757756,-2e-6 -1.136632,-1.43e-4 -0.402611,-1.82e-4 -0.805222,-5.29e-4 -1.207833,-0.0011 -0.437362,-5.29e-4 -0.874718,7.94e-4 -1.312077,-7.4e-5 -0.469241,-7.94e-4 -0.938482,-0.0011 -1.407726,-2.65e-4 -0.436367,2.65e-4 -0.872731,0.0011 -1.309098,2.65e-4 -0.396203,5.29e-4 -0.792406,0.0019 -1.188611,0.0011 -0.404929,-2.01e-4 -0.809858,-5.29e-4 -1.214787,-0.0013 -0.449511,-5.29e-4 -0.89902,5.3e-4 -1.348531,-5.8e-5 -0.430588,-1.27e-4 -0.861171,0.0016 -1.291759,2.65e-4 -0.415415,-2.65e-4 -0.830821,0.0011 -1.246235,0.0011 -0.377976,0 -0.755952,0 -1.133928,3e-6 -0.377809,0 -0.755615,2e-6 -1.133422,8e-6 -0.377274,5e-6 -0.754549,2.1e-5 -1.131826,-1.1e-5 -0.385967,-5.3e-5 -0.771936,-1.32e-4 -1.157902,-5.29e-4 -0.455186,-5.29e-4 -0.91037,-0.0019 -1.365557,-0.0019 -0.485425,7.94e-4 -0.970851,-0.0011 -1.456272,0.0021 -0.453202,-5.29e-4 -0.906401,-0.0019 -1.359601,-0.003 -0.587433,-7.94e-4 -1.174866,-0.0016 -1.762302,-0.0011 -0.467844,0.0019 -0.935686,0.0053 -1.403535,0.0043 -0.415997,-2.65e-4 -0.83199,-7.94e-4 -1.247987,-0.0021 -0.549714,-0.0013 -1.099431,-0.0019 -1.649148,-0.0024 -0.539157,0.0013 -1.07832,7.94e-4 -1.617474,0.0036 -0.383035,0.0016 -0.766075,7.94e-4 -1.149112,7.94e-4 -0.404781,-1.85e-4 -0.809564,-5.29e-4 -1.214342,-0.0021 -0.618488,-0.0024 -1.236975,-0.006 -1.855468,-0.0052 -0.60801,1.56e-4 -1.215988,0.0073 -1.823992,0.004 -0.623285,-0.0024 -1.246645,-0.0067 -1.86989,0.0027 0,0 -2.271226,-1.650143 -2.271226,-1.650143 z"
       inkscape:connector-curvature="0"
       style="stroke-width:0.26458332" />
    <path
       id="path315"
       d="m 15.887784,96.036534 c 0.625726,0.0093 1.251561,0.005 1.877326,0.0027 0.430185,-0.0019 0.860372,-0.0026 1.290561,-0.0031 0.377406,-2.64e-4 0.754812,-2.46e-4 1.132219,-2.38e-4 0.377124,1.6e-5 0.754249,2.7e-5 1.131373,3.4e-5 0.377931,6e-6 0.755862,6e-6 1.133794,6e-6 0.377986,0 0.755973,0 1.13396,0 0.377977,0 0.755955,0 1.133932,0 0.377977,0 0.755953,0 1.133929,0 0.377976,0 0.755953,0 1.133929,0 0.383815,0.01675 0.760193,0.101404 1.141769,0.144145 0.384866,0.0098 0.760908,0.07744 1.139077,0.142131 0.370996,0.06232 0.747138,0.07795 1.122484,0.08766 0.38304,0.02365 0.758716,0.107034 1.140121,0.149368 0.374396,0.03638 0.750821,0.0406 1.126651,0.04391 0.377791,0.0019 0.755587,7.94e-4 1.133378,5.29e-4 0.315005,-2.65e-4 0.630007,-5.29e-4 0.945012,-5.29e-4 0,0 2.272842,1.651233 2.272842,1.651233 v 0 c -0.314955,5.3e-5 -0.629912,1.27e-4 -0.944869,5.29e-4 -0.378161,2.64e-4 -0.75632,0.0011 -1.134481,0.0011 -0.380476,-7.94e-4 -0.761275,-0.0013 -1.141203,-0.02426 -0.379701,-0.02853 -0.756658,-0.07843 -1.127739,-0.166031 -0.38227,-0.0044 -0.765445,-0.0104 -1.145373,-0.05723 -0.377706,-0.05295 -0.74508,-0.161684 -1.128779,-0.15562 -0.379076,-0.02904 -0.755182,-0.07994 -1.126088,-0.165328 -0.377976,0 -0.755951,0 -1.133927,0 -0.377976,0 -0.755952,0 -1.13393,0 -0.377976,0 -0.755954,0 -1.133932,0 -0.377987,0 -0.755973,0 -1.13396,0 -0.377926,0 -0.755852,0 -1.133778,6e-6 -0.377094,5e-6 -0.754188,1.8e-5 -1.131282,3.1e-5 -0.377624,8e-6 -0.755248,4e-5 -1.132871,-2.35e-4 -0.433011,-5.29e-4 -0.866022,-0.0013 -1.29903,-0.0031 -0.623285,-0.0024 -1.246645,-0.0067 -1.86989,0.0027 0,0 -2.271225,-1.650142 -2.271225,-1.650142 z"
       inkscape:connector-curvature="0"
       style="stroke-width:0.26458332" />
    <path
       id="path319"
       d="m 44.052767,98.216743 c 0.353193,0.5873 0.790078,1.112543 1.223232,1.640718 0.294363,0.376679 0.669272,0.673259 1.053987,0.951089 0.317444,0.24749 0.65247,0.46155 1.001527,0.65988 0.362942,0.24908 0.719182,0.50984 1.068755,0.77796 0.387943,0.25177 0.751771,0.53655 1.128406,0.8044 0.356044,0.33688 0.746979,0.63019 1.15416,0.90158 0.457562,0.20275 0.821632,0.53026 1.203216,0.842 0.359273,0.23049 0.701279,0.48486 1.052309,0.72733 0.407985,0.28895 0.773647,0.63098 1.135031,0.97488 0.414078,0.3933 0.796335,0.81842 1.171718,1.24853 0.315754,0.38241 0.707075,0.69162 1.09761,0.99327 0.294834,0.27088 0.586045,0.54383 0.89303,0.80094 0.326827,0.26131 0.585647,0.58892 0.8904,0.8738 0.368652,0.34915 0.737909,0.69736 1.131818,1.01795 0.363572,0.33291 0.773629,0.60978 1.133092,0.94643 0.348956,0.33155 0.750001,0.60033 1.107829,0.92075 0.358256,0.2554 0.653264,0.58077 0.970907,0.88245 0.414562,0.38901 0.823193,0.78424 1.228939,1.18242 0.325678,0.33438 0.702773,0.61486 1.087969,0.87629 0.342559,0.25091 0.675931,0.51786 0.994495,0.79842 0.344525,0.25328 0.662855,0.53843 0.975363,0.82954 0.383812,0.29488 0.752991,0.60685 1.110866,0.93254 0.305255,0.21919 0.548743,0.50744 0.833358,0.75005 0,0 -2.382991,1.4814 -2.382991,1.4814 v 0 c -0.277656,-0.25124 -0.533675,-0.52636 -0.830731,-0.75599 -0.361352,-0.32358 -0.738632,-0.62702 -1.114065,-0.93387 -0.314325,-0.28626 -0.640106,-0.558 -0.974593,-0.8204 -0.316341,-0.27076 -0.639635,-0.53513 -0.981228,-0.77364 -0.386149,-0.28358 -0.77194,-0.57115 -1.102365,-0.92049 -0.404175,-0.39716 -0.810877,-0.79177 -1.225831,-1.17769 -0.318365,-0.29813 -0.628343,-0.60408 -0.975614,-0.86921 -0.362045,-0.31668 -0.750059,-0.6024 -1.10626,-0.92614 -0.366614,-0.32308 -0.756142,-0.61873 -1.126738,-0.93724 -0.388038,-0.33545 -0.765826,-0.68229 -1.142707,-1.03024 -0.298436,-0.28375 -0.556432,-0.60734 -0.885414,-0.85831 -0.302713,-0.25619 -0.583687,-0.53607 -0.881989,-0.79723 -0.397669,-0.31982 -0.799529,-0.63915 -1.119005,-1.04131 -0.36925,-0.42422 -0.750734,-0.83838 -1.160965,-1.2235 -0.353912,-0.33264 -0.713558,-0.66163 -1.116206,-0.9354 -0.358404,-0.24545 -0.711311,-0.49885 -1.066247,-0.74911 -0.36943,-0.31368 -0.748861,-0.59964 -1.183931,-0.81994 -0.407807,-0.2758 -0.789453,-0.58303 -1.160756,-0.90619 -0.378772,-0.26903 -0.746527,-0.55293 -1.132816,-0.81142 -0.34457,-0.25679 -0.687284,-0.51968 -1.054293,-0.74343 -0.356868,-0.20218 -0.683223,-0.44847 -1.014222,-0.68998 -0.400183,-0.29543 -0.77986,-0.62119 -1.084522,-1.01761 -0.428649,-0.53628 -0.849656,-1.07716 -1.23617,-1.645088 0,0 2.411642,-1.431189 2.411642,-1.431189 z"
       inkscape:connector-curvature="0"
       style="stroke-width:0.26458332" />
  </g>
</svg>
