<?xml version="1.0" encoding="UTF-8" standalone="no"?>
<!-- Created with Inkscape (http://www.inkscape.org/) -->

<svg
   xmlns:dc="http://purl.org/dc/elements/1.1/"
   xmlns:cc="http://creativecommons.org/ns#"
   xmlns:rdf="http://www.w3.org/1999/02/22-rdf-syntax-ns#"
   xmlns:svg="http://www.w3.org/2000/svg"
   xmlns="http://www.w3.org/2000/svg"
   xmlns:sodipodi="http://sodipodi.sourceforge.net/DTD/sodipodi-0.dtd"
   xmlns:inkscape="http://www.inkscape.org/namespaces/inkscape"
   width="210mm"
   height="297mm"
   viewBox="0 0 210 297"
   version="1.1"
   id="svg20"
   inkscape:version="0.92.4 (5da689c313, 2019-01-14)"
   sodipodi:docname="Appologies Sorry.svg">
  <defs
     id="defs14" />
  <sodipodi:namedview
     id="base"
     pagecolor="#ffffff"
     bordercolor="#666666"
     borderopacity="1.0"
     inkscape:pageopacity="0.0"
     inkscape:pageshadow="2"
     inkscape:zoom="0.49497475"
     inkscape:cx="821.91031"
     inkscape:cy="791.1555"
     inkscape:document-units="mm"
     inkscape:current-layer="layer1"
     showgrid="false"
     inkscape:window-width="1920"
     inkscape:window-height="1001"
     inkscape:window-x="-9"
     inkscape:window-y="-9"
     inkscape:window-maximized="1" />
  <metadata
     id="metadata17">
    <rdf:RDF>
      <cc:Work
         rdf:about="">
        <dc:format>image/svg+xml</dc:format>
        <dc:type
           rdf:resource="http://purl.org/dc/dcmitype/StillImage" />
        <dc:title></dc:title>
      </cc:Work>
    </rdf:RDF>
  </metadata>
  <g
     inkscape:label="Layer 1"
     inkscape:groupmode="layer"
     id="layer1">
    <text
       xml:space="preserve"
       style="font-style:normal;font-weight:normal;font-size:10.58333302px;line-height:1.25;font-family:sans-serif;letter-spacing:0px;word-spacing:0px;fill:#000000;fill-opacity:1;stroke:none;stroke-width:0.26458332"
       x="7.7485113"
       y="9.3601189"
       id="text24"><tspan
         sodipodi:role="line"
         id="tspan22"
         x="7.7485113"
         y="9.3601189"
         style="stroke-width:0.26458332">Appologies/Sorry</tspan><tspan
         sodipodi:role="line"
         x="7.7485113"
         y="22.589285"
         style="stroke-width:0.26458332"
         id="tspan26">Base symbol</tspan><tspan
         sodipodi:role="line"
         x="7.7485113"
         y="35.818451"
         style="stroke-width:0.26458332"
         id="tspan28">Base word:</tspan></text>
    <g
       id="g117"
       transform="matrix(3.5576276,0,0,3.519673,-72.580595,-215.06033)">
      <path
         style="stroke-width:0.21101357"
         inkscape:connector-curvature="0"
         d="m 28.378093,109.47518 c 0.198999,0.005 0.398032,0.003 0.597043,0.001 0.136811,-7.9e-4 0.273623,-0.001 0.410435,-0.002 0.120026,-1.4e-4 0.240052,-1.3e-4 0.360078,-1.2e-4 0.119936,1e-5 0.239872,1e-5 0.359809,2e-5 0.120192,0 0.240385,0 0.360578,0 0.120211,0 0.240421,0 0.360631,0 0.120208,0 0.240416,0 0.360623,0 0.120208,0 0.240415,0 0.360622,0 0.122924,-0.008 0.243866,0.002 0.36509,0.0334 0.117859,0.0347 0.237384,0.0483 0.356987,0.0561 0.119882,0.006 0.239843,0.006 0.35977,0.006 0.120208,-1.7e-4 0.240416,-5.3e-4 0.360624,-5.3e-4 0.120213,-1e-4 0.240424,-1.1e-4 0.360635,-1.2e-4 0.119177,-0.002 0.238481,0.005 0.357546,-0.004 0.120322,-0.0303 0.240417,-0.0596 0.361912,-0.0755 0.06043,-0.007 0.121018,-0.01 0.181579,-0.0122 0,0 0.723852,0.82339 0.723852,0.82339 v 0 c -0.05969,0.001 -0.1194,0.002 -0.179044,0.007 -0.120709,0.0102 -0.241023,0.0289 -0.359331,0.0697 -0.119819,0.0344 -0.242307,0.0121 -0.363697,0.0181 -0.120202,0 -0.240405,0 -0.360608,6e-5 -0.120206,8e-5 -0.240412,2.2e-4 -0.360618,5.3e-4 -0.120491,2.4e-4 -0.240992,8e-4 -0.361473,-0.002 -0.12174,-0.004 -0.243791,-0.0107 -0.364256,-0.041 -0.118872,-0.0318 -0.23441,-0.0711 -0.356152,-0.0521 -0.120207,0 -0.240414,0 -0.360622,0 -0.120207,0 -0.240415,0 -0.360623,0 -0.12021,0 -0.240421,0 -0.360631,0 -0.120191,0 -0.240382,0 -0.360574,0 -0.119926,0 -0.239853,1e-5 -0.359779,2e-5 -0.120096,0 -0.240191,1e-5 -0.360286,-1.2e-4 -0.137709,-2.1e-4 -0.275419,-5.3e-4 -0.413128,-0.002 -0.198222,-0.001 -0.396468,-0.003 -0.594678,10e-4 0,0 -0.722314,-0.82507 -0.722314,-0.82507 z"
         id="path76" />
      <path
         style="stroke-width:0.26458332"
         inkscape:connector-curvature="0"
         d="m 33.785012,109.55725 c 0.275797,-0.22509 0.535938,-0.46847 0.793578,-0.71387 0.175869,-0.16974 0.379728,-0.30524 0.56864,-0.45907 0.133308,-0.13786 0.284327,-0.25361 0.435915,-0.36998 0.160692,-0.0999 0.288274,-0.23598 0.416649,-0.37275 0.171117,-0.18397 0.346496,-0.3639 0.522685,-0.543 0.185912,-0.16871 0.381193,-0.32647 0.567804,-0.49448 0.176231,-0.15963 0.347371,-0.32482 0.524213,-0.4837 0.149125,-0.13797 0.331401,-0.22992 0.49321,-0.35065 0.155787,-0.11989 0.330393,-0.21076 0.515779,-0.27457 0.199654,-0.0603 0.408829,-0.0642 0.615542,-0.069 0.205404,-0.003 0.41084,-0.002 0.616257,-0.001 0.190185,5.3e-4 0.380368,8e-4 0.570553,8e-4 0.188807,9e-5 0.377613,8e-5 0.56642,8e-5 0.188957,-1e-5 0.377915,-1e-5 0.566872,-1e-5 0.18899,0 0.377979,0 0.566968,0 0.231257,7.9e-4 0.462505,10e-4 0.693764,10e-4 0.267536,7.9e-4 0.535075,7.9e-4 0.802611,5.2e-4 0.22411,-5.2e-4 0.44822,-0.001 0.67233,-0.001 0.204245,-5.3e-4 0.408482,-2e-4 0.612725,8e-4 0.232957,5.2e-4 0.465915,-2.5e-4 0.69887,-5.3e-4 0.2207,7.9e-4 0.441399,2e-4 0.662099,-7e-5 0.24334,10e-4 0.486682,10e-4 0.730022,5.3e-4 0.202946,-5.3e-4 0.405892,-5.3e-4 0.608838,-8e-4 0.189013,-7e-5 0.378029,-7e-5 0.567045,-7e-5 0.188772,0 0.377544,1e-5 0.566314,1e-5 0.188976,0 0.377949,0 0.566922,0 0.188992,0 0.377982,0 0.566973,0 0.188987,0 0.377976,0 0.566965,0 0.188987,0 0.377976,0 0.566966,0 0.188986,0 0.377975,0 0.566962,0 0.188989,0 0.377976,0 0.566965,0 0.09449,0 0.188987,0 0.283482,0 0,0 1.136402,0.82564 1.136402,0.82564 v 0 c -0.09449,0 -0.18899,0 -0.283483,0 -0.188986,0 -0.377976,0 -0.566965,0 -0.188986,0 -0.377976,0 -0.566962,0 -0.188989,0 -0.377976,0 -0.566965,0 -0.188989,0 -0.377976,0 -0.566965,0 -0.188992,0 -0.377981,0 -0.566973,0 -0.188971,0 -0.377944,0 -0.566918,10e-6 -0.188764,0 -0.377528,0 -0.566293,1e-5 -0.189079,0 -0.378158,0 -0.567237,-8e-5 -0.20365,-1e-4 -0.407297,-2.6e-4 -0.610947,-7.9e-4 -0.242914,-5.3e-4 -0.48583,-7.9e-4 -0.728744,5.3e-4 -0.220763,-2.7e-4 -0.441527,-7.9e-4 -0.66229,-7e-5 -0.233529,-2.6e-4 -0.467061,-10e-4 -0.70059,-5.3e-4 -0.203488,0.001 -0.406974,0.001 -0.610465,8e-4 -0.225311,-2.7e-4 -0.450622,-8e-4 -0.675936,-10e-4 -0.267052,-2.2e-4 -0.534107,-2.5e-4 -0.801159,5.3e-4 -0.230322,-2.6e-4 -0.460639,2.7e-4 -0.690962,10e-4 -0.188989,0 -0.377975,0 -0.566965,0 -0.188957,0 -0.377912,1e-5 -0.566867,1e-5 -0.188822,1e-5 -0.377642,3e-5 -0.566462,-2e-5 -0.190373,-7e-5 -0.380743,-1.8e-4 -0.571114,-7.9e-4 -0.205359,-8e-4 -0.410718,-0.002 -0.616079,-0.002 -0.197493,0.002 -0.39686,2e-4 -0.59145,0.0386 -0.176805,0.0448 -0.339595,0.12465 -0.48772,0.23132 -0.15648,0.12537 -0.337812,0.21181 -0.489863,0.3432 -0.181199,0.15269 -0.348662,0.32183 -0.525457,0.47969 -0.183705,0.16754 -0.374031,0.32707 -0.564054,0.48732 -0.175012,0.1781 -0.349298,0.35698 -0.517859,0.54124 -0.131135,0.14284 -0.257296,0.29293 -0.426548,0.39258 -0.147971,0.11846 -0.307546,0.22226 -0.433432,0.36681 -0.184611,0.15647 -0.395925,0.27923 -0.572929,0.44579 -0.260077,0.24495 -0.52479,0.48478 -0.789792,0.72438 0,0 -1.190895,-0.74242 -1.190895,-0.74242 z"
         id="path78" />
      <path
         style="stroke-width:0.22270556"
         inkscape:connector-curvature="0"
         d="m 52.274428,105.85892 c -0.200877,-0.20756 -0.385228,-0.42271 -0.579178,-0.63349 -0.177266,-0.19616 -0.415878,-0.35783 -0.621938,-0.53766 -0.17939,-0.15181 -0.34067,-0.31326 -0.519213,-0.46559 -0.167889,-0.13547 -0.315407,-0.28264 -0.460335,-0.43053 -0.12636,-0.14701 -0.320641,-0.24897 -0.483857,-0.37219 -0.176303,-0.11403 -0.323268,-0.25055 -0.504928,-0.36033 -0.207947,-0.12618 -0.408789,-0.258 -0.606891,-0.39184 -0.204073,-0.10554 -0.383506,-0.23305 -0.586489,-0.33909 -0.173532,-0.0957 -0.315063,-0.21343 -0.500956,-0.29858 -0.195649,-0.0859 -0.355114,-0.20475 -0.538861,-0.3014 -0.162084,-0.10301 -0.337574,-0.20121 -0.484492,-0.31568 -0.131263,-0.10331 -0.287623,-0.18823 -0.414774,-0.29437 -0.116581,-0.1069 -0.287621,-0.17029 -0.4381,-0.24961 -0.215011,-0.0914 -0.39552,-0.21375 -0.584584,-0.32875 -0.186443,-0.12822 -0.276076,-0.17996 -0.366749,-0.35869 -0.05886,-0.1398 -0.06461,-0.286129 -0.06836,-0.430837 -0.0013,-0.135272 5.29e-4,-0.270548 0.0013,-0.405821 7.94e-4,-0.133828 0.0011,-0.267659 0.0011,-0.401487 7.4e-5,-0.133872 5.6e-5,-0.267744 4.8e-5,-0.401614 -8e-6,-0.133898 -1.1e-5,-0.267794 -1.3e-5,-0.401691 0.01132,-0.14285 -0.03912,-0.281448 -0.0589,-0.423024 -0.02302,-0.182747 -0.02904,-0.366345 -0.03349,-0.549715 -0.0028,-0.144656 -0.0026,-0.289332 -0.0024,-0.434001 1.51e-4,-0.133805 2.64e-4,-0.267612 2.64e-4,-0.40142 -0.0492,-0.160313 -0.06336,-0.323748 -0.07655,-0.487076 -0.0089,-0.168741 -0.0084,-0.335605 -0.04939,-0.502074 -0.03691,-0.137083 -0.05086,-0.276224 -0.05866,-0.415416 -0.0056,-0.134189 -0.0051,-0.268454 -0.005,-0.402687 2.36e-4,-0.133844 5.29e-4,-0.267686 5.29e-4,-0.40153 1.03e-4,-0.133888 1.11e-4,-0.267777 1.17e-4,-0.401666 0.01683,-0.134271 -0.01654,-0.262852 -0.04794,-0.394248 -0.03134,-0.134804 -0.03944,-0.271403 -0.04444,-0.407732 -0.0035,-0.134358 -0.0029,-0.268749 -0.0027,-0.403125 -0.0071,-0.132008 0.01722,-0.265822 -0.0145,-0.396378 -0.0398,-0.133129 -0.05955,-0.268283 -0.07093,-0.403924 0.0083,-0.13516 -0.02529,-0.264908 -0.05711,-0.397192 -0.01357,-0.135956 -0.05537,-0.267117 -0.09176,-0.40046 -0.06999,-0.130457 -0.106328,-0.266732 -0.127325,-0.404928 -0.0043,-0.137642 -0.08492,-0.26388 -0.136769,-0.394337 -0.04944,-0.134844 -0.05993,-0.274183 -0.06638,-0.412752 -0.0042,-0.134518 -0.003,-0.269082 -0.0026,-0.403621 -0.004,-0.133034 -0.05062,-0.263672 -0.07141,-0.396211 -0.0113,-0.134706 -0.0182,-0.26676 -0.05425,-0.399273 -0.02363,-0.136218 -0.08529,-0.265936 -0.119528,-0.400837 -0.03456,-0.135197 -0.08525,-0.267142 -0.109651,-0.404051 0.0011,-0.137836 -0.05529,-0.264988 -0.11588,-0.393888 -0.06902,-0.131219 -0.06245,-0.272994 -0.105325,-0.407595 -0.04684,-0.133396 -0.06601,-0.270029 -0.07716,-0.406887 -0.0085,-0.134789 -0.0081,-0.269752 -0.0081,-0.404643 1.93e-4,-0.133932 5.29e-4,-0.267865 7.94e-4,-0.401797 1.24e-4,-0.111568 1.48e-4,-0.223136 1.64e-4,-0.334707 0,0 1.251561,0.451826 1.251561,0.451826 v 0 c -2.7e-5,0.111594 -6.4e-5,0.223187 -2.17e-4,0.33478 -1.99e-4,0.133862 -5.29e-4,0.267724 -5.29e-4,0.401587 5.29e-4,0.132942 5.29e-4,0.266006 0.01233,0.398741 0.01476,0.133582 0.04228,0.26574 0.08419,0.396496 0.02819,0.133306 0.04541,0.268376 0.112821,0.395788 0.05959,0.133703 0.0931,0.269493 0.105863,0.409494 0.03018,0.134309 0.08237,0.265063 0.112776,0.399334 0.04038,0.134112 0.09397,0.266143 0.118406,0.402545 0.03048,0.134056 0.02932,0.269322 0.05102,0.404113 0.02529,0.135354 0.0705,0.269896 0.06374,0.407174 -2.65e-4,0.133254 -0.0013,0.266566 0.0053,0.399761 0.0093,0.131785 0.02535,0.263906 0.08106,0.39063 0.05847,0.133899 0.118668,0.267641 0.127214,0.409049 0.02749,0.135793 0.07992,0.266487 0.13163,0.398453 0.03856,0.13362 0.0652,0.267739 0.09014,0.402923 0.0325,0.134824 0.04863,0.269341 0.051,0.406194 0.01482,0.134138 0.04296,0.266768 0.074,0.399457 0.01413,0.135416 0.0048,0.271296 0.0071,0.407005 -4.8e-5,0.133424 -5.29e-4,0.266876 0.0048,0.40026 0.007,0.13249 0.01908,0.264995 0.05272,0.395653 0.032,0.135864 0.04741,0.271194 0.03764,0.409142 -1.1e-5,0.133907 -2.7e-5,0.267816 -1.56e-4,0.401724 -1.46e-4,0.133815 -5.3e-4,0.26763 -5.3e-4,0.401446 1.83e-4,0.132864 -1e-5,0.265787 0.008,0.398557 0.01037,0.135959 0.02995,0.271275 0.0641,0.405375 0.03285,0.168831 0.02471,0.33878 0.03947,0.50867 0.01635,0.166017 0.05299,0.329552 0.07807,0.494715 -7.7e-5,0.133805 -2.12e-4,0.267609 -5.29e-4,0.401414 -2.65e-4,0.143855 -0.0011,0.287718 0.0011,0.43157 0.0037,0.180449 0.0095,0.3612 0.03915,0.540629 0.02737,0.144434 0.06921,0.28783 0.05495,0.434501 3e-6,0.133896 8e-6,0.267793 1.6e-5,0.401689 5e-6,0.133894 2.4e-5,0.267788 -9.5e-5,0.401683 -1.67e-4,0.133954 -5.29e-4,0.267908 -0.0013,0.401861 -0.0011,0.13432 -0.0032,0.268666 2.64e-4,0.402976 0.0065,0.1344 0.0159,0.27097 0.09069,0.39664 0.09264,0.12851 0.240427,0.22102 0.390673,0.31651 0.189021,0.1146 0.379625,0.22676 0.590087,0.32166 0.157054,0.0788 0.309102,0.16045 0.429969,0.2681 0.139145,0.0964 0.280792,0.19081 0.414891,0.29072 0.16011,0.10356 0.315079,0.21163 0.488706,0.30399 0.176022,0.10407 0.35174,0.20824 0.54292,0.29842 0.169479,0.0975 0.319744,0.21021 0.496721,0.30133 0.194104,0.11475 0.389543,0.22856 0.579292,0.34687 0.200514,0.13325 0.40581,0.26267 0.610952,0.39232 0.16736,0.12082 0.330607,0.24444 0.500811,0.36331 0.175792,0.119 0.344112,0.24203 0.475573,0.38826 0.144214,0.14603 0.299024,0.28676 0.461523,0.42281 0.173964,0.15427 0.338564,0.31376 0.519118,0.46431 0.214011,0.17682 0.438483,0.34879 0.611973,0.54788 0.19077,0.21253 0.376815,0.42765 0.5905,0.62926 0,0 -1.287693,-0.39316 -1.287693,-0.39316 z"
         id="path96" />
      <path
         style="stroke-width:0.26458332"
         d="m 42.869249,102.80674 a 1.3697563,1.503391 0 0 1 -1.353494,1.50328 1.3697563,1.503391 0 0 1 -1.385633,-1.46759 1.3697563,1.503391 0 0 1 1.320593,-1.53813 1.3697563,1.503391 0 0 1 1.41699,1.43107 l -1.368212,0.0714 z"
         sodipodi:end="6.2356949"
         sodipodi:start="0"
         sodipodi:ry="1.503391"
         sodipodi:rx="1.3697563"
         sodipodi:cy="102.80674"
         sodipodi:cx="41.499493"
         sodipodi:type="arc"
         id="path98" />
      <path
         style="stroke-width:0.26458332"
         d="m 51.475092,97.474449 a 1.3196433,1.5367998 0 0 1 -1.303976,1.536692 1.3196433,1.5367998 0 0 1 -1.334938,-1.500204 1.3196433,1.5367998 0 0 1 1.272278,-1.572313 1.3196433,1.5367998 0 0 1 1.365148,1.462869 l -1.318155,0.07296 z"
         sodipodi:end="6.2356949"
         sodipodi:start="0"
         sodipodi:ry="1.5367998"
         sodipodi:rx="1.3196433"
         sodipodi:cy="97.474449"
         sodipodi:cx="50.155449"
         sodipodi:type="arc"
         id="path100" />
      <path
         style="stroke-width:0.26458332"
         d="m 49.144183,110.79666 a 1.252826,1.2862346 0 0 1 -1.237952,1.28615 1.252826,1.2862346 0 0 1 -1.267346,-1.25561 1.252826,1.2862346 0 0 1 1.207859,-1.31596 1.252826,1.2862346 0 0 1 1.296027,1.22436 l -1.251414,0.0611 z"
         sodipodi:end="6.2356949"
         sodipodi:start="0"
         sodipodi:ry="1.2862346"
         sodipodi:rx="1.252826"
         sodipodi:cy="110.79666"
         sodipodi:cx="47.891357"
         sodipodi:type="arc"
         id="path102" />
    </g>
  </g>
</svg>
