<?xml version="1.0" encoding="UTF-8" standalone="no"?>
<!-- Created with Inkscape (http://www.inkscape.org/) -->

<svg
   xmlns:dc="http://purl.org/dc/elements/1.1/"
   xmlns:cc="http://creativecommons.org/ns#"
   xmlns:rdf="http://www.w3.org/1999/02/22-rdf-syntax-ns#"
   xmlns:svg="http://www.w3.org/2000/svg"
   xmlns="http://www.w3.org/2000/svg"
   xmlns:sodipodi="http://sodipodi.sourceforge.net/DTD/sodipodi-0.dtd"
   xmlns:inkscape="http://www.inkscape.org/namespaces/inkscape"
   width="210mm"
   height="297mm"
   viewBox="0 0 210 297"
   version="1.1"
   id="svg104"
   inkscape:version="0.92.4 (5da689c313, 2019-01-14)"
   sodipodi:docname="Cold North Moonlight.svg">
  <defs
     id="defs98" />
  <sodipodi:namedview
     id="base"
     pagecolor="#ffffff"
     bordercolor="#666666"
     borderopacity="1.0"
     inkscape:pageopacity="0.0"
     inkscape:pageshadow="2"
     inkscape:zoom="0.98994949"
     inkscape:cx="609.16276"
     inkscape:cy="721.63715"
     inkscape:document-units="mm"
     inkscape:current-layer="layer1"
     showgrid="false"
     inkscape:window-width="1920"
     inkscape:window-height="1001"
     inkscape:window-x="-9"
     inkscape:window-y="-9"
     inkscape:window-maximized="1" />
  <metadata
     id="metadata101">
    <rdf:RDF>
      <cc:Work
         rdf:about="">
        <dc:format>image/svg+xml</dc:format>
        <dc:type
           rdf:resource="http://purl.org/dc/dcmitype/StillImage" />
        <dc:title></dc:title>
      </cc:Work>
    </rdf:RDF>
  </metadata>
  <g
     inkscape:label="Layer 1"
     inkscape:groupmode="layer"
     id="layer1">
    <text
       xml:space="preserve"
       style="font-style:normal;font-weight:normal;font-size:10.58333302px;line-height:1.25;font-family:sans-serif;letter-spacing:0px;word-spacing:0px;fill:#000000;fill-opacity:1;stroke:none;stroke-width:0.26458332"
       x="12.095239"
       y="15.785713"
       id="text108"><tspan
         sodipodi:role="line"
         id="tspan106"
         x="12.095239"
         y="15.785713"
         style="stroke-width:0.26458332">Cold/North/Moonlight</tspan><tspan
         sodipodi:role="line"
         x="12.095239"
         y="29.014879"
         style="stroke-width:0.26458332"
         id="tspan140">Root Word: Cold</tspan><tspan
         sodipodi:role="line"
         x="12.095239"
         y="42.244045"
         style="stroke-width:0.26458332"
         id="tspan142">Flexable Root</tspan></text>
    <path
       id="path138"
       d="m 98.766848,244.06753 c 1.801902,-0.76256 3.671092,-1.32794 5.513632,-1.97508 1.74425,-0.4927 3.46513,-1.06331 5.18633,-1.63125 1.836,-0.55226 3.72912,-0.89352 5.54759,-1.50246 1.51644,-0.56684 3.06284,-1.01447 4.62711,-1.42489 1.34241,-0.44707 2.7738,-0.59844 4.11725,-1.02209 2.49106,-0.81087 6.85807,-3.62999 -5.43168,3.23727 -0.11056,0.0618 0.21322,-0.13995 0.30284,-0.2296 0.23084,-0.23045 0.25383,-0.36619 0.37983,-0.66206 0.25254,-0.95307 0.22087,-1.95214 0.22148,-2.93025 -0.0155,-1.30978 -6.1e-4,-2.61942 -0.004,-3.92926 -0.006,-1.3344 -0.0135,-2.66883 -0.0174,-4.00323 -0.003,-1.08274 -0.003,-2.16544 -0.003,-3.24818 -5e-5,-1.05927 4e-5,-2.11854 9e-5,-3.17784 0.01,-1.31461 0.0107,-2.62926 0.008,-3.94393 0.002,-1.35871 0.001,-2.71742 0.001,-4.07613 -0.002,-1.21209 -0.006,-2.42419 -0.007,-3.63628 -0.004,-1.15418 0.004,-2.30832 0.004,-3.46253 -0.002,-1.25832 0.003,-2.51659 4.3e-4,-3.77492 0.002,-1.26509 0.002,-2.53019 -0.001,-3.79526 -0.004,-1.32266 0.004,-2.64528 0.01,-3.96794 0.005,-1.58201 0.003,-3.16412 -0.002,-4.74616 0.004,-1.57033 0.007,-3.14063 0.001,-4.71096 0.004,-1.66978 0.009,-3.33954 0.005,-5.0093 -0.005,-1.60759 -4.4e-4,-3.21518 -0.002,-4.82278 0.002,-1.72023 0.007,-3.44049 0.004,-5.16072 -0.005,-1.36295 -0.0132,-2.72593 -0.0171,-4.08891 0.002,-1.20831 0.003,-2.41658 7.4e-4,-3.62491 -0.002,-1.10643 -0.003,-2.21288 -0.004,-3.31934 -0.0222,-1.04856 0.0471,-2.10077 -0.042,-3.1465 -0.18011,-1.00267 -0.70889,-1.84079 -1.3587,-2.60455 -0.79574,-0.7351 -1.39532,-1.64857 -2.2748,-2.28798 -1.01233,-0.82683 -1.92215,-1.76528 -2.77799,-2.74985 -1.456,-1.61962 -3.0202,-3.13256 -4.48955,-4.74122 -0.87151,-0.84282 -1.73451,-1.69486 -2.63759,-2.50302 -0.99068,-0.91878 -1.97264,-1.83622 -3.0259,-2.68325 -0.90657,-0.85018 -1.80177,-1.712 -2.726587,-2.54152 -0.844617,-0.70168 -1.531703,-1.55948 -2.41497,-2.21508 -0.857645,-0.79228 -1.686558,-1.60405 -2.571477,-2.36641 -0.967512,-1.03765 -2.260247,-1.66276 -3.290222,-2.61478 -0.716575,-0.74803 -1.574619,-1.28179 -2.412603,-1.86783 -0.836647,-0.56201 -1.765489,-0.96853 -2.604468,-1.52264 -0.819121,-0.50901 -1.600244,-1.08993 -2.358848,-1.68544 -0.665632,-0.45977 -1.304229,-0.98167 -1.860691,-1.5712 -0.483922,-0.38903 -1.025253,-0.69196 -1.493856,-1.10392 0,0 6.709885,-4.20013 6.709885,-4.20013 v 0 c 0.512413,0.39112 1.073248,0.72302 1.536893,1.17413 0.556448,0.53953 1.155785,1.03589 1.792791,1.47776 0.763842,0.55653 1.488441,1.16614 2.313992,1.63168 0.873065,0.51735 1.785192,0.96987 2.622448,1.54748 0.878329,0.58558 1.704322,1.22204 2.461599,1.9618 1.046123,0.91457 2.275104,1.61136 3.261344,2.6049 0.89026,0.74341 1.6979,1.56948 2.57377,2.32855 0.86316,0.70795 1.59541,1.54869 2.44777,2.26937 0.88999,0.84119 1.78736,1.67308 2.67951,2.51204 1.05983,0.86606 2.05388,1.8035 3.07844,2.71043 0.89219,0.84858 1.78938,1.69024 2.63168,2.58963 1.44995,1.61976 2.97383,3.16426 4.4625,4.74786 0.88925,0.90447 1.78478,1.80797 2.7732,2.60585 0.87111,0.72975 1.55896,1.63676 2.36884,2.43161 0.71763,0.90068 1.31922,1.85858 1.57464,2.998 0.15943,1.06852 0.0585,2.15226 0.085,3.23022 -5.1e-4,1.10764 -0.002,2.21524 -0.004,3.32288 -0.002,1.20805 -7.5e-4,2.41607 7.4e-4,3.62409 -0.004,1.36883 -0.0115,2.7376 -0.0171,4.1064 -0.003,1.71891 0.002,3.43782 0.004,5.15673 -0.001,1.60832 0.002,3.21664 -0.002,4.82497 -0.004,1.66812 7.5e-4,3.3362 0.005,5.0043 -0.005,1.56987 -0.003,3.13975 0.001,4.70963 -0.005,1.58275 -0.007,3.16555 -0.002,4.7483 0.005,1.31934 0.0138,2.63865 0.01,3.95799 -0.003,1.26551 -0.003,2.53101 -0.002,3.79653 -0.002,1.25818 0.002,2.51631 4.3e-4,3.77449 8e-5,1.15294 0.008,2.30585 0.004,3.45879 -0.002,1.21462 -0.005,2.42922 -0.007,3.64384 -1e-5,1.35827 -7.4e-4,2.71655 0.001,4.07479 -0.003,1.31203 -0.001,2.624 0.008,3.93598 3e-5,1.05929 1e-4,2.11856 -5e-5,3.17786 -2.5e-4,1.08372 -6.6e-4,2.16744 -0.003,3.25116 -0.004,1.33831 -0.01,2.67664 -0.01,4.01498 0.004,1.30433 0.0285,2.60824 0.0362,3.91254 0.007,1.04378 0.03,2.09364 -0.11005,3.13056 -0.72427,3.67451 -5.25813,4.88276 -8.65152,5.83681 -1.37609,0.29657 -2.73454,0.6482 -4.09401,1.01408 -1.54505,0.44451 -3.07916,0.91119 -4.5999,1.43338 -1.84641,0.5171 -3.71958,0.93702 -5.54834,1.51735 -1.72473,0.54526 -3.441454,1.11458 -5.173716,1.63564 -1.860739,0.60768 -3.707609,1.25984 -5.498326,2.05452 0,0 6.177721,-4.89574 6.177721,-4.89574 z"
       inkscape:connector-curvature="0"
       style="stroke-width:0.74356639" />
  </g>
</svg>
