<?xml version="1.0" encoding="UTF-8" standalone="no"?>
<!-- Created with Inkscape (http://www.inkscape.org/) -->

<svg
   xmlns:dc="http://purl.org/dc/elements/1.1/"
   xmlns:cc="http://creativecommons.org/ns#"
   xmlns:rdf="http://www.w3.org/1999/02/22-rdf-syntax-ns#"
   xmlns:svg="http://www.w3.org/2000/svg"
   xmlns="http://www.w3.org/2000/svg"
   xmlns:sodipodi="http://sodipodi.sourceforge.net/DTD/sodipodi-0.dtd"
   xmlns:inkscape="http://www.inkscape.org/namespaces/inkscape"
   width="210mm"
   height="297mm"
   viewBox="0 0 210 297"
   version="1.1"
   id="svg4990"
   inkscape:version="0.92.4 (5da689c313, 2019-01-14)"
   sodipodi:docname="compleat  finished constructon.svg">
  <defs
     id="defs4984" />
  <sodipodi:namedview
     id="base"
     pagecolor="#ffffff"
     bordercolor="#666666"
     borderopacity="1.0"
     inkscape:pageopacity="0.0"
     inkscape:pageshadow="2"
     inkscape:zoom="0.35"
     inkscape:cx="400"
     inkscape:cy="560"
     inkscape:document-units="mm"
     inkscape:current-layer="layer1"
     showgrid="false"
     inkscape:window-width="762"
     inkscape:window-height="706"
     inkscape:window-x="713"
     inkscape:window-y="240"
     inkscape:window-maximized="0" />
  <metadata
     id="metadata4987">
    <rdf:RDF>
      <cc:Work
         rdf:about="">
        <dc:format>image/svg+xml</dc:format>
        <dc:type
           rdf:resource="http://purl.org/dc/dcmitype/StillImage" />
        <dc:title></dc:title>
      </cc:Work>
    </rdf:RDF>
  </metadata>
  <g
     inkscape:label="Layer 1"
     inkscape:groupmode="layer"
     id="layer1">
    <g
       id="g5204"
       style="fill:#000000">
      <path
         inkscape:connector-curvature="0"
         d="m 24.602311,232.36455 c 1.105642,-2.28201 2.096115,-4.61952 3.043975,-6.97093 1.186346,-2.96152 2.37413,-5.92159 3.70315,-8.82245 1.026634,-2.40221 2.136452,-4.76767 3.393316,-7.05816 1.333256,-2.38064 2.751915,-4.71056 4.080005,-7.09434 1.065606,-2.15337 2.220883,-4.25767 3.248252,-6.42959 1.637599,-3.82678 8.033128,-9.93376 11.079983,-6.34216 0.247464,0.29171 0.463518,0.79473 0.62865,1.1404 0.778499,1.12934 1.29618,2.40601 1.891651,3.63477 0.596937,1.24698 1.291828,2.44551 1.968487,3.65167 0.505854,1.2233 0.909899,2.46831 1.489154,3.66149 0.811718,1.40382 1.455254,2.88713 2.087052,4.37798 0.734841,1.74063 1.416749,3.48979 2.271533,5.17643 0.683757,1.40551 1.232244,2.86505 1.779026,4.32737 0.353484,1.57947 0.951069,3.00643 1.71617,4.42352 0.690811,1.77829 1.624057,3.44037 2.264386,5.23828 0.605449,1.22103 0.959361,2.53293 1.454626,3.79663 0.460693,0.92455 1.39455,1.32305 2.195137,1.87707 1.040413,0.41638 1.939793,1.04852 2.87256,1.65537 0.986203,0.79792 2.223561,1.14823 3.381108,1.62473 1.152975,0.65344 2.371862,1.20531 3.487563,1.91888 1.032922,0.66182 2.035937,1.37601 3.062536,2.05637 1.170072,0.98303 2.373405,1.91804 3.608221,2.81751 1.431419,1.167 2.959647,2.19904 4.392324,3.36528 1.518242,1.13248 3.121355,2.13173 4.759219,3.07904 1.271167,0.46608 2.269775,1.4144 3.477415,1.98656 1.04676,0.53676 2.19395,0.79949 3.28754,1.21679 1.41912,0.36709 2.82253,0.79284 4.25236,1.12337 1.34345,0.29924 2.61225,0.78467 3.98474,0.98039 1.58681,0.0984 2.99255,0.67807 4.23971,1.63879 1.39073,0.98201 2.667,2.10363 4.02523,3.12935 1.16235,0.9474 2.18725,2.0615 3.4354,2.89934 0.9435,0.94151 2.0788,1.28779 3.36068,1.46139 0.79151,0.29759 1.60666,0.49506 2.43739,0.64086 0,0 -9.10353,6.3365 -9.10353,6.3365 v 0 c -0.81172,-0.18937 -1.60522,-0.4368 -2.41494,-0.63281 -1.3751,-0.32184 -2.57774,-0.89418 -3.62041,-1.8687 -1.2005,-0.90778 -2.23609,-1.99249 -3.3847,-2.96276 -1.35746,-1.01795 -2.64354,-2.12819 -4.05395,-3.07501 -1.21581,-0.78115 -2.56827,-1.05774 -3.9956,-1.21176 -1.35601,-0.28012 -2.64184,-0.78377 -3.99759,-1.06395 -1.448989,-0.38115 -2.909952,-0.72101 -4.337895,-1.17529 -1.185537,-0.34458 -2.31244,-0.80362 -3.4172,-1.35649 -1.146458,-0.68473 -2.211022,-1.5054 -3.416239,-2.0958 -1.623187,-1.03893 -3.288665,-2.01781 -4.804026,-3.21462 -1.445514,-1.128 -2.950052,-2.17755 -4.405935,-3.29195 -1.233823,-0.87549 -2.412666,-1.82139 -3.615012,-2.73905 -1.04974,-0.64107 -2.033085,-1.37548 -3.082415,-2.01436 -1.112459,-0.6309 -2.214697,-1.28642 -3.392119,-1.79131 -1.209315,-0.52849 -2.468923,-0.95437 -3.522141,-1.77981 -0.918261,-0.62533 -1.906469,-1.10439 -2.870478,-1.65084 -1.023054,-0.63874 -1.991342,-1.36151 -2.527935,-2.48022 -0.489852,-1.28929 -0.825638,-2.62412 -1.387242,-3.88842 -0.559345,-1.76547 -1.463522,-3.3684 -2.177974,-5.07217 -0.788132,-1.45847 -1.516739,-2.89255 -1.818658,-4.54224 -0.528926,-1.4328 -1.085281,-2.85074 -1.708735,-4.24492 -0.804098,-1.72909 -1.481666,-3.50757 -2.269995,-5.24328 -0.621776,-1.47496 -1.340403,-2.90073 -2.151166,-4.2808 -0.559649,-1.17595 -1.01686,-2.38213 -1.470379,-3.60053 -0.666552,-1.22953 -1.325121,-2.46356 -1.936967,-3.72067 -0.622274,-1.2054 -1.146673,-2.47022 -1.955641,-3.56868 -0.08354,-0.13965 -0.15987,-0.28387 -0.250616,-0.41894 -0.150252,-0.22364 -0.133387,0.11058 -0.129861,0.10856 3.100065,-1.77183 6.160802,-3.61168 9.231101,-5.43461 0.157671,-0.0936 -0.360312,0.11841 -0.492038,0.24598 -0.185763,0.17989 -0.286168,0.4308 -0.429252,0.64619 -1.114872,2.20075 -2.29503,4.35956 -3.41571,6.55801 -1.270576,2.37403 -2.620478,4.70056 -3.949768,7.04075 -1.280996,2.31219 -2.583709,4.62054 -3.58339,7.07305 -1.398442,2.83234 -2.518103,5.77969 -3.652139,8.72516 -0.90874,2.27414 -1.87751,4.52548 -2.726642,6.82281 0,0 -10.121362,4.68098 -10.121362,4.68098 z"
         id="path5190"
         style="fill:#000000;stroke-width:0.26458332" />
      <path
         inkscape:connector-curvature="0"
         d="m 47.055958,167.36758 c 2.209454,-0.61815 4.489221,-0.93094 6.74715,-1.32003 2.88044,-0.45072 5.795727,-0.52054 8.703717,-0.60321 2.643108,0.0714 5.280408,-0.13238 7.922498,-0.019 2.13482,-0.0629 4.25338,0.25193 6.38407,0.29287 2.15941,0.18116 4.31954,0.0194 6.48269,0.007 2.09322,-0.14616 4.1969,-0.1354 6.28677,-0.32086 2.44184,-0.16551 4.80648,-0.82869 7.20486,-1.27152 2.40288,-0.46911 4.777317,-1.051 7.157447,-1.61996 1.46104,-0.53873 3.00693,-0.74042 4.47361,-1.25529 1.38563,-0.32444 2.72982,-0.69303 4.15861,-0.75424 1.6517,-0.1151 3.31866,-0.091 4.97713,-0.0808 1.79407,-0.0275 3.56785,-0.2361 5.34959,-0.41773 1.26421,-0.1315 2.46023,-0.23117 3.65505,-0.69995 1.16497,-0.4892 2.44353,-0.91271 3.71143,-0.72973 1.7723,0.57843 1.53193,2.58919 1.45042,4.08659 -0.121,1.63233 -0.36519,3.2518 -0.53195,4.87969 -0.21838,1.47106 -0.31797,2.955 -0.21392,4.43899 0.12864,1.59296 0.49611,3.15005 0.75486,4.72395 0.25423,1.63523 0.41709,3.28356 0.53934,4.93343 4.1e-4,1.44154 0.16396,2.87094 0.39927,4.29038 0.0947,1.74191 0.15053,3.47963 0.3079,5.22054 0.26407,2.08209 0.55633,4.1603 0.7772,6.24759 0.20588,1.70371 0.26982,3.42162 0.4936,5.12279 0.22169,1.45384 0.26033,2.92749 0.33858,4.39398 0.0349,1.61091 0.30952,3.19881 0.52106,4.79215 0.17863,1.58595 0.58984,3.13387 0.63838,4.73232 -0.1116,1.53184 -0.0598,3.05021 0.0874,4.57631 0.29235,1.8386 0.0239,3.67216 -0.20849,5.49766 -0.20901,1.82255 -0.49283,3.625 -0.53287,5.46105 -0.008,0.23996 -0.0208,0.4798 -0.0238,0.71987 -0.0296,2.30641 0.40036,-2.223 -1.23625,-0.0256 -5.03469,6.75977 -5.60668,13.24531 -5.13831,8.71306 0.0263,-2.0379 -0.16189,-4.07214 -0.32427,-6.1018 -0.14253,-1.8939 -0.28422,-3.78792 -0.43421,-5.68126 -0.0659,-1.38167 -0.14924,-2.76183 -0.16406,-4.14527 -0.0528,-1.38876 0.0544,-2.7724 0.16795,-4.15526 0.005,-1.64097 -0.0867,-3.28128 -0.0303,-4.92228 0.20221,-1.34467 0.0328,-2.69282 -0.0296,-4.04 0.0385,-1.23351 0.1301,-2.46511 0.16129,-3.69815 -0.13342,-1.2945 0.10101,-2.56982 0.24709,-3.84862 0.11321,-1.41445 -0.17125,-2.80857 -0.35906,-4.2032 -0.0854,-1.38882 -0.27286,-2.76639 -0.51397,-4.13562 -0.15517,-1.20857 -0.37739,-2.4024 -0.31069,-3.6247 0.13697,-1.28124 0.0145,-2.5626 -0.0194,-3.84561 0.0343,-1.7093 0.36104,-3.39127 0.48362,-5.09536 0.11815,-1.53273 0.20779,-3.06288 0.19464,-4.60054 0.0973,-1.3306 -0.11148,-2.62759 -0.25573,-3.94224 -0.11098,-1.40641 -0.24166,-2.8155 -0.24355,-4.2271 -0.007,-1.57801 0.0427,-3.15433 0.0735,-4.7318 0.0438,-1.89514 -0.0878,-3.78554 -0.13226,-5.67861 -0.0665,-1.70393 -0.0498,-3.40991 -0.0944,-5.1137 -0.12557,-1.18891 0.0559,-2.37383 0.0254,-3.56184 0.0327,-1.10257 -0.007,-2.21412 -0.12645,-3.31148 -0.0632,-1.12205 -0.11942,-2.24754 -0.25161,-3.3643 -0.003,-1.17936 -0.30425,-2.31952 -0.43255,-3.48726 -0.1827,-1.47683 -0.28684,-2.96022 -0.43718,-4.44059 -0.21907,-1.61092 -0.22998,-3.23696 -0.17834,-4.85835 -0.0341,-1.48179 0.23714,-2.93876 0.35826,-4.41046 0.15291,-1.77853 -0.13114,-3.53867 -0.43806,-5.28328 -0.25327,-1.50074 -0.69993,-2.95515 -1.03609,-4.43816 -0.38371,-1.4011 -0.75436,-2.80674 -1.06684,-4.22563 -0.42859,-1.54687 -0.80096,-3.11403 -1.33815,-4.62789 -0.49604,-1.5209 -0.94814,-3.05699 -1.39977,-4.59217 -0.53049,-1.63669 -0.98717,-3.29874 -1.37302,-4.97539 -0.29188,-1.749457 -0.64649,-3.486167 -1.09566,-5.202337 -0.33834,-1.60553 -0.76049,-3.17622 -1.39409,-4.69062 -0.61363,-1.36732 -1.38073,-2.65749 -2.14254,-3.94561 -0.77364,-1.29661 -1.55414,-2.58912 -2.33207,-3.88316 0,0 5.86922,-9.359698 5.86922,-9.359698 v 0 c 0.77876,1.295432 1.55924,2.589846 2.33715,3.8858 0.78798,1.320576 1.58263,2.640608 2.25333,4.025988 0.70218,1.54129 1.24655,3.13703 1.50078,4.81868 0.48857,1.70716 0.92296,3.4445 1.15079,5.20483 0.37729,1.66173 0.74638,3.33178 1.29831,4.94561 0.47751,1.51013 1.00936,3.0052 1.33276,4.558747 0.6197,1.52656 1.02719,3.09788 1.49522,4.67407 0.3235,1.40209 0.63143,2.81046 1.07008,4.18056 0.40195,1.5102 0.65847,3.05078 1.05866,4.56318 0.2669,1.77831 0.71769,3.55648 0.64956,5.36465 0.005,1.49327 -0.35045,2.93206 -0.3472,4.41539 -0.10534,1.58677 -0.16824,3.17169 0.006,4.75669 0.23857,1.4724 0.20184,2.96551 0.52933,4.42568 0.0336,1.19726 0.33379,2.30982 0.48417,3.48838 -0.0716,1.11807 0.22036,2.24822 0.25849,3.36769 -0.0757,1.11417 0.21553,2.23968 0.19673,3.3598 -0.15821,1.16458 0.005,2.36726 -0.17041,3.54196 0.17845,1.74064 -0.0751,3.49438 0.0858,5.24236 -0.0256,1.88593 0.18746,3.76177 0.19429,5.64807 -0.047,1.55379 -0.0554,3.10554 -0.0664,4.65799 0.0214,1.38141 0.0214,2.75265 0.15937,4.13242 0.17472,1.3415 0.47005,2.68759 0.28893,4.04611 0.11364,1.55847 0.082,3.1353 -0.14199,4.68277 -0.0184,1.6836 -0.29825,3.3304 -0.48031,4.99967 -0.0175,1.2907 0.16169,2.55674 0.088,3.84055 -0.0328,1.20214 -0.17688,2.37358 0.14596,3.56626 0.0598,1.39656 0.52608,2.76436 0.54509,4.17386 -0.004,1.42821 0.51329,2.79485 0.46614,4.22791 0.0728,1.29434 -0.40995,2.51269 -0.31693,3.80895 0.1441,1.25378 -0.0907,2.48962 -0.0626,3.74991 -0.2208,1.38386 0.24132,2.75444 0.0212,4.14434 -0.27299,1.60063 -0.0941,3.25726 -0.003,4.87073 -0.0202,1.36797 -0.26817,2.73312 -0.17675,4.09727 -0.0473,1.39209 0.0923,2.76088 0.0237,4.1516 0.19219,1.91095 0.26239,3.8334 0.39333,5.74923 0.18294,2.01637 0.32078,4.03608 0.49853,6.05218 0.32148,4.35631 -2.26798,13.58857 -6.53669,10.22804 -0.10914,-0.086 0.38731,-1.47524 0.13437,-1.63023 0.17436,-1.84502 0.15927,-3.70555 0.51868,-5.53918 0.16582,-1.76351 0.61365,-3.51818 0.38059,-5.30056 -0.22597,-1.54808 -0.36067,-3.09827 -0.23442,-4.66194 0.16166,-1.59102 -0.22637,-3.10001 -0.49076,-4.66384 -0.14879,-1.60467 -0.54543,-3.17904 -0.56682,-4.79479 -0.1459,-1.44912 -0.17088,-2.90686 -0.2531,-4.36015 -0.3209,-1.72241 -0.32314,-3.474 -0.53034,-5.21113 -0.1369,-2.10396 -0.42003,-4.19933 -0.72157,-6.28499 -0.21341,-1.68358 -0.52808,-3.37945 -0.34564,-5.08144 -0.20137,-1.45711 -0.55215,-2.89739 -0.52275,-4.3807 0.0843,-1.62425 -0.22883,-3.25917 -0.41411,-4.86948 -0.18124,-1.58966 -0.63795,-3.12616 -0.78459,-4.71979 -0.25278,-1.53175 -0.20539,-3.07342 -0.0232,-4.61255 0.31283,-1.59727 0.31049,-3.24853 0.64601,-4.84632 0.0136,-0.37015 0.32295,-2.75672 0.15476,-3.00152 -0.0454,-0.0661 -0.1467,-0.0648 -0.2201,-0.0972 -1.13809,0.0183 -2.22385,0.52635 -3.28597,0.88848 -1.27414,0.36892 -2.56739,0.43385 -3.883,0.55008 -1.79231,0.10982 -3.57888,0.28729 -5.37668,0.29841 -1.65465,0.0497 -3.31341,0.0542 -4.9609,0.22203 -1.33962,0.1664 -2.64535,0.47485 -3.93862,0.8623 -1.48793,0.41082 -3.01409,0.67156 -4.500007,1.09328 -2.37491,0.4896 -4.73916,1.02844 -7.12155,1.48246 -2.44566,0.51754 -4.87535,1.16949 -7.37964,1.33529 -2.10592,0.13277 -4.21475,0.19751 -6.32416,0.24615 -2.18408,0.0521 -4.36717,0.20916 -6.54932,0.006 -2.12481,-0.10717 -4.24649,-0.27147 -6.37355,-0.33303 -2.596806,-0.11093 -5.196988,0.007 -7.794846,-0.0547 -2.867291,0.10728 -5.740785,0.19903 -8.573707,0.7007 -2.213769,0.42758 -4.594557,0.65229 -6.552346,1.84965 0,0 4.394287,-10.30165 4.394287,-10.30165 z"
         id="path5192"
         style="fill:#000000;stroke-width:0.26458332" />
    </g>
    <text
       xml:space="preserve"
       style="font-style:normal;font-weight:normal;font-size:10.58333302px;line-height:1.25;font-family:sans-serif;letter-spacing:0px;word-spacing:0px;fill:#000000;fill-opacity:1;stroke:none;stroke-width:0.26458332"
       x="21.922617"
       y="25.613094"
       id="text5196"><tspan
         sodipodi:role="line"
         id="tspan5194"
         x="21.922617"
         y="25.613094"
         style="stroke-width:0.26458332">Compleat/finished construction</tspan><tspan
         sodipodi:role="line"
         x="21.922617"
         y="38.842262"
         style="stroke-width:0.26458332"
         id="tspan5198">flexable base</tspan><tspan
         sodipodi:role="line"
         x="21.922617"
         y="52.071426"
         style="stroke-width:0.26458332"
         id="tspan5200">root word: compleat </tspan></text>
  </g>
</svg>
