<?xml version="1.0" encoding="UTF-8" standalone="no"?>
<!-- Created with Inkscape (http://www.inkscape.org/) -->

<svg
   xmlns:dc="http://purl.org/dc/elements/1.1/"
   xmlns:cc="http://creativecommons.org/ns#"
   xmlns:rdf="http://www.w3.org/1999/02/22-rdf-syntax-ns#"
   xmlns:svg="http://www.w3.org/2000/svg"
   xmlns="http://www.w3.org/2000/svg"
   xmlns:sodipodi="http://sodipodi.sourceforge.net/DTD/sodipodi-0.dtd"
   xmlns:inkscape="http://www.inkscape.org/namespaces/inkscape"
   width="210mm"
   height="297mm"
   viewBox="0 0 210 297"
   version="1.1"
   id="svg21"
   inkscape:version="0.92.4 (5da689c313, 2019-01-14)"
   sodipodi:docname="Comrad Sibling Companion.svg">
  <defs
     id="defs15" />
  <sodipodi:namedview
     id="base"
     pagecolor="#ffffff"
     bordercolor="#666666"
     borderopacity="1.0"
     inkscape:pageopacity="0.0"
     inkscape:pageshadow="2"
     inkscape:zoom="0.49497475"
     inkscape:cx="631.51413"
     inkscape:cy="647.19255"
     inkscape:document-units="mm"
     inkscape:current-layer="layer1"
     showgrid="false"
     inkscape:window-width="1920"
     inkscape:window-height="1001"
     inkscape:window-x="-9"
     inkscape:window-y="-9"
     inkscape:window-maximized="1" />
  <metadata
     id="metadata18">
    <rdf:RDF>
      <cc:Work
         rdf:about="">
        <dc:format>image/svg+xml</dc:format>
        <dc:type
           rdf:resource="http://purl.org/dc/dcmitype/StillImage" />
        <dc:title></dc:title>
      </cc:Work>
    </rdf:RDF>
  </metadata>
  <g
     inkscape:label="Layer 1"
     inkscape:groupmode="layer"
     id="layer1">
    <text
       xml:space="preserve"
       style="font-style:normal;font-weight:normal;font-size:10.58333302px;line-height:1.25;font-family:sans-serif;letter-spacing:0px;word-spacing:0px;fill:#000000;fill-opacity:1;stroke:none;stroke-width:0.26458332"
       x="4.5357141"
       y="12.761905"
       id="text25"><tspan
         sodipodi:role="line"
         id="tspan23"
         x="4.5357141"
         y="12.761905"
         style="stroke-width:0.26458332">Comrad/Sibling/Companion (platonic)</tspan><tspan
         sodipodi:role="line"
         x="4.5357141"
         y="25.991072"
         style="stroke-width:0.26458332"
         id="tspan27">Root Word: Comrad</tspan><tspan
         sodipodi:role="line"
         x="4.5357141"
         y="39.220238"
         style="stroke-width:0.26458332"
         id="tspan29">Flexable modifier</tspan></text>
    <g
       id="g45"
       transform="matrix(1.820914,0,0,1.820914,10.885173,-156.19904)">
      <path
         style="stroke-width:0.26458332"
         inkscape:connector-curvature="0"
         d="m 47.821334,143.78199 c -0.306676,0.89855 -0.583309,1.80814 -0.95726,2.68175 -0.311513,0.60205 -0.834956,1.05439 -1.289204,1.54757 -0.62534,0.72747 -1.200695,1.49619 -1.787194,2.25487 -0.513622,0.6253 -1.027845,1.25133 -1.498132,1.91013 -0.433488,0.60108 -0.786595,1.25329 -1.176816,1.88185 -0.346747,0.59355 -0.735094,1.15814 -1.148096,1.70716 -0.439994,0.58983 -0.916352,1.15063 -1.372055,1.72802 -0.407112,0.55894 -0.810755,1.12037 -1.221018,1.67707 -0.413567,0.52074 -0.736348,1.10262 -1.100058,1.65672 -0.369657,0.47473 -0.688935,0.98283 -1.016725,1.48628 -0.302088,0.49433 -0.625406,0.97724 -0.907449,1.48337 -0.248764,0.46053 -0.513429,0.91211 -0.763913,1.37179 -0.23396,0.40168 -0.453599,0.81101 -0.69098,1.21075 -0.235779,0.30647 -0.460521,0.61681 -0.68602,0.93045 -0.236437,0.31447 -0.448858,0.64328 -0.65799,0.97689 -0.286094,0.37158 -0.572338,0.74464 -0.861782,1.11439 -0.256207,0.31176 -0.289028,0.62912 -0.152583,0.99944 0.194334,0.52144 0.453192,1.01067 0.728859,1.49282 0.309054,0.52858 0.715899,0.98192 1.097335,1.45598 0.294373,0.42972 0.578461,0.8664 0.901711,1.27552 0.342757,0.49523 0.632727,1.02589 0.941633,1.54305 0.330129,0.57782 0.613701,1.17928 0.925148,1.7671 0.403413,0.72317 0.843105,1.42468 1.272407,2.13257 0.523603,0.85023 1.094328,1.66882 1.649998,2.49773 0.421163,0.70872 0.844544,1.39705 1.344676,2.05379 0.712665,0.98195 1.42291,1.96622 2.123688,2.95674 0.512538,0.74544 1.09323,1.44039 1.583579,2.20106 0.338011,0.52308 0.617228,1.08247 0.978281,1.59067 0.342199,0.41237 0.52288,0.92202 0.815343,1.36312 0.419579,0.54717 0.735761,1.15802 1.061389,1.76311 0.345713,0.56287 0.643099,1.15372 0.995452,1.71233 0.34494,0.54842 0.749589,1.04668 1.164209,1.5428 0.400498,0.58151 0.840669,1.12883 1.275022,1.68437 0.409835,0.57024 0.798881,1.15301 1.170311,1.74956 0.359417,0.65457 0.744505,1.29822 1.196408,1.8934 0.453454,0.59763 0.837713,1.2426 1.259586,1.8619 0.397785,0.61497 0.726128,1.27084 1.113822,1.8918 0.482587,0.64072 1.025649,1.23714 1.537843,1.85628 0.613627,0.80049 1.263785,1.57114 1.873266,2.37465 0.4651,0.5671 0.880912,1.17126 1.342879,1.7407 0.484966,0.55561 0.996799,1.09747 1.552469,1.58353 0.5495,0.51082 0.925476,1.1626 1.32134,1.79088 0.377651,0.66436 0.843502,1.27087 1.230905,1.92931 0.353333,0.629 0.740945,1.2347 1.175835,1.81052 0.442005,0.52328 0.815816,1.09995 1.244695,1.63288 0.294876,0.40356 0.541449,0.83931 0.831202,1.24698 0.319275,0.48739 0.597924,0.99701 0.939919,1.46936 0.356418,0.55226 0.764387,1.06716 1.147231,1.60076 0.357891,0.44427 0.736841,0.86811 1.070737,1.33236 0.36078,0.32682 0.596688,0.74388 0.861229,1.14536 0.278045,0.47794 0.561793,0.95033 0.86396,1.41344 0.309435,0.41289 0.583369,0.84832 0.87603,1.27201 0.20592,0.34778 0.484087,0.64179 0.735235,0.95662 -0.1328,-0.15311 0.187777,0.20286 0.178723,0.1298 -0.0088,-0.0708 -0.02125,-0.22994 -0.08429,-0.19661 -1.151458,0.60891 -2.209532,1.38243 -3.349564,2.01247 -0.04328,0.0239 -0.01289,-0.0987 -0.02853,-0.14557 -0.01302,-0.039 -0.03777,-0.0731 -0.05665,-0.10963 0,0 3.459488,-1.97965 3.459488,-1.97965 v 0 c 0.901859,1.69177 -2.52875,3.87173 -3.534561,2.33303 -0.262199,-0.31961 -0.54189,-0.6282 -0.751101,-0.9867 -0.286097,-0.43076 -0.565365,-0.86474 -0.874917,-1.28014 -0.301942,-0.46179 -0.578141,-0.93775 -0.861316,-1.41103 -0.265949,-0.39585 -0.514094,-0.79519 -0.858356,-1.13059 -0.332833,-0.46405 -0.706282,-0.89171 -1.059815,-1.33905 -0.382506,-0.53309 -0.790316,-1.04739 -1.147085,-1.59868 -0.34298,-0.4729 -0.627566,-0.97988 -0.948918,-1.46707 -0.288375,-0.40146 -0.531257,-0.8318 -0.816531,-1.23471 -0.418245,-0.54442 -0.803394,-1.11464 -1.241496,-1.6441 -0.442648,-0.58873 -0.837644,-1.20597 -1.196134,-1.84929 -0.389916,-0.65201 -0.85037,-1.2576 -1.220086,-1.922 -0.380365,-0.59624 -0.748869,-1.21305 -1.278742,-1.69191 -0.552907,-0.51734 -1.080129,-1.06535 -1.574564,-1.63866 -0.47148,-0.56897 -0.885114,-1.18154 -1.348394,-1.75721 -0.596648,-0.80343 -1.228971,-1.57874 -1.850297,-2.36319 -0.5339,-0.62601 -1.109281,-1.22193 -1.585206,-1.89334 -0.3834,-0.61748 -0.710009,-1.2681 -1.10436,-1.87927 -0.416783,-0.61647 -0.797208,-1.25771 -1.256626,-1.84482 -0.443282,-0.61331 -0.841824,-1.25853 -1.202234,-1.924 -0.371719,-0.58072 -0.758751,-1.14972 -1.157968,-1.71119 -0.429834,-0.55246 -0.863232,-1.09996 -1.266558,-1.67275 -0.428635,-0.50796 -0.839393,-1.0243 -1.194424,-1.58752 -0.357203,-0.56657 -0.656442,-1.16658 -1.005456,-1.73829 -0.320167,-0.59616 -0.631963,-1.19638 -1.05614,-1.72778 -0.283906,-0.44305 -0.474758,-0.93942 -0.806223,-1.35457 -0.353692,-0.51956 -0.647163,-1.07554 -0.978331,-1.60907 -0.477959,-0.7603 -1.047261,-1.45637 -1.54459,-2.20381 -0.688202,-0.99254 -1.404871,-1.9679 -2.135574,-2.92903 -0.513736,-0.6599 -0.933177,-1.36004 -1.353968,-2.08106 -0.548473,-0.83939 -1.12713,-1.65917 -1.662792,-2.50712 -0.436941,-0.7117 -0.875565,-1.422 -1.287394,-2.14845 -0.31659,-0.57816 -0.603488,-1.17095 -0.925875,-1.74587 -0.301241,-0.5016 -0.583393,-1.01701 -0.917601,-1.49701 -0.323991,-0.40735 -0.611243,-0.83999 -0.900227,-1.27245 -0.395763,-0.48904 -0.800814,-0.97003 -1.126828,-1.51115 -0.28652,-0.49655 -0.55711,-1.00022 -0.763696,-1.53592 -0.191276,-0.4446 -0.274905,-0.91658 -0.02633,-1.35985 0.259313,-0.38381 0.541753,-0.76518 0.867947,-1.09451 0.220379,-0.32673 0.385926,-0.6886 0.655865,-0.97401 0.197342,-0.34177 0.428731,-0.65116 0.677304,-0.95392 0.313616,-0.34002 0.44056,-0.7926 0.725559,-1.15526 0.225904,-0.47257 0.492715,-0.92553 0.766913,-1.3712 0.244867,-0.53506 0.594866,-1.01126 0.892199,-1.51739 0.314841,-0.51815 0.643065,-1.02769 1.006711,-1.51381 0.424259,-0.5119 0.67673,-1.14286 1.10573,-1.65454 0.402315,-0.57135 0.835859,-1.11259 1.221804,-1.69558 0.454104,-0.57949 0.927661,-1.14212 1.370758,-1.73028 0.436058,-0.51583 0.808742,-1.07861 1.155883,-1.65638 0.384344,-0.6414 0.773083,-1.28162 1.183928,-1.90713 0.44708,-0.68543 0.964666,-1.32178 1.497963,-1.94174 0.607451,-0.74059 1.164984,-1.52137 1.75877,-2.27332 0.444132,-0.48357 0.903787,-0.95015 1.338572,-1.43927 0.435216,-0.83029 0.692454,-1.74115 0.967496,-2.63358 0,0 3.591772,-1.68683 3.591772,-1.68683 z"
         id="path39" />
      <path
         style="stroke-width:0.25828725"
         inkscape:connector-curvature="0"
         d="m 57.184413,116.04506 c -0.651044,0.62015 -1.299122,1.244 -1.964954,1.84673 -0.620069,0.54416 -1.280154,1.03678 -1.939375,1.52707 -0.672505,0.46683 -1.300728,0.99827 -1.950182,1.49895 -0.770571,0.60234 -1.541031,1.20239 -2.324811,1.78618 -0.676943,0.46701 -1.363397,0.91703 -2.017089,1.41983 -0.478364,0.35368 -0.900069,0.77892 -1.372196,1.14131 -0.598498,0.44611 -1.214387,0.86569 -1.823709,1.29521 -0.619442,0.39818 -1.207422,0.84343 -1.780567,1.31087 -0.853782,0.69175 -1.737498,1.34153 -2.605723,2.01287 -1.642568,1.55594 -3.471569,2.49713 -5.429328,3.67952 -0.65568,0.38533 -1.337139,0.71923 -2.002552,1.08484 -3.68202,2.0395 10.258088,-6.16081 -1.160704,0.64936 -1.560498,0.93069 10.662165,-6.42335 -0.532315,0.31426 -0.516523,0.23574 -1.040933,0.45733 -1.5407,0.73099 -0.459989,0.34629 -1.018183,0.49766 -1.490554,0.81723 -1.216678,0.67963 -0.795861,0.44766 2.842463,-1.72229 0.04731,-0.0282 -0.09155,0.0622 -0.133521,0.0985 -0.101706,0.0881 -0.08192,0.13026 -0.0062,0.22369 0.37161,0.1952 0.802022,0.24634 1.205385,0.34985 0.614049,0.2748 1.277818,0.33908 1.935661,0.39492 0.664793,0.0534 1.318524,0.19364 1.983876,0.25666 0.570994,0.0244 1.129519,0.0442 1.690979,0.15537 0.571314,0.10159 1.150212,0.1351 1.728462,0.1545 0.560888,0.0126 1.121972,0.0126 1.682966,0.0121 0.576929,-0.002 1.153853,-0.002 1.730782,-0.002 0.711386,0.002 1.422776,0.003 2.134164,0.002 0.699076,0.002 1.398145,-0.003 2.097216,-0.002 0.659319,0.001 1.318635,5.3e-4 1.977954,-0.001 0.542233,-0.001 1.084468,-0.002 1.626703,-0.002 0.589011,-0.003 1.177964,0.002 1.766951,0.006 0.741637,0.002 1.483269,-0.002 2.224902,-0.004 0.586004,-0.002 1.172008,-0.001 1.758011,7.9e-4 0.689134,-0.016 1.368097,-0.0112 2.049536,0.0971 0.539024,0.0973 1.084189,0.13734 1.630044,0.15749 0.557733,0.0145 1.115689,0.0137 1.673551,0.0131 0.541999,-0.001 1.083996,-0.002 1.625997,-0.003 0.511072,-5.3e-4 1.022144,-5.3e-4 1.533214,-5.3e-4 0.547675,-0.0505 1.074746,0.0643 1.612822,0.14605 0.685264,0.12633 1.39341,0.18806 2.066284,0.37791 0.471683,0.16458 0.960967,0.23032 1.454538,0.26204 0.489747,0.11243 0.974127,0.1984 1.450182,0.36193 0.431889,0.1405 0.884824,0.16341 1.333325,0.18132 0.32689,0.008 0.162807,0.005 0.492247,0.009 0,0 -3.068052,2.32925 -3.068052,2.32925 v 0 c -0.334652,-0.01 -0.167728,-0.003 -0.500776,-0.0195 -0.471282,-0.0355 -0.940995,-0.0961 -1.389707,-0.26056 -0.455837,-0.14304 -0.930504,-0.21797 -1.400132,-0.29186 -0.503427,-0.0558 -0.995803,-0.16313 -1.481071,-0.31575 -0.676411,-0.14662 -1.361943,-0.25375 -2.046538,-0.34822 -0.52758,-0.0797 -1.052311,-0.12326 -1.586217,-0.096 -0.510833,3e-5 -1.021668,9e-5 -1.5325,2.7e-4 -0.540899,2e-4 -1.081799,5.2e-4 -1.622697,-3e-5 -0.562565,-10e-4 -1.125525,0.002 -1.687613,-0.0253 -0.550742,-0.0341 -1.098392,-0.0979 -1.643176,-0.19027 -0.670493,-0.0835 -1.344176,-0.053 -2.01824,-0.0551 -0.586739,0.002 -1.173481,0.003 -1.760224,7.9e-4 -0.737919,-0.002 -1.475842,-0.006 -2.213766,-0.004 -0.594553,0.004 -1.189074,0.009 -1.78365,0.006 -0.540543,-2.5e-4 -1.081082,-8e-4 -1.621622,-0.002 -0.658462,-10e-4 -1.316918,-0.002 -1.975379,-10e-4 -0.697509,10e-4 -1.395013,-0.004 -2.092523,-0.002 -0.713757,-5.3e-4 -1.427516,0.001 -2.141265,0.003 -0.577192,0.001 -1.154381,0.003 -1.731572,0.002 -0.564907,-5.3e-4 -1.130093,0.003 -1.694582,-0.0241 -0.588658,-0.0327 -1.176245,-0.087 -1.757387,-0.19415 -0.55376,-0.0874 -1.114693,-0.0693 -1.670755,-0.1382 -0.659836,-0.0791 -1.312571,-0.21352 -1.975881,-0.25877 -0.674858,-0.0762 -1.338823,-0.19244 -1.980489,-0.43333 -0.48014,-0.12499 -0.998277,-0.18251 -1.358185,-0.57736 -0.111939,-0.17169 -0.184732,-0.24357 -0.218829,-0.45714 -0.01535,-0.0961 0.0018,-0.37111 0.09998,-0.43607 1.589769,-1.0507 2.377562,-1.50488 3.630243,-2.23115 0.506879,-0.253 1.011734,-0.50825 1.500628,-0.79811 0.511143,-0.24407 1.027898,-0.47659 1.529037,-0.74266 -6.788237,4.12642 -0.845876,0.51261 0.528555,-0.31571 0.987818,-0.59533 -3.955447,2.37329 -2.958227,1.79549 1.390573,-0.80572 2.691951,-1.72656 4.121855,-2.43043 0.670141,-0.34966 1.334916,-0.71127 1.990296,-1.0905 -5.613625,3.42666 -2.165085,1.47992 -0.977791,0.25283 0.845175,-0.68529 1.733414,-1.31161 2.582772,-1.9921 0.564032,-0.48332 1.142814,-0.94752 1.764183,-1.34669 0.621023,-0.40294 1.209018,-0.86065 1.827326,-1.26789 0.4681,-0.37281 0.933323,-0.74228 1.374461,-1.14978 0.667771,-0.49275 1.32039,-1.00915 2.034198,-1.43104 0.786101,-0.57481 1.558765,-1.16316 2.318057,-1.774 0.647639,-0.50226 1.280831,-1.03032 1.944365,-1.50426 0.658791,-0.4906 1.322536,-0.97552 1.956652,-1.50037 0.676542,-0.57567 1.322326,-1.19784 1.946741,-1.83389 0,0 3.505716,-1.49079 3.505716,-1.49079 z"
         id="path41" />
    </g>
  </g>
</svg>
