<?xml version="1.0" encoding="UTF-8" standalone="no"?>
<!-- Created with Inkscape (http://www.inkscape.org/) -->

<svg
   xmlns:dc="http://purl.org/dc/elements/1.1/"
   xmlns:cc="http://creativecommons.org/ns#"
   xmlns:rdf="http://www.w3.org/1999/02/22-rdf-syntax-ns#"
   xmlns:svg="http://www.w3.org/2000/svg"
   xmlns="http://www.w3.org/2000/svg"
   xmlns:sodipodi="http://sodipodi.sourceforge.net/DTD/sodipodi-0.dtd"
   xmlns:inkscape="http://www.inkscape.org/namespaces/inkscape"
   width="210mm"
   height="297mm"
   viewBox="0 0 210 297"
   version="1.1"
   id="svg358"
   inkscape:version="0.92.4 (5da689c313, 2019-01-14)"
   sodipodi:docname="Darkness Evil Demonic.svg">
  <defs
     id="defs352" />
  <sodipodi:namedview
     id="base"
     pagecolor="#ffffff"
     bordercolor="#666666"
     borderopacity="1.0"
     inkscape:pageopacity="0.0"
     inkscape:pageshadow="2"
     inkscape:zoom="0.7"
     inkscape:cx="486.92217"
     inkscape:cy="711.52363"
     inkscape:document-units="mm"
     inkscape:current-layer="layer1"
     showgrid="false"
     inkscape:window-width="1920"
     inkscape:window-height="1001"
     inkscape:window-x="-9"
     inkscape:window-y="-9"
     inkscape:window-maximized="1" />
  <metadata
     id="metadata355">
    <rdf:RDF>
      <cc:Work
         rdf:about="">
        <dc:format>image/svg+xml</dc:format>
        <dc:type
           rdf:resource="http://purl.org/dc/dcmitype/StillImage" />
        <dc:title></dc:title>
      </cc:Work>
    </rdf:RDF>
  </metadata>
  <g
     inkscape:label="Layer 1"
     inkscape:groupmode="layer"
     id="layer1">
    <text
       xml:space="preserve"
       style="font-style:normal;font-weight:normal;font-size:10.58333302px;line-height:1.25;font-family:sans-serif;letter-spacing:0px;word-spacing:0px;fill:#000000;fill-opacity:1;stroke:none;stroke-width:0.26458332"
       x="10.205358"
       y="11.627976"
       id="text362"><tspan
         sodipodi:role="line"
         id="tspan360"
         x="10.205358"
         y="11.627976"
         style="stroke-width:0.26458332">Darkness/Evil/Demonic</tspan><tspan
         sodipodi:role="line"
         x="10.205358"
         y="24.857143"
         style="stroke-width:0.26458332"
         id="tspan364">Flexable Base</tspan><tspan
         sodipodi:role="line"
         x="10.205358"
         y="38.086308"
         style="stroke-width:0.26458332"
         id="tspan366">Root Word: Darkness</tspan></text>
    <path
       id="path396"
       d="m 44.755194,59.59739 c -0.72747,1.565021 -1.522074,3.096445 -2.284143,4.644152 -0.530048,1.10454 -1.046131,2.215663 -1.581655,3.317586 -0.467593,0.9856 -0.65032,2.06729 -0.97966,3.101155 -0.384244,0.981982 -0.909082,1.900023 -1.395343,2.833415 -0.530916,1.081937 -1.165355,2.1063 -1.771246,3.146695 -0.456864,0.957519 -0.972243,1.884293 -1.469493,2.820963 -0.516458,1.010809 -1.078772,1.997266 -1.718283,2.935481 -0.639996,0.898292 -1.187363,1.854454 -1.716596,2.820458 -0.477956,0.83465 -0.93677,1.678829 -1.415851,2.512912 -0.418791,0.801032 -0.95344,1.521087 -1.493621,2.24095 -0.592039,0.780028 -1.229979,1.527058 -1.741027,2.363893 -0.482904,0.760015 -1.032894,1.472792 -1.579672,2.187824 -0.620012,0.844383 -1.269564,1.666808 -1.884516,2.515293 -0.623559,0.802015 -1.254001,1.599927 -1.933894,2.355265 -0.939549,0.909708 -1.739085,1.948578 -2.602687,2.927768 -0.799064,1.06605 -1.754585,1.98882 -2.679788,2.94124 -0.869946,0.9693 -1.859675,1.87195 -2.543041,2.99058 -0.341627,0.84007 0.647781,1.33455 1.226651,1.73212 0.915303,0.63406 1.716859,1.41014 2.561928,2.1319 0.884611,0.84518 1.840324,1.59954 2.792947,2.36467 1.055201,0.90888 2.108459,1.82214 3.139216,2.75791 0.868382,0.943 1.909829,1.6934 2.809047,2.60226 1.056264,0.87203 1.940158,1.9152 2.907861,2.87549 0.867923,0.83832 1.821849,1.57836 2.760033,2.33529 0.980881,0.86918 2.044583,1.62448 3.129113,2.35594 0.953492,0.64936 1.724194,1.48383 2.526673,2.2997 0.755205,0.77393 1.503899,1.56417 2.317694,2.27743 1.052523,0.56769 1.833983,1.40938 2.583355,2.31973 0.866486,1.06017 1.866937,2.02488 2.937452,2.87828 0.832897,0.75239 1.66421,1.50259 2.531459,2.21537 0.891852,0.76277 1.75782,1.55359 2.679821,2.27978 1.054058,0.75724 1.93997,1.69655 2.857289,2.60421 0.828191,0.79455 1.78843,1.41483 2.697152,2.10423 0.961604,0.57852 1.764559,1.36726 2.652043,2.0438 1.127757,0.95134 2.045234,2.12415 3.202897,3.03712 0.776833,0.6092 1.609937,1.13242 2.439501,1.66447 0,0 -5.912757,5.27189 -5.912757,5.27189 v 0 c -0.849429,-0.5498 -1.692678,-1.10735 -2.489783,-1.73231 -1.135118,-0.93352 -2.074452,-2.07317 -3.207197,-3.01217 -0.876368,-0.68747 -1.712986,-1.42616 -2.656295,-2.02511 -0.944033,-0.70167 -1.899607,-1.38239 -2.746996,-2.20527 -0.896607,-0.89276 -1.793431,-1.78078 -2.821146,-2.52713 -0.907699,-0.74747 -1.784684,-1.53023 -2.688583,-2.28247 -0.864883,-0.71149 -1.677841,-1.48052 -2.512123,-2.22708 -1.093454,-0.90764 -2.13827,-1.89162 -3.036213,-2.99535 -0.73724,-0.87515 -1.535049,-1.62519 -2.522251,-2.21784 -0.814372,-0.73925 -1.585524,-1.52786 -2.35543,-2.31278 -0.765048,-0.7773 -1.488815,-1.58359 -2.401078,-2.19908 -1.10405,-0.7466 -2.184614,-1.52531 -3.193844,-2.39794 -0.94529,-0.78975 -1.930318,-1.53232 -2.805111,-2.40264 -0.952956,-0.97313 -1.848494,-1.99861 -2.8964,-2.87708 -0.908671,-0.88215 -1.933444,-1.63726 -2.794142,-2.57183 -1.012955,-0.92955 -2.048028,-1.83816 -3.10305,-2.71994 -0.964345,-0.76506 -1.916038,-1.54 -2.825073,-2.37091 -0.825355,-0.70303 -1.592816,-1.48018 -2.5033923,-2.07639 -0.9253363,-0.64419 -1.8626153,-1.36089 -1.9036723,-2.58724 0.4002119,-1.32636 1.5629247,-2.22742 2.4314663,-3.25631 0.9033813,-0.95142 1.8854783,-1.82033 2.6776193,-2.87131 0.80804,-1.03748 1.731409,-1.9878 2.569658,-3.00199 0.760887,-0.65995 1.350923,-1.48804 1.973409,-2.27022 0.690172,-0.77768 1.205176,-1.701383 1.912286,-2.467511 0.479116,-0.761891 1.105032,-1.419069 1.573525,-2.180521 0.600659,-0.774994 1.033592,-1.678461 1.720706,-2.397128 0.545702,-0.703418 1.140237,-1.374134 1.538494,-2.1732 0.527408,-0.807029 0.91439,-1.676839 1.461801,-2.469499 0.477603,-1.003308 1.033402,-1.977488 1.662947,-2.892171 0.608071,-0.945525 1.307542,-1.840902 1.752772,-2.884448 0.533667,-0.917045 1.04108,-1.860108 1.479238,-2.823659 0.555966,-1.06757 1.266338,-2.045431 1.768419,-3.140694 0.512887,-0.899367 0.975686,-1.829163 1.438209,-2.75363 0.503079,-0.989978 0.56642,-2.110412 0.966542,-3.140152 0.50062,-1.123889 1.073322,-2.21497 1.593606,-3.329879 0.708025,-1.571141 1.637258,-3.03558 2.258407,-4.649526 0,0 6.633816,-4.364812 6.633816,-4.364812 z"
       inkscape:connector-curvature="0"
       style="stroke-width:0.26458332" />
    <path
       id="path402"
       d="m 34.920652,164.83416 c 1.763181,0.0318 3.52683,0.017 5.290175,0.009 1.224224,-0.006 2.448462,-0.009 3.6727,-0.0105 1.068043,-0.001 2.136087,-7.9e-4 3.204127,-7.9e-4 1.066589,5e-5 2.133177,9e-5 3.199765,1.1e-4 1.068938,2e-5 2.137876,2e-5 3.206811,2e-5 1.06911,0 2.138217,0 3.207324,0 1.101008,-0.0812 2.166178,0.21169 3.248343,0.36426 1.085172,0.0875 2.148694,0.1548 3.21659,0.36764 1.043696,0.21554 2.107546,0.2806 3.169843,0.31865 1.097042,-0.0205 2.161847,0.023 3.239434,0.22151 0.710824,0.11953 0.355954,0.065 1.06458,0.16387 0,0 -5.700205,5.53483 -5.700205,5.53483 v 0 c -0.717846,-0.11256 -0.359989,-0.0547 -1.073575,-0.17343 -1.05341,-0.15304 -2.113714,-0.10308 -3.175035,-0.15445 -1.089419,-0.0625 -2.174962,-0.17302 -3.244625,-0.3968 -1.059796,-0.18016 -2.135806,-0.17868 -3.197876,-0.3477 -1.051147,-0.16594 -2.095354,-0.35794 -3.166152,-0.2797 -1.069107,0 -2.138214,0 -3.207324,0 -1.068949,0 -2.1379,0 -3.206848,2e-5 -1.066665,2e-5 -2.133327,6e-5 -3.19999,1.1e-4 -1.067506,2e-5 -2.135013,1.4e-4 -3.202516,-7.9e-4 -1.217261,-0.001 -2.434519,-0.004 -3.651766,-0.0105 -1.769475,-0.008 -3.539242,-0.0224 -5.308555,0.009 0,0 5.614775,-5.61478 5.614775,-5.61478 z"
       inkscape:connector-curvature="0"
       style="stroke-width:0.26458332" />
    <path
       id="path404"
       sodipodi:type="arc"
       sodipodi:cx="21.639137"
       sodipodi:cy="157.81026"
       sodipodi:rx="4.8191962"
       sodipodi:ry="4.6302085"
       sodipodi:start="0"
       sodipodi:end="6.2356949"
       d="m 26.458333,157.81026 a 4.8191962,4.6302085 0 0 1 -4.761981,4.62988 4.8191962,4.6302085 0 0 1 -4.875052,-4.51995 4.8191962,4.6302085 0 0 1 4.646224,-4.7372 4.8191962,4.6302085 0 0 1 4.985376,4.40746 l -4.813763,0.21981 z"
       style="stroke-width:0.26458332" />
    <path
       id="path406"
       sodipodi:type="arc"
       sodipodi:cx="48.75893"
       sodipodi:cy="101.20833"
       sodipodi:rx="5.2916665"
       sodipodi:ry="5.1026788"
       sodipodi:start="0"
       sodipodi:end="6.2356949"
       d="m 54.050597,101.20833 a 5.2916665,5.1026788 0 0 1 -5.228842,5.10232 5.2916665,5.1026788 0 0 1 -5.353,-4.98117 5.2916665,5.1026788 0 0 1 5.101738,-5.220594 5.2916665,5.1026788 0 0 1 5.474138,4.857204 l -5.285701,0.24224 z"
       style="stroke-width:0.26458332" />
  </g>
</svg>
