<?xml version="1.0" encoding="UTF-8" standalone="no"?>
<!-- Created with Inkscape (http://www.inkscape.org/) -->

<svg
   xmlns:dc="http://purl.org/dc/elements/1.1/"
   xmlns:cc="http://creativecommons.org/ns#"
   xmlns:rdf="http://www.w3.org/1999/02/22-rdf-syntax-ns#"
   xmlns:svg="http://www.w3.org/2000/svg"
   xmlns="http://www.w3.org/2000/svg"
   xmlns:sodipodi="http://sodipodi.sourceforge.net/DTD/sodipodi-0.dtd"
   xmlns:inkscape="http://www.inkscape.org/namespaces/inkscape"
   width="210mm"
   height="297mm"
   viewBox="0 0 210 297"
   version="1.1"
   id="svg208"
   inkscape:version="0.92.4 (5da689c313, 2019-01-14)"
   sodipodi:docname="Fight War Battle.svg">
  <defs
     id="defs202" />
  <sodipodi:namedview
     id="base"
     pagecolor="#ffffff"
     bordercolor="#666666"
     borderopacity="1.0"
     inkscape:pageopacity="0.0"
     inkscape:pageshadow="2"
     inkscape:zoom="0.98994949"
     inkscape:cx="467.60036"
     inkscape:cy="734.48432"
     inkscape:document-units="mm"
     inkscape:current-layer="layer1"
     showgrid="false"
     inkscape:window-width="1920"
     inkscape:window-height="1001"
     inkscape:window-x="-9"
     inkscape:window-y="-9"
     inkscape:window-maximized="1" />
  <metadata
     id="metadata205">
    <rdf:RDF>
      <cc:Work
         rdf:about="">
        <dc:format>image/svg+xml</dc:format>
        <dc:type
           rdf:resource="http://purl.org/dc/dcmitype/StillImage" />
        <dc:title></dc:title>
      </cc:Work>
    </rdf:RDF>
  </metadata>
  <g
     inkscape:label="Layer 1"
     inkscape:groupmode="layer"
     id="layer1">
    <text
       xml:space="preserve"
       style="font-style:normal;font-weight:normal;font-size:10.58333302px;line-height:1.25;font-family:sans-serif;letter-spacing:0px;word-spacing:0px;fill:#000000;fill-opacity:1;stroke:none;stroke-width:0.26458332"
       x="6.6817384"
       y="13.159761"
       id="text212"><tspan
         sodipodi:role="line"
         id="tspan210"
         x="6.6817384"
         y="13.159761"
         style="stroke-width:0.26458332">Fight/War/Battle</tspan><tspan
         sodipodi:role="line"
         x="6.6817384"
         y="26.388927"
         style="stroke-width:0.26458332"
         id="tspan214">Base Word: Assult</tspan><tspan
         sodipodi:role="line"
         x="6.6817384"
         y="39.618095"
         style="stroke-width:0.26458332"
         id="tspan216">Flexable Base</tspan></text>
    <g
       id="g242"
       transform="matrix(1.3968465,0,0,1.3968465,-9.9218496,-28.42921)">
      <path
         style="stroke-width:0.26458332"
         inkscape:connector-curvature="0"
         d="m 11.532066,110.38969 c 0.62665,-0.0606 1.253838,-0.11405 1.882419,-0.14965 0.431033,-0.0233 0.862701,-0.0285 1.29426,-0.0307 0.377497,-10e-4 0.754997,-1.7e-4 1.132495,2.2e-4 0.377102,2.7e-4 0.754203,5.3e-4 1.131305,5.3e-4 0.386233,-0.0187 0.76396,0.0702 1.143994,0.12328 0.401788,0.0219 0.794367,0.1033 1.190803,0.16506 0.412558,0.06 0.82938,0.0766 1.245605,0.0863 0.362177,-0.003 0.718939,-0.003 1.074962,0.0666 0.336108,0.0763 0.679736,0.10063 1.023036,0.11575 0.374458,0.0122 0.749183,0.0113 1.123793,0.0113 0.378328,-2.7e-4 0.756654,-8e-4 1.134982,-0.001 0.378051,-2.1e-4 0.756101,-2.3e-4 1.134152,-2.5e-4 0.377975,0 0.755951,0 1.133927,1e-5 0.377973,0 0.755949,0 1.133924,0 0.377976,0 0.755952,0 1.133928,0 0.377976,0 0.755954,0 1.13393,0 0.377976,0 0.755951,0 1.133927,0 0.369517,0.009 0.741704,-0.0287 1.106678,0.0386 1.068787,0.37824 0.414732,0.136 2.717536,1.51518 0.07222,0.0433 0.30585,0.37658 0.397356,0.46434 0.172792,0.20608 0.342384,0.43024 0.554308,0.59861 0.180017,0.25607 0.451077,0.40917 0.681849,0.6124 0.275236,0.21166 0.569431,0.41075 0.79914,0.67505 0.254616,0.24193 0.503536,0.48362 0.727194,0.75582 0.214238,0.3009 0.47158,0.56786 0.69152,0.86314 0.250182,0.19248 0.427398,0.45578 0.667221,0.65724 0.219533,0.2263 0.463547,0.43595 0.66067,0.68287 0.253272,0.20488 0.412705,0.4998 0.631285,0.73712 0.212397,0.2718 0.367729,0.58536 0.609426,0.83235 0.19762,0.25002 0.343193,0.53778 0.570161,0.76249 0.226076,0.28163 0.422606,0.5831 0.641154,0.87044 0.226899,0.32978 0.506119,0.61746 0.747726,0.93428 0.269319,0.28833 0.473501,0.63141 0.75008,0.91137 0.226539,0.29863 0.488059,0.57588 0.653738,0.914 0.139205,0.25259 0.351142,0.44549 0.519073,0.67458 0.211185,0.17974 0.335087,0.43903 0.491974,0.66702 0.146989,0.25899 0.320932,0.52317 0.545653,0.72177 0.194307,0.20302 0.360577,0.422 0.503081,0.66595 0.219845,0.22427 0.37242,0.50637 0.582642,0.73916 0.205978,0.2741 0.444915,0.52337 0.633899,0.81216 0.238646,0.23183 0.343509,0.55584 0.570296,0.79572 0.142746,0.2595 0.320398,0.49616 0.453904,0.76237 0.189992,0.26625 0.374867,0.53763 0.548277,0.81465 0.111646,0.28383 0.340252,0.48728 0.463984,0.76339 0.0254,0.0452 0.04587,0.0935 0.07624,0.13548 0.02928,0.0405 0.07048,0.0711 0.101518,0.11019 0.09361,0.118 0.134226,0.3045 0.256405,0.39659 0.03392,0.0256 0.07971,0.0293 0.119568,0.044 -0.764347,-0.44883 -1.528693,-0.89766 -2.293038,-1.3465 0.07851,0.0321 0.142725,0.0674 0.228963,0.0711 0.136263,0.006 0.284797,-0.0442 0.416271,-0.0722 0.267605,-0.0561 0.49896,-0.20567 0.73396,-0.33804 0.257715,-0.14418 0.515496,-0.28865 0.773073,-0.43353 0.303543,-0.17502 0.584456,-0.39072 0.865346,-0.60032 0.25051,-0.22412 0.457155,-0.48807 0.684773,-0.73345 0.199597,-0.23951 0.380469,-0.49467 0.569082,-0.74334 0.215146,-0.27374 0.424442,-0.55152 0.633521,-0.83001 0.214945,-0.29182 0.438735,-0.57594 0.665432,-0.85868 0.185566,-0.21545 0.389517,-0.41333 0.5846,-0.61981 0.230825,-0.22626 0.449598,-0.46713 0.649801,-0.7209 0.211854,-0.26537 0.440454,-0.51572 0.664842,-0.77023 0.241252,-0.23041 0.488561,-0.45226 0.713878,-0.69903 0.239707,-0.2309 0.475247,-0.46501 0.693338,-0.71672 0.230158,-0.26604 0.510865,-0.47945 0.757094,-0.72859 0.278924,-0.26135 0.556268,-0.52253 0.811006,-0.80791 0.243385,-0.23305 0.469511,-0.4829 0.706983,-0.72178 0.189881,-0.22098 0.412575,-0.40943 0.615934,-0.61678 0.207568,-0.20964 0.417555,-0.41745 0.618969,-0.63311 0.189288,-0.1932 0.385019,-0.3802 0.571629,-0.57602 0.178864,-0.26003 0.394944,-0.49292 0.605343,-0.7276 0.200449,-0.2369 0.408509,-0.46831 0.628555,-0.68729 0.188177,-0.19436 0.376616,-0.38892 0.571709,-0.57645 0.270949,-0.2285 0.51716,-0.48308 0.778484,-0.72253 0.313137,-0.2933 0.632722,-0.57988 0.966623,-0.84944 0.303869,-0.25768 0.623988,-0.4958 0.922173,-0.76012 0.230643,-0.19131 0.436664,-0.40921 0.663681,-0.60455 0.264184,-0.21506 0.529773,-0.42801 0.791067,-0.64672 0.242949,-0.21565 0.485884,-0.42782 0.718175,-0.65496 0.280421,-0.19607 0.498089,-0.45681 0.736886,-0.69758 0.295142,-0.30354 0.619585,-0.57535 0.922988,-0.87005 0.252735,-0.23241 0.511191,-0.45941 0.753851,-0.70247 0.101237,-0.1391 0.04727,-0.0671 0.162491,-0.21551 0,0 2.41799,1.44329 2.41799,1.44329 v 0 c -0.117967,0.14628 -0.05795,0.067 -0.178184,0.23937 -0.238061,0.25144 -0.507894,0.47201 -0.764614,0.70399 -0.299675,0.2969 -0.627478,0.5619 -0.917263,0.86945 -0.240609,0.24144 -0.449402,0.51794 -0.74047,0.70316 -0.241705,0.22729 -0.477584,0.45927 -0.728322,0.67676 -0.266541,0.20741 -0.519953,0.43186 -0.786092,0.6397 -0.225918,0.1943 -0.43134,0.40849 -0.662245,0.59655 -0.296465,0.27502 -0.6326,0.50265 -0.933823,0.77287 -0.330578,0.26426 -0.654648,0.5358 -0.956688,0.83273 -0.259085,0.24153 -0.50609,0.49371 -0.771197,0.72795 -0.202726,0.17665 -0.380815,0.38113 -0.569923,0.57175 -0.225692,0.20386 -0.422196,0.44042 -0.622649,0.66843 -0.215157,0.22911 -0.424016,0.47075 -0.60066,0.7309 -0.179639,0.20155 -0.381024,0.38312 -0.571434,0.5741 -0.196778,0.22218 -0.415695,0.42458 -0.623512,0.6362 -0.198376,0.21851 -0.433244,0.40031 -0.622342,0.62798 -0.241681,0.22491 -0.449215,0.48395 -0.698833,0.70142 -0.254193,0.29025 -0.532024,0.55774 -0.817743,0.81703 -0.235656,0.25283 -0.512617,0.46145 -0.746654,0.71609 -0.215974,0.25662 -0.44835,0.49736 -0.696886,0.7227 -0.219731,0.24867 -0.459216,0.47801 -0.708879,0.6967 -0.217615,0.25396 -0.454544,0.49078 -0.662885,0.75329 -0.199922,0.26162 -0.415859,0.51802 -0.654045,0.74492 -0.184885,0.20784 -0.392509,0.39403 -0.577651,0.60201 -0.223774,0.28122 -0.456988,0.55416 -0.663247,0.84929 -0.207756,0.27992 -0.419796,0.55538 -0.629862,0.83348 -0.193386,0.25871 -0.389586,0.51593 -0.590216,0.76878 -0.244018,0.2482 -0.448469,0.53362 -0.706578,0.76974 -0.284292,0.22735 -0.59027,0.43338 -0.888818,0.64031 -0.258177,0.13242 -0.496054,0.29927 -0.760018,0.41937 -0.245983,0.16866 -0.518922,0.30305 -0.792305,0.42135 -0.193707,0.0373 -0.393534,0.12293 -0.588246,0.14346 -1.012835,0.10678 -2.245796,-2.8931 -2.687902,-1.4527 -0.181522,-0.25409 -0.352081,-0.51837 -0.508823,-0.78826 -0.164168,-0.24283 -0.329422,-0.48377 -0.470603,-0.74139 -0.189005,-0.27155 -0.362736,-0.55453 -0.540126,-0.83358 -0.15271,-0.24464 -0.297548,-0.49539 -0.472956,-0.7244 -0.177236,-0.2749 -0.351592,-0.55089 -0.560888,-0.80313 -0.211894,-0.26772 -0.432808,-0.52769 -0.641654,-0.79773 -0.18869,-0.25828 -0.39185,-0.50589 -0.576712,-0.76653 -0.163187,-0.2178 -0.327544,-0.42967 -0.520428,-0.62335 -0.188338,-0.24525 -0.370797,-0.49336 -0.527743,-0.76052 -0.152614,-0.22872 -0.312631,-0.44803 -0.503277,-0.64645 -0.193207,-0.2173 -0.349959,-0.46323 -0.497702,-0.7131 -0.204518,-0.30054 -0.432697,-0.58558 -0.671608,-0.85945 -0.248171,-0.30996 -0.494244,-0.62116 -0.750022,-0.92504 -0.260972,-0.30224 -0.493123,-0.62736 -0.737423,-0.94294 -0.211019,-0.29132 -0.42246,-0.58238 -0.655897,-0.85647 -0.185933,-0.25756 -0.36504,-0.52049 -0.568293,-0.76497 -0.198956,-0.27928 -0.387707,-0.56649 -0.607367,-0.83029 -0.197075,-0.25737 -0.409239,-0.50089 -0.638855,-0.72951 -0.224544,-0.21946 -0.432364,-0.45577 -0.668015,-0.66407 -0.213786,-0.23368 -0.448643,-0.44767 -0.651849,-0.69055 -0.239037,-0.27757 -0.448235,-0.5793 -0.692814,-0.8523 -0.232918,-0.25688 -0.492691,-0.48822 -0.73474,-0.73654 -0.262535,-0.22596 -0.540721,-0.43273 -0.810529,-0.64976 -0.248529,-0.189 -0.462288,-0.41168 -0.679241,-0.63501 -0.180504,-0.206 -0.371073,-0.40283 -0.547069,-0.61291 -0.09108,-0.10914 -0.188822,-0.2252 -0.301929,-0.31284 -0.03818,-0.0296 -0.164846,-0.10067 -0.122772,-0.0769 2.397538,1.35147 3.071445,1.64914 2.12685,1.22396 -0.32844,-0.17547 -0.692004,-0.1051 -1.053555,-0.11424 -0.377978,0 -0.755954,0 -1.13393,0 -0.377975,0 -0.755951,0 -1.133927,0 -0.377976,0 -0.755954,0 -1.13393,0 -0.377976,0 -0.755949,0 -1.133925,-1e-5 -0.377973,0 -0.755949,0 -1.133922,0 -0.378026,0 -0.756052,0 -1.134078,1.2e-4 -0.378323,1.5e-4 -0.756646,5.3e-4 -1.134967,10e-4 -0.376191,5.3e-4 -0.75241,0.002 -1.128576,-0.003 -0.350341,-0.007 -0.702395,-0.0156 -1.048373,-0.0766 -0.350674,-0.0715 -0.685604,-0.15011 -1.048855,-0.11019 -0.423249,-0.005 -0.847071,-0.0144 -1.268165,-0.0613 -0.398097,-0.0481 -0.783489,-0.15324 -1.18474,-0.16599 -0.377015,-0.0397 -0.746718,-0.13522 -1.123577,-0.15067 -0.377117,-10e-6 -0.754233,-2e-5 -1.13135,-2.6e-4 -0.377533,-2.6e-4 -0.755064,-7.9e-4 -1.132596,-0.002 -0.431805,-2e-4 -0.863713,-2.6e-4 -1.29533,0.0143 -0.623012,0.0243 -1.245876,0.063 -1.864798,0.14059 0,0 -2.289208,-1.62482 -2.289208,-1.62482 z"
         id="path218" />
      <ellipse
         style="stroke-width:0.26458332"
         ry="2.9765625"
         rx="3.2600446"
         cy="111.36644"
         cx="48.900669"
         id="path220" />
      <ellipse
         style="stroke-width:0.26458332"
         ry="1.8898809"
         rx="1.9371279"
         cy="97.901039"
         cx="22.536831"
         id="path222" />
    </g>
    <path
       id="path224"
       d="m 99.589404,59.25 c -0.01971,0.932294 -0.0108,1.864937 -0.0104,2.797381 0.0043,1.125043 -0.03745,2.250689 0.02714,3.374292 0.07516,1.299255 0.265909,2.586485 0.363259,3.883925 0.07385,1.616575 0.132827,3.231454 0.275417,4.843952 0.16928,2.001954 0.2914,4.006294 0.49428,6.005443 0.22843,2.217825 0.31658,4.446622 0.44692,6.671683 0.19435,2.282439 0.35015,4.567764 0.5114,6.852687 0.15182,2.443782 0.4014,4.880293 0.61614,7.319297 0.2248,3.03589 0.37173,6.07639 0.6512,9.10814 0.29117,3.25136 0.68818,6.49124 1.01232,9.73934 0.44675,4.00931 0.83231,8.0226 1.16008,12.04321 0.32633,3.75476 0.66537,7.50822 0.87117,11.27186 0.23823,3.19651 0.30379,6.40143 0.44906,9.60237 0.0706,2.32453 0.28465,4.6396 0.45312,6.95798 0.10311,1.25731 0.3009,2.49961 0.50339,3.7433 0.0786,0.37719 0.17192,0.74083 0.31952,1.09602 0,0 -3.59104,-1.67896 -3.59104,-1.67896 v 0 c -0.11222,-0.37902 -0.20713,-0.76133 -0.26975,-1.15229 -0.18949,-1.24534 -0.35579,-2.49274 -0.43908,-3.75074 -0.13863,-2.30939 -0.31354,-4.6166 -0.37703,-6.92997 -0.12684,-3.19513 -0.19419,-6.39297 -0.42115,-9.58364 -0.19696,-3.75387 -0.51722,-7.49882 -0.83808,-11.24384 -0.32322,-4.02452 -0.72389,-8.03945 -1.19194,-12.04989 -0.34581,-3.25267 -0.766677,-6.49729 -1.03819,-9.75748 -0.269557,-3.03824 -0.429069,-6.08422 -0.682175,-9.123744 -0.224997,-2.4443 -0.483582,-4.886346 -0.63541,-7.336477 -0.169384,-2.28487 -0.310433,-4.571564 -0.505331,-6.854542 -0.140716,-2.223408 -0.225631,-4.451413 -0.471627,-6.666767 -0.202041,-2.002515 -0.314775,-4.011774 -0.504569,-6.01535 -0.148169,-1.617495 -0.207978,-3.238349 -0.299749,-4.859438 -0.116559,-1.300998 -0.303522,-2.594827 -0.369184,-3.900193 -0.05248,-1.13315 -0.02262,-2.267892 -0.0368,-3.402023 2.65e-4,-0.935983 0.0092,-1.872155 -0.01043,-2.807992 0,0 3.537517,1.802456 3.537517,1.802456 z"
       inkscape:connector-curvature="0"
       style="stroke-width:0.26458332" />
    <g
       id="g237"
       transform="matrix(1.9459877,0,0,1.9459877,-116.17904,-90.953832)">
      <path
         style="stroke-width:0.26458332"
         inkscape:connector-curvature="0"
         d="m 122.81303,110.38996 c 0.441,-0.0715 0.88308,-0.1403 1.3229,-0.21928 0.36468,-0.062 0.72232,-0.15682 1.08547,-0.22623 0.38666,-0.0641 0.76514,-0.17209 1.14504,-0.26827 0.40711,-0.105 0.82218,-0.17897 1.23719,-0.2452 0.52422,-0.0651 1.05177,-0.10057 1.57792,-0.14793 0.55381,-0.049 1.10954,-0.0695 1.66524,-0.08 0.52268,-0.006 1.04543,-0.005 1.56814,-0.005 0.49513,-1.3e-4 0.99025,7.9e-4 1.48538,-2.7e-4 0.48054,2.7e-4 0.96108,0.001 1.44162,2.7e-4 0.44471,0.014 0.8862,-0.008 1.32831,-0.0529 0.42676,-0.0502 0.85617,-0.0647 1.28535,-0.0757 0.44013,-0.0318 0.87836,-0.0826 1.31882,-0.1115 0.33602,-0.0211 0.67265,-0.0279 1.00924,-0.0311 0.2706,-0.002 0.5412,-0.001 0.81179,-8e-4 0.26639,2.7e-4 0.53278,5.3e-4 0.79917,5.3e-4 0.8605,-0.0139 2.00945,0.41457 2.21577,1.29511 0.0424,0.25722 0.0375,0.51908 0.0368,0.77889 -0.002,0.26895 -0.004,0.5379 -0.005,0.80685 -7.9e-4,0.26754 -7.9e-4,0.53508 -0.001,0.80262 -2e-5,0.26726 0,0.53452 1e-5,0.80178 2e-5,0.26726 2e-5,0.53453 2e-5,0.80179 0.006,0.26561 0.0726,0.52633 0.1022,0.79097 -0.003,0.24626 0.0802,0.47599 0.12106,0.71605 0.0805,0.24415 0.13213,0.49476 0.20222,0.74186 0.0614,0.2671 0.11874,0.53765 0.21137,0.79609 0.14593,0.26319 0.2977,0.52423 0.45381,0.78189 0.14881,0.24786 0.33631,0.46901 0.47996,0.7201 0.13687,0.18804 0.2967,0.35619 0.41338,0.55885 0.17337,0.18688 0.33523,0.3807 0.52026,0.55599 0.15005,0.21619 0.35293,0.37793 0.57282,0.5173 0.0271,0.0262 0.0572,0.0495 0.0813,0.0785 0.0842,0.10153 0.0329,0.0862 0.13207,0.16644 0.083,0.0672 0.18105,0.12126 0.26594,0.18764 0.1075,0.0921 0.2251,0.17583 0.34489,0.25144 0.0416,0.0262 0.17108,0.0968 0.12864,0.072 -1.56387,-0.91256 -2.11301,-1.19289 -1.45267,-0.85272 0.24716,0.14179 0.51101,0.24565 0.78287,0.3282 0.2124,0.099 0.44503,0.12953 0.66707,0.19582 0.20969,0.0675 0.42621,0.10037 0.63672,0.16494 0.24289,0.0558 0.48563,0.11023 0.72732,0.17195 0.26116,0.0964 0.53362,0.14204 0.80733,0.18416 0.29649,0.0628 0.59594,0.10526 0.89791,0.12907 0.27082,0.0178 0.54234,0.0185 0.81362,0.0193 0.26702,1.5e-4 0.53403,-5.2e-4 0.80105,-7.9e-4 0.2672,-2.6e-4 0.53439,-2.6e-4 0.80158,-2.6e-4 0.23644,0.0155 0.46488,-0.0493 0.69612,-0.0863 0.25832,-0.017 0.51057,-0.0694 0.7648,-0.11458 0.23484,-0.0244 0.46496,-0.0634 0.69094,-0.13228 0.22596,-0.0756 0.43317,-0.19084 0.64754,-0.29233 0.20208,-0.10529 0.40712,-0.20376 0.60616,-0.31486 0.19899,-0.10256 0.40072,-0.1951 0.58828,-0.31821 0.18676,-0.11509 0.36405,-0.2424 0.53581,-0.37857 0.1979,-0.13963 0.36621,-0.31369 0.52453,-0.4957 0.20696,-0.2237 0.38171,-0.47341 0.5733,-0.70987 0.19238,-0.25335 0.3646,-0.52134 0.5705,-0.764 0.1675,-0.19645 0.32815,-0.39539 0.47264,-0.60943 0.174,-0.18602 0.2836,-0.41534 0.41726,-0.62869 0.13277,-0.20006 0.23597,-0.41542 0.34483,-0.62878 0.0769,-0.22424 0.15773,-0.44429 0.25917,-0.65891 0.11434,-0.21694 0.16988,-0.45497 0.25511,-0.68246 0.0784,-0.22647 0.17095,-0.44646 0.22521,-0.68049 0.0926,-0.2507 0.14331,-0.51063 0.17034,-0.77557 0.0653,-0.26386 0.11079,-0.53053 0.13455,-0.80116 0.0186,-0.26419 0.0187,-0.5292 0.0194,-0.79391 8e-5,-0.2671 -5.3e-4,-0.53421 -7.9e-4,-0.80131 -2.7e-4,-0.2673 -2.7e-4,-0.5346 -2.7e-4,-0.8019 -2e-5,-0.26728 -1e-5,-0.53455 -1e-5,-0.80183 0,-0.17819 0,-0.0891 0,-0.26726 0,0 1.76999,0.90185 1.76999,0.90185 v 0 c 0,0.17811 0,0.0892 0,0.26727 0,0.26726 -1e-5,0.53453 2e-5,0.80179 5e-5,0.26724 1.2e-4,0.53448 5.3e-4,0.80171 2.7e-4,0.26744 0.001,0.53488 2.7e-4,0.80231 -0.002,0.27025 -0.004,0.54092 -0.0279,0.81028 -0.029,0.27105 -0.0815,0.53718 -0.13604,0.80404 -0.0342,0.27207 -0.0937,0.53796 -0.1814,0.79811 -0.0614,0.23929 -0.15209,0.46839 -0.23489,0.70082 -0.0846,0.23411 -0.14991,0.47485 -0.26356,0.6982 -0.103,0.21632 -0.17497,0.44189 -0.26213,0.6646 -0.11292,0.21785 -0.21912,0.43866 -0.35477,0.64384 -0.13713,0.21276 -0.24127,0.4486 -0.42097,0.63208 -0.14749,0.2222 -0.31078,0.42861 -0.48645,0.629 -0.20803,0.23863 -0.37967,0.50466 -0.56968,0.75761 -0.19235,0.23797 -0.36615,0.49027 -0.57164,0.71747 -0.16405,0.19391 -0.33978,0.3794 -0.5435,0.53232 -0.17997,0.13365 -0.35126,0.27745 -0.54456,0.3926 -0.19193,0.12114 -0.38049,0.24184 -0.59376,0.32397 -0.20102,0.1246 -0.4157,0.21588 -0.62086,0.33256 -0.22164,0.0915 -0.41918,0.22931 -0.64916,0.3016 -0.22369,0.10454 -0.47355,0.14471 -0.71811,0.16501 -0.25651,0.0379 -0.50552,0.11348 -0.76572,0.11951 -0.24008,0.0283 -0.47267,0.10412 -0.7138,0.10743 -0.26715,1e-5 -0.5343,2e-5 -0.80146,2.2e-4 -0.26712,2.3e-4 -0.53423,7.9e-4 -0.80136,0.001 -0.27404,1.5e-4 -0.54821,10e-4 -0.82209,-0.01 -0.30654,-0.0158 -0.61254,-0.0447 -0.91283,-0.11112 -0.27229,-0.059 -0.55681,-0.0607 -0.81974,-0.16418 -0.2319,-0.0854 -0.47743,-0.13521 -0.72066,-0.1746 -0.21551,-0.0531 -0.41879,-0.13266 -0.64117,-0.15907 -0.068,-0.0227 -0.13238,-0.0567 -0.20187,-0.0744 -0.15648,-0.04 -0.32688,-0.0346 -0.47331,-0.1157 -0.26088,-0.11474 -0.55271,-0.15797 -0.8036,-0.30291 -0.79527,-0.50018 -1.68258,-0.85786 -2.41163,-1.45702 -0.17408,-0.13184 -0.30964,-0.29518 -0.48243,-0.42703 -0.20403,-0.16573 -0.39022,-0.34276 -0.55868,-0.54548 -0.18,-0.18749 -0.35801,-0.38167 -0.50613,-0.59543 -0.13808,-0.18634 -0.28813,-0.36389 -0.40951,-0.5622 -0.16089,-0.2394 -0.32922,-0.4738 -0.47564,-0.72268 -0.15513,-0.26871 -0.33067,-0.53016 -0.43719,-0.82302 -0.0764,-0.26585 -0.14351,-0.53389 -0.20896,-0.80255 -0.0712,-0.25152 -0.12815,-0.50691 -0.19704,-0.75902 -0.0504,-0.24078 -0.10503,-0.47929 -0.11304,-0.72658 -0.036,-0.27016 -0.10039,-0.5386 -0.0915,-0.81264 0,-0.26726 0,-0.53453 -2e-5,-0.80179 -1e-5,-0.26728 -4e-5,-0.53456 2e-5,-0.80184 1.1e-4,-0.26776 2.5e-4,-0.53551 0.001,-0.80327 0.001,-0.26861 0.004,-0.53722 0.004,-0.80583 -0.002,-0.23927 0.007,-0.48707 -0.0719,-0.71607 -0.31092,-0.51798 -2.20246,-1.28995 1.5221,0.79664 0.0291,0.0163 -0.0511,-0.0444 -0.0816,-0.0579 -0.0857,-0.0381 -0.15212,-0.0274 -0.24389,-0.0274 -0.26642,-2e-5 -0.53283,-4e-5 -0.79924,-2.7e-4 -0.27078,-2.6e-4 -0.54155,-7.9e-4 -0.81232,-0.001 -0.33697,2.5e-4 -0.67405,0.002 -1.01075,0.017 -0.44243,0.0225 -0.88331,0.0621 -1.32285,0.11789 -0.42613,0.006 -0.85267,0.017 -1.27683,0.0617 -0.44692,0.0462 -0.89136,0.0929 -1.34178,0.0681 -0.48039,-8e-4 -0.96079,0 -1.44117,8e-5 -0.49623,-10e-4 -0.99245,-10e-4 -1.48867,-0.002 -0.52182,-5.3e-4 -1.04365,-0.002 -1.56546,0.003 -0.55451,0.007 -1.10933,0.0188 -1.66224,0.0645 -0.52139,0.0454 -1.04174,0.0983 -1.56298,0.14362 -0.40998,0.0584 -0.8175,0.13943 -1.22143,0.2297 -0.19917,0.0555 -0.40127,0.0926 -0.60065,0.14694 -0.13052,0.0356 -0.25649,0.0879 -0.38856,0.11722 -0.0534,0.0118 -0.10851,0.0133 -0.16276,0.02 -0.36559,0.0586 -0.7205,0.16024 -1.08552,0.22139 -0.43913,0.0934 -0.89097,0.12275 -1.32678,0.23675 0,0 -1.61872,-1.14892 -1.61872,-1.14892 z"
         id="path228" />
      <ellipse
         style="stroke-width:0.26458332"
         ry="2.0713389"
         rx="2.1381562"
         cy="98.218285"
         cx="131.49661"
         id="path230" />
      <circle
         style="stroke-width:0.26458332"
         r="1.8708867"
         cy="110.84677"
         cx="152.41045"
         id="path232" />
    </g>
    <text
       xml:space="preserve"
       style="font-style:normal;font-weight:normal;font-size:10.58333302px;line-height:1.25;font-family:sans-serif;letter-spacing:0px;word-spacing:0px;fill:#000000;fill-opacity:1;stroke:none;stroke-width:0.26458332"
       x="8.0180855"
       y="77.037178"
       id="text246"><tspan
         sodipodi:role="line"
         id="tspan244"
         x="8.0180855"
         y="77.037178"
         style="stroke-width:0.26458332">Formal Battle</tspan></text>
    <text
       xml:space="preserve"
       style="font-style:normal;font-weight:normal;font-size:10.58333302px;line-height:1.25;font-family:sans-serif;letter-spacing:0px;word-spacing:0px;fill:#000000;fill-opacity:1;stroke:none;stroke-width:0.26458332"
       x="115.7277"
       y="74.899017"
       id="text250"><tspan
         sodipodi:role="line"
         x="115.7277"
         y="74.899017"
         style="stroke-width:0.26458332"
         id="tspan252">Like a bar fight</tspan></text>
  </g>
</svg>
