<?xml version="1.0" encoding="UTF-8" standalone="no"?>
<!-- Created with Inkscape (http://www.inkscape.org/) -->

<svg
   xmlns:dc="http://purl.org/dc/elements/1.1/"
   xmlns:cc="http://creativecommons.org/ns#"
   xmlns:rdf="http://www.w3.org/1999/02/22-rdf-syntax-ns#"
   xmlns:svg="http://www.w3.org/2000/svg"
   xmlns="http://www.w3.org/2000/svg"
   xmlns:sodipodi="http://sodipodi.sourceforge.net/DTD/sodipodi-0.dtd"
   xmlns:inkscape="http://www.inkscape.org/namespaces/inkscape"
   width="210mm"
   height="297mm"
   viewBox="0 0 210 297"
   version="1.1"
   id="svg159"
   inkscape:version="0.92.4 (5da689c313, 2019-01-14)"
   sodipodi:docname="Fire Light.svg">
  <defs
     id="defs153" />
  <sodipodi:namedview
     id="base"
     pagecolor="#ffffff"
     bordercolor="#666666"
     borderopacity="1.0"
     inkscape:pageopacity="0.0"
     inkscape:pageshadow="2"
     inkscape:zoom="0.7"
     inkscape:cx="517.38965"
     inkscape:cy="616.08688"
     inkscape:document-units="mm"
     inkscape:current-layer="layer1"
     showgrid="false"
     inkscape:window-width="1920"
     inkscape:window-height="1001"
     inkscape:window-x="-9"
     inkscape:window-y="-9"
     inkscape:window-maximized="1" />
  <metadata
     id="metadata156">
    <rdf:RDF>
      <cc:Work
         rdf:about="">
        <dc:format>image/svg+xml</dc:format>
        <dc:type
           rdf:resource="http://purl.org/dc/dcmitype/StillImage" />
        <dc:title></dc:title>
      </cc:Work>
    </rdf:RDF>
  </metadata>
  <g
     inkscape:label="Layer 1"
     inkscape:groupmode="layer"
     id="layer1">
    <text
       xml:space="preserve"
       style="font-style:normal;font-weight:normal;font-size:10.58333302px;line-height:1.25;font-family:sans-serif;letter-spacing:0px;word-spacing:0px;fill:#000000;fill-opacity:1;stroke:none;stroke-width:0.26458332"
       x="8.6934528"
       y="14.651785"
       id="text163"><tspan
         sodipodi:role="line"
         id="tspan161"
         x="8.6934528"
         y="14.651785"
         style="stroke-width:0.26458332">Light/Fire</tspan><tspan
         sodipodi:role="line"
         x="8.6934528"
         y="27.880951"
         style="stroke-width:0.26458332"
         id="tspan165">Base Symbol</tspan><tspan
         sodipodi:role="line"
         x="8.6934528"
         y="41.110119"
         style="stroke-width:0.26458332"
         id="tspan167">Root Word: Candle</tspan><tspan
         sodipodi:role="line"
         x="8.6934528"
         y="54.339283"
         style="stroke-width:0.26458332"
         id="tspan169" /></text>
    <path
       id="path171"
       d="m 24.56164,135.60502 c 1.013322,-1.01841 2.109143,-1.94904 3.174916,-2.91112 0.788501,-0.75893 1.613546,-1.4742 2.476564,-2.14673 0.632484,-0.48486 1.265028,-0.96986 1.912117,-1.43526 0.612132,-0.50906 1.30002,-0.91008 1.965836,-1.34194 0.664302,-0.46511 1.332642,-0.92427 2.001554,-1.38254 0.737764,-0.50149 1.376288,-1.12727 2.070208,-1.68432 0.719376,-0.58143 1.473888,-1.1196 2.244294,-1.63113 2.284907,-1.46532 4.697444,-2.7197 7.068288,-4.03206 0.755708,-0.37882 1.528128,-0.72752 2.270194,-1.1332 -9.316447,5.42649 -2.099672,1.08651 1.139566,-0.61505 0.334375,-0.17564 0.61446,-0.36222 0.971515,-0.49821 0.582912,-0.32327 1.23897,-0.54455 1.785493,-0.92555 3.937439,-2.21337 -16.220114,9.3222 0.832768,-0.45805 1.51483,-0.86879 -3.024751,1.74616 -4.542779,2.60935 -0.07572,0.0431 0.218011,-0.14648 0.511355,-0.33648 1.881656,-1.51265 4.152535,-2.50625 6.191184,-3.74263 1.482473,-0.89907 -3.005868,1.72888 -4.508802,2.59332 0.571069,-0.3704 1.146868,-0.73139 1.712021,-1.11052 0.505243,-0.40626 1.035606,-0.78028 1.567111,-1.15096 1.832555,-1.24083 3.881017,-2.26202 5.748639,-3.35418 1.494544,-0.87399 -2.999549,1.73 -4.504034,2.58677 -0.04585,0.0261 0.230257,-0.14891 0.558057,-0.35712 0.531349,-0.4818 1.081894,-0.92655 1.659355,-1.35183 0.687951,-0.4461 1.386028,-0.8465 1.994834,-1.40041 0.643462,-0.6246 1.339967,-1.19263 2.05376,-1.73443 0.760245,-0.56786 1.394703,-1.27881 2.092957,-1.91889 0.723207,-0.58673 1.460825,-1.14235 2.156611,-1.76253 0.566597,-0.62539 1.163465,-1.18662 1.850919,-1.67853 0.835395,-0.49959 1.591323,-1.1122 2.376255,-1.68387 0.728474,-0.46214 1.42504,-0.95334 2.077929,-1.51726 1.642409,-1.511003 4.512405,-5.091734 6.197282,-3.032172 0.258575,0.587946 0.373983,1.219046 0.617937,1.816425 0.27495,0.5593 0.694878,1.005674 1.092631,1.476537 0.494845,0.55814 1.056106,1.05333 1.579774,1.58387 0.539883,0.54853 0.970677,1.1853 1.570972,1.67225 0.727906,0.54637 1.407041,1.15182 2.073624,1.77029 0.673735,0.44924 1.273815,0.9706 1.873554,1.51311 0.59417,0.5438 1.199312,1.06513 1.764004,1.64095 0.686482,0.57864 1.38965,1.13719 2.006563,1.79116 0.61124,0.58812 1.132173,1.26187 1.697667,1.8934 0.544256,0.62321 1.047128,1.269 1.502108,1.96019 0.386602,0.63609 0.787792,1.2624 1.168699,1.90267 0.493424,0.72232 0.982284,1.44818 1.52391,2.13588 0.700302,0.81928 1.400146,1.64097 2.04818,2.50268 0.62067,0.75797 1.13366,1.58 1.56597,2.45706 0.33495,0.73808 0.83058,1.38278 1.21416,2.09228 0.26039,0.61319 0.56332,1.20882 0.87564,1.79721 0.43271,0.70709 0.85643,1.42015 1.24178,2.15432 0.37657,0.73931 0.50571,1.55042 0.57547,2.36699 0.0607,0.7711 0.3422,1.48487 0.62956,2.19348 0.27575,0.75274 0.61292,1.4897 0.98982,2.19732 0.36221,0.53686 0.97075,0.57069 1.56277,0.61325 0.73651,0.0303 1.47399,0.0163 2.21086,0.0104 0.75839,-0.006 1.51681,-0.008 2.27523,-0.01 0.75639,-0.001 1.51279,-7.9e-4 2.26919,-7.9e-4 0.75594,4e-5 1.51188,8e-5 2.26782,1e-4 0.75595,2e-5 1.51189,2e-5 2.26784,2e-5 0.75595,0 1.5119,0 2.26785,0 0.75596,0 1.51191,0 2.26786,0 0.75596,0 1.51191,0 2.26786,0 0.75595,0 1.5119,0 2.26786,0 0.75595,0 1.5119,0 2.26785,0 0.75596,0 1.51191,0 2.26786,0 0.78228,-0.0725 1.52985,0.0796 2.29475,0.20945 0.74269,0.12069 1.49538,0.14669 2.24617,0.16324 0.75487,0.19764 1.54384,0.21694 2.29635,0.41082 0.73289,0.20687 1.48891,0.28406 2.24626,0.32672 0.75154,0.0314 1.50395,0.0282 2.25598,0.0277 0.75582,-0.001 1.51164,-0.003 2.26746,-0.003 0.50401,-5.3e-4 1.00802,-5.3e-4 1.51203,-5.3e-4 0,0 -4.54552,3.30269 -4.54552,3.30269 v 0 c -0.50392,1.8e-4 -1.00784,2.7e-4 -1.51177,0.001 -0.75608,0.001 -1.51217,0.003 -2.26826,0.002 -0.76015,-0.003 -1.52125,-0.004 -2.27973,-0.0609 -0.77319,-0.0708 -1.53643,-0.19787 -2.28945,-0.38972 -0.74389,-0.12285 -1.48969,-0.25326 -2.23937,-0.32842 -0.76691,-0.0315 -1.53347,-0.0861 -2.28954,-0.22541 -0.74439,-0.12395 -1.48574,-0.16535 -2.24097,-0.13287 -0.75595,0 -1.5119,0 -2.26785,0 -0.75596,0 -1.51191,0 -2.26786,0 -0.75595,0 -1.5119,0 -2.26786,0 -0.75595,0 -1.5119,0 -2.26785,0 -0.75596,0 -1.51191,0 -2.26786,0 -0.75596,0 -1.51191,0 -2.26786,-1e-5 -0.75595,0 -1.5119,0 -2.26784,-3e-5 -0.75594,-2e-5 -1.51187,-8e-5 -2.26781,-7e-5 -0.75614,7e-5 -1.51228,9e-5 -2.26842,0.002 -0.75791,0.002 -1.5158,0.006 -2.27369,0.0117 -0.7522,0.004 -1.50767,0.0191 -2.25632,-0.0667 -0.75866,-0.1286 -1.43185,-0.38012 -1.85105,-1.07181 -0.37911,-0.72719 -0.73196,-1.47827 -1.01366,-2.24821 -0.30817,-0.76128 -0.62167,-1.52161 -0.71601,-2.34592 -0.0447,-0.74421 -0.12551,-1.48982 -0.4608,-2.16842 -0.381059,-0.73383 -0.808961,-1.44218 -1.24518,-2.14429 -0.319024,-0.58523 -0.628997,-1.17967 -0.87739,-1.79836 -0.378722,-0.7196 -0.876443,-1.37279 -1.216057,-2.11542 -0.407871,-0.84968 -0.903621,-1.63976 -1.498856,-2.37239 -0.644083,-0.86044 -1.353416,-1.66867 -2.049434,-2.48692 -0.555945,-0.70691 -1.060775,-1.45088 -1.57091,-2.19084 -0.380455,-0.63036 -0.775679,-1.25093 -1.154475,-1.88189 -0.442365,-0.66485 -0.929101,-1.2899 -1.452563,-1.89347 -0.563647,-0.62539 -1.089572,-1.28546 -1.687663,-1.87859 -0.625287,-0.64224 -1.344105,-1.17725 -2.006584,-1.77936 -0.56396,-0.56117 -1.166175,-1.07606 -1.75581,-1.60955 -0.599516,-0.5391 -1.213384,-1.04528 -1.858689,-1.5287 -0.669052,-0.60971 -1.359147,-1.19345 -2.077281,-1.74487 -0.583613,-0.52417 -1.044792,-1.15201 -1.596171,-1.70793 -0.540506,-0.53443 -1.097819,-1.05408 -1.604584,-1.62103 -0.439711,-0.51244 -0.886206,-1.01591 -1.184087,-1.6294 -0.216773,-0.52818 -0.399539,-1.0627 -0.524534,-1.6188 -0.05108,-0.009 -0.193418,0.0714 -0.148764,0.0451 6.983481,-4.111256 5.584309,-3.659404 3.961669,-2.099764 -0.592624,0.641964 -1.296154,1.172408 -2.061265,1.595921 -0.786556,0.572803 -1.539716,1.190523 -2.363912,1.709633 -0.718521,0.42622 -1.389301,0.90301 -1.873266,1.59673 -0.699661,0.62558 -1.37396,1.25891 -2.171639,1.76213 -0.704805,0.63986 -1.374965,1.30851 -2.060662,1.96235 -0.716153,0.53663 -1.431237,1.07061 -2.093661,1.67449 -0.609386,0.6339 -1.156891,1.07823 -1.935695,1.48726 -0.61065,0.3683 -1.199197,0.77531 -1.671312,1.31746 -0.3346,0.30338 -0.149947,0.16721 -0.546954,0.39882 -1.70279,0.99339 -3.421497,1.96 -5.108213,2.98044 -1.475396,0.8926 2.980227,-1.73563 4.474163,-2.59685 0.206282,-0.11891 -0.775841,0.49057 -0.61645,0.36089 -0.523412,0.38133 -1.050574,0.74016 -1.576687,1.11736 -0.497128,0.47793 -1.121037,0.78878 -1.698284,1.16032 -10.372664,6.07871 -3.480509,2.03188 -0.616161,0.38166 0.103449,-0.0596 -0.197522,0.13435 -0.299522,0.1964 -0.269393,0.16388 -0.528005,0.32935 -0.778129,0.52348 -0.287904,0.27973 -0.148606,0.17782 -0.496398,0.38145 -1.692055,0.99068 -3.419401,1.92321 -5.077817,2.96923 -1.473335,0.92929 6.034379,-3.48347 4.522219,-2.6188 -1.701819,0.97313 -3.394139,1.96277 -5.091211,2.94416 -0.08583,0.0489 -0.171664,0.0977 -0.257495,0.14658 -0.610978,0.28126 -1.190702,0.62609 -1.815788,0.87908 -0.319172,0.16636 -0.634693,0.33794 -0.953987,0.50402 -0.122647,0.0638 -0.485095,0.26533 -0.365651,0.19572 1.939843,-1.13045 10.826247,-6.25494 -0.762632,0.43205 -0.758217,0.37353 -1.51374,0.75271 -2.266273,1.13753 -0.45379,0.23232 -0.308991,0.15521 -0.753126,0.3943 -0.127354,0.0686 -0.506558,0.27938 -0.381635,0.20648 7.852384,-4.58243 5.365351,-3.08125 3.662624,-2.12885 -0.765934,0.51235 -1.54283,1.01289 -2.262444,1.58947 -0.703625,0.54745 -1.359132,1.14253 -2.046747,1.70966 -0.662851,0.47544 -1.337374,0.92395 -2.013419,1.38093 -0.621731,0.48984 -1.337672,0.83189 -1.966912,1.31252 -0.604721,0.52749 -1.314961,0.92692 -1.915435,1.46302 -0.908371,0.61184 -1.729714,1.34667 -2.522477,2.09976 -1.053319,0.95753 -2.154113,1.86584 -3.158561,2.87454 0,0 -5.182313,2.14658 -5.182313,2.14658 z"
       inkscape:connector-curvature="0"
       style="stroke-width:0.26458332" />
    <path
       id="path173"
       d="m 107.893,160.49422 c -0.32883,1.35012 -0.88401,2.6154 -1.67736,3.75326 -0.61105,0.86159 -1.43114,1.5153 -2.24197,2.17479 -0.78734,0.59388 -1.51774,1.25612 -2.27759,1.88407 -0.72931,0.65598 -1.50487,1.25472 -2.267654,1.87024 -0.765908,0.61217 -1.563336,1.18199 -2.384124,1.71774 -0.736316,0.55194 -1.463696,1.1183 -2.180637,1.69578 -0.783405,0.67808 -1.564862,1.3613 -2.313715,2.07767 -0.692476,0.71278 -1.482828,1.30927 -2.082319,2.10698 -0.46596,0.69142 -0.892077,1.40429 -1.424101,2.04806 -0.571534,0.60587 -1.188805,1.16216 -1.810829,1.71476 -0.677209,0.52712 -1.322504,1.09078 -1.980912,1.64039 -0.690121,0.48763 -1.364385,0.99581 -2.068568,1.46322 -1.946323,1.23179 -3.976177,2.30302 -5.965574,3.47788 -1.457695,0.86086 2.931049,-1.69501 4.403506,-2.53037 0.231634,-0.13142 -0.439492,0.30144 -0.649992,0.46458 -0.705482,0.52235 -1.334166,1.13588 -1.98434,1.7229 -2.183008,1.75371 -4.681503,3.13537 -7.255238,4.23349 0,0 4.390353,-3.48494 4.390353,-3.48494 v 0 c 1.785549,-0.86112 4.134753,-2.35179 -3.497373,2.11276 -0.609857,0.35674 1.799082,-0.95406 1.163873,-0.76014 0.690165,-0.54026 1.271069,-1.20481 1.965867,-1.74176 0.218681,-0.16728 0.39909,-0.38648 0.63546,-0.52766 4.777444,-2.85357 8.502235,-4.8545 0.819629,-0.45495 -0.256341,0.1468 0.962105,-0.65047 0.739733,-0.48799 0.736751,-0.41158 1.387441,-0.93952 2.079689,-1.41834 0.725947,-0.45715 1.262475,-1.15112 2.009174,-1.58958 0.611383,-0.55638 1.243467,-1.08626 1.826096,-1.67073 0.611645,-0.56596 1.00526,-1.28141 1.468001,-1.965 0.532516,-0.89437 1.28502,-1.52101 2.04375,-2.21607 0.733864,-0.73859 1.524172,-1.41168 2.288878,-2.11825 0.70575,-0.60198 1.461043,-1.13694 2.163213,-1.74261 0.789323,-0.57221 1.636884,-1.06406 2.403279,-1.67286 0.749604,-0.63288 1.553969,-1.1946 2.269,-1.86786 0.754973,-0.63493 1.49633,-1.2895 2.276208,-1.88783 0.794001,-0.65901 1.655717,-1.24457 2.306727,-2.05722 0.84245,-1.03907 1.45054,-2.21422 1.75372,-3.52593 0,0 5.05614,-2.43848 5.05614,-2.43848 z"
       inkscape:connector-curvature="0"
       style="stroke-width:0.26458332" />
    <ellipse
       id="path177"
       cx="105.64434"
       cy="152.09338"
       rx="2.2678571"
       ry="2.0316219"
       style="stroke-width:0.26458332" />
  </g>
</svg>
