<?xml version="1.0" encoding="UTF-8" standalone="no"?>
<!-- Created with Inkscape (http://www.inkscape.org/) -->

<svg
   xmlns:dc="http://purl.org/dc/elements/1.1/"
   xmlns:cc="http://creativecommons.org/ns#"
   xmlns:rdf="http://www.w3.org/1999/02/22-rdf-syntax-ns#"
   xmlns:svg="http://www.w3.org/2000/svg"
   xmlns="http://www.w3.org/2000/svg"
   xmlns:sodipodi="http://sodipodi.sourceforge.net/DTD/sodipodi-0.dtd"
   xmlns:inkscape="http://www.inkscape.org/namespaces/inkscape"
   width="210mm"
   height="297mm"
   viewBox="0 0 210 297"
   version="1.1"
   id="svg185"
   inkscape:version="0.92.4 (5da689c313, 2019-01-14)"
   sodipodi:docname="First Initial Start.svg">
  <defs
     id="defs179" />
  <sodipodi:namedview
     id="base"
     pagecolor="#ffffff"
     bordercolor="#666666"
     borderopacity="1.0"
     inkscape:pageopacity="0.0"
     inkscape:pageshadow="2"
     inkscape:zoom="0.7"
     inkscape:cx="751.55709"
     inkscape:cy="609.15014"
     inkscape:document-units="mm"
     inkscape:current-layer="layer1"
     showgrid="false"
     inkscape:window-width="1920"
     inkscape:window-height="1001"
     inkscape:window-x="-9"
     inkscape:window-y="-9"
     inkscape:window-maximized="1" />
  <metadata
     id="metadata182">
    <rdf:RDF>
      <cc:Work
         rdf:about="">
        <dc:format>image/svg+xml</dc:format>
        <dc:type
           rdf:resource="http://purl.org/dc/dcmitype/StillImage" />
        <dc:title></dc:title>
      </cc:Work>
    </rdf:RDF>
  </metadata>
  <g
     inkscape:label="Layer 1"
     inkscape:groupmode="layer"
     id="layer1">
    <text
       xml:space="preserve"
       style="font-style:normal;font-weight:normal;font-size:10.58333302px;line-height:1.25;font-family:sans-serif;letter-spacing:0px;word-spacing:0px;fill:#000000;fill-opacity:1;stroke:none;stroke-width:0.26458332"
       x="16.630953"
       y="21.077381"
       id="text189"><tspan
         sodipodi:role="line"
         id="tspan187"
         x="16.630953"
         y="21.077381"
         style="stroke-width:0.26458332">First/initial/start</tspan><tspan
         sodipodi:role="line"
         x="16.630953"
         y="34.306549"
         style="stroke-width:0.26458332"
         id="tspan191">Flexable Base</tspan><tspan
         sodipodi:role="line"
         x="16.630953"
         y="47.535713"
         style="stroke-width:0.26458332"
         id="tspan193">Root Word: First</tspan></text>
    <g
       id="g203"
       transform="matrix(7.0995809,0,0,8.5026276,-180.82352,-667.05226)">
      <path
         style="stroke-width:0.26458332"
         inkscape:connector-curvature="0"
         d="m 38.946333,90.101922 c 0.241382,0.708337 0.535929,1.398619 0.889129,2.058394 0.312838,0.529855 0.651301,1.044141 0.931728,1.592348 0.279961,0.464222 0.531974,0.939127 0.770318,1.425119 0.361038,0.550609 0.629706,1.15247 0.954355,1.724229 0.354201,0.551868 0.688155,1.115991 1.031767,1.674278 0.357071,0.514924 0.805489,0.960874 1.205365,1.4431 0.413842,0.50833 0.852019,0.99565 1.302673,1.47138 0.385718,0.37673 0.750028,0.7675 1.059781,1.20938 0.309636,0.48871 0.742711,0.87149 1.098679,1.3223 0.332047,0.49108 0.799394,0.8583 1.195636,1.29202 0.389343,0.43887 0.787945,0.8692 1.194229,1.2924 0.254744,0.26197 0.127378,0.13164 0.382087,0.391 0,0 -2.583859,-1.0739 -2.583859,-1.0739 v 0 c -0.253434,-0.2611 -0.126794,-0.12981 -0.379908,-0.39388 -0.402071,-0.42572 -0.793406,-0.86118 -1.190905,-1.29113 -0.415883,-0.41952 -0.842582,-0.82802 -1.188363,-1.31045 -0.37696,-0.43725 -0.779346,-0.8525 -1.097756,-1.33747 -0.328766,-0.41822 -0.698648,-0.79687 -1.068557,-1.17863 -0.443944,-0.480858 -0.871789,-0.975758 -1.288846,-1.480134 -0.416687,-0.479604 -0.865362,-0.940818 -1.195544,-1.487 -0.336833,-0.563065 -0.688046,-1.117272 -1.022334,-1.681821 -0.316452,-0.582486 -0.617019,-1.173269 -0.9583,-1.741827 -0.23605,-0.482782 -0.515133,-0.941128 -0.768921,-1.414544 -0.295863,-0.537557 -0.634265,-1.050356 -0.923245,-1.592011 -0.33967,-0.683014 -0.627822,-1.389317 -0.888976,-2.10592 0,0 2.539767,1.192769 2.539767,1.192769 z"
         id="path195" />
      <path
         style="stroke-width:0.26458332"
         inkscape:connector-curvature="0"
         d="m 29.645237,96.121502 c 0.327414,0.004 0.654886,0.003 0.982321,0.002 0.245605,-0.002 0.491209,-0.001 0.736817,-0.001 0.232203,0.0146 0.463886,0.0461 0.694441,0.0781 0.233532,0.0324 0.446879,0.13448 0.668092,0.20924 0.192455,0.0558 0.391734,0.0799 0.587613,0.12114 0.184115,0.04 0.372141,0.0523 0.559892,0.0596 0.1884,0.005 0.376897,0.005 0.565349,0.004 0.188989,-2.7e-4 0.377981,-5.3e-4 0.56697,-5.3e-4 0.188997,-1e-4 0.377994,-1.1e-4 0.566992,-1.1e-4 0.626303,-0.006 1.414798,0.29926 1.639247,0.90673 0.04106,0.18149 0.04597,0.36595 0.08041,0.54874 0.03638,0.19086 0.04783,0.3849 0.05469,0.57866 0.005,0.1901 0.0044,0.38029 0.0043,0.57044 0.01233,0.0924 -0.01595,0.19172 -2.65e-4,0.28356 0.0145,0.0855 0.06717,0.18044 0.09505,0.26283 0.04773,0.19259 0.113268,0.379048 0.150696,0.574268 0.0099,0.19527 0.06866,0.3766 0.13081,0.55978 0.04499,0.19131 0.09629,0.38085 0.138686,0.57288 0.03115,0.19042 0.04311,0.38036 0.08233,0.56928 0.03233,0.18948 0.04989,0.37838 0.09151,0.56601 0.05275,0.18167 0.03117,0.37619 0.07894,0.5573 0.232751,0.31351 1.737227,1.09922 -1.036535,-0.59171 -0.02421,-0.0148 0.0498,0.0275 0.07638,0.0374 0.06301,0.0234 0.11785,0.0285 0.183821,0.0388 0.195289,0.0206 0.392065,0.0171 0.588137,0.0161 0.190437,-0.002 0.380876,-0.002 0.571318,-0.003 0.188971,-5.3e-4 0.377941,-5.3e-4 0.566912,-5.3e-4 0.188965,0 0.377928,1e-5 0.566894,2e-5 0.193137,-0.009 0.382026,0.0351 0.572063,0.0616 0.192021,0.0108 0.379749,0.047 0.568587,0.0806 0.191106,0.023 0.376502,0.0749 0.566124,0.10646 0.191442,0.0142 0.379074,0.0497 0.567751,0.0831 0.629083,0.0714 1.347983,0.28973 1.69568,0.8693 0.0733,0.17295 0.0755,0.36278 0.07932,0.54757 0.0013,0.19052 -0.0011,0.38105 -0.0024,0.57157 -0.0011,0.18925 -0.0013,0.3785 -0.0013,0.56775 -9e-5,0.18898 -6.3e-5,0.37796 -5.5e-5,0.56694 1.3e-5,0.18899 1.6e-5,0.37797 1.8e-5,0.56695 3e-6,0.18899 3e-6,0.37798 3e-6,0.56697 -0.0044,0.17945 -0.0072,0.35339 0.03387,0.52819 0.0324,0.16801 0.0726,0.3365 0.132638,0.49708 0.06937,0.18454 0.09405,0.37961 0.108548,0.57488 0.01072,0.1908 0.0098,0.382 0.0097,0.57303 -0.0019,0.15601 0.0389,0.30916 0.06056,0.4634 0,0 -1.260666,-0.61921 -1.260666,-0.61921 v 0 c -0.02479,-0.15962 -0.05905,-0.3193 -0.0515,-0.48181 -2.65e-4,-0.18738 5e-6,-0.37507 -0.01527,-0.56196 -0.0195,-0.18654 -0.05533,-0.36967 -0.122777,-0.54548 -0.05012,-0.16936 -0.09805,-0.33936 -0.126759,-0.51391 -0.02994,-0.18278 -0.01844,-0.36732 -0.01995,-0.55192 0,-0.18899 0,-0.37798 -2e-6,-0.56696 -6e-6,-0.18898 -1.1e-5,-0.37797 -2.1e-5,-0.56695 -8e-6,-0.18902 -3.2e-5,-0.37804 1.21e-4,-0.56706 2.15e-4,-0.18947 5.29e-4,-0.37895 0.0019,-0.56841 0.0013,-0.18888 0.0042,-0.37783 -5.29e-4,-0.56668 -0.0075,-0.16013 -0.0092,-0.3345 -0.121838,-0.46052 -0.411721,-0.29683 -0.09114,-0.0624 1.082178,0.60223 0.02511,0.0142 -0.04918,-0.0309 -0.07612,-0.0413 -0.09091,-0.0349 -0.187997,-0.0246 -0.282299,-0.0403 -0.189733,-0.027 -0.373738,-0.0819 -0.56618,-0.0852 -0.192542,-0.0224 -0.377719,-0.0729 -0.567806,-0.10427 -0.189413,-0.0273 -0.373084,-0.0828 -0.565343,-0.0849 -0.188532,-0.0198 -0.373404,-0.0676 -0.561859,-0.0753 -0.18896,0 -0.377923,-1e-5 -0.566883,-2e-5 -0.188918,0 -0.377833,-3e-5 -0.56675,1.9e-4 -0.190408,2.7e-4 -0.380815,8e-4 -0.571217,0.002 -0.199263,0.002 -0.398667,0.005 -0.597834,-0.003 -0.617265,-0.039 -1.447784,-0.30252 -1.615152,-0.93675 -0.02365,-0.18503 -0.03277,-0.37229 -0.07875,-0.55403 -0.03783,-0.18825 -0.05014,-0.38003 -0.09064,-0.56791 -0.03455,-0.18753 -0.04027,-0.37873 -0.08445,-0.56465 -0.04628,-0.18747 -0.08606,-0.37681 -0.143928,-0.56105 -0.06136,-0.18758 -0.09797,-0.378758 -0.124412,-0.574148 -0.04436,-0.1886 -0.103632,-0.37354 -0.157215,-0.55963 -0.06443,-0.19368 -0.09243,-0.38267 -0.07534,-0.58754 -8.2e-5,-0.18838 2.46e-4,-0.37683 -0.0069,-0.5651 -0.0093,-0.18841 -0.0258,-0.37642 -0.06298,-0.56168 -0.0288,-0.17013 -0.02262,-0.35168 -0.101923,-0.50836 -0.262146,-0.31586 -1.587767,-0.93778 1.040522,0.55 0.0245,0.0139 -0.04872,-0.029 -0.07537,-0.0381 -0.07123,-0.0242 -0.109937,-0.018 -0.183997,-0.018 -0.188981,-1e-5 -0.377962,-1e-5 -0.566946,5e-5 -0.188968,7e-5 -0.377934,2e-4 -0.566902,5.2e-4 -0.189264,2.7e-4 -0.378537,0.001 -0.567793,-10e-4 -0.191934,-0.004 -0.384567,-0.009 -0.574284,-0.0409 -0.199768,-0.0374 -0.396451,-0.0823 -0.597767,-0.1111 -0.224798,-0.062 -0.430401,-0.17223 -0.658308,-0.22171 -0.222758,-0.0527 -0.455239,-0.0519 -0.67968,-0.0993 -0.246909,-2.7e-4 -0.493818,7e-5 -0.740725,-0.001 -0.325617,-10e-4 -0.651274,-0.002 -0.97687,0.002 0,0 -1.135613,-0.82507 -1.135613,-0.82507 z"
         id="path199" />
    </g>
  </g>
</svg>
