<?xml version="1.0" encoding="UTF-8" standalone="no"?>
<!-- Created with Inkscape (http://www.inkscape.org/) -->

<svg
   xmlns:dc="http://purl.org/dc/elements/1.1/"
   xmlns:cc="http://creativecommons.org/ns#"
   xmlns:rdf="http://www.w3.org/1999/02/22-rdf-syntax-ns#"
   xmlns:svg="http://www.w3.org/2000/svg"
   xmlns="http://www.w3.org/2000/svg"
   xmlns:sodipodi="http://sodipodi.sourceforge.net/DTD/sodipodi-0.dtd"
   xmlns:inkscape="http://www.inkscape.org/namespaces/inkscape"
   width="210mm"
   height="297mm"
   viewBox="0 0 210 297"
   version="1.1"
   id="svg36"
   inkscape:version="0.92.4 (5da689c313, 2019-01-14)"
   sodipodi:docname="Followers Recipiants.svg">
  <defs
     id="defs30" />
  <sodipodi:namedview
     id="base"
     pagecolor="#ffffff"
     bordercolor="#666666"
     borderopacity="1.0"
     inkscape:pageopacity="0.0"
     inkscape:pageshadow="2"
     inkscape:zoom="0.98994949"
     inkscape:cx="180.39957"
     inkscape:cy="809.68679"
     inkscape:document-units="mm"
     inkscape:current-layer="layer1"
     showgrid="false"
     inkscape:window-width="1920"
     inkscape:window-height="1001"
     inkscape:window-x="-9"
     inkscape:window-y="-9"
     inkscape:window-maximized="1" />
  <metadata
     id="metadata33">
    <rdf:RDF>
      <cc:Work
         rdf:about="">
        <dc:format>image/svg+xml</dc:format>
        <dc:type
           rdf:resource="http://purl.org/dc/dcmitype/StillImage" />
        <dc:title></dc:title>
      </cc:Work>
    </rdf:RDF>
  </metadata>
  <g
     inkscape:label="Layer 1"
     inkscape:groupmode="layer"
     id="layer1">
    <text
       xml:space="preserve"
       style="font-style:normal;font-weight:normal;font-size:10.58333302px;line-height:1.25;font-family:sans-serif;letter-spacing:0px;word-spacing:0px;fill:#000000;fill-opacity:1;stroke:none;stroke-width:0.26458332"
       x="9.0714283"
       y="19.565475"
       id="text40"><tspan
         sodipodi:role="line"
         x="9.0714283"
         y="19.565475"
         style="stroke-width:0.26458332"
         id="tspan42">Followers/recipiants</tspan><tspan
         sodipodi:role="line"
         x="9.0714283"
         y="32.794643"
         style="stroke-width:0.26458332"
         id="tspan46">Flexable base</tspan><tspan
         sodipodi:role="line"
         x="9.0714283"
         y="46.023808"
         style="stroke-width:0.26458332"
         id="tspan48">Base Word: Followers</tspan></text>
    <path
       id="path50"
       d="m 31.360681,137.24141 c 0.618347,-0.80089 1.226116,-1.61311 1.814195,-2.43693 0.431975,-0.56206 0.751531,-1.19611 1.128977,-1.79315 0.382241,-0.54239 0.796407,-1.06212 1.172009,-1.6093 0.421338,-0.55615 0.738452,-1.17734 1.123976,-1.75741 0.349057,-0.57496 0.747935,-1.11683 1.086507,-1.69822 0.327445,-0.57831 0.752914,-1.09066 1.14423,-1.62548 0.28757,-0.44388 0.588023,-0.88196 0.938469,-1.2789 0.412501,-0.47819 0.83766,-0.94476 1.271627,-1.40349 0.520975,-0.54521 1.053566,-1.07914 1.585966,-1.61314 0.614299,-0.57484 1.21549,-1.16192 1.803109,-1.76453 0.555011,-0.5732 1.114057,-1.14245 1.67546,-1.70938 0.484397,-0.48646 1.06966,-0.84694 1.617224,-1.25435 0.51971,-0.37215 0.997719,-0.78621 1.471506,-1.21329 0.434978,-0.41091 0.972979,-0.6794 1.489578,-0.97073 0.506135,-0.28643 1.067739,-0.39824 1.638713,-0.45861 0.537104,-0.0422 1.076409,-0.0376 1.614744,-0.0366 0.534553,0.002 1.06911,0.004 1.603666,0.005 0.534482,8e-4 1.068964,8e-4 1.603444,8e-4 0.534535,1e-5 1.06907,-1e-5 1.603605,-2e-5 0.53454,-10e-6 1.06908,-2e-5 1.603621,-2e-5 0.534537,0 1.069078,0 1.603616,0 0.53454,0 1.069078,0 1.603618,0 0.534538,0 1.069078,0 1.603616,0 0.53454,0 1.069078,0 1.603618,0 0.553606,-0.0338 1.094907,0.0413 1.635374,0.15151 0.520152,0.10621 0.978016,0.36848 1.440743,0.61478 1.688053,0.84551 3.422611,1.65034 4.918496,2.82113 0.560776,0.31577 1.098158,0.64917 1.599197,1.05588 0.557313,0.30958 1.070346,0.69003 1.611582,1.02538 0.517671,0.39476 1.087898,0.73336 1.562974,1.17965 0.442724,0.39596 0.862954,0.82847 1.270015,1.26319 0.505471,0.54477 1.043528,1.06328 1.604087,1.55047 0.356211,0.44436 0.810115,0.78744 1.231167,1.16655 0.508707,0.48265 1.041305,0.94502 1.491703,1.48376 0.406828,0.53347 0.77148,1.0933 1.202795,1.60965 0.436216,0.48472 0.859616,0.97696 1.266286,1.48635 0.293248,0.43865 0.604588,0.86762 0.946906,1.27147 0.336018,0.45013 0.680371,0.89722 1.04951,1.32298 0.360794,0.43183 0.678886,0.88751 0.98571,1.35943 0.274535,0.42802 0.507061,0.90094 0.823746,1.30042 0.35905,0.40154 0.651073,0.86371 0.899136,1.34104 0.391266,0.59223 0.912119,1.08817 1.333857,1.66378 0.356397,0.58523 0.707269,1.18451 1.141341,1.71563 0.323038,0.49381 0.738146,0.9078 1.02048,1.42762 0.124933,0.25261 0.315431,0.45628 0.473114,0.68765 0,0 -3.64336,-1.58525 -3.64336,-1.58525 v 0 c -0.163557,-0.22968 -0.32186,-0.46267 -0.459946,-0.70895 -0.325533,-0.47765 -0.71306,-0.90999 -1.034177,-1.39157 -0.386987,-0.56305 -0.75284,-1.13925 -1.13211,-1.7071 -0.452612,-0.56488 -0.981514,-1.07779 -1.325088,-1.72086 -0.278596,-0.45643 -0.588122,-0.88877 -0.919195,-1.30858 -0.268441,-0.43838 -0.550772,-0.86785 -0.815154,-1.3087 -0.304245,-0.46054 -0.655535,-0.88449 -1.00152,-1.31398 -0.358465,-0.43601 -0.699794,-0.88562 -1.048382,-1.32951 -0.327483,-0.41589 -0.626951,-0.85224 -0.946748,-1.27393 -0.40989,-0.50258 -0.84319,-0.9854 -1.259192,-1.48281 -0.411416,-0.52502 -0.764487,-1.09355 -1.209617,-1.59149 -0.482224,-0.50425 -0.994531,-0.97889 -1.514348,-1.44407 -0.425801,-0.37481 -0.837803,-0.75965 -1.228198,-1.17136 -0.535678,-0.51668 -1.09006,-1.01342 -1.588796,-1.56735 -0.426406,-0.41586 -0.819833,-0.86638 -1.291572,-1.23307 -0.514551,-0.39345 -1.038664,-0.7768 -1.580504,-1.13188 -0.528008,-0.35956 -1.087499,-0.66888 -1.597734,-1.05361 -0.518285,-0.37685 -1.083506,-0.67399 -1.604841,-1.04584 -1.276348,-0.85203 -0.305472,-0.19509 2.863575,1.61677 0.08411,0.0481 -0.164516,-0.10269 -0.249984,-0.14833 -0.245332,-0.13101 -0.513178,-0.19704 -0.756116,-0.33264 -0.438086,-0.26527 -0.892881,-0.53545 -1.379122,-0.69452 -0.503536,-0.17139 -1.040265,-0.25435 -1.57186,-0.23441 -0.534541,0 -1.069078,0 -1.603619,0 -0.534537,0 -1.069078,0 -1.603615,0 -0.534541,0 -1.069078,0 -1.603619,0 -0.534537,0 -1.069078,-1e-5 -1.603616,0 -0.534537,0 -1.069078,0 -1.603615,0 -0.534541,1e-5 -1.069078,3e-5 -1.603619,5e-5 -0.534593,0 -1.069186,3e-5 -1.603777,-5.3e-4 -0.534696,-5.3e-4 -1.069395,-0.002 -1.604087,-0.004 -0.531796,-0.002 -1.063855,-0.009 -1.59545,0.01 -0.530381,0.0288 -1.06344,0.0797 -1.547429,0.31856 -0.498615,0.26491 -1.013301,0.52819 -1.442662,0.89683 -0.491019,0.42133 -0.956432,0.86684 -1.491559,1.23548 -0.528537,0.40599 -1.10395,0.74729 -1.593157,1.20311 -0.562007,0.5656 -1.122497,1.13271 -1.679162,1.70358 -0.589156,0.60192 -1.182672,1.1985 -1.799453,1.77155 -0.529944,0.53124 -1.060283,1.06222 -1.578231,1.60522 -0.431245,0.45743 -0.855538,0.92148 -1.252165,1.4096 -0.358222,0.36961 -0.642051,0.80709 -0.928923,1.23239 -0.383452,0.52398 -0.800729,1.02559 -1.122188,1.59178 -0.345731,0.586 -0.747085,1.13509 -1.104011,1.71412 -0.387363,0.58132 -0.698238,1.20827 -1.121589,1.76559 -0.373208,0.54287 -0.782344,1.06012 -1.164633,1.59641 -0.382741,0.60344 -0.711702,1.24216 -1.156081,1.8054 -0.598892,0.81866 -1.223049,1.61884 -1.802484,2.45198 0,0 -3.41058,-2.02401 -3.41058,-2.02401 z"
       inkscape:connector-curvature="0"
       style="stroke-width:0.26458332" />
    <path
       id="path66"
       d="m 33.685001,98.770769 c 0.445309,0.0087 0.890352,-0.01117 1.33424,0.0309 0.311494,0.02426 0.610077,0.119152 0.915588,0.177631 0.281271,0.01931 0.545206,0.08251 0.810266,0.174924 0.254053,0.09523 0.523488,0.118178 0.790546,0.147917 0.302053,0.06552 0.607377,0.101574 0.915521,0.120605 0.369076,0.0105 0.733198,0.07517 1.100384,0.109863 0.406691,0.03696 0.815459,0.02807 1.22273,0.05138 0.3713,0.03142 0.739031,0.08525 1.104902,0.154566 0.283845,0.05779 0.572228,0.08218 0.861097,0.09483 0.266531,0.0087 0.533249,0.0076 0.799881,0.0073 0.270899,7.94e-4 0.541546,-0.01246 0.810564,0.02397 0.294476,0.05718 0.59313,0.08171 0.892244,0.097 0.305384,0.01273 0.611084,0.01307 0.916678,0.01318 0.284292,-2.64e-4 0.568581,-0.0011 0.852873,-0.0013 0.267891,-2.64e-4 0.535782,-2.64e-4 0.803672,-2.64e-4 0.30071,-7.94e-4 0.601414,0.0013 0.902124,0.0019 0.368294,7.94e-4 0.736592,2.51e-4 1.104886,3.4e-5 0.341353,1.35e-4 0.682702,-2.06e-4 1.024054,-7.93e-4 0.321982,-0.0011 0.643964,5.29e-4 0.965949,7.93e-4 0.325602,-7.93e-4 0.651203,-5.29e-4 0.976807,-5.29e-4 0.326779,-2.64e-4 0.653558,2.65e-4 0.980337,-1.8e-4 0.286681,-5.29e-4 0.573363,-7.94e-4 0.860041,-0.0011 0.300287,7.94e-4 0.600573,7.94e-4 0.900862,5.29e-4 0.284527,-1.3e-4 0.569058,-0.0011 0.853585,5.3e-5 0.301562,5.29e-4 0.603123,-4.8e-5 0.904685,-2.65e-4 0.290954,-7.93e-4 0.581903,-2.64e-4 0.872852,0.0011 0.348533,2.64e-4 0.697056,-5.29e-4 1.045586,5.29e-4 0.343805,5.29e-4 0.687604,-0.0016 1.031404,-7.94e-4 0.314738,2.65e-4 0.629473,-0.0013 0.944208,-2.62e-4 0.353817,0.0021 0.707639,-7.94e-4 1.061455,0.0011 0.653857,0.008 1.307775,0.0069 1.961666,0.0059 0.485828,-0.0031 0.971653,-0.004 1.457486,-0.005 0.356773,-0.0013 0.713545,-0.0011 1.070319,-0.0019 0.326927,-0.0013 0.653857,5.29e-4 0.980787,5.29e-4 0.402598,0.0013 0.805196,0.0016 1.207796,5.29e-4 0.313354,-0.0011 0.626711,-0.0019 0.940065,-0.0021 0.338151,0.0016 0.676301,0.0011 1.014452,0.0016 0.356013,7.94e-4 0.711769,-0.01212 1.066133,0.02696 0.28688,0.0437 0.574882,0.0756 0.86454,0.0925 0.279471,0.0127 0.559331,0.0133 0.839038,0.0141 0.335786,0.004 0.671399,-0.0135 1.005465,0.0259 0.274896,0.0457 0.551301,0.077 0.829392,0.0936 0.265827,0.0128 0.532037,0.0129 0.798105,0.0133 0.267054,3e-5 0.534106,-5.2e-4 0.801161,-5.2e-4 0.267274,-2.1e-4 0.534551,-2.3e-4 0.801825,-2.6e-4 0.267274,-1e-5 0.534545,0 0.80182,0 0.267268,0 0.53454,0 0.801809,0 0.267269,0 0.534537,0 0.801809,0 0.267269,0 0.534538,0 0.801806,0 0.267272,0 0.534541,0 0.80181,0 0.267269,0 0.53454,0 0.801809,0 0.267269,0 0.534538,0 0.801809,0 0.267269,0 0.534538,0 0.801807,0 0.267271,0 0.53454,0 0.801809,0 0.267269,0 0.53454,0 0.801809,0 0.293471,-2.6e-4 0.586938,5.3e-4 0.880406,0.002 0.323922,5.3e-4 0.647843,-5.3e-4 0.971762,-0.001 0.274098,-2.6e-4 0.548195,-5.3e-4 0.822291,-5.3e-4 0.266943,-0.0156 0.529174,-0.0726 0.795033,-0.10183 0.268004,-0.026 0.537437,-0.0294 0.806471,-0.0319 0.222858,-10e-4 0.445722,-7.9e-4 0.668584,-5.3e-4 0,0 1.606975,1.16783 1.606975,1.16783 v 0 c -0.222583,-2.7e-4 -0.445164,-8e-4 -0.667747,-5.3e-4 -0.265496,7.9e-4 -0.531233,0.001 -0.796314,0.0177 -0.271269,0.0212 -0.53948,0.0614 -0.805913,0.117 -0.274576,-5e-5 -0.549153,-1.3e-4 -0.823727,-5.3e-4 -0.324832,-5.3e-4 -0.649663,-10e-4 -0.974492,-10e-4 -0.292071,10e-4 -0.584142,0.002 -0.876215,0.002 -0.267269,0 -0.534538,0 -0.801807,0 -0.267272,0 -0.53454,0 -0.801809,0 -0.267269,0 -0.534541,0 -0.801809,0 -0.267269,0 -0.534538,0 -0.80181,0 -0.267268,0 -0.534537,0 -0.801806,0 -0.267272,0 -0.534541,0 -0.801809,0 -0.267269,0 -0.534541,0 -0.80181,0 -0.267268,0 -0.534537,0 -0.801809,0 -0.267269,0 -0.534537,0 -0.801809,0 -0.267271,0 -0.53454,-1e-5 -0.801812,-1e-5 -0.267247,1e-5 -0.534498,1e-5 -0.801745,1.5e-4 -0.267092,1.6e-4 -0.534184,5.3e-4 -0.801273,7.9e-4 -0.267919,2.1e-4 -0.535895,0.001 -0.803746,-0.006 -0.282281,-0.01 -0.564541,-0.0285 -0.842801,-0.0799 -0.328538,-0.0561 -0.655378,-0.0598 -0.988803,-0.0487 -0.28081,5.3e-4 -0.561679,0.003 -0.84242,-0.005 -0.294005,-0.0105 -0.587695,-0.0311 -0.87797,-0.0814 -0.349853,-0.0546 -0.698034,-0.0582 -1.052142,-0.0491 -0.33664,7.9e-4 -0.67328,1.4e-4 -1.009917,0.002 -0.315307,-2.7e-4 -0.630613,-0.001 -0.94592,-0.002 -0.402018,-10e-4 -0.804037,-7.9e-4 -1.206053,5.3e-4 -0.326395,1.3e-4 -0.65279,0.002 -0.979185,5.3e-4 -0.358477,-7.9e-4 -0.716953,-5.3e-4 -1.075426,-0.002 -0.490434,-10e-4 -0.980863,-0.002 -1.471292,-0.005 -0.648473,-0.001 -1.296974,-0.002 -1.945413,0.006 -0.352782,0.002 -0.705567,-0.001 -1.058349,0.001 -0.314976,10e-4 -0.629952,-5.3e-4 -0.944927,-2.6e-4 -0.344586,7.9e-4 -0.689169,-10e-4 -1.033757,-8e-4 -0.34798,0.001 -0.695952,2.7e-4 -1.043932,5.3e-4 -0.289885,0.001 -0.579765,0.002 -0.869653,0.001 -0.301871,-2.6e-4 -0.60374,-7.9e-4 -0.905608,-2.6e-4 -0.284478,0.001 -0.568958,1.7e-4 -0.853435,5e-5 -0.299797,-2.7e-4 -0.599591,-1.7e-4 -0.899385,5.3e-4 -0.287541,-1.5e-4 -0.575082,-5.3e-4 -0.862623,-0.001 -0.326949,-5.3e-4 -0.653892,1.2e-4 -0.980837,-1.8e-4 -0.32606,1.3e-4 -0.652114,2.6e-4 -0.978173,-5.3e-4 -0.321262,1.6e-4 -0.642525,0.002 -0.963787,7.9e-4 -0.342143,-5.3e-4 -0.684284,-0.001 -1.026427,-7.9e-4 -0.368266,-2.1e-4 -0.736534,-7.9e-4 -1.104802,3e-5 -0.299083,5.3e-4 -0.59816,0.003 -0.897245,0.002 -0.267962,1e-5 -0.535924,1e-5 -0.803886,4e-5 -0.285025,4e-5 -0.570053,1.2e-4 -0.855078,9e-5 -0.307019,-1.4e-4 -0.614116,0.002 -0.921062,-0.006 -0.302429,-0.0103 -0.606536,-0.0231 -0.904912,-0.0766 -0.263123,-0.0513 -0.522105,-0.0634 -0.790898,-0.0501 -0.268086,5.3e-4 -0.536199,0.002 -0.804269,-0.002 -0.295447,-0.007 -0.591466,-0.0201 -0.882852,-0.0734 -0.364638,-0.0678 -0.72599,-0.14182 -1.09648,-0.17274 -0.405247,-0.0476 -0.815422,-0.0184 -1.222262,-0.0521 -0.366585,-0.0258 -0.728652,-0.0862 -1.093885,-0.11281 -0.310028,-0.0123 -0.622353,-0.0236 -0.924986,-0.0987 -0.265875,-0.0617 -0.547005,-0.0361 -0.809395,-0.12429 -0.263668,-0.0828 -0.506217,-0.21195 -0.791395,-0.19939 -0.310613,-0.0438 -0.606719,-0.14166 -0.915527,-0.189929 -0.437163,-0.05915 -0.87457,-0.0578 -1.315442,-0.04521 0,0 -1.605997,-1.166826 -1.605997,-1.166826 z"
       inkscape:connector-curvature="0"
       style="stroke-width:0.26458332" />
    <path
       id="path74"
       d="m 96.156628,141.8166 c 0.141899,0.82148 0.294849,1.6234 0.673923,2.37071 0.322067,0.55812 0.702357,1.08385 1.163076,1.53535 0.36421,0.41458 0.756492,0.78733 1.169893,1.15447 0.503068,0.46776 1.02697,0.91801 1.46974,1.44451 0.35677,0.52165 0.94066,0.7854 1.37908,1.22265 0.30491,0.50999 0.71559,0.91324 1.14561,1.31471 0.42948,0.58506 0.99913,1.03519 1.48738,1.56329 0.33309,0.4876 0.76859,0.89552 1.18288,1.31326 0.39328,0.48959 0.84588,0.87125 1.37659,1.20305 0.5979,0.4041 1.15195,0.8652 1.73217,1.29358 0.54159,0.39577 1.07578,0.79973 1.59194,1.23006 0.36685,0.25446 0.19404,0.11903 0.51982,0.40454 0,0 -3.67912,-1.48258 -3.67912,-1.48258 v 0 c -0.33586,-0.25931 -0.16382,-0.12588 -0.51603,-0.40039 -0.52423,-0.41606 -1.06035,-0.81578 -1.59857,-1.21345 -0.57826,-0.4302 -1.13201,-0.89392 -1.74237,-1.27983 -0.50551,-0.37024 -0.92269,-0.81655 -1.3472,-1.27569 -0.41202,-0.42227 -0.80581,-0.85865 -1.18029,-1.3144 -0.5157,-0.50225 -1.004507,-1.02621 -1.495664,-1.55212 -0.416345,-0.41046 -0.752737,-0.88007 -1.152789,-1.30327 -0.483989,-0.38822 -0.985528,-0.75001 -1.356032,-1.25877 -0.475599,-0.49202 -0.982544,-0.95218 -1.49225,-1.40848 -0.411372,-0.3739 -0.77637,-0.78789 -1.15801,-1.19144 -0.421005,-0.51104 -0.824233,-1.03309 -1.098399,-1.64186 -0.330414,-0.79833 -0.482452,-1.64277 -0.63241,-2.49099 0,0 3.557032,1.76309 3.557032,1.76309 z"
       inkscape:connector-curvature="0"
       style="stroke-width:0.26458332" />
  </g>
</svg>
