<?xml version="1.0" encoding="UTF-8" standalone="no"?>
<!-- Created with Inkscape (http://www.inkscape.org/) -->

<svg
   xmlns:dc="http://purl.org/dc/elements/1.1/"
   xmlns:cc="http://creativecommons.org/ns#"
   xmlns:rdf="http://www.w3.org/1999/02/22-rdf-syntax-ns#"
   xmlns:svg="http://www.w3.org/2000/svg"
   xmlns="http://www.w3.org/2000/svg"
   xmlns:sodipodi="http://sodipodi.sourceforge.net/DTD/sodipodi-0.dtd"
   xmlns:inkscape="http://www.inkscape.org/namespaces/inkscape"
   width="210mm"
   height="297mm"
   viewBox="0 0 210 297"
   version="1.1"
   id="svg166"
   inkscape:version="0.92.4 (5da689c313, 2019-01-14)"
   sodipodi:docname="God Religous Holy.svg">
  <defs
     id="defs160" />
  <sodipodi:namedview
     id="base"
     pagecolor="#ffffff"
     bordercolor="#666666"
     borderopacity="1.0"
     inkscape:pageopacity="0.0"
     inkscape:pageshadow="2"
     inkscape:zoom="1.4"
     inkscape:cx="337.11152"
     inkscape:cy="641.44483"
     inkscape:document-units="mm"
     inkscape:current-layer="layer1"
     showgrid="false"
     inkscape:window-width="1920"
     inkscape:window-height="1001"
     inkscape:window-x="-9"
     inkscape:window-y="-9"
     inkscape:window-maximized="1" />
  <metadata
     id="metadata163">
    <rdf:RDF>
      <cc:Work
         rdf:about="">
        <dc:format>image/svg+xml</dc:format>
        <dc:type
           rdf:resource="http://purl.org/dc/dcmitype/StillImage" />
        <dc:title></dc:title>
      </cc:Work>
    </rdf:RDF>
  </metadata>
  <g
     inkscape:label="Layer 1"
     inkscape:groupmode="layer"
     id="layer1">
    <text
       xml:space="preserve"
       style="font-style:normal;font-weight:normal;font-size:10.58333302px;line-height:1.25;font-family:sans-serif;letter-spacing:0px;word-spacing:0px;fill:#000000;fill-opacity:1;stroke:none;stroke-width:0.26458332"
       x="12.095239"
       y="14.651785"
       id="text170"><tspan
         sodipodi:role="line"
         id="tspan168"
         x="12.095239"
         y="14.651785"
         style="stroke-width:0.26458332">Religous/God/Holy</tspan><tspan
         sodipodi:role="line"
         x="12.095239"
         y="27.880951"
         style="stroke-width:0.26458332"
         id="tspan172">Flexable Base</tspan><tspan
         sodipodi:role="line"
         x="12.095239"
         y="41.110119"
         style="stroke-width:0.26458332"
         id="tspan174">Root Word: Religous</tspan></text>
    <path
       id="path176"
       d="m 32.18712,78.468775 c 1.133653,0.544861 2.303381,1.010864 3.455432,1.515401 0.831374,0.398192 1.688402,0.736211 2.539804,1.088085 0.826307,0.418002 1.633403,0.864976 2.480879,1.240375 0.922679,0.368938 1.844104,0.74004 2.75031,1.148072 0.782851,0.310695 1.561486,0.629777 2.331749,0.970597 0.737668,0.367271 1.491739,0.693532 2.251331,1.011659 0.744175,0.290295 1.506577,0.528939 2.258669,0.796726 0.783426,0.280316 1.538922,0.631944 2.286529,0.995511 0.751927,0.364932 1.490461,0.753917 2.26319,1.073544 0.734595,0.335526 1.523529,0.501833 2.26631,0.815684 0.722855,0.380156 1.486516,0.648737 2.254043,0.919615 0.77048,0.258564 1.493676,0.632537 2.261042,0.898006 0.769708,0.216268 1.500823,0.542719 2.263204,0.779682 0.778327,0.151027 1.526791,0.398873 2.275337,0.653751 2.259346,0.611394 2.951803,1.381615 5.827064,3.107423 0.263853,0.158369 0.257027,0.612135 0.263118,0.864158 -0.0037,0.704422 -0.419143,1.281409 -0.879761,1.776466 -0.461674,0.549349 -0.956112,1.069242 -1.494107,1.544169 -0.454727,0.448021 -0.912882,0.891751 -1.335524,1.370571 -0.542952,0.6286 -1.20499,1.13992 -1.823556,1.69089 -0.582362,0.6507 -1.22073,1.24622 -1.800979,1.89857 -0.51511,0.73506 -1.062189,1.44266 -1.650601,2.1204 -0.536067,0.76763 -1.197885,1.41941 -1.875351,2.05933 -0.736007,0.68798 -1.177446,1.60341 -1.78105,2.39447 -0.609016,0.79651 -1.161947,1.62169 -1.848131,2.35485 -0.672489,0.83898 -1.470424,1.55733 -2.257761,2.28469 -0.821277,0.66689 -1.393094,1.52739 -1.866929,2.45968 -0.43552,0.91519 -1.068789,1.7103 -1.67381,2.51621 -0.658733,0.7714 -1.113842,1.67993 -1.689015,2.51017 -0.539517,0.76726 -1.103228,1.50647 -1.717667,2.21462 -0.579953,0.73564 -1.143579,1.48356 -1.627891,2.28616 -0.448503,0.74141 -0.85739,1.50842 -1.233728,2.289 -0.446702,0.81354 -0.953635,1.59929 -1.476677,2.36655 -0.456052,0.76478 -0.895845,1.52801 -1.439394,2.23613 -0.583525,0.81304 -1.173406,1.62202 -1.781064,2.41727 -0.53126,0.70298 -1.023837,1.43416 -1.542214,2.14593 -0.432385,0.65239 -0.932947,1.25344 -1.394574,1.88475 -0.56602,0.73783 -1.184764,1.42973 -1.698003,2.20696 -0.488897,0.82771 -1.140156,1.53549 -1.729279,2.28867 -0.55806,0.59757 -0.995527,1.28584 -1.466242,1.94981 -0.624303,0.81376 -1.288574,1.5968 -1.893369,2.42547 -0.670224,0.81969 -1.430438,1.55544 -2.052394,2.41461 -0.497443,0.62943 -0.94235,1.29819 -1.430874,1.93393 -0.409591,0.71134 -0.899539,1.33429 -1.469006,1.92625 -0.575535,0.60372 -1.113312,1.22932 -1.590149,1.91341 -0.649756,0.75239 -1.364265,1.44624 -2.054516,2.16147 0,0 -4.783067,-2.92657 -4.783067,-2.92657 v 0 c 0.682694,-0.67646 1.353815,-1.3695 1.997973,-2.08267 0.491542,-0.71254 1.045111,-1.36168 1.645819,-1.98474 0.55814,-0.57939 1.024491,-1.18954 1.427325,-1.88532 0.497994,-0.61963 0.91729,-1.30078 1.431491,-1.90874 0.624406,-0.85929 1.376498,-1.60242 2.060328,-2.41245 0.603999,-0.82437 1.254413,-1.61389 1.875179,-2.42549 0.473609,-0.67313 0.907658,-1.37717 1.487067,-1.96884 0.579003,-0.74241 1.223364,-1.4368 1.703644,-2.25264 0.519022,-0.78317 1.134716,-1.48747 1.708023,-2.23002 0.459676,-0.63505 0.954196,-1.24267 1.391102,-1.89408 0.535596,-0.70188 1.021223,-1.44409 1.566886,-2.13931 0.607769,-0.79556 1.18432,-1.61427 1.771772,-2.42483 0.538784,-0.69933 0.96321,-1.46063 1.425834,-2.20981 0.513736,-0.73872 0.990772,-1.5117 1.427861,-2.29744 0.389052,-0.79371 0.803064,-1.57729 1.264298,-2.33151 0.504775,-0.82749 1.086774,-1.60037 1.672008,-2.37219 0.60524,-0.6899 1.170496,-1.40073 1.693283,-2.15716 0.58106,-0.83391 1.042633,-1.74702 1.70746,-2.52189 0.583057,-0.78326 1.190924,-1.55803 1.61808,-2.44137 0.512697,-0.97978 1.115695,-1.90761 1.975906,-2.62206 0.777952,-0.71835 1.572279,-1.42202 2.233483,-2.25383 0.678124,-0.7153 1.216067,-1.52856 1.817843,-2.30733 0.626272,-0.80992 1.078908,-1.75193 1.822019,-2.47344 0.663496,-0.62838 1.329918,-1.25219 1.849448,-2.01084 0.589812,-0.67834 1.134163,-1.38919 1.645103,-2.12886 0.590282,-0.67371 1.253408,-1.2726 1.84006,-1.950034 0.594799,-0.541213 1.236038,-1.040945 1.770076,-1.642321 0.431985,-0.506767 0.914112,-0.959252 1.379794,-1.434021 0.529765,-0.45984 1.028467,-0.950931 1.464265,-1.502312 0.354137,-0.36268 0.71981,-0.774544 0.613587,-1.3175 -0.07904,-0.159216 -0.06034,-0.167722 -0.212246,-0.27794 -0.07335,-0.05323 -0.310756,-0.186608 -0.231738,-0.142216 8.638019,4.853104 5.70715,2.764454 3.864877,2.354186 -0.756859,-0.216879 -1.472916,-0.571588 -2.260375,-0.672103 -0.786817,-0.17803 -1.513681,-0.50274 -2.272511,-0.768228 -0.797346,-0.198213 -1.52505,-0.553019 -2.274673,-0.88146 -0.776312,-0.250547 -1.572504,-0.473239 -2.281672,-0.886931 -0.747408,-0.31942 -1.48545,-0.59265 -2.269405,-0.81209 -0.760891,-0.34761 -1.550048,-0.631807 -2.272559,-1.062763 -0.754795,-0.336084 -1.482553,-0.728665 -2.249154,-1.039291 -0.760193,-0.255701 -1.51257,-0.529363 -2.274708,-0.777566 -0.775665,-0.291126 -1.532977,-0.61882 -2.27693,-0.982334 -0.747315,-0.387032 -1.533514,-0.70063 -2.32337,-0.988483 -0.91541,-0.389718 -1.812604,-0.82009 -2.745742,-1.168742 -0.872903,-0.309713 -1.696799,-0.72836 -2.485438,-1.213294 -0.834686,-0.40513 -1.729808,-0.666739 -2.549305,-1.106281 -1.154285,-0.489093 -2.294313,-1.011021 -3.458522,-1.477108 0,0 -4.384874,-3.507483 -4.384874,-3.507483 z"
       inkscape:connector-curvature="0"
       style="stroke-width:0.26458332" />
    <path
       id="path178"
       d="m 58.152064,141.82543 c 1.091559,0.92237 2.263338,1.7335 3.451775,2.52308 0.798655,0.66687 1.745832,1.13544 2.548686,1.78872 0.824751,0.55125 1.535144,1.24079 2.375593,1.76838 0.906352,0.55249 1.713461,1.24129 2.495831,1.95359 0.731356,0.80197 1.586963,1.43269 2.45215,2.07513 1.276072,0.88261 2.483176,1.85926 3.707948,2.81108 0.718679,0.58739 1.552255,1.0345 2.271458,1.61531 1.743292,1.09351 0.72758,0.45203 -4.233796,-2.4541 -0.09903,-0.058 0.201718,0.10951 0.302958,0.16356 0.320009,0.17083 0.638961,0.30925 0.977657,0.43889 2.181926,1.00248 5.806776,1.83456 5.756026,4.61749 -0.154302,0.94354 -0.788419,1.63845 -1.408673,2.31762 -0.552228,0.49727 -1.082072,1.01778 -1.621687,1.52858 -0.480346,0.50434 -1.024932,0.94153 -1.540743,1.40855 -0.693129,0.64919 -1.455356,1.21758 -2.174539,1.83724 -0.782359,0.68785 -1.524513,1.41945 -2.265436,2.1512 -0.6017,0.63368 -1.145154,1.31731 -1.715482,1.97849 -0.55971,0.62246 -1.07233,1.28488 -1.601885,1.93294 -0.557096,0.63619 -1.099336,1.28424 -1.625235,1.94654 -0.405241,0.60429 -0.85992,1.17404 -1.268746,1.7757 -0.35361,0.66117 -0.748654,1.29599 -1.204831,1.89109 -0.510886,0.77288 -1.096996,1.48771 -1.711549,2.17926 -0.583333,0.77306 -1.234528,1.49165 -1.831602,2.25302 -0.289492,0.38878 -0.594117,0.76554 -0.901301,1.14033 0,0 -4.806405,-2.88089 -4.806405,-2.88089 v 0 c 0.304964,-0.37102 0.607174,-0.74418 0.893668,-1.12983 0.603107,-0.77159 1.264105,-1.49736 1.852078,-2.28181 0.605999,-0.68036 1.182446,-1.38471 1.679977,-2.14976 0.447873,-0.5868 0.829154,-1.21779 1.184743,-1.86407 0.413023,-0.61656 0.873988,-1.19926 1.291368,-1.81237 0.526309,-0.6656 1.079169,-1.30756 1.631124,-1.95193 0.531231,-0.65391 1.053415,-1.31415 1.613035,-1.94384 0.579088,-0.67457 1.133512,-1.36874 1.749732,-2.01031 0.74772,-0.74075 1.496145,-1.48166 2.280362,-2.18409 0.709276,-0.62291 1.465111,-1.18968 2.158523,-1.82891 0.508043,-0.47465 1.046417,-0.91878 1.529176,-1.41799 0.547248,-0.48051 1.037722,-1.02331 1.608677,-1.47901 0.515141,-0.55693 1.13175,-1.11767 1.178449,-1.9257 -0.05675,-0.30448 -0.132654,-0.56853 -0.340119,-0.81044 -0.06549,-0.0764 -0.30824,-0.25517 -0.220306,-0.20629 4.123841,2.29225 5.981872,3.65064 4.246198,2.39597 -0.333569,-0.14528 -0.684972,-0.23123 -1.013026,-0.38793 -1.971847,-0.94191 -3.903713,-2.02122 -5.673442,-3.30816 -0.765789,-0.50474 -1.488353,-1.06861 -2.224868,-1.61448 -1.225381,-0.95521 -2.443647,-1.91993 -3.723516,-2.80246 -0.873924,-0.6436 -1.656477,-1.37845 -2.442967,-2.12509 -0.796163,-0.68816 -1.630785,-1.32524 -2.522907,-1.88558 -0.801786,-0.58323 -1.553422,-1.23263 -2.37321,-1.7923 -0.856951,-0.57187 -1.699612,-1.1625 -2.540423,-1.7577 -1.1908,-0.80384 -2.326158,-1.68058 -3.462179,-2.55933 0,0 5.211681,2.07261 5.211681,2.07261 z"
       inkscape:connector-curvature="0"
       style="stroke-width:0.26458332" />
  </g>
</svg>
