<?xml version="1.0" encoding="UTF-8" standalone="no"?>
<!-- Created with Inkscape (http://www.inkscape.org/) -->

<svg
   xmlns:dc="http://purl.org/dc/elements/1.1/"
   xmlns:cc="http://creativecommons.org/ns#"
   xmlns:rdf="http://www.w3.org/1999/02/22-rdf-syntax-ns#"
   xmlns:svg="http://www.w3.org/2000/svg"
   xmlns="http://www.w3.org/2000/svg"
   xmlns:sodipodi="http://sodipodi.sourceforge.net/DTD/sodipodi-0.dtd"
   xmlns:inkscape="http://www.inkscape.org/namespaces/inkscape"
   width="210mm"
   height="297mm"
   viewBox="0 0 210 297"
   version="1.1"
   id="svg51"
   inkscape:version="0.92.4 (5da689c313, 2019-01-14)"
   sodipodi:docname="Humor Funny LOL.svg">
  <defs
     id="defs45" />
  <sodipodi:namedview
     id="base"
     pagecolor="#ffffff"
     bordercolor="#666666"
     borderopacity="1.0"
     inkscape:pageopacity="0.0"
     inkscape:pageshadow="2"
     inkscape:zoom="0.49497475"
     inkscape:cx="422.25943"
     inkscape:cy="744.88539"
     inkscape:document-units="mm"
     inkscape:current-layer="layer1"
     showgrid="false"
     inkscape:window-width="1920"
     inkscape:window-height="1001"
     inkscape:window-x="-9"
     inkscape:window-y="-9"
     inkscape:window-maximized="1" />
  <metadata
     id="metadata48">
    <rdf:RDF>
      <cc:Work
         rdf:about="">
        <dc:format>image/svg+xml</dc:format>
        <dc:type
           rdf:resource="http://purl.org/dc/dcmitype/StillImage" />
        <dc:title></dc:title>
      </cc:Work>
    </rdf:RDF>
  </metadata>
  <g
     inkscape:label="Layer 1"
     inkscape:groupmode="layer"
     id="layer1">
    <text
       xml:space="preserve"
       style="font-style:normal;font-weight:normal;font-size:10.58333302px;line-height:1.25;font-family:sans-serif;letter-spacing:0px;word-spacing:0px;fill:#000000;fill-opacity:1;stroke:none;stroke-width:0.26458332"
       x="17.386906"
       y="16.541666"
       id="text55"><tspan
         sodipodi:role="line"
         id="tspan53"
         x="17.386906"
         y="16.541666"
         style="stroke-width:0.26458332">Humor/funny/</tspan><tspan
         sodipodi:role="line"
         x="17.386906"
         y="29.770832"
         style="stroke-width:0.26458332"
         id="tspan57">excamation of enjoyment</tspan><tspan
         sodipodi:role="line"
         x="17.386906"
         y="43"
         style="stroke-width:0.26458332"
         id="tspan63">Flexable Base</tspan><tspan
         sodipodi:role="line"
         x="17.386906"
         y="56.229164"
         style="stroke-width:0.26458332"
         id="tspan65">Root Word: Humor</tspan><tspan
         sodipodi:role="line"
         x="17.386906"
         y="69.458328"
         style="stroke-width:0.26458332"
         id="tspan67" /></text>
    <g
       id="g78"
       transform="matrix(2.2794316,0,0,2.3992395,-44.795854,-141.8251)">
      <path
         style="stroke-width:0.26458332"
         inkscape:connector-curvature="0"
         d="m 51.197107,114.38317 c 0.720696,0.98744 1.500757,1.93068 2.29557,2.859 0.867185,0.90828 1.611993,1.92796 2.495487,2.81973 0.604152,0.5917 1.306756,1.07116 1.984637,1.5733 0.601003,0.42228 0.994148,1.03685 1.507593,1.55492 0.56398,0.39603 1.038931,0.87755 1.501936,1.38306 0.554725,0.4229 1.008819,0.94253 1.472581,1.45856 0.521896,0.55369 0.924991,1.20478 1.426797,1.77457 0.354005,0.43584 0.807181,0.78423 1.1737,1.20723 0.205216,0.23684 0.387069,0.49324 0.591815,0.73049 0.672266,0.89382 1.422056,1.71524 2.232099,2.48412 0.733782,0.61842 1.364297,1.32989 1.942846,2.09151 0.414012,0.60169 0.900763,1.14235 1.355412,1.71345 0.422207,0.60645 0.849712,1.21217 1.233954,1.84364 0.382214,0.53131 0.706514,1.09746 1.043339,1.6573 0.310735,0.57636 0.646554,1.13403 0.942948,1.71922 0.353349,0.72303 0.90487,1.31103 1.377464,1.95204 0.386905,0.58357 0.852524,1.10244 1.286637,1.65122 0.374396,0.51275 0.653703,1.08117 0.963432,1.63237 0.225589,0.63618 0.542467,1.22688 0.847595,1.82582 0.32715,0.54771 0.60438,1.12835 0.948907,1.66676 0.3452,0.58334 0.660385,1.18219 0.982536,1.77866 0.365355,0.64275 0.74558,1.27557 1.142479,1.89943 0.377393,0.64835 0.842047,1.23875 1.277567,1.84806 0.33343,0.63468 0.622019,1.28549 1.028917,1.87781 0.344543,0.55761 0.718576,1.10929 1.15121,1.60208 0.326242,0.44691 0.767757,0.79903 1.168259,1.17883 0.08199,0.0614 0.163973,0.12285 0.24596,0.18427 0,0 -3.679963,-1.48186 -3.679963,-1.48186 v 0 c -0.07834,-0.07 -0.156678,-0.13996 -0.235016,-0.20994 -0.409252,-0.38508 -0.826063,-0.76425 -1.14899,-1.2284 -0.396568,-0.53216 -0.792893,-1.06468 -1.128866,-1.63828 -0.369708,-0.60773 -0.643202,-1.26637 -1.034706,-1.86133 -0.434859,-0.61592 -0.893151,-1.21608 -1.269995,-1.87089 -0.386537,-0.63344 -0.771403,-1.2673 -1.127934,-1.91838 -0.325636,-0.59341 -0.648118,-1.18799 -0.999456,-1.76684 -0.318796,-0.55919 -0.632103,-1.1221 -0.935101,-1.68983 -0.310192,-0.59487 -0.563065,-1.21366 -0.85508,-1.81715 -0.293868,-0.54401 -0.60125,-1.08279 -0.985409,-1.5695 -0.435399,-0.54641 -0.882595,-1.08167 -1.279052,-1.65798 -0.496429,-0.63891 -0.993259,-1.27996 -1.349242,-2.01186 -0.308502,-0.57477 -0.649134,-1.13047 -0.961025,-1.70335 -0.328824,-0.56091 -0.688546,-1.10129 -1.043683,-1.64567 -0.400945,-0.61188 -0.795634,-1.22962 -1.251231,-1.80302 -0.455533,-0.56723 -0.924578,-1.12214 -1.345792,-1.71617 -0.582949,-0.73925 -1.246852,-1.39948 -1.944349,-2.03111 -0.799865,-0.79081 -1.525903,-1.64459 -2.22821,-2.52282 -0.567296,-0.67123 -1.191588,-1.28597 -1.772576,-1.94493 -0.472109,-0.59249 -0.913977,-1.21113 -1.436698,-1.76142 -0.469987,-0.5121 -0.978961,-0.97705 -1.481598,-1.45582 -0.471675,-0.49275 -1.001141,-0.91306 -1.499867,-1.3766 -0.487553,-0.5229 -0.911754,-1.10672 -1.527466,-1.49415 -0.673201,-0.51242 -1.375992,-0.99446 -1.944921,-1.62824 -0.840147,-0.92172 -1.613751,-1.90293 -2.45383,-2.82523 -0.803272,-0.94705 -1.583362,-1.91262 -2.357009,-2.88377 0,0 3.655388,1.54709 3.655388,1.54709 z"
         id="path69" />
      <path
         style="stroke-width:0.26458332"
         d="m 42.495855,104.29867 a 3.7417734,2.9399648 0 0 1 -3.69735,2.93976 3.7417734,2.9399648 0 0 1 -3.785142,-2.86996 3.7417734,2.9399648 0 0 1 3.607473,-3.0079 3.7417734,2.9399648 0 0 1 3.8708,2.79853 l -3.737554,0.13957 z"
         sodipodi:end="6.2356949"
         sodipodi:start="0"
         sodipodi:ry="2.9399648"
         sodipodi:rx="3.7417734"
         sodipodi:cy="104.29867"
         sodipodi:cx="38.754082"
         sodipodi:type="arc"
         id="path71" />
      <path
         style="stroke-width:0.26458332"
         d="m 74.300927,167.24065 a 3.4745038,4.4099469 0 0 1 -3.433253,4.40963 3.4745038,4.4099469 0 0 1 -3.514775,-4.30493 3.4745038,4.4099469 0 0 1 3.349797,-4.51185 3.4745038,4.4099469 0 0 1 3.594314,4.19779 l -3.470586,0.20936 z"
         sodipodi:end="6.2356949"
         sodipodi:start="0"
         sodipodi:ry="4.4099469"
         sodipodi:rx="3.4745038"
         sodipodi:cy="167.24065"
         sodipodi:cx="70.826424"
         sodipodi:type="arc"
         id="path73" />
    </g>
  </g>
</svg>
