<?xml version="1.0" encoding="UTF-8" standalone="no"?>
<!-- Created with Inkscape (http://www.inkscape.org/) -->

<svg
   xmlns:dc="http://purl.org/dc/elements/1.1/"
   xmlns:cc="http://creativecommons.org/ns#"
   xmlns:rdf="http://www.w3.org/1999/02/22-rdf-syntax-ns#"
   xmlns:svg="http://www.w3.org/2000/svg"
   xmlns="http://www.w3.org/2000/svg"
   xmlns:sodipodi="http://sodipodi.sourceforge.net/DTD/sodipodi-0.dtd"
   xmlns:inkscape="http://www.inkscape.org/namespaces/inkscape"
   width="210mm"
   height="297mm"
   viewBox="0 0 210 297"
   version="1.1"
   id="svg311"
   inkscape:version="0.92.4 (5da689c313, 2019-01-14)"
   sodipodi:docname="Including Also Aswell.svg">
  <defs
     id="defs305" />
  <sodipodi:namedview
     id="base"
     pagecolor="#ffffff"
     bordercolor="#666666"
     borderopacity="1.0"
     inkscape:pageopacity="0.0"
     inkscape:pageshadow="2"
     inkscape:zoom="0.49497475"
     inkscape:cx="579.87149"
     inkscape:cy="599.82495"
     inkscape:document-units="mm"
     inkscape:current-layer="layer1"
     showgrid="false"
     inkscape:window-width="1920"
     inkscape:window-height="1001"
     inkscape:window-x="-9"
     inkscape:window-y="-9"
     inkscape:window-maximized="1" />
  <metadata
     id="metadata308">
    <rdf:RDF>
      <cc:Work
         rdf:about="">
        <dc:format>image/svg+xml</dc:format>
        <dc:type
           rdf:resource="http://purl.org/dc/dcmitype/StillImage" />
        <dc:title></dc:title>
      </cc:Work>
    </rdf:RDF>
  </metadata>
  <g
     inkscape:label="Layer 1"
     inkscape:groupmode="layer"
     id="layer1">
    <text
       xml:space="preserve"
       style="font-style:normal;font-weight:normal;font-size:10.58333302px;line-height:1.25;font-family:sans-serif;letter-spacing:0px;word-spacing:0px;fill:#000000;fill-opacity:1;stroke:none;stroke-width:0.26458332"
       x="10.583333"
       y="13.895833"
       id="text563"><tspan
         sodipodi:role="line"
         id="tspan561"
         x="10.583333"
         y="13.895833"
         style="stroke-width:0.26458332">Including/Also/aswell</tspan><tspan
         sodipodi:role="line"
         x="10.583333"
         y="27.125"
         style="stroke-width:0.26458332"
         id="tspan567">flexable base</tspan><tspan
         sodipodi:role="line"
         x="10.583333"
         y="40.354164"
         style="stroke-width:0.26458332"
         id="tspan571">Root Word: aswell</tspan></text>
    <g
       id="g594"
       transform="matrix(4.1676689,0,0,4.1676689,-130.35725,-301.05824)">
      <path
         style="stroke-width:0.26458332"
         inkscape:connector-curvature="0"
         d="m 49.529756,84.578541 c 0.356447,0.493247 0.780515,0.932116 1.173702,1.395314 0.307039,0.363871 0.559142,0.771742 0.802003,1.180248 0.249113,0.39347 0.444637,0.817097 0.686371,1.214655 0.267703,0.355095 0.459827,0.756184 0.663448,1.149075 0.27023,0.466024 0.63024,0.876347 0.991177,1.273878 0.463849,0.513951 0.93876,1.012101 1.444725,1.484943 0.445858,0.409651 0.834509,0.876776 1.243071,1.32281 0.353798,0.377315 0.663517,0.79242 1.002945,1.182587 0.305695,0.361768 0.605941,0.724811 0.922476,1.076979 0.482039,0.430072 0.931899,0.89226 1.372552,1.364049 0.544235,0.561152 1.030544,1.173265 1.547532,1.758812 0.442582,0.486767 0.929534,0.930836 1.357186,1.431699 0.322413,0.35281 0.606242,0.73746 0.923499,1.09466 0.26463,0.33834 0.592732,0.6095 0.900001,0.9065 0.352406,0.34847 0.699831,0.70194 1.048898,1.05374 0.168,0.18111 0.359847,0.33539 0.538599,0.50534 0,0 -2.387163,1.47104 -2.387163,1.47104 v 0 c -0.179917,-0.17131 -0.368089,-0.33366 -0.538943,-0.5143 -0.348411,-0.34987 -0.695465,-0.70118 -1.049862,-1.04502 -0.315764,-0.29944 -0.641998,-0.58407 -0.912976,-0.92698 -0.313878,-0.36122 -0.599943,-0.74539 -0.918718,-1.10267 -0.42395,-0.50004 -0.908743,-0.94318 -1.340255,-1.43639 -0.513434,-0.584666 -1.007599,-1.186106 -1.541605,-1.752402 -0.445937,-0.474636 -0.921488,-0.913926 -1.399596,-1.355037 -0.315756,-0.35429 -0.60996,-0.724434 -0.919972,-1.083527 -0.33682,-0.389101 -0.644784,-0.802251 -0.99541,-1.179086 -0.401823,-0.44259 -0.786731,-0.902997 -1.228064,-1.307489 -0.505581,-0.4821 -0.981704,-0.990126 -1.454438,-1.504185 -0.377529,-0.415825 -0.761021,-0.838692 -1.04199,-1.32764 -0.201729,-0.386813 -0.386935,-0.784365 -0.652322,-1.133729 -0.242618,-0.39842 -0.437251,-0.823428 -0.685512,-1.218742 -0.234458,-0.395851 -0.486717,-0.78518 -0.778727,-1.141148 -0.387389,-0.467521 -0.795126,-0.917654 -1.176943,-1.389891 0,0 2.404311,-1.448093 2.404311,-1.448093 z"
         id="path585" />
      <path
         style="stroke-width:0.26458332"
         inkscape:connector-curvature="0"
         d="m 46.717341,117.57027 c 0.534943,0.29116 1.01836,0.65684 1.509641,1.01277 0.3536,0.27435 0.632206,0.62441 0.932519,0.95146 0.281778,0.29382 0.59155,0.55478 0.877332,0.84524 0.357163,0.30043 0.657796,0.63601 0.943858,1.00435 0.29808,0.37422 0.591349,0.75025 0.895141,1.11947 0.25618,0.32778 0.567209,0.60133 0.824111,0.92873 0.31441,0.42083 0.681024,0.79852 1.033598,1.1873 0.357055,0.39227 0.728308,0.77122 1.100814,1.14874 0.408715,0.38216 0.771943,0.80478 1.135235,1.22906 0.342048,0.43192 0.717338,0.83177 1.106569,1.22129 0.388176,0.33531 0.682588,0.75872 1.04429,1.11845 0.283405,0.27035 0.529182,0.57819 0.815273,0.84559 0.394891,0.34658 0.783429,0.7 1.164887,1.06129 0.310332,0.34154 0.621284,0.68101 0.924081,1.02941 0.318733,0.36446 0.65673,0.71131 0.995524,1.05696 0.329115,0.31616 0.656595,0.63471 1.008197,0.9263 0.370994,0.30542 0.719511,0.63648 1.065165,0.96989 0.370089,0.4315 0.759891,0.84726 1.11683,1.28973 0.315489,0.3779 0.597067,0.79284 0.952405,1.13435 0.209055,0.20965 0.110035,0.10127 0.297479,0.32476 0,0 -2.405759,1.44636 -2.405759,1.44636 v 0 c -0.173855,-0.20486 -0.08046,-0.10215 -0.281654,-0.30678 -0.34908,-0.36219 -0.64961,-0.77003 -0.964604,-1.16196 -0.348663,-0.43393 -0.726726,-0.84503 -1.099207,-1.25843 -0.343537,-0.3278 -0.691724,-0.651 -1.060561,-0.95047 -0.354891,-0.30006 -0.68285,-0.63057 -1.016923,-0.95313 -0.343207,-0.3495 -0.68575,-0.70005 -1.009423,-1.06791 -0.297235,-0.34034 -0.596884,-0.67814 -0.903253,-1.01021 -0.382913,-0.36065 -0.774247,-0.71179 -1.170453,-1.05777 -0.286141,-0.27257 -0.542475,-0.5749 -0.820139,-0.85604 -0.350518,-0.36897 -0.655323,-0.78006 -1.037903,-1.11907 -0.392676,-0.39558 -0.769442,-0.80327 -1.115692,-1.24031 -0.359428,-0.41945 -0.726744,-0.82999 -1.127847,-1.21065 -0.374899,-0.3806 -0.748244,-0.76293 -1.106932,-1.15896 -0.355613,-0.39355 -0.723818,-0.77682 -1.046816,-1.19801 -0.264647,-0.31862 -0.571937,-0.59736 -0.824868,-0.92607 -0.302556,-0.37254 -0.590899,-0.75507 -0.894053,-1.12726 -0.281326,-0.35747 -0.589013,-0.67313 -0.930961,-0.97312 -0.291539,-0.28997 -0.606237,-0.55456 -0.885113,-0.857 -0.281538,-0.31933 -0.55917,-0.64429 -0.897226,-0.90719 -0.479012,-0.36307 -0.966422,-0.71413 -1.502262,-0.99112 0,0 2.3587,-1.52004 2.3587,-1.52004 z"
         id="path587" />
      <path
         style="stroke-width:0.26458332"
         inkscape:connector-curvature="0"
         d="m 48.268587,110.28397 c 0.624065,-0.0591 1.249013,-0.10642 1.875197,-0.13534 0.434023,-0.0182 0.868466,-0.0198 1.30279,-0.0205 0.377717,3e-5 0.755433,7.9e-4 1.133147,0.001 0.377071,2.6e-4 0.754142,2.6e-4 1.131216,2.6e-4 0.388593,-0.0288 0.763748,0.0776 1.145778,0.13089 0.384069,0.0287 0.759259,0.0541 1.136679,0.13045 0.369744,0.0762 0.746749,0.0979 1.123037,0.11076 0.37484,0.0876 0.754287,0.14328 1.137751,0.1728 0.375086,0.023 0.751067,0.0229 1.126704,0.0237 0.377801,10e-6 0.755602,-8e-4 1.133403,-0.001 0.378003,-2.6e-4 0.756008,-5.3e-4 1.13401,-5.3e-4 0.377981,-2e-5 0.755962,-1e-5 1.133943,0 0.377976,0 0.755952,0 1.133928,0 0.377975,0 0.755951,0 1.133927,0 0,0 -2.272802,1.65129 -2.272802,1.65129 v 0 c -0.377976,0 -0.755952,0 -1.133931,0 -0.377975,0 -0.755951,0 -1.133927,-1e-5 -0.377973,0 -0.755944,-1e-5 -1.133917,5e-5 -0.377947,8e-5 -0.755896,2.1e-4 -1.133845,7.9e-4 -0.378151,5.3e-4 -0.756306,0.002 -1.134454,-2.4e-4 -0.380664,-0.003 -0.761926,-0.007 -1.141153,-0.044 -0.378913,-0.042 -0.751338,-0.12207 -1.130105,-0.16198 -0.384466,-0.0227 -0.767365,-0.063 -1.144828,-0.14218 -0.374893,-0.0626 -0.755936,-0.0604 -1.131244,-0.12245 -0.372454,-0.0594 -0.742387,-0.1243 -1.121791,-0.0968 -0.377145,-5e-5 -0.754293,-1.1e-4 -1.131441,-5.3e-4 -0.377314,-2.6e-4 -0.754628,-0.001 -1.131943,-7.9e-4 -0.429024,10e-4 -0.858152,0.005 -1.286801,0.0245 -0.625488,0.031 -1.25054,0.0761 -1.872019,0.1549 0,0 2.252691,-1.67507 2.252691,-1.67507 z"
         id="path589" />
    </g>
  </g>
</svg>
