<?xml version="1.0" encoding="UTF-8" standalone="no"?>
<!-- Created with Inkscape (http://www.inkscape.org/) -->

<svg
   xmlns:dc="http://purl.org/dc/elements/1.1/"
   xmlns:cc="http://creativecommons.org/ns#"
   xmlns:rdf="http://www.w3.org/1999/02/22-rdf-syntax-ns#"
   xmlns:svg="http://www.w3.org/2000/svg"
   xmlns="http://www.w3.org/2000/svg"
   xmlns:sodipodi="http://sodipodi.sourceforge.net/DTD/sodipodi-0.dtd"
   xmlns:inkscape="http://www.inkscape.org/namespaces/inkscape"
   width="210mm"
   height="297mm"
   viewBox="0 0 210 297"
   version="1.1"
   id="svg265"
   inkscape:version="0.92.4 (5da689c313, 2019-01-14)"
   sodipodi:docname="Location Place Elsewhere.svg">
  <defs
     id="defs259" />
  <sodipodi:namedview
     id="base"
     pagecolor="#ffffff"
     bordercolor="#666666"
     borderopacity="1.0"
     inkscape:pageopacity="0.0"
     inkscape:pageshadow="2"
     inkscape:zoom="0.98994949"
     inkscape:cx="248.03391"
     inkscape:cy="856.14607"
     inkscape:document-units="mm"
     inkscape:current-layer="layer1"
     showgrid="false"
     inkscape:window-width="1920"
     inkscape:window-height="1001"
     inkscape:window-x="-9"
     inkscape:window-y="-9"
     inkscape:window-maximized="1" />
  <metadata
     id="metadata262">
    <rdf:RDF>
      <cc:Work
         rdf:about="">
        <dc:format>image/svg+xml</dc:format>
        <dc:type
           rdf:resource="http://purl.org/dc/dcmitype/StillImage" />
        <dc:title></dc:title>
      </cc:Work>
    </rdf:RDF>
  </metadata>
  <g
     inkscape:label="Layer 1"
     inkscape:groupmode="layer"
     id="layer1">
    <text
       xml:space="preserve"
       style="font-style:normal;font-weight:normal;font-size:10.58333302px;line-height:1.25;font-family:sans-serif;letter-spacing:0px;word-spacing:0px;fill:#000000;fill-opacity:1;stroke:none;stroke-width:0.26458332"
       x="13.363476"
       y="11.556144"
       id="text269"><tspan
         sodipodi:role="line"
         id="tspan267"
         x="13.363476"
         y="11.556144"
         style="stroke-width:0.26458332">Location/Place/Elsewhere</tspan><tspan
         sodipodi:role="line"
         x="13.363476"
         y="24.785311"
         style="stroke-width:0.26458332"
         id="tspan271">Flexable Base</tspan></text>
    <path
       id="path273"
       d="m 27.818873,64.110493 c 0.892374,-0.03136 1.772942,0.0399 2.657713,0.143672 0.648777,0.01503 1.253406,0.196223 1.860093,0.404789 0.50774,0.174053 1.041532,0.219038 1.573625,0.244228 0.53046,0.01699 1.061307,0.01304 1.591958,0.0117 0.534469,-0.0019 1.068938,-0.0026 1.60341,-0.003 0.534595,-2.64e-4 1.069191,-2.64e-4 1.603787,-2.64e-4 0.534543,2e-6 1.069086,1.6e-5 1.603629,2.4e-5 0.534541,5e-6 1.069078,8e-6 1.603616,8e-6 0.53454,0 1.069078,0 1.603618,0 0.534538,0 1.069078,0 1.603616,0 0.534541,0 1.069078,0 1.603619,0 0.534537,0 1.069078,0 1.603615,0 0.534541,0 1.069078,0 1.603619,0 0.534537,0 1.069078,0 1.603615,0 0.44545,0 0.8909,0 1.33635,0 0,0 -3.21423,2.335273 -3.21423,2.335273 v 0 c -0.44545,0 -0.890899,0 -1.336349,0 -0.534538,0 -1.069078,0 -1.603616,0 -0.53454,0 -1.069078,0 -1.603618,0 -0.534538,0 -1.069078,0 -1.603616,0 -0.534541,0 -1.069078,0 -1.603619,0 -0.534537,0 -1.069078,0 -1.603615,0 -0.534541,0 -1.069078,0 -1.603619,0 -0.53454,0 -1.069078,-3e-6 -1.603618,-1.1e-5 -0.534538,-8e-6 -1.069076,-2.6e-5 -1.603616,-2e-6 -0.534511,4.7e-5 -1.069022,1e-4 -1.603536,7.93e-4 -0.534474,7.94e-4 -1.068946,0.0021 -1.60342,0.0031 -0.536062,-1.06e-4 -1.072761,0.0021 -1.607921,-0.03368 -0.554913,-0.04812 -1.104738,-0.135557 -1.629695,-0.330113 -0.586272,-0.193945 -1.185971,-0.297937 -1.802141,-0.34421 -0.878369,-0.10246 -1.757255,-0.1348 -2.641652,-0.09839 0,0 3.211998,-2.333651 3.211998,-2.333651 z"
       inkscape:connector-curvature="0"
       style="stroke-width:0.26458332" />
    <path
       id="path275"
       d="m 63.098452,64.9123 c 0.881398,0.01326 1.762963,0.0071 2.644423,0.0038 0.612365,-0.0026 1.224735,-0.0038 1.837105,-0.0043 0.53404,-2.65e-4 1.068081,-2.65e-4 1.602121,-2.65e-4 0.533291,2.1e-5 1.066583,3.7e-5 1.599874,4.8e-5 0.534469,8e-6 1.068936,8e-6 1.603404,8e-6 0.534554,0 1.069108,0 1.603664,0 0.53454,0 1.069081,0 1.603621,0 0.53454,0 1.069078,0 1.603618,0 0.534538,0 1.069078,0 1.603616,0 0.53454,0 1.069078,0 1.603618,0 0.534538,0 1.069078,0 1.603616,0 0.534541,0 1.069078,0 1.603619,0 0.549634,-0.04077 1.080259,0.109752 1.620604,0.185086 0.54569,0.02545 1.067626,0.184561 1.605772,0.266891 0.525857,0.07003 1.057037,0.07747 1.586651,0.08346 0.533749,0.0033 1.067514,0.0013 1.601269,5.29e-4 0.534583,-7.93e-4 1.069163,-0.0011 1.603745,-0.0013 0.356373,-7.6e-5 0.712745,-8.2e-5 1.069118,-9e-5 0,0 -3.214219,2.33529 -3.214219,2.33529 v 0 c -0.356349,2.6e-5 -0.712695,5.3e-5 -1.069041,1.98e-4 -0.534496,2.62e-4 -1.068994,7.94e-4 -1.603489,0.0016 -0.535323,7.93e-4 -1.070705,0.0027 -1.605965,-0.0069 -0.542071,-0.01408 -1.08553,-0.03686 -1.620584,-0.131966 -0.532444,-0.0986 -1.060579,-0.215077 -1.601462,-0.260559 -0.52679,-0.08399 -1.050012,-0.175805 -1.586629,-0.136898 -0.534541,0 -1.069078,0 -1.603619,0 -0.534537,0 -1.069078,0 -1.603615,0 -0.534541,0 -1.069078,0 -1.603619,0 -0.534537,0 -1.069078,0 -1.603615,0 -0.534541,0 -1.069079,0 -1.603619,0 -0.53454,0 -1.069081,0 -1.603621,0 -0.534553,0 -1.06911,0 -1.603663,0 -0.534474,0 -1.068951,0 -1.603426,8e-6 -0.533333,1.1e-5 -1.066667,2.7e-5 -1.600004,4.8e-5 -0.533733,1e-5 -1.067466,5.5e-5 -1.6012,-2.65e-4 -0.608377,-5.29e-4 -1.216755,-0.0019 -1.825127,-0.0043 -0.884965,-0.0033 -1.770031,-0.0093 -2.654941,0.0038 0,0 3.212,-2.333654 3.212,-2.333654 z"
       inkscape:connector-curvature="0"
       style="stroke-width:0.26458332" />
    <path
       id="path277"
       d="m 28.647199,71.725239 c 0.613931,0.872249 1.311056,1.657598 2.119204,2.351227 0.640458,0.520626 1.261346,1.063665 1.864551,1.626839 0.492148,0.527711 1.066278,0.965784 1.586957,1.461442 0.442537,0.470135 0.906354,0.917194 1.391256,1.343443 0.508392,0.416099 1.023604,0.833416 1.561362,1.212114 0.608544,0.350356 1.119584,0.824352 1.577324,1.350791 0.362445,0.439152 0.66062,0.910219 0.90573,1.423347 0.269888,0.512678 0.556662,1.017034 0.840896,1.522158 0.340812,0.579509 0.797589,1.075791 1.254191,1.564503 0.517353,0.542163 1.049639,1.069805 1.580184,1.598988 0.529177,0.499004 1.038513,1.008459 1.538113,1.536329 0.392083,0.348864 0.805466,0.663938 1.163423,1.048941 0.473699,0.352756 0.903512,0.756558 1.327597,1.169233 0.528736,0.517859 1.107009,0.981287 1.629069,1.506377 0.488574,0.447151 0.914839,0.957254 1.364083,1.443077 0.460658,0.452646 0.853541,0.967811 1.306219,1.427022 0.401487,0.374552 0.769599,0.782627 1.136242,1.190702 0.319231,0.355174 0.74649,0.426765 1.198179,0.469273 0.51652,0.03104 1.034413,0.02265 1.551572,0.01974 0.535567,-0.0037 1.071145,-0.0053 1.606725,-0.0063 0.534868,-7.93e-4 1.06974,-7.93e-4 1.604611,-7.93e-4 0.534543,10e-6 1.069086,3.9e-5 1.603631,5.3e-5 0.534533,1e-5 1.069068,1.3e-5 1.603603,1.3e-5 0.534537,2e-6 1.069075,2e-6 1.603615,0 0.534538,0 1.069079,0 1.603616,0 0.534541,0 1.069078,0 1.603619,0 0.534537,0 1.069078,0 1.603615,0 0.534541,0 1.069078,0 1.603619,0 0.534537,0 1.069078,0 1.603616,0 0.53454,0 1.069078,0 1.603618,0 0.534538,0 1.069078,0 1.603618,0 0.534538,0 1.069078,0 1.603616,0 0.53454,0 1.069078,0 1.603618,0 0.534538,0 1.069079,0 1.603616,0 0.534541,0 1.069078,0 1.603619,0 0.534537,0 1.069078,0 1.603615,0 0.534541,0 1.069078,0 1.603619,0 0.534537,0 1.069078,0 1.603616,0 0.53454,0 1.069078,0 1.603618,0 0.534538,0 1.069078,0 1.603616,0 0.53454,0 1.069078,0 1.603618,0 0.356359,0 0.712719,0 1.069078,0 0,0 -3.21423,2.335276 -3.21423,2.335276 v 0 c -0.356359,0 -0.712718,0 -1.069078,0 -0.53454,0 -1.069078,0 -1.603618,0 -0.534538,0 -1.069078,0 -1.603616,0 -0.53454,0 -1.069078,0 -1.603618,0 -0.534538,0 -1.069078,0 -1.603616,0 -0.53454,0 -1.069078,0 -1.603618,0 -0.534538,0 -1.069078,0 -1.603616,0 -0.53454,0 -1.069078,0 -1.603619,0 -0.534537,0 -1.069078,0 -1.603615,0 -0.534541,0 -1.069078,0 -1.603619,0 -0.534537,0 -1.069078,0 -1.603618,0 -0.534538,0 -1.069078,0 -1.603616,0 -0.53454,0 -1.069078,0 -1.603618,0 -0.534538,0 -1.069078,0 -1.603616,0 -0.53454,0 -1.069078,0 -1.603618,0 -0.534538,0 -1.069078,0 -1.603616,0 -0.53454,0 -1.069078,0 -1.603618,0 -0.534538,0 -1.069079,0 -1.603616,0 -0.534541,0 -1.069078,0 -1.603619,0 -0.534535,-3e-6 -1.069072,-8e-6 -1.603607,-2.4e-5 -0.534533,-1.9e-5 -1.069068,-5.6e-5 -1.6036,-1.6e-5 -0.534691,8.7e-5 -1.06938,1.77e-4 -1.604069,0.0013 -0.535524,0.0016 -1.071041,0.0042 -1.60656,0.0066 -0.529553,2.64e-4 -1.06194,0.0071 -1.587733,-0.06543 -0.522772,-0.0996 -0.991113,-0.285165 -1.346766,-0.700937 C 49.028127,98.156882 48.663624,97.750807 48.264048,97.37856 47.826779,96.903285 47.424826,96.396108 46.964962,95.941231 46.51766,95.459398 46.089829,94.957161 45.604694,94.512383 45.084158,93.989757 44.51519,93.521656 43.98374,93.010962 43.550305,92.598059 43.092086,92.219115 42.636492,91.833114 42.271148,91.457588 41.846751,91.149563 41.478935,90.775604 40.992131,90.24318 40.469753,89.753256 39.954353,89.248397 39.42049,88.715772 38.884891,88.184656 38.365242,87.638063 37.88823,87.125396 37.41407,86.603027 37.056128,85.99721 36.765693,85.484686 36.475982,84.971304 36.19591,84.453306 35.970302,83.972611 35.690982,83.531709 35.353773,83.120528 34.908897,82.618399 34.402294,82.188504 33.82333,81.844935 c -0.537787,-0.400302 -1.074706,-0.805792 -1.581425,-1.244706 -0.485648,-0.431147 -0.949452,-0.885198 -1.39908,-1.353656 -0.524748,-0.489426 -1.079444,-0.946507 -1.578877,-1.463834 -0.600186,-0.558578 -1.218779,-1.09596 -1.846019,-1.623946 -0.806521,-0.720564 -1.496038,-1.536041 -2.163642,-2.385476 0,0 3.392912,-2.048234 3.392912,-2.048234 z"
       inkscape:connector-curvature="0"
       style="stroke-width:0.26458332" />
    <ellipse
       id="path279"
       cx="56.885414"
       cy="80.797615"
       rx="1.8898809"
       ry="1.7008928"
       style="stroke-width:0.26458332" />
  </g>
</svg>
