<?xml version="1.0" encoding="UTF-8" standalone="no"?>
<!-- Created with Inkscape (http://www.inkscape.org/) -->

<svg
   xmlns:dc="http://purl.org/dc/elements/1.1/"
   xmlns:cc="http://creativecommons.org/ns#"
   xmlns:rdf="http://www.w3.org/1999/02/22-rdf-syntax-ns#"
   xmlns:svg="http://www.w3.org/2000/svg"
   xmlns="http://www.w3.org/2000/svg"
   xmlns:sodipodi="http://sodipodi.sourceforge.net/DTD/sodipodi-0.dtd"
   xmlns:inkscape="http://www.inkscape.org/namespaces/inkscape"
   width="210mm"
   height="297mm"
   viewBox="0 0 210 297"
   version="1.1"
   id="svg243"
   inkscape:version="0.92.4 (5da689c313, 2019-01-14)"
   sodipodi:docname="Lost Unknown Unclear.svg">
  <defs
     id="defs237" />
  <sodipodi:namedview
     id="base"
     pagecolor="#ffffff"
     bordercolor="#666666"
     borderopacity="1.0"
     inkscape:pageopacity="0.0"
     inkscape:pageshadow="2"
     inkscape:zoom="0.7"
     inkscape:cx="88.788697"
     inkscape:cy="628.89846"
     inkscape:document-units="mm"
     inkscape:current-layer="layer1"
     showgrid="false"
     inkscape:window-width="1920"
     inkscape:window-height="1001"
     inkscape:window-x="-9"
     inkscape:window-y="-9"
     inkscape:window-maximized="1" />
  <metadata
     id="metadata240">
    <rdf:RDF>
      <cc:Work
         rdf:about="">
        <dc:format>image/svg+xml</dc:format>
        <dc:type
           rdf:resource="http://purl.org/dc/dcmitype/StillImage" />
        <dc:title></dc:title>
      </cc:Work>
    </rdf:RDF>
  </metadata>
  <g
     inkscape:label="Layer 1"
     inkscape:groupmode="layer"
     id="layer1">
    <text
       xml:space="preserve"
       style="font-style:normal;font-weight:normal;font-size:10.58333302px;line-height:1.25;font-family:sans-serif;letter-spacing:0px;word-spacing:0px;fill:#000000;fill-opacity:1;stroke:none;stroke-width:0.26458332"
       x="15.875"
       y="15.785713"
       id="text247"><tspan
         sodipodi:role="line"
         id="tspan245"
         x="15.875"
         y="15.785713"
         style="stroke-width:0.26458332">Lost/Unknown/Unclear</tspan><tspan
         sodipodi:role="line"
         x="15.875"
         y="29.014879"
         style="stroke-width:0.26458332"
         id="tspan249">Variable Modifier</tspan></text>
    <path
       id="path251"
       d="m 35.982788,126.01831 c 1.343078,0.0168 2.67998,-0.17847 4.017571,-0.28747 0.883631,-0.0713 1.770075,-0.0879 2.656115,-0.0949 0.755382,-0.003 1.510778,-0.001 2.266164,2e-5 0.753861,0.001 1.507723,0.001 2.261584,0.001 0.755827,1.1e-4 1.511657,9e-5 2.267485,8e-5 0.765632,0.0758 1.492252,-0.0815 2.23983,-0.20859 0.757576,-0.12126 1.525122,-0.14737 2.290722,-0.16409 0.757677,-0.0113 1.515473,-0.009 2.273208,-0.008 0.755946,0.001 1.511893,0.002 2.267841,0.002 0.755923,2.5e-4 1.511848,2.4e-4 2.267773,2.5e-4 0.755949,-1e-5 1.511901,-1e-5 2.267852,-2e-5 0.755952,-1e-5 1.511906,-1e-5 2.267858,-1e-5 0.755952,0 1.511906,0 2.267857,0 0.755952,0 1.511904,0 2.267858,0 0.755952,0 1.511903,0 2.267857,0 0.755952,0 1.511904,0 2.267855,0 0.755955,0 1.511906,0 2.267858,0 0.755954,0 1.511906,0 2.267857,0 0.787115,-0.0752 1.500884,0.13002 2.220537,0.41674 0.683998,0.40721 1.364991,0.82137 2.045213,1.23631 0.778981,0.5002 1.378387,1.22385 2.004391,1.89539 0.69038,0.68305 1.437256,1.30048 2.097402,2.01349 0.696762,0.71098 1.413169,1.3968 2.087134,2.1318 0.731002,0.61967 1.291932,1.39552 1.88391,2.14061 0.665515,0.81348 1.389359,1.57294 2.047611,2.39235 0.625035,0.82116 1.3312,1.56171 2.100524,2.24647 0.659974,0.67501 1.420733,1.22953 2.117429,1.86197 0.543599,0.52304 1.137459,0.98801 1.714415,1.47389 0.606901,0.49486 1.263461,0.82011 2.025401,0.9854 0.73446,0.12037 1.48143,0.11438 2.22341,0.11585 0.75605,-0.002 1.5121,-0.007 2.26816,-0.009 0.7562,-0.002 1.5124,-0.002 2.2686,-0.002 0.77928,0.17448 1.51225,0.48405 2.30209,0.63253 0.73958,0.11549 1.48981,0.12148 2.23653,0.12831 0.75486,0.003 1.50974,-7.9e-4 2.2646,-0.003 0.75606,-0.002 1.51211,-0.002 2.26817,-0.002 0.75598,-1.4e-4 1.51195,-1.1e-4 2.26793,-9e-5 0.75595,1e-5 1.5119,2e-5 2.26785,2e-5 0.75596,1e-5 1.51191,1e-5 2.26786,1e-5 0.75595,0 1.51191,0 2.26786,0 0.75595,0 1.5119,0 2.26785,0 0.75596,0 1.51191,0 2.26786,0 0.75595,0 1.51191,0 2.26786,0 0.75595,0 1.5119,0 2.26785,0 0.75596,0 1.51191,0 2.26786,0 0.84642,0.002 1.69283,0.003 2.53925,0.002 0.79118,-0.001 1.58235,-0.001 2.37353,-0.002 0.75679,-1.9e-4 1.51359,-1.8e-4 2.27038,-1.9e-4 0.75545,1e-5 1.51091,1e-5 2.26636,2e-5 0.75591,0 1.51182,0 2.26773,0 0.75595,0 1.51191,0 2.26787,0 0.50397,0 1.00794,0 1.51191,0 0,0 -4.54561,3.30258 -4.54561,3.30258 v 0 c -0.50397,0 -1.00794,0 -1.51191,0 -0.75595,0 -1.51191,0 -2.26787,0 -0.75591,0 -1.51182,0 -2.26773,0 -0.75547,1e-5 -1.51094,1e-5 -2.26641,1e-5 -0.75662,0 -1.51324,1e-5 -2.26985,-1.8e-4 -0.78966,-2.6e-4 -1.57931,-8e-4 -2.36896,-0.002 -0.84811,-7.9e-4 -1.6962,-5.3e-4 -2.5443,0.002 -0.75595,0 -1.5119,0 -2.26785,0 -0.75596,0 -1.51191,0 -2.26786,0 -0.75595,0 -1.5119,0 -2.26786,0 -0.75595,0 -1.5119,0 -2.26785,0 -0.75595,0 -1.51191,0 -2.26786,0 -0.75595,0 -1.5119,0 -2.26786,0 -0.75595,0 -1.5119,0 -2.26786,-1e-5 -0.75595,0 -1.5119,-2e-5 -2.26785,-3e-5 -0.75593,0 -1.51186,-2e-5 -2.26779,2.7e-4 -0.75585,5.3e-4 -1.5117,10e-4 -2.26755,0.003 -0.75703,0.002 -1.51414,0.006 -2.2711,-0.006 -0.77017,-0.0197 -1.54427,-0.0508 -2.29918,-0.21869 -0.74419,-0.18136 -1.46137,-0.51127 -2.23358,-0.53404 -0.75585,5.3e-4 -1.51171,10e-4 -2.26755,0.004 -0.75751,0.003 -1.515051,0.009 -2.272553,0.003 -0.77253,-0.0139 -1.552659,-0.0324 -2.304301,-0.23155 -0.799243,-0.25106 -1.511498,-0.65244 -2.157793,-1.18863 -0.588603,-0.48206 -1.171366,-0.97083 -1.726115,-1.49184 -0.70216,-0.62214 -1.423684,-1.21878 -2.096183,-1.87408 -0.788858,-0.7086 -1.512157,-1.47615 -2.156566,-2.32034 -0.657812,-0.82007 -1.382601,-1.57976 -2.045933,-2.39544 -0.586869,-0.73318 -1.164717,-1.47473 -1.86549,-2.10586 -0.675158,-0.7327 -1.398135,-1.41099 -2.092227,-2.12386 -0.663995,-0.70611 -1.406668,-1.32981 -2.091668,-2.01545 -0.59649,-0.63293 -1.170946,-1.31366 -1.929247,-1.75913 -0.660585,-0.39027 -1.299871,-0.82775 -1.998694,-1.1456 -0.681625,-0.24144 -1.379149,-0.29043 -2.099934,-0.25387 -0.755952,0 -1.511904,0 -2.267858,0 -0.755952,0 -1.511903,0 -2.267855,0 -0.755954,0 -1.511906,0 -2.267857,0 -0.755955,0 -1.511906,0 -2.267858,0 -0.755951,0 -1.511906,0 -2.267857,0 -0.755952,0 -1.511906,0 -2.267858,0 -0.755951,0 -1.511903,0 -2.267855,1e-5 -0.755954,0 -1.511908,2e-5 -2.267862,0 -0.755981,-3e-5 -1.511962,-6e-5 -2.267943,-5.3e-4 -0.755956,-5.3e-4 -1.511913,-0.001 -2.26787,-0.002 -0.754195,1e-5 -1.508602,-0.002 -2.262508,0.0223 -0.752152,0.0313 -1.503817,0.0859 -2.245008,0.22456 -0.762376,0.12669 -1.522971,0.16397 -2.296036,0.13377 -0.755869,-1e-5 -1.511736,1e-5 -2.267606,-1.8e-4 -0.754036,-2.3e-4 -1.508072,-5.3e-4 -2.262108,-0.002 -0.753546,-8e-4 -1.507119,-0.003 -2.260642,0.005 -0.871921,0.0126 -1.743803,0.0397 -2.613136,0.11191 -1.350664,0.10933 -2.700401,0.26674 -4.057341,0.26035 0,0 4.53752,-3.2967 4.53752,-3.2967 z"
       inkscape:connector-curvature="0"
       style="stroke-width:0.26458332" />
    <ellipse
       id="path253"
       cx="54.788284"
       cy="140.5733"
       rx="3.6749561"
       ry="3.4076865"
       style="stroke-width:0.26458332" />
    <ellipse
       id="path255"
       cx="121.51592"
       cy="159.3988"
       rx="3.7417734"
       ry="3.4745038"
       style="stroke-width:0.26458332" />
    <ellipse
       id="path257"
       cx="93.782776"
       cy="116.28124"
       rx="3.6749561"
       ry="3.0067821"
       style="stroke-width:0.26458332" />
  </g>
</svg>
