<?xml version="1.0" encoding="UTF-8" standalone="no"?>
<!-- Created with Inkscape (http://www.inkscape.org/) -->

<svg
   xmlns:dc="http://purl.org/dc/elements/1.1/"
   xmlns:cc="http://creativecommons.org/ns#"
   xmlns:rdf="http://www.w3.org/1999/02/22-rdf-syntax-ns#"
   xmlns:svg="http://www.w3.org/2000/svg"
   xmlns="http://www.w3.org/2000/svg"
   xmlns:sodipodi="http://sodipodi.sourceforge.net/DTD/sodipodi-0.dtd"
   xmlns:inkscape="http://www.inkscape.org/namespaces/inkscape"
   width="210mm"
   height="297mm"
   viewBox="0 0 210 297"
   version="1.1"
   id="svg53"
   inkscape:version="0.92.4 (5da689c313, 2019-01-14)"
   sodipodi:docname="Open Release Remove.svg">
  <defs
     id="defs47" />
  <sodipodi:namedview
     id="base"
     pagecolor="#ffffff"
     bordercolor="#666666"
     borderopacity="1.0"
     inkscape:pageopacity="0.0"
     inkscape:pageshadow="2"
     inkscape:zoom="0.49497475"
     inkscape:cx="631.8655"
     inkscape:cy="545.54752"
     inkscape:document-units="mm"
     inkscape:current-layer="layer1"
     showgrid="false"
     inkscape:window-width="1920"
     inkscape:window-height="1001"
     inkscape:window-x="-9"
     inkscape:window-y="-9"
     inkscape:window-maximized="1" />
  <metadata
     id="metadata50">
    <rdf:RDF>
      <cc:Work
         rdf:about="">
        <dc:format>image/svg+xml</dc:format>
        <dc:type
           rdf:resource="http://purl.org/dc/dcmitype/StillImage" />
        <dc:title></dc:title>
      </cc:Work>
    </rdf:RDF>
  </metadata>
  <g
     inkscape:label="Layer 1"
     inkscape:groupmode="layer"
     id="layer1">
    <text
       xml:space="preserve"
       style="font-style:normal;font-weight:normal;font-size:10.58333302px;line-height:1.25;font-family:sans-serif;letter-spacing:0px;word-spacing:0px;fill:#000000;fill-opacity:1;stroke:none;stroke-width:0.26458332"
       x="11.339286"
       y="15.785713"
       id="text57"><tspan
         sodipodi:role="line"
         id="tspan55"
         x="11.339286"
         y="15.785713"
         style="stroke-width:0.26458332">Open/Release/Remove</tspan><tspan
         sodipodi:role="line"
         x="11.339286"
         y="29.014879"
         style="stroke-width:0.26458332"
         id="tspan59">Root Word:Open</tspan><tspan
         sodipodi:role="line"
         x="11.339286"
         y="42.244045"
         style="stroke-width:0.26458332"
         id="tspan61">Flexable Base</tspan></text>
    <g
       id="g71"
       transform="matrix(1.7325128,0,0,1.7325128,-15.339118,-91.333829)">
      <path
         style="stroke-width:0.26458332"
         inkscape:connector-curvature="0"
         d="m 18.178166,130.55055 c 0.507679,0.89787 1.016184,1.7929 1.471527,2.71875 0.860381,1.61136 1.71785,3.22495 2.573678,4.83945 1.24218,2.42371 2.545743,4.81521 3.773705,7.24615 1.823869,3.63325 3.800476,7.18671 5.806113,10.72187 1.713317,3.07696 3.414244,6.16149 5.178806,9.20948 1.244081,2.06574 2.590628,4.06707 3.869579,6.11098 1.225563,1.86372 2.466535,3.71773 3.729291,5.55648 1.456894,2.18253 3.139183,4.19096 4.93382,6.09948 1.836158,1.88162 3.664278,3.77287 5.546193,5.60901 1.383493,1.36191 2.742147,2.74612 4.158769,4.07407 0.795472,0.78795 1.587233,1.57938 2.36393,2.38568 0.430528,0.45039 0.903184,0.85954 1.335231,1.30746 0.120012,0.0982 0.256492,0.30194 0.437906,0.22611 0.08236,-0.0344 0.285734,-0.21232 0.207534,-0.16927 -1.08708,0.59853 -2.159894,1.2226 -3.239841,1.8339 0.428429,-0.34261 0.800015,-0.74848 1.14663,-1.17179 0.750107,-0.97743 1.50359,-1.95255 2.233202,-2.94547 1.312315,-1.92945 2.738361,-3.77573 4.187613,-5.60314 1.105199,-1.39773 2.324751,-2.69653 3.464902,-4.06496 1.432668,-1.75827 2.949815,-3.44408 4.457911,-5.13723 2.178262,-2.46285 4.490429,-4.79973 6.807306,-7.13061 2.368351,-2.36702 4.764415,-4.70579 7.159691,-7.04549 1.855309,-1.77876 3.76958,-3.49463 5.658662,-5.23725 1.545405,-1.41958 3.016853,-2.91622 4.510932,-4.3891 0.986224,-0.98604 1.985914,-1.95781 3.003924,-2.91095 0.73007,-0.65366 1.46768,-1.29764 2.13397,-2.01727 0.52694,-0.58154 1.06621,-1.15197 1.60231,-1.72522 0.70341,-0.73944 1.40687,-1.47897 2.16529,-2.16249 0.63598,-0.53263 1.23227,-1.10846 1.79701,-1.71556 0.61061,-0.67522 1.23101,-1.34135 1.84738,-2.01129 0.59398,-0.66865 1.21844,-1.30824 1.79276,-1.99396 0.46256,-0.50217 0.92533,-1.00091 1.36568,-1.52286 0.57116,-0.71243 1.21721,-1.35509 1.84287,-2.01801 0.53648,-0.52564 1.00732,-1.11153 1.50278,-1.67462 0.36412,-0.42524 0.79034,-0.77443 1.23557,-1.10781 0.0654,-0.0436 0.13088,-0.0872 0.19631,-0.13074 0,0 3.70318,-1.45101 3.70318,-1.45101 v 0 c -0.0647,0.0441 -0.12943,0.0882 -0.19414,0.13229 -0.47837,0.28084 -0.89829,0.62792 -1.29045,1.02065 -0.50686,0.56101 -0.97217,1.15954 -1.5078,1.6932 -0.63491,0.64611 -1.27083,1.28752 -1.84355,1.99105 -0.44321,0.52055 -0.86597,1.0545 -1.36322,1.5267 -0.60264,0.6713 -1.18873,1.355 -1.80414,2.01632 -0.62834,0.65168 -1.21927,1.33963 -1.83794,2.00107 -0.55941,0.62209 -1.13735,1.22807 -1.78705,1.75749 -0.76968,0.66302 -1.48333,1.38101 -2.17476,2.12547 -0.53694,0.57234 -1.06591,1.15173 -1.6059,1.71976 -0.65796,0.74085 -1.38035,1.4128 -2.13293,2.05743 -1.05437,0.93629 -2.04977,1.93652 -3.06105,2.91886 -1.50733,1.47312 -2.98275,2.97872 -4.530082,4.41021 -1.902717,1.75057 -3.830442,3.47414 -5.711955,5.24737 -2.404882,2.34191 -4.815271,4.6779 -7.189464,7.05097 -2.298756,2.32385 -4.61173,4.63553 -6.770764,7.0923 -1.486189,1.68529 -2.98137,3.36268 -4.40644,5.10047 -1.126217,1.38088 -2.343671,2.67994 -3.46928,4.06113 -1.465443,1.80758 -2.92421,3.62496 -4.192881,5.57903 -0.676992,1.00538 -1.435047,1.9487 -2.153129,2.92462 -0.318204,0.45834 -0.690184,0.87432 -1.099198,1.25145 -1.194621,0.70672 -2.375086,1.43794 -3.583861,2.12016 -0.307128,0.17335 -0.718447,-0.28985 -0.900409,-0.44999 -0.439703,-0.44126 -0.89458,-0.8665 -1.319675,-1.32288 -0.763006,-0.80633 -1.531446,-1.60714 -2.31348,-2.39528 -1.391168,-1.35249 -2.744618,-2.74134 -4.127788,-4.10171 -1.853944,-1.8675 -3.660376,-3.78205 -5.534464,-5.62986 -1.825985,-1.90526 -3.444386,-3.99137 -4.952053,-6.15649 -1.287912,-1.83066 -2.56317,-3.67167 -3.780118,-5.55042 -1.261303,-2.05931 -2.582087,-4.08195 -3.821075,-6.15502 -1.726475,-3.07117 -3.410051,-6.16618 -5.109316,-9.25243 -1.976869,-3.55561 -3.995706,-7.08911 -5.869064,-10.70119 -1.267355,-2.40685 -2.551391,-4.80522 -3.829483,-7.20623 -0.879412,-1.60517 -1.731959,-3.22453 -2.634675,-4.81668 -0.468316,-0.90444 -0.951478,-1.8015 -1.49029,-2.66638 0,0 3.42975,-1.99621 3.42975,-1.99621 z"
         id="path65" />
      <ellipse
         style="stroke-width:0.26458332"
         ry="9.0871639"
         rx="8.9535294"
         cy="134.50012"
         cx="59.467468"
         id="path67" />
    </g>
  </g>
</svg>
