<?xml version="1.0" encoding="UTF-8" standalone="no"?>
<!-- Created with Inkscape (http://www.inkscape.org/) -->

<svg
   xmlns:dc="http://purl.org/dc/elements/1.1/"
   xmlns:cc="http://creativecommons.org/ns#"
   xmlns:rdf="http://www.w3.org/1999/02/22-rdf-syntax-ns#"
   xmlns:svg="http://www.w3.org/2000/svg"
   xmlns="http://www.w3.org/2000/svg"
   xmlns:sodipodi="http://sodipodi.sourceforge.net/DTD/sodipodi-0.dtd"
   xmlns:inkscape="http://www.inkscape.org/namespaces/inkscape"
   width="210mm"
   height="297mm"
   viewBox="0 0 210 297"
   version="1.1"
   id="svg211"
   inkscape:version="0.92.4 (5da689c313, 2019-01-14)"
   sodipodi:docname="String Text Writing.svg">
  <defs
     id="defs205" />
  <sodipodi:namedview
     id="base"
     pagecolor="#ffffff"
     bordercolor="#666666"
     borderopacity="1.0"
     inkscape:pageopacity="0.0"
     inkscape:pageshadow="2"
     inkscape:zoom="0.7"
     inkscape:cx="714.23273"
     inkscape:cy="683.0406"
     inkscape:document-units="mm"
     inkscape:current-layer="layer1"
     showgrid="false"
     inkscape:window-width="1920"
     inkscape:window-height="1001"
     inkscape:window-x="-9"
     inkscape:window-y="-9"
     inkscape:window-maximized="1" />
  <metadata
     id="metadata208">
    <rdf:RDF>
      <cc:Work
         rdf:about="">
        <dc:format>image/svg+xml</dc:format>
        <dc:type
           rdf:resource="http://purl.org/dc/dcmitype/StillImage" />
        <dc:title></dc:title>
      </cc:Work>
    </rdf:RDF>
  </metadata>
  <g
     inkscape:label="Layer 1"
     inkscape:groupmode="layer"
     id="layer1">
    <text
       xml:space="preserve"
       style="font-style:normal;font-weight:normal;font-size:10.58333302px;line-height:1.25;font-family:sans-serif;letter-spacing:0px;word-spacing:0px;fill:#000000;fill-opacity:1;stroke:none;stroke-width:0.26458332"
       x="9.0714283"
       y="16.541666"
       id="text215"><tspan
         sodipodi:role="line"
         id="tspan213"
         x="9.0714283"
         y="16.541666"
         style="stroke-width:0.26458332">String/Text/Writing</tspan><tspan
         sodipodi:role="line"
         x="9.0714283"
         y="29.770832"
         style="stroke-width:0.26458332"
         id="tspan217">Base Symbol</tspan><tspan
         sodipodi:role="line"
         x="9.0714283"
         y="43"
         style="stroke-width:0.26458332"
         id="tspan219">Root Word: String</tspan></text>
    <g
       id="g254"
       transform="matrix(2.5720555,0,0,2.5720555,-71.637708,-113.35541)">
      <path
         style="stroke-width:0.26458332"
         inkscape:connector-curvature="0"
         d="m 66.011011,75.002672 c -0.837493,1.03482 -1.668647,2.074273 -2.461212,3.143933 -0.5011,0.797274 -1.062074,1.553837 -1.652087,2.287182 -0.527161,0.728327 -1.075595,1.432013 -1.548577,2.197106 -0.446813,0.879996 -1.128604,1.596241 -1.562323,2.484019 -0.325622,0.785069 -0.769585,1.512348 -1.113774,2.287887 -0.292909,0.718132 -0.696841,1.377696 -1.064474,2.057701 -0.386771,0.688171 -0.707038,1.408877 -1.063972,2.113698 -0.420706,0.625637 -0.783322,1.27531 -1.117266,1.949403 -0.274437,0.760362 -0.773147,1.391623 -1.297872,1.993807 -0.449267,0.521126 -0.847288,1.082238 -1.252876,1.637469 -0.358925,0.569854 -0.785164,1.090501 -1.070924,1.703351 -0.306322,0.716727 0.117324,1.321312 0.607964,1.827322 0.602428,0.58893 1.285968,1.07693 1.962862,1.57444 0.672656,0.51359 1.38925,0.96725 2.09377,1.43648 0.75048,0.56313 1.449877,1.18382 2.256364,1.66836 0.737179,0.53575 1.54373,0.99819 2.213951,1.61799 0.55427,0.69566 1.325634,1.14348 1.976609,1.72679 0.657159,0.55008 1.295316,1.1208 1.949334,1.67901 0.779552,0.76041 1.525257,1.54416 2.247403,2.3609 0.616077,0.56286 1.183624,1.18015 1.815253,1.72375 0.50279,0.72462 1.075121,1.38847 1.638194,2.06911 0.672605,0.96605 1.585759,1.72618 2.346717,2.61773 0.463203,0.75895 1.083349,1.39821 1.541666,2.15914 0.423383,0.54669 0.818457,1.12009 1.186616,1.70429 0.383675,0.61 0.7591,1.22531 1.124805,1.84569 0.418068,0.61377 0.85385,1.20733 1.295998,1.80383 0.411289,0.55884 0.7376,1.19573 1.177266,1.7332 0.4348,0.57316 0.704564,1.25167 1.127228,1.82904 0.402603,0.67455 0.903346,1.28151 1.36194,1.91853 0.446855,0.77907 0.991143,1.49429 1.503098,2.23068 0.50545,0.70713 0.983597,1.43613 1.442209,2.17347 0.426157,0.62824 0.72879,1.31337 1.221095,1.89491 0.44986,0.60213 0.799351,1.26298 1.142957,1.92797 0.40702,0.64479 0.720681,1.33271 1.156261,1.96125 0.72289,0.97321 1.446866,1.94081 2.242879,2.85643 0,0 -5.147967,-2.18137 -5.147967,-2.18137 v 0 c -0.783973,-0.94358 -1.514152,-1.9286 -2.225505,-2.92789 -0.401355,-0.66077 -0.775901,-1.33733 -1.1572,-2.01003 -0.360776,-0.63587 -0.699863,-1.28266 -1.17348,-1.84646 -0.430366,-0.62644 -0.763228,-1.3141 -1.20323,-1.93538 -0.478785,-0.71807 -0.917131,-1.46333 -1.439291,-2.15221 -0.507156,-0.73855 -1.03288,-1.46363 -1.510599,-2.222 -0.463037,-0.64271 -0.963755,-1.2588 -1.359982,-1.94739 -0.355579,-0.61707 -0.716563,-1.23146 -1.141164,-1.80461 -0.37543,-0.58738 -0.782317,-1.1527 -1.175125,-1.72835 -0.438801,-0.60721 -0.888082,-1.20835 -1.279906,-1.8478 -0.383966,-0.60551 -0.712939,-1.24551 -1.136217,-1.82623 -0.398827,-0.56373 -0.765667,-1.15013 -1.177387,-1.70513 -0.502656,-0.70229 -1.027907,-1.3897 -1.552689,-2.07496 -0.799457,-0.86398 -1.646042,-1.68769 -2.34578,-2.6389 -0.556538,-0.67377 -1.075695,-1.38372 -1.684729,-2.00873 -0.58891,-0.58986 -1.222372,-1.13485 -1.772632,-1.7636 -0.721915,-0.80578 -1.483331,-1.57199 -2.290381,-2.29318 -0.656027,-0.55104 -1.270685,-1.14754 -1.948466,-1.67255 -0.698407,-0.5351 -1.338723,-1.12717 -1.979237,-1.72898 -0.728146,-0.54217 -1.474499,-1.06187 -2.235438,-1.55698 -0.764296,-0.54203 -1.475438,-1.15337 -2.256851,-1.67124 -0.71184,-0.46599 -1.410594,-0.95345 -2.088612,-1.46742 -0.682901,-0.511275 -1.364459,-1.043977 -1.902357,-1.711902 -0.482206,-0.75107 -0.73547,-1.531194 -0.33963,-2.38847 0.308176,-0.641416 0.736245,-1.199766 1.122503,-1.793957 0.413827,-0.573513 0.8285,-1.145815 1.285248,-1.686118 0.510788,-0.549513 0.962318,-1.148038 1.221255,-1.859648 0.330812,-0.678339 0.694518,-1.331262 1.124644,-1.953257 0.360031,-0.708925 0.673933,-1.438579 1.065694,-2.130311 0.362328,-0.667346 0.762923,-1.313223 1.050131,-2.018938 0.35646,-0.777888 0.790429,-1.517761 1.12795,-2.305262 0.455851,-0.894675 1.130255,-1.633349 1.594202,-2.522249 0.481092,-0.788281 1.031833,-1.518197 1.57529,-2.2645 0.587809,-0.727474 1.158859,-1.468506 1.663644,-2.256504 0.80863,-1.071777 1.668095,-2.103141 2.45759,-3.189544 0,0 4.808622,2.896182 4.808622,2.896182 z"
         id="path221" />
      <path
         transform="scale(1,-1)"
         style="stroke-width:0.26458332"
         d="m 52.251189,-134.63376 a 3.3408689,3.7417734 0 0 1 -3.301205,3.74151 3.3408689,3.7417734 0 0 1 -3.379591,-3.65267 3.3408689,3.7417734 0 0 1 3.220958,-3.82824 3.3408689,3.7417734 0 0 1 3.456072,3.56177 l -3.337103,0.17763 z"
         sodipodi:end="6.2356949"
         sodipodi:start="0"
         sodipodi:ry="3.7417734"
         sodipodi:rx="3.3408689"
         sodipodi:cy="-134.63376"
         sodipodi:cx="48.91032"
         sodipodi:type="arc"
         id="path223" />
      <path
         style="stroke-width:0.26458332"
         d="m 52.251193,115.52399 a 3.3408689,3.7417734 0 0 1 -3.301205,3.74151 3.3408689,3.7417734 0 0 1 -3.379591,-3.65267 3.3408689,3.7417734 0 0 1 3.220958,-3.82824 3.3408689,3.7417734 0 0 1 3.456071,3.56177 l -3.337102,0.17763 z"
         sodipodi:end="6.2356949"
         sodipodi:start="0"
         sodipodi:ry="3.7417734"
         sodipodi:rx="3.3408689"
         sodipodi:cy="115.52399"
         sodipodi:cx="48.910324"
         sodipodi:type="arc"
         id="path223-5" />
      <path
         style="stroke-width:0.26458332"
         d="m 70.291881,135.83647 a 3.3408689,3.7417734 0 0 1 -3.301205,3.74151 3.3408689,3.7417734 0 0 1 -3.379591,-3.65267 3.3408689,3.7417734 0 0 1 3.220957,-3.82824 3.3408689,3.7417734 0 0 1 3.456072,3.56177 l -3.337102,0.17763 z"
         sodipodi:end="6.2356949"
         sodipodi:start="0"
         sodipodi:ry="3.7417734"
         sodipodi:rx="3.3408689"
         sodipodi:cy="135.83647"
         sodipodi:cx="66.951012"
         sodipodi:type="arc"
         id="path223-4" />
    </g>
  </g>
</svg>
