<?xml version="1.0" encoding="UTF-8" standalone="no"?>
<!-- Created with Inkscape (http://www.inkscape.org/) -->

<svg
   xmlns:dc="http://purl.org/dc/elements/1.1/"
   xmlns:cc="http://creativecommons.org/ns#"
   xmlns:rdf="http://www.w3.org/1999/02/22-rdf-syntax-ns#"
   xmlns:svg="http://www.w3.org/2000/svg"
   xmlns="http://www.w3.org/2000/svg"
   xmlns:sodipodi="http://sodipodi.sourceforge.net/DTD/sodipodi-0.dtd"
   xmlns:inkscape="http://www.inkscape.org/namespaces/inkscape"
   width="210mm"
   height="297mm"
   viewBox="0 0 210 297"
   version="1.1"
   id="svg153"
   inkscape:version="0.92.4 (5da689c313, 2019-01-14)"
   sodipodi:docname="This Object Individual.svg">
  <defs
     id="defs147" />
  <sodipodi:namedview
     id="base"
     pagecolor="#ffffff"
     bordercolor="#666666"
     borderopacity="1.0"
     inkscape:pageopacity="0.0"
     inkscape:pageshadow="2"
     inkscape:zoom="0.7"
     inkscape:cx="359.68712"
     inkscape:cy="589.67613"
     inkscape:document-units="mm"
     inkscape:current-layer="layer1"
     showgrid="false"
     inkscape:window-width="1920"
     inkscape:window-height="1001"
     inkscape:window-x="-9"
     inkscape:window-y="-9"
     inkscape:window-maximized="1" />
  <metadata
     id="metadata150">
    <rdf:RDF>
      <cc:Work
         rdf:about="">
        <dc:format>image/svg+xml</dc:format>
        <dc:type
           rdf:resource="http://purl.org/dc/dcmitype/StillImage" />
        <dc:title></dc:title>
      </cc:Work>
    </rdf:RDF>
  </metadata>
  <g
     inkscape:label="Layer 1"
     inkscape:groupmode="layer"
     id="layer1">
    <text
       xml:space="preserve"
       style="font-style:normal;font-weight:normal;font-size:10.58333302px;line-height:1.25;font-family:sans-serif;letter-spacing:0px;word-spacing:0px;fill:#000000;fill-opacity:1;stroke:none;stroke-width:0.26458332"
       x="10.583333"
       y="18.053572"
       id="text157"><tspan
         sodipodi:role="line"
         id="tspan155"
         x="10.583333"
         y="18.053572"
         style="stroke-width:0.26458332">This/Object/Individual</tspan><tspan
         sodipodi:role="line"
         x="10.583333"
         y="31.282738"
         style="stroke-width:0.26458332"
         id="tspan159">Flexable Base</tspan><tspan
         sodipodi:role="line"
         x="10.583333"
         y="44.511906"
         style="stroke-width:0.26458332"
         id="tspan161">Root Word: Object</tspan></text>
    <g
       id="g177"
       transform="matrix(3.8488224,0,0,3.8488224,-87.551434,-224.24571)">
      <path
         style="stroke-width:0.20247762"
         inkscape:connector-curvature="0"
         d="m 30.732501,78.715229 c 0.400366,0.103013 0.796087,0.253857 1.188537,0.422598 0.31248,0.127727 0.613673,0.317688 0.914504,0.507388 0.260189,0.18427 0.509909,0.408229 0.759633,0.629907 0.606821,0.454769 1.106376,1.048988 1.714749,1.651574 0.03111,0.03082 0.124132,0.124196 0.09301,0.09341 -1.360982,-1.34647 -1.769006,-1.687462 -1.206457,-1.210424 0.252132,0.194332 0.517271,0.334865 0.788077,0.428353 0.289942,0.07907 0.567909,0.235992 0.844024,0.401114 0.319817,0.178808 0.623428,0.427857 0.925453,0.678598 0.253653,0.236085 0.529602,0.372771 0.803215,0.520498 0.224993,0.118066 0.458084,0.171564 0.684911,0.27789 0.230696,0.118337 0.445285,0.306469 0.665476,0.469439 0.222694,0.124114 0.441482,0.265917 0.661146,0.404493 0.270524,0.175029 0.549446,0.307961 0.817857,0.492207 0.272571,0.199062 0.531483,0.446624 0.800054,0.659958 0.283547,0.22184 0.569834,0.432435 0.858397,0.634391 0.326076,0.235569 0.655806,0.45697 0.979962,0.700262 0.318281,0.243997 0.6306,0.510861 0.94032,0.784995 0.299508,0.279353 0.621674,0.473118 0.933847,0.70426 0.299975,0.247058 0.599532,0.497126 0.890912,0.772811 0.50692,0.500256 1.01384,1.000511 1.520759,1.500767 0.03654,0.04446 0.07209,0.0914 0.109614,0.133392 0.07156,0.08007 0.144995,0.155163 0.217079,0.233855 0.03972,0.04336 0.161211,0.167061 0.120379,0.126804 -0.426444,-0.420436 -0.851514,-0.844928 -1.277271,-1.267394 0.236627,0.208185 0.482417,0.384223 0.725025,0.570889 0.238734,0.216247 0.483237,0.381794 0.744862,0.494652 0.259698,0.111506 0.501435,0.300749 0.735347,0.518829 0.201221,0.176041 0.419253,0.284877 0.628261,0.430541 0.657083,0.449662 1.229908,1.15747 1.852906,1.740004 0.437556,0.40914 -0.864596,-0.850263 -1.295604,-1.279187 -0.03491,-0.03475 0.0715,0.06438 0.107245,0.09657 0.400417,0.380124 2.117633,1.195577 1.425448,2.100687 -0.201533,0.16573 -0.402075,0.332 -0.598511,0.51561 -0.222284,0.2071 -0.447626,0.40421 -0.672575,0.60265 -0.219236,0.22456 -0.444915,0.43067 -0.662275,0.66042 -0.210577,0.2452 -0.434334,0.43604 -0.672483,0.58746 -0.202735,0.11318 -0.389726,0.29039 -0.57695,0.46177 -0.230152,0.17912 -0.433349,0.42723 -0.627079,0.70156 -0.203351,0.33283 -0.436729,0.60001 -0.666775,0.87403 -0.218334,0.29935 -0.457953,0.541621 -0.700925,0.776111 -0.222148,0.23623 -0.427985,0.51802 -0.633928,0.793809 -0.165412,0.21554 -0.33737,0.41596 -0.50872,0.6175 -0.211314,0.20587 -0.405273,0.45082 -0.590519,0.71902 -0.229095,0.33722 -0.435759,0.7153 -0.660493,1.06036 -0.230512,0.32586 -0.429197,0.70852 -0.651292,1.05047 -0.127281,0.19335 -0.220233,0.43826 -0.328258,0.66077 0,0 -1.408765,-1.44722 -1.408765,-1.44722 v 0 c 0.116291,-0.2281 0.210403,-0.48773 0.343874,-0.68982 0.224732,-0.33944 0.421019,-0.7258 0.651549,-1.05343 0.230424,-0.33498 0.432094,-0.72328 0.66043,-1.062849 0.185401,-0.27781 0.375506,-0.55038 0.594878,-0.74796 0.16744,-0.20314 0.338285,-0.394861 0.504536,-0.600791 0.209269,-0.29071 0.430769,-0.56164 0.651409,-0.82577 0.236622,-0.23541 0.479867,-0.45364 0.69111,-0.7556 0.224533,-0.2741 0.462634,-0.51872 0.660045,-0.85253 0.196934,-0.28947 0.400455,-0.57155 0.640512,-0.75123 0.189386,-0.18693 0.383829,-0.37218 0.59073,-0.49428 0.227658,-0.15288 0.455941,-0.28514 0.655625,-0.53828 0.217113,-0.24396 0.450109,-0.44095 0.668976,-0.68028 0.221518,-0.20502 0.448954,-0.39076 0.670345,-0.59631 0.191954,-0.189958 0.387054,-0.369084 0.590563,-0.5191 0.01875,-0.009 0.06936,-0.04795 0.05694,-0.02236 -0.01226,0.02524 -0.07384,-0.02751 -0.05723,-0.01106 1.448445,1.43393 1.768347,1.7867 1.245299,1.2156 -0.64032,-0.46847 -0.216374,-0.14933 -1.630816,-1.572399 -0.429709,-0.432329 0.866398,0.844119 1.29852,1.269389 0.335192,0.32988 -0.662777,-0.609915 -0.324701,-0.26847 -0.21261,-0.13914 -0.421548,-0.291134 -0.639125,-0.407003 -0.236083,-0.20341 -0.45799,-0.452951 -0.716206,-0.574078 -0.139373,-0.06473 -0.286156,-0.09377 -0.422144,-0.177387 -0.107797,-0.06628 -0.121168,-0.101902 -0.224111,-0.186354 -0.03777,-0.03099 -0.07695,-0.05672 -0.115419,-0.08509 -0.238153,-0.208455 -0.487891,-0.375944 -0.732463,-0.560888 -0.509861,-0.501769 -1.020717,-1.000604 -1.529586,-1.505307 -0.115024,-0.114086 -0.224738,-0.246732 -0.336941,-0.368684 -0.03728,-0.04052 -0.150971,-0.156988 -0.112586,-0.119583 0.430525,0.419512 0.859384,0.843986 1.289074,1.265981 -0.293212,-0.272381 -0.58457,-0.551373 -0.88922,-0.786754 -0.298177,-0.281702 -0.636456,-0.418354 -0.936668,-0.698895 -0.308763,-0.279077 -0.620443,-0.550008 -0.937617,-0.799809 -0.317248,-0.260022 -0.649275,-0.458538 -0.969674,-0.705495 -0.292572,-0.191103 -0.579665,-0.40241 -0.863459,-0.62874 -0.274647,-0.192188 -0.530777,-0.444098 -0.799788,-0.656722 -0.258517,-0.218014 -0.536419,-0.331079 -0.804019,-0.508334 -0.225606,-0.116017 -0.43628,-0.301302 -0.666237,-0.394068 -0.226986,-0.134625 -0.433245,-0.346916 -0.660593,-0.479562 -0.220634,-0.152009 -0.452774,-0.196993 -0.683547,-0.285218 -0.277779,-0.14224 -0.560831,-0.266886 -0.82078,-0.492083 -0.302393,-0.241062 -0.595641,-0.519372 -0.912871,-0.70258 -0.274771,-0.156975 -0.543466,-0.346125 -0.829692,-0.436922 -0.279005,-0.07269 -0.546854,-0.19362 -0.810616,-0.365633 -0.637917,-0.475083 -0.110039,-0.07386 -1.61506,-1.549405 -0.03125,-0.03064 -0.123031,-0.128157 -0.09171,-0.09774 0.439315,0.426503 0.87711,0.857549 1.315744,1.286087 0.06813,0.06656 -0.28798,-0.294791 -0.213626,-0.169228 -0.254468,-0.205824 -0.498343,-0.447921 -0.75326,-0.652809 -0.295256,-0.2082 -0.597813,-0.394494 -0.906875,-0.533532 -0.381612,-0.197173 -0.774714,-0.326665 -1.166387,-0.450009 0,0 -1.319262,-1.675071 -1.319262,-1.675071 z"
         id="path163" />
      <path
         style="stroke-width:0.26458332"
         inkscape:connector-curvature="0"
         d="m 34.019856,119.97214 c 0.536729,-0.53066 1.090137,-1.04398 1.622354,-1.57914 0.365495,-0.3945 0.774724,-0.74469 1.126286,-1.15192 0.324718,-0.41662 0.683943,-0.80482 1.067893,-1.16726 0.348845,-0.30972 0.64402,-0.67342 0.957019,-1.01811 0.282834,-0.39807 0.633211,-0.7328 0.985472,-1.06754 0.358418,-0.36414 0.76726,-0.67508 1.102434,-1.0616 0.281054,-0.36713 0.600107,-0.7023 0.909966,-1.04492 0.406313,-0.42252 0.746173,-0.90098 1.100966,-1.3658 0.347681,-0.45312 0.775853,-0.83528 1.167378,-1.2493 0.264433,-0.26087 0.429459,-0.59607 0.620602,-0.90992 0.263996,-0.35574 0.570214,-0.67647 0.83734,-1.03138 0.353859,-0.41125 0.771922,-0.75724 1.109908,-1.18227 0.310317,-0.4011 0.684215,-0.74506 0.984769,-1.15347 0.244446,-0.40455 0.434514,-0.83489 0.694142,-1.23047 0.293701,-0.37227 0.575686,-0.75064 0.836139,-1.14696 0.230365,-0.29727 0.429197,-0.61067 0.615008,-0.93686 0,0 2.430434,1.40139 2.430434,1.40139 v 0 c -0.188844,0.33123 -0.391597,0.64954 -0.625015,0.95168 -0.260596,0.39623 -0.541253,0.77574 -0.837203,1.14628 -0.26245,0.39881 -0.450299,0.83663 -0.704307,1.24072 -0.300702,0.41369 -0.666414,0.76776 -0.992267,1.16112 -0.334116,0.4256 -0.737568,0.77986 -1.10027,1.1799 -0.260379,0.34814 -0.55441,0.66685 -0.816866,1.01132 -0.200274,0.33173 -0.382339,0.68091 -0.658032,0.95799 -0.387607,0.4052 -0.817759,0.77258 -1.161278,1.21801 -0.360391,0.46932 -0.698092,0.95836 -1.106045,1.38884 -0.307097,0.34208 -0.622002,0.67746 -0.902473,1.04175 -0.338939,0.39762 -0.757518,0.70908 -1.123299,1.08078 -0.344496,0.3324 -0.693481,0.66038 -0.971304,1.05303 -0.31763,0.35086 -0.61513,0.7232 -0.969418,1.03826 -0.381082,0.35006 -0.738856,0.72449 -1.050562,1.13853 -0.349414,0.42246 -0.775928,0.76574 -1.150485,1.16514 -0.535379,0.53005 -1.098243,1.03173 -1.607929,1.5876 0,0 -2.391357,-1.46542 -2.391357,-1.46542 z"
         id="path167" />
      <path
         style="stroke-width:0.26458332"
         d="m 54.523065,116.0439 a 2.9293153,2.8348215 0 0 1 -2.894537,2.83462 2.9293153,2.8348215 0 0 1 -2.963268,-2.76731 2.9293153,2.8348215 0 0 1 2.824176,-2.90033 2.9293153,2.8348215 0 0 1 3.030327,2.69844 l -2.926013,0.13458 z"
         sodipodi:end="6.2356949"
         sodipodi:start="0"
         sodipodi:ry="2.8348215"
         sodipodi:rx="2.9293153"
         sodipodi:cy="116.0439"
         sodipodi:cx="51.59375"
         sodipodi:type="arc"
         id="path172" />
    </g>
  </g>
</svg>
