# 3ds Max Wavefront OBJ Exporter v0.97b - (c)2007 guruware
# File Created: 04.05.2016 17:35:15

mtllib Fan.mtl

#
# object Box
#

v  -25.9787 -3.4968 39.4534
v  -25.9787 -15.4030 39.4780
v  -25.9786 -26.4123 34.9443
v  -25.9787 -44.9510 48.3985
v  -25.9787 24.5551 48.3985
v  -25.9787 7.4937 34.8745
v  -25.9787 15.8953 26.4382
v  -25.9786 20.4289 15.4289
v  -25.9786 24.5552 -48.3986
v  -25.9786 20.4044 3.5227
v  -25.9786 15.8254 -7.4678
v  -25.9786 7.3891 -15.8694
v  -25.9786 -44.9510 -48.3986
v  -25.9786 -3.6202 -20.4031
v  -25.9786 -15.5263 -20.3785
v  -25.9786 -26.5168 -15.7996
v  -25.9786 -34.9184 -7.3632
v  -25.9786 -39.4521 3.6460
v  -25.9786 -39.4276 15.5522
v  -25.9786 -34.8486 26.5427
v  25.9787 -45.0221 -48.3986
v  25.9786 -45.0221 -0.0000
v  -25.9786 -45.0222 -0.0000
v  -25.9786 -45.0222 -48.3986
v  -25.9786 24.5552 -0.0000
v  25.9786 24.5552 -0.0000
v  25.9787 24.5552 -48.3986
v  25.9786 -45.0222 48.3986
v  25.9786 -8.9109 48.3986
v  -25.9787 -8.9109 48.3986
v  -25.9786 -45.0222 48.3986
v  -25.9786 -8.9109 -48.3986
v  25.9787 -8.9109 -48.3986
v  -25.9787 24.5552 48.3986
v  25.9786 24.5552 48.3986
v  -25.7971 -9.4421 43.2636
v  -25.7971 14.3855 33.3363
v  18.8915 14.3855 33.3363
v  18.8915 -9.4421 43.2636
v  -25.7971 24.2145 9.4679
v  18.8915 24.2145 9.4680
v  -25.7971 14.2872 -14.3596
v  18.8915 14.2872 -14.3596
v  -25.7971 -9.5811 -24.1886
v  18.8915 -9.5811 -24.1886
v  -25.7971 -33.4087 -14.2614
v  18.8915 -33.4087 -14.2613
v  -25.7971 -43.2377 9.6070
v  18.8915 -43.2377 9.6070
v  -25.7971 -33.3104 33.4346
v  18.8915 -33.3104 33.4346
# 51 vertices

vn -1.0000 -0.0000 -0.0000
vn -1.0000 0.0000 -0.0000
vn -1.0000 -0.0000 0.0000
vn 0.0000 -1.0000 -0.0000
vn -0.0000 1.0000 -0.0000
vn -0.0000 0.0000 1.0000
vn -0.0000 -0.0000 1.0000
vn 0.0000 -0.0000 -1.0000
vn -0.0000 1.0000 0.0000
vn 0.0000 0.0000 -1.0000
vn 0.0000 -0.3846 -0.9231
vn 0.0000 -0.9247 -0.3808
vn 0.0000 -0.9231 0.3846
vn -0.0000 -0.3808 0.9247
vn -0.0000 0.3846 0.9231
vn -0.0000 0.9247 0.3808
vn -0.0000 0.9231 -0.3846
vn 0.0000 0.3808 -0.9247
# 18 vertex normals

vt 0.9076 0.5964 0.0000
vt 0.9078 0.4251 0.0000
vt 0.8610 0.2667 0.0000
vt 1.0000 0.0000 0.0000
vt 1.0000 1.0000 0.0000
vt 0.8603 0.7545 0.0000
vt 0.7731 0.8754 0.0000
vt 0.6594 0.9406 0.0000
vt 0.0000 1.0000 0.0000
vt 0.5364 0.9403 0.0000
vt 0.4229 0.8744 0.0000
vt 0.3361 0.7530 0.0000
vt 0.0000 0.0000 0.0000
vt 0.2892 0.5946 0.0000
vt 0.2895 0.4233 0.0000
vt 0.3368 0.2652 0.0000
vt 0.4239 0.1443 0.0000
vt 0.5377 0.0791 0.0000
vt 0.6607 0.0795 0.0000
vt 0.7742 0.1453 0.0000
vt 0.2757 1.0000 0.0000
vt 0.0131 1.0000 0.0000
vt 0.0131 0.0000 0.0000
vt 0.2757 0.0000 0.0000
vt 0.0113 0.0000 0.0000
vt 0.0113 1.0000 0.0000
vt 0.2459 1.0000 0.0000
vt 0.2459 0.0000 0.0000
vt 0.2461 0.0111 0.0000
vt 0.0127 0.0111 0.0000
vt 0.0127 0.9889 0.0000
vt 0.2461 0.9889 0.0000
vt 0.2425 0.0244 0.0000
vt 0.0132 0.0271 0.0000
vt 0.0132 0.9874 0.0000
vt 0.2425 0.9847 0.0000
vt 0.2463 1.0000 0.0000
vt 0.2463 0.0000 0.0000
vt 0.2765 0.0000 0.0000
vt 0.2765 1.0000 0.0000
vt 0.2652 0.0111 0.0000
vt 0.2652 0.9889 0.0000
vt 0.2755 0.0244 0.0000
vt 0.2755 0.9847 0.0000
vt 0.7631 0.8029 0.0000
vt 0.7366 0.8916 0.0000
vt 0.6728 0.9282 0.0000
vt 0.6091 0.8912 0.0000
vt 0.5828 0.8024 0.0000
vt 0.6094 0.7137 0.0000
vt 0.6731 0.6772 0.0000
vt 0.7368 0.7141 0.0000
# 52 texture coords

g Box
usemtl 01___Default
s 8
f 1/1/1 2/2/1 3/3/1 4/4/2 
f 1/1/1 4/4/2 5/5/1 6/6/1 
f 7/7/2 6/6/1 5/5/1 8/8/2 
f 8/8/2 5/5/1 9/9/1 10/10/1 
f 11/11/2 10/10/1 9/9/1 12/12/1 
f 12/12/1 9/9/1 13/13/1 14/14/3 
f 15/15/1 14/14/3 13/13/1 16/16/1 
f 17/17/2 16/16/1 13/13/1 18/18/2 
f 18/18/2 13/13/1 4/4/2 19/19/2 
f 4/4/2 3/3/1 20/20/2 19/19/2 
s 2
f 21/21/4 22/22/4 23/23/4 24/24/4 
s 4
f 25/25/5 26/26/5 27/27/5 9/28/5 
s 16
f 28/29/6 29/30/6 30/31/6 31/32/7 
s 64
f 24/33/8 32/34/8 33/35/8 21/36/8 
s 2
f 28/37/4 31/38/4 23/23/4 22/22/4 
s 4
f 34/39/9 35/40/9 26/26/5 25/25/5 
s 16
f 35/41/6 34/42/6 30/31/6 29/30/6 
s 64
f 9/43/10 27/44/10 33/35/8 32/34/8 
s off
f 36/45/11 37/46/11 38/46/11 39/45/11 
f 37/46/12 40/47/12 41/47/12 38/46/12 
f 40/47/13 42/48/13 43/48/13 41/47/13 
f 42/48/14 44/49/14 45/49/14 43/48/14 
f 44/49/15 46/50/15 47/50/15 45/49/15 
f 46/50/16 48/51/16 49/51/16 47/50/16 
f 48/51/17 50/52/17 51/52/17 49/51/17 
f 50/52/18 36/45/18 39/45/18 51/52/18 
f 41/47/1 43/48/1 45/49/1 39/45/1 
f 45/49/1 47/50/1 49/51/1 39/45/1 
f 49/51/1 51/52/1 39/45/1 
f 38/46/1 41/47/1 39/45/1 
# 28 polygons - 2 triangles

#
# object Fan
#

v  -22.7072 -8.0604 -1.1810
v  -22.7072 -17.9677 -16.9128
v  -22.7072 -28.9694 -8.5273
v  -22.7072 -11.1680 1.2403
v  -22.7072 -15.5243 4.6347
v  -22.7072 -18.6319 7.0561
v  -22.7072 -13.0158 8.1379
v  -22.7072 -8.3546 5.4772
v  -22.7072 -11.6734 18.9588
v  -22.7073 -4.6485 36.1720
v  -22.7072 7.6422 29.8243
v  -22.7072 -8.1926 17.1139
v  -22.7072 -3.3130 14.5276
v  -22.7072 0.1678 12.6826
v  -22.7072 -5.3528 10.1128
v  -22.7072 -10.0141 12.7735
v  -22.7072 1.1225 10.8604
v  -22.7072 17.6578 2.3619
v  -22.7072 10.2631 -9.3287
v  -22.7072 -1.0188 7.5536
v  -22.7072 -4.0206 2.9180
v  -22.7072 -6.1619 -0.3888
v  -22.7072 -19.0943 7.2335
v  -22.7072 -35.6297 15.7320
v  -22.7072 -28.2349 27.4226
v  -22.7072 -16.9530 10.5403
v  -22.7072 -13.9513 15.1759
v  -22.7072 -11.8099 18.4827
v  -16.3658 -10.0141 12.7735
v  -16.3658 -13.0158 8.1379
v  29.3051 -13.0158 8.1379
v  29.3051 -10.0141 12.7735
v  -16.3658 -5.3528 10.1128
v  29.3051 -5.3528 10.1128
v  -16.3658 -8.3546 5.4772
v  29.3051 -8.3546 5.4772
# 36 vertices

vn -1.0000 0.0000 -0.0000
vn -1.0000 -0.0000 -0.0000
vn -0.0000 -0.8394 0.5435
vn -0.0000 0.4957 0.8685
vn 0.0000 0.8394 -0.5435
vn 0.0000 -0.4957 -0.8685
# 6 vertex normals

vt 0.6199 0.6624 0.0000
vt 0.5256 0.9028 0.0000
vt 0.3952 0.7999 0.0000
vt 0.5826 0.6339 0.0000
vt 0.5302 0.5940 0.0000
vt 0.4929 0.5656 0.0000
vt 0.5437 0.5295 0.0000
vt 0.6046 0.5719 0.0000
vt 0.5511 0.5300 0.0000
vt 0.6118 0.5710 0.0000
vt 0.5529 0.5185 0.0000
vt 0.6121 0.5586 0.0000
vt 0.5503 0.5243 0.0000
vt 0.6103 0.5652 0.0000
vt 0.6432 0.4647 0.0000
vt 0.6101 0.5541 0.0000
vt 0.5542 0.5179 0.0000
vt 0.5873 0.4285 0.0000
# 18 texture coords

g Fan
usemtl 01___Default
s 1
f 52/53/19 53/54/19 54/55/19 55/56/19 
f 56/57/19 55/56/19 54/55/19 57/58/20 
s off
f 55/56/19 56/57/19 58/59/19 59/60/19 
s 1
f 60/53/20 61/54/20 62/55/20 63/56/19 
f 64/57/19 63/56/19 62/55/20 65/58/20 
s off
f 63/56/19 64/57/19 66/61/19 67/62/19 
s 1
f 68/53/19 69/54/20 70/55/20 71/56/19 
f 72/57/19 71/56/19 70/55/20 73/58/19 
s off
f 71/56/20 72/57/20 59/63/20 66/64/20 
s 1
f 74/53/19 75/54/20 76/55/19 77/56/19 
f 78/57/19 77/56/19 76/55/19 79/58/20 
s off
f 77/56/20 78/57/20 67/65/20 58/66/20 
f 67/67/19 66/68/19 59/69/19 58/70/19 
f 80/67/21 81/70/21 82/70/21 83/67/21 
f 84/68/22 80/67/22 83/67/22 85/68/22 
f 86/69/23 84/68/23 85/68/23 87/69/23 
f 81/70/24 86/69/24 87/69/24 82/70/24 
# 17 polygons

