<?xml version="1.0" encoding="UTF-8" standalone="no"?>
<!-- Created with Inkscape (http://www.inkscape.org/) -->

<svg
   xmlns:dc="http://purl.org/dc/elements/1.1/"
   xmlns:cc="http://creativecommons.org/ns#"
   xmlns:rdf="http://www.w3.org/1999/02/22-rdf-syntax-ns#"
   xmlns:svg="http://www.w3.org/2000/svg"
   xmlns="http://www.w3.org/2000/svg"
   xmlns:sodipodi="http://sodipodi.sourceforge.net/DTD/sodipodi-0.dtd"
   xmlns:inkscape="http://www.inkscape.org/namespaces/inkscape"
   width="210mm"
   height="297mm"
   viewBox="0 0 210 297"
   version="1.1"
   id="svg80"
   inkscape:version="0.92.4 (5da689c313, 2019-01-14)"
   sodipodi:docname="Alive Breathing Calm.svg">
  <defs
     id="defs74" />
  <sodipodi:namedview
     id="base"
     pagecolor="#ffffff"
     bordercolor="#666666"
     borderopacity="1.0"
     inkscape:pageopacity="0.0"
     inkscape:pageshadow="2"
     inkscape:zoom="1.4"
     inkscape:cx="538.08603"
     inkscape:cy="920.53392"
     inkscape:document-units="mm"
     inkscape:current-layer="layer1"
     showgrid="false"
     inkscape:window-width="1920"
     inkscape:window-height="1001"
     inkscape:window-x="-9"
     inkscape:window-y="-9"
     inkscape:window-maximized="1" />
  <metadata
     id="metadata77">
    <rdf:RDF>
      <cc:Work
         rdf:about="">
        <dc:format>image/svg+xml</dc:format>
        <dc:type
           rdf:resource="http://purl.org/dc/dcmitype/StillImage" />
        <dc:title></dc:title>
      </cc:Work>
    </rdf:RDF>
  </metadata>
  <g
     inkscape:label="Layer 1"
     inkscape:groupmode="layer"
     id="layer1">
    <text
       xml:space="preserve"
       style="font-style:normal;font-weight:normal;font-size:10.58333302px;line-height:1.25;font-family:sans-serif;letter-spacing:0px;word-spacing:0px;fill:#000000;fill-opacity:1;stroke:none;stroke-width:0.26458332"
       x="9.3544331"
       y="14.763378"
       id="text84"><tspan
         sodipodi:role="line"
         x="9.3544331"
         y="14.763378"
         style="stroke-width:0.26458332"
         id="tspan114">Alive/Breathing/Calm</tspan><tspan
         sodipodi:role="line"
         x="9.3544331"
         y="27.992544"
         style="stroke-width:0.26458332"
         id="tspan118">Modifier</tspan><tspan
         sodipodi:role="line"
         x="9.3544331"
         y="41.22171"
         style="stroke-width:0.26458332"
         id="tspan120">Root Word:Living</tspan></text>
    <path
       id="path92"
       d="m 30.115488,92.182208 c 0.334291,-0.371348 0.662755,-0.746789 1.027449,-1.088805 0.279792,-0.263277 0.546185,-0.538647 0.8299,-0.798203 0.261699,-0.258617 0.553262,-0.482468 0.836306,-0.716436 0.320995,-0.301583 0.610393,-0.634868 0.910391,-0.956985 0.297386,-0.285612 0.615463,-0.546264 0.895564,-0.8494 0.241086,-0.273217 0.488408,-0.540673 0.74045,-0.803783 0.283342,-0.274029 0.532511,-0.579339 0.790234,-0.876789 0.257273,-0.274741 0.500819,-0.559819 0.738473,-0.85148 0.243578,-0.276468 0.500867,-0.541604 0.7537,-0.810069 0.240469,-0.26365 0.464839,-0.541047 0.698458,-0.810668 0.229322,-0.297547 0.435829,-0.611264 0.666927,-0.907425 0.248166,-0.260221 0.445074,-0.551006 0.622316,-0.861896 0.171844,-0.295797 0.399473,-0.550733 0.541483,-0.863436 0.132638,-0.273519 0.271875,-0.544304 0.416443,-0.811798 0.130789,-0.302977 0.326205,-0.56611 0.536274,-0.817668 0.193384,-0.267777 0.422616,-0.508169 0.595624,-0.790019 0.158838,-0.258697 0.27662,-0.538962 0.431105,-0.800076 0.155556,-0.276874 0.325117,-0.546759 0.506028,-0.807845 0.212233,-0.29306 0.462907,-0.554924 0.7136,-0.814774 0.261451,-0.29229 0.516557,-0.589772 0.754423,-0.901554 0.236026,-0.314259 0.536474,-0.572595 0.822229,-0.840131 0.275283,-0.258956 0.540594,-0.527386 0.830935,-0.769639 0.04481,-0.03701 0.08963,-0.07402 0.134445,-0.11103 0,0 1.679147,1.051118 1.679147,1.051118 v 0 c -0.04486,0.03702 -0.08972,0.07404 -0.134581,0.111062 -0.290502,0.236723 -0.556231,0.498546 -0.826878,0.757592 -0.278038,0.259956 -0.572133,0.509315 -0.803818,0.813035 -0.243467,0.316995 -0.50552,0.618075 -0.766339,0.920896 -0.243554,0.251809 -0.487775,0.505023 -0.694412,0.788845 -0.178197,0.257077 -0.344546,0.523171 -0.497819,0.795774 -0.15421,0.262694 -0.271809,0.54492 -0.433427,0.80355 -0.179763,0.289039 -0.411467,0.538863 -0.612095,0.813347 -0.202433,0.240943 -0.3879,0.493467 -0.51326,0.784469 -0.141983,0.264583 -0.280612,0.531371 -0.410845,0.801878 -0.150381,0.314695 -0.373586,0.577942 -0.552789,0.87567 -0.182168,0.318982 -0.379978,0.62157 -0.637,0.886873 -0.234344,0.297566 -0.44731,0.61105 -0.671057,0.916456 -0.235807,0.271415 -0.464818,0.548521 -0.703998,0.816811 -0.249793,0.264972 -0.503156,0.527349 -0.745562,0.798544 -0.23958,0.29297 -0.484219,0.579996 -0.744778,0.854768 -0.260474,0.299056 -0.507608,0.610248 -0.793123,0.886394 -0.251404,0.261993 -0.498237,0.528212 -0.738404,0.800582 -0.28035,0.30431 -0.596265,0.567989 -0.899748,0.848563 -0.307075,0.326187 -0.605927,0.66013 -0.919059,0.980538 -0.279538,0.234032 -0.574347,0.44962 -0.833231,0.707438 -0.283927,0.259498 -0.551222,0.534156 -0.833033,0.795343 -0.364672,0.330202 -0.697349,0.69143 -1.006544,1.074316 0,0 -1.700104,-1.023953 -1.700104,-1.023953 z"
       inkscape:connector-curvature="0"
       style="stroke-width:0.26458332" />
    <path
       id="path94"
       d="m 45.043955,73.647434 c 0.442454,0.0066 0.884986,0.0035 1.32747,0.0019 0.304186,-0.0013 0.608375,-0.0019 0.912564,-0.0021 0.267025,-0.01537 0.529275,-0.07258 0.795162,-0.101957 0.267539,-0.02609 0.53652,-0.02942 0.805093,-0.0319 0.268359,0.01807 0.530101,-0.02715 0.793626,-0.06887 0.26771,-0.04229 0.538617,-0.05416 0.809122,-0.06135 0.267639,-0.0051 0.535342,-0.0043 0.803016,-0.0041 0.267255,2.65e-4 0.534511,5.29e-4 0.801769,7.94e-4 0.267261,1e-4 0.534525,1.03e-4 0.801786,1.08e-4 0.267268,0 0.53454,-2e-6 0.801809,-5e-6 0.267269,0 0.534537,0 0.801809,0 0.267269,0 0.534538,0 0.801807,0 0.267271,0 0.53454,0 0.801809,0 0.267269,0 0.53454,0 0.801809,0 0.267269,0 0.534538,0 0.801809,0 0.267269,0 0.534538,0 0.801807,0 0.267271,0 0.53454,0 0.801809,0 0.267269,0 0.53454,0 0.801809,0 0.267269,0 0.534538,0 0.801809,0 0.222724,0 0.445447,0 0.668174,0 0,0 1.607113,1.167635 1.607113,1.167635 v 0 c -0.222723,0 -0.445447,0 -0.668173,0 -0.267269,0 -0.534538,0 -0.801809,0 -0.267269,0 -0.534538,0 -0.801807,0 -0.267271,0 -0.53454,0 -0.801809,0 -0.267269,0 -0.53454,0 -0.801809,0 -0.267269,0 -0.534538,0 -0.80181,0 -0.267268,0 -0.534537,0 -0.801806,0 -0.267272,0 -0.53454,0 -0.801809,0 -0.267269,0 -0.534541,0 -0.801809,0 -0.267269,0 -0.534538,0 -0.80181,3e-6 -0.267269,0 -0.534537,3e-6 -0.801809,5e-6 -0.267277,0 -0.534553,8e-6 -0.801828,-5e-5 -0.267284,-7.4e-5 -0.534566,-1.99e-4 -0.801851,-5.29e-4 -0.266867,-2.65e-4 -0.533741,-0.0013 -0.800605,7.93e-4 -0.265195,0.0033 -0.530995,0.0079 -0.794542,0.04059 -0.270009,0.03736 -0.535207,0.112059 -0.809786,0.09184 -0.265007,7.94e-4 -0.530257,0.0011 -0.794848,0.01765 -0.271468,0.02125 -0.539705,0.06221 -0.806498,0.116877 -0.306186,-2.65e-4 -0.61237,-7.94e-4 -0.918554,-0.0021 -0.440729,-0.0016 -0.881509,-0.0047 -1.32221,0.0019 0,0 -1.605999,-1.166825 -1.605999,-1.166825 z"
       inkscape:connector-curvature="0"
       style="stroke-width:0.26458332" />
    <path
       id="path98"
       d="m 60.838669,73.411611 c 0.444789,0.190952 0.889339,0.382397 1.329391,0.58407 0.801518,0.53449 1.719617,0.919388 2.501845,1.494542 -0.517388,-0.302123 -1.035307,-0.603338 -1.552163,-0.90637 -0.04932,-0.02891 0.100024,0.0554 0.149522,0.08401 0.615807,0.355854 1.230553,0.713537 1.846376,1.069359 0.515239,0.297701 -2.062742,-1.187656 -1.544616,-0.895003 1.687896,0.953378 1.272746,0.677079 1.986454,1.160708 0.297268,0.204732 0.538406,0.476216 0.819994,0.699326 0.284697,0.19232 0.454385,0.47811 0.633146,0.760941 0.192767,0.299432 0.366691,0.606068 0.620961,0.858586 0.291422,0.248412 0.548727,0.527042 0.801404,0.813523 0.228412,0.229338 0.448958,0.466286 0.671161,0.702529 0.170566,0.109167 0.288703,0.280959 0.451599,0.397889 0.07124,0.05114 0.1495,0.09175 0.223144,0.139366 0.219189,0.203139 0.421457,0.423858 0.62906,0.638697 0.246089,0.223435 0.490606,0.450831 0.74077,0.669784 0.245758,0.234889 0.514045,0.441995 0.775517,0.658572 0.281067,0.237567 0.512046,0.528013 0.759937,0.799036 0.231655,0.27486 0.505631,0.50709 0.759041,0.759299 0.125701,0.148754 0.217403,0.328861 0.370597,0.453252 0.414271,0.336386 -0.181364,-0.184488 0.206055,0.159224 0.213654,0.191074 0.394544,0.418846 0.551624,0.658064 0.197041,0.228608 0.431777,0.411461 0.619469,0.649808 0.210156,0.278578 0.443802,0.537705 0.682263,0.791996 0.256,0.180017 0.391467,0.467569 0.612563,0.680786 0.24225,0.190064 0.418013,0.435766 0.590764,0.686287 0.205696,0.256633 0.397952,0.522899 0.600467,0.782032 0.231317,0.247465 0.417356,0.527142 0.601189,0.809871 0.213622,0.296161 0.427834,0.591275 0.661434,0.872236 0.253942,0.317558 0.574279,0.569687 0.87697,0.838081 0.293063,0.237244 0.524153,0.534723 0.771099,0.816755 0.25468,0.292071 0.536353,0.558684 0.788379,0.852863 0.292169,0.324827 0.578329,0.653519 0.870349,0.977908 0.09759,0.122032 0.226129,0.21036 0.347927,0.30565 0,0 -1.840248,-0.742217 -1.840248,-0.742217 v 0 c -0.118475,-0.103884 -0.233606,-0.210672 -0.332227,-0.334378 -0.278442,-0.333208 -0.584639,-0.640757 -0.864722,-0.972688 -0.264781,-0.285763 -0.540699,-0.561316 -0.794125,-0.857536 -0.243163,-0.279794 -0.488194,-0.5574 -0.777299,-0.791831 -0.306398,-0.271373 -0.616651,-0.540504 -0.865486,-0.868278 -0.229957,-0.289518 -0.450622,-0.586912 -0.65805,-0.892993 -0.18392,-0.279347 -0.393304,-0.538009 -0.606103,-0.795716 -0.199109,-0.263977 -0.405119,-0.522517 -0.599498,-0.789963 -0.17699,-0.243449 -0.385561,-0.454565 -0.601845,-0.663141 -0.193746,-0.23494 -0.375999,-0.477764 -0.60765,-0.678546 -0.236212,-0.259204 -0.461552,-0.527296 -0.68185,-0.800123 C 73.157166,84.826546 72.918666,84.634696 72.749316,84.381106 72.577538,84.158195 72.398471,83.941234 72.176128,83.766014 71.957892,83.58343 71.801521,83.351555 71.607888,83.145235 71.344808,82.90081 71.097009,82.641259 70.856297,82.3748 70.612412,82.105526 70.376411,81.825808 70.08714,81.602974 69.821662,81.386825 69.559674,81.167054 69.310154,80.9324 69.068896,80.701853 68.802204,80.499391 68.576425,80.252628 68.370957,80.041292 68.171932,79.817507 67.927433,79.65015 67.689398,79.482367 67.483587,79.273002 67.27264,79.073245 c -0.221462,-0.236384 -0.449964,-0.465921 -0.666832,-0.706448 -0.254458,-0.283501 -0.532276,-0.541282 -0.801097,-0.81075 -0.230685,-0.27804 -0.41229,-0.587904 -0.60973,-0.889677 -0.179766,-0.273254 -0.389372,-0.512794 -0.656058,-0.706282 -0.266526,-0.237225 -0.52541,-0.486341 -0.829779,-0.675983 -0.04878,-0.02967 -0.195892,-0.117372 -0.146343,-0.089 0.516739,0.295889 2.064319,1.188148 1.547966,0.891585 -6.160053,-3.537995 1.078798,0.628732 -0.451115,-0.256625 -0.612569,-0.354491 -1.22392,-0.711083 -1.835878,-1.066625 -0.640082,-0.422603 -2.003909,-1.236882 0.889559,0.463526 -0.431128,-0.213413 -0.875313,-0.401352 -1.32029,-0.583536 0,0 -1.554374,-1.231815 -1.554374,-1.231815 z"
       inkscape:connector-curvature="0"
       style="stroke-width:0.26458332" />
    <path
       id="path102"
       sodipodi:type="arc"
       sodipodi:cx="69.790756"
       sodipodi:cy="66.647072"
       sodipodi:rx="2.4388344"
       sodipodi:ry="1.9711127"
       sodipodi:start="0"
       sodipodi:end="6.2356949"
       d="m 72.229591,66.647072 a 2.4388344,1.9711127 0 0 1 -2.40988,1.970974 2.4388344,1.9711127 0 0 1 -2.467102,-1.924174 2.4388344,1.9711127 0 0 1 2.3513,-2.016663 2.4388344,1.9711127 0 0 1 2.522932,1.876289 l -2.436085,0.09357 z"
       style="stroke-width:0.26458332" />
    <path
       id="path104"
       sodipodi:type="arc"
       sodipodi:cx="55.525246"
       sodipodi:cy="93.106758"
       sodipodi:rx="2.271791"
       sodipodi:ry="2.1715648"
       sodipodi:start="0"
       sodipodi:end="6.2356949"
       d="m 57.797037,93.106758 a 2.271791,2.1715648 0 0 1 -2.24482,2.171412 2.271791,2.1715648 0 0 1 -2.298122,-2.119852 2.271791,2.1715648 0 0 1 2.190252,-2.221747 2.271791,2.1715648 0 0 1 2.350128,2.067097 l -2.269229,0.10309 z"
       style="stroke-width:0.26458332" />
  </g>
</svg>
