<?xml version="1.0" encoding="UTF-8" standalone="no"?>
<!-- Created with Inkscape (http://www.inkscape.org/) -->

<svg
   xmlns:dc="http://purl.org/dc/elements/1.1/"
   xmlns:cc="http://creativecommons.org/ns#"
   xmlns:rdf="http://www.w3.org/1999/02/22-rdf-syntax-ns#"
   xmlns:svg="http://www.w3.org/2000/svg"
   xmlns="http://www.w3.org/2000/svg"
   xmlns:sodipodi="http://sodipodi.sourceforge.net/DTD/sodipodi-0.dtd"
   xmlns:inkscape="http://www.inkscape.org/namespaces/inkscape"
   width="210mm"
   height="297mm"
   viewBox="0 0 210 297"
   version="1.1"
   id="svg8"
   inkscape:version="0.92.4 (5da689c313, 2019-01-14)"
   sodipodi:docname="Beach Sand Grit.svg">
  <defs
     id="defs2" />
  <sodipodi:namedview
     id="base"
     pagecolor="#ffffff"
     bordercolor="#666666"
     borderopacity="1.0"
     inkscape:pageopacity="0.0"
     inkscape:pageshadow="2"
     inkscape:zoom="0.7"
     inkscape:cx="504.90616"
     inkscape:cy="641.92384"
     inkscape:document-units="mm"
     inkscape:current-layer="layer1"
     showgrid="false"
     inkscape:window-width="1920"
     inkscape:window-height="1001"
     inkscape:window-x="-9"
     inkscape:window-y="-9"
     inkscape:window-maximized="1" />
  <metadata
     id="metadata5">
    <rdf:RDF>
      <cc:Work
         rdf:about="">
        <dc:format>image/svg+xml</dc:format>
        <dc:type
           rdf:resource="http://purl.org/dc/dcmitype/StillImage" />
        <dc:title></dc:title>
      </cc:Work>
    </rdf:RDF>
  </metadata>
  <g
     inkscape:label="Layer 1"
     inkscape:groupmode="layer"
     id="layer1">
    <text
       xml:space="preserve"
       style="font-style:normal;font-weight:normal;font-size:10.58333302px;line-height:1.25;font-family:sans-serif;letter-spacing:0px;word-spacing:0px;fill:#000000;fill-opacity:1;stroke:none;stroke-width:0.26458332"
       x="4.1577382"
       y="10.116071"
       id="text12"><tspan
         sodipodi:role="line"
         id="tspan10"
         x="4.1577382"
         y="10.116071"
         style="stroke-width:0.26458332">Beach/Sand/Grit</tspan><tspan
         sodipodi:role="line"
         x="4.1577382"
         y="23.345238"
         style="stroke-width:0.26458332"
         id="tspan20">Flexable Base</tspan><tspan
         sodipodi:role="line"
         x="4.1577382"
         y="36.574402"
         style="stroke-width:0.26458332"
         id="tspan16" /><tspan
         sodipodi:role="line"
         x="4.1577382"
         y="49.80357"
         style="stroke-width:0.26458332"
         id="tspan14" /></text>
    <circle
       id="path26"
       cx="83.34375"
       cy="98.373505"
       r="3.5907736"
       style="stroke-width:0.26458332" />
    <ellipse
       id="path28"
       cx="97.51786"
       cy="134.65923"
       rx="3.7797618"
       ry="3.96875"
       style="stroke-width:0.26458332" />
    <path
       id="path44"
       d="m 36.675549,161.31109 c 0.631616,-0.47097 1.266031,-0.93748 1.876592,-1.43568 0.462907,-0.38691 0.908431,-0.79494 1.326896,-1.22954 0.397613,-0.43754 0.769424,-0.8967 1.138317,-1.35832 0.321389,-0.43597 0.715631,-0.80164 1.118991,-1.15886 0.420518,-0.35677 0.773118,-0.78311 1.141365,-1.19141 0.406781,-0.41938 0.853887,-0.79704 1.284073,-1.19192 0.408035,-0.3759 0.808424,-0.7592 1.175547,-1.17539 0.353229,-0.41625 0.721426,-0.8192 1.075441,-1.23472 0.314457,-0.2901 0.603946,-0.59818 0.876424,-0.92799 0.352356,-0.4425 0.78545,-0.81008 1.200637,-1.19115 0.405045,-0.37572 0.808485,-0.75369 1.190487,-1.15296 0.378132,-0.45811 0.781847,-0.88807 1.217438,-1.29151 0.334672,-0.28753 0.678294,-0.5631 0.999199,-0.86605 0.281819,-0.26307 0.582166,-0.50293 0.847744,-0.78295 0.297198,-0.36512 0.65995,-0.66119 1.022702,-0.95685 0.288149,-0.24338 0.573735,-0.48965 0.862615,-0.73275 0.403924,-0.32859 0.757468,-0.7074 1.098421,-1.09905 0.32875,-0.40032 0.710041,-0.75168 1.120571,-1.06593 0.350986,-0.24414 0.681321,-0.51411 1.019553,-0.77486 0.404942,-0.28604 0.747729,-0.63823 1.076341,-1.00629 0.369202,-0.44576 0.778783,-0.84996 1.210334,-1.2343 0.421727,-0.36729 0.830268,-0.74909 1.23299,-1.13698 0.398439,-0.41784 0.774137,-0.85778 1.149133,-1.2968 0.329404,-0.40047 0.670663,-0.79142 1.013412,-1.18058 0.340564,-0.37242 0.682393,-0.74387 1.008854,-1.12882 0.318976,-0.3927 0.670227,-0.75692 1.009052,-1.13205 0.354772,-0.43407 0.733068,-0.84782 1.098939,-1.27226 0.269042,-0.33506 0.560443,-0.64985 0.817999,-0.9941 0.23935,-0.30088 0.458907,-0.61637 0.680551,-0.93025 0.222871,-0.32928 0.459658,-0.64862 0.694981,-0.96901 0.237405,-0.28528 0.408059,-0.61463 0.619977,-0.91727 0.23105,-0.31101 0.49526,-0.59088 0.768479,-0.86427 0.240779,-0.21057 0.453105,-0.45005 0.685263,-0.6693 0.23255,-0.23071 0.415147,-0.50408 0.629359,-0.75073 0.267428,-0.36827 0.545449,-0.71691 0.877168,-1.0295 0.3004,-0.28396 0.630714,-0.53345 0.922409,-0.82625 0.373547,-0.41229 0.797346,-0.77412 1.207056,-1.14922 0.294661,-0.29387 0.588227,-0.59038 0.862446,-0.90358 0.269502,-0.30718 0.533863,-0.61856 0.799531,-0.92903 0.262112,-0.33768 0.547267,-0.65611 0.818965,-0.98589 0.247319,-0.26425 0.454067,-0.5603 0.682987,-0.83905 0.275609,-0.30372 0.550077,-0.60737 0.789813,-0.94038 0.27364,-0.35422 0.562288,-0.68735 0.914787,-0.96443 1.244724,-0.59115 2.362536,-1.44127 3.605919,-2.04114 0.374433,-0.16584 0.780446,-0.20171 1.184137,-0.22098 0.379936,-0.0113 0.760119,-0.007 1.140158,-0.005 0.377831,0.002 0.755666,0.003 1.133499,0.003 0.377936,2.7e-4 0.75587,2.7e-4 1.133806,2.7e-4 0.377396,0.0787 0.757343,0.13547 1.141576,0.16543 0.375087,0.0237 0.7511,0.024 1.126771,0.025 0.377783,1.9e-4 0.755565,-5.3e-4 1.133348,-10e-4 0.391157,-0.0366 0.764963,0.0394 1.147453,0.10428 0.385828,0.0319 0.753692,0.1504 1.134938,0.21245 0.377629,0.11405 0.761627,0.19307 1.141079,0.29948 0.381064,0.0715 0.746273,0.19776 1.128329,0.2658 0.364461,0.13023 0.743122,0.19534 1.127072,0.22959 0.380881,0.0383 0.752684,0.13402 1.134991,0.17532 0.38068,0.046 0.75157,0.14473 1.134398,0.18791 0.369348,0.11123 0.748258,0.17168 1.131718,0.2037 0.37134,0.10181 0.75036,0.15909 1.13348,0.18951 0.37878,0.0356 0.7616,-0.009 1.13595,0.0596 0.37182,0.0813 0.75006,0.11779 1.12941,0.13783 0.38709,-0.0135 0.75982,0.0921 1.14061,0.14538 0.39133,0.0441 0.77019,0.16367 1.14529,0.27971 0.36221,0.10876 0.73956,0.13462 1.11513,0.14993 0.37626,0.0104 0.75272,0.008 1.12908,0.007 0.37798,-10e-4 0.75596,-0.002 1.13394,-0.002 0.378,-2.3e-4 0.756,-2.3e-4 1.134,-2.3e-4 0.37798,0 0.75596,1e-5 1.13394,1e-5 0.37797,0 0.75595,0 1.13392,0 0.37798,0 0.75596,0 1.13393,0 0.37798,0 0.75596,0 1.13393,0 0.37798,0 0.75596,0 1.13393,0 0.37798,0 0.75595,0 1.13393,0 1e-5,0 0.37796,0 0.37797,0 0,0 -2.2728,1.65129 -2.2728,1.65129 v 0 c -0.12599,0 -0.25199,0 -0.37797,0 -0.37798,0 -0.75596,0 -1.13393,0 -0.37798,0 -0.75596,0 -1.13393,0 -0.37798,0 -0.75595,0 -1.13393,0 -0.37798,0 -0.75595,0 -1.13393,0 -0.37797,0 -0.75595,0 -1.13393,-1e-5 -0.37797,0 -0.75595,-1e-5 -1.13392,0 -0.37795,3e-5 -0.7559,7e-5 -1.13385,5.3e-4 -0.37798,5.3e-4 -0.75595,0.001 -1.13392,0.002 -0.37964,-3e-5 -0.75962,0.001 -1.13878,-0.0205 -0.39061,-0.0293 -0.77933,-0.0814 -1.15272,-0.20561 -0.36689,-0.11126 -0.74132,-0.20042 -1.12257,-0.24538 -0.37429,-0.0612 -0.74614,-0.12832 -1.12725,-0.12616 -0.38221,-0.0313 -0.76016,-0.0888 -1.13845,-0.15078 -0.37707,-0.0219 -0.755908,-0.0113 -1.131905,-0.0537 -0.381868,-0.0448 -0.755573,-0.128 -1.134375,-0.19079 -0.383465,-0.0477 -0.757584,-0.13533 -1.136141,-0.21009 -0.378937,-0.0573 -0.751015,-0.15332 -1.13346,-0.18656 -0.378327,-0.0545 -0.750792,-0.14562 -1.132866,-0.17224 -0.38753,-0.0526 -0.763749,-0.14737 -1.140783,-0.24971 -0.381884,-0.0857 -0.757909,-0.19579 -1.139531,-0.28281 -0.37284,-0.10301 -0.751922,-0.1828 -1.126776,-0.27785 -0.376952,-0.075 -0.749969,-0.16759 -1.132919,-0.20948 -0.372182,-0.0619 -0.742823,-0.0824 -1.120405,-0.0658 -0.378169,5.3e-4 -0.756343,0.001 -1.134509,-5.3e-4 -0.380659,-0.004 -0.761881,-0.008 -1.141087,-0.0451 -0.376624,-0.0414 -0.748139,-0.12193 -1.126287,-0.14399 -0.37801,-2e-5 -0.756017,-4e-5 -1.134028,-5.3e-4 -0.377962,-5.3e-4 -0.755919,-0.002 -1.133877,-0.003 -0.375782,-0.001 -0.752186,-0.005 -1.127238,0.0226 -0.387906,0.0391 -0.767935,0.11462 -1.112674,0.30707 -0.975156,0.52598 -3.017001,1.65582 1.191361,-0.73943 -0.379437,0.23174 -0.671777,0.53475 -0.942245,0.88521 -0.266713,0.31219 -0.476279,0.67338 -0.784289,0.954 -0.248213,0.26803 -0.434541,0.57317 -0.683228,0.84105 -0.290901,0.30769 -0.547931,0.64966 -0.82161,0.9734 -0.2475,0.32567 -0.529493,0.62289 -0.794841,0.93472 -0.271139,0.32997 -0.573201,0.62709 -0.86265,0.94109 -0.404172,0.37426 -0.830551,0.72763 -1.207553,1.12896 -0.280723,0.31061 -0.587978,0.58334 -0.918604,0.84018 -0.322678,0.31005 -0.656619,0.59221 -0.880607,0.98869 -0.194771,0.26717 -0.427556,0.50572 -0.620245,0.7755 -0.212439,0.24302 -0.46039,0.45283 -0.679987,0.68931 -0.296433,0.23881 -0.557138,0.5208 -0.78595,0.82558 -0.260408,0.26883 -0.374565,0.62396 -0.63092,0.89565 -0.21563,0.33663 -0.483536,0.63708 -0.693626,0.97683 -0.231278,0.30912 -0.438957,0.63382 -0.670983,0.94244 -0.285078,0.32346 -0.524762,0.68936 -0.826673,1.00005 -0.347813,0.44115 -0.75552,0.83241 -1.098409,1.27854 -0.319413,0.38956 -0.688242,0.73522 -1.005867,1.12693 -0.323593,0.38967 -0.658439,0.76803 -1.005723,1.13678 -0.348406,0.3852 -0.686938,0.77966 -1.024663,1.1733 -0.361466,0.45493 -0.765548,0.87468 -1.13388,1.32434 -0.402,0.39217 -0.807804,0.78067 -1.231011,1.15009 -0.430712,0.37774 -0.862009,0.75226 -1.221623,1.20169 -0.326806,0.37351 -0.640789,0.75883 -1.046295,1.05219 -0.341548,0.26116 -0.666014,0.53927 -1.022281,0.7802 -0.413883,0.30047 -0.82123,0.61643 -1.149863,1.01249 -0.340472,0.39503 -0.669595,0.79931 -1.073859,1.13291 -0.284338,0.25138 -0.591728,0.47357 -0.853467,0.74896 -0.379084,0.26374 -0.744445,0.56132 -1.048189,0.91075 -0.257551,0.29496 -0.534681,0.55433 -0.827707,0.81132 -0.349033,0.27424 -0.64168,0.61868 -1.016558,0.86421 -0.43738,0.39568 -0.868103,0.79409 -1.225878,1.26642 -0.361426,0.4228 -0.779423,0.79217 -1.18064,1.17658 -0.409083,0.37793 -0.843645,0.73444 -1.21055,1.1538 -0.271749,0.3299 -0.515271,0.68998 -0.870498,0.93832 -0.375775,0.39649 -0.716127,0.82822 -1.08439,1.23259 -0.361476,0.42711 -0.745593,0.82931 -1.162394,1.20379 -0.425296,0.39632 -0.862139,0.77959 -1.293325,1.16941 -0.373073,0.40786 -0.722077,0.84107 -1.126104,1.21811 -0.399941,0.35367 -0.821314,0.68658 -1.143,1.1179 -0.374047,0.46047 -0.734372,0.93117 -1.130721,1.37324 -0.398705,0.46381 -0.862647,0.86663 -1.321051,1.27016 -0.601326,0.50241 -1.230871,0.9668 -1.854295,1.44082 0,0 -2.605839,1.03631 -2.605839,1.03631 z"
       inkscape:connector-curvature="0"
       style="stroke-width:0.26458332" />
  </g>
</svg>
