<?xml version="1.0" encoding="UTF-8" standalone="no"?>
<!-- Created with Inkscape (http://www.inkscape.org/) -->

<svg
   xmlns:dc="http://purl.org/dc/elements/1.1/"
   xmlns:cc="http://creativecommons.org/ns#"
   xmlns:rdf="http://www.w3.org/1999/02/22-rdf-syntax-ns#"
   xmlns:svg="http://www.w3.org/2000/svg"
   xmlns="http://www.w3.org/2000/svg"
   xmlns:sodipodi="http://sodipodi.sourceforge.net/DTD/sodipodi-0.dtd"
   xmlns:inkscape="http://www.inkscape.org/namespaces/inkscape"
   width="210mm"
   height="297mm"
   viewBox="0 0 210 297"
   version="1.1"
   id="svg26"
   inkscape:version="0.92.4 (5da689c313, 2019-01-14)"
   sodipodi:docname="Break Destroy Ruins.svg">
  <defs
     id="defs20" />
  <sodipodi:namedview
     id="base"
     pagecolor="#ffffff"
     bordercolor="#666666"
     borderopacity="1.0"
     inkscape:pageopacity="0.0"
     inkscape:pageshadow="2"
     inkscape:zoom="0.49497475"
     inkscape:cx="716.19997"
     inkscape:cy="752.19854"
     inkscape:document-units="mm"
     inkscape:current-layer="layer1"
     showgrid="false"
     inkscape:window-width="1920"
     inkscape:window-height="1001"
     inkscape:window-x="-9"
     inkscape:window-y="-9"
     inkscape:window-maximized="1" />
  <metadata
     id="metadata23">
    <rdf:RDF>
      <cc:Work
         rdf:about="">
        <dc:format>image/svg+xml</dc:format>
        <dc:type
           rdf:resource="http://purl.org/dc/dcmitype/StillImage" />
        <dc:title></dc:title>
      </cc:Work>
    </rdf:RDF>
  </metadata>
  <g
     inkscape:label="Layer 1"
     inkscape:groupmode="layer"
     id="layer1">
    <text
       xml:space="preserve"
       style="font-style:normal;font-weight:normal;font-size:10.58333302px;line-height:1.25;font-family:sans-serif;letter-spacing:0px;word-spacing:0px;fill:#000000;fill-opacity:1;stroke:none;stroke-width:0.26458332"
       x="6.0476193"
       y="8.2261896"
       id="text30"><tspan
         sodipodi:role="line"
         id="tspan28"
         x="6.0476193"
         y="8.2261896"
         style="stroke-width:0.26458332">Break/Destroy/Ruins</tspan><tspan
         sodipodi:role="line"
         x="6.0476193"
         y="21.455357"
         style="stroke-width:0.26458332"
         id="tspan32">Root Word: Destroy</tspan><tspan
         sodipodi:role="line"
         x="6.0476193"
         y="34.684521"
         style="stroke-width:0.26458332"
         id="tspan34">Flexable Base</tspan></text>
    <g
       id="g45"
       transform="matrix(4.3294572,0,0,4.3294572,-90.418914,-268.83481)">
      <path
         style="stroke-width:0.26458332"
         inkscape:connector-curvature="0"
         d="m 29.6296,100.36951 c 0.113511,0.66489 0.266475,1.32381 0.471797,1.96633 0.148325,0.52466 0.35143,1.03153 0.569727,1.53043 0.212619,0.52203 0.488238,1.01204 0.734848,1.51736 0.191334,0.44932 0.42498,0.8764 0.663692,1.30144 0.185994,0.36916 0.354745,0.74687 0.560753,1.10528 0.165928,0.35197 0.343585,0.68765 0.577712,0.99949 0.167989,0.2354 0.415634,0.65878 0.756301,0.51413 0.770861,-0.54499 2.104644,-1.17864 -2.014051,1.12818 -0.05132,0.0287 0.09831,-0.065 0.143597,-0.10255 0.140378,-0.11637 0.185762,-0.18146 0.307383,-0.32207 0.290089,-0.35098 0.588155,-0.69691 0.907018,-1.02222 0.304326,-0.32039 0.614918,-0.63407 0.917673,-0.95617 0.371329,-0.39537 0.750821,-0.78293 1.133279,-1.1675 0.487622,-0.48659 0.972899,-0.97553 1.460685,-1.46196 0.510389,-0.5054 1.02121,-1.00943 1.501836,-1.54339 0.56502,-0.62629 1.112155,-1.26822 1.659657,-1.90981 0.692153,-0.80553 1.331817,-1.65315 1.962849,-2.506667 0.567324,-0.800875 1.112697,-1.618998 1.73079,-2.382072 1.159507,-1.390142 2.370876,-2.735443 3.53641,-4.120515 0.774235,-0.918456 1.551551,-1.833351 2.308741,-2.765846 0.443492,-0.508677 0.895146,-1.018738 1.408922,-1.458243 1.049941,-0.829387 2.271861,-1.388158 3.410794,-2.08479 0.730044,-0.446534 -1.483804,0.853072 -2.225707,1.279607 0.327925,-0.222655 0.627248,-0.48433 0.915446,-0.755539 0.29706,-0.256743 0.585964,-0.522393 0.879165,-0.783677 0.307369,-0.312899 0.675262,-0.551566 1.01881,-0.820057 0.317079,-0.254921 0.608531,-0.536205 0.899178,-0.820018 0.292283,-0.292603 0.62528,-0.537186 0.941578,-0.80222 0.300017,-0.21201 0.556496,-0.475329 0.829556,-0.718788 0.221721,-0.237852 0.488458,-0.423246 0.724205,-0.645313 0.225729,-0.246692 0.457821,-0.487196 0.677431,-0.73954 0,0 2.598848,-1.078465 2.598848,-1.078465 v 0 c -0.249176,0.221297 -0.431297,0.505431 -0.685268,0.724035 -0.201678,0.2779 -0.49013,0.424839 -0.710181,0.681312 -0.282287,0.239705 -0.535271,0.507246 -0.827408,0.734735 -0.332062,0.238707 -0.649158,0.508918 -0.949002,0.784765 -0.316158,0.256476 -0.568944,0.58312 -0.895747,0.828294 -0.326758,0.291547 -0.711901,0.501536 -1.02448,0.810321 -0.289033,0.26616 -0.586457,0.522422 -0.873675,0.788426 -0.313441,0.24829 -0.579969,0.551884 -0.903917,0.789948 -5.329304,3.125089 -1.693513,0.988737 -0.369819,0.227968 0.557379,-0.320344 -1.400191,0.839195 -0.832048,0.559755 -0.551829,0.393581 -0.990825,0.924375 -1.455632,1.412727 -0.78531,0.929529 -1.550551,1.87602 -2.356236,2.788835 -1.159486,1.36824 -2.370847,2.692839 -3.485978,4.098232 -0.645618,0.742018 -1.185214,1.56977 -1.752695,2.371616 -0.623832,0.859044 -1.260518,1.709904 -1.947051,2.520304 -0.537014,0.64531 -1.081574,1.28466 -1.641557,1.9101 -0.474805,0.54096 -0.974587,1.05564 -1.491503,1.55686 -0.485177,0.4863 -0.973138,0.96984 -1.455817,1.45863 -0.379225,0.38358 -0.759503,0.76621 -1.130115,1.15817 -0.30163,0.32055 -0.59699,0.64647 -0.911016,0.95282 -0.303144,0.33802 -0.639345,0.64788 -0.919366,1.00739 -0.812546,1.04421 -1.928151,1.85445 -3.291525,2.05321 -0.405712,-0.10087 -0.672616,-0.39667 -0.892202,-0.74146 -0.241083,-0.32105 -0.434528,-0.66215 -0.599297,-1.02782 -0.204076,-0.3607 -0.376357,-0.73753 -0.556985,-1.11042 -0.239162,-0.43153 -0.476536,-0.86312 -0.672214,-1.31697 -0.239254,-0.51211 -0.515545,-1.00623 -0.732718,-1.52918 -0.222382,-0.50744 -0.442375,-1.02042 -0.587603,-1.55609 -0.197379,-0.65218 -0.340778,-1.31813 -0.490214,-1.98274 0,0 2.472346,-1.3286 2.472346,-1.3286 z"
         id="path36" />
      <path
         style="stroke-width:0.24993573"
         inkscape:connector-curvature="0"
         d="m 29.616153,89.586726 c 0.332628,0.507034 0.721285,0.959115 1.027279,1.487768 0.252012,0.407506 0.499578,0.819814 0.770611,1.21194 0.265026,0.427138 0.531086,0.853151 0.799844,1.277604 0.341881,0.493932 0.656809,1.008996 0.961305,1.53253 0.272927,0.38962 0.565168,0.766519 0.861061,1.135227 0.20372,0.281508 0.444629,0.520901 0.652918,0.798959 0.229982,0.232773 0.420715,0.498621 0.613888,0.767297 0,0 -2.156791,1.442254 -2.156791,1.442254 v 0 c -0.186192,-0.269978 -0.386973,-0.521189 -0.60426,-0.76146 -0.210501,-0.27323 -0.455999,-0.507786 -0.651097,-0.795816 -0.293931,-0.386779 -0.597229,-0.76739 -0.863774,-1.178333 -0.305426,-0.51853 -0.62241,-1.02726 -0.96275,-1.517922 -0.271684,-0.419092 -0.53093,-0.846979 -0.799358,-1.268204 -0.270499,-0.401719 -0.529894,-0.812733 -0.774471,-1.234614 -0.298969,-0.517824 -0.677356,-0.967663 -1.019875,-1.449139 0,0 2.14547,-1.448091 2.14547,-1.448091 z"
         id="path38" />
      <ellipse
         style="stroke-width:0.26458332"
         ry="2.4568453"
         rx="2.6458333"
         cy="117.4613"
         cx="45.168152"
         id="path40" />
    </g>
  </g>
</svg>
