<?xml version="1.0" encoding="UTF-8" standalone="no"?>
<!-- Created with Inkscape (http://www.inkscape.org/) -->

<svg
   xmlns:dc="http://purl.org/dc/elements/1.1/"
   xmlns:cc="http://creativecommons.org/ns#"
   xmlns:rdf="http://www.w3.org/1999/02/22-rdf-syntax-ns#"
   xmlns:svg="http://www.w3.org/2000/svg"
   xmlns="http://www.w3.org/2000/svg"
   xmlns:sodipodi="http://sodipodi.sourceforge.net/DTD/sodipodi-0.dtd"
   xmlns:inkscape="http://www.inkscape.org/namespaces/inkscape"
   width="210mm"
   height="297mm"
   viewBox="0 0 210 297"
   version="1.1"
   id="svg93"
   inkscape:version="0.92.4 (5da689c313, 2019-01-14)"
   sodipodi:docname="Bright Star Bright Light.svg">
  <defs
     id="defs87" />
  <sodipodi:namedview
     id="base"
     pagecolor="#ffffff"
     bordercolor="#666666"
     borderopacity="1.0"
     inkscape:pageopacity="0.0"
     inkscape:pageshadow="2"
     inkscape:zoom="0.7"
     inkscape:cx="953.44568"
     inkscape:cy="601.24442"
     inkscape:document-units="mm"
     inkscape:current-layer="layer1"
     showgrid="false"
     inkscape:window-width="1920"
     inkscape:window-height="1001"
     inkscape:window-x="-9"
     inkscape:window-y="-9"
     inkscape:window-maximized="1" />
  <metadata
     id="metadata90">
    <rdf:RDF>
      <cc:Work
         rdf:about="">
        <dc:format>image/svg+xml</dc:format>
        <dc:type
           rdf:resource="http://purl.org/dc/dcmitype/StillImage" />
        <dc:title></dc:title>
      </cc:Work>
    </rdf:RDF>
  </metadata>
  <g
     inkscape:label="Layer 1"
     inkscape:groupmode="layer"
     id="layer1">
    <text
       xml:space="preserve"
       style="font-style:normal;font-weight:normal;font-size:10.58333302px;line-height:1.25;font-family:sans-serif;letter-spacing:0px;word-spacing:0px;fill:#000000;fill-opacity:1;stroke:none;stroke-width:0.26458332"
       x="11.717261"
       y="13.517858"
       id="text103"><tspan
         sodipodi:role="line"
         id="tspan101"
         x="11.717261"
         y="13.517858"
         style="stroke-width:0.26458332">Bright/Star/Bright Light</tspan><tspan
         sodipodi:role="line"
         x="11.717261"
         y="26.747025"
         style="stroke-width:0.26458332"
         id="tspan105">Flexible Base</tspan><tspan
         sodipodi:role="line"
         x="11.717261"
         y="39.976189"
         style="stroke-width:0.26458332"
         id="tspan109">Root word: Astrostar</tspan></text>
    <path
       id="path117"
       d="m 27.975665,142.86981 c 0.66212,1.28007 1.404263,2.51438 2.15758,3.74213 0.424365,0.86609 0.903033,1.67022 1.468207,2.44853 0.424111,0.70196 0.874808,1.38677 1.272101,2.1046 0.441169,0.75901 0.892228,1.51168 1.417476,2.216 0.588867,0.78329 1.170807,1.5505 1.874726,2.23442 0.76731,0.69057 1.435037,1.47899 2.05368,2.30241 0.599824,0.72191 1.126072,1.49356 1.624618,2.28718 0.518936,0.74976 1.068602,1.47538 1.481519,2.29099 0.28784,0.64391 0.770776,0.82909 1.425316,0.91537 0.10301,-0.0171 0.207989,-0.025 0.309033,-0.0514 0.430122,-0.11218 0.802767,-0.33583 1.179634,-0.56226 0.155438,-0.0934 0.62339,-0.37076 0.465839,-0.28097 -1.433619,0.81697 -2.862779,1.64174 -4.294169,2.46262 0.947086,-0.66592 1.803635,-1.4484 2.681618,-2.2003 0.878337,-0.69979 1.781934,-1.3493 2.596711,-2.1248 0.842505,-0.81938 1.738714,-1.57089 2.708346,-2.23377 0.9115,-0.5734 1.702438,-1.30817 2.573274,-1.93588 1.980081,-1.26629 4.066305,-2.38597 6.098487,-3.54606 1.429745,-0.81619 -2.850459,1.64811 -4.279908,2.46482 -0.338801,0.19357 0.662239,-0.41311 0.986923,-0.62953 0.967062,-0.66033 1.898321,-1.36966 2.864709,-2.03097 1.766846,-1.01579 3.533691,-2.03158 5.300533,-3.04738 0.159271,-0.0922 0.637426,-0.36805 0.477811,-0.27648 -1.446141,0.82957 -2.885821,1.67048 -4.337388,2.49052 -0.29059,0.16416 0.543811,-0.38861 0.831606,-0.55762 1.722771,-1.01174 3.456739,-2.00429 5.185109,-3.00643 2.155444,-1.22615 -2.705092,1.57227 -4.069747,2.33707 -0.117414,0.0658 0.217892,-0.15815 0.324249,-0.24064 0.318072,-0.24667 0.62973,-0.4993 0.95245,-0.74027 3.192669,-1.97361 11.915823,-6.87975 2.115241,-1.26439 1.969304,-1.5897 4.183673,-2.59406 6.422318,-3.90034 1.4625,-0.85339 -2.936518,1.6869 -4.404775,2.53034 0.883917,-0.54617 1.673206,-1.2252 2.51959,-1.82562 2.050182,-1.33248 4.232058,-2.50518 6.352712,-3.688 1.50028,-0.8368 -2.978748,1.71214 -4.471041,2.5631 -0.106325,0.0606 0.208659,-0.12801 0.312987,-0.19202 0.650557,-0.37476 1.250563,-0.82703 1.859798,-1.26326 2.113516,-1.4862 4.458708,-2.62822 6.741337,-3.8159 -10.470051,6.01829 -1.168823,0.67014 0.623483,-0.35254 1.510083,-0.86165 -3.011985,1.7376 -4.523444,2.59683 -0.09593,0.0545 0.183687,-0.12233 0.276252,-0.1824 0.09707,-0.063 0.195096,-0.12449 0.292642,-0.18673 0.09944,-0.0649 0.198882,-0.12983 0.298321,-0.19474 3.172401,-1.88815 10.41528,-5.94344 0.963758,-0.56247 -0.100579,0.0573 0.194246,-0.12591 0.292086,-0.18773 0.52528,-0.33191 0.08753,-0.0436 0.626102,-0.40492 0.642364,-0.47258 1.267016,-0.96792 1.896663,-1.45708 0.709261,-0.51337 1.402917,-1.04913 2.11541,-1.55827 0.858549,-0.64485 1.712143,-1.29829 2.549531,-1.97075 0.671499,-0.57307 1.370859,-1.1134 2.026105,-1.70531 0.604903,-0.47597 1.22116,-0.93741 1.864293,-1.36078 2.108446,-1.48492 4.322424,-2.89613 6.724272,-3.83995 0.576445,-0.43105 1.288608,-0.5284 1.907402,-0.87547 -8.104446,5.42052 -4.513572,2.44809 -2.612128,1.27823 0.519793,-0.31431 1.011981,-0.67084 1.51782,-1.0066 0,0 5.221817,-2.04548 5.221817,-2.04548 v 0 c -0.50345,0.34275 -1.013802,0.67134 -1.506618,1.02951 -0.250716,0.15081 -0.512532,0.28297 -0.760431,0.43837 -2.148715,1.34694 -2.782117,3.64633 -6.25294,3.80928 -0.650827,0.26741 -1.30584,0.51137 -1.921602,0.85721 -1.79949,0.85284 -3.82256,2.17309 3.811936,-2.28235 0.972146,-0.56734 -1.932958,1.06916 -0.904943,0.5661 -0.592225,0.48021 -1.277107,0.85167 -1.874676,1.32626 -0.704353,0.54425 -1.340194,1.17917 -2.049841,1.72065 -0.823942,0.69009 -1.692693,1.32079 -2.524006,2.00078 -0.709515,0.50664 -1.390587,1.04885 -2.120374,1.52662 -0.617281,0.51091 -1.264219,0.9777 -1.884029,1.48289 -1.800262,1.3935 -4.360322,2.59557 -6.014624,3.59605 -1.474886,0.89197 2.979674,-1.73355 4.473109,-2.5941 0.108267,-0.0624 -0.211595,0.13299 -0.317392,0.19948 -0.306181,0.1623 -0.57817,0.36031 -0.876813,0.53508 -16.878366,9.87763 11.217643,-6.51767 -5.71881,3.32882 -0.317661,0.17436 -0.644221,0.32342 -0.968957,0.484 -0.113541,0.0562 -0.448839,0.23457 -0.339656,0.17037 3.401618,-2.00045 6.082286,-3.5074 4.173958,-2.43324 -0.606224,0.45167 -1.213604,0.89093 -1.839992,1.31447 -3.185583,1.80784 -10.337781,5.97527 -1.039789,0.59731 1.192594,-0.68979 -2.358384,1.27102 -1.179742,0.69849 -0.888109,0.54624 -1.665571,1.23612 -2.509597,1.84467 -1.73337,1.0046 -3.460057,2.02081 -5.200105,3.01379 -1.494157,0.85266 2.972827,-1.73219 4.462412,-2.59282 0.112988,-0.0653 -0.22008,0.14036 -0.332451,0.2067 -0.360085,0.21256 -0.32049,0.14799 -0.648544,0.42269 -0.106056,0.0888 -0.202618,0.18839 -0.303927,0.28257 -1.708433,1.00674 -3.413985,2.01839 -5.125302,3.02021 -0.121851,0.0713 -0.495819,0.27029 -0.373888,0.19909 1.478134,-0.8631 2.96074,-1.71853 4.442754,-2.57495 1.02172,-0.59043 -2.115953,1.14952 -1.055206,0.62841 -0.339289,0.20678 -0.666946,0.43731 -0.973823,0.69079 -0.107283,0.0886 -0.189048,0.20953 -0.307904,0.28188 -2.992106,1.82165 -3.569996,2.14569 -5.515274,3.24688 1.465263,-0.85317 2.926705,-1.71295 4.395791,-2.55952 0.141081,-0.0813 -0.277329,0.17098 -0.411346,0.26346 -0.143229,0.0988 -0.27033,0.22127 -0.419925,0.31017 -1.736042,1.03167 -3.487436,2.0373 -5.234556,3.05009 -0.158396,0.0918 -0.639533,0.35667 -0.48183,0.26366 1.418582,-0.83656 2.843119,-1.66297 4.264678,-2.49446 -0.983398,0.63846 -1.911995,1.34875 -2.871208,2.02179 -1.979549,1.43427 -4.086603,2.48482 -6.262156,3.72589 -1.438957,0.82086 2.868026,-1.65896 4.301046,-2.49014 0.275854,-0.16 -1.070885,0.60655 -0.824127,0.48587 -0.93644,0.54577 -1.681049,1.34107 -2.589601,1.93137 -0.969894,0.64828 -1.90794,1.31919 -2.744433,2.1402 -0.80222,0.80422 -1.645515,1.52347 -2.5814,2.16781 -0.907081,0.72738 -1.75406,1.52984 -2.655935,2.26422 -1.755629,1.02824 -3.508496,2.06121 -5.266891,3.08471 -0.680479,0.39609 -1.417867,0.73705 -2.22237,0.58627 -0.763384,-0.21224 -1.345872,-0.60751 -1.685467,-1.35022 -0.394084,-0.80473 -0.949378,-1.506 -1.451131,-2.2447 -0.490239,-0.7804 -1.007454,-1.5389 -1.597758,-2.24854 -0.602054,-0.80058 -1.255551,-1.56265 -2.001727,-2.23417 -0.720423,-0.70823 -1.321691,-1.49881 -1.928153,-2.3047 -0.539597,-0.72555 -1.006581,-1.49798 -1.462405,-2.27812 -0.384329,-0.69919 -0.830477,-1.35992 -1.239012,-2.04484 -0.570781,-0.79387 -1.044578,-1.61888 -1.461543,-2.50502 -0.737913,-1.2336 -1.455744,-2.47864 -2.180746,-3.71965 0,0 4.850397,-2.82306 4.850397,-2.82306 z"
       inkscape:connector-curvature="0"
       style="stroke-width:0.26458332" />
    <path
       id="path119"
       d="m 73.02397,143.38161 c 0.996439,0.73473 2.024798,1.42321 2.952033,2.24684 0.56746,0.57272 1.238014,1.00794 1.827583,1.55816 0.647745,0.54592 1.255776,1.0812 1.760863,1.76594 0.524036,0.70106 1.115401,1.33454 1.637249,2.03882 0.597834,0.83839 1.327862,1.56728 1.980899,2.3597 0.571436,0.67368 1.149934,1.34376 1.737569,2.00465 0.599659,0.72537 1.349586,1.29478 2.058431,1.90598 0.901838,0.71651 1.738739,1.4918 2.542739,2.3163 0.713589,0.81567 1.555017,1.49581 2.368036,2.20663 0.79139,0.54194 1.496079,1.19599 2.262762,1.76859 0.739759,0.49157 1.299229,0.59809 2.159183,0.48712 0.12334,-0.0167 0.249539,-0.019 0.370022,-0.0502 0.29849,-0.0775 0.332997,-0.15808 0.592614,-0.31326 0.100404,-0.06 0.410038,-0.22529 0.30862,-0.16701 -4.716372,2.71017 -5.958869,3.58538 -4.266176,2.40885 0.612966,-0.38781 1.167871,-0.83898 1.70433,-1.32464 0.571024,-0.51428 1.154319,-1.01395 1.777516,-1.46435 0.756668,-0.43269 1.412359,-0.96853 2.035746,-1.57315 0.810615,-0.8039 1.587131,-1.64166 2.411181,-2.43189 0.7755,-0.66764 1.55479,-1.32971 2.30811,-2.02256 0.72651,-0.58633 1.40157,-1.21893 2.04421,-1.89533 0.69021,-0.74762 1.5881,-1.24466 2.38613,-1.86167 0.80647,-0.60857 1.58375,-1.25188 2.35934,-1.89877 0.12639,-0.0987 0.25278,-0.19738 0.37917,-0.29607 0,0 5.20534,-2.07812 5.20534,-2.07812 v 0 c -0.12739,0.097 -0.25478,0.19397 -0.38217,0.29096 -0.81096,0.60265 -1.52471,1.33059 -2.36898,1.8929 -0.76503,0.65539 -1.62915,1.14991 -2.40563,1.78969 -0.63997,0.68588 -1.25501,1.39941 -2.0365,1.93159 -0.74499,0.70418 -1.50506,1.39222 -2.30626,2.03256 -0.86998,0.73354 -1.61227,1.60398 -2.42027,2.40358 -0.60376,0.62323 -1.18436,1.28404 -1.988,1.6536 -0.62251,0.44017 -1.25651,0.8761 -1.7899,1.42494 -0.576378,0.43915 -1.037303,1.01292 -1.677478,1.36941 -1.877296,1.27694 -0.501428,0.34996 -5.357342,3.16362 -0.432522,0.25061 -0.917223,0.3276 -1.409956,0.34418 -0.877917,-0.006 -1.670384,-0.29233 -2.373535,-0.82474 -0.760701,-0.59855 -1.504458,-1.21843 -2.277957,-1.80094 -0.823981,-0.71837 -1.654312,-1.42943 -2.379678,-2.2512 -0.796607,-0.81189 -1.644065,-1.5542 -2.530782,-2.26595 -0.731319,-0.62322 -1.484132,-1.22563 -2.10263,-1.96718 -0.593278,-0.6644 -1.174385,-1.34096 -1.741731,-2.02707 -0.659445,-0.79859 -1.39141,-1.53745 -1.997779,-2.38033 -0.528145,-0.69795 -1.127961,-1.33005 -1.646835,-2.03467 -0.488657,-0.6488 -1.098741,-1.14068 -1.707349,-1.67379 -0.594434,-0.53212 -1.257429,-0.98006 -1.809924,-1.55899 -0.907399,-0.80308 -1.894139,-1.50366 -2.910213,-2.16261 0,0 4.717399,-3.04009 4.717399,-3.04009 z"
       inkscape:connector-curvature="0"
       style="stroke-width:0.26458332" />
    <path
       id="path121"
       d="m 111.0333,151.43445 c 1.73053,-0.90699 4.63534,-2.55017 -3.05828,1.80764 -0.18391,0.10417 0.36193,-0.21861 0.53864,-0.33457 0.42987,-0.28206 0.5578,-0.39137 0.96229,-0.70094 0.84137,-0.66727 1.58022,-1.44853 2.39566,-2.14522 0.75232,-0.56034 1.51313,-1.10624 2.25221,-1.68491 0.72963,-0.50691 1.5064,-0.94179 2.25889,-1.41344 0.80852,-0.54383 1.56801,-1.15257 2.23871,-1.85938 0.30052,-0.30639 0.60237,-0.61085 0.89683,-0.92308 0,0 5.16968,-2.18524 5.16968,-2.18524 v 0 c -0.27235,0.34222 -0.56619,0.65521 -0.88701,0.95346 -0.7078,0.71486 -1.34866,1.39826 -2.19472,1.97204 -0.72702,0.50882 -1.50308,0.94471 -2.27168,1.38675 -0.76603,0.53708 -1.44857,1.19108 -2.26726,1.65644 -0.838,0.68205 -1.59938,1.43948 -2.40287,2.16159 -2.40911,1.99643 -5.2625,3.35197 -8.01596,4.81635 0,0 4.38487,-3.50749 4.38487,-3.50749 z"
       inkscape:connector-curvature="0"
       style="stroke-width:0.26458332" />
    <circle
       id="path123"
       cx="95.615677"
       cy="146.59407"
       r="2.3386083"
       style="stroke-width:0.26458332" />
    <ellipse
       id="path125"
       cx="47.640793"
       cy="144.58955"
       rx="2.7395127"
       ry="2.4722431"
       style="stroke-width:0.26458332" />
  </g>
</svg>
