<?xml version="1.0" encoding="UTF-8" standalone="no"?>
<!-- Created with Inkscape (http://www.inkscape.org/) -->

<svg
   xmlns:dc="http://purl.org/dc/elements/1.1/"
   xmlns:cc="http://creativecommons.org/ns#"
   xmlns:rdf="http://www.w3.org/1999/02/22-rdf-syntax-ns#"
   xmlns:svg="http://www.w3.org/2000/svg"
   xmlns="http://www.w3.org/2000/svg"
   xmlns:sodipodi="http://sodipodi.sourceforge.net/DTD/sodipodi-0.dtd"
   xmlns:inkscape="http://www.inkscape.org/namespaces/inkscape"
   width="210mm"
   height="297mm"
   viewBox="0 0 210 297"
   version="1.1"
   id="svg21"
   inkscape:version="0.92.4 (5da689c313, 2019-01-14)"
   sodipodi:docname="Create Make Draw.svg">
  <defs
     id="defs15" />
  <sodipodi:namedview
     id="base"
     pagecolor="#ffffff"
     bordercolor="#666666"
     borderopacity="1.0"
     inkscape:pageopacity="0.0"
     inkscape:pageshadow="2"
     inkscape:zoom="0.98994949"
     inkscape:cx="541.87039"
     inkscape:cy="744.02389"
     inkscape:document-units="mm"
     inkscape:current-layer="layer1"
     showgrid="false"
     inkscape:window-width="1920"
     inkscape:window-height="1001"
     inkscape:window-x="-9"
     inkscape:window-y="-9"
     inkscape:window-maximized="1" />
  <metadata
     id="metadata18">
    <rdf:RDF>
      <cc:Work
         rdf:about="">
        <dc:format>image/svg+xml</dc:format>
        <dc:type
           rdf:resource="http://purl.org/dc/dcmitype/StillImage" />
        <dc:title></dc:title>
      </cc:Work>
    </rdf:RDF>
  </metadata>
  <g
     inkscape:label="Layer 1"
     inkscape:groupmode="layer"
     id="layer1">
    <text
       xml:space="preserve"
       style="font-style:normal;font-weight:normal;font-size:10.58333302px;line-height:1.25;font-family:sans-serif;letter-spacing:0px;word-spacing:0px;fill:#000000;fill-opacity:1;stroke:none;stroke-width:0.26458332"
       x="10.156241"
       y="11.823414"
       id="text25"><tspan
         sodipodi:role="line"
         id="tspan23"
         x="10.156241"
         y="11.823414"
         style="stroke-width:0.26458332">Create/Make/Draw</tspan><tspan
         sodipodi:role="line"
         x="10.156241"
         y="25.05258"
         style="stroke-width:0.26458332"
         id="tspan27">Flexable Base</tspan><tspan
         sodipodi:role="line"
         x="10.156241"
         y="38.281746"
         style="stroke-width:0.26458332"
         id="tspan29">Root Word:Create</tspan></text>
    <g
       id="g40"
       transform="matrix(3.0493714,0,0,2.9319805,-56.529477,-124.95605)">
      <path
         style="stroke-width:0.26458332"
         inkscape:connector-curvature="0"
         d="m 32.05576,65.952327 c -0.01418,0.623721 -0.0076,1.247706 -0.0041,1.871522 0.04528,0.428773 0.118427,0.849791 0.22823,1.265849 0.09332,0.380947 0.22792,0.750676 0.353827,1.122047 0.09955,0.390359 0.286824,0.748448 0.410808,1.130568 0.117501,0.389019 0.331425,0.747469 0.494374,1.122394 0.18212,0.386987 0.39915,0.75919 0.552574,1.158658 0.175816,0.431805 0.38154,0.850006 0.568375,1.276839 0.189797,0.382011 0.372637,0.771742 0.63282,1.111748 0.214469,0.358119 0.499028,0.66507 0.782243,0.968883 0.288185,0.444391 0.712354,0.752652 1.091817,1.107456 0.352554,0.348588 0.737947,0.653444 1.04453,1.04545 0.326469,0.409872 0.649174,0.827977 1.042313,1.176378 0.387604,0.32204 0.760907,0.66022 1.126945,1.006392 0.316314,0.39973 0.655039,0.76961 1.033036,1.110705 0.416626,0.368615 0.821531,0.749994 1.221399,1.136621 0.40331,0.405662 0.759574,0.855885 1.142852,1.280914 0.385323,0.426858 0.858644,0.759812 1.251532,1.179296 0.326326,0.315362 0.662159,0.616251 1.054782,0.846177 0.310769,0.261115 0.642737,0.492072 0.951601,0.756177 0.360772,0.270443 0.740182,0.513246 1.101696,0.782415 0.364783,0.287692 0.752006,0.545243 1.136205,0.806106 -4.242408,-2.333734 -2.122069,-1.224182 -1.111599,-0.755261 1.048284,0.472688 1.980448,1.120912 2.999536,1.681414 0.744887,0.409691 -2.943884,-1.701999 -2.207765,-1.276758 2.247069,1.298083 4.378116,2.533457 0.380285,0.217435 1.517068,0.845801 5.928604,3.487917 1.020488,0.624268 0.3283,0.210767 0.693121,0.348179 1.05247,0.494824 0.409371,0.180782 0.818473,0.361894 1.237898,0.518295 0.398632,0.146079 0.799515,0.286001 1.202682,0.41906 0.390144,0.116547 0.763238,0.280205 1.14527,0.419542 0.372777,0.143055 0.750179,0.274698 1.13011,0.397582 0.376637,0.129624 0.753864,0.257889 1.133506,0.378571 0.359588,0.150402 0.739397,0.218712 1.121715,0.278939 0.372372,0.09489 0.752147,0.14387 1.132284,0.193569 0.371234,0.08333 0.745056,0.14513 1.123992,0.178361 0.375433,0.02686 0.752049,0.02759 1.128242,0.02888 0.377907,2.65e-4 0.755817,-5.29e-4 1.133724,-0.0011 0.378002,-5.3e-4 0.756001,-5.3e-4 1.134004,-5.3e-4 0.377978,-2.9e-5 0.755957,-2.1e-5 1.133938,-1.5e-5 0.377975,2e-6 0.755951,5e-6 1.133927,5e-6 0.377976,3e-6 0.755952,3e-6 1.133928,3e-6 0.38328,7.93e-4 0.765238,0.01294 1.145939,-0.03612 0.422915,-0.07445 0.851681,-0.09852 1.277803,-0.144894 0.385101,-0.07557 0.771599,-0.13613 1.162677,-0.169158 0.06361,-0.0038 0.127211,-0.0076 0.190817,-0.01143 0,0 2.280531,1.640533 2.280531,1.640533 v 0 c -0.06244,0.0021 -0.124883,0.0043 -0.187325,0.0064 -0.386786,0.02058 -0.772297,0.05934 -1.150215,0.148209 -0.421296,0.08468 -0.857554,0.06002 -1.280295,0.146222 -0.388895,0.06452 -0.771528,0.09307 -1.167127,0.07151 -0.377979,0 -0.755955,0 -1.13393,0 -0.377976,-3e-6 -0.755952,-3e-6 -1.13393,-5e-6 -0.377974,-6e-6 -0.755947,-1.4e-5 -1.13392,-6e-6 -0.377952,1.9e-5 -0.755901,3.5e-5 -1.133853,2.65e-4 -0.378045,2.65e-4 -0.756089,0.0011 -1.134134,0.0016 -0.379889,1.74e-4 -0.759947,0.0016 -1.139613,-0.01344 -0.38481,-0.02016 -0.769729,-0.05462 -1.143868,-0.152374 -0.372102,-0.09332 -0.766072,-0.07239 -1.135576,-0.189383 -0.377788,-0.09907 -0.782077,-0.08709 -1.146156,-0.248859 -0.369854,-0.147445 -0.758608,-0.245457 -1.134121,-0.377823 -0.37139,-0.148812 -0.761746,-0.248168 -1.135909,-0.390684 -0.370636,-0.160242 -0.757238,-0.282411 -1.129858,-0.438898 -0.412091,-0.110922 -0.812559,-0.264941 -1.2123,-0.41293 -0.429786,-0.133549 -0.838766,-0.318035 -1.250529,-0.4963 -0.351573,-0.169662 -0.732952,-0.269547 -1.068975,-0.470461 -0.853125,-0.49697 -1.709341,-0.988666 -2.55937,-1.490909 -0.110578,-0.06533 -0.428615,-0.282525 -0.316863,-0.219223 3.96928,2.248392 2.71839,1.549474 1.856957,1.077698 -8.346019,-4.790323 0.826151,0.472797 -0.382248,-0.215863 -8.41624,-4.796364 1.777023,0.933749 -0.783686,-0.41684 -1.255539,-0.64402 -2.572925,-1.050666 -3.690089,-2.017565 C 46.27768,87.93123 45.903387,87.654973 45.530349,87.377586 45.159406,87.11867 44.786658,86.861633 44.43404,86.577762 44.118947,86.327349 43.798458,86.08221 43.470049,85.849866 c -0.368811,-0.268073 -0.707562,-0.57132 -1.025731,-0.898072 -0.415902,-0.396018 -0.871202,-0.752388 -1.24401,-1.191985 -0.376944,-0.426919 -0.734936,-0.872826 -1.152528,-1.261626 -0.401918,-0.383548 -0.811302,-0.758915 -1.22265,-1.132311 -0.366919,-0.351763 -0.679125,-0.750117 -1.035034,-1.112155 -0.3707,-0.34213 -0.754603,-0.669149 -1.126011,-1.010383 -0.366475,-0.381688 -0.697214,-0.793996 -1.03301,-1.202502 -0.332643,-0.357232 -0.704213,-0.674261 -1.057447,-1.010729 -0.397817,-0.344131 -0.753854,-0.723366 -1.083112,-1.133944 -0.282048,-0.316558 -0.548918,-0.644818 -0.771184,-1.007046 -0.22688,-0.373012 -0.434014,-0.75605 -0.610203,-1.155933 -0.195098,-0.424159 -0.380497,-0.85245 -0.565068,-1.281266 -0.182142,-0.386651 -0.377092,-0.767133 -0.55785,-1.154475 -0.175802,-0.375213 -0.369554,-0.745807 -0.484923,-1.145177 -0.141253,-0.375738 -0.301178,-0.7448 -0.410287,-1.132086 -0.130376,-0.375767 -0.250835,-0.756195 -0.343683,-1.143045 -0.104722,-0.433729 -0.165568,-0.878163 -0.18887,-1.32374 0.0035,-0.625205 0.01,-1.250577 -0.0041,-1.875694 0,0 2.501402,1.274529 2.501402,1.274529 z"
         id="path31" />
      <path
         style="stroke-width:0.26458332"
         d="m 66.523811,69.174843 a 4.0632439,3.4962797 0 0 1 -4.015003,3.496033 4.0632439,3.4962797 0 0 1 -4.110339,-3.413021 4.0632439,3.4962797 0 0 1 3.917405,-3.577074 4.0632439,3.4962797 0 0 1 4.203356,3.328084 l -4.058663,0.165978 z"
         sodipodi:end="6.2356949"
         sodipodi:start="0"
         sodipodi:ry="3.4962797"
         sodipodi:rx="4.0632439"
         sodipodi:cy="69.174843"
         sodipodi:cx="62.460567"
         sodipodi:type="arc"
         id="path33" />
      <path
         style="stroke-width:0.26458332"
         inkscape:connector-curvature="0"
         d="m 30.185055,81.649318 c 0.500566,0.469722 1.051923,0.878826 1.577187,1.319704 0.422285,0.409586 0.799841,0.858848 1.167934,1.316345 0.41288,0.540311 0.929981,0.984665 1.427041,1.444344 0.512747,0.468699 1.041604,0.919268 1.5553,1.387525 0.560287,0.515245 1.153811,0.992407 1.721432,1.499693 0.492625,0.496427 1.029155,0.92809 1.622145,1.296948 0.634267,0.393327 1.188683,0.897054 1.81656,1.300522 0.466434,0.295796 0.916395,0.619205 1.390118,0.902954 0.914506,0.639816 2.966739,1.774296 -1.257657,-0.677799 1.258935,0.493237 2.359597,1.255782 3.536857,1.938343 0.379458,0.277524 0.72802,0.590955 1.13124,0.835118 0.381598,0.242297 0.747151,0.510889 1.135001,0.742974 0.940123,0.589803 2.934714,1.731811 -1.268653,-0.709462 1.073819,0.545079 0.197086,0.09593 2.782935,1.586132 0.07049,0.04062 0.279871,0.166023 0.209436,0.125312 -0.726776,-0.420074 -1.453605,-0.840068 -2.178478,-1.263415 -0.07286,-0.04255 0.149288,0.07876 0.222337,0.120976 0.872069,0.504023 1.741959,1.011804 2.612938,1.517705 -0.727525,-0.421473 -1.456235,-0.840906 -2.182575,-1.264417 -0.130902,-0.07633 0.271839,0.134432 0.403159,0.210037 0.861346,0.495895 1.718249,0.999469 2.577373,1.499206 0,0 -2.615237,-1.018794 -2.615237,-1.018794 v 0 c 0.74218,0.424257 1.48609,0.845494 2.226537,1.272765 0.13284,0.07666 -0.281045,-0.124209 -0.414337,-0.200081 -0.872575,-0.49667 -1.737855,-1.006052 -2.606784,-1.509077 7.281241,4.183443 -6.017339,-3.483237 1.3418,0.775433 0.06123,0.03543 -0.125444,-0.06547 -0.188166,-0.0982 -1.185521,-0.6752 -2.385489,-1.32684 -3.536527,-2.059926 -0.376047,-0.251593 -0.757108,-0.495417 -1.132901,-0.747424 -0.381367,-0.271815 -0.735507,-0.581004 -1.13584,-0.825387 0.736997,0.424188 1.474766,0.847037 2.210991,1.272567 0.06251,0.03613 -0.127847,-0.06729 -0.189807,-0.104352 C 43.908593,93.39332 43.679176,93.241608 43.400416,93.18835 42.198758,92.509212 40.986035,91.880054 39.85011,91.10301 39.392386,90.800681 38.929513,90.50634 38.476142,90.197402 37.868502,89.770954 37.300095,89.288921 36.663971,88.903412 36.081469,88.509926 35.5586,88.048371 35.049584,87.564324 34.481071,87.062595 33.894625,86.581402 33.33747,86.066849 32.814789,85.604807 32.288466,85.146514 31.777066,84.671994 31.277171,84.204925 30.774044,83.738587 30.360741,83.190031 29.99337,82.743002 29.609227,82.306392 29.173363,81.924286 28.640484,81.484741 28.099655,81.055008 27.583812,80.59517 c 0,0 2.601243,1.054148 2.601243,1.054148 z"
         id="path35" />
    </g>
  </g>
</svg>
