<?xml version="1.0" encoding="UTF-8" standalone="no"?>
<!-- Created with Inkscape (http://www.inkscape.org/) -->

<svg
   xmlns:dc="http://purl.org/dc/elements/1.1/"
   xmlns:cc="http://creativecommons.org/ns#"
   xmlns:rdf="http://www.w3.org/1999/02/22-rdf-syntax-ns#"
   xmlns:svg="http://www.w3.org/2000/svg"
   xmlns="http://www.w3.org/2000/svg"
   xmlns:sodipodi="http://sodipodi.sourceforge.net/DTD/sodipodi-0.dtd"
   xmlns:inkscape="http://www.inkscape.org/namespaces/inkscape"
   width="210mm"
   height="297mm"
   viewBox="0 0 210 297"
   version="1.1"
   id="svg186"
   inkscape:version="0.92.4 (5da689c313, 2019-01-14)"
   sodipodi:docname="Curse Bless Cursed Blessed.svg">
  <defs
     id="defs180" />
  <sodipodi:namedview
     id="base"
     pagecolor="#ffffff"
     bordercolor="#666666"
     borderopacity="1.0"
     inkscape:pageopacity="0.0"
     inkscape:pageshadow="2"
     inkscape:zoom="1.4"
     inkscape:cx="221.1591"
     inkscape:cy="852.10659"
     inkscape:document-units="mm"
     inkscape:current-layer="layer1"
     showgrid="false"
     inkscape:window-width="1920"
     inkscape:window-height="1001"
     inkscape:window-x="-9"
     inkscape:window-y="-9"
     inkscape:window-maximized="1" />
  <metadata
     id="metadata183">
    <rdf:RDF>
      <cc:Work
         rdf:about="">
        <dc:format>image/svg+xml</dc:format>
        <dc:type
           rdf:resource="http://purl.org/dc/dcmitype/StillImage" />
        <dc:title></dc:title>
      </cc:Work>
    </rdf:RDF>
  </metadata>
  <g
     inkscape:label="Layer 1"
     inkscape:groupmode="layer"
     id="layer1">
    <text
       xml:space="preserve"
       style="font-style:normal;font-weight:normal;font-size:10.58333302px;line-height:1.25;font-family:sans-serif;letter-spacing:0px;word-spacing:0px;fill:#000000;fill-opacity:1;stroke:none;stroke-width:0.26458332"
       x="10.583333"
       y="11.627975"
       id="text190"><tspan
         sodipodi:role="line"
         id="tspan188"
         x="10.583333"
         y="11.627975"
         style="stroke-width:0.26458332">to be Cursed/Blessed</tspan><tspan
         sodipodi:role="line"
         x="10.583333"
         y="24.857141"
         style="stroke-width:0.26458332"
         id="tspan196">To give a Curse/Blessing</tspan></text>
    <text
       xml:space="preserve"
       style="font-style:normal;font-weight:normal;font-size:10.58333302px;line-height:1.25;font-family:sans-serif;letter-spacing:0px;word-spacing:0px;fill:#000000;fill-opacity:1;stroke:none;stroke-width:0.26458332"
       x="37.608631"
       y="9.5491066"
       id="text194"><tspan
         sodipodi:role="line"
         id="tspan192"
         x="37.608631"
         y="19.204601"
         style="stroke-width:0.26458332" /></text>
    <g
       id="g229"
       transform="matrix(3.1577112,0,0,3.1577112,-37.724933,-142.75425)">
      <path
         style="stroke-width:0.26458332"
         inkscape:connector-curvature="0"
         d="m 24.622091,68.904057 c 0.312864,0.0046 0.625781,0.0026 0.938664,0.0013 0.21509,-7.93e-4 0.430186,-0.0013 0.645279,-0.0016 0.197469,0.0019 0.388459,0.05276 0.577109,0.105669 0.188148,0.0438 0.371547,0.103606 0.561375,0.14005 0.205541,0.02837 0.408564,0.0709 0.612878,0.106965 0.238696,0.07058 0.476906,0.13702 0.720923,0.186764 0.238982,0.0775 0.485661,0.129998 0.724125,0.208638 0.233085,0.116416 0.476845,0.194503 0.728861,0.256629 0.241649,0.06109 0.483185,0.120994 0.720008,0.199073 0.260845,0.09878 0.523116,0.188465 0.792197,0.261797 0.200406,0.06861 0.408212,0.102129 0.616884,0.132453 0.215582,0.03966 0.42849,0.09095 0.640583,0.145974 0.219006,0.06668 0.439023,0.129735 0.660172,0.18887 0.226888,0.05821 0.452361,0.121076 0.677344,0.186261 0.201575,0.07832 0.412253,0.114136 0.626375,0.134356 0.255606,0.03303 0.512119,0.06228 0.765384,0.110706 0.223247,0.04631 0.449669,0.07121 0.677002,0.08466 0.194593,0.01701 0.385506,0.05918 0.579678,0.08095 0.188471,0.02 0.378185,0.01603 0.567159,0.02627 0.156974,0.02326 0.313107,0.05022 0.470892,0.0677 0,0 1.128667,0.836096 1.128667,0.836096 v 0 c -0.159028,-0.01198 -0.317666,-0.02928 -0.47357,-0.06414 -0.185245,-0.03762 -0.376658,-0.01011 -0.564525,-0.02976 -0.194344,-0.0146 -0.38698,-0.04135 -0.576781,-0.08664 -0.231907,-0.0087 -0.463619,-0.02647 -0.691788,-0.07106 -0.250454,-0.04797 -0.501234,-0.08425 -0.753668,-0.1216 -0.218665,-0.0131 -0.439925,-0.02886 -0.646716,-0.107297 -0.219355,-0.08132 -0.449537,-0.132614 -0.675362,-0.192669 -0.219329,-0.06439 -0.442423,-0.115465 -0.660199,-0.185487 -0.204883,-0.07071 -0.419343,-0.111201 -0.630875,-0.155982 -0.206523,-0.05181 -0.426326,-0.04523 -0.627761,-0.124452 -0.266872,-0.0845 -0.541583,-0.142753 -0.798563,-0.257884 -0.232142,-0.08593 -0.470215,-0.149437 -0.711181,-0.205359 -0.249304,-0.07245 -0.511882,-0.104886 -0.737653,-0.244507 -0.229428,-0.102687 -0.480317,-0.127878 -0.712216,-0.225369 -0.240123,-0.05986 -0.488971,-0.08709 -0.718749,-0.186918 -0.198461,-0.05091 -0.406008,-0.07242 -0.606491,-0.111553 -0.195228,-0.02527 -0.380497,-0.07986 -0.569952,-0.129101 -0.185518,-0.04583 -0.364532,-0.111112 -0.555437,-0.134655 -0.216506,-2.11e-4 -0.433009,-5.29e-4 -0.649515,-0.0016 -0.311642,-0.0011 -0.623321,-0.0033 -0.934945,0.0013 0,0 -1.135612,-0.825069 -1.135612,-0.825069 z"
         id="path210" />
      <path
         style="stroke-width:0.30951989"
         inkscape:connector-curvature="0"
         d="m 25.181506,72.790591 c 0.213614,-0.03235 0.428792,-0.05816 0.645636,-0.07547 0.14753,-0.01114 0.295856,-0.01357 0.444044,-0.0146 0.145059,-2.64e-4 0.29012,1.77e-4 0.435175,7.94e-4 0.207937,-7.94e-4 0.415848,0.0016 0.623774,0.0024 0.281057,0.003 0.562381,-0.0055 0.843261,0.003 0.225653,0.0099 0.449601,0.02994 0.672983,0.05456 0.230207,0.0208 0.460856,0.03903 0.690301,0.0642 0.231389,0.03117 0.457676,0.07887 0.684159,0.124831 0.158805,0.03235 0.31523,0.07034 0.473973,0.102785 0.172184,0.03846 0.348337,0.06634 0.523519,0.09633 0.177156,0.02603 0.348459,0.06437 0.517054,0.111421 0.199037,0.06402 0.401503,0.121669 0.60001,0.186621 0.172346,0.04938 0.344853,0.09643 0.51325,0.152866 0.189829,0.06387 0.375206,0.134318 0.564354,0.199366 0.206648,0.05799 0.407419,0.123899 0.60325,0.199226 0.166684,0.07564 0.350839,0.12524 0.527238,0.186558 0.454258,0.177826 0.924853,0.342267 1.341599,0.56471 0.146447,0.06286 0.275314,0.143495 0.400332,0.226762 0.14141,0.07955 0.260849,0.178585 0.385012,0.272004 0.128286,0.101124 0.263408,0.195985 0.407176,0.285102 0.127272,0.08852 0.24421,0.183629 0.336391,0.293124 0.09889,0.09979 0.175327,0.209529 0.267341,0.312476 0.104788,0.09444 0.194615,0.195286 0.267387,0.304604 0.06882,0.09603 0.132419,0.193781 0.201944,0.289623 0.06416,0.122246 0.146476,0.238853 0.20554,0.362503 0.04582,0.104302 0.128737,0.195461 0.186413,0.295786 0.0444,0.09409 0.05659,0.193186 0.08624,0.289936 0.02343,0.09477 0.0348,0.189494 0.06309,0.283535 0.03364,0.09331 0.0256,0.191088 0.05266,0.284776 0.03078,0.09408 0.04408,0.190209 0.0518,0.286552 0.01108,0.0938 -0.0059,0.188987 0.01608,0.281826 0.02715,0.09399 0.04047,0.18941 0.04814,0.28516 0.006,0.09511 0.006,0.190344 0.0062,0.285531 -3.3e-5,0.09453 -2.55e-4,0.189058 -3.63e-4,0.283585 -8.3e-5,0.07874 -1.01e-4,0.157475 -1.16e-4,0.236213 0,0 -0.856393,-0.318863 -0.856393,-0.318863 v 0 c 2.2e-5,-0.07875 4.6e-5,-0.157507 1.49e-4,-0.23626 1.22e-4,-0.09446 3.61e-4,-0.18892 2.16e-4,-0.283379 -3.61e-4,-0.09383 -7.24e-4,-0.187748 -0.009,-0.281432 -0.01,-0.09463 -0.02897,-0.188222 -0.05039,-0.281808 -0.01,-0.09487 -0.004,-0.19019 -0.01386,-0.285136 -0.01013,-0.09439 -0.02922,-0.18773 -0.05585,-0.280419 -0.01648,-0.09422 -0.02281,-0.189558 -0.05433,-0.282164 -0.0256,-0.09389 -0.03335,-0.18963 -0.06347,-0.282949 -0.02723,-0.09296 -0.03766,-0.189462 -0.09407,-0.27651 -0.06525,-0.09863 -0.135854,-0.195252 -0.182539,-0.2999 -0.06386,-0.119846 -0.136196,-0.237445 -0.210657,-0.353933 -0.06941,-0.0961 -0.131994,-0.194734 -0.20257,-0.290404 -0.07957,-0.104749 -0.174454,-0.200988 -0.269007,-0.298662 -0.08767,-0.104846 -0.172784,-0.210674 -0.269531,-0.31133 -0.09989,-0.101026 -0.214914,-0.192945 -0.343734,-0.274844 -0.142268,-0.09155 -0.27342,-0.191235 -0.404949,-0.290909 -0.124426,-0.09305 -0.248581,-0.186531 -0.388464,-0.267444 -0.127532,-0.08007 -0.261929,-0.153069 -0.404086,-0.218837 -0.31312,-0.149389 -0.102653,-0.04748 0.66482,0.274561 0.02788,0.0117 -0.05542,-0.02379 -0.08366,-0.03502 -0.0621,-0.02471 -0.12407,-0.04962 -0.186232,-0.07425 -0.03306,-0.0131 -0.06688,-0.02514 -0.100313,-0.03769 -0.171336,-0.06875 -0.360282,-0.108482 -0.527118,-0.183798 -0.192127,-0.08055 -0.390291,-0.15425 -0.602034,-0.203488 -0.186801,-0.06667 -0.37676,-0.128503 -0.56006,-0.200261 -0.171739,-0.05136 -0.335967,-0.115567 -0.515454,-0.153268 -0.197864,-0.06403 -0.396903,-0.125436 -0.596139,-0.186692 -0.163479,-0.05359 -0.332727,-0.09563 -0.509014,-0.120084 -0.174069,-0.03351 -0.351743,-0.05681 -0.524916,-0.09272 -0.157388,-0.03746 -0.318242,-0.06688 -0.475964,-0.104132 -0.22283,-0.0524 -0.451296,-0.09301 -0.678797,-0.132953 -0.227323,-0.03025 -0.457809,-0.04692 -0.687587,-0.06386 -0.222819,-0.02508 -0.444945,-0.05043 -0.670284,-0.06078 -0.280118,-0.01733 -0.56216,-0.0039 -0.843,-0.0083 -0.205354,7.93e-4 -0.410691,0.003 -0.616053,0.0019 -0.144384,2.06e-4 -0.288766,3.1e-5 -0.433149,-1.54e-4 -0.147358,6e-6 -0.294866,1.7e-4 -0.441932,0.0079 -0.213987,0.01283 -0.427221,0.03352 -0.636404,0.06965 0,0 -0.789026,-0.399928 -0.789026,-0.399928 z"
         id="path222" />
      <path
         style="stroke-width:0.26458332"
         d="m 27.167035,65.560448 a 1.5591518,1.6300223 0 0 1 -1.540641,1.629907 1.5591518,1.6300223 0 0 1 -1.577223,-1.591206 1.5591518,1.6300223 0 0 1 1.503191,-1.66769 1.5591518,1.6300223 0 0 1 1.612915,1.551607 l -1.557394,0.07738 z"
         sodipodi:end="6.2356949"
         sodipodi:start="0"
         sodipodi:ry="1.6300223"
         sodipodi:rx="1.5591518"
         sodipodi:cy="65.560448"
         sodipodi:cx="25.607883"
         sodipodi:type="arc"
         id="path224" />
    </g>
  </g>
</svg>
