<?xml version="1.0" encoding="UTF-8" standalone="no"?>
<!-- Created with Inkscape (http://www.inkscape.org/) -->

<svg
   xmlns:dc="http://purl.org/dc/elements/1.1/"
   xmlns:cc="http://creativecommons.org/ns#"
   xmlns:rdf="http://www.w3.org/1999/02/22-rdf-syntax-ns#"
   xmlns:svg="http://www.w3.org/2000/svg"
   xmlns="http://www.w3.org/2000/svg"
   xmlns:sodipodi="http://sodipodi.sourceforge.net/DTD/sodipodi-0.dtd"
   xmlns:inkscape="http://www.inkscape.org/namespaces/inkscape"
   width="210mm"
   height="297mm"
   viewBox="0 0 210 297"
   version="1.1"
   id="svg128"
   inkscape:version="0.92.4 (5da689c313, 2019-01-14)"
   sodipodi:docname="Dead Doomed Death (personified).svg">
  <defs
     id="defs122" />
  <sodipodi:namedview
     id="base"
     pagecolor="#ffffff"
     bordercolor="#666666"
     borderopacity="1.0"
     inkscape:pageopacity="0.0"
     inkscape:pageshadow="2"
     inkscape:zoom="1.979899"
     inkscape:cx="456.54816"
     inkscape:cy="902.2298"
     inkscape:document-units="mm"
     inkscape:current-layer="layer1"
     showgrid="false"
     inkscape:window-width="1920"
     inkscape:window-height="1001"
     inkscape:window-x="-9"
     inkscape:window-y="-9"
     inkscape:window-maximized="1" />
  <metadata
     id="metadata125">
    <rdf:RDF>
      <cc:Work
         rdf:about="">
        <dc:format>image/svg+xml</dc:format>
        <dc:type
           rdf:resource="http://purl.org/dc/dcmitype/StillImage" />
        <dc:title></dc:title>
      </cc:Work>
    </rdf:RDF>
  </metadata>
  <g
     inkscape:label="Layer 1"
     inkscape:groupmode="layer"
     id="layer1">
    <text
       xml:space="preserve"
       style="font-style:normal;font-weight:normal;font-size:10.58333302px;line-height:1.25;font-family:sans-serif;letter-spacing:0px;word-spacing:0px;fill:#000000;fill-opacity:1;stroke:none;stroke-width:0.26458332"
       x="12.428033"
       y="26.122334"
       id="text132"><tspan
         sodipodi:role="line"
         id="tspan130"
         x="12.428033"
         y="26.122334"
         style="stroke-width:0.26458332">Dead/Doomed/Death (personified)</tspan></text>
    <path
       id="path134"
       d="m 15.956044,96.651653 c 0.51259,0.09089 1.017891,0.216458 1.530959,0.304765 0.315102,0.04432 0.631007,0.06793 0.944265,0.124871 0.260632,0.05143 0.525563,0.06956 0.79047,0.07984 0.271723,0.02236 0.540808,0.07358 0.810331,0.115329 0.287009,0.07555 0.579161,0.115908 0.874493,0.138837 0.286341,0.02957 0.567773,0.09015 0.853985,0.12209 0.265483,0.02588 0.532419,0.02859 0.798921,0.03073 0.309506,-0.0163 0.61381,0.02677 0.918992,0.07022 0.305231,0.02649 0.605854,0.08311 0.908089,0.130969 0.287428,0.02985 0.566778,0.104598 0.851569,0.150548 0.271134,0.02527 0.534826,0.09381 0.803407,0.135596 0.262989,0.03684 0.528811,0.04237 0.793903,0.04633 0.316137,0.0011 0.631102,-0.0043 0.945647,0.03054 0.326573,0.02572 0.643641,0.106206 0.964912,0.163936 0.347437,0.04048 0.692285,0.09901 1.038997,0.144989 0.324189,0.04226 0.650981,0.05429 0.977469,0.06169 0.379648,0.0042 0.759336,0.0044 1.139005,0.0033 0.323638,0.01 0.642868,0.06877 0.964673,0.100878 0.306769,0.02519 0.61472,0.02737 0.922303,0.03072 0.342461,0.0031 0.68494,0.0013 1.027406,2.32e-4 0.339974,-1.11e-4 0.679945,7.94e-4 1.019919,1.51e-4 0.370533,0.0019 0.741063,-5.8e-5 1.111596,5.29e-4 0.379381,7.94e-4 0.758765,5.3e-4 1.138145,-9.7e-5 0.362583,-1.88e-4 0.72516,5.29e-4 1.087742,-1.94e-4 0.371959,0.0016 0.743921,-1.77e-4 1.11588,2.65e-4 0.327459,1.27e-4 0.654913,-0.0016 0.982372,-7.94e-4 0.311854,5.29e-4 0.62371,-0.0011 0.935564,-7.9e-5 0.305953,2.64e-4 0.611907,-2.65e-4 0.91786,-5.29e-4 0.29268,-7.94e-4 0.585357,5.29e-4 0.878036,5.29e-4 0.327737,7.94e-4 0.655476,-2.33e-4 0.98321,5.29e-4 0.333812,0.0016 0.666872,-0.01712 0.997347,0.03618 0.379365,0.09728 0.764503,0.164209 1.154107,0.201502 0.312463,0.02569 0.626105,0.02871 0.939422,0.03007 0.275402,5.3e-4 0.550799,-0.0013 0.826199,-7.93e-4 0.440242,-0.0016 0.880456,0.0041 1.320688,0.0065 0.597078,5.29e-4 1.194152,-0.0013 1.791227,-0.0026 0.480745,-7.94e-4 0.96149,-5.29e-4 1.442236,-0.0013 0.459959,0.02072 0.917321,0.07553 1.376854,0.104246 0.357159,0.0199 0.714923,0.02553 1.07256,0.02813 0.327316,0.0011 0.654632,-5.29e-4 0.981946,-0.0013 0.272605,-7.94e-4 0.545211,-7.94e-4 0.817816,-0.0011 0.274005,0.0016 0.529021,-0.09367 0.778542,-0.195951 0.280524,-0.129021 0.559977,-0.260948 0.836393,-0.398565 0.318667,-0.148831 0.637672,-0.294312 0.949857,-0.45669 0.304935,-0.148955 0.591603,-0.325445 0.873394,-0.513408 0.318678,-0.181602 0.61386,-0.398957 0.915123,-0.607142 0.281691,-0.181882 0.571891,-0.350536 0.863079,-0.516665 0.339039,-0.188846 0.66331,-0.40128 0.978085,-0.627859 0.285755,-0.224904 0.563734,-0.459002 0.848434,-0.685419 0.248909,-0.221776 0.532156,-0.39688 0.80822,-0.581369 0.262075,-0.200107 0.525065,-0.397071 0.802441,-0.575691 0.27803,-0.206205 0.574337,-0.384323 0.862825,-0.574998 0.313746,-0.230351 0.609785,-0.480583 0.931061,-0.701 0.315383,-0.220411 0.623932,-0.450239 0.93535,-0.676137 0.295129,-0.208487 0.574384,-0.437476 0.875924,-0.636905 0.296153,-0.170358 0.552892,-0.395095 0.817973,-0.607939 0.322024,-0.242144 0.637987,-0.490498 0.97687,-0.709014 0.362027,-0.231373 0.722564,-0.465331 1.094185,-0.681136 0.301823,-0.158379 0.617463,-0.287102 0.92657,-0.430122 0.306592,-0.138795 0.601777,-0.295071 0.883947,-0.478118 0.244409,-0.181383 0.519856,-0.309743 0.792983,-0.440418 0.278169,-0.121367 0.544554,-0.265591 0.813559,-0.405175 0.31342,-0.153688 0.608669,-0.342905 0.897001,-0.53903 0.349798,-0.211812 0.689835,-0.43911 1.041781,-0.647374 0.307631,-0.177142 0.62379,-0.336924 0.931148,-0.514776 0.277178,-0.171559 0.569905,-0.315886 0.849606,-0.482876 0.269656,-0.159625 0.529238,-0.332692 0.806535,-0.479059 0.25735,-0.142566 0.537093,-0.219419 0.828857,-0.241724 0.974651,0.02657 1.819529,0.714547 2.436972,1.428036 0.228803,0.258739 0.500149,0.476872 0.75357,0.711337 0.27091,0.253064 0.53422,0.514073 0.797256,0.775259 0.277415,0.186116 0.473855,0.459359 0.725302,0.673573 0.272066,0.229124 0.477999,0.521007 0.722987,0.777486 0.236842,0.280845 0.551529,0.475435 0.805265,0.737664 0.206941,0.251727 0.464029,0.451742 0.705485,0.66834 0.288697,0.282469 0.597961,0.541097 0.903324,0.805032 0.331375,0.276405 0.626708,0.592836 0.95707,0.869836 0.278079,0.254323 0.613891,0.427659 0.922488,0.639374 0.280424,0.19141 0.554792,0.386543 0.812128,0.608917 0.282556,0.26066 0.591735,0.483238 0.878586,0.740712 0.273762,0.22557 0.578821,0.404981 0.857718,0.623763 0.28348,0.221562 0.52179,0.49381 0.801725,0.718669 0.08567,0.08367 0.132792,0.137642 0.230986,0.204301 0.03671,0.02492 0.153993,0.08822 0.115695,0.06582 -2.719404,-1.590855 -1.972599,-1.121119 -1.346079,-0.806109 1.076693,0.336897 1.63679,0.955461 2.433924,1.545402 0.230608,0.176777 0.442992,0.375405 0.677394,0.546302 0.243364,0.143716 0.44446,0.321926 0.639892,0.525102 0.231272,0.241319 0.444688,0.497613 0.729194,0.677254 0.236831,0.164669 0.468141,0.332047 0.685509,0.522984 0.2315,0.229327 0.518634,0.385857 0.781032,0.574981 0.587178,0.364541 1.474158,0.878797 -1.29276,-0.740375 -0.323765,-0.189466 0.302684,0.156128 0.358966,0.186304 0.599035,0.348818 1.19807,0.697637 1.797102,1.046456 0.0309,0.01892 0.12403,0.0749 0.0927,0.05675 -0.53669,-0.310583 -1.07343,-0.62108 -1.608708,-0.934087 -0.03329,-0.01947 0.06923,0.03414 0.102642,0.0534 0.604026,0.348208 1.206516,0.699067 1.809566,1.048949 0.52806,0.30637 -1.056384,-0.612275 -1.584577,-0.918414 0.700787,0.356733 1.334047,0.75565 2.032197,1.176754 0.0396,0.0239 0.0685,0.0623 0.10459,0.0913 0.12219,0.0984 0.13227,0.0984 0.26749,0.18087 -0.44295,-0.21989 0.87259,0.51196 0.43347,0.25802 -2.752472,-1.591737 -1.88783,-1.077123 -1.278,-0.75393 0.26568,0.13726 0.53067,0.27508 0.80736,0.38885 0.0461,0.0213 0.0921,0.0426 0.1382,0.0639 0,0 1.54791,1.24143 1.54791,1.24143 v 0 c -0.0431,-0.0247 -0.0862,-0.0494 -0.12923,-0.0741 -0.27322,-0.12391 -0.5567,-0.22499 -0.81503,-0.38119 -0.88739,-0.41479 -1.72306,-0.94083 -2.550697,-1.464714 -0.375073,-0.269476 0.09617,0.07156 -0.265057,-0.197607 -0.03637,-0.0271 -0.150363,-0.101179 -0.110871,-0.07888 2.881565,1.627241 1.975405,1.078881 1.362865,0.798171 -0.60466,-0.349327 -1.21501,-0.688957 -1.813964,-1.047959 -0.525409,-0.314923 1.062474,0.60997 1.593294,0.915689 0.0329,0.019 -0.0666,-0.0365 -0.0996,-0.0554 -0.599731,-0.343586 -1.200052,-0.686153 -1.798495,-1.031977 -0.03135,-0.01812 -0.122179,-0.07762 -0.0907,-0.05974 0.536681,0.304789 1.070994,0.613727 1.606495,0.920591 -0.848744,-0.415449 -1.674138,-0.889976 -2.46185,-1.41554 -0.269476,-0.182745 -0.536578,-0.368236 -0.774912,-0.591655 -0.223129,-0.179959 -0.461939,-0.337088 -0.690608,-0.509712 -0.259511,-0.214855 -0.479594,-0.470025 -0.719386,-0.705977 -0.201387,-0.190127 -0.43098,-0.336347 -0.650422,-0.504159 -0.222335,-0.185777 -0.449046,-0.366527 -0.676537,-0.545936 -0.611481,-0.503549 -1.958123,-1.348949 0.956117,0.437915 -0.801341,-0.472178 -1.712066,-0.796444 -2.382904,-1.453854 -0.264356,-0.240977 -0.518536,-0.494509 -0.806865,-0.707665 -0.285822,-0.207751 -0.586105,-0.396594 -0.848069,-0.635632 -0.291277,-0.250354 -0.600814,-0.477846 -0.884309,-0.737413 -0.263052,-0.211036 -0.542452,-0.39847 -0.820391,-0.589174 -0.315373,-0.202805 -0.632873,-0.404124 -0.908037,-0.661535 -0.318333,-0.28888 -0.625226,-0.590468 -0.954373,-0.867412 -0.308536,-0.26511 -0.61264,-0.534575 -0.910651,-0.81148 -0.24388,-0.215601 -0.48196,-0.435592 -0.702813,-0.675124 -0.272761,-0.241779 -0.559765,-0.46813 -0.797869,-0.746586 -0.238141,-0.261453 -0.456922,-0.541644 -0.733124,-0.765886 -0.233023,-0.233596 -0.467164,-0.463989 -0.718611,-0.678029 -0.263554,-0.259988 -0.528034,-0.519166 -0.801385,-0.768911 -0.257363,-0.234405 -0.523317,-0.461291 -0.747324,-0.729184 -0.06932,-0.07404 -0.151178,-0.166772 -0.230616,-0.23141 -0.0373,-0.03035 -0.160803,-0.10518 -0.1186,-0.08213 2.999333,1.638152 2.000203,0.928606 1.343703,0.824413 -0.266978,-0.03555 -0.532577,0.04335 -0.773388,0.157366 -0.273815,0.14596 -0.537067,0.303337 -0.800462,0.467553 -0.277302,0.176607 -0.576565,0.313576 -0.855597,0.487511 -0.309819,0.173 -0.617627,0.348247 -0.931383,0.51391 -0.353492,0.195493 -0.685713,0.425289 -1.031489,0.633778 -0.291743,0.205682 -0.596075,0.396632 -0.911635,0.563301 -0.272965,0.130497 -0.528204,0.297595 -0.811821,0.40758 -0.26425,0.133765 -0.545359,0.238918 -0.782736,0.420364 -0.291179,0.184817 -0.583247,0.363085 -0.900591,0.501227 -0.306951,0.137245 -0.611256,0.279654 -0.919149,0.414922 -0.375227,0.203441 -0.731901,0.438465 -1.090266,0.669891 -0.334216,0.213077 -0.647605,0.453758 -0.963464,0.692586 -0.269809,0.216779 -0.524537,0.45488 -0.826437,0.628423 -0.306911,0.187116 -0.58048,0.419439 -0.874175,0.625792 -0.316521,0.220824 -0.618607,0.46177 -0.937266,0.679826 -0.323551,0.218424 -0.623742,0.462018 -0.931005,0.702381 -0.286184,0.195559 -0.587528,0.36743 -0.861653,0.580473 -0.276238,0.177628 -0.547004,0.360939 -0.800015,0.571248 -0.269348,0.186301 -0.557625,0.346459 -0.801597,0.567619 -0.286208,0.229356 -0.572511,0.457493 -0.854565,0.691893 -0.318053,0.234379 -0.648525,0.448302 -0.990515,0.646213 -0.28683,0.162957 -0.566851,0.337413 -0.852154,0.503158 -0.302205,0.208955 -0.59775,0.428398 -0.916379,0.612278 -0.290457,0.186438 -0.572,0.384058 -0.886826,0.529704 -0.313674,0.158398 -0.622323,0.325043 -0.948682,0.456707 -0.276275,0.147802 -0.563274,0.273746 -0.842576,0.415484 -0.267179,0.109204 -0.530381,0.229994 -0.82147,0.260024 -0.273018,-1e-5 -0.546037,-2e-5 -0.819055,-1.6e-4 -0.329044,-2e-4 -0.658085,-5.3e-4 -0.987129,-0.001 -0.360682,-5.3e-4 -0.721473,-7.9e-4 -1.081733,-0.0214 -0.458237,-0.0255 -0.914603,-0.0694 -1.371256,-0.11459 -0.482073,-0.001 -0.964152,-7.9e-4 -1.446225,-0.002 -0.599496,-10e-4 -1.198989,-0.003 -1.798487,-0.003 -0.433673,0.002 -0.867323,0.008 -1.301007,0.007 -0.275277,0.002 -0.55056,0.002 -0.825843,0.002 -0.318043,-2.7e-4 -0.6363,-0.002 -0.953874,-0.021 -0.394205,-0.0279 -0.785415,-0.07967 -1.169106,-0.177607 -0.317815,-0.09631 -0.641316,-0.07358 -0.970688,-0.07189 -0.327234,7.94e-4 -0.654473,-2.3e-4 -0.981707,5.29e-4 -0.292195,-3e-6 -0.584388,0.0013 -0.876583,5.29e-4 -0.306528,-2.64e-4 -0.613055,-0.0011 -0.919583,-5.29e-4 -0.311925,0.0011 -0.623853,-5.29e-4 -0.935781,-7.9e-5 -0.328242,7.93e-4 -0.656482,-0.0011 -0.984724,-7.94e-4 -0.371692,5.29e-4 -0.743384,-0.0013 -1.115076,2.65e-4 -0.362762,-7.94e-4 -0.725516,-1.1e-5 -1.088278,-1.96e-4 -0.379474,-7.94e-4 -0.758952,-7.94e-4 -1.138428,-1.09e-4 -0.37011,5.29e-4 -0.74022,-0.0013 -1.110327,5.29e-4 -0.339386,-5.29e-4 -0.678765,5.3e-4 -1.018148,0.0011 -0.3428,-2.65e-4 -0.685605,-0.0011 -1.028404,5.29e-4 -0.310388,2.64e-4 -0.620911,-0.0024 -0.930942,-0.01868 -0.322104,-0.01945 -0.639728,-0.07092 -0.958924,-0.116501 -0.379767,-2.28e-4 -0.759531,0.0021 -1.139296,2.1e-5 -0.330787,-0.0013 -0.661921,-0.0071 -0.990997,-0.04453 -0.34839,-0.04051 -0.692007,-0.107571 -1.041307,-0.137842 -0.323765,-0.04619 -0.63582,-0.139351 -0.961805,-0.169818 -0.309026,-0.04442 -0.614987,-0.05936 -0.927606,-0.04597 -0.269599,-0.0013 -0.539662,-0.0024 -0.808378,-0.02693 -0.271929,-0.02995 -0.534792,-0.09903 -0.804403,-0.134895 -0.289017,-0.03361 -0.567777,-0.109831 -0.854505,-0.150815 -0.303075,-0.0408 -0.600244,-0.113797 -0.90591,-0.131953 -0.300544,-0.03875 -0.597264,-0.112472 -0.902166,-0.08987 -0.269946,-5.29e-4 -0.54013,-2.65e-4 -0.809685,-0.01683 -0.287188,-0.02185 -0.571641,-0.06273 -0.852426,-0.128071 -0.29885,-0.01543 -0.600421,-0.03234 -0.889879,-0.114335 -0.257398,-0.07095 -0.530355,-0.06962 -0.788461,-0.143841 -0.270303,-0.0051 -0.54144,-0.01302 -0.808806,-0.05678 -0.316497,-0.05574 -0.628711,-0.113411 -0.95054,-0.132958 -0.513833,-0.08119 -1.016457,-0.214217 -1.529184,-0.299379 0,0 -1.581003,-1.192689 -1.581003,-1.192689 z"
       inkscape:connector-curvature="0"
       style="stroke-width:0.26458332" />
    <g
       id="g158"
       transform="matrix(1.5047897,0,0,1.5852747,0.62428451,-61.565477)">
      <path
         style="stroke-width:0.26458332"
         inkscape:connector-curvature="0"
         d="m 27.084848,80.237136 c 0.345727,0.375092 0.704847,0.73715 1.049053,1.114512 0.232138,0.257604 0.4368,0.546206 0.68682,0.786702 0.250169,0.246861 0.489543,0.510183 0.70603,0.787569 0.244624,0.311314 0.501836,0.611013 0.752118,0.917258 0.205423,0.354827 0.502449,0.63015 0.772155,0.932201 0.273706,0.321569 0.580356,0.613651 0.849675,0.938646 0.264313,0.296283 0.501385,0.613188 0.74654,0.924872 0.253672,0.217583 0.452491,0.480891 0.651894,0.746321 0.222687,0.259215 0.461436,0.503272 0.688364,0.760069 0.191098,0.35706 0.471207,0.643027 0.728604,0.949433 0.258098,0.269515 0.467461,0.571926 0.634196,0.904841 0.185629,0.310451 0.451892,0.564311 0.664675,0.858083 0.238493,0.221187 0.390745,0.502328 0.571643,0.767067 0.218194,0.216027 0.437087,0.425773 0.635,0.660823 0.194498,0.267224 0.473176,0.448792 0.694158,0.690105 0.02932,0.04259 0.05864,0.08518 0.08795,0.127767 0,0 -1.824125,-0.78147 -1.824125,-0.78147 v 0 c -0.03184,-0.03543 -0.06368,-0.07086 -0.09553,-0.106297 -0.239916,-0.224348 -0.487706,-0.440004 -0.689208,-0.70177 -0.2067,-0.230309 -0.449876,-0.428199 -0.626083,-0.684554 -0.172852,-0.26585 -0.362477,-0.514371 -0.570688,-0.753909 -0.227862,-0.28911 -0.492659,-0.554818 -0.656918,-0.887981 -0.181102,-0.314015 -0.398923,-0.59808 -0.646422,-0.863383 -0.265038,-0.301982 -0.49707,-0.624822 -0.734105,-0.948566 -0.22769,-0.257029 -0.476298,-0.49567 -0.680707,-0.772416 -0.203086,-0.262007 -0.433427,-0.496676 -0.652494,-0.744625 -0.239972,-0.312169 -0.487511,-0.617654 -0.746919,-0.914048 -0.28145,-0.313026 -0.572039,-0.617805 -0.85122,-0.932942 -0.279066,-0.296881 -0.536171,-0.606894 -0.769639,-0.941335 -0.256207,-0.302315 -0.501819,-0.613354 -0.753509,-0.91943 -0.229474,-0.266366 -0.463282,-0.529457 -0.714841,-0.77534 -0.227892,-0.260265 -0.451577,-0.524219 -0.67657,-0.787043 -0.346939,-0.380563 -0.714708,-0.740637 -1.05759,-1.124709 0,0 1.827693,0.773549 1.827693,0.773549 z"
         id="path148" />
      <path
         style="stroke-width:0.26458332"
         inkscape:connector-curvature="0"
         d="m 36.084068,92.215638 c 0.443108,-0.04282 0.886597,-0.08065 1.331071,-0.105823 0.325337,-0.01833 0.651206,-0.0195 0.976942,-0.02088 0.289682,-0.01498 0.574852,-0.07217 0.863208,-0.102558 0.269201,-0.02545 0.539742,-0.02901 0.809924,-0.03148 0.267124,-0.0013 0.534252,-7.94e-4 0.801378,-5.29e-4 0.267219,2.65e-4 0.534435,5.29e-4 0.801653,5.29e-4 0.300083,2.65e-4 0.600165,5.29e-4 0.900248,0.0016 0.365937,-2.62e-4 0.731866,0.0013 1.097804,7.93e-4 0.600985,0.0064 1.201983,0.0058 1.80299,0.0047 0.479226,-0.0019 0.958453,-0.0024 1.437679,-0.0044 0.304311,-0.0013 0.608621,-0.0021 0.912934,-0.0024 0.266433,-1.9e-4 0.532866,-1.61e-4 0.799299,-1.53e-4 0.266639,1.3e-5 0.533275,2.4e-5 0.799915,2.6e-5 0.267242,6e-6 0.534484,6e-6 0.801727,6e-6 0.27124,0.0013 0.542266,-0.01159 0.811591,0.02506 0.289298,0.04403 0.577439,0.09123 0.864727,0.146883 0.283625,0.0566 0.571997,0.07783 0.860409,0.08954 0.268232,0.0081 0.536628,0.0072 0.80495,0.007 0.177964,-2.62e-4 0.08898,-1.27e-4 0.266948,-5.29e-4 0,0 1.607315,1.1674 1.607315,1.1674 v 0 c -0.177977,2.64e-4 -0.08898,1.24e-4 -0.266983,5.29e-4 -0.26974,5.29e-4 -0.539502,0.0019 -0.809223,-0.0021 -0.294471,-0.0064 -0.589563,-0.01815 -0.880615,-0.06705 -0.287031,-0.05055 -0.570058,-0.114712 -0.859928,-0.148031 -0.263477,-0.05147 -0.522893,-0.06374 -0.792075,-0.05105 -0.26724,0 -0.53448,0 -0.801719,2e-6 -0.266613,5e-6 -0.533226,1.3e-5 -0.799838,2.7e-5 -0.266573,8e-6 -0.533146,3.7e-5 -0.799719,-1.54e-4 -0.306443,-2.64e-4 -0.612884,-7.94e-4 -0.919322,-0.0024 -0.483245,-0.0021 -0.966496,-0.0027 -1.449744,-0.0044 -0.596718,-0.0011 -1.193427,-0.0019 -1.790124,0.0047 -0.36527,-5.29e-4 -0.730535,0.0011 -1.095806,7.94e-4 -0.29878,0.0011 -0.597564,0.0011 -0.896345,0.0013 -0.26725,-2.9e-5 -0.5345,-6.7e-5 -0.801751,-2.65e-4 -0.266853,-2.65e-4 -0.533704,-7.94e-4 -0.800557,-7.94e-4 -0.266915,7.94e-4 -0.534059,0.0011 -0.800571,0.01749 -0.294167,0.02233 -0.584944,0.06675 -0.875858,0.115083 -0.325089,-2.6e-5 -0.650256,5.3e-4 -0.97521,0.01095 -0.440533,0.0172 -0.880967,0.04456 -1.318609,0.09941 0,0 -1.618715,-1.148913 -1.618715,-1.148913 z"
         id="path150" />
    </g>
    <path
       id="path152"
       d="m 67.168345,63.95287 c 0.1596,0.259702 0.40483,0.451419 0.57828,0.70013 0.0222,0.03181 0.1982,0.336433 0.22025,0.374409 0.20659,0.284562 0.3414,0.612148 0.5529,0.891937 0.15021,0.244673 0.31456,0.480796 0.45956,0.728567 0.17397,0.258919 0.35406,0.512752 0.47736,0.800532 0.0732,0.301426 0.24932,0.546711 0.4421,0.782449 0.2133,0.262361 0.365887,0.556705 0.514956,0.857208 0.08971,0.197371 0.260302,0.340688 0.348713,0.539242 0.04408,0.099 0.06536,0.202652 0.0916,0.306972 0.03245,0.272267 0.174664,0.512879 0.348734,0.719288 0.128249,0.195871 0.30689,0.34956 0.458319,0.525426 0.196054,0.151881 0.30757,0.392448 0.410311,0.613468 0.192381,0.272545 0.334118,0.572124 0.531121,0.842052 0.22296,0.262097 0.421886,0.542388 0.643838,0.805437 0.228351,0.241599 0.372493,0.542655 0.569634,0.808418 0.225153,0.255789 0.426027,0.52663 0.589915,0.825389 0.166555,0.316265 0.373229,0.608624 0.613696,0.873305 0.213011,0.239427 0.43425,0.471133 0.646599,0.712989 0.239408,0.220099 0.390337,0.506486 0.596956,0.752729 0.172193,0.229158 0.379497,0.423849 0.585726,0.622339 0.185844,0.248746 0.348581,0.511527 0.546161,0.752801 0.238697,0.255733 0.461862,0.527613 0.706575,0.776962 0.20238,0.247121 0.404548,0.493025 0.600726,0.745014 0.238969,0.303903 0.503889,0.585729 0.771652,0.864087 0.284456,0.275854 0.592111,0.520588 0.862156,0.811855 0.216042,0.240086 0.337354,0.543065 0.519062,0.804889 0.13472,0.256617 0.330816,0.471278 0.525317,0.683186 0.242871,0.268594 0.517218,0.507497 0.748382,0.786283 0.171143,0.287415 0.372604,0.55212 0.591156,0.804582 0.09979,0.130736 0.184843,0.273683 0.310007,0.383061 0.03581,0.03129 0.156268,0.108104 0.115138,0.08423 -0.508799,-0.295342 -2.02674,-1.195809 -1.518936,-0.898758 0.197028,0.04078 0.341781,-0.09416 0.488162,-0.204687 0.163182,-0.180266 0.376999,-0.298093 0.560041,-0.454552 0.22235,-0.165219 0.393258,-0.38282 0.587523,-0.57731 0.18161,-0.219215 0.40894,-0.391274 0.609664,-0.590886 0.22299,-0.246057 0.44564,-0.492268 0.6741,-0.733295 0.251206,-0.270703 0.52475,-0.520219 0.768921,-0.797285 0.21413,-0.313018 0.502259,-0.560589 0.760574,-0.83479 0.226626,-0.244678 0.42037,-0.516924 0.636357,-0.771051 0.22809,-0.260194 0.434549,-0.537842 0.660869,-0.799761 0.271023,-0.29549 0.525539,-0.60375 0.809209,-0.887402 0.234736,-0.217366 0.421907,-0.474329 0.629449,-0.715373 0.208034,-0.156509 0.360056,-0.358402 0.525759,-0.55504 0.157073,-0.214244 0.37007,-0.375994 0.550603,-0.568553 0.200226,-0.204483 0.37981,-0.427791 0.571807,-0.639976 0.176207,-0.218512 0.356741,-0.432666 0.542631,-0.642851 0.202634,-0.200257 0.421484,-0.383309 0.630749,-0.576685 0.226462,-0.225674 0.473101,-0.429427 0.705305,-0.648822 0.213709,-0.180729 0.421812,-0.368448 0.638066,-0.546121 0.279742,-0.187921 0.535411,-0.403926 0.800119,-0.611397 0.239871,-0.201078 0.501184,-0.373462 0.75837,-0.550995 0.196135,-0.152492 0.392451,-0.304442 0.596273,-0.44655 0.26803,-0.188542 0.508351,-0.411652 0.765947,-0.613651 0.235646,-0.160687 0.458801,-0.33782 0.681501,-0.515678 0.242652,-0.216802 0.519861,-0.386834 0.789196,-0.567039 0.28289,-0.197443 0.532723,-0.435944 0.801984,-0.650775 0.227589,-0.150855 0.434496,-0.326363 0.640953,-0.503777 0.184177,-0.125587 0.361627,-0.260069 0.541314,-0.391827 0.208491,-0.165653 0.435893,-0.304633 0.656685,-0.452808 0.19705,-0.150984 0.37042,-0.330229 0.55509,-0.495892 0.18046,-0.195617 0.37194,-0.376902 0.57435,-0.549624 0.24431,-0.212728 0.48398,-0.43048 0.73128,-0.639737 0.22716,-0.183427 0.45146,-0.37013 0.67907,-0.552968 0.22401,-0.186373 0.46422,-0.349171 0.71271,-0.500634 0.25869,-0.14772 0.51697,-0.295058 0.77785,-0.438756 -0.11052,0.144595 0.12055,-0.09724 0.088,-0.07618 -0.64956,0.420079 1.46844,1.006261 1.55346,1.058955 0.026,0.01609 -0.0547,-0.02792 -0.084,-0.03664 -0.0357,-0.01064 -0.0732,-0.01402 -0.10982,-0.02103 -0.26682,-0.03034 -0.53609,-0.02677 -0.80422,-0.02681 -0.27077,7.94e-4 -0.54153,0.0019 -0.8123,0.0024 -0.26748,5.29e-4 -0.53495,5.29e-4 -0.80242,5.29e-4 -0.26723,1.9e-5 -0.53446,6e-6 -0.80168,-2e-6 -0.26727,-6e-6 -0.53453,-8e-6 -0.8018,-8e-6 -0.26727,0 -0.53454,0 -0.80182,0 -0.26727,0 -0.53453,0 -0.801795,0 -0.267271,0 -0.53454,0 -0.801809,0 -0.267269,0 -0.53454,0 -0.801809,0 -0.267269,0 -0.534538,0 -0.801809,0 -0.267269,0 -0.534538,0 -0.801807,0 -0.267271,0 -0.53454,0 -0.801809,0 -0.267269,0 -0.53454,0 -0.801809,0 -0.267269,0 -0.534541,0 -0.801809,0 -0.397751,-0.03283 -0.794044,-0.08049 -1.192671,-0.106979 -0.343355,-0.0069 -0.655584,-0.117925 -0.967404,-0.248328 -0.292986,-0.116887 -0.608393,-0.154069 -0.913124,-0.230505 -0.330311,-0.07744 -0.640625,-0.214728 -0.957234,-0.332499 -0.304225,-0.102605 -0.623787,-0.131196 -0.942287,-0.146476 -0.299873,-0.0099 -0.599969,-0.0077 -0.899953,-0.0066 -0.270082,0.0013 -0.540163,0.0019 -0.810245,0.0021 -0.266938,2.52e-4 -0.533878,2.44e-4 -0.800817,2.49e-4 -0.267205,-3e-6 -0.534408,-1.3e-5 -0.801613,-1.6e-5 -0.267271,-5e-6 -0.53454,-5e-6 -0.801812,-5e-6 -0.267271,0 -0.53454,0 -0.801812,0 -0.267269,0 -0.53454,0 -0.801809,0 -0.267269,0 -0.534538,0 -0.801809,0 -0.267269,0 -0.534538,0 -0.801807,0 -0.267271,0 -0.53454,0 -0.801809,0 -0.267269,0 -0.53454,0 -0.801809,0 -0.267269,0 -0.53454,0 -0.801809,0 -0.267269,0 -0.534538,0 -0.801809,0 -0.267269,0 -0.534538,0 -0.801807,0 -0.267271,0 -0.53454,0 -0.801809,0 -0.267269,0 -0.534541,0 -0.801809,0 -0.267269,0 -0.534538,0 -0.80181,0 -0.267268,0 -0.534537,0 -0.801806,0 -0.267272,0 -0.53454,0 -0.801809,0 -0.267269,0 -0.534541,0 -0.80181,0 -0.267268,0 -0.534537,0 -0.801809,0 -0.267269,0 -0.534537,0 -0.801806,0 -0.267272,0 -0.534541,0 -0.801809,0 -0.267269,0 -0.534542,0 -0.801812,0 -0.26727,0 -0.53453,0 -0.80181,0 -0.26727,0 -0.53453,0 -0.8018,0 -0.26727,0 -0.53454,0 -0.80181,0 -0.22273,0 -0.44545,0 -0.66818,0 0,0 -1.60711,-1.167638 -1.60711,-1.167638 v 0 c 0.22272,0 0.44545,0 0.66817,0 0.26727,0 0.53454,0 0.80181,0 0.26727,0 0.53454,0 0.80181,0 0.26727,0 0.53454,0 0.80181,0 0.26727,0 0.53454,0 0.80181,0 0.26727,0 0.53454,0 0.80181,0 0.26726,0 0.534535,0 0.801804,0 0.267269,0 0.534537,0 0.801809,0 0.267269,0 0.534538,0 0.801807,0 0.267271,0 0.53454,0 0.801809,0 0.267269,0 0.53454,0 0.801809,0 0.267269,0 0.534538,0 0.801809,0 0.267269,0 0.534538,0 0.801807,0 0.267271,0 0.53454,0 0.801809,0 0.267269,0 0.53454,0 0.801809,0 0.267269,0 0.534538,0 0.801809,0 0.267269,0 0.534538,0 0.801807,0 0.267271,0 0.53454,0 0.801809,0 0.267271,0 0.53454,0 0.801809,0 0.267269,0 0.534541,0 0.801809,0 0.267269,0 0.534538,0 0.80181,0 0.267268,0 0.534537,0 0.801806,0 0.267272,0 0.534543,0 0.801812,0 0.267271,0 0.534543,0 0.801814,2e-6 0.267201,3e-6 0.534401,8e-6 0.801601,1.4e-5 0.266906,0 0.53381,1.3e-5 0.800716,-1.04e-4 0.270235,-1.58e-4 0.540472,-5.29e-4 0.810707,-0.0013 0.302395,-7.94e-4 0.604822,-0.0024 0.907193,0.0024 0.327552,0.0076 0.656632,0.02035 0.975717,0.10283 0.325798,0.09043 0.622181,0.261078 0.952527,0.339315 0.304564,0.09336 0.616484,0.134848 0.924036,0.211902 0.309208,0.117174 0.594452,0.286655 0.934712,0.302078 0.393565,0.02363 0.788739,0.04836 1.178139,0.111855 0.267269,0 0.534538,0 0.801807,0 0.267271,0 0.53454,0 0.801809,0 0.267271,0 0.53454,0 0.801809,0 0.267269,0 0.53454,0 0.801809,0 0.267269,0 0.534538,0 0.801809,0 0.267269,0 0.534538,0 0.801807,0 0.267271,0 0.53454,0 0.801809,0 0.267269,0 0.534541,0 0.801809,0 0.267269,0 0.534541,0 0.80181,0 0.267262,0 0.534522,0 0.801792,5e-6 0.26722,5e-6 0.53445,1.3e-5 0.80167,1.6e-5 0.26744,-5e-6 0.53488,3e-6 0.80231,-2.51e-4 0.27089,-2.65e-4 0.54179,-7.94e-4 0.81268,-0.0021 0.27179,-0.0011 0.5437,-0.0031 0.81538,0.0065 0.0396,0.0019 0.0791,0.0038 0.11869,0.0052 0.0353,0.0013 0.0751,-0.01458 0.10589,0.0028 0.0866,0.0489 2.39103,0.715931 1.58897,1.336659 -0.25429,0.150985 -0.52123,0.281893 -0.77617,0.432808 -0.24164,0.149088 -0.48414,0.29567 -0.69907,0.483153 -0.23223,0.174694 -0.44999,0.367078 -0.67752,0.548016 -0.25297,0.200395 -0.48843,0.42101 -0.72962,0.635376 -0.201,0.173767 -0.39722,0.348572 -0.57071,0.550688 -0.19731,0.165123 -0.37202,0.354441 -0.57008,0.518744 -0.22114,0.13952 -0.44282,0.281131 -0.64814,0.443246 -0.17526,0.132988 -0.34845,0.268409 -0.53703,0.381889 -0.21349,0.172003 -0.409,0.366236 -0.648946,0.504468 -0.274254,0.21609 -0.528952,0.454356 -0.808707,0.663514 -0.261945,0.181515 -0.543044,0.337026 -0.779002,0.553868 -0.221303,0.182319 -0.442502,0.364546 -0.685496,0.517573 -0.260924,0.202687 -0.504655,0.424704 -0.76804,0.624242 -0.204047,0.144185 -0.40491,0.292148 -0.597744,0.451173 -0.260125,0.167412 -0.517509,0.341466 -0.758214,0.536276 -0.268573,0.198662 -0.50537,0.436856 -0.793824,0.609923 -0.216506,0.168219 -0.408673,0.365524 -0.626282,0.532934 -0.23074,0.222554 -0.488638,0.415591 -0.710403,0.648258 -0.202359,0.191066 -0.409163,0.37706 -0.616144,0.563052 -0.185774,0.211439 -0.373573,0.420722 -0.547753,0.642316 -0.191437,0.213275 -0.367845,0.440367 -0.570963,0.642527 -0.175339,0.194937 -0.385749,0.355687 -0.545394,0.564528 -0.169994,0.192281 -0.305728,0.412536 -0.526462,0.555766 -0.213913,0.242847 -0.40717,0.501517 -0.646954,0.721307 -0.281702,0.278926 -0.528947,0.585896 -0.79683,0.877702 -0.226391,0.261133 -0.432109,0.538599 -0.659569,0.798571 -0.218382,0.25646 -0.413181,0.531989 -0.641559,0.779544 -0.256752,0.272992 -0.550331,0.512506 -0.757542,0.828548 -0.244705,0.279945 -0.519991,0.531156 -0.773049,0.80355 -0.228859,0.241927 -0.451998,0.488924 -0.672081,0.738854 -0.197609,0.205203 -0.430625,0.372732 -0.611804,0.594567 -0.201554,0.190701 -0.361611,0.422976 -0.590526,0.585184 -0.180253,0.168331 -0.40226,0.280114 -0.564708,0.467627 -0.174911,0.140835 -0.351372,0.298128 -0.578808,0.339336 -0.982962,0.10799 -1.766491,-0.828177 -2.322486,-1.537488 -0.209995,-0.258252 -0.391208,-0.535824 -0.592574,-0.800232 -0.24701,-0.264753 -0.510006,-0.514332 -0.750285,-0.785485 -0.193394,-0.222943 -0.372999,-0.455438 -0.515765,-0.714822 -0.154744,-0.269676 -0.311346,-0.540509 -0.529019,-0.765823 -0.27796,-0.280802 -0.593516,-0.520512 -0.860954,-0.81212 -0.266634,-0.283655 -0.52737,-0.573096 -0.765138,-0.881727 -0.196903,-0.248983 -0.402026,-0.491678 -0.610314,-0.731152 -0.232593,-0.26438 -0.47993,-0.515731 -0.699659,-0.791234 -0.18579,-0.24352 -0.338955,-0.513336 -0.557839,-0.729456 -0.207212,-0.202988 -0.401045,-0.416123 -0.577181,-0.647025 -0.190132,-0.255297 -0.369462,-0.517295 -0.598017,-0.741752 -0.212934,-0.241326 -0.444473,-0.465166 -0.644884,-0.717248 -0.222724,-0.286621 -0.430417,-0.581353 -0.599417,-0.903552 -0.17863,-0.285671 -0.393321,-0.542983 -0.59814,-0.809829 -0.184561,-0.270229 -0.345779,-0.557046 -0.573982,-0.794985 -0.217318,-0.269801 -0.428263,-0.545095 -0.637781,-0.820852 -0.185605,-0.282059 -0.343585,-0.580892 -0.522703,-0.867042 -0.119463,-0.21172 -0.251703,-0.405482 -0.436293,-0.566132 -0.16533,-0.167632 -0.31179,-0.353705 -0.44713,-0.54615 -0.15163,-0.243443 -0.27511,-0.491236 -0.31874,-0.778624 -0.10588,-0.297756 -0.31158,-0.532556 -0.45207,-0.813707 -0.14855,-0.292383 -0.3275,-0.565356 -0.53088,-0.822923 -0.18434,-0.254069 -0.32664,-0.524243 -0.42762,-0.822201 -0.14315,-0.271933 -0.32353,-0.520501 -0.48596,-0.780909 -0.15484,-0.239729 -0.30256,-0.483934 -0.46429,-0.719186 -0.18652,-0.295767 -0.34487,-0.609142 -0.53983,-0.90016 -0.23443,-0.379743 -0.53775,-0.702402 -0.81949,-1.047101 0,0 1.82769,0.773546 1.82769,0.773546 z"
       inkscape:connector-curvature="0"
       style="stroke-width:0.26458332" />
  </g>
</svg>
