<?xml version="1.0" encoding="UTF-8" standalone="no"?>
<!-- Created with Inkscape (http://www.inkscape.org/) -->

<svg
   xmlns:dc="http://purl.org/dc/elements/1.1/"
   xmlns:cc="http://creativecommons.org/ns#"
   xmlns:rdf="http://www.w3.org/1999/02/22-rdf-syntax-ns#"
   xmlns:svg="http://www.w3.org/2000/svg"
   xmlns="http://www.w3.org/2000/svg"
   xmlns:sodipodi="http://sodipodi.sourceforge.net/DTD/sodipodi-0.dtd"
   xmlns:inkscape="http://www.inkscape.org/namespaces/inkscape"
   width="210mm"
   height="297mm"
   viewBox="0 0 210 297"
   version="1.1"
   id="svg4970"
   inkscape:version="0.92.4 (5da689c313, 2019-01-14)"
   sodipodi:docname="end stop finish.svg">
  <defs
     id="defs4964" />
  <sodipodi:namedview
     id="base"
     pagecolor="#ffffff"
     bordercolor="#666666"
     borderopacity="1.0"
     inkscape:pageopacity="0.0"
     inkscape:pageshadow="2"
     inkscape:zoom="0.35"
     inkscape:cx="400"
     inkscape:cy="560"
     inkscape:document-units="mm"
     inkscape:current-layer="layer1"
     showgrid="false"
     inkscape:window-width="1920"
     inkscape:window-height="1001"
     inkscape:window-x="-9"
     inkscape:window-y="-9"
     inkscape:window-maximized="1" />
  <metadata
     id="metadata4967">
    <rdf:RDF>
      <cc:Work
         rdf:about="">
        <dc:format>image/svg+xml</dc:format>
        <dc:type
           rdf:resource="http://purl.org/dc/dcmitype/StillImage" />
        <dc:title></dc:title>
      </cc:Work>
    </rdf:RDF>
  </metadata>
  <g
     inkscape:label="Layer 1"
     inkscape:groupmode="layer"
     id="layer1">
    <text
       xml:space="preserve"
       style="font-style:normal;font-weight:normal;font-size:10.58333302px;line-height:1.25;font-family:sans-serif;letter-spacing:0px;word-spacing:0px;fill:#000000;fill-opacity:1;stroke:none;stroke-width:0.26458332"
       x="12.095239"
       y="17.297619"
       id="text4974"><tspan
         sodipodi:role="line"
         x="12.095239"
         y="17.297619"
         style="stroke-width:0.26458332"
         id="tspan4976">End/stop/finish</tspan><tspan
         sodipodi:role="line"
         x="12.095239"
         y="30.526785"
         style="stroke-width:0.26458332"
         id="tspan4980">flexable base</tspan><tspan
         sodipodi:role="line"
         x="12.095239"
         y="43.755951"
         style="stroke-width:0.26458332"
         id="tspan4982">root word: stop</tspan></text>
    <path
       style="fill:#000000;stroke-width:0.26458332"
       id="path4994"
       d="m 50.313036,212.33129 c 5.296763,3.99144 10.915378,7.54473 16.431461,11.22458 5.439889,3.54027 10.780543,7.21568 16.028509,11.03266 2.877833,2.18771 5.877038,4.20799 8.789042,6.34819 1.863739,1.07094 3.429313,2.567 5.197073,3.76573 0.169744,0.0586 0.329711,0.17135 0.509231,0.17583 0.11354,0.003 0.202109,-0.10368 0.303162,-0.15552 -3.170611,1.71596 -6.327024,3.45843 -9.511837,5.14788 -0.11938,0.0633 0.239406,-0.14783 0.306887,-0.26491 0.21884,-0.37968 0.261493,-1.10216 0.312336,-1.48505 0.241739,-4.75292 0.223475,-9.51773 0.26657,-14.2759 0.07107,-8.84455 0.02299,-17.68935 -0.01868,-26.5339 0.07226,-7.02024 -0.265719,-14.0326 -0.467535,-21.04788 -0.165394,-6.49869 -0.181263,-12.99789 -0.566327,-19.48832 -0.265399,-3.49298 -0.492051,-6.98767 -0.576784,-10.48997 -0.05307,-3.9459 -0.01043,-7.89211 -0.01648,-11.83822 0.0036,-3.42966 -0.0223,-6.85926 -0.05132,-10.28877 -0.113752,-1.47681 0.169397,-3.00774 -0.164872,-4.46126 11.028098,-5.02406 8.896392,-7.18421 12.645194,-1.1569 1.470214,2.37993 3.092684,4.65653 4.675054,6.96143 2.87413,4.45105 5.56864,9.01373 8.26756,13.57204 2.47372,3.97248 4.87996,7.98721 7.41308,11.92237 1.3287,1.8603 2.72482,3.66362 4.25418,5.36271 1.26433,1.49989 2.75584,2.74693 4.25966,3.992 0,0 -9.50193,5.946 -9.50193,5.946 v 0 c -1.54444,-1.27934 -3.03433,-2.61104 -4.34433,-4.13697 -1.55638,-1.75338 -2.96023,-3.6221 -4.2583,-5.57532 -2.47099,-3.98313 -4.81569,-8.04271 -7.2791,-12.03061 -2.73139,-4.50712 -5.409125,-9.05043 -8.343698,-13.43019 -1.662131,-2.27653 -3.32577,-4.54993 -4.824434,-6.9396 -3.816014,-5.89927 -3.981611,-2.59599 7.503417,-8.80543 -0.09798,-0.10513 -0.152837,-0.34269 -0.293931,-0.3154 -0.0092,0.002 -0.06273,3.6594 -0.05397,4.02408 -0.03194,3.44834 -0.0625,6.89677 -0.06073,10.34528 -0.0058,3.92492 0.0159,7.84992 0.08473,11.7743 0.07902,3.51074 0.227692,7.01853 0.434906,10.52419 0.325226,6.52315 0.231021,13.05264 0.444926,19.58001 0.230272,7.03016 0.621702,14.05784 0.448003,21.09475 -0.03429,8.84302 -0.07143,17.68641 0.02545,26.5292 0.05701,4.72691 0.171466,9.45529 0.136133,14.18228 -0.0082,0.1774 -0.110135,2.41426 -0.212241,2.47826 -6.555769,4.10888 -7.165014,7.62708 -11.220166,5.12429 -1.693807,-1.29924 -3.352782,-2.6423 -5.139703,-3.81688 -2.8808,-2.14789 -5.824104,-4.2121 -8.650317,-6.43339 -5.16881,-3.86062 -10.463408,-7.53617 -15.853579,-11.08265 -5.574805,-3.70782 -11.217616,-7.31411 -16.760629,-11.06843 0,0 9.434346,-5.98659 9.434346,-5.98659 z"
       inkscape:connector-curvature="0" />
  </g>
</svg>
