<?xml version="1.0" encoding="UTF-8" standalone="no"?>
<!-- Created with Inkscape (http://www.inkscape.org/) -->

<svg
   xmlns:dc="http://purl.org/dc/elements/1.1/"
   xmlns:cc="http://creativecommons.org/ns#"
   xmlns:rdf="http://www.w3.org/1999/02/22-rdf-syntax-ns#"
   xmlns:svg="http://www.w3.org/2000/svg"
   xmlns="http://www.w3.org/2000/svg"
   xmlns:sodipodi="http://sodipodi.sourceforge.net/DTD/sodipodi-0.dtd"
   xmlns:inkscape="http://www.inkscape.org/namespaces/inkscape"
   width="210mm"
   height="297mm"
   viewBox="0 0 210 297"
   version="1.1"
   id="svg287"
   inkscape:version="0.92.4 (5da689c313, 2019-01-14)"
   sodipodi:docname="Find Locate Discover.svg">
  <defs
     id="defs281" />
  <sodipodi:namedview
     id="base"
     pagecolor="#ffffff"
     bordercolor="#666666"
     borderopacity="1.0"
     inkscape:pageopacity="0.0"
     inkscape:pageshadow="2"
     inkscape:zoom="0.98994949"
     inkscape:cx="343.09926"
     inkscape:cy="776.36797"
     inkscape:document-units="mm"
     inkscape:current-layer="layer1"
     showgrid="false"
     inkscape:window-width="1920"
     inkscape:window-height="1001"
     inkscape:window-x="-9"
     inkscape:window-y="-9"
     inkscape:window-maximized="1" />
  <metadata
     id="metadata284">
    <rdf:RDF>
      <cc:Work
         rdf:about="">
        <dc:format>image/svg+xml</dc:format>
        <dc:type
           rdf:resource="http://purl.org/dc/dcmitype/StillImage" />
        <dc:title></dc:title>
      </cc:Work>
    </rdf:RDF>
  </metadata>
  <g
     inkscape:label="Layer 1"
     inkscape:groupmode="layer"
     id="layer1">
    <text
       xml:space="preserve"
       style="font-style:normal;font-weight:normal;font-size:10.58333302px;line-height:1.25;font-family:sans-serif;letter-spacing:0px;word-spacing:0px;fill:#000000;fill-opacity:1;stroke:none;stroke-width:0.26458332"
       x="11.759859"
       y="11.823414"
       id="text291"><tspan
         sodipodi:role="line"
         id="tspan289"
         x="11.759859"
         y="11.823414"
         style="stroke-width:0.26458332">Find/Locate/Discover</tspan><tspan
         sodipodi:role="line"
         x="11.759859"
         y="25.05258"
         style="stroke-width:0.26458332"
         id="tspan293">Variable Base</tspan><tspan
         sodipodi:role="line"
         x="11.759859"
         y="38.281746"
         style="stroke-width:0.26458332"
         id="tspan295" /></text>
    <path
       id="path299"
       d="m 21.857368,55.003885 c 0.14948,0.944581 0.443783,1.851853 0.804705,2.734227 0.35166,0.79887 0.597546,1.638139 0.927145,2.445224 0.326495,0.628044 0.605609,1.278676 0.914561,1.915094 0.298954,0.538885 0.612316,1.069702 0.896371,1.616694 0.298263,0.519078 0.544245,1.062196 0.781616,1.610619 0.408732,0.610045 0.770743,1.248789 1.179214,1.858891 0.516065,0.72008 1.129882,1.360072 1.688404,2.046198 0.463574,0.637751 1.086771,1.123394 1.631575,1.684964 0.643612,0.68438 1.281255,1.372286 1.886672,2.090677 0.534225,0.645901 1.101553,1.262769 1.680895,1.868101 0.53458,0.554194 1.104379,1.070073 1.643695,1.619999 0.448207,0.539207 0.886449,1.085419 1.354571,1.607778 0.610362,0.542208 1.200166,1.102492 1.78647,1.670007 0.621125,0.592884 1.274617,1.149411 1.800219,1.831422 0.473573,0.623763 0.976138,1.227691 1.490658,1.818682 0.422785,0.63713 0.850995,1.266648 1.336947,1.857653 0.410692,0.454173 0.886262,0.837309 1.34452,1.240973 0.42074,0.397105 0.786111,0.843682 1.165812,1.279064 0.462434,0.522478 0.951376,1.020538 1.440675,1.517645 0.450175,0.46727 0.905595,0.934143 1.276144,1.468771 0.314333,0.510641 0.617164,1.021133 0.987485,1.494475 0.585216,0.561351 1.134952,1.157237 1.691053,1.747351 0.271828,0.234643 0.519523,0.494718 0.76866,0.752671 0,0 -3.383598,2.064927 -3.383598,2.064927 v 0 C 48.70278,96.587073 48.453518,96.328179 48.190702,96.083008 47.627084,95.482353 47.057037,94.88907 46.470681,94.310956 46.096277,93.831525 45.783105,93.318329 45.465462,92.80115 45.107103,92.287242 44.669159,91.833334 44.234973,91.383775 43.739651,90.881196 43.244743,90.377699 42.774433,89.851398 42.404069,89.431497 42.047612,88.99921 41.637034,88.616881 41.159366,88.203745 40.677189,87.796668 40.265807,87.314343 39.785512,86.723806 39.359924,86.097045 38.93467,85.466416 38.418473,84.868064 37.915905,84.256038 37.435567,83.629023 36.913843,82.969112 36.275629,82.42265 35.67022,81.841477 35.074799,81.268593 34.463056,80.715839 33.858271,80.153054 33.395089,79.634553 32.96064,79.093101 32.515,78.559799 31.974184,78.009228 31.401747,77.492949 30.870257,76.933445 30.288939,76.319966 29.722159,75.692965 29.18629,75.039068 28.587477,74.327889 27.952861,73.649987 27.309865,72.978591 26.746059,72.417682 26.123537,71.91213 25.654808,71.262184 25.093357,70.563554 24.478986,69.909081 23.951647,69.183151 23.53049,68.553223 23.142315,67.902208 22.721715,67.271814 22.485067,66.732559 22.252821,66.192521 21.953863,65.683127 21.671456,65.131703 21.353916,64.599377 21.054722,64.057008 20.741791,63.412978 20.472338,62.74859 20.140337,62.113501 19.807196,61.307262 19.5634,60.467758 19.222732,59.664086 c -0.376297,-0.899181 -0.668243,-1.824561 -0.861791,-2.781279 0,0 3.496427,-1.878922 3.496427,-1.878922 z"
       inkscape:connector-curvature="0"
       style="stroke-width:0.26458332" />
    <path
       id="path301"
       d="m 30.607235,50.162879 c 0.793575,-0.05985 1.562972,-0.261488 2.273376,-0.671399 1.260995,-0.905023 -0.43794,0.320731 -2.366229,1.530337 -0.102208,0.06411 0.186265,-0.160653 0.275863,-0.246012 0.238721,-0.227431 0.468294,-0.468763 0.706427,-0.697445 0.387699,-0.429297 0.789693,-0.836985 1.211817,-1.221314 0.426138,-0.388696 0.895525,-0.705776 1.344284,-1.058304 1.066,-0.70531 2.132,-1.410623 3.198,-2.115934 0.07939,-0.05009 0.316655,-0.202207 0.238168,-0.15028 -0.90727,0.600257 -1.814211,1.201197 -2.72456,1.795301 -0.163175,0.106489 0.310806,-0.242232 0.473177,-0.350319 1.062801,-0.707475 2.13095,-1.404342 3.196423,-2.106515 2.599636,-1.721204 -9.953007,6.590813 0.699795,-0.458753 0.90905,-0.601572 -1.817898,1.203558 -2.728968,1.801104 -0.15952,0.104624 0.312511,-0.221843 0.467523,-0.335016 1.263909,-0.948727 2.561336,-1.768152 3.896608,-2.622391 0.148726,-0.09515 0.319836,-0.135057 0.475954,-0.213127 0.466135,-0.212786 0.931687,-0.424048 1.404972,-0.616487 0.46749,-0.184703 0.953161,-0.31854 1.390243,-0.588807 0.45187,-0.292139 0.946315,-0.477702 1.3931,-0.779084 -0.909765,0.597644 -1.816061,1.20228 -2.729299,1.792928 -0.083,0.05369 0.16031,-0.118369 0.238004,-0.181652 0.221434,-0.180364 0.424053,-0.415071 0.662229,-0.566963 1.049685,-0.669414 2.107221,-1.322538 3.160829,-1.983806 0.392907,0.02761 0.610229,0.433628 0.813235,0.773414 0.228379,0.495721 0.515711,0.949714 0.788441,1.413762 0.261407,0.498223 0.463314,1.031779 0.70308,1.543684 0.206456,0.433147 0.437274,0.849207 0.692784,1.246773 0.291839,0.488979 0.541641,1.005961 0.846336,1.48496 0.324037,0.531895 0.635023,1.074209 0.964197,1.601947 0.339893,0.485402 0.782548,0.83943 1.208534,1.214927 0.497441,0.338034 0.942543,0.743976 1.339994,1.223319 0.437097,0.519078 0.934931,0.954958 1.426737,1.401268 0.53173,0.499451 0.973449,1.112472 1.438434,1.690452 0.457789,0.583062 0.938669,1.136036 1.455978,1.64906 0.55136,0.529506 1.092351,1.06556 1.539963,1.713106 0.370421,0.583753 0.684797,1.206664 1.07153,1.777741 0.391588,0.553672 0.807179,1.080071 1.309545,1.502341 0.430317,0.372332 0.788755,0.831855 1.136172,1.30052 0.350676,0.434885 0.601804,0.953854 0.929233,1.409316 0.417214,0.509987 0.795861,1.058193 1.195976,1.585635 0.472636,0.618439 0.914982,1.265576 1.389903,1.882219 0.440586,0.580575 0.936465,1.102066 1.376723,1.682321 0.387444,0.551257 0.795725,1.081667 1.217219,1.598817 0.498652,0.501009 0.979606,1.024048 1.400639,1.612294 0.36242,0.584705 0.82676,1.065577 1.244177,1.596231 0.357392,0.549481 0.721545,1.090716 1.116047,1.606044 0.367121,0.538303 0.743771,1.066689 1.096646,1.617364 0.284835,0.570283 0.648768,1.076037 0.986591,1.603658 0.331334,0.442997 0.637155,0.909532 0.929505,1.386835 0.282949,0.514905 0.520729,1.056722 0.825724,1.555525 0.348337,0.538501 0.691313,1.078746 1.071661,1.588677 0.307156,0.428525 0.57735,0.887431 0.818899,1.367309 0,0 -2.998851,1.982695 -2.998851,1.982695 v 0 C 75.871404,85.271094 75.611693,84.833646 75.318142,84.424269 74.931657,83.903873 74.581785,83.353733 74.22693,82.805143 73.921985,82.30651 73.678846,81.769194 73.398858,81.252534 73.106047,80.778776 72.796147,80.320113 72.47629,79.8698 72.138306,79.34242 71.774047,78.83674 71.489749,78.266222 71.1427,77.724778 70.772134,77.205253 70.410681,76.676348 70.018287,76.161691 69.654462,75.622664 69.297848,75.07513 c -0.421515,-0.534273 -0.888526,-1.021059 -1.253784,-1.610829 -0.418216,-0.580636 -0.900694,-1.08904 -1.387627,-1.592535 -0.42351,-0.521054 -0.83362,-1.055497 -1.223911,-1.609791 -0.440875,-0.578262 -0.934844,-1.100889 -1.371268,-1.684417 -0.472415,-0.619879 -0.915482,-1.267618 -1.39237,-1.88287 -0.402714,-0.531347 -0.793497,-1.074377 -1.212763,-1.588865 -0.32107,-0.456745 -0.571969,-0.972653 -0.924746,-1.401098 -0.333714,-0.443638 -0.67511,-0.883648 -1.088166,-1.233977 -0.514391,-0.457976 -0.950453,-1.010857 -1.359198,-1.590858 -0.383564,-0.571299 -0.698125,-1.191249 -1.064395,-1.775658 -0.437575,-0.624936 -0.977299,-1.131586 -1.505741,-1.652543 -0.52484,-0.524909 -1.011905,-1.091591 -1.47766,-1.685467 -0.45254,-0.564354 -0.885473,-1.159724 -1.413785,-1.634445 -0.50429,-0.456039 -1.002246,-0.919708 -1.454714,-1.444226 -0.392239,-0.459033 -0.843389,-0.822306 -1.312215,-1.172659 -0.454159,-0.395563 -0.911058,-0.792626 -1.261768,-1.315937 -0.328356,-0.526857 -0.639089,-1.067779 -0.962972,-1.598261 -0.304578,-0.47825 -0.558291,-0.991431 -0.85098,-1.478835 -0.267091,-0.412515 -0.504777,-0.84653 -0.72003,-1.296856 -0.230099,-0.501986 -0.427463,-1.022598 -0.678475,-1.511334 -0.272886,-0.461214 -0.56159,-0.91131 -0.796148,-1.400381 -0.157566,-0.250553 -0.276012,-0.512168 -0.572035,-0.362686 0.942396,-0.623869 1.888495,-1.240449 2.827191,-1.871604 0.06859,-0.04612 -0.147764,0.06925 -0.216059,0.115938 -0.253882,0.17355 -0.441348,0.448754 -0.693737,0.620786 -1.059075,0.721871 -2.130503,1.41967 -3.195755,2.129507 -0.467242,0.257413 -0.941628,0.497261 -1.405635,0.762873 -0.46233,0.210029 -0.941798,0.36716 -1.40849,0.56442 -0.466291,0.205888 -0.93489,0.403937 -1.39367,0.631708 -1.107305,0.533178 -2.530981,1.61076 2.272451,-1.581631 0.798763,-0.530863 -1.505446,1.022474 -0.698232,0.525621 -0.316394,0.210421 -0.161106,0.09727 -0.465529,0.340059 -1.061595,0.712692 -2.126953,1.418068 -3.195767,2.116447 -0.29192,0.190743 8.423687,-5.587283 -0.468694,0.308742 -0.07704,0.05085 -0.156504,0.09672 -0.234758,0.145074 9.077705,-6.05072 -7.572848,5.110136 1.539631,-1.000972 -0.243738,0.173463 -0.467106,0.374227 -0.708821,0.550878 -0.145565,0.106387 -0.307444,0.182642 -0.44894,0.296011 -0.06925,0.05549 -0.127203,0.127513 -0.190804,0.19127 -0.445724,0.340735 -0.85116,0.750213 -1.225324,1.188664 -0.232437,0.245184 -0.485659,0.453007 -0.71562,0.701834 -0.08788,0.09509 -0.155436,0.218821 -0.258202,0.291724 -2.464863,1.7486 -2.199646,1.584878 -3.550102,2.369198 -0.752988,0.341239 -1.546503,0.496081 -2.351015,0.58464 0,0 2.780019,-2.36891 2.780019,-2.36891 z"
       inkscape:connector-curvature="0"
       style="stroke-width:0.24715988" />
    <ellipse
       id="path303"
       cx="59.601105"
       cy="105.76865"
       rx="3.7417734"
       ry="3.8754082"
       style="stroke-width:0.26458332" />
  </g>
</svg>
