<?xml version="1.0" encoding="UTF-8" standalone="no"?>
<!-- Created with Inkscape (http://www.inkscape.org/) -->

<svg
   xmlns:dc="http://purl.org/dc/elements/1.1/"
   xmlns:cc="http://creativecommons.org/ns#"
   xmlns:rdf="http://www.w3.org/1999/02/22-rdf-syntax-ns#"
   xmlns:svg="http://www.w3.org/2000/svg"
   xmlns="http://www.w3.org/2000/svg"
   xmlns:sodipodi="http://sodipodi.sourceforge.net/DTD/sodipodi-0.dtd"
   xmlns:inkscape="http://www.inkscape.org/namespaces/inkscape"
   width="210mm"
   height="297mm"
   viewBox="0 0 210 297"
   version="1.1"
   id="svg20"
   inkscape:version="0.92.4 (5da689c313, 2019-01-14)"
   sodipodi:docname="Future Yet-To-Happen.svg">
  <defs
     id="defs14" />
  <sodipodi:namedview
     id="base"
     pagecolor="#ffffff"
     bordercolor="#666666"
     borderopacity="1.0"
     inkscape:pageopacity="0.0"
     inkscape:pageshadow="2"
     inkscape:zoom="0.7"
     inkscape:cx="461.7986"
     inkscape:cy="530.47369"
     inkscape:document-units="mm"
     inkscape:current-layer="layer1"
     showgrid="false"
     inkscape:window-width="1920"
     inkscape:window-height="1001"
     inkscape:window-x="-9"
     inkscape:window-y="-9"
     inkscape:window-maximized="1" />
  <metadata
     id="metadata17">
    <rdf:RDF>
      <cc:Work
         rdf:about="">
        <dc:format>image/svg+xml</dc:format>
        <dc:type
           rdf:resource="http://purl.org/dc/dcmitype/StillImage" />
        <dc:title></dc:title>
      </cc:Work>
    </rdf:RDF>
  </metadata>
  <g
     inkscape:label="Layer 1"
     inkscape:groupmode="layer"
     id="layer1">
    <text
       xml:space="preserve"
       style="font-style:normal;font-weight:normal;font-size:10.58333302px;line-height:1.25;font-family:sans-serif;letter-spacing:0px;word-spacing:0px;fill:#000000;fill-opacity:1;stroke:none;stroke-width:0.26458332"
       x="6.9490075"
       y="12.090683"
       id="text24"><tspan
         sodipodi:role="line"
         x="6.9490075"
         y="12.090683"
         style="stroke-width:0.26458332"
         id="tspan26">Future/yet-to-happen</tspan><tspan
         sodipodi:role="line"
         x="6.9490075"
         y="25.319849"
         style="stroke-width:0.26458332"
         id="tspan30">Flexable base</tspan><tspan
         sodipodi:role="line"
         x="6.9490075"
         y="38.549015"
         style="stroke-width:0.26458332"
         id="tspan32">Root Word: Future</tspan></text>
    <g
       id="g43"
       transform="matrix(4.4709278,0,0,3.9969881,-96.240809,-231.19973)">
      <path
         style="stroke-width:0.26458332"
         inkscape:connector-curvature="0"
         d="m 28.490288,117.16625 c 0.602462,-0.28278 1.115584,-0.71517 1.638191,-1.12006 0.415105,-0.35874 0.874038,-0.67714 1.247733,-1.08074 0.304295,-0.32808 0.595924,-0.67152 0.866881,-1.02789 0.269184,-0.3939 0.59015,-0.74301 0.918787,-1.08649 0.30481,-0.31727 0.614442,-0.62888 0.843206,-1.00681 0.237916,-0.40984 0.411911,-0.85149 0.646493,-1.26306 0.269222,-0.43849 0.622655,-0.81476 0.975537,-1.18589 0.325639,-0.33321 0.682258,-0.63397 0.983888,-0.9903 0.297585,-0.40801 0.66371,-0.756 1.048636,-1.08016 0.407361,-0.30902 0.798685,-0.63697 1.176756,-0.98098 0.41638,-0.36764 0.858054,-0.70295 1.300721,-1.03762 0.406765,-0.26382 0.784023,-0.56649 1.167651,-0.86164 0.420536,-0.27275 0.688102,-0.52133 1.213755,-0.41795 2.10572,1.10662 2.36098,1.07139 3.44102,2.39853 0.314142,0.35171 0.506915,0.78352 0.782113,1.16422 0.232863,0.41153 0.537684,0.77221 0.852551,1.12215 0.28979,0.42984 0.683641,0.76808 1.057913,1.12135 0.319812,0.38283 0.645631,0.75123 1.022543,1.07798 0.401368,0.34837 0.631425,0.8063 0.884325,1.2607 0.295624,0.40177 0.504034,0.85454 0.768183,1.27522 0.265957,0.4542 0.595585,0.8658 0.903039,1.29193 0.280024,0.39502 0.554014,0.79026 0.869336,1.15893 0.373047,0.40232 0.806701,0.74533 1.213556,1.1135 0.439505,0.36742 0.805768,0.80307 1.178579,1.23471 0.225475,0.28787 0.49235,0.53102 0.767217,0.76955 0,0 -2.592697,-1.05859 -2.592697,-1.05859 v 0 c -0.266628,-0.25071 -0.515516,-0.51726 -0.749519,-0.79896 -0.372023,-0.42681 -0.761664,-0.8351 -1.193099,-1.2032 -0.414057,-0.3696 -0.850784,-0.72078 -1.20219,-1.15333 -0.304575,-0.37959 -0.573116,-0.78403 -0.860713,-1.17631 -0.308227,-0.43171 -0.63585,-0.85067 -0.896554,-1.31425 -0.24729,-0.43144 -0.494239,-0.86158 -0.760952,-1.28149 -0.247825,-0.44215 -0.528982,-0.85088 -0.923526,-1.17835 -0.360251,-0.34083 -0.663834,-0.7325 -1.015116,-1.08213 -0.375902,-0.35957 -0.739354,-0.7281 -1.050862,-1.14636 -0.309393,-0.36361 -0.59179,-0.74588 -0.84224,-1.1528 -0.254664,-0.38686 -0.469111,-0.80153 -0.789773,-1.14127 -0.155482,-0.18597 -0.30775,-0.37343 -0.489572,-0.535 -0.720473,-0.6402 -2.347465,-1.26278 1.835023,0.96655 -0.07695,-0.0492 -0.220144,-0.1567 -0.322149,-0.16454 -0.271369,-0.0208 -0.501171,0.25098 -0.731334,0.34722 -0.390081,0.28581 -0.750793,0.61226 -1.16948,0.85903 -0.435358,0.331 -0.879485,0.64942 -1.287126,1.01551 -0.379487,0.34961 -0.769477,0.68747 -1.184807,0.99434 -0.380886,0.30209 -0.729972,0.64389 -1.016124,1.0383 -0.302647,0.36497 -0.661033,0.67168 -0.998485,1.0025 -0.337939,0.3538 -0.678704,0.71097 -0.937244,1.12913 -0.234887,0.41352 -0.410776,0.85697 -0.650134,1.26828 -0.236564,0.398 -0.551119,0.73185 -0.873459,1.06229 -0.322556,0.33469 -0.644863,0.66759 -0.903097,1.05766 -0.274788,0.36412 -0.570396,0.71573 -0.878975,1.05131 -0.381547,0.41975 -0.860705,0.73976 -1.286499,1.11252 -0.534117,0.41396 -1.058481,0.84901 -1.652497,1.17595 0,0 -2.34541,-1.54319 -2.34541,-1.54319 z"
         id="path34" />
      <path
         style="stroke-width:0.26458332"
         inkscape:connector-curvature="0"
         d="m 27.72769,85.972181 c 0.563033,-0.296315 1.095242,-0.64643 1.650902,-0.955085 0.349173,-0.189915 0.670679,-0.425114 1.017185,-0.61875 0.309036,-0.183102 0.619572,-0.363257 0.936538,-0.53232 0.358981,-0.197649 0.726289,-0.376531 1.103701,-0.535705 0.417711,-0.136525 0.769551,-0.400431 1.15647,-0.59832 0.423638,-0.193972 0.846614,-0.391764 1.291169,-0.533138 0.448887,-0.09076 0.879512,-0.245179 1.314826,-0.384202 0.480814,-0.145513 0.961509,-0.291314 1.441524,-0.439621 0.489021,-0.173416 0.988772,-0.313714 1.480423,-0.478912 0.420944,-0.153506 0.837541,-0.319034 1.255146,-0.481663 0.37981,-0.124772 0.764458,-0.229164 1.138976,-0.370329 0.365882,-0.174903 0.751922,-0.293754 1.135616,-0.421254 0.380372,-0.116419 0.754247,-0.246983 1.144635,-0.326207 0.397933,-0.05629 0.756748,-0.218321 1.1098,-0.401059 0.369117,-0.20851 0.752067,-0.386143 1.141513,-0.552611 0.316171,-0.177265 0.640334,-0.314214 0.995198,-0.388697 0.367607,-0.0712 0.730761,-0.161321 1.084342,-0.284728 0.424587,-0.151604 0.863809,-0.259184 1.299469,-0.374338 0.387459,-0.101997 0.78672,-0.133707 1.185389,-0.151215 0,0 2.277941,1.643904 2.277941,1.643904 v 0 c -0.386215,0.0077 -0.774422,0.02008 -1.153665,0.100875 -0.429872,0.09997 -0.855229,0.221919 -1.278266,0.346022 -0.359804,0.152358 -0.735409,0.239416 -1.113441,0.333759 -0.347189,0.04319 -0.668356,0.138247 -0.963184,0.334608 -0.386627,0.152707 -0.763103,0.324691 -1.126352,0.527103 -0.36699,0.206819 -0.741497,0.395158 -1.158086,0.477962 -0.387313,0.05598 -0.751478,0.174995 -1.122855,0.293041 -0.381902,0.121005 -0.770935,0.226944 -1.128961,0.41075 -0.375156,0.13943 -0.747615,0.280429 -1.139106,0.368753 -0.423381,0.156265 -0.840467,0.327697 -1.263814,0.48346 -0.490365,0.181813 -1.000953,0.301349 -1.489641,0.488823 -0.479795,0.140284 -0.950724,0.308099 -1.434642,0.434781 -0.432977,0.148948 -0.867331,0.310825 -1.317239,0.396764 -0.442404,0.111557 -0.853755,0.305448 -1.268153,0.493041 -0.402394,0.174516 -0.733907,0.47739 -1.158229,0.608147 -0.368583,0.165008 -0.745607,0.310602 -1.092187,0.521875 -0.322019,0.158239 -0.629333,0.344805 -0.93576,0.530894 -0.35959,0.172091 -0.669179,0.42893 -1.023572,0.612452 -0.562301,0.281348 -1.085911,0.635096 -1.634911,0.941187 0,0 -2.358699,-1.520047 -2.358699,-1.520047 z"
         id="path36" />
      <path
         style="stroke-width:0.26458332"
         d="m 54.80655,103.00372 a 2.4568453,2.3623512 0 0 1 -2.427677,2.36219 2.4568453,2.3623512 0 0 1 -2.485321,-2.3061 2.4568453,2.3623512 0 0 1 2.368664,-2.41694 2.4568453,2.3623512 0 0 1 2.541564,2.24871 l -2.454075,0.11214 z"
         sodipodi:end="6.2356949"
         sodipodi:start="0"
         sodipodi:ry="2.3623512"
         sodipodi:rx="2.4568453"
         sodipodi:cy="103.00372"
         sodipodi:cx="52.349705"
         sodipodi:type="arc"
         id="path38" />
    </g>
  </g>
</svg>
