<?xml version="1.0" encoding="UTF-8" standalone="no"?>
<!-- Created with Inkscape (http://www.inkscape.org/) -->

<svg
   xmlns:dc="http://purl.org/dc/elements/1.1/"
   xmlns:cc="http://creativecommons.org/ns#"
   xmlns:rdf="http://www.w3.org/1999/02/22-rdf-syntax-ns#"
   xmlns:svg="http://www.w3.org/2000/svg"
   xmlns="http://www.w3.org/2000/svg"
   xmlns:sodipodi="http://sodipodi.sourceforge.net/DTD/sodipodi-0.dtd"
   xmlns:inkscape="http://www.inkscape.org/namespaces/inkscape"
   width="210mm"
   height="297mm"
   viewBox="0 0 210 297"
   version="1.1"
   id="svg185"
   inkscape:version="0.92.4 (5da689c313, 2019-01-14)"
   sodipodi:docname="Help Assist.svg">
  <defs
     id="defs179" />
  <sodipodi:namedview
     id="base"
     pagecolor="#ffffff"
     bordercolor="#666666"
     borderopacity="1.0"
     inkscape:pageopacity="0.0"
     inkscape:pageshadow="2"
     inkscape:zoom="1.4"
     inkscape:cx="232.84421"
     inkscape:cy="839.00567"
     inkscape:document-units="mm"
     inkscape:current-layer="layer1"
     showgrid="false"
     inkscape:window-width="1920"
     inkscape:window-height="1001"
     inkscape:window-x="-9"
     inkscape:window-y="-9"
     inkscape:window-maximized="1" />
  <metadata
     id="metadata182">
    <rdf:RDF>
      <cc:Work
         rdf:about="">
        <dc:format>image/svg+xml</dc:format>
        <dc:type
           rdf:resource="http://purl.org/dc/dcmitype/StillImage" />
        <dc:title></dc:title>
      </cc:Work>
    </rdf:RDF>
  </metadata>
  <g
     inkscape:label="Layer 1"
     inkscape:groupmode="layer"
     id="layer1">
    <text
       xml:space="preserve"
       style="font-style:normal;font-weight:normal;font-size:10.58333302px;line-height:1.25;font-family:sans-serif;letter-spacing:0px;word-spacing:0px;fill:#000000;fill-opacity:1;stroke:none;stroke-width:0.26458332"
       x="9.8273811"
       y="12.005952"
       id="text189"><tspan
         sodipodi:role="line"
         id="tspan187"
         x="9.8273811"
         y="12.005952"
         style="stroke-width:0.26458332">Assist/help</tspan><tspan
         sodipodi:role="line"
         x="9.8273811"
         y="25.235119"
         style="stroke-width:0.26458332"
         id="tspan205">Flexible Base</tspan><tspan
         sodipodi:role="line"
         x="9.8273811"
         y="38.464283"
         style="stroke-width:0.26458332"
         id="tspan191" /></text>
    <path
       id="path193"
       d="m 87.15415,101.28311 c 0.587576,0.27935 1.178896,0.54606 1.729753,0.89402 0.385681,0.29365 0.764599,0.60273 1.130591,0.9213 0.26552,0.25623 0.582936,0.4065 0.795214,0.7156 0.178794,0.24625 0.472657,0.36953 0.715113,0.54829 0.392411,0.28105 0.709996,0.63835 1.021675,1.00246 0.295643,0.42006 0.68153,0.76262 1.016881,1.14859 0.310055,0.37024 0.642636,0.71336 0.933672,1.0996 0.299437,0.38651 0.618072,0.75587 0.886833,1.16511 0.268746,0.3437 0.37787,0.76541 0.5543,1.1554 0.189561,0.36924 0.334634,0.75961 0.525846,1.12767 0.176824,0.38402 0.363498,0.76159 0.571214,1.13013 0.26701,0.4278 0.664538,0.75674 1.028756,1.0998 0.380788,0.37422 0.801407,0.69732 1.176477,1.07736 0.171382,0.19626 0.371523,0.36337 0.566921,0.53449 0,0 -2.379065,1.47778 -2.379065,1.47778 v 0 c -0.197488,-0.17685 -0.395227,-0.35389 -0.573839,-0.55034 -0.376761,-0.37256 -0.797703,-0.69434 -1.171551,-1.07044 -0.38472,-0.36273 -0.79951,-0.71354 -1.078627,-1.16805 -0.210203,-0.37053 -0.401018,-0.7495 -0.576077,-1.13758 -0.196321,-0.37118 -0.341088,-0.7666 -0.533657,-1.13999 -0.175419,-0.37579 -0.27128,-0.78725 -0.53114,-1.12064 -0.264028,-0.40469 -0.581618,-0.76706 -0.8758,-1.14949 -0.288097,-0.37934 -0.621348,-0.71504 -0.923145,-1.08319 -0.337238,-0.38516 -0.716888,-0.73361 -1.018339,-1.14999 -0.299468,-0.34668 -0.607115,-0.68425 -0.990822,-0.94142 -0.275301,-0.18799 -0.588949,-0.33441 -0.770593,-0.62746 -0.197964,-0.27649 -0.529082,-0.40427 -0.753936,-0.6585 -0.358151,-0.30511 -0.708491,-0.62395 -1.094843,-0.89246 -0.550918,-0.33618 -1.138452,-0.60211 -1.727221,-0.86485 0,0 2.345409,-1.5432 2.345409,-1.5432 z"
       inkscape:connector-curvature="0"
       style="stroke-width:0.26458332" />
    <path
       id="path201"
       d="m 79.391152,126.27463 c 0.623245,0.009 1.246605,0.005 1.86989,0.003 0.486997,-0.0141 0.965562,-0.01 1.446256,0.068 0.412068,0.0393 0.801383,0.17798 1.209508,0.24019 0.415732,0.12347 0.841682,0.19528 1.272908,0.23278 0.399706,0.0719 0.771046,0.23369 1.166908,0.32137 0.367652,0.0697 0.742796,0.0758 1.115724,0.081 0.376023,0.0815 0.755552,0.13615 1.138997,0.16509 0.372017,0.10018 0.751136,0.15833 1.134533,0.18917 0.374904,0.0238 0.750766,0.0233 1.126255,0.0239 0.377806,-1.6e-4 0.755615,-0.001 1.133424,-0.001 0.378005,-2.6e-4 0.756013,-5.3e-4 1.134018,-5.3e-4 0.377981,-2e-5 0.755962,-1e-5 1.133943,-1e-5 0.377976,1e-5 0.755952,1e-5 1.133928,1e-5 0.377975,0 0.755951,0 1.133927,0 0.376912,-0.0154 0.746659,-0.11096 1.12372,-0.15067 0.380058,-0.034 0.76191,-0.0368 1.14319,-0.0393 0.378323,-0.001 0.75665,-1.6e-4 1.134975,2.7e-4 0.377954,5.3e-4 0.755904,5.3e-4 1.133854,5.3e-4 0.37796,5e-5 0.75594,3e-5 1.1339,3e-5 0.37798,0 0.75596,-1e-5 1.13393,-1e-5 0.37798,0 0.75595,0 1.13393,0 0.37798,0 0.75595,0 1.13393,0 0.37798,0 0.75595,0 1.13393,0 0.39054,-0.001 0.77067,-0.0398 1.13738,0.11183 0.39467,0.213 0.66716,0.56405 0.94353,0.90539 0.30024,0.31342 0.57827,0.6471 0.87245,0.96634 0.34939,0.37401 0.71037,0.73693 1.07118,1.09986 0.41668,0.35472 0.80696,0.74463 1.27445,1.03262 0.38175,0.22869 0.78489,0.4209 1.15086,0.67549 0.36087,0.28561 0.67805,0.62139 1.00063,0.9484 0.34333,0.30444 0.64825,0.65266 0.99468,0.95339 0.40086,0.30776 0.72634,0.69608 1.06586,1.0672 0.32713,0.37249 0.71855,0.6783 1.11849,0.96751 0.34651,0.27294 0.67974,0.56497 1.00617,0.86234 0.33417,0.33873 0.71643,0.6219 1.07862,0.92896 0.35784,0.31327 0.71952,0.61727 1.05479,0.95512 0.22472,0.23067 0.44871,0.46205 0.67356,0.6926 0,0 -2.38974,1.46081 -2.38974,1.46081 v 0 c -0.22501,-0.22937 -0.44926,-0.4595 -0.67529,-0.68786 -0.33174,-0.3289 -0.68625,-0.63087 -1.03963,-0.93612 -0.36716,-0.30613 -0.74551,-0.59901 -1.08606,-0.93565 -0.32261,-0.28754 -0.64596,-0.57698 -0.98963,-0.83872 -0.41126,-0.30319 -0.80476,-0.63288 -1.14315,-1.01752 -0.33498,-0.36477 -0.66485,-0.73557 -1.05833,-1.03967 -0.34076,-0.3149 -0.65913,-0.65415 -0.99932,-0.96975 -0.3121,-0.31293 -0.61945,-0.63565 -0.97669,-0.89805 -0.37226,-0.2409 -0.7706,-0.43648 -1.14373,-0.67572 -0.46587,-0.3212 -0.87837,-0.71145 -1.30352,-1.08353 -0.36352,-0.36539 -0.72725,-0.73071 -1.08004,-1.10652 -0.2989,-0.32266 -0.58472,-0.65671 -0.88214,-0.98063 -0.24614,-0.29931 -0.48813,-0.6225 -0.86292,-0.76582 -0.35616,-0.0761 -0.72349,-0.0281 -1.08526,-0.041 -0.37798,0 -0.75596,0 -1.13393,0 -0.37798,0 -0.75596,0 -1.13393,0 -0.37798,0 -0.75595,0 -1.13393,0 -0.37798,0 -0.75595,1e-5 -1.133929,1e-5 -0.377984,0 -0.755965,0 -1.133949,-9e-5 -0.378002,-1.3e-4 -0.756004,-2.7e-4 -1.134007,-8e-4 -0.377626,-5.3e-4 -0.755269,-0.002 -1.132882,0.003 -0.37551,0.006 -0.751766,0.0155 -1.124667,0.0641 -0.380079,0.0531 -0.757857,0.14197 -1.144138,0.12324 -0.377975,0 -0.755951,0 -1.13393,0 -0.377975,0 -0.755951,0 -1.133927,-1e-5 -0.377973,0 -0.755944,-1e-5 -1.133917,5e-5 -0.377944,8e-5 -0.755891,2.1e-4 -1.133837,7.9e-4 -0.378143,5.3e-4 -0.756291,0.002 -1.134433,5e-5 -0.380836,-0.003 -0.762363,-0.007 -1.141616,-0.0455 -0.381246,-0.045 -0.754396,-0.12901 -1.133298,-0.18739 -0.377669,-0.0407 -0.749718,-0.11899 -1.128074,-0.14968 -0.386233,-0.0133 -0.774284,-0.0352 -1.150382,-0.13154 -0.379914,-0.10331 -0.749277,-0.2519 -1.144226,-0.29078 -0.433229,-0.0549 -0.856877,-0.15197 -1.282245,-0.24911 -0.401375,-0.079 -0.795386,-0.19373 -1.204185,-0.23339 -0.470628,-0.0587 -0.943887,-0.0349 -1.417245,-0.0396 -0.625765,-0.002 -1.2516,-0.007 -1.877326,0.003 0,0 2.271225,-1.65015 2.271225,-1.65015 z"
       inkscape:connector-curvature="0"
       style="stroke-width:0.26458332" />
  </g>
</svg>
