<?xml version="1.0" encoding="UTF-8" standalone="no"?>
<!-- Created with Inkscape (http://www.inkscape.org/) -->

<svg
   xmlns:dc="http://purl.org/dc/elements/1.1/"
   xmlns:cc="http://creativecommons.org/ns#"
   xmlns:rdf="http://www.w3.org/1999/02/22-rdf-syntax-ns#"
   xmlns:svg="http://www.w3.org/2000/svg"
   xmlns="http://www.w3.org/2000/svg"
   xmlns:sodipodi="http://sodipodi.sourceforge.net/DTD/sodipodi-0.dtd"
   xmlns:inkscape="http://www.inkscape.org/namespaces/inkscape"
   width="210mm"
   height="297mm"
   viewBox="0 0 210 297"
   version="1.1"
   id="svg133"
   inkscape:version="0.92.4 (5da689c313, 2019-01-14)"
   sodipodi:docname="Object in Orbit Space Flight.svg">
  <defs
     id="defs127" />
  <sodipodi:namedview
     id="base"
     pagecolor="#ffffff"
     bordercolor="#666666"
     borderopacity="1.0"
     inkscape:pageopacity="0.0"
     inkscape:pageshadow="2"
     inkscape:zoom="0.49497475"
     inkscape:cx="1173.0523"
     inkscape:cy="360.20843"
     inkscape:document-units="mm"
     inkscape:current-layer="layer1"
     showgrid="false"
     inkscape:window-width="1920"
     inkscape:window-height="1001"
     inkscape:window-x="-9"
     inkscape:window-y="-9"
     inkscape:window-maximized="1" />
  <metadata
     id="metadata130">
    <rdf:RDF>
      <cc:Work
         rdf:about="">
        <dc:format>image/svg+xml</dc:format>
        <dc:type
           rdf:resource="http://purl.org/dc/dcmitype/StillImage" />
        <dc:title></dc:title>
      </cc:Work>
    </rdf:RDF>
  </metadata>
  <g
     inkscape:label="Layer 1"
     inkscape:groupmode="layer"
     id="layer1">
    <text
       xml:space="preserve"
       style="font-style:normal;font-weight:normal;font-size:10.58333302px;line-height:1.25;font-family:sans-serif;letter-spacing:0px;word-spacing:0px;fill:#000000;fill-opacity:1;stroke:none;stroke-width:0.26458332"
       x="11.339286"
       y="20.321428"
       id="text137"><tspan
         sodipodi:role="line"
         x="11.339286"
         y="20.321428"
         style="stroke-width:0.26458332"
         id="tspan149">Object in Orbit/Space/Flight</tspan><tspan
         sodipodi:role="line"
         x="11.339286"
         y="33.550594"
         style="stroke-width:0.26458332"
         id="tspan139">Flexible Base</tspan><tspan
         sodipodi:role="line"
         x="11.339286"
         y="46.779762"
         style="stroke-width:0.26458332"
         id="tspan141">Derived Symbol</tspan><tspan
         sodipodi:role="line"
         x="11.339286"
         y="60.008926"
         style="stroke-width:0.26458332"
         id="tspan143" /></text>
    <path
       id="path145"
       d="m 44.938365,152.35088 c 0.706535,0.6808 1.467223,1.29684 2.22799,1.91458 0.646721,0.52731 1.289738,1.05893 1.92546,1.59983 0.628671,0.54097 1.282967,1.05024 1.907101,1.59695 0.616426,0.55383 1.139116,1.20287 1.693862,1.81695 0.479483,0.55635 0.856697,1.18613 1.307404,1.76452 0.434057,0.66748 0.877121,1.32953 1.270299,2.02225 0.371695,0.651 0.807929,1.2613 1.18836,1.90694 0.409118,0.65769 0.795756,1.32997 1.220812,1.97761 0.438414,0.66947 0.869638,1.3426 1.236186,2.05449 0.298775,0.66565 0.463172,1.38072 0.713494,2.06348 0.252407,0.52838 0.575167,1.01483 0.858702,1.52637 0.322562,0.60421 0.712566,1.16283 1.094971,1.729 0.459856,0.70119 0.833789,1.44929 1.261911,2.16917 0.450885,0.81441 0.825858,1.66809 1.277263,2.48171 0.391208,0.61836 0.845429,1.19647 1.295339,1.77337 0.423249,0.54365 0.849469,1.08647 1.262362,1.63828 0.44323,0.6003 0.85318,1.22129 1.325512,1.80001 0.490485,0.53778 0.888135,0.68378 1.570241,0.41775 1.464625,-0.8412 -1.366017,0.78514 -2.834799,1.6092 -0.111048,0.0623 0.216927,-0.13349 0.323152,-0.20369 0.351068,-0.23204 0.677405,-0.49038 1.003461,-0.75571 0.815557,-0.68767 1.693196,-1.29645 2.560733,-1.91564 1.052679,-0.69283 2.137725,-1.33265 3.193492,-2.02205 1.992339,-1.3768 4.126851,-2.51625 6.230093,-3.71297 1.514877,-0.75126 3.020671,-1.51573 4.509998,-2.31709 -0.828784,0.47166 -1.650082,0.95672 -2.486348,1.41498 -0.286957,0.15725 0.55826,-0.34151 0.837792,-0.5116 1.160312,-0.70604 2.331937,-1.39258 3.500255,-2.0852 2.862501,-1.77114 5.827602,-3.367 8.74177,-5.04959 1.073899,-0.6556 4.46808,-2.49104 -0.726424,0.41275 -0.270756,0.15135 0.533027,-0.31743 0.79802,-0.47865 0.611868,-0.37227 0.798383,-0.49497 1.398344,-0.87647 2.310509,-1.51581 4.751637,-2.82052 7.147807,-4.19522 -5.819411,3.47791 -1.45202,0.7331 -0.11061,-0.0932 1.29605,-0.74572 2.58727,-1.49992 3.88817,-2.23716 0.17379,-0.0985 0.35906,-0.17539 0.5352,-0.26963 2.45594,-1.31394 -4.08757,2.49084 -1.87616,1.04705 0.14887,-0.0972 0.29602,-0.197 0.44403,-0.29551 0.97077,-0.64144 1.84712,-1.40903 2.72821,-2.16522 0.82552,-0.72915 1.66429,-1.44229 2.47646,-2.18634 0.72387,-0.62778 1.47856,-1.218 2.20016,-1.84854 0.6504,-0.55091 1.31396,-1.08604 1.96519,-1.636 0.64471,-0.57246 1.22974,-1.20683 1.85312,-1.80148 0.60739,-0.50181 1.26008,-0.93546 1.82887,-1.48313 0.55842,-0.60635 1.13657,-1.18828 1.75049,-1.73827 0.60124,-0.55737 1.28111,-1.01396 1.9005,-1.55021 0.5503,-0.52421 1.16001,-0.97914 1.71844,-1.49382 0.5552,-0.61008 1.13841,-1.19005 1.7614,-1.73084 0.51289,-0.44523 1.05406,-0.85481 1.56517,-1.30211 0.62416,-0.56925 1.27025,-1.11478 1.92188,-1.65228 0.58893,-0.44005 1.1543,-0.90818 1.69909,-1.40149 0.56857,-0.48109 1.10394,-0.99925 1.60554,-1.5495 0.45551,-0.58068 0.98398,-1.09604 1.55318,-1.56367 0.63213,-0.47577 1.15114,-1.07594 1.72823,-1.61324 0.60179,-0.5398 1.2872,-0.97197 1.93367,-1.45421 0.61925,-0.48794 1.19284,-1.02662 1.82948,-1.49261 0.66689,-0.49336 1.27008,-1.06379 1.93048,-1.56646 0.57984,-0.46297 1.21302,-0.85071 1.8248,-1.26843 1.4736,-1.00366 0.26365,-0.19055 3.99258,-2.34044 0.18954,-0.10928 0.77477,-0.40629 0.58586,-0.29593 -4.39714,2.56883 -4.09683,2.38706 -2.91807,1.65937 0.52354,-0.36048 0.94604,-0.8397 1.44089,-1.23513 1.28601,-1.43939 3.28368,-1.75968 4.85183,-2.73572 1.20768,-0.62633 2.89312,-1.60156 -2.69001,1.56388 -0.0887,0.0503 0.17128,-0.11099 0.25447,-0.17004 0.2221,-0.15762 0.30979,-0.23605 0.52196,-0.41028 0.58009,-0.56957 1.26205,-1.00245 1.94263,-1.43792 1.67653,-1.07043 3.43542,-2.00496 5.16736,-2.97795 -7.78222,4.47018 -0.12205,0.0744 0.53903,-0.32474 1.03776,-0.62657 -2.09868,1.21405 -3.15344,1.81158 -0.0773,0.0438 0.14669,-0.10035 0.2204,-0.14998 0.14828,-0.0999 0.29746,-0.19838 0.44607,-0.29774 1.47251,-1.14071 3.04583,-1.92932 4.70665,-2.89261 -1.03391,0.59629 -2.06615,1.19549 -3.10173,1.78889 -0.10221,0.0586 0.20232,-0.12079 0.30152,-0.18432 0.20119,-0.12886 0.3875,-0.28088 0.59353,-0.40186 1.22121,-0.71712 2.44313,-1.43328 3.676,-2.13015 0.0923,-0.0522 0.1977,-0.0769 0.29655,-0.11529 1.88355,-0.93151 -4.62758,2.73103 -2.42631,1.40223 0,0 3.70173,-1.44229 3.70173,-1.44229 v 0 c -1.38332,0.95462 -2.85412,1.80835 -4.38306,2.50572 -1.30504,0.678 -0.6778,0.35768 2.82487,-1.66199 0.10179,-0.0587 -0.20065,0.12256 -0.29746,0.18913 -0.24664,0.16961 -0.33069,0.26427 -0.58822,0.41507 -1.22351,0.71642 -2.45429,1.42034 -3.68144,2.13052 5.78392,-3.36186 3.23447,-2.06193 2.08328,-1.03582 -0.23617,0.13063 -0.44507,0.29132 -0.67696,0.42857 -12.00036,7.10216 7.92283,-4.63945 -4.16989,2.45377 -0.29556,0.1561 -0.26143,0.13591 -0.55319,0.29862 -0.0969,0.054 -0.38582,0.21917 -0.28994,0.16336 5.55613,-3.23415 3.64504,-2.12122 2.44861,-1.40973 -0.66571,0.44177 -1.39019,0.80776 -1.95365,1.38654 -1.42703,1.27517 -3.17121,2.09431 -4.84853,3.00557 -1.35991,0.7214 -4.04761,1.9789 1.92825,-1.2195 -0.54656,0.33431 -0.95396,0.81942 -1.4368,1.23492 -1.32719,1.03706 -0.19864,0.1724 -3.87577,2.27072 -0.18787,0.1072 -0.75691,0.41892 -0.57022,0.30969 3.39726,-1.98763 4.07148,-2.41536 2.77169,-1.59999 -0.59934,0.43559 -1.24339,0.8045 -1.82955,1.25775 -0.67111,0.4956 -1.31264,1.02187 -1.9261,1.588 -0.67543,0.40873 -1.23467,0.96166 -1.83689,1.4679 -0.63362,0.49809 -1.31088,0.93192 -1.94942,1.42326 -0.5882,0.52903 -1.1103,1.12124 -1.70976,1.63471 -0.57368,0.44411 -1.13942,0.91215 -1.58108,1.49318 -0.46781,0.58512 -1.01642,1.11355 -1.58952,1.59422 -0.5388,0.50584 -1.08995,0.99961 -1.69074,1.43187 -0.67347,0.50333 -1.29868,1.07539 -1.93104,1.62824 -0.50311,0.46195 -1.0348,0.8833 -1.55899,1.31909 -0.64946,0.49911 -1.24027,1.07368 -1.7748,1.69394 -0.522,0.56291 -1.15936,0.98919 -1.71425,1.51713 -0.60927,0.55393 -1.26714,1.02772 -1.90031,1.54952 -0.61503,0.54367 -1.22615,1.08666 -1.7579,1.71533 -0.54936,0.57621 -1.15286,1.0699 -1.82392,1.50186 -0.65142,0.5674 -1.21917,1.22254 -1.85408,1.80844 -0.62407,0.57743 -1.30627,1.09138 -1.96104,1.63399 -0.71819,0.64445 -1.46895,1.24908 -2.22287,1.85105 -0.81515,0.74381 -1.63969,1.47368 -2.47268,2.198 -0.88249,0.75834 -1.7495,1.5392 -2.70432,2.20674 -1.56551,1.05012 -3.01927,1.84617 -4.76283,2.85057 -0.17608,0.10143 -0.35673,0.19471 -0.53587,0.29062 -0.17504,0.0937 -0.69725,0.37982 -0.52663,0.27828 0.93738,-0.55796 1.885,-1.09854 2.8275,-1.6478 -2.1743,1.36405 -4.33547,2.74971 -6.59463,3.97641 -1.153418,0.66023 -3.691786,2.14278 1.46978,-0.86508 0.22259,-0.1297 -0.44732,0.2557 -0.67026,0.38479 -0.21533,0.12468 -0.43388,0.24411 -0.64454,0.37653 -0.21217,0.13337 -0.41552,0.28027 -0.62328,0.4204 -2.640125,1.69828 -5.386214,3.22171 -8.106281,4.78705 -1.030251,0.59171 -0.828871,0.47996 -1.849263,1.05085 -0.319635,0.17883 -1.274038,0.72303 -0.959861,0.53478 5.043683,-3.02215 1.749936,-0.98806 0.678895,-0.35744 -2.819392,1.67925 -5.630823,3.37097 -8.478975,5.0014 -1.504755,0.80824 -3.034314,1.56471 -4.552072,2.34749 5.851274,-3.41998 1.749684,-1.07172 0.480026,-0.17021 -1.052447,0.68532 -2.108468,1.35947 -3.186121,2.0031 -0.865571,0.60745 -1.731592,1.21776 -2.55787,1.87791 -1.546624,1.36006 -3.398644,2.53654 -5.306184,3.2361 -0.792046,0.0853 -1.300382,-0.19064 -1.813097,-0.78934 -0.472236,-0.58417 -0.882698,-1.21001 -1.331293,-1.81146 -0.42059,-0.54476 -0.840161,-1.09032 -1.26338,-1.63276 -0.460195,-0.59462 -0.923481,-1.19181 -1.318541,-1.8319 -0.44387,-0.81238 -0.811601,-1.664 -1.262946,-2.47305 -0.430027,-0.71083 -0.805722,-1.45023 -1.267981,-2.14172 -0.386792,-0.57635 -0.781392,-1.145 -1.111234,-1.75744 -0.29776,-0.52768 -0.639612,-1.0278 -0.894665,-1.57892 -0.24293,-0.66837 -0.391843,-1.37133 -0.679937,-2.02432 -0.362696,-0.69712 -0.772025,-1.36644 -1.207058,-2.02087 -0.4386,-0.64802 -0.825971,-1.32841 -1.234874,-1.99524 -0.380717,-0.64875 -0.833279,-1.25202 -1.199375,-1.90986 -0.376362,-0.67907 -0.804383,-1.3274 -1.234056,-1.97362 -0.447151,-0.57009 -0.826349,-1.18628 -1.292783,-1.74135 -0.542177,-0.60462 -1.056363,-1.24059 -1.66887,-1.7767 -0.624028,-0.54395 -1.277644,-1.05136 -1.903921,-1.59241 -0.634333,-0.53789 -1.274963,-1.06793 -1.916845,-1.59652 -0.7601,-0.62606 -1.502405,-1.27122 -2.250456,-1.91134 0,0 3.368363,-2.09987 3.368363,-2.09987 z"
       inkscape:connector-curvature="0"
       style="stroke-width:0.26458332" />
    <ellipse
       id="path147"
       cx="72.830948"
       cy="155.61441"
       rx="4.1426778"
       ry="3.7417734"
       style="stroke-width:0.26458332" />
  </g>
</svg>
