<?xml version="1.0" encoding="UTF-8" standalone="no"?>
<!-- Created with Inkscape (http://www.inkscape.org/) -->

<svg
   xmlns:dc="http://purl.org/dc/elements/1.1/"
   xmlns:cc="http://creativecommons.org/ns#"
   xmlns:rdf="http://www.w3.org/1999/02/22-rdf-syntax-ns#"
   xmlns:svg="http://www.w3.org/2000/svg"
   xmlns="http://www.w3.org/2000/svg"
   xmlns:sodipodi="http://sodipodi.sourceforge.net/DTD/sodipodi-0.dtd"
   xmlns:inkscape="http://www.inkscape.org/namespaces/inkscape"
   width="210mm"
   height="297mm"
   viewBox="0 0 210 297"
   version="1.1"
   id="svg262"
   inkscape:version="0.92.4 (5da689c313, 2019-01-14)"
   sodipodi:docname="Pattern List.svg">
  <defs
     id="defs256" />
  <sodipodi:namedview
     id="base"
     pagecolor="#ffffff"
     bordercolor="#666666"
     borderopacity="1.0"
     inkscape:pageopacity="0.0"
     inkscape:pageshadow="2"
     inkscape:zoom="1.4"
     inkscape:cx="380.50403"
     inkscape:cy="853.37549"
     inkscape:document-units="mm"
     inkscape:current-layer="layer1"
     showgrid="false"
     inkscape:window-width="1920"
     inkscape:window-height="1001"
     inkscape:window-x="-9"
     inkscape:window-y="-9"
     inkscape:window-maximized="1" />
  <metadata
     id="metadata259">
    <rdf:RDF>
      <cc:Work
         rdf:about="">
        <dc:format>image/svg+xml</dc:format>
        <dc:type
           rdf:resource="http://purl.org/dc/dcmitype/StillImage" />
        <dc:title></dc:title>
      </cc:Work>
    </rdf:RDF>
  </metadata>
  <g
     inkscape:label="Layer 1"
     inkscape:groupmode="layer"
     id="layer1">
    <text
       xml:space="preserve"
       style="font-style:normal;font-weight:normal;font-size:10.58333302px;line-height:1.25;font-family:sans-serif;letter-spacing:0px;word-spacing:0px;fill:#000000;fill-opacity:1;stroke:none;stroke-width:0.26458332"
       x="10.156241"
       y="15.565187"
       id="text266"><tspan
         sodipodi:role="line"
         id="tspan264"
         x="10.156241"
         y="15.565187"
         style="stroke-width:0.26458332">Pattern/List</tspan><tspan
         sodipodi:role="line"
         x="10.156241"
         y="28.794353"
         style="stroke-width:0.26458332"
         id="tspan268">Base Word: Series</tspan><tspan
         sodipodi:role="line"
         x="10.156241"
         y="42.023521"
         style="stroke-width:0.26458332"
         id="tspan270">Flexable Base</tspan></text>
    <path
       id="path272"
       d="m 13.144799,132.97899 c 0.579656,-0.8422 1.130775,-1.70335 1.685369,-2.56206 0.402009,-0.6029 0.762324,-1.23166 1.211101,-1.8019 0.521813,-0.6296 1.077749,-1.2308 1.591477,-1.86688 0.541207,-0.65661 1.00756,-1.36934 1.515417,-2.05148 0.474712,-0.58282 0.923855,-1.17738 1.349068,-1.79617 0.344742,-0.49336 0.636501,-1.0215 0.9742,-1.51946 0.323126,-0.46467 0.672952,-0.91374 1.032819,-1.35176 0.450354,-0.49901 0.833019,-1.05412 1.210366,-1.60898 0.493582,-0.70072 0.950008,-1.42547 1.399286,-2.15501 0.394482,-0.61297 0.856784,-1.17642 1.324009,-1.73478 0.473457,-0.51238 0.923538,-1.04188 1.363942,-1.58266 0.451916,-0.49246 0.846182,-1.02593 1.211701,-1.58398 0.377733,-0.44476 0.730422,-0.90767 1.08657,-1.36954 0.254505,-0.36905 0.56093,-0.69695 0.848297,-1.03991 0.301961,-0.37487 0.604414,-0.74922 0.908536,-1.12259 0.312582,-0.31644 0.557038,-0.69409 0.866405,-1.01195 1.421977,-0.94572 3.43244,0.90277 4.297966,2.21569 0.199305,0.42619 0.493101,0.80156 0.750882,1.19555 0.312782,0.53524 0.693695,1.03569 1.076251,1.525 0.474117,0.49591 0.96113,0.99014 1.385559,1.53045 0.505283,0.63594 1.073388,1.21276 1.525077,1.88932 0.482584,0.69219 1.09796,1.27914 1.648928,1.9176 0.492398,0.61568 1.002499,1.21206 1.513499,1.81285 0.437227,0.55808 0.756333,1.1907 1.100429,1.80742 0.439049,0.72725 0.958532,1.39952 1.483598,2.06603 0.499723,0.6601 1.049014,1.28446 1.539054,1.95157 0.475861,0.57402 0.8425,1.22784 1.313011,1.80405 0.452927,0.51785 0.886412,1.0499 1.332508,1.5741 0.380092,0.55328 0.79367,1.08157 1.148564,1.65185 0.38553,0.60169 0.843576,1.15006 1.267357,1.7244 0.29896,0.49738 0.680185,0.94005 0.988819,1.43137 0.324408,0.47429 0.656439,0.9386 0.995611,1.40224 0.237271,0.41275 0.550416,0.76955 0.841727,1.14482 0.22755,0.19443 0.12142,0.0876 0.317384,0.32132 0,0 -3.667011,-1.54303 -3.667011,-1.54303 v 0 c -0.209466,-0.2195 -0.10718,-0.10392 -0.305896,-0.34758 -0.289041,-0.37654 -0.577789,-0.75229 -0.831567,-1.15445 -0.333502,-0.46859 -0.669065,-0.93575 -0.98866,-1.4141 -0.334579,-0.46704 -0.665126,-0.93677 -0.98847,-1.4117 -0.425524,-0.5765 -0.88323,-1.13012 -1.255189,-1.74457 -0.373872,-0.5493 -0.766082,-1.0869 -1.174991,-1.61054 -0.438525,-0.52822 -0.885724,-1.04913 -1.314556,-1.58537 -0.436451,-0.60321 -0.852585,-1.22116 -1.313447,-1.80659 -0.510765,-0.65009 -1.028046,-1.29506 -1.537554,-1.94619 -0.522251,-0.68156 -1.03654,-1.37259 -1.462646,-2.11973 -0.344924,-0.60132 -0.674246,-1.21513 -1.133716,-1.74012 -0.507513,-0.59774 -0.999133,-1.20725 -1.506437,-1.80488 -0.560879,-0.63948 -1.175091,-1.23766 -1.638247,-1.95621 -0.484066,-0.64582 -1.039042,-1.2332 -1.5426,-1.86381 -0.456155,-0.52057 -0.941263,-1.01581 -1.383818,-1.54804 -0.372192,-0.50397 -0.746041,-1.00759 -1.068404,-1.5455 -0.268094,-0.38415 -0.504007,-0.78954 -0.779042,-1.16764 -1.072324,-1.03541 -1.640596,-0.91762 3.010837,1.62021 0.07252,0.0396 -0.07221,-0.17519 -0.152276,-0.19555 -0.03425,-0.009 -0.06932,0.0138 -0.103976,0.0207 -0.336523,0.2493 -0.523155,0.67768 -0.840271,0.95427 -0.30239,0.37654 -0.620422,0.73985 -0.910752,1.12632 -0.28144,0.34499 -0.592952,0.66329 -0.848854,1.02842 -0.358286,0.44537 -0.685835,0.91549 -1.075087,1.33632 -0.373057,0.56936 -0.773793,1.11553 -1.235284,1.61769 -0.441624,0.54228 -0.889775,1.07598 -1.367184,1.58748 -0.456422,0.54253 -0.908818,1.08905 -1.302996,1.67903 -0.448826,0.73595 -0.919494,1.45795 -1.405459,2.16988 -0.376399,0.57052 -0.758781,1.142 -1.217384,1.6507 -0.354594,0.42806 -0.690108,0.87187 -1.015472,1.32083 -0.343121,0.49576 -0.629932,1.02958 -0.977495,1.52302 -0.440041,0.61228 -0.885396,1.21578 -1.366917,1.79756 -0.508954,0.68834 -0.987941,1.39832 -1.525345,2.06522 -0.514645,0.63298 -1.061401,1.24018 -1.579066,1.87071 -0.449596,0.55576 -0.797195,1.17816 -1.203656,1.76489 -0.569182,0.84501 -1.137173,1.69064 -1.666149,2.562 0,0 -3.42975,-1.9962 -3.42975,-1.9962 z"
       inkscape:connector-curvature="0"
       style="stroke-width:0.26458332" />
    <path
       id="path274"
       d="m 30.983933,73.910729 c 0.256834,0.799639 0.465844,1.612019 0.706406,2.416291 0.301693,0.465572 0.34404,1.030835 0.550127,1.528072 0.121115,0.412581 0.330305,0.773835 0.429175,1.194811 0.148685,0.375997 0.349186,0.726628 0.479354,1.109564 0.112691,0.500743 0.404926,0.936419 0.621879,1.396797 0.281966,0.460107 0.40771,0.996211 0.742995,1.422998 0.275532,0.411554 0.537162,0.827024 0.715163,1.291097 0.199599,0.41229 0.498449,0.757566 0.716452,1.159574 0.278456,0.488717 0.563552,0.973034 0.863735,1.449602 0.287113,0.524039 0.574778,1.040736 0.857327,1.566145 0.270333,0.599551 0.641974,1.140262 0.964927,1.712061 0.30911,0.518766 0.544732,1.080219 0.864434,1.59295 0.232076,0.502978 0.582244,0.936495 0.809109,1.4399 0.218419,0.444796 0.488108,0.84674 0.626845,1.326435 0.221383,0.389049 0.30211,0.835663 0.543775,1.213382 0.221615,0.447029 0.356084,0.931016 0.531749,1.398437 0.187259,0.610997 0.488886,1.176369 0.696179,1.779844 0.264089,0.521816 0.329052,1.104961 0.580909,1.629471 0.201776,0.54378 0.450056,1.06706 0.675314,1.60098 0.185926,0.51656 0.380072,1.02593 0.596228,1.52948 0.225531,0.44617 0.292214,0.9549 0.488456,1.40847 0.181305,0.43743 0.276555,0.91571 0.493352,1.33643 0.203602,0.4296 0.406802,0.85496 0.612947,1.28263 0.174945,0.44868 0.354052,0.89065 0.547368,1.33084 0.05693,0.19546 0.128373,0.40977 0.321987,0.51422 0.0447,0.0241 0.191415,0.0634 0.147659,0.0376 -3.161642,-1.86335 -4.540364,-2.28842 -3.244845,-1.88347 0.404418,-0.15656 0.556286,-0.51259 0.749429,-0.86524 0.188445,-0.43018 0.370216,-0.85967 0.585285,-1.27779 0.268949,-0.40443 0.409231,-0.86866 0.591878,-1.31405 0.165487,-0.44941 0.326621,-0.89881 0.51521,-1.33912 0.122905,-0.42353 0.251611,-0.84439 0.370592,-1.26989 0.126759,-0.41855 0.244829,-0.84455 0.385098,-1.25999 0.188833,-0.481805 0.199898,-1.001995 0.309081,-1.501015 0.07983,-0.511447 0.224689,-1.001091 0.363051,-1.498073 0.195963,-0.403527 0.324995,-0.831803 0.46686,-1.256009 0.126748,-0.517779 0.208846,-1.039331 0.387844,-1.543656 0.164754,-0.552513 0.384144,-1.083492 0.603107,-1.615919 0.159819,-0.542205 0.349224,-1.072277 0.550844,-1.600295 0.251394,-0.526867 0.434658,-1.081355 0.675209,-1.612921 0.198155,-0.521973 0.402934,-1.036638 0.651672,-1.53665 0.253256,-0.460097 0.508415,-0.91726 0.778864,-1.367314 0.265629,-0.342183 0.481235,-0.717409 0.720442,-1.077989 0.302125,-0.433401 0.668536,-0.8207 0.944562,-1.271712 0.260951,-0.383251 0.504265,-0.777171 0.754669,-1.167196 0.266422,-0.323154 0.475091,-0.686358 0.706501,-1.034502 0.254016,-0.459153 0.55336,-0.889929 0.846246,-1.324404 0.29687,-0.402026 0.499348,-0.860573 0.752321,-1.290185 0.254709,-0.439428 0.455999,-0.90348 0.675778,-1.360445 0.127476,-0.409054 0.404934,-0.739465 0.600072,-1.113139 0.145352,-0.402648 0.378743,-0.763548 0.533787,-1.162267 0.226237,-0.424931 0.390956,-0.877456 0.598627,-1.311217 0.306801,-0.487608 0.503912,-1.031316 0.779852,-1.534707 0.192143,-0.403355 0.439171,-0.778667 0.571116,-1.207688 0.118684,-0.269246 0.06204,-0.137547 0.170273,-0.394939 0,0 3.472278,1.947768 3.472278,1.947768 v 0 c -0.105871,0.249465 -0.05394,0.127881 -0.155713,0.364781 -0.153588,0.448056 -0.400767,0.849151 -0.613775,1.270447 -0.27636,0.492956 -0.467098,1.030525 -0.766509,1.512096 -0.198096,0.429011 -0.360325,0.874144 -0.583602,1.291347 -0.165327,0.409485 -0.391146,0.789665 -0.550034,1.201909 -0.195625,0.369231 -0.465863,0.696563 -0.598199,1.099378 -0.227656,0.464257 -0.434689,0.937218 -0.691637,1.386806 -0.254844,0.438303 -0.468527,0.900774 -0.76708,1.311746 -0.293566,0.43199 -0.593897,0.859745 -0.83911,1.32248 -0.22706,0.349022 -0.434443,0.713065 -0.705149,1.030364 -0.249211,0.387562 -0.489572,0.780473 -0.753277,1.158613 -0.279603,0.454023 -0.644797,0.845341 -0.947359,1.284187 -0.233201,0.358489 -0.446873,0.730319 -0.715886,1.06339 -0.267528,0.439761 -0.518734,0.886907 -0.763738,1.339955 -0.249655,0.492864 -0.444889,1.004811 -0.647988,1.518357 -0.232733,0.526878 -0.419793,1.072311 -0.663821,1.59439 -0.203962,0.530659 -0.378349,1.06948 -0.556244,1.609037 -0.217488,0.524272 -0.423582,1.051636 -0.590034,1.594815 -0.165598,0.50654 -0.233982,1.032632 -0.382456,1.543519 -0.139737,0.418716 -0.264662,0.842417 -0.456554,1.24134 -0.141224,0.484862 -0.269655,0.968297 -0.352467,1.467637 -0.09291,0.51766 -0.139203,1.04597 -0.326716,1.54267 -0.126399,0.41694 -0.259702,0.83155 -0.376909,1.2505 -0.129538,0.43902 -0.247272,0.88103 -0.396293,1.31323 -0.189543,0.43774 -0.344165,0.88783 -0.512239,1.33427 -0.18964,0.45422 -0.337688,0.92761 -0.608925,1.34308 -0.218266,0.42047 -0.391004,0.8576 -0.590143,1.28696 -0.232262,0.41998 -0.433393,0.84347 -0.87399,1.08831 -1.446985,1.09133 -3.627284,-1.04663 -4.166034,-2.53052 -0.193177,-0.43498 -0.340415,-0.8896 -0.554434,-1.31592 -0.214561,-0.4269 -0.402328,-0.86787 -0.603229,-1.30127 -0.160531,-0.45294 -0.323855,-0.90468 -0.483254,-1.35805 -0.139512,-0.47252 -0.299929,-0.93493 -0.497485,-1.38701 -0.212566,-0.50184 -0.374015,-1.02408 -0.591352,-1.52441 -0.236759,-0.530024 -0.452379,-1.068446 -0.673452,-1.605079 -0.200874,-0.545039 -0.327059,-1.115632 -0.571457,-1.645725 -0.231529,-0.592976 -0.498279,-1.172374 -0.697913,-1.77782 -0.170376,-0.458732 -0.31665,-0.929745 -0.560914,-1.35636 -0.181451,-0.418848 -0.34544,-0.845076 -0.519165,-1.266946 -0.184957,-0.440304 -0.44668,-0.843868 -0.647264,-1.277517 -0.270314,-0.472744 -0.55641,-0.93662 -0.813271,-1.417328 -0.286104,-0.52991 -0.557376,-1.067506 -0.853381,-1.592313 -0.326144,-0.573458 -0.69958,-1.11942 -0.968262,-1.724509 -0.276304,-0.521224 -0.574182,-1.031338 -0.866894,-1.543484 -0.292523,-0.484896 -0.582842,-0.970579 -0.870376,-1.45837 -0.255537,-0.38712 -0.513839,-0.773009 -0.692417,-1.20378 -0.215609,-0.431477 -0.48456,-0.830662 -0.745302,-1.235755 -0.253235,-0.480618 -0.455986,-0.984673 -0.716891,-1.461574 -0.236151,-0.464093 -0.470424,-0.929021 -0.618628,-1.430221 -0.17068,-0.374192 -0.337756,-0.750795 -0.462076,-1.143582 -0.137433,-0.395402 -0.326438,-0.771258 -0.43539,-1.177539 -0.142484,-0.524129 -0.329105,-1.027298 -0.525717,-1.533456 -0.237421,-0.814515 -0.446675,-1.636755 -0.704379,-2.445409 0,0 3.57523,1.724266 3.57523,1.724266 z"
       inkscape:connector-curvature="0"
       style="stroke-width:0.26458332" />
    <path
       id="path278"
       d="m 102.03656,61.368476 c 0.10406,1.008481 0.10713,2.025005 0.2243,3.031702 0.14006,1.387411 0.33693,2.768372 0.52538,4.15005 0.31111,2.313199 0.72302,4.610965 1.07429,6.917846 0.4273,2.97733 0.8532,5.953072 1.1364,8.947968 0.3681,3.841596 0.69687,7.684965 0.97486,11.534081 0.25477,4.075407 0.37384,8.155697 0.66857,12.228817 0.35088,3.9895 0.70641,7.97863 1.01149,11.97193 0.25068,3.49884 0.48189,6.99773 0.59153,10.50409 0.13503,3.03391 0.25259,6.06859 0.33123,9.1045 0.0476,1.69092 0.0691,3.38231 0.0864,5.07374 0,0 -3.50091,-1.78314 -3.50091,-1.78314 v 0 c 0.0122,-1.6748 0.0127,-3.34975 -0.006,-5.0245 -0.049,-3.02788 -0.14759,-6.05425 -0.29042,-9.0792 -0.11393,-3.49418 -0.31728,-6.98308 -0.56167,-10.47053 -0.30227,-3.99164 -0.6559,-7.97896 -0.9989,-11.96725 -0.29314,-4.07385 -0.40509,-8.155379 -0.67294,-12.230655 -0.28442,-3.852952 -0.62508,-7.699547 -1.01468,-11.543411 -0.30609,-3.000473 -0.75746,-5.980565 -1.21181,-8.961757 -0.36153,-2.312128 -0.74564,-4.620697 -1.097052,-6.934473 -0.204282,-1.395809 -0.443174,-2.787028 -0.576757,-4.19195 -0.09123,-1.012859 -0.100383,-2.03318 -0.250095,-3.040954 0,0 3.557034,1.763096 3.557034,1.763096 z"
       inkscape:connector-curvature="0"
       style="stroke-width:0.26458332" />
    <path
       id="path284"
       d="m 129.74786,140.23034 c 0.0537,-0.63033 0.17626,-1.25079 0.26575,-1.87638 0.12362,-0.42858 0.168,-0.87476 0.27296,-1.3065 0.12611,-0.40342 0.13238,-0.82699 0.20285,-1.23988 0.0565,-0.41221 0.16142,-0.81201 0.25447,-1.21652 0.0657,-0.378 0.13211,-0.7601 0.26012,-1.12273 0.12353,-0.33543 0.24364,-0.67112 0.36209,-1.00847 0.14397,-0.4487 0.19145,-0.91877 0.28959,-1.37851 0.0586,-0.40761 0.14674,-0.80711 0.23056,-1.20994 0.0514,-0.39825 0.16102,-0.78348 0.22017,-1.18066 0.1342,-0.45691 0.16189,-0.93426 0.25882,-1.39783 0.10662,-0.48736 0.24506,-0.96795 0.37991,-1.44848 0.10188,-0.42641 0.1606,-0.85811 0.30474,-1.27358 0.11997,-0.42554 0.23377,-0.85374 0.33572,-1.28429 0.12176,-0.40752 0.26513,-0.80832 0.36664,-1.22148 0.11865,-0.42266 0.26162,-0.83792 0.37845,-1.26096 0.13385,-0.39639 0.27652,-0.79045 0.37763,-1.1967 0.15553,-0.49542 0.25944,-1.00441 0.40602,-1.50258 0.13767,-0.49576 0.31808,-0.97832 0.47299,-1.46871 0.19651,-0.50649 0.34314,-1.02821 0.49458,-1.54915 0.16198,-0.48636 0.35207,-0.9636 0.50304,-1.45347 0.0961,-0.38639 0.24835,-0.75931 0.40694,-1.12409 0.13448,-0.38404 0.35218,-0.72874 0.52134,-1.09628 0.15414,-0.33952 0.38511,-0.63509 0.55834,-0.96338 0.17731,-0.2862 0.39405,-0.54494 0.60151,-0.80948 0.17841,-0.31052 0.45225,-0.53957 0.70365,-0.78727 0.2944,-0.30439 0.59822,-0.59875 0.9152,-0.87949 0.23785,-0.22578 0.46054,-0.46208 0.75018,-0.62035 0.27357,-0.14667 0.5532,-0.27909 0.83533,-0.40798 0.30032,-0.16874 0.61278,-0.30196 0.93541,-0.42045 0.32295,-0.1281 0.64604,-0.25738 0.98084,-0.3512 0.3687,-0.11674 0.74057,-0.2103 1.12378,-0.26303 0.32767,-0.0633 0.64834,-0.14894 0.97998,-0.19258 0.36488,-0.0412 0.73197,-0.0255 1.09532,-0.0795 0.41541,-0.0834 0.83756,-0.11469 1.2599,-0.13572 0.40279,-0.0168 0.806,-0.0178 1.20907,-0.0185 0.37912,-1.2e-4 0.75824,5.3e-4 1.13735,7.9e-4 0.38598,-0.0184 0.76341,0.0705 1.14318,0.12359 0.38641,0.034 0.76496,0.12167 1.14476,0.19728 0.35111,0.0675 0.68143,0.19959 1.01979,0.30902 0.31423,0.0663 0.61594,0.17432 0.92748,0.25137 0.37636,0.0991 0.72737,0.26769 1.08541,0.41592 1.22498,0.38483 2.14141,1.11448 3.30194,1.80317 0.24986,0.15109 0.49525,0.30416 0.72602,0.4876 0.27538,0.18453 0.55817,0.38344 0.77971,0.63238 0.2382,0.1687 0.39006,0.42442 0.61646,0.60592 0.21257,0.20366 0.40273,0.4382 0.63518,0.61976 0.21838,0.25922 0.41235,0.53115 0.64952,0.77333 0.23102,0.28543 0.48532,0.55267 0.6891,0.86067 0.12999,0.18631 0.31794,0.33357 0.43826,0.52634 0.18344,0.29394 -0.0346,0.0116 0.16493,0.25572 0.23664,0.26606 0.42235,0.57901 0.58312,0.89616 0.20964,0.25822 0.30155,0.58503 0.52623,0.83076 0.15319,0.25424 0.23907,0.53391 0.39092,0.79117 0.17002,0.33548 0.32965,0.67704 0.51055,1.00719 0.19351,0.36362 0.34018,0.75772 0.56985,1.10034 0.14842,0.3008 0.29793,0.60879 0.39994,0.92953 0.15846,0.32814 0.27171,0.67457 0.41577,1.00852 0.13866,0.386 0.34181,0.74293 0.47788,1.12997 0.20962,0.29746 0.24074,0.65728 0.34652,0.99267 0.0941,0.34853 0.13606,0.70058 0.24113,1.04543 0.0446,0.31913 0.14926,0.61674 0.22854,0.92698 0.0747,0.34575 0.0842,0.70056 0.0926,1.05281 -0.0226,0.37719 0.0746,0.74196 0.12652,1.11287 0.0135,0.38408 0.0901,0.75412 0.15919,1.13039 0.0663,0.38103 0.0815,0.76786 0.0911,1.15366 0.006,0.37925 0.005,0.75858 0.005,1.13787 -5.3e-4,0.37796 -0.001,0.75591 -0.001,1.13387 0.009,0.37561 0.10257,0.7443 0.14439,1.11854 0.046,0.38013 0.14355,0.75078 0.18935,1.1325 0.0859,0.38136 0.24038,0.738 0.32823,1.11919 0.0771,0.38255 0.0874,0.77354 0.0945,1.16237 -0.03,0.37992 0.0346,0.7442 0.0967,1.11626 0.0325,0.38457 0.14709,0.75228 0.21034,1.13209 0.0783,0.36695 0.018,0.75151 0.10262,1.11484 0.0432,0.15552 0.0702,0.31438 0.0959,0.47345 0,0 -2.52827,-1.23278 -2.52827,-1.23278 v 0 c -0.0309,-0.15937 -0.0659,-0.31791 -0.0929,-0.47801 -0.035,-0.36912 -0.0295,-0.74255 -0.10252,-1.10781 -0.0739,-0.37802 -0.1686,-0.75171 -0.20861,-1.13577 -0.0629,-0.38251 -0.0917,-0.76345 -0.0795,-1.1516 -0.0113,-0.37096 -0.0286,-0.74426 -0.12163,-1.10548 -0.10674,-0.38255 -0.2619,-0.7523 -0.31457,-1.14866 -0.0563,-0.37982 -0.15495,-0.75221 -0.18797,-1.13536 -0.0509,-0.38209 -0.14195,-0.76176 -0.12917,-1.14932 2.3e-4,-0.37799 5.3e-4,-0.75599 0.001,-1.13398 2.6e-4,-0.37666 0.002,-0.75341 -0.009,-1.12997 -0.0136,-0.37342 -0.0367,-0.74727 -0.10995,-1.11457 -0.0722,-0.37816 -0.11657,-0.75716 -0.15461,-1.1401 -0.0591,-0.3791 -0.12962,-0.7563 -0.11313,-1.14224 -0.0135,-0.33436 -0.0315,-0.67141 -0.12552,-0.99472 -0.0907,-0.3054 -0.14796,-0.61623 -0.22852,-0.92419 -0.0922,-0.34566 -0.12461,-0.70456 -0.23902,-1.04511 -0.0853,-0.33688 -0.19784,-0.65713 -0.35417,-0.96862 -0.15617,-0.37661 -0.34065,-0.74131 -0.48118,-1.12461 -0.13217,-0.34307 -0.28276,-0.67799 -0.41673,-1.02035 -0.12541,-0.29945 -0.24319,-0.60424 -0.41642,-0.88024 -0.19234,-0.3683 -0.37341,-0.74235 -0.56263,-1.11226 -0.17074,-0.33689 -0.34305,-0.673 -0.51774,-1.00786 -0.12635,-0.25752 -0.22474,-0.53118 -0.4082,-0.75564 -0.17048,-0.28618 -0.32815,-0.57926 -0.50518,-0.86157 -0.18128,-0.30328 -0.37885,-0.5939 -0.60317,-0.86725 -0.17708,-0.27626 -0.40736,-0.51179 -0.5974,-0.77923 -0.22586,-0.28414 -0.4616,-0.55963 -0.70306,-0.83057 -0.21957,-0.25235 -0.41194,-0.53098 -0.66473,-0.75286 -0.20417,-0.21404 -0.42422,-0.41242 -0.63109,-0.62396 -0.19463,-0.21431 -0.40057,-0.41545 -0.61656,-0.60818 -0.25712,-0.20771 -0.51312,-0.41599 -0.79045,-0.59709 -0.24314,-0.16489 -0.49632,-0.3138 -0.72792,-0.49465 0.76354,0.44013 1.52726,0.87994 2.29062,1.32038 0.0431,0.0249 -0.0881,-0.0466 -0.12981,-0.0737 -0.19479,-0.12645 -0.40332,-0.23303 -0.636,-0.27611 -0.3665,-0.1219 -0.70177,-0.31639 -1.07201,-0.42655 -0.15517,-0.0575 -0.30829,-0.0772 -0.46606,-0.12433 -0.0971,-0.029 -0.18604,-0.0823 -0.2838,-0.10891 -0.0557,-0.0152 -0.11422,-0.0171 -0.17133,-0.0256 -0.35231,-0.0766 -0.66589,-0.2463 -1.0204,-0.31454 -0.36176,-0.11284 -0.75079,-0.16372 -1.12287,-0.22523 -0.37679,-0.0397 -0.74623,-0.13521 -1.12284,-0.15087 -0.37921,-2.3e-4 -0.75841,-5.3e-4 -1.13762,-10e-4 -0.40173,-5.3e-4 -0.80352,-0.002 -1.20518,0.007 -0.41353,0.0128 -0.82895,0.0283 -1.23604,0.10844 -0.36701,0.0703 -0.72915,0.0914 -1.10329,0.095 -0.33411,0.0277 -0.6618,0.0835 -0.98092,0.18981 -0.37633,0.0336 -0.74838,0.0953 -1.10213,0.23417 -0.3315,0.0699 -0.63995,0.19857 -0.95562,0.31789 -0.30598,0.13807 -0.63959,0.21109 -0.923,0.40274 -0.27368,0.14968 -0.57568,0.2455 -0.83937,0.41734 -0.29384,0.10494 -0.4892,0.34334 -0.71343,0.55142 -0.3212,0.26531 -0.61622,0.55927 -0.90213,0.8622 -0.24006,0.24323 -0.51549,0.45382 -0.68429,0.75806 -0.19591,0.25381 -0.4037,0.49802 -0.57757,0.76787 -0.17404,0.32263 -0.40162,0.61389 -0.55186,0.95036 -0.17299,0.36219 -0.38819,0.70379 -0.52091,1.08528 -0.1506,0.35887 -0.29282,0.7244 -0.3946,1.10026 -0.15888,0.48397 -0.34843,0.95745 -0.50729,1.44157 -0.1475,0.52531 -0.30438,1.04707 -0.49303,1.55934 -0.15557,0.48707 -0.33786,0.9658 -0.47409,1.45889 -0.13843,0.49816 -0.2454,1.00434 -0.39517,1.49929 -0.10648,0.40762 -0.2443,0.80568 -0.3787,1.20481 -0.12228,0.41836 -0.2609,0.8317 -0.37704,1.25199 -0.10595,0.41145 -0.24331,0.81339 -0.36383,1.22073 -0.10976,0.43664 -0.22031,0.87348 -0.34639,1.30554 -0.13357,0.41242 -0.18863,0.84138 -0.30338,1.25883 -0.13494,0.47314 -0.26754,0.94848 -0.36634,1.43037 -0.0863,0.46204 -0.13801,0.93065 -0.25292,1.38758 -0.0644,0.40101 -0.16369,0.79455 -0.22443,1.19621 -0.0873,0.40147 -0.16234,0.80368 -0.2347,1.20807 -0.1008,0.46971 -0.14912,0.95126 -0.30273,1.40835 -0.1112,0.34056 -0.23661,0.67521 -0.35871,1.01189 -0.11894,0.35631 -0.17619,0.7291 -0.24907,1.09665 -0.0954,0.39654 -0.1881,0.79228 -0.24894,1.19612 -0.0617,0.42107 -0.0804,0.84902 -0.20803,1.25879 -0.092,0.42732 -0.16258,0.85927 -0.27204,1.28309 -0.0998,0.62159 -0.22469,1.24007 -0.25217,1.87084 0,0 -2.48699,-1.30205 -2.48699,-1.30205 z"
       inkscape:connector-curvature="0"
       style="stroke-width:0.26458332" />
    <path
       id="path286"
       d="m 154.14207,64.440421 c -0.0142,0.623723 -0.008,1.247706 -0.004,1.871522 0.003,0.432385 0.004,0.864778 0.005,1.29717 5.3e-4,0.377577 2.7e-4,0.755153 2.7e-4,1.132729 -3e-5,0.3771 -4e-5,0.754203 -5e-5,1.131303 -1e-5,0.377928 -1e-5,0.755854 -1e-5,1.133782 0.0148,0.372655 -0.0336,0.750445 0.03,1.118973 0.0797,0.375817 0.11924,0.757372 0.14201,1.140304 0.0331,0.375153 -0.0161,0.755944 0.0484,1.127249 0.0796,0.375949 0.11851,0.757687 0.14097,1.140722 0.0398,0.365797 -0.0277,0.743096 0.0504,1.103156 0.0996,0.319577 0.0894,0.658908 0.16992,0.980774 0.11133,0.362394 0.10311,0.746294 0.1885,1.112271 0.10749,0.379021 0.11318,0.775012 0.18671,1.159357 0.0896,0.426082 0.1353,0.858625 0.16077,1.29269 0.0304,0.401529 -0.01,0.806053 0.0451,1.204945 0.0846,0.490579 0.11475,0.987729 0.13868,1.484241 0.0359,0.474927 -0.0177,0.955389 0.05,1.427117 0.0656,0.41315 0.12108,0.825254 0.20346,1.235287 0.093,0.45771 0.21169,0.910113 0.34014,1.359503 0.13114,0.408323 0.12932,0.839578 0.20366,1.257398 0.0786,0.499406 0.22315,0.987118 0.35307,1.475425 0.0943,0.430115 0.1564,0.86129 0.3098,1.275527 0.12196,0.395555 0.27626,0.777489 0.36557,1.182592 0.16024,0.390999 0.28173,0.793052 0.36556,1.20767 0.10445,0.418163 0.24528,0.825079 0.35411,1.24175 0.15901,0.367551 0.20012,0.765813 0.3725,1.126845 0.16677,0.366329 0.24741,0.76187 0.35628,1.147484 0.16381,0.35772 0.27172,0.745326 0.45852,1.091126 0.14513,0.286205 0.17878,0.613545 0.38006,0.869426 0.15242,0.233271 0.24096,0.507721 0.40284,0.733201 0.15237,0.30672 0.34904,0.58706 0.51806,0.88432 0.20227,0.32449 0.46586,0.59172 0.71496,0.87687 0.26862,0.29589 0.55629,0.5684 0.82964,0.86099 0.25526,0.27677 0.58421,0.46507 0.86627,0.70774 0.24144,0.18505 0.4819,0.36326 0.74863,0.51135 0.17695,0.21084 0.44539,0.33317 0.64274,0.50136 0.29301,0.18138 0.56341,0.39177 0.86943,0.55357 -4.24469,-2.25091 -2.35976,-1.37736 -1.3877,-0.88345 0.28004,0.15993 0.57526,0.27268 0.87721,0.38281 0.32553,0.0992 0.64356,0.2212 0.95862,0.3497 0.33188,0.14583 0.69017,0.18502 1.04593,0.22677 0.32268,0.0804 0.64691,0.14157 0.97801,0.17288 0.3649,0.0252 0.7306,0.0438 1.09372,-0.006 0.32,-0.0426 0.62837,-0.14761 0.91973,-0.28421 0.26761,-0.10623 0.53611,-0.19591 0.7838,-0.34506 0.26511,-0.18695 0.50917,-0.40088 0.76373,-0.60134 0.26127,-0.20844 0.50608,-0.4352 0.75345,-0.65948 0.29116,-0.2485 0.58443,-0.49411 0.88098,-0.73612 0.37025,-0.25543 0.6197,-0.62666 0.90458,-0.96453 0.21223,-0.26266 0.43792,-0.51556 0.67756,-0.75362 0.21493,-0.16933 0.44323,-0.32011 0.65067,-0.49889 0.26105,-0.19667 0.48142,-0.43437 0.67844,-0.69403 0.20909,-0.273048 0.44516,-0.525164 0.63738,-0.810798 0.19621,-0.244689 0.34176,-0.522975 0.50999,-0.78682 0.18605,-0.305231 0.29244,-0.641551 0.41455,-0.974307 0.1428,-0.35151 0.1976,-0.723638 0.22619,-1.099092 -0.0109,-0.386668 0.0504,-0.760881 0.11407,-1.140275 0.0613,-0.369224 0.0764,-0.743442 0.0858,-1.116888 0.003,-0.34198 0.10583,-0.67246 0.14958,-1.011082 0.0379,-0.353925 0.0405,-0.7103 0.0436,-1.065845 0.002,-0.37706 7.9e-4,-0.754126 2.6e-4,-1.131189 -5.2e-4,-0.378261 -5.2e-4,-0.756525 -7.9e-4,-1.13479 0.009,-0.383386 -0.0263,-0.768799 0.0303,-1.148836 0.0756,-0.372314 0.1187,-0.748851 0.1418,-1.12767 0.018,-0.374928 0.0178,-0.750412 0.0182,-1.125678 -9e-5,-0.377833 -7.9e-4,-0.755669 -0.001,-1.133502 -2.7e-4,-0.37801 -2.7e-4,-0.756023 -2.7e-4,-1.134033 -1e-5,-0.377978 -1e-5,-0.755959 0,-1.13394 0,-0.377976 0,-0.755952 0,-1.133928 0,-0.377976 0,-0.755951 0,-1.133927 0,-0.377979 0,-0.755955 0,-1.13393 0,-0.377976 0,-0.755952 0,-1.133928 0,-0.377976 0,-0.755954 0,-1.13393 0.0622,-0.330253 0.1287,-0.657656 0.1604,-0.992634 0.0273,-0.361374 0.0281,-0.724041 0.0297,-1.086231 0.0647,-0.380506 0.12765,-0.760088 0.16024,-1.144882 0.0874,-0.323778 0.15619,-0.648636 0.18928,-0.982443 0.0365,-0.369726 0.12986,-0.730609 0.17391,-1.100558 0.0376,-0.371924 0.0406,-0.746088 0.0434,-1.119534 0.001,-0.377679 2.6e-4,-0.755367 -2.1e-4,-1.133049 -5.3e-4,-0.378031 -5.3e-4,-0.756065 -8e-4,-1.134097 -5e-5,-0.377986 -4e-5,-0.75597 -4e-5,-1.133953 1e-5,-0.377976 1e-5,-0.755952 1e-5,-1.133928 0,-0.377976 0,-0.755951 0,-1.133927 0,-0.377976 0,-0.755955 0,-1.13393 0,-0.377976 0,-0.755952 0,-1.133928 0,-0.0031 0,-0.374904 0,-0.377976 0,0 2.50314,1.275414 2.50314,1.275414 v 0 c 0,0.125992 0,0.251984 0,0.377976 0,0.377975 0,0.755951 0,1.133927 0,0.377976 0,0.755954 0,1.13393 0,0.377976 0,0.755952 0,1.133928 0,0.377975 -1e-5,0.755951 -1e-5,1.13393 0,0.377962 -1e-5,0.755925 8e-5,1.13389 1e-4,0.377939 2.6e-4,0.75588 7.9e-4,1.133822 5.3e-4,0.378642 0.002,0.757293 -0.001,1.135927 -0.005,0.383408 -0.012,0.767625 -0.0585,1.148715 -0.0501,0.367141 -0.14052,0.727626 -0.16959,1.097285 -0.04,0.330904 -0.11559,0.652529 -0.18916,0.977062 -0.0379,0.376425 -0.10959,0.747445 -0.14883,1.123378 -0.003,0.370745 -0.006,0.74213 -0.0404,1.111554 -0.0366,0.324597 -0.1087,0.642165 -0.14908,0.965746 0,0.377975 0,0.755954 0,1.13393 0,0.377975 0,0.755951 0,1.133927 0,0.377976 0,0.755952 0,1.13393 0,0.377976 0,0.755952 0,1.133927 0,0.377976 0,0.755955 -1e-5,1.133931 0,0.37797 -1e-5,0.755943 2e-5,1.133914 5e-5,0.377944 1.1e-4,0.755885 5.3e-4,1.133827 2.6e-4,0.378118 10e-4,0.756234 5.3e-4,1.134353 -0.001,0.380823 -0.003,0.761963 -0.0268,1.142177 -0.0292,0.382818 -0.082,0.762064 -0.14846,1.140174 -0.0317,0.371952 -0.007,0.746186 -0.0148,1.119148 1e-4,0.37818 2.6e-4,0.756359 7.9e-4,1.134539 5.3e-4,0.378134 0.002,0.756282 -0.002,1.134409 -0.005,0.366696 -0.0108,0.734388 -0.0577,1.098632 -0.0483,0.327567 -0.14275,0.649832 -0.13823,0.982948 -0.0136,0.385143 -0.0366,0.770514 -0.1038,1.150662 -0.0626,0.372449 -0.0961,0.743122 -0.10349,1.121035 -0.0399,0.397483 -0.11174,0.789696 -0.26275,1.161899 -0.12574,0.353391 -0.24334,0.707117 -0.43911,1.030372 -0.16716,0.26699 -0.31562,0.54692 -0.51471,0.79183 -0.19285,0.29232 -0.42889,0.54987 -0.64797,0.82209 -0.20159,0.27408 -0.42074,0.54203 -0.69808,0.74291 -0.19529,0.18992 -0.42171,0.3471 -0.64971,0.4946 -0.2443,0.22 -0.45737,0.47567 -0.67083,0.72492 -0.30269,0.34252 -0.54947,0.73837 -0.93066,1.00606 -0.29378,0.23971 -0.5823,0.48395 -0.86825,0.7331 -0.26084,0.21811 -0.50029,0.46118 -0.76896,0.67088 -0.26732,0.19881 -0.51035,0.42954 -0.7741,0.63307 -0.25622,0.15213 -0.50516,0.30056 -0.80026,0.36745 -0.30955,0.1466 -0.62709,0.29188 -0.96839,0.34557 -0.37643,0.0713 -0.74693,0.0924 -1.13063,0.0607 -0.33658,-0.0168 -0.67536,-0.0407 -0.99881,-0.14305 -0.34857,-0.10442 -0.731,-0.0526 -1.07581,-0.18999 -0.31861,-0.11704 -0.62658,-0.26513 -0.9514,-0.35852 -0.30562,-0.0974 -0.62823,-0.17392 -0.89217,-0.36315 -0.17488,-0.0669 -0.31485,-0.16053 -0.48007,-0.24351 -1.03715,-0.52089 -1.96829,-0.37824 -2.95716,-1.6264 -0.29368,-0.18753 -0.58102,-0.38464 -0.86696,-0.5835 -0.23084,-0.14177 -0.41298,-0.34748 -0.64917,-0.48254 -0.2487,-0.17417 -0.49861,-0.34386 -0.73334,-0.5379 -0.30651,-0.21985 -0.58412,-0.47358 -0.84654,-0.74437 -0.2762,-0.28985 -0.57005,-0.56226 -0.82949,-0.86793 -0.26351,-0.28337 -0.48601,-0.59905 -0.69181,-0.92639 -0.18344,-0.291721 -0.35392,-0.590612 -0.52493,-0.88974 -0.12114,-0.250965 -0.26688,-0.489011 -0.40275,-0.732179 -0.13172,-0.293716 -0.2195,-0.603437 -0.36372,-0.891825 -0.15172,-0.37474 -0.31659,-0.745009 -0.43804,-1.131091 -0.10902,-0.377516 -0.19544,-0.762376 -0.36892,-1.117928 -0.13657,-0.380471 -0.21873,-0.778225 -0.35787,-1.158436 -0.12061,-0.416153 -0.24468,-0.831152 -0.34445,-1.253064 -0.0986,-0.410057 -0.25367,-0.799886 -0.37246,-1.203955 -0.10631,-0.392853 -0.25477,-0.772509 -0.37369,-1.161661 -0.12528,-0.424072 -0.19132,-0.858504 -0.29672,-1.287439 -0.13351,-0.496779 -0.26715,-0.995558 -0.34517,-1.504592 -0.0564,-0.411499 -0.088,-0.827906 -0.21626,-1.226119 -0.12716,-0.455576 -0.23998,-0.916099 -0.33153,-1.38008 -0.0817,-0.416817 -0.13515,-0.837904 -0.19271,-1.25862 -0.0335,-0.478674 -0.009,-0.959512 -0.0394,-1.438678 -0.0262,-0.493424 -0.0747,-0.984252 -0.14905,-1.472898 -0.0298,-0.404651 -0.0157,-0.810614 -0.0427,-1.215596 -0.031,-0.425519 -0.0871,-0.847855 -0.17201,-1.266217 -0.0578,-0.38627 -0.0976,-0.775282 -0.19207,-1.155398 -0.0571,-0.37142 -0.0954,-0.745847 -0.19119,-1.110552 -0.0528,-0.332687 -0.0951,-0.666742 -0.16381,-0.996844 -0.0276,-0.37247 -0.009,-0.74685 -0.0391,-1.119489 -0.0293,-0.378502 -0.0848,-0.752853 -0.14758,-1.127135 -0.0296,-0.379495 -0.0125,-0.760823 -0.0419,-1.140606 -0.0297,-0.378648 -0.086,-0.753033 -0.14823,-1.127564 -0.0284,-0.382254 -0.0102,-0.765855 -0.0152,-1.148945 0,-0.377931 0,-0.755862 -1e-5,-1.13379 -10e-6,-0.377119 -3e-5,-0.754237 -5e-5,-1.131353 -1e-5,-0.377455 -6e-5,-0.754909 2.6e-4,-1.132364 5.3e-4,-0.430808 0.002,-0.861618 0.005,-1.292418 0.004,-0.625208 0.01,-1.25058 -0.004,-1.875695 0,0 2.5014,1.274527 2.5014,1.274527 z"
       inkscape:connector-curvature="0"
       style="stroke-width:0.26458332" />
    <text
       xml:space="preserve"
       style="font-style:normal;font-weight:normal;font-size:10.58333302px;line-height:1.25;font-family:sans-serif;letter-spacing:0px;word-spacing:0px;fill:#000000;fill-opacity:1;stroke:none;stroke-width:0.26458332"
       x="6.8035717"
       y="146.94345"
       id="text290"><tspan
         sodipodi:role="line"
         x="6.8035717"
         y="146.94345"
         style="stroke-width:0.26458332"
         id="tspan292">Constructed/</tspan><tspan
         sodipodi:role="line"
         x="6.8035717"
         y="160.17262"
         style="stroke-width:0.26458332"
         id="tspan296">Unatural</tspan></text>
    <text
       xml:space="preserve"
       style="font-style:normal;font-weight:normal;font-size:10.58333302px;line-height:1.25;font-family:sans-serif;letter-spacing:0px;word-spacing:0px;fill:#000000;fill-opacity:1;stroke:none;stroke-width:0.26458332"
       x="134.18155"
       y="152.99106"
       id="text300"><tspan
         sodipodi:role="line"
         id="tspan298"
         x="134.18155"
         y="152.99106"
         style="stroke-width:0.26458332">Natural</tspan></text>
  </g>
</svg>
