<?xml version="1.0" encoding="UTF-8" standalone="no"?>
<!-- Created with Inkscape (http://www.inkscape.org/) -->

<svg
   xmlns:dc="http://purl.org/dc/elements/1.1/"
   xmlns:cc="http://creativecommons.org/ns#"
   xmlns:rdf="http://www.w3.org/1999/02/22-rdf-syntax-ns#"
   xmlns:svg="http://www.w3.org/2000/svg"
   xmlns="http://www.w3.org/2000/svg"
   xmlns:sodipodi="http://sodipodi.sourceforge.net/DTD/sodipodi-0.dtd"
   xmlns:inkscape="http://www.inkscape.org/namespaces/inkscape"
   width="210mm"
   height="297mm"
   viewBox="0 0 210 297"
   version="1.1"
   id="svg20"
   inkscape:version="0.92.4 (5da689c313, 2019-01-14)"
   sodipodi:docname="Personality Meaning.svg">
  <defs
     id="defs14" />
  <sodipodi:namedview
     id="base"
     pagecolor="#ffffff"
     bordercolor="#666666"
     borderopacity="1.0"
     inkscape:pageopacity="0.0"
     inkscape:pageshadow="2"
     inkscape:zoom="0.98994949"
     inkscape:cx="364.35327"
     inkscape:cy="616.22977"
     inkscape:document-units="mm"
     inkscape:current-layer="layer1"
     showgrid="false"
     inkscape:window-width="1920"
     inkscape:window-height="1001"
     inkscape:window-x="-9"
     inkscape:window-y="-9"
     inkscape:window-maximized="1" />
  <metadata
     id="metadata17">
    <rdf:RDF>
      <cc:Work
         rdf:about="">
        <dc:format>image/svg+xml</dc:format>
        <dc:type
           rdf:resource="http://purl.org/dc/dcmitype/StillImage" />
        <dc:title></dc:title>
      </cc:Work>
    </rdf:RDF>
  </metadata>
  <g
     inkscape:label="Layer 1"
     inkscape:groupmode="layer"
     id="layer1">
    <text
       xml:space="preserve"
       style="font-style:normal;font-weight:normal;font-size:10.58333302px;line-height:1.25;font-family:sans-serif;letter-spacing:0px;word-spacing:0px;fill:#000000;fill-opacity:1;stroke:none;stroke-width:0.26458332"
       x="10.583333"
       y="13.517858"
       id="text24"><tspan
         sodipodi:role="line"
         id="tspan22"
         x="10.583333"
         y="13.517858"
         style="stroke-width:0.26458332">Personality/meaning</tspan><tspan
         sodipodi:role="line"
         x="10.583333"
         y="26.747025"
         style="stroke-width:0.26458332"
         id="tspan26">Base Word:disposition</tspan><tspan
         sodipodi:role="line"
         x="10.583333"
         y="39.976189"
         style="stroke-width:0.26458332"
         id="tspan28">Flexible Base</tspan></text>
    <g
       id="g51"
       transform="matrix(3.4368207,0,0,3.4368207,-148.35824,-289.10237)">
      <path
         style="stroke-width:0.26458332"
         inkscape:connector-curvature="0"
         d="m 55.829964,117.20264 c 0.08401,0.37968 0.235611,0.73364 0.419735,1.07378 0.137644,0.1994 0.280104,0.39479 0.419163,0.59291 0.121407,0.19418 0.262234,0.373 0.40027,0.55504 0.1314,0.18498 0.22982,0.38674 0.330406,0.58954 0.162846,0.24268 0.309325,0.49574 0.472925,0.73783 0.145536,0.25108 0.319124,0.48561 0.454773,0.74209 0.09359,0.17998 0.225732,0.33033 0.350735,0.48758 0.101033,0.15855 0.203938,0.31954 0.336095,0.4542 0.14044,0.17168 0.267562,0.35305 0.396248,0.5337 0.115247,0.197 0.26194,0.37172 0.399904,0.55279 0.137208,0.17899 0.240244,0.38057 0.378587,0.55837 0.146629,0.21829 0.307554,0.42582 0.46182,0.63842 0.150878,0.19496 0.273576,0.40808 0.408588,0.61331 0.131852,0.20831 0.254603,0.42601 0.413438,0.61512 0.154818,0.19252 0.285818,0.39921 0.400695,0.61742 0.09987,0.20276 0.20792,0.40134 0.316098,0.59994 0.09193,0.18981 0.188505,0.3816 0.307327,0.55628 0.116146,0.18221 0.202681,0.38375 0.345511,0.54764 0.138118,0.1838 0.243888,0.38829 0.366316,0.58339 0.137345,0.20152 0.255876,0.41457 0.387778,0.61921 0.13017,0.21373 0.257297,0.42886 0.355555,0.65934 0.08602,0.22118 0.256165,0.27245 0.472631,0.30119 0.253817,0.0214 0.508966,0.0162 0.763418,0.0146 0.268176,-0.002 0.536358,-0.003 0.804542,-0.004 0.251262,-0.0268 0.488252,0.0541 0.733108,0.0933 0.245425,0.0332 0.493493,0.0363 0.740722,0.0396 0.265967,0.002 0.531945,0.001 0.797917,7.9e-4 0.267499,-2.6e-4 0.535001,-5.3e-4 0.8025,-5.3e-4 0.267303,-6e-5 0.534609,-5e-5 0.801912,-5e-5 0.267269,0 0.534535,0 0.801804,1e-5 0.267269,0 0.534538,0 0.801807,0 0.267269,0 0.53454,0 0.801809,0 0.267269,0 0.534538,0 0.801809,0 0.267269,0 0.534538,0 0.801809,0 0.267269,0 0.534538,0 0.801807,0 0.267271,0 0.53454,0 0.801809,0 0.267269,0 0.534541,0 0.801809,0 0.267269,0 0.534538,0 0.80181,0 0.267268,0 0.534537,0 0.801806,0 0.267272,0 0.53454,0 0.801809,0 0.267269,0 0.534541,0 0.801809,0 0.267269,0 0.534538,0 0.80181,0 0.267269,0 0.534537,0 0.801806,0 0.267272,0 0.534541,0 0.801809,0 0.267269,0 0.534541,0 0.80181,0 0.222723,0 0.445449,0 0.668173,0 0,0 -1.607113,1.16763 -1.607113,1.16763 v 0 c -0.222727,0 -0.44545,0 -0.668177,0 -0.267268,0 -0.534537,0 -0.801806,0 -0.267272,0 -0.53454,0 -0.801809,0 -0.267269,0 -0.534541,0 -0.801809,0 -0.267269,0 -0.534538,0 -0.80181,0 -0.267269,0 -0.534537,0 -0.801806,0 -0.267272,0 -0.534541,0 -0.801809,0 -0.267269,0 -0.534541,0 -0.80181,0 -0.267268,0 -0.534537,0 -0.801809,0 -0.267269,0 -0.534538,0 -0.801806,0 -0.267272,0 -0.534541,0 -0.80181,0 -0.267268,0 -0.53454,0 -0.801809,0 -0.267269,0 -0.53454,0 -0.801809,0 -0.267269,0 -0.534538,0 -0.801809,0 -0.267269,0 -0.534538,0 -0.801807,0 -0.267269,0 -0.53454,0 -0.801809,0 -0.267266,0 -0.534535,0 -0.801801,0 -0.267288,0 -0.534578,0 -0.801865,1e-4 -0.26747,1.3e-4 -0.534937,2.7e-4 -0.802407,8e-4 -0.266901,2.2e-4 -0.533834,0.001 -0.800701,-0.004 -0.254267,-0.007 -0.509391,-0.0169 -0.760145,-0.0632 -0.235966,-0.0449 -0.468553,-0.0877 -0.71066,-0.0662 -0.268198,0.001 -0.536385,0.003 -0.80458,0.004 -0.263472,-1.9e-4 -0.529672,0.004 -0.789331,-0.0472 -0.261533,-0.0726 -0.466151,-0.2041 -0.572934,-0.4652 -0.09101,-0.22175 -0.218379,-0.4239 -0.341527,-0.62889 -0.128934,-0.20669 -0.248457,-0.41907 -0.387122,-0.61992 -0.118991,-0.18722 -0.220216,-0.38393 -0.353396,-0.56049 -0.140888,-0.1748 -0.242237,-0.37351 -0.356386,-0.56576 -0.119584,-0.18162 -0.226095,-0.3745 -0.317408,-0.57164 -0.107701,-0.19951 -0.214709,-0.39917 -0.315338,-0.60217 -0.110487,-0.20538 -0.23133,-0.40355 -0.378881,-0.58512 -0.158556,-0.1989 -0.293968,-0.41631 -0.427934,-0.63226 -0.129892,-0.20432 -0.252275,-0.41331 -0.400926,-0.60545 -0.15291,-0.2113 -0.310954,-0.41859 -0.460565,-0.63233 -0.136922,-0.17912 -0.240813,-0.37977 -0.378632,-0.55871 -0.140618,-0.18153 -0.284374,-0.3612 -0.402606,-0.55854 -0.125405,-0.17288 -0.24674,-0.34899 -0.386371,-0.51075 -0.128252,-0.14469 -0.24085,-0.30231 -0.343099,-0.4663 -0.135233,-0.16586 -0.267025,-0.33292 -0.36712,-0.52338 -0.12891,-0.25132 -0.297949,-0.48034 -0.439806,-0.72446 -0.168579,-0.24845 -0.320251,-0.50775 -0.486846,-0.7576 -0.100322,-0.18933 -0.192043,-0.38171 -0.316659,-0.55677 -0.140515,-0.18341 -0.276167,-0.36924 -0.40331,-0.56222 -0.143822,-0.20463 -0.290846,-0.40681 -0.426614,-0.61711 -0.186687,-0.35838 -0.336343,-0.73048 -0.446648,-1.11998 0,0 1.748213,-0.93946 1.748213,-0.93946 z"
         id="path32" />
      <path
         style="stroke-width:0.15120143"
         inkscape:connector-curvature="0"
         d="m 82.066635,131.054 c 0.253939,-0.0847 0.493059,-0.1941 0.738596,-0.29282 0.135301,-0.0549 0.259942,-0.12421 0.38859,-0.18833 0.106062,-0.0509 0.214621,-0.0965 0.315484,-0.15438 0.117721,-0.057 0.231137,-0.11915 0.354432,-0.16804 0.125529,-0.0459 0.234079,-0.11424 0.359582,-0.15973 0.111469,-0.0393 0.22276,-0.0722 0.317355,-0.13493 0.117319,-0.0796 0.22538,-0.16904 0.327823,-0.26122 0.09593,-0.0851 0.195321,-0.16767 0.291298,-0.25276 0.08451,-0.071 0.172534,-0.13929 0.256443,-0.21079 0.08443,-0.0688 0.171135,-0.13581 0.253747,-0.20605 0.09796,-0.0841 0.232144,-0.12789 0.346906,-0.19384 0.147624,-0.0826 0.291014,-0.17026 0.429831,-0.2624 0.103097,-0.0819 0.190977,-0.1748 0.289028,-0.26038 0.09837,-0.0938 0.21799,-0.17095 0.329923,-0.25366 0.154,-0.11197 0.298349,-0.23185 0.433126,-0.35904 0.114709,-0.0911 0.200842,-0.19201 0.280607,-0.30347 0.06371,-0.0897 0.130365,-0.17778 0.194587,-0.26741 0.08627,-0.0949 0.17135,-0.19062 0.261741,-0.28294 0.115799,-0.0833 0.21255,-0.18095 0.319977,-0.27078 0.119353,-0.0779 0.21635,-0.17404 0.325044,-0.26119 0.09543,-0.10047 0.226466,-0.17105 0.329016,-0.2658 0.09574,-0.0792 0.176786,-0.16674 0.255711,-0.2567 0.09058,-0.069 0.159828,-0.15277 0.240563,-0.2288 0.08949,-0.0834 0.175186,-0.1699 0.27197,-0.2479 0.128947,-0.1079 0.250751,-0.22115 0.386238,-0.32374 0.119589,-0.10033 0.249077,-0.19227 0.371532,-0.29016 0.100113,-0.086 0.209305,-0.16428 0.308211,-0.25121 0.114046,-0.0919 0.224603,-0.18627 0.33806,-0.27865 0.106571,-0.0789 0.206368,-0.16351 0.315866,-0.23981 0.08991,-0.0562 0.167076,-0.12314 0.246848,-0.18817 0,0 1.07324,0.53517 1.07324,0.53517 v 0 c -0.08313,0.0653 -0.158386,0.13683 -0.24969,0.19521 -0.107435,0.0745 -0.205953,0.15581 -0.311745,0.23172 -0.110859,0.0923 -0.221426,0.18483 -0.334138,0.27552 -0.09845,0.0899 -0.209846,0.16809 -0.311437,0.25539 -0.122,0.10094 -0.25939,0.18888 -0.37796,0.29295 -0.138251,0.0987 -0.254579,0.21486 -0.381961,0.32253 -0.09796,0.0733 -0.175846,0.16232 -0.264686,0.2424 -0.08177,0.0707 -0.140381,0.15802 -0.234314,0.21952 -0.08286,0.091 -0.161096,0.18374 -0.262305,0.26281 -0.102371,0.10026 -0.235853,0.17046 -0.335025,0.27276 -0.107461,0.0874 -0.203023,0.1847 -0.32371,0.26006 -0.105446,0.0873 -0.195516,0.18613 -0.313988,0.26271 -0.08851,0.0867 -0.163831,0.18184 -0.249846,0.27024 -0.06427,0.0898 -0.131321,0.17789 -0.195832,0.26738 -0.08512,0.11617 -0.172878,0.22393 -0.294639,0.31804 -0.137742,0.13 -0.286672,0.25176 -0.441043,0.3688 -0.108418,0.0826 -0.224931,0.15974 -0.322613,0.2507 -0.10584,0.0845 -0.192975,0.18348 -0.299291,0.268 -0.137741,0.095 -0.28295,0.1839 -0.431431,0.26757 -0.105749,0.0682 -0.227754,0.1113 -0.3329,0.179 -0.07959,0.0725 -0.16878,0.13783 -0.253697,0.20599 -0.0806,0.0734 -0.171024,0.13948 -0.256056,0.20942 -0.09361,0.0866 -0.197246,0.166 -0.293062,0.25111 -0.104298,0.0977 -0.21889,0.18903 -0.335828,0.27654 -0.03442,0.023 -0.06495,0.0499 -0.100988,0.0712 -0.07236,0.0428 -0.167025,0.0473 -0.23938,0.091 -0.132047,0.0329 -0.234724,0.10442 -0.35679,0.1549 -0.122612,0.0387 -0.224905,0.10313 -0.339926,0.15288 -0.103348,0.056 -0.202158,0.11548 -0.317081,0.1557 -0.128182,0.0733 -0.268742,0.1331 -0.40399,0.19781 -0.248886,0.0903 -0.484472,0.20336 -0.734517,0.29213 0,0 -1.051506,-0.56207 -1.051506,-0.56207 z"
         id="path38" />
      <path
         style="stroke-width:0.26458332"
         inkscape:connector-curvature="0"
         d="m 83.118141,131.61606 c -0.443108,0.0428 -0.886597,0.0806 -1.331071,0.10582 -0.304786,0.0165 -0.610023,0.0201 -0.91518,0.0217 -0.266933,8e-4 -0.533863,1.2e-4 -0.800796,-1.6e-4 -0.26665,-2.6e-4 -0.533302,-2.6e-4 -0.799952,-2.6e-4 -0.178144,-2e-5 -0.356288,-2e-5 -0.534432,-2e-5 0,0 -1.607116,-1.16764 -1.607116,-1.16764 v 0 c 0.178144,0 0.356288,-1e-5 0.534432,0 0.266663,1e-5 0.533323,2e-5 0.799986,1.9e-4 0.266957,2.2e-4 0.533911,5.3e-4 0.800867,0.001 0.305332,1.4e-4 0.610735,2.2e-4 0.915935,-0.0101 0.440537,-0.0172 0.880967,-0.0446 1.318612,-0.0994 0,0 1.618715,1.14891 1.618715,1.14891 z"
         id="path40" />
      <path
         style="stroke-width:0.26458332"
         inkscape:connector-curvature="0"
         d="m 64.378784,128.14429 c 0.363008,-0.1586 0.716139,-0.34324 1.041251,-0.57021 0.196459,-0.13556 0.374714,-0.29433 0.547749,-0.45798 0.139493,-0.1557 0.28679,-0.29878 0.45325,-0.42492 0.152754,-0.10745 0.29805,-0.22554 0.433048,-0.35457 0.13362,-0.14567 0.295368,-0.2563 0.447202,-0.38076 0.177279,-0.12919 0.329591,-0.28841 0.508166,-0.41536 0.175723,-0.13646 0.369732,-0.24101 0.567434,-0.34083 0.187116,-0.0908 0.373261,-0.17805 0.546076,-0.29453 0.169167,-0.12286 0.317066,-0.26958 0.472805,-0.40818 0.219054,-0.19733 0.437563,-0.39499 0.66262,-0.58547 0.18855,-0.1285 0.370798,-0.26534 0.555043,-0.39978 0.177826,-0.11566 0.350186,-0.23998 0.508219,-0.38168 0.165283,-0.15313 0.372052,-0.24875 0.563431,-0.36423 0.199681,-0.11142 0.388268,-0.23811 0.569515,-0.37708 0.140592,-0.13773 0.310965,-0.237 0.466918,-0.35523 0.160729,-0.12269 0.310756,-0.25784 0.457833,-0.3963 0.117012,-0.0944 0.235606,-0.18463 0.364387,-0.26221 0,0 1.665832,1.08918 1.665832,1.08918 v 0 c -0.125251,0.0577 -0.225192,0.1421 -0.338124,0.2197 -0.152808,0.13701 -0.294923,0.28685 -0.462055,0.40688 -0.15072,0.13173 -0.335092,0.21544 -0.473126,0.36234 -0.190515,0.13771 -0.373954,0.28313 -0.582019,0.39507 -0.182182,0.10366 -0.368795,0.20385 -0.537978,0.32696 -0.156122,0.15397 -0.336423,0.28483 -0.521843,0.40093 -0.180239,0.13617 -0.35923,0.27345 -0.553093,0.38974 -0.228951,0.18138 -0.441983,0.38096 -0.656084,0.5796 -0.162147,0.14547 -0.316191,0.29751 -0.48577,0.43423 -0.179559,0.11611 -0.353907,0.23409 -0.556969,0.30759 -0.186878,0.10863 -0.394854,0.18163 -0.558562,0.32964 -0.184994,0.10358 -0.317039,0.27488 -0.493546,0.39158 -0.143208,0.12872 -0.306953,0.2255 -0.437631,0.36827 -0.133678,0.14057 -0.286785,0.2653 -0.446196,0.37497 -0.157628,0.12857 -0.320352,0.24637 -0.446823,0.41048 -0.183052,0.16501 -0.357016,0.34215 -0.565994,0.47597 -0.327313,0.2388 -0.693433,0.41995 -1.056513,0.59739 0,0 -1.658453,-1.0912 -1.658453,-1.0912 z"
         id="path42" />
      <ellipse
         style="stroke-width:0.26458332"
         ry="2.0713389"
         rx="2.2049735"
         cy="119.06531"
         cx="78.777695"
         id="path44" />
    </g>
  </g>
</svg>
