<?xml version="1.0" encoding="UTF-8" standalone="no"?>
<!-- Created with Inkscape (http://www.inkscape.org/) -->

<svg
   xmlns:dc="http://purl.org/dc/elements/1.1/"
   xmlns:cc="http://creativecommons.org/ns#"
   xmlns:rdf="http://www.w3.org/1999/02/22-rdf-syntax-ns#"
   xmlns:svg="http://www.w3.org/2000/svg"
   xmlns="http://www.w3.org/2000/svg"
   xmlns:sodipodi="http://sodipodi.sourceforge.net/DTD/sodipodi-0.dtd"
   xmlns:inkscape="http://www.inkscape.org/namespaces/inkscape"
   width="210mm"
   height="297mm"
   viewBox="0 0 210 297"
   version="1.1"
   id="svg150"
   inkscape:version="0.92.4 (5da689c313, 2019-01-14)"
   sodipodi:docname="Request Ask for item.svg">
  <defs
     id="defs144" />
  <sodipodi:namedview
     id="base"
     pagecolor="#ffffff"
     bordercolor="#666666"
     borderopacity="1.0"
     inkscape:pageopacity="0.0"
     inkscape:pageshadow="2"
     inkscape:zoom="0.98994949"
     inkscape:cx="233.89193"
     inkscape:cy="734.10766"
     inkscape:document-units="mm"
     inkscape:current-layer="layer1"
     showgrid="false"
     inkscape:window-width="1920"
     inkscape:window-height="1001"
     inkscape:window-x="-9"
     inkscape:window-y="-9"
     inkscape:window-maximized="1" />
  <metadata
     id="metadata147">
    <rdf:RDF>
      <cc:Work
         rdf:about="">
        <dc:format>image/svg+xml</dc:format>
        <dc:type
           rdf:resource="http://purl.org/dc/dcmitype/StillImage" />
        <dc:title></dc:title>
      </cc:Work>
    </rdf:RDF>
  </metadata>
  <g
     inkscape:label="Layer 1"
     inkscape:groupmode="layer"
     id="layer1">
    <text
       xml:space="preserve"
       style="font-style:normal;font-weight:normal;font-size:10.58333302px;line-height:1.25;font-family:sans-serif;letter-spacing:0px;word-spacing:0px;fill:#000000;fill-opacity:1;stroke:none;stroke-width:0.26458332"
       x="11.759859"
       y="18.772421"
       id="text154"><tspan
         sodipodi:role="line"
         id="tspan152"
         x="11.759859"
         y="28.427916"
         style="stroke-width:0.26458332" /></text>
    <path
       id="path168"
       d="m 49.087029,122.0044 c 1.080783,-0.99836 2.309386,-1.80522 3.484216,-2.68268 1.042577,-0.82135 2.095317,-1.63286 3.172258,-2.40907 0.965536,-0.70538 1.885207,-1.47118 2.837223,-2.19524 1.027012,-0.77132 1.987984,-1.62439 2.924572,-2.5018 0.742738,-0.73214 1.490863,-1.45581 2.298991,-2.11591 0.704045,-0.62501 1.380609,-1.26937 2.137076,-1.83146 0.723191,-0.52775 1.43923,-1.06327 2.147186,-1.61127 0.751504,-0.56514 1.490668,-1.14661 2.239148,-1.71564 0.554474,-0.43525 1.139648,-0.83449 1.680001,-1.28707 0.559491,-0.38565 1.01822,-0.86641 1.485413,-1.35334 0.411501,-0.45171 0.841182,-0.88632 1.21987,-1.36676 0.413784,-0.50396 0.888843,-0.952964 1.353372,-1.409153 0.463209,-0.395923 0.863918,-0.848472 1.283745,-1.287476 0.40921,-0.436534 0.866582,-0.821947 1.294104,-1.239364 0.288957,-0.244279 0.568084,-0.494477 0.830919,-0.766725 0,0 3.39063,2.065898 3.39063,2.065898 v 0 c -0.261745,0.279625 -0.531871,0.546021 -0.838587,0.777171 -0.421253,0.419367 -0.882377,0.794009 -1.285089,1.232889 -0.426294,0.43933 -0.829836,0.89456 -1.298892,1.2903 -0.451006,0.44613 -0.90963,0.88653 -1.324817,1.36684 -0.384392,0.49447 -0.81371,0.94919 -1.242279,1.40446 -0.483862,0.4842 -0.923626,1.00486 -1.502405,1.38403 -0.538697,0.47002 -1.145902,0.85909 -1.706097,1.30335 -0.760388,0.54921 -1.488456,1.14447 -2.242179,1.70299 -0.707673,0.5528 -1.419096,1.09728 -2.146139,1.62426 -0.758232,0.5528 -1.450012,1.17181 -2.137958,1.80972 -0.808963,0.64721 -1.547516,1.36843 -2.292098,2.08758 -0.950323,0.8816 -1.923913,1.73861 -2.951202,2.53035 -0.951447,0.73122 -1.873174,1.50178 -2.844303,2.20571 -1.082199,0.76686 -2.131041,1.5828 -3.17813,2.3959 -1.163315,0.86669 -2.408891,1.6328 -3.423205,2.68474 0,0 -3.365344,-2.09323 -3.365344,-2.09323 z"
       inkscape:connector-curvature="0"
       style="stroke-width:0.26458332" />
    <path
       id="path170"
       d="m 67.040233,95.020444 c 0.945369,-0.597996 1.927391,-1.135002 2.880114,-1.720549 0.608457,-0.425548 1.246864,-0.804791 1.868439,-1.209923 0.52577,-0.395518 1.048912,-0.790858 1.601888,-1.14816 0.569201,-0.29587 1.079942,-0.676574 1.59438,-1.055499 0.583559,-0.364517 1.193233,-0.67227 1.772552,-1.045081 0.626724,-0.376713 1.165624,-0.871082 1.727216,-1.333733 0.626872,-0.494583 1.223912,-1.024315 1.8069,-1.569415 0.562248,-0.561375 1.207648,-1.034614 1.882902,-1.450195 0.572609,-0.356444 1.139349,-0.717677 1.636768,-1.1748 0.514289,-0.455742 1.039357,-0.904851 1.601981,-1.30025 0.432612,-0.347448 0.928706,-0.601758 1.373454,-0.930127 0.491205,-0.479988 1.021223,-0.911547 1.553912,-1.343469 0.518747,-0.478483 1.047683,-0.94492 1.609492,-1.372568 0.466955,-0.315299 0.967954,-0.577887 1.399455,-0.941832 0.535265,-0.454563 1.03709,-0.946481 1.569447,-1.403985 0.5474,-0.404882 1.05921,-0.853059 1.622293,-1.236618 0.531879,-0.29864 0.9734,-0.71161 1.4263,-1.112837 0.460089,-0.341831 0.861155,-0.752055 1.264478,-1.156947 0.532159,-0.451966 1.02965,-0.94095 1.523423,-1.4342 0.527961,-0.541888 1.078283,-1.061291 1.562433,-1.643959 0.44931,-0.518391 0.93329,-1.007939 1.44851,-1.460686 0.53327,-0.350215 0.9483,-0.838628 1.46334,-1.2096 0.0904,-0.05655 0.18088,-0.113097 0.27132,-0.169643 0,0 3.33308,2.150993 3.33308,2.150993 v 0 c -0.087,0.05281 -0.17408,0.105609 -0.26112,0.158414 -0.53068,0.324356 -0.90305,0.847148 -1.44542,1.161325 -0.50323,0.435047 -0.96463,0.917036 -1.41479,1.406369 -0.49018,0.59232 -1.04208,1.125614 -1.58077,1.672273 -0.48477,0.500575 -0.97984,0.994505 -1.5174,1.438552 -0.40472,0.413761 -0.79904,0.84799 -1.275178,1.181497 -0.466024,0.413023 -0.913998,0.849395 -1.458423,1.161587 -0.567495,0.352976 -1.056162,0.807289 -1.604817,1.186971 -0.531519,0.452147 -1.021953,0.950352 -1.555605,1.400601 -0.420002,0.400098 -0.92089,0.685816 -1.421995,0.973569 -0.569098,0.405165 -1.09034,0.873152 -1.598393,1.351502 -0.521965,0.44685 -1.087892,0.842497 -1.554493,1.353656 -0.43167,0.366536 -0.949322,0.602491 -1.39219,0.956993 -0.564425,0.35814 -1.058794,0.815692 -1.571911,1.241896 -0.509622,0.490442 -1.082071,0.881335 -1.686774,1.247762 -0.666991,0.373144 -1.290095,0.841861 -1.836745,1.375915 -0.587875,0.551802 -1.188869,1.089506 -1.820773,1.590889 -0.573577,0.470742 -1.112845,0.987698 -1.749533,1.376463 -0.577599,0.363548 -1.148276,0.71791 -1.75617,1.02819 -0.525806,0.371226 -1.014312,0.800002 -1.603914,1.073718 -0.552149,0.35627 -1.092089,0.725422 -1.600864,1.142797 -0.620737,0.419473 -1.282079,0.775372 -1.892893,1.210781 -0.947028,0.581421 -1.944243,1.08092 -2.856915,1.718003 0,0 -3.336991,-2.13664 -3.336991,-2.13664 z"
       inkscape:connector-curvature="0"
       style="stroke-width:0.26458332" />
    <path
       id="path172"
       sodipodi:type="arc"
       sodipodi:cx="96.484299"
       sodipodi:cy="89.331581"
       sodipodi:rx="1.6036172"
       sodipodi:ry="1.8708867"
       sodipodi:start="0"
       sodipodi:end="6.2356949"
       d="m 98.087916,89.331581 a 1.6036172,1.8708867 0 0 1 -1.584579,1.870755 1.6036172,1.8708867 0 0 1 -1.622203,-1.826334 1.6036172,1.8708867 0 0 1 1.546059,-1.914121 1.6036172,1.8708867 0 0 1 1.658915,1.780884 l -1.601809,0.08882 z"
       style="stroke-width:0.26458332" />
    <path
       id="path174"
       sodipodi:type="arc"
       sodipodi:cx="74.701836"
       sodipodi:cy="117.52851"
       sodipodi:rx="2.271791"
       sodipodi:ry="2.271791"
       sodipodi:start="0"
       sodipodi:end="6.2356949"
       d="m 76.973627,117.52851 a 2.271791,2.271791 0 0 1 -2.24482,2.27163 2.271791,2.271791 0 0 1 -2.298122,-2.21769 2.271791,2.271791 0 0 1 2.190252,-2.32429 2.271791,2.271791 0 0 1 2.350128,2.1625 l -2.269229,0.10785 z"
       style="stroke-width:0.26458332" />
    <text
       xml:space="preserve"
       style="font-style:normal;font-weight:normal;font-size:10.58333302px;line-height:1.25;font-family:sans-serif;letter-spacing:0px;word-spacing:0px;fill:#000000;fill-opacity:1;stroke:none;stroke-width:0.26458332"
       x="16.30344"
       y="12.357953"
       id="text178"><tspan
         sodipodi:role="line"
         id="tspan176"
         x="16.30344"
         y="12.357953"
         style="stroke-width:0.26458332">To ask/request item (phisical)</tspan><tspan
         sodipodi:role="line"
         x="16.30344"
         y="25.58712"
         style="stroke-width:0.26458332"
         id="tspan180">Modifier</tspan><tspan
         sodipodi:role="line"
         x="16.30344"
         y="38.816284"
         style="stroke-width:0.26458332"
         id="tspan182" /></text>
  </g>
</svg>
