<?xml version="1.0" encoding="UTF-8" standalone="no"?>
<!-- Created with Inkscape (http://www.inkscape.org/) -->

<svg
   xmlns:dc="http://purl.org/dc/elements/1.1/"
   xmlns:cc="http://creativecommons.org/ns#"
   xmlns:rdf="http://www.w3.org/1999/02/22-rdf-syntax-ns#"
   xmlns:svg="http://www.w3.org/2000/svg"
   xmlns="http://www.w3.org/2000/svg"
   xmlns:sodipodi="http://sodipodi.sourceforge.net/DTD/sodipodi-0.dtd"
   xmlns:inkscape="http://www.inkscape.org/namespaces/inkscape"
   width="210mm"
   height="297mm"
   viewBox="0 0 210 297"
   version="1.1"
   id="svg215"
   inkscape:version="0.92.4 (5da689c313, 2019-01-14)"
   sodipodi:docname="Ring Band Ringed.svg">
  <defs
     id="defs209" />
  <sodipodi:namedview
     id="base"
     pagecolor="#ffffff"
     bordercolor="#666666"
     borderopacity="1.0"
     inkscape:pageopacity="0.0"
     inkscape:pageshadow="2"
     inkscape:zoom="0.7"
     inkscape:cx="408.29025"
     inkscape:cy="585.50876"
     inkscape:document-units="mm"
     inkscape:current-layer="layer1"
     showgrid="false"
     inkscape:window-width="1920"
     inkscape:window-height="1001"
     inkscape:window-x="-9"
     inkscape:window-y="-9"
     inkscape:window-maximized="1" />
  <metadata
     id="metadata212">
    <rdf:RDF>
      <cc:Work
         rdf:about="">
        <dc:format>image/svg+xml</dc:format>
        <dc:type
           rdf:resource="http://purl.org/dc/dcmitype/StillImage" />
        <dc:title></dc:title>
      </cc:Work>
    </rdf:RDF>
  </metadata>
  <g
     inkscape:label="Layer 1"
     inkscape:groupmode="layer"
     id="layer1">
    <text
       xml:space="preserve"
       style="font-style:normal;font-weight:normal;font-size:10.58333302px;line-height:1.25;font-family:sans-serif;letter-spacing:0px;word-spacing:0px;fill:#000000;fill-opacity:1;stroke:none;stroke-width:0.26458332"
       x="11.339286"
       y="11.627976"
       id="text219"><tspan
         sodipodi:role="line"
         id="tspan217"
         x="11.339286"
         y="11.627976"
         style="stroke-width:0.26458332">Ring/Band/Ringged</tspan><tspan
         sodipodi:role="line"
         x="11.339286"
         y="24.857143"
         style="stroke-width:0.26458332"
         id="tspan221">Flexible Base</tspan><tspan
         sodipodi:role="line"
         x="11.339286"
         y="38.086308"
         style="stroke-width:0.26458332"
         id="tspan223">Root Word: Banded</tspan></text>
    <path
       id="path229"
       d="m 19.637866,146.97037 c 0.990061,-0.85838 2.06543,-1.61047 3.104495,-2.40722 0.872952,-0.56592 1.557049,-1.34906 2.327099,-2.03577 0.639136,-0.5454 1.279583,-1.0888 1.934624,-1.61491 0.752004,-0.71083 1.485426,-1.44469 2.214282,-2.1806 0.619199,-0.56867 1.141677,-1.20986 1.63704,-1.88529 0.695092,-0.86354 1.530276,-1.60184 2.331458,-2.36433 0.787297,-0.74862 1.561206,-1.51109 2.332792,-2.27583 0.648152,-0.65662 1.224116,-1.37724 1.832319,-2.06943 0.865886,-0.89396 1.64034,-1.8693 2.508136,-2.76067 0.734015,-0.7079 1.330185,-1.5335 1.928476,-2.35413 0.541857,-0.89047 1.104289,-1.76033 1.754341,-2.57607 0.642356,-0.75092 1.258742,-1.52399 1.872319,-2.29851 0.560814,-0.83484 1.250148,-1.55986 1.932075,-2.29342 0.630639,-0.74639 1.220242,-1.52454 1.862539,-2.26166 0.495708,-0.56583 1.062681,-1.05588 1.535772,-1.64135 0,0 5.159306,-2.21567 5.159306,-2.21567 v 0 c -0.456721,0.62232 -0.963023,1.1624 -1.532702,1.68301 -0.658183,0.72603 -1.284518,1.478 -1.859293,2.27247 -0.671698,0.7294 -1.399569,1.40605 -1.949347,2.2388 -0.5769,0.80719 -1.238758,1.55896 -1.868456,2.32428 -0.672528,0.78703 -1.291743,1.61453 -1.771028,2.53633 -0.579948,0.85531 -1.189681,1.69579 -1.90083,2.4476 -0.890926,0.86521 -1.657792,1.83176 -2.516066,2.7288 -0.621461,0.68724 -1.188651,1.41853 -1.815648,2.0995 -0.771805,0.76771 -1.544753,1.53438 -2.330963,2.28739 -0.789014,0.75341 -1.593863,1.49103 -2.357181,2.27073 -0.511979,0.68445 -0.958601,1.40318 -1.606436,1.97214 -0.759198,0.70495 -1.494054,1.44312 -2.182868,2.2172 -0.649502,0.54578 -1.325795,1.05325 -1.955982,1.62089 -0.826953,0.63552 -1.444959,1.47581 -2.311591,2.06223 -1.056523,0.7573 -2.101657,1.54325 -3.106201,2.3652 0,0 -5.202481,2.10829 -5.202481,2.10829 z"
       inkscape:connector-curvature="0"
       style="stroke-width:0.26458332" />
    <path
       id="path231"
       d="m 78.97183,113.41002 c 0.487643,1.0777 1.047313,2.12073 1.541396,3.19651 0.324474,0.63343 0.6297,1.23809 1.091356,1.77734 0.368855,0.47012 0.470702,1.07229 0.774552,1.57845 0.406254,0.45989 0.960043,0.75229 1.42871,1.15893 0.723659,0.49243 1.218562,1.20402 1.680715,1.93069 0.416505,0.53354 0.774155,1.1114 1.200653,1.63674 0.456941,0.6172 0.876967,1.26209 1.282568,1.9141 0.487939,0.74292 0.956532,1.49753 1.494824,2.20566 0.558464,0.7133 0.984263,1.50281 1.357797,2.32432 0.305395,0.75279 0.559332,1.52335 0.825844,2.29027 0.314095,0.74221 0.563993,1.50855 0.883285,2.24858 0.41266,0.72978 0.734406,1.50445 1.098417,2.25832 0.326607,0.7564 0.632082,1.52179 0.953344,2.28082 0.227875,0.82673 0.577599,1.59421 0.941322,2.36766 0.261694,0.35931 0.585954,1.75182 1.215853,1.60241 0.424005,-1.96453 0.106034,-0.24259 -4.650211,2.4556 -0.05721,0.0325 0.122362,-0.0534 0.172273,-0.0962 0.06741,-0.0579 0.119742,-0.13146 0.17449,-0.20142 0.179631,-0.2295 0.174765,-0.24854 0.31397,-0.50978 0.248386,-0.73827 0.570736,-1.44669 0.864622,-2.16748 0.340791,-0.83123 0.584239,-1.69734 0.894228,-2.54052 0.312975,-0.81801 0.691332,-1.60827 1.073814,-2.39538 0.327332,-0.78598 0.636839,-1.57302 1.074145,-2.30539 0.45698,-0.71564 0.821229,-1.48473 1.216432,-2.23575 0.369181,-0.7997 0.793194,-1.56181 1.27707,-2.29695 0.446508,-0.71535 0.966201,-1.38156 1.431191,-2.084 0.43736,-0.84012 1.13494,-1.48863 1.79986,-2.14631 0.74092,-0.67806 1.53708,-1.29128 2.2912,-1.95489 0.71103,-0.66621 1.46873,-1.28124 2.26146,-1.84723 0.77461,-0.55692 1.51334,-1.16063 2.27338,-1.7372 0.77583,-0.53851 1.52801,-1.10468 2.26627,-1.69347 0.62054,-0.46347 1.19183,-0.97702 1.70736,-1.55421 0.53854,-0.73752 1.13586,-1.42682 1.72229,-2.12565 0.0978,-0.12435 0.19562,-0.24871 0.29343,-0.37306 0,0 5.15157,-2.20957 5.15157,-2.20957 v 0 c -0.097,0.12635 -0.194,0.2527 -0.291,0.37905 -0.54745,0.72477 -1.20626,1.36068 -1.7118,2.11956 -0.46181,0.65565 -1.04218,1.19009 -1.66361,1.6905 -0.76659,0.54799 -1.44489,1.21755 -2.26918,1.68768 -0.75052,0.59227 -1.52228,1.1538 -2.26255,1.75913 -0.79433,0.5553 -1.58974,1.1178 -2.2919,1.78945 -0.74021,0.67633 -1.50442,1.32378 -2.30195,1.93202 -0.64465,0.62785 -1.36685,1.23097 -1.83904,2.00076 -0.39183,0.75731 -0.98432,1.38432 -1.43241,2.10942 -0.45738,0.73496 -0.97068,1.42936 -1.29912,2.2385 -0.18078,0.39104 -0.42492,0.73716 -0.61515,1.11876 -0.19421,0.38956 -0.28848,0.83476 -0.57817,1.17818 -0.48391,0.68832 -0.82879,1.43922 -1.10171,2.23478 -0.3585,0.78766 -0.767653,1.55102 -1.098429,2.35177 -0.309558,0.85083 -0.602946,1.7044 -0.876269,2.56618 -0.318635,0.70464 -0.63705,1.42331 -0.853924,2.16399 -0.752626,2.15605 -3.467655,4.7927 -5.786837,3.87444 -0.740058,-0.46471 -1.054867,-1.25926 -1.427922,-2.01607 -0.368519,-0.77922 -0.759063,-1.53926 -0.96203,-2.3833 -0.314082,-0.75119 -0.627274,-1.50232 -0.937136,-2.2549 -0.371414,-0.75865 -0.686816,-1.5447 -1.110371,-2.27736 -0.333087,-0.75084 -0.57971,-1.53379 -0.906738,-2.28714 -0.257913,-0.75267 -0.512598,-1.50497 -0.799499,-2.24719 -0.348721,-0.78659 -0.753719,-1.53857 -1.287002,-2.21803 -0.547923,-0.72255 -1.028232,-1.48992 -1.528085,-2.24575 -0.396108,-0.63318 -0.812343,-1.25531 -1.256578,-1.85564 -0.427704,-0.54993 -0.821772,-1.12507 -1.231217,-1.6888 -0.431068,-0.68728 -0.896576,-1.33334 -1.589895,-1.7829 -0.525034,-0.42609 -1.151755,-0.74412 -1.537832,-1.31535 -0.283081,-0.48443 -0.405998,-1.0363 -0.724088,-1.49723 -0.491445,-0.58434 -0.801365,-1.24848 -1.144035,-1.92846 -0.476469,-1.07562 -1.009531,-2.12203 -1.543584,-3.16963 0,0 4.879581,-2.77835 4.879581,-2.77835 z"
       inkscape:connector-curvature="0"
       style="stroke-width:0.26458332" />
    <ellipse
       id="path235"
       cx="62.36607"
       cy="131.8244"
       rx="3.4017856"
       ry="3.0238097"
       style="stroke-width:0.26458332" />
  </g>
</svg>
