<?xml version="1.0" encoding="UTF-8" standalone="no"?>
<!-- Created with Inkscape (http://www.inkscape.org/) -->

<svg
   xmlns:dc="http://purl.org/dc/elements/1.1/"
   xmlns:cc="http://creativecommons.org/ns#"
   xmlns:rdf="http://www.w3.org/1999/02/22-rdf-syntax-ns#"
   xmlns:svg="http://www.w3.org/2000/svg"
   xmlns="http://www.w3.org/2000/svg"
   xmlns:sodipodi="http://sodipodi.sourceforge.net/DTD/sodipodi-0.dtd"
   xmlns:inkscape="http://www.inkscape.org/namespaces/inkscape"
   width="210mm"
   height="297mm"
   viewBox="0 0 210 297"
   version="1.1"
   id="svg20"
   inkscape:version="0.92.4 (5da689c313, 2019-01-14)"
   sodipodi:docname="Romantic Bond Lifelong-Partner.svg">
  <defs
     id="defs14" />
  <sodipodi:namedview
     id="base"
     pagecolor="#ffffff"
     bordercolor="#666666"
     borderopacity="1.0"
     inkscape:pageopacity="0.0"
     inkscape:pageshadow="2"
     inkscape:zoom="0.7"
     inkscape:cx="380.04271"
     inkscape:cy="593.66133"
     inkscape:document-units="mm"
     inkscape:current-layer="layer1"
     showgrid="false"
     inkscape:window-width="1920"
     inkscape:window-height="1001"
     inkscape:window-x="-9"
     inkscape:window-y="-9"
     inkscape:window-maximized="1" />
  <metadata
     id="metadata17">
    <rdf:RDF>
      <cc:Work
         rdf:about="">
        <dc:format>image/svg+xml</dc:format>
        <dc:type
           rdf:resource="http://purl.org/dc/dcmitype/StillImage" />
        <dc:title></dc:title>
      </cc:Work>
    </rdf:RDF>
  </metadata>
  <g
     inkscape:label="Layer 1"
     inkscape:groupmode="layer"
     id="layer1">
    <text
       xml:space="preserve"
       style="font-style:normal;font-weight:normal;font-size:10.58333302px;line-height:1.25;font-family:sans-serif;letter-spacing:0px;word-spacing:0px;fill:#000000;fill-opacity:1;stroke:none;stroke-width:0.26458332"
       x="7.5595236"
       y="14.273809"
       id="text24"><tspan
         sodipodi:role="line"
         id="tspan22"
         x="7.5595236"
         y="14.273809"
         style="stroke-width:0.26458332">Romantic/Bond/Lifelong Partner</tspan><tspan
         sodipodi:role="line"
         x="7.5595236"
         y="27.502975"
         style="stroke-width:0.26458332"
         id="tspan46">Flexible Base</tspan><tspan
         sodipodi:role="line"
         x="7.5595236"
         y="40.732143"
         style="stroke-width:0.26458332"
         id="tspan48">Root Word:IMDTFBABY</tspan></text>
    <path
       id="path30"
       d="m 25.179973,89.660605 c -0.02834,1.247446 -0.01517,2.495415 -0.0082,3.743044 0.0054,0.864772 0.008,1.729555 0.0093,2.594343 0.0024,0.865716 -0.0053,1.731404 -0.0064,2.597118 -0.002,1.051708 -0.0043,2.10338 -6.61e-4,3.15509 0.0062,0.88657 0.0043,1.77313 0.0032,2.6597 -0.0082,1.08377 -0.0042,2.16756 -0.0079,3.25135 1.87e-4,1.00177 0.0061,2.00352 0.0094,3.00528 0.0024,0.78032 0.0028,1.56064 0.003,2.34096 0.0021,0.81007 -0.0036,1.62011 -0.0038,2.43018 -1.59e-4,0.83533 0.0049,1.67067 3.44e-4,2.506 3.17e-4,0.89324 -0.001,1.78648 -0.0019,2.67971 -0.06628,0.85494 0.05742,1.68013 0.194954,2.51881 0.0664,0.94575 0.242684,1.85518 0.472575,2.77343 0.376314,1.47037 0.684243,2.95425 0.97569,4.44498 0.279199,1.63435 0.677262,3.24162 0.869794,4.89025 0.0986,1.00538 0.09507,2.00795 0.269615,3.00333 0.129654,0.77554 0.396487,1.52125 0.644819,2.26537 0.217945,0.76752 0.517483,1.51579 0.876758,2.22836 0.308708,0.82117 0.900432,1.47422 1.29431,2.25004 0.498824,0.86031 0.825145,1.8083 1.115512,2.75546 0.365974,0.95389 0.612569,1.94657 1.020239,2.88434 0.310711,0.83674 0.616307,1.67295 0.911619,2.51563 0.394266,1.01491 0.779806,2.03481 1.251887,3.0166 0.341899,0.87742 0.900443,1.6426 1.425858,2.41642 0.459959,0.76728 0.924999,1.53566 1.44644,2.2634 0.444423,0.83875 1.102415,1.53213 1.550043,2.36582 0.411927,0.7368 0.769252,1.50124 1.163738,2.24814 0.559162,0.84051 1.117692,1.66717 1.625806,2.5402 0.405567,0.768 0.758127,1.56269 1.167871,2.32822 0.564687,1.43777 1.084498,2.89093 1.704594,4.30871 0.726054,1.55359 1.601668,3.027 2.538899,4.45917 0.543462,1.12751 1.536642,1.90487 2.267966,2.88867 0.633979,0.83443 1.150578,1.73471 1.873859,2.49616 0.09006,0.11389 0.17313,0.23368 0.270179,0.34167 0.31755,0.35337 0.247078,0.17262 0.513805,0.55863 0.206258,0.29851 0.374623,0.62285 0.583824,0.92158 0.60111,0.59438 1.055788,1.31419 1.576631,1.97691 0.64153,0.82611 1.366372,1.56442 2.167136,2.23318 0.737288,0.72213 1.595146,1.28404 2.404427,1.91289 0.311706,0.45627 0.82227,0.66501 1.232281,1.00109 0.108077,0.0886 0.425797,0.42851 0.519483,0.52686 0.706234,0.48014 1.362573,1.01799 2.031103,1.54956 0.638292,0.48564 1.236845,1.03071 1.935406,1.43189 1.763961,1.14013 0.53593,0.33912 -4.13567,-2.38311 -0.117001,-0.0682 0.235482,0.13379 0.35361,0.2 0.238094,0.13345 0.48454,0.25178 0.721082,0.38797 1.727415,0.99451 3.449037,1.99905 5.173554,2.99858 0.741829,0.59963 1.502818,1.1729 2.2469,1.7702 0.63213,0.62363 1.283682,1.19994 2.002774,1.72213 -0.209767,-0.14919 0.938816,0.55136 0.703091,0.41526 -14.856783,-8.57721 11.563334,6.69916 -3.327162,-1.93374 13.547444,7.86065 0.998725,0.58452 0.748686,0.439 -0.125783,-0.0732 0.254188,0.14181 0.381458,0.2124 0.371859,0.20623 0.747924,0.40374 1.123871,0.60238 0.711514,0.3324 1.465312,0.58111 2.225275,0.77774 0.332737,0.0647 0.650973,0.18263 0.97201,0.28814 0,0 4.453909,3.43628 4.453909,3.43628 v 0 c -0.325618,-0.0864 -0.647547,-0.1813 -0.953752,-0.32508 -0.794789,-0.14507 -1.55009,-0.41524 -2.313371,-0.67249 -3.305847,-1.53733 -12.145295,-7.09802 -2.277147,-1.22697 -17.250507,-9.99508 3.082637,1.75293 -1.104516,-0.65614 -1.721162,-0.99027 -3.44451,-1.97675 -5.162878,-2.97186 -0.2852,-0.16515 -0.418486,-0.26898 -0.686051,-0.45892 -0.698675,-0.5388 -1.294517,-1.18824 -1.989209,-1.73164 -0.750909,-0.58057 -1.474931,-1.20155 -2.277282,-1.7105 1.47742,0.84858 2.955644,1.69575 4.432257,2.54574 0.11961,0.0688 -0.238503,-0.13922 -0.361233,-0.20234 -0.886544,-0.45598 0.141875,0.1198 -0.715904,-0.3769 -1.713495,-0.99223 -3.430847,-1.9778 -5.141666,-2.97463 -0.112554,-0.0656 -0.218705,-0.14158 -0.328055,-0.21237 -0.651097,-0.47318 -1.278535,-0.97756 -1.908778,-1.47803 -0.67547,-0.53153 -1.378397,-1.03086 -2.018104,-1.60396 -0.570529,-0.50499 -1.209495,-0.92903 -1.76213,-1.45687 -0.835266,-0.60361 -1.618462,-1.26669 -2.389264,-1.95049 -0.782024,-0.70755 -1.477225,-1.501 -2.123528,-2.33392 -0.518308,-0.67863 -1.047964,-1.34718 -1.57875,-2.01531 -0.414308,-0.6255 -0.875871,-1.2012 -1.386411,-1.75252 -0.663014,-0.80303 -1.179677,-1.71281 -1.845752,-2.51508 -0.80459,-0.93683 -1.654339,-1.83324 -2.237354,-2.93671 -0.918924,-1.44488 -1.739513,-2.95411 -2.442128,-4.51622 -0.611867,-1.43434 -1.15507,-2.89911 -1.807784,-4.31462 -0.381116,-0.77157 -0.756867,-1.54644 -1.174848,-2.29899 -0.509616,-0.87386 -1.134734,-1.67016 -1.615665,-2.56116 -0.39262,-0.74303 -0.743833,-1.50875 -1.181705,-2.22721 -0.509032,-0.78292 -1.069412,-1.53222 -1.560481,-2.32762 -0.495102,-0.74802 -0.966912,-1.51119 -1.442217,-2.27184 -0.51911,-0.79937 -1.044552,-1.59537 -1.383091,-2.49328 -0.44087,-1.0093 -0.849776,-2.03255 -1.237586,-3.06332 -0.30402,-0.83337 -0.597294,-1.67103 -0.922443,-2.49643 -0.357712,-0.96121 -0.640999,-1.94695 -0.990593,-2.91112 -0.322061,-0.91973 -0.668029,-1.83212 -1.176229,-2.66851 -0.448129,-0.7501 -0.96937,-1.45864 -1.28144,-2.2833 -0.32766,-0.74639 -0.627085,-1.50455 -0.851641,-2.28923 -0.256309,-0.76595 -0.487084,-1.54685 -0.601362,-2.34797 -0.140402,-0.9978 -0.111441,-2.00595 -0.231876,-3.00651 -0.207101,-1.62328 -0.563239,-3.21919 -0.845185,-4.83032 -0.309977,-1.49255 -0.679534,-2.96913 -1.040019,-4.44977 -0.225962,-0.93354 -0.366708,-1.87155 -0.473648,-2.82537 -0.134763,-0.86203 -0.18663,-1.72144 -0.147379,-2.59465 -8.21e-4,-0.89387 -0.0022,-1.78773 -0.0019,-2.68161 -0.0045,-0.83521 4.76e-4,-1.67043 3.44e-4,-2.50566 -1.52e-4,-0.81135 -0.0059,-1.62267 -0.0038,-2.43402 2.48e-4,-0.77929 6.62e-4,-1.55858 0.003,-2.33786 0.0033,-0.99858 0.0092,-1.99716 0.0094,-2.99576 -0.0037,-1.08648 2.07e-4,-2.17297 -0.0079,-3.25944 -0.001,-0.88547 -0.0029,-1.77092 0.0032,-2.65639 0.0037,-1.051938 0.0013,-2.103831 -6.61e-4,-3.15577 -0.0011,-0.867894 -0.0089,-1.735764 -0.0064,-2.603664 0.0013,-0.861618 0.0039,-1.723234 0.0093,-2.584836 0.007,-1.250416 0.02001,-2.501157 -0.0082,-3.751389 0,0 5.002804,2.549054 5.002804,2.549054 z"
       inkscape:connector-curvature="0"
       style="stroke-width:0.26458332" />
    <path
       id="path32"
       d="m 31.967554,82.641756 c 1.170683,0.890641 2.305846,1.815944 3.331998,2.870557 0.368393,0.557686 0.920671,0.962054 1.289871,1.517518 0.620387,0.933376 -0.182724,-0.150974 0.419917,0.643485 0.432168,0.583462 0.731872,1.250746 1.133208,1.849014 0.34888,0.583586 0.840094,1.052521 1.191554,1.64315 0.409424,0.743479 0.866447,1.441553 1.405575,2.098789 0.5476,0.680852 1.157298,1.314609 1.618623,2.060432 0.503608,0.704421 0.989351,1.422194 1.512279,2.113031 0.497842,0.836459 1.185206,1.548069 1.880658,2.223439 0.574937,0.477069 0.987814,1.100269 1.475401,1.657479 0,0 -5.155678,-2.184753 -5.155678,-2.184753 v 0 c -0.467839,-0.567328 -0.946677,-1.122609 -1.489393,-1.621153 -0.672687,-0.724773 -1.33963,-1.451462 -1.858899,-2.298464 -0.50904,-0.708758 -1.023493,-1.413902 -1.512411,-2.136706 -0.51757,-0.692111 -1.086236,-1.34384 -1.623375,-2.020716 -0.514961,-0.686398 -0.938567,-1.424813 -1.401016,-2.146057 -0.404739,-0.549066 -0.872512,-1.052337 -1.184013,-1.664755 -0.343197,-0.629198 -0.748925,-1.216922 -1.148967,-1.811039 -0.49548,-0.746786 -1.115861,-1.392031 -1.710986,-2.059641 -1.053888,-1.02875 -2.223238,-1.918446 -3.366709,-2.843972 0,0 5.192363,2.110362 5.192363,2.110362 z"
       inkscape:connector-curvature="0"
       style="stroke-width:0.26458332" />
    <path
       id="path42"
       d="m 42.197617,84.28389 c 1.008369,-1.050573 1.959993,-2.158595 2.890414,-3.278891 0.54034,-0.677503 1.142963,-1.291101 1.740106,-1.915981 0.530252,-0.563972 1.002861,-1.177266 1.471787,-1.792266 0.445823,-0.479761 0.875342,-0.962625 1.274054,-1.48078 0.297352,-0.487164 0.599908,-0.976366 0.871683,-1.479849 0.195217,-0.714751 0.547044,-1.317194 0.958783,-1.925352 0.402217,-0.660122 0.731372,-1.359315 1.090703,-2.042602 0.484836,-0.880872 1.224396,-1.575453 1.859629,-2.345049 0.659665,-0.839026 1.243563,-1.730828 1.915417,-2.561421 0.581461,-0.739121 1.056283,-1.550241 1.616525,-2.304595 0.424304,-0.758256 1.08509,-1.331873 1.580499,-2.034646 0.448093,-0.724064 1.081426,-1.301848 1.687602,-1.88999 0.720117,-0.613061 1.518788,-1.164958 2.388169,-1.542843 2.485141,-0.60565 5.433256,1.46278 6.374085,3.781641 0.439081,0.705774 0.66933,1.492073 0.964406,2.259579 0.26811,0.772888 0.592063,1.531271 0.969616,2.257624 0.531646,0.813739 0.875734,1.705858 1.248799,2.595554 0.299175,0.789461 0.630669,1.571337 1.021077,2.320634 0.354447,0.732383 0.503436,1.536335 0.71591,2.316387 0.10913,0.854401 0.668753,1.489898 1.115335,2.186226 0.536503,0.686745 0.819777,1.514094 1.103868,2.326606 0.330629,0.81685 0.949262,1.452067 1.364459,2.221984 0.492606,0.744503 0.953582,1.493287 1.385562,2.274363 0.328202,0.747363 0.57694,1.537465 0.773525,2.330498 0.127416,0.764241 0.191635,1.525328 0.462561,2.256483 0.272224,0.493495 0.576294,0.959154 0.818996,1.469572 0,0 -5.11498,-2.310167 -5.11498,-2.310167 v 0 c -0.277008,-0.509743 -0.602848,-0.998751 -0.784,-1.554236 -0.203243,-0.751928 -0.277771,-1.521704 -0.452538,-2.279232 -0.219681,-0.753197 -0.44119,-1.516769 -0.825437,-2.205215 -0.427889,-0.777158 -0.953725,-1.48922 -1.390465,-2.261354 -0.477184,-0.751967 -1.053076,-1.451303 -1.327867,-2.31376 -0.30335,-0.780804 -0.629158,-1.542055 -1.149903,-2.208977 -0.483327,-0.728639 -0.902541,-1.471123 -1.05053,-2.347248 -0.210474,-0.75433 -0.369361,-1.527329 -0.756621,-2.218452 -0.360408,-0.773523 -0.703512,-1.55507 -1.001999,-2.354919 -0.354758,-0.89041 -0.804587,-1.724009 -1.267613,-2.562381 -0.349597,-0.756073 -0.683459,-1.52019 -0.947126,-2.311265 -0.268642,-0.764786 -0.60502,-1.491131 -0.997961,-2.200923 -0.15422,-0.239459 -0.19272,-0.336571 -0.409342,-0.525812 -0.08054,-0.07036 -0.35587,-0.236474 -0.262115,-0.185018 11.226459,6.161574 5.603158,2.62631 4.071226,2.384219 -0.852871,0.227623 -1.556393,0.826791 -2.262063,1.336175 -0.577755,0.565925 -1.193372,1.115115 -1.625537,1.805699 -0.49771,0.710613 -1.165595,1.280583 -1.597533,2.042308 -0.566274,0.759852 -1.043387,1.579735 -1.634424,2.321859 -0.675764,0.827492 -1.262404,1.717141 -1.918094,2.559389 -0.599485,0.750694 -1.319673,1.410763 -1.787588,2.257041 -0.365125,0.704075 -0.704607,1.421905 -1.117368,2.100334 -0.401203,0.59531 -0.718211,1.185727 -0.924935,1.87924 -0.285192,0.533297 -0.599427,1.052769 -0.916848,1.566008 -0.4079,0.508095 -0.806963,1.013306 -1.279152,1.467289 -0.478663,0.632526 -0.971364,1.253924 -1.503127,1.842873 -0.582144,0.626105 -1.206193,1.209643 -1.749639,1.873282 -0.953529,1.120619 -1.952723,2.202249 -2.897283,3.331205 0,0 -4.782708,-2.930848 -4.782708,-2.930848 z"
       inkscape:connector-curvature="0"
       style="stroke-width:0.26458332" />
    <path
       id="path44"
       sodipodi:type="arc"
       sodipodi:cx="77.017029"
       sodipodi:cy="97.95298"
       sodipodi:rx="4.8776689"
       sodipodi:ry="4.9444861"
       sodipodi:start="0"
       sodipodi:end="6.2356949"
       d="m 81.894698,97.95298 a 4.8776689,4.9444861 0 0 1 -4.81976,4.94414 4.8776689,4.9444861 0 0 1 -4.934203,-4.826743 4.8776689,4.9444861 0 0 1 4.702599,-5.058747 4.8776689,4.9444861 0 0 1 5.045864,4.706623 l -4.872169,0.234727 z"
       style="stroke-width:0.26458332" />
  </g>
</svg>
