<?xml version="1.0" encoding="UTF-8" standalone="no"?>
<!-- Created with Inkscape (http://www.inkscape.org/) -->

<svg
   xmlns:dc="http://purl.org/dc/elements/1.1/"
   xmlns:cc="http://creativecommons.org/ns#"
   xmlns:rdf="http://www.w3.org/1999/02/22-rdf-syntax-ns#"
   xmlns:svg="http://www.w3.org/2000/svg"
   xmlns="http://www.w3.org/2000/svg"
   xmlns:sodipodi="http://sodipodi.sourceforge.net/DTD/sodipodi-0.dtd"
   xmlns:inkscape="http://www.inkscape.org/namespaces/inkscape"
   width="210mm"
   height="297mm"
   viewBox="0 0 210 297"
   version="1.1"
   id="svg137"
   inkscape:version="0.92.4 (5da689c313, 2019-01-14)"
   sodipodi:docname="Support Pillar.svg">
  <defs
     id="defs131" />
  <sodipodi:namedview
     id="base"
     pagecolor="#ffffff"
     bordercolor="#666666"
     borderopacity="1.0"
     inkscape:pageopacity="0.0"
     inkscape:pageshadow="2"
     inkscape:zoom="0.35"
     inkscape:cx="933.38983"
     inkscape:cy="801.63419"
     inkscape:document-units="mm"
     inkscape:current-layer="layer1"
     showgrid="false"
     inkscape:window-width="1920"
     inkscape:window-height="1001"
     inkscape:window-x="-9"
     inkscape:window-y="-9"
     inkscape:window-maximized="1" />
  <metadata
     id="metadata134">
    <rdf:RDF>
      <cc:Work
         rdf:about="">
        <dc:format>image/svg+xml</dc:format>
        <dc:type
           rdf:resource="http://purl.org/dc/dcmitype/StillImage" />
        <dc:title></dc:title>
      </cc:Work>
    </rdf:RDF>
  </metadata>
  <g
     inkscape:label="Layer 1"
     inkscape:groupmode="layer"
     id="layer1">
    <text
       xml:space="preserve"
       style="font-style:normal;font-weight:normal;font-size:10.58333302px;line-height:1.25;font-family:sans-serif;letter-spacing:0px;word-spacing:0px;fill:#000000;fill-opacity:1;stroke:none;stroke-width:0.26458332"
       x="7.7508163"
       y="16.901535"
       id="text141"><tspan
         sodipodi:role="line"
         id="tspan139"
         x="7.7508163"
         y="16.901535"
         style="stroke-width:0.26458332">Support/Structural Integrety/Pillar</tspan><tspan
         sodipodi:role="line"
         x="7.7508163"
         y="30.130701"
         style="stroke-width:0.26458332"
         id="tspan149">Base Word: Column</tspan><tspan
         sodipodi:role="line"
         x="7.7508163"
         y="43.359867"
         style="stroke-width:0.26458332"
         id="tspan151">Flexable base</tspan></text>
    <g
       id="g156"
       transform="matrix(3.256348,0,0,3.256348,-89.251858,-205.44082)">
      <path
         style="stroke-width:0.26458332"
         inkscape:connector-curvature="0"
         d="m 40.096733,119.89859 c 0.35152,-0.77014 0.808392,-1.48399 1.266963,-2.19302 0.33951,-0.45059 0.717743,-0.86968 1.097018,-1.28667 0.366215,-0.442 0.787778,-0.83035 1.186463,-1.24159 0.32811,-0.47355 0.755703,-0.85753 1.141825,-1.27994 0.339466,-0.50525 0.72335,-0.97738 1.113094,-1.44444 0.487617,-0.54639 0.886603,-1.1583 1.365877,-1.71203 0.429742,-0.48932 0.839872,-0.99253 1.277131,-1.47543 0.57963,-0.6267 1.149982,-1.26192 1.709655,-1.90656 0.651822,-0.76069 1.349812,-1.47978 2.045999,-2.19949 0.666525,-0.68173 1.34039,-1.35629 2.012635,-2.03238 0.554885,-0.49657 1.115478,-0.98955 1.694231,-1.45836 0.61536,-0.53359 1.238927,-1.05685 1.877438,-1.56245 0.671084,-0.550638 1.335241,-1.109094 2.007457,-1.658498 0.5588,-0.484688 1.141116,-0.942282 1.682965,-1.446207 0.457057,-0.471522 0.989089,-0.85738 1.473824,-1.299269 0.483182,-0.466756 0.941258,-0.952513 1.433176,-1.410528 0.437478,-0.44401 0.903203,-0.858213 1.343441,-1.299141 0.368731,-0.332891 0.716629,-0.687745 1.095171,-1.009661 0.329554,-0.348107 0.708639,-0.640921 1.087115,-0.932777 0,0 3.360608,2.128051 3.360608,2.128051 v 0 c -0.38222,0.271592 -0.754862,0.564984 -1.073246,0.910966 -0.372221,0.314518 -0.717822,0.654947 -1.084389,0.975725 -0.440957,0.448485 -0.91907,0.856533 -1.354646,1.311132 -0.492807,0.458542 -0.96239,0.931667 -1.434367,1.412134 -0.480539,0.447413 -1.014486,0.826622 -1.47316,1.296104 -0.546309,0.514122 -1.14187,0.970039 -1.707213,1.462829 -0.675249,0.54962 -1.345587,1.10294 -2.012977,1.66188 -0.637886,0.50464 -1.265094,1.02276 -1.867117,1.57004 -0.580869,0.44407 -1.113739,0.94996 -1.680667,1.41181 -0.675569,0.67122 -1.350455,1.34311 -2.017133,2.02318 -0.695087,0.7104 -1.382218,1.42909 -2.031027,2.18244 -0.560774,0.64593 -1.126032,1.28676 -1.693391,1.92667 -0.437073,0.48012 -0.854882,0.9731 -1.278652,1.46524 -0.481812,0.54816 -0.885005,1.15204 -1.361641,1.70378 -0.391483,0.47214 -0.773449,0.95197 -1.115044,1.4615 -0.383072,0.43108 -0.825604,0.80737 -1.147697,1.29158 -0.39289,0.41163 -0.819478,0.78801 -1.176427,1.23363 -0.364509,0.40447 -0.73505,0.80275 -1.076476,1.22803 -0.461343,0.68851 -0.929187,1.38152 -1.236432,2.15632 0,0 -3.450384,-1.9646 -3.450384,-1.9646 z"
         id="path143" />
      <path
         style="stroke-width:0.26458332"
         inkscape:connector-curvature="0"
         d="m 53.922099,124.99569 c 0.718052,-0.39394 1.408263,-0.84553 2.053489,-1.35048 0.374698,-0.28828 0.743701,-0.59006 1.02576,-0.97216 0.275948,-0.40433 0.619604,-0.74437 0.972699,-1.08025 0.410363,-0.43164 0.852313,-0.83567 1.254741,-1.27495 0.345213,-0.37518 0.701458,-0.73884 1.061405,-1.09987 0.318151,-0.37638 0.67841,-0.71209 1.033016,-1.05337 0.399206,-0.36861 0.756642,-0.77982 1.131297,-1.17343 0.354092,-0.34139 0.686041,-0.7037 1.045477,-1.03977 0.334053,-0.30363 0.62179,-0.65197 0.9456,-0.96547 0.366289,-0.39641 0.759378,-0.76558 1.133726,-1.15404 0.457685,-0.47779 0.903198,-0.96792 1.390537,-1.41585 0.423497,-0.36543 0.796123,-0.78318 1.202623,-1.16595 0.410531,-0.39021 0.776031,-0.8217 1.149218,-1.24621 0.306769,-0.38926 0.670026,-0.72788 0.999821,-1.09706 0.333113,-0.32889 0.60488,-0.70767 0.913058,-1.05812 0.327269,-0.3638 0.654045,-0.72872 0.974903,-1.09839 0.340952,-0.35447 0.657084,-0.73155 0.99066,-1.09308 0.480989,-0.49314 0.950122,-0.99599 1.416389,-1.50263 0.419796,-0.39791 0.793716,-0.83919 1.193422,-1.2562 0.271647,-0.32355 0.570627,-0.61134 0.908653,-0.86331 0.305247,-0.21095 0.594535,-0.44476 0.863158,-0.70065 0.191455,-0.17432 0.101989,-0.0882 0.269507,-0.25713 0,0 3.402068,2.07246 3.402068,2.07246 v 0 c -0.17907,0.19587 -0.08664,0.10847 -0.274415,0.26526 -0.266287,0.27956 -0.571513,0.52786 -0.890519,0.74359 -0.315039,0.25353 -0.641561,0.48368 -0.887269,0.81598 -0.412406,0.40042 -0.771245,0.85336 -1.196922,1.24166 -0.475562,0.49455 -0.930934,1.00898 -1.411703,1.49932 -0.32743,0.36044 -0.630037,0.7444 -0.97441,1.08793 -0.318125,0.37469 -0.660948,0.72823 -0.979438,1.10286 -0.310713,0.34847 -0.57859,0.72956 -0.9121,1.05747 -0.326023,0.37505 -0.698532,0.70689 -1.008314,1.09614 -0.390171,0.42594 -0.749321,0.88106 -1.168548,1.281 -0.420344,0.37021 -0.77478,0.81158 -1.212305,1.1646 -0.491919,0.42706 -0.917718,0.92258 -1.366827,1.39346 -0.375603,0.39774 -0.780714,0.76362 -1.142831,1.17468 -0.336709,0.30367 -0.605544,0.67444 -0.9467,0.97422 -0.366093,0.31529 -0.675238,0.68642 -1.034082,1.0092 -0.377407,0.40123 -0.745929,0.8122 -1.140843,1.19553 -0.361546,0.32941 -0.712071,0.67335 -1.027496,1.04753 -0.364649,0.34494 -0.702292,0.71719 -1.055204,1.07397 -0.402336,0.45212 -0.86011,0.853 -1.26769,1.3003 -0.332362,0.32235 -0.665496,0.64011 -0.929923,1.02246 -0.297273,0.41913 -0.677283,0.7611 -1.095036,1.05875 -0.660313,0.52556 -1.389002,0.95693 -2.091746,1.4224 0,0 -3.316906,-2.1824 -3.316906,-2.1824 z"
         id="path145" />
      <ellipse
         style="stroke-width:0.26458332"
         ry="4.2763124"
         rx="3.8754082"
         cy="96.547852"
         cx="43.431301"
         id="path147" />
    </g>
  </g>
</svg>
