<?xml version="1.0" encoding="UTF-8" standalone="no"?>
<!-- Created with Inkscape (http://www.inkscape.org/) -->

<svg
   xmlns:dc="http://purl.org/dc/elements/1.1/"
   xmlns:cc="http://creativecommons.org/ns#"
   xmlns:rdf="http://www.w3.org/1999/02/22-rdf-syntax-ns#"
   xmlns:svg="http://www.w3.org/2000/svg"
   xmlns="http://www.w3.org/2000/svg"
   xmlns:sodipodi="http://sodipodi.sourceforge.net/DTD/sodipodi-0.dtd"
   xmlns:inkscape="http://www.inkscape.org/namespaces/inkscape"
   width="210mm"
   height="297mm"
   viewBox="0 0 210 297"
   version="1.1"
   id="svg237"
   inkscape:version="0.92.4 (5da689c313, 2019-01-14)"
   sodipodi:docname="Travel Go Change.svg">
  <defs
     id="defs231" />
  <sodipodi:namedview
     id="base"
     pagecolor="#ffffff"
     bordercolor="#666666"
     borderopacity="1.0"
     inkscape:pageopacity="0.0"
     inkscape:pageshadow="2"
     inkscape:zoom="1.979899"
     inkscape:cx="326.89314"
     inkscape:cy="867.81783"
     inkscape:document-units="mm"
     inkscape:current-layer="layer1"
     showgrid="false"
     inkscape:window-width="1920"
     inkscape:window-height="1001"
     inkscape:window-x="-9"
     inkscape:window-y="-9"
     inkscape:window-maximized="1" />
  <metadata
     id="metadata234">
    <rdf:RDF>
      <cc:Work
         rdf:about="">
        <dc:format>image/svg+xml</dc:format>
        <dc:type
           rdf:resource="http://purl.org/dc/dcmitype/StillImage" />
        <dc:title></dc:title>
      </cc:Work>
    </rdf:RDF>
  </metadata>
  <g
     inkscape:label="Layer 1"
     inkscape:groupmode="layer"
     id="layer1">
    <text
       xml:space="preserve"
       style="font-style:normal;font-weight:normal;font-size:10.58333302px;line-height:1.25;font-family:sans-serif;letter-spacing:0px;word-spacing:0px;fill:#000000;fill-opacity:1;stroke:none;stroke-width:0.26458332"
       x="12.284225"
       y="10.494047"
       id="text241"><tspan
         sodipodi:role="line"
         id="tspan239"
         x="12.284225"
         y="10.494047"
         style="stroke-width:0.26458332">Travel/Go/Change</tspan><tspan
         sodipodi:role="line"
         x="12.284225"
         y="23.723213"
         style="stroke-width:0.26458332"
         id="tspan243">Flexable Base</tspan><tspan
         sodipodi:role="line"
         x="12.284225"
         y="36.952381"
         style="stroke-width:0.26458332"
         id="tspan245">Root Word: Travel</tspan></text>
    <path
       id="path247"
       d="m 18.744181,81.422908 c 0.365408,-0.507801 0.792947,-0.962586 1.162124,-1.467429 0.252986,-0.381 0.534643,-0.741032 0.814558,-1.102286 0.253574,-0.335881 0.51292,-0.668882 0.758859,-1.010597 0.239596,-0.293465 0.457066,-0.603578 0.671599,-0.915445 0.204362,-0.24652 0.390031,-0.507074 0.573076,-0.76948 0.119122,-0.29909 0.290804,-0.570981 0.432803,-0.859285 0.102498,-0.380394 0.348116,-0.668562 0.591298,-0.965332 0.234709,-0.333872 0.444423,-0.683943 0.6753,-1.020262 0.29104,-0.330888 0.584295,-0.66066 0.879278,-0.988529 0.336601,-0.373898 0.684465,-0.735597 1.067123,-1.062415 0.364838,-0.295156 0.744679,-0.565725 1.099946,-0.8728 0.409718,-0.342037 0.795364,-0.707636 1.150625,-1.10562 0.318413,-0.427371 0.637812,-0.85245 0.985732,-1.256453 0.312462,-0.384527 0.702,-0.690893 1.047392,-1.043038 0.333407,-0.286972 0.620903,-0.619342 0.961128,-0.898112 0.382665,-0.303324 0.792258,-0.572228 1.169655,-0.881676 0.3698,-0.358347 0.743873,-0.711375 1.148098,-1.031018 0.287396,-0.257961 0.580067,-0.496165 0.982125,-0.482918 2.15342,1.105411 2.105557,0.911575 3.039603,2.063314 0.306699,0.293277 0.484094,0.674772 0.714078,1.02371 0.212328,0.397909 0.487484,0.756825 0.744572,1.126183 0.301241,0.356208 0.548883,0.748194 0.798023,1.140873 0.231735,0.393149 0.517483,0.749591 0.76962,1.128749 0.213098,0.388676 0.469506,0.760378 0.744545,1.108618 0.21135,0.332922 0.436026,0.658259 0.634276,0.999238 0.238744,0.30742 0.457451,0.629267 0.677865,0.950092 0.202065,0.331206 0.359404,0.695132 0.618214,0.986865 0.235398,0.281498 0.411369,0.589809 0.587688,0.90924 0.233783,0.371155 0.498398,0.722455 0.7298,1.094968 0.238323,0.377576 0.466632,0.761161 0.706601,1.138044 0.203925,0.400399 0.475322,0.760357 0.729634,1.129347 0.290155,0.344649 0.518467,0.7292 0.764027,1.104903 0.282352,0.386194 0.593838,0.747493 0.843555,1.156772 0.263236,0.367461 0.482409,0.761272 0.713057,1.148974 0.181282,0.392726 0.410541,0.75815 0.618786,1.135943 0.221766,0.378974 0.511485,0.709846 0.766184,1.064893 0.205351,0.303988 0.441015,0.587102 0.619296,0.909246 0.223883,0.295613 0.439923,0.595037 0.646277,0.905065 0.138221,0.295198 0.348766,0.543248 0.545656,0.800256 0,0 -2.579476,-1.111922 -2.579476,-1.111922 v 0 C 49.154196,85.34017 48.969241,85.073613 48.80743,84.789779 48.599068,84.479396 48.353434,84.196099 48.163643,83.87331 47.961216,83.573746 47.750568,83.279614 47.536517,82.988302 47.266825,82.637708 47.005028,82.278433 46.786649,81.893211 46.568807,81.521603 46.374785,81.13786 46.166587,80.760857 45.942157,80.372645 45.698595,79.996979 45.449691,79.624067 45.177974,79.230933 44.86924,78.865967 44.603503,78.468666 44.355152,78.09685 44.115317,77.720898 43.83942,77.368108 43.587503,76.994268 43.327277,76.626346 43.11351,76.228434 42.8801,75.848886 42.646427,75.469368 42.405223,75.094792 42.156276,74.728241 41.90343,74.363214 41.679444,73.980722 41.504721,73.669371 41.285318,73.391664 41.0728,73.105448 40.862228,72.777854 40.67756,72.435208 40.464472,72.109223 40.243307,71.786109 40.003005,71.476268 39.792301,71.145971 39.580274,70.818181 39.37921,70.483158 39.148853,70.167597 38.898869,69.79822 38.629894,69.442586 38.410126,69.053606 38.142248,68.68188 37.889026,68.30161 37.64431,67.914183 37.396531,67.523126 37.117297,67.155922 36.842694,66.78364 c -0.255495,-0.373563 -0.521576,-0.739714 -0.74213,-1.13588 -0.218387,-0.352103 -0.443579,-0.693915 -0.733856,-0.993008 -0.750033,-0.867632 -2.156338,-1.606976 1.759826,0.781267 -0.273325,-0.302705 -0.591534,0.03647 -0.823664,0.232966 -0.410816,0.303445 -0.780597,0.657248 -1.142037,1.017058 -0.367654,0.325842 -0.789503,0.584591 -1.172789,0.892286 -0.342175,0.259755 -0.604211,0.600406 -0.940919,0.867775 -0.339934,0.351676 -0.730666,0.647658 -1.043184,1.026287 -0.350504,0.403437 -0.671798,0.828651 -0.990745,1.257231 -0.359728,0.409456 -0.745017,0.790586 -1.163807,1.140447 -0.355153,0.31024 -0.726358,0.59228 -1.102521,0.875993 -0.377315,0.314341 -0.720831,0.66112 -1.045271,1.030179 -0.286044,0.319871 -0.564388,0.646345 -0.859573,0.957628 -0.234477,0.343185 -0.446176,0.701196 -0.684134,1.042207 -0.230571,0.284379 -0.460751,0.548203 -0.55621,0.913548 -0.150467,0.299619 -0.320802,0.58652 -0.452613,0.895159 -0.181873,0.26252 -0.364743,0.525934 -0.573937,0.767773 -0.216245,0.312838 -0.435281,0.624967 -0.680425,0.916276 -0.246844,0.345223 -0.506786,0.682038 -0.760609,1.021903 -0.279336,0.359228 -0.572644,0.708009 -0.819369,1.091306 -0.368683,0.496382 -0.803199,0.936477 -1.145347,1.452396 0,0 -2.425199,-1.411529 -2.425199,-1.411529 z"
       inkscape:connector-curvature="0"
       style="stroke-width:0.26458332" />
    <path
       id="path257"
       d="m 39.337393,52.60408 c 0.274241,0.245375 0.542966,0.496131 0.806637,0.752539 0.224433,0.244364 0.521149,0.404839 0.787083,0.601686 0.227239,0.19174 0.475905,0.35605 0.703544,0.547398 0.278848,0.183507 0.476751,0.451809 0.69344,0.696438 0.161563,0.241479 0.368256,0.44996 0.542994,0.681436 0.198312,0.252735 0.40856,0.498358 0.633813,0.729079 0.338162,0.306304 0.622113,0.659128 0.936469,0.98676 0.270667,0.277181 0.55063,0.545739 0.830031,0.814689 0.269631,0.289413 0.519226,0.596373 0.7565,0.910883 0.269386,0.314403 0.532219,0.634795 0.801315,0.950161 0.270456,0.304729 0.527469,0.619074 0.843025,0.882248 0.286859,0.234749 0.550561,0.499342 0.794477,0.775504 0.304034,0.32322 0.602339,0.651953 0.897458,0.983169 0.276347,0.282096 0.568707,0.549008 0.857463,0.819161 0.261838,0.208451 0.443674,0.480611 0.641611,0.741634 0.20399,0.235391 0.421124,0.462022 0.638538,0.686866 0.20524,0.203788 0.37701,0.435527 0.545431,0.667636 0.153476,0.226946 0.375206,0.39352 0.581802,0.572613 0.232817,0.149639 0.409957,0.358393 0.584475,0.565394 0.203172,0.248958 0.453173,0.454242 0.653758,0.705368 0.19545,0.241515 0.375677,0.493105 0.576992,0.730321 0.247522,0.209789 0.461719,0.445628 0.657895,0.699701 0.09133,0.103926 0.162675,0.221658 0.241315,0.334352 0,0 -1.542056,-0.648995 -1.542056,-0.648995 v 0 c -0.078,-0.11079 -0.156768,-0.221146 -0.244131,-0.325415 -0.201105,-0.24809 -0.437719,-0.462383 -0.656729,-0.695118 -0.195836,-0.241264 -0.378107,-0.492401 -0.579454,-0.729565 -0.214212,-0.237964 -0.452774,-0.454647 -0.654191,-0.703498 -0.179482,-0.201087 -0.378441,-0.381042 -0.594954,-0.545038 -0.210531,-0.183932 -0.415267,-0.372266 -0.567971,-0.605988 -0.168217,-0.227593 -0.350304,-0.445939 -0.551764,-0.647211 -0.216893,-0.228666 -0.43899,-0.45491 -0.630448,-0.704063 C 49.127605,63.575596 48.922379,63.328964 48.670816,63.118687 48.383544,62.848611 48.093942,62.580104 47.827123,62.290871 47.525452,61.963313 47.234072,61.62734 46.92458,61.306606 46.670868,61.0397 46.407221,60.781072 46.121391,60.545751 45.822876,60.264686 45.55939,59.9533 45.292739,59.644416 c -0.268275,-0.318891 -0.543125,-0.632903 -0.802286,-0.958518 -0.242036,-0.306755 -0.484778,-0.614686 -0.766374,-0.889326 -0.278814,-0.269074 -0.557505,-0.53847 -0.822977,-0.819937 -0.309901,-0.33248 -0.60695,-0.67563 -0.939474,-0.98804 -0.220776,-0.241216 -0.43947,-0.484583 -0.635565,-0.745194 -0.184162,-0.222307 -0.36566,-0.44623 -0.544514,-0.672472 -0.214689,-0.243488 -0.429674,-0.48607 -0.703529,-0.671154 -0.23441,-0.182191 -0.474697,-0.3573 -0.708769,-0.539901 -0.271446,-0.191405 -0.549399,-0.375066 -0.772909,-0.621034 -0.268671,-0.257249 -0.548365,-0.503742 -0.810125,-0.767286 0,0 1.551176,0.632526 1.551176,0.632526 z"
       inkscape:connector-curvature="0"
       style="stroke-width:0.31171089" />
    <path
       id="path259"
       sodipodi:type="arc"
       sodipodi:cx="58.397324"
       sodipodi:cy="72.387642"
       sodipodi:rx="2.3623512"
       sodipodi:ry="2.3623512"
       sodipodi:start="0"
       sodipodi:end="6.2356949"
       d="m 60.759675,72.387642 a 2.3623512,2.3623512 0 0 1 -2.334305,2.362185 2.3623512,2.3623512 0 0 1 -2.389732,-2.306096 2.3623512,2.3623512 0 0 1 2.277562,-2.416942 2.3623512,2.3623512 0 0 1 2.443811,2.248706 l -2.359687,0.112147 z"
       style="stroke-width:0.26458332" />
  </g>
</svg>
