<?xml version="1.0" encoding="UTF-8" standalone="no"?>
<!-- Created with Inkscape (http://www.inkscape.org/) -->

<svg
   xmlns:dc="http://purl.org/dc/elements/1.1/"
   xmlns:cc="http://creativecommons.org/ns#"
   xmlns:rdf="http://www.w3.org/1999/02/22-rdf-syntax-ns#"
   xmlns:svg="http://www.w3.org/2000/svg"
   xmlns="http://www.w3.org/2000/svg"
   xmlns:sodipodi="http://sodipodi.sourceforge.net/DTD/sodipodi-0.dtd"
   xmlns:inkscape="http://www.inkscape.org/namespaces/inkscape"
   width="210mm"
   height="297mm"
   viewBox="0 0 210 297"
   version="1.1"
   id="svg125"
   inkscape:version="0.92.4 (5da689c313, 2019-01-14)"
   sodipodi:docname="Update Inform Remake.svg">
  <defs
     id="defs119" />
  <sodipodi:namedview
     id="base"
     pagecolor="#ffffff"
     bordercolor="#666666"
     borderopacity="1.0"
     inkscape:pageopacity="0.0"
     inkscape:pageshadow="2"
     inkscape:zoom="0.7"
     inkscape:cx="565.96902"
     inkscape:cy="559.88386"
     inkscape:document-units="mm"
     inkscape:current-layer="layer1"
     showgrid="false"
     inkscape:window-width="1920"
     inkscape:window-height="1001"
     inkscape:window-x="-9"
     inkscape:window-y="-9"
     inkscape:window-maximized="1" />
  <metadata
     id="metadata122">
    <rdf:RDF>
      <cc:Work
         rdf:about="">
        <dc:format>image/svg+xml</dc:format>
        <dc:type
           rdf:resource="http://purl.org/dc/dcmitype/StillImage" />
        <dc:title></dc:title>
      </cc:Work>
    </rdf:RDF>
  </metadata>
  <g
     inkscape:label="Layer 1"
     inkscape:groupmode="layer"
     id="layer1">
    <text
       xml:space="preserve"
       style="font-style:normal;font-weight:normal;font-size:10.58333302px;line-height:1.25;font-family:sans-serif;letter-spacing:0px;word-spacing:0px;fill:#000000;fill-opacity:1;stroke:none;stroke-width:0.26458332"
       x="8.6934528"
       y="12.383929"
       id="text129"><tspan
         sodipodi:role="line"
         id="tspan127"
         x="8.6934528"
         y="12.383929"
         style="stroke-width:0.26458332">Update/Inform/Remake</tspan><tspan
         sodipodi:role="line"
         x="8.6934528"
         y="25.613096"
         style="stroke-width:0.26458332"
         id="tspan131">Flexable Base</tspan><tspan
         sodipodi:role="line"
         x="8.6934528"
         y="38.842262"
         style="stroke-width:0.26458332"
         id="tspan133">Root Word:Update</tspan></text>
    <g
       id="g145"
       transform="matrix(4.0281834,0,0,4.0281834,-124.27426,-185.12939)">
      <path
         style="stroke-width:0.26458332"
         inkscape:connector-curvature="0"
         d="m 60.355246,62.159419 c -0.374496,0.399023 -0.676841,0.857586 -1.005318,1.29349 -0.284761,0.387379 -0.54202,0.793538 -0.815507,1.188595 -0.20406,0.260311 -0.418875,0.511186 -0.643739,0.753645 -0.280056,0.354912 -0.550543,0.711618 -0.863497,1.039217 -0.368123,0.333965 -0.679072,0.718428 -0.991637,1.102802 -0.30162,0.353607 -0.584071,0.722572 -0.882727,1.078653 -0.273272,0.338341 -0.596947,0.629243 -0.933654,0.902536 -0.330192,0.25169 -0.646633,0.51993 -0.95283,0.800105 -0.339056,0.322879 -0.673801,0.649428 -1.023546,0.960808 -0.330907,0.273193 -0.698463,0.496636 -1.047451,0.745885 -0.456041,0.312173 -0.925169,0.604776 -1.394529,0.896371 -0.361236,0.234066 -0.72776,0.459279 -1.086416,0.69733 -0.355693,0.245851 -0.703083,0.50359 -1.059037,0.749086 -0.26203,0.18837 -0.543206,0.343554 -0.836705,0.476067 -0.266872,0.110252 -0.522743,0.244944 -0.77891,0.37773 -0.248489,0.157033 -0.168846,0.266301 -0.02827,0.470739 0.191434,0.276844 0.4542,0.480891 0.710001,0.693245 0.266489,0.192887 0.547225,0.364178 0.81306,0.557692 0.04426,0.03508 0.08913,0.06942 0.132786,0.105251 0.121939,0.100092 0.136046,0.125455 0.268534,0.208912 0.0443,0.02791 0.1827,0.102381 0.137514,0.07593 -1.562348,-0.914622 -2.113806,-1.177639 -1.432922,-0.847731 0.291825,0.12631 0.57387,0.272812 0.861811,0.407586 0.296826,0.135361 0.58991,0.278646 0.884994,0.4177 0.331206,0.146487 0.664747,0.286245 1.005647,0.408546 0.896887,0.288047 1.625391,0.841113 2.461956,1.305324 0.513482,0.284936 -1.017759,-0.586157 -1.525471,-0.881247 -0.05036,-0.02927 0.102246,0.05584 0.153371,0.08376 0.334349,0.181308 0.680442,0.331782 1.036929,0.462973 0.552709,0.2076 1.099005,0.431673 1.649473,0.645028 0.548508,0.181808 1.073705,0.413745 1.584571,0.682 0.35987,0.198962 0.734502,0.366308 1.107644,0.53779 0.310613,0.137848 0.618738,0.281038 0.925763,0.426656 0.272955,0.131276 0.543269,0.267899 0.814872,0.401916 0.333153,0.17331 0.685692,0.304519 1.021906,0.471397 4.819073,2.803012 0.419983,0.245512 0.315007,0.1841 -0.0541,-0.03165 0.109485,0.06104 0.164587,0.0909 0.15793,0.08559 0.317947,0.166177 0.479507,0.244621 0.0648,0.0288 0.276405,0.120952 0.338037,0.155937 0.620821,0.352412 1.233953,0.718297 1.85597,1.068592 0.516583,0.290922 -2.0374,-1.212557 -1.539658,-0.890456 0.633955,0.410247 1.314511,0.745263 1.948751,1.155071 -0.346464,-0.16405 0.700098,0.426865 0.356989,0.229325 -2.790899,-1.606825 -1.927185,-1.109676 -1.324953,-0.774761 0.267893,0.153998 0.555696,0.267031 0.832289,0.403233 0.242922,0.134704 0.498036,0.243194 0.751938,0.354922 0.87431,0.36712 1.632701,0.901901 2.389333,1.446562 0.139467,0.0668 0.259199,0.165367 0.388038,0.248722 0.0434,0.02808 0.178519,0.104285 0.133831,0.07832 -2.326791,-1.352182 -1.90777,-1.107575 0.252132,0.137261 -4.179311,-2.418834 0.148643,0.08631 0.223144,0.129162 0.530011,0.304826 -2.107647,-1.240261 -1.587216,-0.919353 0.563612,0.347538 1.376902,0.743891 2.002541,1.181512 0.596685,0.332563 1.411623,0.833864 -1.360588,-0.78968 -0.03798,-0.02225 0.07771,0.04148 0.117779,0.05968 0.08937,0.04059 0.158909,0.06172 0.252095,0.09355 0,0 1.564963,1.222735 1.564963,1.222735 v 0 c -0.12251,-0.04747 -0.272733,-0.0667 -0.387144,-0.130805 -0.673563,-0.377391 -1.376204,-0.76082 -2.038522,-1.17961 -0.132789,-0.08379 -0.24243,-0.152681 -0.201469,-0.129381 0.534043,0.303794 2.131835,1.222761 1.59853,0.917675 -6.018533,-3.443002 3.97296,2.276885 -2.037368,-1.169678 0.527735,0.302697 2.113311,1.206617 1.583205,0.90809 -0.793255,-0.44672 -1.597421,-0.873615 -2.349232,-1.38688 -0.121605,-0.08585 -0.239072,-0.178864 -0.363411,-0.260723 -0.03764,-0.02479 -0.154506,-0.0928 -0.115379,-0.07045 1.712174,0.978231 2.131893,1.192615 1.483545,0.858232 -0.236024,-0.14845 -0.515517,-0.207333 -0.749419,-0.361744 -0.278294,-0.133672 -0.561689,-0.254976 -0.834716,-0.399587 -0.846396,-0.400745 -1.650179,-0.898419 -2.429565,-1.418822 -0.0402,-0.02719 -0.16287,-0.105455 -0.12061,-0.08158 0.522023,0.294862 2.074944,1.202269 1.560269,0.894768 -0.61041,-0.364696 -1.237375,-0.701212 -1.847501,-1.066382 -0.506407,-0.303088 1.025017,0.585317 1.53629,0.880121 0.106661,0.0615 -0.429998,-0.241345 -0.330631,-0.164659 -1.189152,-0.468331 -4.4752,-2.616266 -0.968735,-0.506954 -0.324247,-0.188648 -0.676455,-0.315879 -1.017104,-0.47103 -0.265644,-0.145714 -0.542094,-0.271545 -0.813964,-0.404905 -0.300659,-0.159573 -0.614174,-0.295019 -0.925121,-0.432962 -0.374486,-0.179112 -0.759259,-0.334034 -1.122423,-0.536847 -0.50764,-0.273569 -1.019776,-0.535864 -1.574117,-0.704453 -0.548061,-0.208201 -1.09006,-0.432036 -1.63821,-0.640078 -0.357344,-0.130111 -0.715074,-0.251719 -1.047528,-0.440079 -0.772896,-0.37388 -0.489373,-0.231907 -2.018787,-1.150299 -0.499837,-0.300146 1.013476,0.576709 1.518238,0.8685 0.0599,0.03463 -0.121177,-0.06701 -0.183558,-0.09696 -0.16415,-0.07881 -0.219038,-0.09302 -0.390138,-0.153469 C 50.60887,78.822025 50.272092,78.691477 49.942966,78.539117 49.637193,78.424526 49.35316,78.257428 49.05503,78.124274 48.761726,77.999647 48.485837,77.844408 48.192163,77.722914 47.307764,77.302296 46.453305,76.8263 45.690239,76.216625 45.41739,76.031867 45.140673,75.851522 44.884649,75.64344 44.622555,75.420502 44.368039,75.184073 44.20004,74.878815 44.069283,74.56684 44.0945,74.347614 44.376279,74.135913 c 0.253208,-0.144923 0.521914,-0.26988 0.78817,-0.388527 0.284077,-0.131638 0.570573,-0.257091 0.82338,-0.446577 0.363223,-0.236207 0.709629,-0.497869 1.065588,-0.744768 0.358627,-0.243237 0.722194,-0.47688 1.09174,-0.703225 0.468014,-0.284719 0.936151,-0.569556 1.383808,-0.886034 0.342881,-0.249537 0.698696,-0.477259 1.041006,-0.726549 0.350199,-0.308816 0.678293,-0.638728 1.014404,-0.962528 0.30884,-0.283744 0.627404,-0.556392 0.962152,-0.809392 0.329565,-0.262445 0.645795,-0.543528 0.913887,-0.869966 0.300021,-0.353782 0.580549,-0.723283 0.885872,-1.072652 0.315894,-0.388469 0.620705,-0.785606 0.99903,-1.117399 0.314211,-0.324885 0.579853,-0.682247 0.851382,-1.042406 0.218818,-0.23622 0.42669,-0.481491 0.633793,-0.727969 0.279112,-0.394824 0.545089,-0.798819 0.828667,-1.190612 0.336939,-0.433466 0.637201,-0.895268 0.995984,-1.311846 0,0 1.700104,1.023956 1.700104,1.023956 z"
         id="path137" />
      <path
         style="stroke-width:0.26458332"
         inkscape:connector-curvature="0"
         d="m 41.039216,81.075426 c 0.362995,0.202517 0.738457,0.380928 1.102659,0.581313 0.449474,0.26194 0.898946,0.52388 1.34842,0.785823 0.05139,0.03251 0.10205,0.0662 0.154165,0.09753 0.222805,0.133959 0.06965,0.03116 0.281196,0.164103 0.04187,0.0263 0.16677,0.10619 0.12386,0.08162 -0.357738,-0.204825 -0.712375,-0.415012 -1.068565,-0.622517 0.249954,0.133747 0.521057,0.218384 0.78101,0.329372 0.283797,0.139634 0.564793,0.285168 0.846609,0.428902 0.256989,0.141677 0.519133,0.269889 0.791884,0.37809 0.246878,0.09069 0.487857,0.196117 0.731798,0.294145 0.271833,0.09447 0.523407,0.23163 0.777684,0.36412 0.289682,0.1377 0.578179,0.278162 0.86908,0.413311 0.54111,0.263252 1.052161,0.595024 1.571554,0.890817 0.363696,0.207127 -1.450364,-0.836181 -1.086562,-0.629247 0.317296,0.18048 2.878849,1.665403 0.207012,0.117316 0.193416,0.109085 0.392724,0.207086 0.588421,0.311867 0.232526,0.112448 0.469429,0.21726 0.709279,0.31324 0.644141,0.230428 1.196551,0.621654 1.790356,0.967261 0.414933,0.247507 1.008999,0.600414 -0.936845,-0.541864 -0.0321,-0.01884 0.06622,0.03404 0.09943,0.05087 0.119812,0.06075 0.0732,0.03827 0.193974,0.09156 0.209675,0.08219 0.413822,0.17671 0.612855,0.281848 0.429638,0.251539 0.859303,0.503025 1.288909,0.754612 1.045853,0.612476 -4.064275,-2.355918 0.297834,0.173829 0.36363,0.210884 -0.727684,-0.421034 -1.09098,-0.632492 -0.03546,-0.02064 0.07164,0.04002 0.107463,0.06003 0.742436,0.273053 1.216083,0.705837 1.7952,1.146051 -0.338288,-0.161383 0.660689,0.392724 0.330544,0.201671 -1.939467,-1.122355 -1.313214,-0.749202 -0.88248,-0.521888 0.192674,0.08814 0.389024,0.167899 0.582834,0.253571 0.177814,0.08953 0.369171,0.146767 0.558811,0.205224 0.195215,0.05366 0.381296,0.133892 0.57145,0.20234 0.212082,0.08187 0.428749,0.150728 0.642934,0.226632 0.244563,0.08966 0.484138,0.193029 0.723715,0.295256 0.609722,0.250074 1.147458,0.621763 1.726618,0.941322 0.371928,0.205216 -0.735446,-0.425321 -1.103169,-0.637982 3.28673,1.902214 0.34263,0.19858 0.19023,0.109378 -0.0295,-0.01728 0.06048,0.03188 0.0912,0.04685 0.09144,0.04454 0.184608,0.08508 0.278937,0.122994 0.198776,0.07055 0.394264,0.149603 0.58401,0.241694 0.209732,0.103235 0.416898,0.211172 0.6277,0.312296 0.196982,0.09426 0.392628,0.191257 0.588801,0.287181 0.1895,0.09392 0.378224,0.189405 0.567841,0.283091 0.187581,0.09197 0.371753,0.191201 0.562123,0.277321 0.514204,0.261249 1.713722,0.358925 1.524598,1.011504 -0.123031,0.162989 -0.340739,0.181367 -0.522092,0.250847 -0.203139,0.07301 -0.41057,0.133146 -0.618741,0.18992 -0.216493,0.06982 -0.420436,0.17136 -0.624599,0.270314 -0.228307,0.09228 -0.429155,0.232053 -0.639956,0.356352 -0.192609,0.119369 -0.389784,0.228285 -0.594778,0.324815 -0.201189,0.09035 -0.385458,0.212371 -0.576654,0.321011 -0.209688,0.111549 -0.423326,0.215027 -0.623946,0.342699 -0.158935,0.117317 -0.328813,0.207574 -0.513016,0.277157 -0.191225,0.0658 -0.376571,0.142671 -0.548283,0.249788 -0.170484,0.123504 -0.370338,0.191124 -0.559038,0.279683 -0.165127,0.07672 -0.314648,0.180617 -0.461987,0.286424 -0.152855,0.107974 -0.300154,0.22334 -0.450561,0.334643 -0.167111,0.113707 -0.343892,0.212029 -0.516941,0.316301 -0.174953,0.08739 -0.341645,0.188738 -0.5051,0.29568 -0.198953,0.139285 -0.405714,0.266787 -0.618011,0.384582 -0.15734,0.09604 -0.315142,0.191119 -0.468606,0.293246 -0.208333,0.114213 -0.415618,0.228539 -0.611738,0.363315 -0.165965,0.113483 -0.331419,0.227455 -0.496787,0.341813 -0.158826,0.11553 -0.309586,0.241445 -0.465314,0.361034 -0.184545,0.144989 -0.351042,0.310476 -0.530614,0.461674 -0.162806,0.138481 -0.348253,0.245706 -0.527365,0.36103 -0.172831,0.11085 -0.331872,0.240651 -0.503759,0.353068 -0.161954,0.101324 -0.325533,0.199527 -0.491186,0.294579 -0.151902,0.09044 -0.304154,0.180321 -0.465203,0.253534 -0.153639,0.07641 -0.306732,0.153122 -0.461709,0.226727 -0.159948,0.08213 -0.318624,0.166748 -0.477925,0.250145 -0.167955,0.07899 -0.334899,0.159327 -0.499784,0.244761 -0.176668,0.09287 -0.354124,0.184267 -0.53262,0.273577 -0.19513,0.0967 -0.378283,0.21496 -0.561909,0.33142 -0.187327,0.0967 -0.379915,0.18554 -0.573251,0.27026 -0.204214,0.0876 -0.398785,0.19678 -0.58924,0.31082 -0.265888,0.17741 -0.547384,0.33001 -0.825252,0.48758 -0.223615,0.1192 -0.444299,0.24458 -0.656881,0.38261 -0.184899,0.10235 -0.32885,0.25835 -0.499668,0.37989 -0.143121,0.11277 -0.307446,0.19223 -0.465624,0.28101 -0.140978,0.0733 -0.273333,0.16144 -0.412687,0.23746 0,0 -1.174549,-0.77227 -1.174549,-0.77227 v 0 c 0.143595,-0.066 0.271113,-0.15985 0.41116,-0.23284 0.156662,-0.0833 0.315749,-0.16616 0.459208,-0.27032 0.17943,-0.11141 0.313354,-0.28009 0.502023,-0.37881 0.212715,-0.14448 0.437833,-0.27121 0.666644,-0.38823 0.276294,-0.15598 0.559393,-0.30252 0.81937,-0.48528 0.192974,-0.12189 0.39198,-0.2348 0.598607,-0.331709 0.191516,-0.07345 0.370583,-0.175623 0.561594,-0.250272 0.189579,-0.11479 0.371602,-0.242311 0.568928,-0.344226 0.179964,-0.08429 0.354798,-0.179575 0.530074,-0.272965 0.166246,-0.08052 0.325562,-0.174207 0.498501,-0.240398 0.157435,-0.08784 0.318741,-0.168651 0.477605,-0.253614 0.152731,-0.08452 0.319503,-0.143375 0.469117,-0.235492 0.160351,-0.06049 0.303916,-0.151929 0.452112,-0.236699 0.160388,-0.102611 0.33488,-0.183428 0.492929,-0.29096 0.176321,-0.106283 0.332277,-0.239358 0.502367,-0.354623 0.177964,-0.10727 0.357378,-0.214982 0.520798,-0.343789 0.185132,-0.14732 0.347986,-0.316699 0.530149,-0.466961 0.157088,-0.121293 0.312724,-0.243472 0.468278,-0.366696 0.164637,-0.116695 0.33271,-0.227124 0.500409,-0.339374 0.193897,-0.138586 0.398896,-0.26086 0.610055,-0.370607 0.159528,-0.100237 0.317031,-0.203073 0.47834,-0.300942 0.212315,-0.108908 0.416272,-0.235008 0.610679,-0.373253 0.1636,-0.110622 0.326623,-0.223592 0.508485,-0.302702 0.171045,-0.0981 0.337335,-0.204171 0.5071,-0.304464 0.150773,-0.113191 0.301583,-0.225195 0.452334,-0.338368 0.154546,-0.105632 0.302364,-0.223808 0.473403,-0.30285 0.180079,-0.09742 0.383305,-0.146854 0.552723,-0.265181 0.173889,-0.119232 0.360799,-0.212026 0.562295,-0.27554 0.174858,-0.0704 0.349152,-0.129622 0.49825,-0.251539 0.199911,-0.135752 0.418383,-0.23922 0.631759,-0.351552 0.197459,-0.102769 0.377844,-0.237244 0.580729,-0.331025 0.2053,-0.08827 0.40105,-0.193017 0.589679,-0.312857 0.217927,-0.11784 0.412666,-0.273595 0.644176,-0.365808 0.211873,-0.0977 0.418306,-0.207073 0.637675,-0.288094 0.202843,-0.06324 0.409554,-0.112977 0.611068,-0.181096 0.125984,-0.04869 0.300093,-0.152191 0.436888,-0.124511 -0.02622,-0.0056 -0.0092,-0.0011 -0.04946,-0.01857 0.382185,0.219268 0.764371,0.438538 1.146556,0.657807 0.02692,0.01537 -0.05151,-0.03491 -0.07944,-0.04835 -0.06149,-0.02959 -0.131165,-0.04027 -0.189085,-0.07846 -0.199197,-0.07035 -0.379476,-0.179491 -0.571225,-0.266875 -0.18543,-0.101695 -0.378359,-0.189484 -0.567639,-0.283567 -0.19195,-0.104529 -0.391827,-0.194374 -0.588608,-0.289221 -0.207428,-0.108424 -0.421908,-0.202719 -0.628095,-0.312349 -0.185454,-0.0966 -0.374846,-0.181724 -0.571021,-0.254132 -0.876657,-0.268282 -3.01838,-1.763938 -0.576315,-0.261485 -0.432271,-0.24864 -0.867069,-0.49294 -1.296813,-0.745922 -0.365284,-0.215032 0.736277,0.420217 1.10341,0.632072 0.250301,0.144436 -0.656574,-0.357185 -0.424558,-0.200375 -0.23367,-0.11104 -0.476814,-0.200588 -0.713835,-0.30344 -0.215567,-0.07319 -0.429356,-0.150886 -0.6457,-0.221377 -0.183986,-0.07913 -0.375999,-0.139099 -0.561925,-0.213796 -0.1954,-0.04796 -0.387964,-0.112758 -0.574807,-0.186399 -0.189026,-0.09719 -0.387842,-0.174644 -0.585338,-0.252616 -0.643504,-0.301681 -1.261038,-0.668174 -1.844384,-1.07414 -0.444256,-0.341013 -1.432655,-1.057365 0.595284,0.253947 -0.49167,-0.28748 -0.657813,-0.384982 -1.412365,-0.812625 -0.365355,-0.207068 1.453674,0.841766 1.091637,0.628951 -0.431747,-0.253793 -0.867913,-0.500001 -1.300774,-0.75189 -0.03039,-0.01767 -0.119441,-0.07417 -0.08889,-0.05678 0.370687,0.210958 0.73959,0.42503 1.109382,0.637543 -0.191928,-0.116597 -0.394049,-0.209979 -0.600665,-0.297609 -0.105566,-0.03655 -0.204128,-0.07701 -0.30159,-0.132223 -0.488363,-0.276653 -0.992421,-0.539207 -1.466583,-0.844494 2.117259,1.212054 1.141703,0.607134 0.621948,0.405773 -0.246996,-0.08371 -0.478361,-0.205126 -0.721908,-0.29799 -0.195095,-0.105997 -0.394102,-0.203472 -0.58779,-0.311774 -0.434007,-0.248531 -0.864928,-0.502526 -1.302017,-0.745599 -0.367239,-0.204226 1.457073,0.837931 1.092454,0.629058 -4.252897,-2.436262 0.959466,0.543036 -0.478383,-0.273907 -0.298997,-0.121074 -0.579257,-0.284692 -0.877609,-0.408239 -0.252749,-0.128993 -0.495621,-0.278932 -0.766062,-0.369261 -0.241879,-0.104878 -0.487124,-0.202655 -0.733118,-0.297756 -0.272343,-0.110221 -0.547851,-0.211889 -0.798605,-0.368832 -0.28411,-0.138756 -0.564692,-0.28506 -0.843293,-0.434615 -0.258509,-0.118232 -0.526987,-0.205518 -0.787263,-0.31908 -0.440724,-0.253868 -0.882181,-0.506471 -1.322175,-0.761603 -0.13488,-0.07821 -0.268251,-0.161314 -0.401106,-0.242964 -0.05159,-0.0317 -0.206857,-0.125881 -0.154112,-0.09615 0.34516,0.194553 0.687655,0.393793 1.031481,0.59069 -0.357116,-0.205957 -0.728388,-0.383693 -1.093338,-0.57486 0,0 -1.090795,-0.880332 -1.090795,-0.880332 z"
         id="path141" />
    </g>
  </g>
</svg>
