<?xml version="1.0" encoding="UTF-8" standalone="no"?>
<!-- Created with Inkscape (http://www.inkscape.org/) -->

<svg
   xmlns:dc="http://purl.org/dc/elements/1.1/"
   xmlns:cc="http://creativecommons.org/ns#"
   xmlns:rdf="http://www.w3.org/1999/02/22-rdf-syntax-ns#"
   xmlns:svg="http://www.w3.org/2000/svg"
   xmlns="http://www.w3.org/2000/svg"
   xmlns:sodipodi="http://sodipodi.sourceforge.net/DTD/sodipodi-0.dtd"
   xmlns:inkscape="http://www.inkscape.org/namespaces/inkscape"
   width="210mm"
   height="297mm"
   viewBox="0 0 210 297"
   version="1.1"
   id="svg59"
   inkscape:version="0.92.4 (5da689c313, 2019-01-14)"
   sodipodi:docname="Water Wet Ocean.svg">
  <defs
     id="defs53" />
  <sodipodi:namedview
     id="base"
     pagecolor="#ffffff"
     bordercolor="#666666"
     borderopacity="1.0"
     inkscape:pageopacity="0.0"
     inkscape:pageshadow="2"
     inkscape:zoom="0.49497475"
     inkscape:cx="1082.3876"
     inkscape:cy="428.70056"
     inkscape:document-units="mm"
     inkscape:current-layer="layer1"
     showgrid="false"
     inkscape:window-width="1920"
     inkscape:window-height="1001"
     inkscape:window-x="-9"
     inkscape:window-y="-9"
     inkscape:window-maximized="1" />
  <metadata
     id="metadata56">
    <rdf:RDF>
      <cc:Work
         rdf:about="">
        <dc:format>image/svg+xml</dc:format>
        <dc:type
           rdf:resource="http://purl.org/dc/dcmitype/StillImage" />
        <dc:title></dc:title>
      </cc:Work>
    </rdf:RDF>
  </metadata>
  <g
     inkscape:label="Layer 1"
     inkscape:groupmode="layer"
     id="layer1">
    <text
       xml:space="preserve"
       style="font-style:normal;font-weight:normal;font-size:10.58333302px;line-height:1.25;font-family:sans-serif;letter-spacing:0px;word-spacing:0px;fill:#000000;fill-opacity:1;stroke:none;stroke-width:0.26458332"
       x="9.3544331"
       y="13.159761"
       id="text63"><tspan
         sodipodi:role="line"
         id="tspan61"
         x="9.3544331"
         y="13.159761"
         style="stroke-width:0.26458332">Water/Wet/Ocean</tspan><tspan
         sodipodi:role="line"
         x="9.3544331"
         y="26.388927"
         style="stroke-width:0.26458332"
         id="tspan65">Base Word: Ocean</tspan><tspan
         sodipodi:role="line"
         x="9.3544331"
         y="39.618095"
         style="stroke-width:0.26458332"
         id="tspan67">Flexible Base</tspan></text>
    <g
       id="g112"
       transform="matrix(2.8785945,0,0,2.8785945,-41.905853,-217.88026)">
      <path
         style="stroke-width:0.26458332"
         inkscape:connector-curvature="0"
         d="m 19.215997,125.61912 c 0.236046,-0.23178 0.468028,-0.46698 0.696951,-0.70566 0.152177,-0.1825 0.32155,-0.3489 0.486851,-0.51923 0.175483,-0.19073 0.352321,-0.38014 0.532098,-0.56684 0.172781,-0.18205 0.351995,-0.35756 0.539882,-0.52394 0.132853,-0.12334 0.241484,-0.268 0.36775,-0.39799 0.141523,-0.14726 0.275454,-0.30216 0.409032,-0.45686 0.122154,-0.14574 0.2466,-0.2913 0.350737,-0.45082 0.124611,-0.16284 0.209899,-0.34837 0.312937,-0.52427 0.11752,-0.19275 0.209032,-0.3981 0.303826,-0.60235 0.107307,-0.23868 0.225915,-0.47116 0.355274,-0.69865 0.106919,-0.20397 0.22546,-0.40249 0.354603,-0.5932 0.141094,-0.1903 0.273772,-0.3866 0.412557,-0.57855 0.131557,-0.19976 0.281966,-0.38681 0.430431,-0.57429 0.146294,-0.17474 0.279055,-0.36033 0.40784,-0.54819 0.139432,-0.19875 0.303314,-0.37791 0.452184,-0.56938 0.129868,-0.18511 0.247949,-0.37799 0.376472,-0.56393 0.143221,-0.18829 0.292067,-0.37259 0.426926,-0.5671 0.134615,-0.18019 0.253151,-0.37043 0.368687,-0.56309 0.13136,-0.19929 0.281474,-0.38491 0.417404,-0.58121 0.166518,-0.21506 0.34572,-0.42001 0.51432,-0.6335 0.162838,-0.22043 0.324777,-0.44234 0.481465,-0.66731 0.125315,-0.19046 0.278869,-0.35966 0.429491,-0.53011 0.128611,-0.14717 0.25573,-0.29585 0.381674,-0.44537 0.129553,-0.14764 0.238734,-0.31088 0.360905,-0.46446 0.144222,-0.17751 0.299556,-0.34517 0.448395,-0.51857 0.120766,-0.13299 0.236397,-0.26985 0.365122,-0.39541 0.116287,-0.11127 0.222615,-0.2318 0.331015,-0.35066 0.124524,-0.15818 0.265867,-0.30225 0.403561,-0.44887 0.09551,-0.12201 0.22016,-0.21975 0.307046,-0.34822 0.09453,-0.12431 0.195848,-0.24313 0.292942,-0.36553 0.08939,-0.13265 0.184467,-0.26194 0.291803,-0.38068 0.08638,-0.12542 0.189529,-0.23717 0.285856,-0.35504 0.118203,-0.12642 0.219403,-0.26694 0.31881,-0.4082 0.100113,-0.11597 0.164587,-0.25102 0.287732,-0.34544 0.493686,-0.23335 1.28928,0.5919 1.446241,0.68197 0.05685,0.0326 0.05038,0.0349 0.09214,0.0873 0.06834,0.12845 0.190651,0.2031 0.270674,0.32755 0.107387,0.11586 0.201261,0.24181 0.303506,0.3631 0.106103,0.1701 0.233162,0.32494 0.345419,0.49027 0.08829,0.14639 0.173855,0.29489 0.262107,0.44197 0.112236,0.12522 0.19249,0.27305 0.287946,0.41119 0.07667,0.13177 0.164838,0.26707 0.280046,0.36852 0.112948,0.13493 0.216815,0.2793 0.337372,0.40704 0.10263,0.12028 0.200795,0.25189 0.323864,0.35208 0.08988,0.10827 0.2037,0.18484 0.268277,0.31277 0.08852,0.11148 0.17009,0.22691 0.261582,0.33755 0.127747,0.14036 0.225023,0.30754 0.364848,0.43671 0.134733,0.13525 0.267697,0.27241 0.393991,0.41614 0.118626,0.1689 0.234402,0.34304 0.370363,0.49826 0.09843,0.1349 0.216684,0.25058 0.32243,0.37975 0.09891,0.14033 0.220577,0.26238 0.323006,0.39941 0.07067,0.041 0.0936,0.11157 0.135212,0.17494 0.04071,0.062 0.09767,0.11045 0.139356,0.17295 0.07934,0.14952 0.196742,0.28686 0.3155,0.40762 0.111191,0.15087 0.234603,0.29173 0.342225,0.44466 0.120653,0.13477 0.233069,0.27706 0.356024,0.4108 0.119025,0.14155 0.229637,0.29672 0.369361,0.41873 0.09535,0.10719 0.197813,0.20269 0.289634,0.31394 0.123505,0.11815 0.235693,0.24413 0.330398,0.3872 0.115737,0.11849 0.229815,0.2392 0.336288,0.36589 0.105677,0.10755 0.226907,0.20256 0.321826,0.31985 0.112834,0.0965 0.200975,0.22577 0.28194,0.34984 0.105865,0.10736 0.197332,0.22571 0.296056,0.34061 0.100137,0.16434 0.241077,0.29415 0.343969,0.45687 0.115244,0.11187 0.191055,0.26361 0.289197,0.38437 0.07334,0.10981 0.157451,0.22285 0.261181,0.30625 0.100592,0.13126 0.210373,0.25438 0.305419,0.38928 0.06212,0.0792 0.150953,0.14055 0.205126,0.22593 0.08825,0.13906 -0.01841,0.006 0.07913,0.12041 0.02516,0.0766 0.0814,0.0961 0.138928,0.13875 0.0596,0.0442 0.102404,0.10067 0.164991,0.14307 0.139293,0.1174 0.212098,0.28629 0.321689,0.42665 0.103245,0.12732 0.183224,0.27631 0.289848,0.40083 0.08248,0.1339 0.200988,0.23861 0.301096,0.35803 0.123222,0.0879 0.174908,0.23531 0.281067,0.33925 0.106111,0.12823 0.167463,0.28535 0.266258,0.41769 0.126632,0.14676 0.223446,0.31732 0.350277,0.4636 0.110902,0.13919 0.241228,0.27621 0.372012,0.39759 0.304075,0.35618 1.534951,0.9684 -0.835636,-0.4154 3.418466,1.9876 0.08354,0.0434 0.121933,0.0704 0.398065,0.27976 0.837985,0.49464 1.256485,0.7428 0.01934,0.0115 0.07651,0.0474 0.05705,0.0361 -1.237355,-0.71787 -1.526323,-0.87239 -1.073459,-0.62865 3.474132,2.01655 0.10379,0.0618 0.156091,0.092 0.429037,0.24776 0.85739,0.4967 1.285906,0.74535 0.371105,0.21534 -1.480492,-0.86793 -1.11366,-0.6454 1.435132,0.8706 0.895797,0.41938 1.355119,0.81008 0.152096,0.0785 0.281821,0.18827 0.423183,0.28197 0.110085,0.10539 0.229901,0.19845 0.326099,0.31809 0.01302,0.0241 0.02604,0.0481 0.03904,0.0722 0,0 -1.28982,-0.56252 -1.28982,-0.56252 v 0 c -0.01564,-0.0178 -0.03128,-0.0357 -0.04693,-0.0535 -0.108227,-0.1019 -0.216283,-0.20448 -0.33742,-0.29117 -0.134411,-0.10274 -0.286165,-0.17959 -0.418727,-0.28509 -0.02627,-0.0179 -0.106447,-0.0692 -0.0788,-0.0536 0.375253,0.21234 1.495729,0.85864 1.121894,0.64381 -0.429842,-0.24702 -0.85706,-0.49868 -1.289921,-0.74037 -0.375062,-0.20943 1.486078,0.86254 1.116521,0.64355 -0.301998,-0.17896 -2.900871,-1.673 -0.153355,-0.0923 -0.471358,-0.2651 -0.432708,-0.24301 -1.332529,-0.7693 -0.01974,-0.0116 -0.07507,-0.0521 -0.05518,-0.0408 0.383783,0.21828 1.526476,0.88809 1.147265,0.66196 -0.31741,-0.18927 -2.887901,-1.66468 -0.119542,-0.074 -0.602742,-0.34837 -1.127259,-0.5298 -1.559544,-1.00424 -0.124343,-0.1352 -0.261924,-0.25849 -0.365077,-0.41193 -0.114882,-0.1589 -0.233452,-0.3151 -0.34676,-0.4751 -0.08253,-0.14058 -0.166368,-0.28118 -0.275098,-0.40359 -0.08458,-0.11996 -0.174035,-0.23415 -0.281303,-0.33488 -0.109299,-0.11399 -0.203337,-0.2414 -0.296259,-0.36883 -0.09179,-0.1376 -0.195574,-0.26616 -0.287239,-0.40384 -0.09491,-0.14562 -0.195469,-0.28795 -0.33835,-0.39109 -0.106492,-0.0983 -0.21827,-0.18717 -0.29116,-0.3155 -0.0824,-0.12445 -0.193916,-0.22472 -0.282567,-0.34476 -0.102701,-0.12594 -0.198541,-0.25851 -0.315479,-0.37206 -0.08801,-0.10622 -0.178861,-0.20977 -0.251198,-0.32798 -0.08495,-0.13564 -0.195876,-0.25195 -0.285742,-0.38445 -0.1152,-0.1496 -0.238011,-0.29311 -0.350202,-0.44502 -0.09805,-0.11697 -0.202409,-0.22857 -0.29268,-0.3518 -0.09146,-0.11633 -0.178644,-0.23487 -0.290041,-0.3336 -0.11067,-0.10244 -0.213916,-0.21298 -0.318636,-0.32144 -0.115958,-0.1212 -0.225369,-0.24973 -0.331983,-0.3789 -0.106884,-0.1307 -0.21985,-0.25361 -0.335325,-0.37683 -0.09509,-0.10411 -0.198424,-0.20035 -0.292894,-0.30518 -0.12157,-0.14057 -0.244295,-0.2801 -0.362905,-0.42324 -0.121981,-0.13774 -0.238529,-0.28015 -0.353396,-0.42378 -0.11508,-0.14487 -0.223869,-0.29495 -0.346657,-0.4336 -0.109622,-0.13618 -0.223491,-0.26828 -0.312147,-0.41964 -0.09392,-0.11347 -0.174083,-0.23661 -0.277051,-0.34256 -0.112725,-0.12846 -0.211066,-0.26855 -0.323802,-0.39704 -0.107855,-0.12555 -0.221525,-0.24622 -0.318453,-0.38094 -0.122951,-0.16518 -0.244435,-0.33197 -0.374367,-0.49157 -0.129632,-0.13992 -0.262194,-0.27716 -0.395509,-0.41357 -0.121859,-0.14796 -0.238329,-0.30027 -0.361112,-0.44751 -0.08869,-0.11487 -0.178059,-0.22896 -0.259199,-0.34932 -0.08933,-0.0986 -0.188436,-0.18805 -0.279632,-0.28497 -0.10618,-0.11995 -0.216834,-0.23594 -0.315937,-0.36213 -0.110543,-0.13758 -0.225475,-0.27183 -0.342291,-0.40404 -0.09649,-0.12501 -0.19005,-0.25153 -0.27001,-0.38813 -0.09269,-0.14091 -0.188444,-0.2795 -0.283358,-0.41877 -0.08405,-0.14651 -0.175578,-0.28855 -0.266613,-0.43074 -0.118004,-0.15932 -0.226676,-0.32561 -0.350144,-0.48084 -0.100399,-0.12342 -0.204261,-0.24372 -0.302591,-0.3688 -0.09373,-0.10279 -0.192902,-0.1999 -0.282289,-0.30551 -0.410178,-0.26242 -0.910111,-0.52055 1.06504,0.59213 0.02738,0.0154 -0.04811,-0.0417 -0.07661,-0.0549 -0.01238,-0.006 -0.0272,-0.003 -0.04081,-0.004 -0.131692,0.0358 -0.156716,0.21064 -0.2583,0.29046 -0.100798,0.1436 -0.202946,0.28782 -0.32403,0.41528 -0.09629,0.1226 -0.203827,0.23568 -0.289729,0.36605 -0.109747,0.11053 -0.198927,0.24069 -0.286494,0.36895 -0.09364,0.12065 -0.191759,0.23687 -0.286041,0.35692 -0.09053,0.13748 -0.218778,0.241 -0.322881,0.36786 -0.139864,0.14205 -0.276987,0.28924 -0.401307,0.44506 -0.109636,0.12298 -0.215453,0.24888 -0.335206,0.36192 -0.13058,0.11697 -0.237895,0.25483 -0.359569,0.38052 -0.146888,0.17294 -0.30593,0.33526 -0.446847,0.5136 -0.122459,0.15481 -0.230251,0.32029 -0.359312,0.46985 -0.126127,0.15108 -0.260244,0.29555 -0.386471,0.44667 -0.147164,0.16683 -0.300429,0.32941 -0.423479,0.51537 -0.159266,0.22623 -0.32421,0.44891 -0.487916,0.67186 -0.164213,0.21302 -0.339976,0.4168 -0.507328,0.62726 -0.131693,0.19595 -0.281122,0.37844 -0.411181,0.57532 -0.117041,0.1954 -0.237834,0.38793 -0.373959,0.57083 -0.134935,0.19436 -0.28293,0.3792 -0.426789,0.56689 -0.130021,0.18808 -0.249261,0.38335 -0.381018,0.57034 -0.147082,0.18933 -0.308684,0.36664 -0.44718,0.56257 -0.130484,0.1906 -0.2648,0.3791 -0.412879,0.55654 -0.147192,0.18555 -0.298043,0.36948 -0.428587,0.56705 -0.135408,0.19295 -0.268951,0.38721 -0.409146,0.57674 -0.12727,0.18767 -0.243438,0.38327 -0.350074,0.58333 -0.128033,0.22365 -0.246517,0.45175 -0.349221,0.68826 -0.09587,0.20869 -0.188888,0.4183 -0.308745,0.61487 -0.103295,0.1783 -0.190353,0.3655 -0.31465,0.53119 -0.107089,0.16541 -0.235642,0.3151 -0.361136,0.46651 -0.13476,0.1574 -0.273038,0.31173 -0.413004,0.46425 -0.129104,0.13349 -0.241427,0.28025 -0.375519,0.40861 -0.19068,0.15712 -0.365516,0.33181 -0.536172,0.51037 -0.179641,0.18625 -0.35667,0.37495 -0.529859,0.56724 -0.162738,0.17393 -0.338399,0.33554 -0.490958,0.51917 -0.231796,0.23068 -0.460317,0.46509 -0.687487,0.70037 0,0 -1.202155,-0.72405 -1.202155,-0.72405 z"
         id="path69" />
      <ellipse
         style="stroke-width:0.26458332"
         ry="2.0788691"
         rx="1.984375"
         cy="111.69717"
         cx="21.072174"
         id="path71" />
      <ellipse
         style="stroke-width:0.26458332"
         ry="2.0788691"
         rx="1.984375"
         cy="110.46874"
         cx="46.680058"
         id="path71-7" />
    </g>
    <g
       id="g117"
       transform="matrix(2.6874038,0,0,2.6874038,-212.26772,-160.08897)">
      <path
         style="stroke-width:0.26458332"
         inkscape:connector-curvature="0"
         d="m 126.34887,95.597004 c 0.23605,0.23178 0.46803,0.46698 0.69696,0.70566 0.15217,0.1825 0.32155,0.3489 0.48685,0.51923 0.17548,0.19073 0.35232,0.38014 0.53209,0.56684 0.17279,0.18205 0.352,0.35756 0.53989,0.52394 0.13285,0.12334 0.24148,0.268 0.36775,0.39799 0.14152,0.14726 0.27545,0.30216 0.40903,0.45686 0.12215,0.14574 0.2466,0.2913 0.35074,0.45082 0.12461,0.16284 0.20989,0.34837 0.31293,0.52427 0.11752,0.19275 0.20903,0.398096 0.30383,0.602346 0.10731,0.23868 0.22591,0.47116 0.35527,0.69865 0.10692,0.20397 0.22546,0.40249 0.35461,0.5932 0.14109,0.1903 0.27377,0.3866 0.41255,0.57855 0.13156,0.19976 0.28197,0.38681 0.43043,0.57429 0.1463,0.17474 0.27906,0.36033 0.40784,0.54819 0.13944,0.19875 0.30332,0.37791 0.45219,0.56938 0.12987,0.18511 0.24795,0.37799 0.37647,0.56393 0.14322,0.18829 0.29207,0.37259 0.42693,0.5671 0.13461,0.18019 0.25315,0.37043 0.36868,0.56309 0.13136,0.19929 0.28148,0.38491 0.41741,0.58121 0.16651,0.21506 0.34572,0.42001 0.51432,0.6335 0.16283,0.22043 0.32477,0.44234 0.48146,0.66731 0.12532,0.19046 0.27887,0.35966 0.42949,0.53011 0.12861,0.14717 0.25573,0.29585 0.38168,0.44537 0.12955,0.14764 0.23873,0.31088 0.3609,0.46446 0.14422,0.17751 0.29956,0.34517 0.4484,0.51857 0.12076,0.13299 0.23639,0.26985 0.36512,0.39541 0.11629,0.11127 0.22261,0.2318 0.33101,0.35066 0.12453,0.15818 0.26587,0.30225 0.40356,0.44887 0.0955,0.12201 0.22016,0.21975 0.30705,0.34822 0.0945,0.12431 0.19585,0.24313 0.29294,0.36553 0.0894,0.13265 0.18447,0.26194 0.29181,0.38068 0.0864,0.12542 0.18952,0.23717 0.28585,0.35504 0.1182,0.12642 0.2194,0.26694 0.31881,0.4082 0.10011,0.11597 0.16459,0.25102 0.28773,0.34544 0.49369,0.23335 1.28928,-0.5919 1.44624,-0.68197 0.0568,-0.0326 0.0504,-0.0349 0.0921,-0.0873 0.0683,-0.12845 0.19066,-0.2031 0.27068,-0.32755 0.10739,-0.11586 0.20126,-0.24181 0.3035,-0.3631 0.10611,-0.1701 0.23317,-0.32494 0.34542,-0.49027 0.0883,-0.14639 0.17386,-0.29489 0.26211,-0.44197 0.11224,-0.12522 0.19249,-0.27305 0.28795,-0.41119 0.0767,-0.13177 0.16483,-0.26707 0.28004,-0.36852 0.11295,-0.13493 0.21682,-0.2793 0.33737,-0.40704 0.10263,-0.12028 0.2008,-0.25189 0.32387,-0.35208 0.0899,-0.10827 0.2037,-0.18484 0.26828,-0.31277 0.0885,-0.11148 0.17009,-0.22691 0.26158,-0.33755 0.12774,-0.14036 0.22502,-0.30754 0.36485,-0.43671 0.13473,-0.13525 0.26769,-0.27241 0.39399,-0.41614 0.11862,-0.1689 0.2344,-0.34304 0.37036,-0.49826 0.0984,-0.1349 0.21668,-0.25058 0.32243,-0.37975 0.0989,-0.14033 0.22058,-0.26238 0.32301,-0.39941 0.0707,-0.041 0.0936,-0.11157 0.13521,-0.17494 0.0407,-0.062 0.0977,-0.11045 0.13935,-0.17295 0.0793,-0.14952 0.19675,-0.28686 0.3155,-0.40762 0.11119,-0.15087 0.23461,-0.29173 0.34223,-0.44466 0.12065,-0.13477 0.23307,-0.27706 0.35602,-0.4108 0.11903,-0.14155 0.22964,-0.29672 0.36936,-0.41873 0.0953,-0.10719 0.19782,-0.20269 0.28964,-0.31394 0.1235,-0.11815 0.23569,-0.24413 0.3304,-0.3872 0.11573,-0.11849 0.22981,-0.2392 0.33628,-0.36589 0.10568,-0.10755 0.22691,-0.20256 0.32183,-0.31985 0.11283,-0.0965 0.20097,-0.22577 0.28194,-0.34984 0.10586,-0.10736 0.19733,-0.22571 0.29606,-0.34061 0.10013,-0.16434 0.24107,-0.29415 0.34396,-0.45687 0.11525,-0.11187 0.19106,-0.26361 0.2892,-0.38437 0.0733,-0.10981 0.15745,-0.22285 0.26118,-0.30625 0.10059,-0.13126 0.21038,-0.25438 0.30542,-0.38928 0.0621,-0.0792 0.15095,-0.14055 0.20513,-0.22593 0.0882,-0.13906 -0.0184,-0.006 0.0791,-0.12041 0.0252,-0.0766 0.0814,-0.0961 0.13893,-0.138746 0.0596,-0.0442 0.1024,-0.10067 0.16499,-0.14307 0.13929,-0.1174 0.21209,-0.28629 0.32169,-0.42665 0.10324,-0.12732 0.18322,-0.27631 0.28984,-0.40083 0.0825,-0.1339 0.20099,-0.23861 0.3011,-0.35803 0.12322,-0.0879 0.17491,-0.23531 0.28107,-0.33925 0.10611,-0.12823 0.16746,-0.28535 0.26626,-0.41769 0.12663,-0.14676 0.22344,-0.31732 0.35027,-0.4636 0.11091,-0.13919 0.24123,-0.27621 0.37201,-0.39759 0.30408,-0.35618 1.53496,-0.9684 -0.83563,0.4154 3.41846,-1.9876 0.0835,-0.0434 0.12193,-0.0704 0.39806,-0.27976 0.83798,-0.49464 1.25649,-0.7428 0.0193,-0.0115 0.0765,-0.0474 0.057,-0.0361 -1.23736,0.71787 -1.52633,0.87239 -1.07346,0.62865 3.47413,-2.01655 0.10379,-0.0618 0.15609,-0.092 0.42904,-0.24776 0.85739,-0.4967 1.28591,-0.74535 0.3711,-0.21534 -1.4805,0.86793 -1.11367,0.6454 1.43514,-0.8706 0.8958,-0.41938 1.35512,-0.81008 0.1521,-0.0785 0.28182,-0.18827 0.42319,-0.28197 0.11008,-0.10539 0.2299,-0.19845 0.3261,-0.31809 0.013,-0.0241 0.026,-0.0481 0.039,-0.0722 0,0 -1.28982,0.56252 -1.28982,0.56252 v 0 c -0.0156,0.0178 -0.0313,0.0357 -0.0469,0.0535 -0.10823,0.1019 -0.21629,0.20448 -0.33742,0.29117 -0.13442,0.10274 -0.28617,0.17959 -0.41873,0.28509 -0.0263,0.0179 -0.10645,0.0692 -0.0788,0.0536 0.37525,-0.21234 1.49573,-0.85864 1.12189,-0.64381 -0.42984,0.24702 -0.85706,0.49868 -1.28992,0.74037 -0.37506,0.20943 1.48608,-0.86254 1.11652,-0.64355 -0.30199,0.17896 -2.90087,1.673 -0.15335,0.0923 -0.47136,0.2651 -0.43271,0.24301 -1.33253,0.7693 -0.0197,0.0116 -0.0751,0.0521 -0.0552,0.0408 0.38378,-0.21828 1.52647,-0.88809 1.14726,-0.66196 -0.31741,0.18927 -2.8879,1.66468 -0.11954,0.074 -0.60274,0.34837 -1.12726,0.5298 -1.55954,1.00424 -0.12435,0.1352 -0.26193,0.25849 -0.36508,0.41193 -0.11488,0.1589 -0.23345,0.3151 -0.34676,0.4751 -0.0825,0.14058 -0.16637,0.28118 -0.2751,0.40359 -0.0846,0.11996 -0.17403,0.23415 -0.2813,0.33488 -0.1093,0.11399 -0.20334,0.2414 -0.29626,0.36883 -0.0918,0.1376 -0.19557,0.26616 -0.28724,0.40384 -0.0949,0.145616 -0.19547,0.287946 -0.33835,0.391086 -0.10649,0.0983 -0.21827,0.18717 -0.29116,0.3155 -0.0824,0.12445 -0.19391,0.22472 -0.28257,0.34476 -0.1027,0.12594 -0.19854,0.25851 -0.31547,0.37206 -0.088,0.10622 -0.17887,0.20977 -0.2512,0.32798 -0.085,0.13564 -0.19588,0.25195 -0.28574,0.38445 -0.1152,0.1496 -0.23802,0.29311 -0.35021,0.44502 -0.0981,0.11697 -0.20241,0.22857 -0.29268,0.3518 -0.0915,0.11633 -0.17864,0.23487 -0.29004,0.3336 -0.11067,0.10244 -0.21391,0.21298 -0.31863,0.32144 -0.11596,0.1212 -0.22537,0.24973 -0.33199,0.3789 -0.10688,0.1307 -0.21985,0.25361 -0.33532,0.37683 -0.0951,0.10411 -0.19843,0.20035 -0.2929,0.30518 -0.12157,0.14057 -0.24429,0.2801 -0.3629,0.42324 -0.12198,0.13774 -0.23853,0.28015 -0.3534,0.42378 -0.11508,0.14487 -0.22387,0.29495 -0.34665,0.4336 -0.10963,0.13618 -0.2235,0.26828 -0.31215,0.41964 -0.0939,0.11347 -0.17408,0.23661 -0.27705,0.34256 -0.11273,0.12846 -0.21107,0.26855 -0.3238,0.39704 -0.10786,0.12555 -0.22153,0.24622 -0.31846,0.38094 -0.12295,0.16518 -0.24443,0.33197 -0.37436,0.49157 -0.12964,0.13992 -0.2622,0.27716 -0.39551,0.41357 -0.12186,0.14796 -0.23833,0.30027 -0.36112,0.44751 -0.0887,0.11487 -0.17805,0.22896 -0.25919,0.34932 -0.0893,0.0986 -0.18844,0.18805 -0.27964,0.28497 -0.10618,0.11995 -0.21683,0.23594 -0.31593,0.36213 -0.11055,0.13758 -0.22548,0.27183 -0.34229,0.40404 -0.0965,0.12501 -0.19005,0.25153 -0.27001,0.38813 -0.0927,0.14091 -0.18845,0.2795 -0.28336,0.41877 -0.0841,0.14651 -0.17558,0.28855 -0.26662,0.43074 -0.118,0.15932 -0.22667,0.32561 -0.35014,0.48084 -0.1004,0.12342 -0.20426,0.24372 -0.30259,0.3688 -0.0937,0.10279 -0.1929,0.1999 -0.28229,0.30551 -0.41018,0.26242 -0.91011,0.52055 1.06504,-0.59213 0.0274,-0.0154 -0.0481,0.0417 -0.0766,0.0549 -0.0124,0.006 -0.0272,0.003 -0.0408,0.004 -0.13169,-0.0358 -0.15672,-0.21064 -0.2583,-0.29046 -0.1008,-0.1436 -0.20295,-0.28782 -0.32403,-0.41528 -0.0963,-0.1226 -0.20383,-0.23568 -0.28973,-0.36605 -0.10975,-0.11053 -0.19893,-0.24069 -0.28649,-0.36895 -0.0936,-0.12065 -0.19176,-0.23687 -0.28604,-0.35692 -0.0905,-0.13748 -0.21878,-0.241 -0.32288,-0.36786 -0.13987,-0.14205 -0.27699,-0.28924 -0.40131,-0.44506 -0.10964,-0.12298 -0.21545,-0.24888 -0.33521,-0.36192 -0.13058,-0.11697 -0.23789,-0.25483 -0.35957,-0.38052 -0.14688,-0.17294 -0.30593,-0.33526 -0.44684,-0.5136 -0.12246,-0.15481 -0.23025,-0.32029 -0.35932,-0.46985 -0.12612,-0.15108 -0.26024,-0.29555 -0.38647,-0.44667 -0.14716,-0.16683 -0.30043,-0.32941 -0.42348,-0.51537 -0.15926,-0.22623 -0.32421,-0.44891 -0.48791,-0.67186 -0.16421,-0.21302 -0.33998,-0.4168 -0.50733,-0.62726 -0.13169,-0.19595 -0.28112,-0.37844 -0.41118,-0.57532 -0.11704,-0.1954 -0.23783,-0.38793 -0.37396,-0.57083 -0.13493,-0.19436 -0.28293,-0.3792 -0.42679,-0.56689 -0.13002,-0.18808 -0.24926,-0.38335 -0.38102,-0.57034 -0.14708,-0.18933 -0.30868,-0.36664 -0.44718,-0.56257 -0.13048,-0.1906 -0.2648,-0.3791 -0.41288,-0.55654 -0.14719,-0.18555 -0.29804,-0.36948 -0.42858,-0.56705 -0.13541,-0.19295 -0.26895,-0.38721 -0.40915,-0.57674 -0.12727,-0.18767 -0.24344,-0.38327 -0.35007,-0.58333 -0.12804,-0.22365 -0.24652,-0.451746 -0.34922,-0.688256 -0.0959,-0.20869 -0.18889,-0.4183 -0.30875,-0.61487 -0.10329,-0.1783 -0.19035,-0.3655 -0.31465,-0.53119 -0.10709,-0.16541 -0.23564,-0.3151 -0.36113,-0.46651 -0.13476,-0.1574 -0.27304,-0.31173 -0.41301,-0.46425 -0.1291,-0.13349 -0.24143,-0.28025 -0.37552,-0.40861 -0.19068,-0.15712 -0.36551,-0.33181 -0.53617,-0.51037 -0.17964,-0.18625 -0.35667,-0.37495 -0.52986,-0.56724 -0.16274,-0.17393 -0.3384,-0.33554 -0.49096,-0.51917 -0.23179,-0.23068 -0.46031,-0.46509 -0.68748,-0.70037 0,0 -1.20216,0.72405 -1.20216,0.72405 z"
         id="path69-4" />
      <ellipse
         style="stroke-width:0.26458332"
         ry="2.0788691"
         rx="1.984375"
         cy="105.60584"
         cx="127.77982"
         id="path71-4" />
      <ellipse
         style="stroke-width:0.26458332"
         ry="2.0788691"
         rx="1.984375"
         cy="104.37743"
         cx="153.38771"
         id="path71-7-7" />
    </g>
    <path
       id="path119"
       d="m 113.48742,56.844575 c -0.02,0.882076 -0.0107,1.764522 -0.006,2.64673 0.004,0.611487 0.006,1.222981 0.007,1.834478 5.3e-4,0.533972 5.3e-4,1.067946 5.3e-4,1.60192 -3e-5,0.533299 -5e-5,1.066601 -7e-5,1.599901 -10e-6,0.534471 -10e-6,1.06894 -10e-6,1.603409 0,0.534554 0,1.069107 0,1.603664 0,0.53454 0,1.06908 0,1.603621 0,0.53454 0,1.069078 0,1.603618 -0.0476,0.536027 0.0467,1.049348 0.13558,1.5739 0.0887,0.538158 0.11154,1.083482 0.1257,1.627725 -0.0383,0.537702 0.0547,1.053261 0.14325,1.579621 0.0879,0.53822 0.11032,1.083511 0.12422,1.627708 0.01,0.536353 0.008,1.07283 0.007,1.609246 -8e-4,0.53453 -0.001,1.069063 -0.002,1.603595 0.115,0.549979 0.1842,1.104008 0.22311,1.663978 0.0607,0.708797 0.18381,1.40974 0.23913,2.120537 0.0414,0.684432 0.19763,1.354455 0.27478,2.035797 0.0596,0.642739 0.0578,1.28928 0.0614,1.934197 -0.002,0.689351 8e-4,1.378701 0.002,2.068049 -0.02,0.58084 10e-6,1.150144 0.087,1.723837 0.0769,0.665814 0.12269,1.328386 0.25416,1.985712 0.13005,0.610626 0.15725,1.235588 0.18053,1.857509 0.0394,0.671603 0.15338,1.337385 0.21338,2.008889 0.0513,0.610262 0.0625,1.222738 0.0682,1.834803 0.003,0.538941 0.002,1.077891 7.9e-4,1.616831 -5.3e-4,0.53359 -7.9e-4,1.06718 -0.001,1.60077 -9e-5,0.53441 -7e-5,1.06882 -7e-5,1.60323 0.031,0.51379 -0.0632,1.04326 0.0458,1.54857 0.12528,0.4603 0.1704,0.93456 0.19907,1.40896 -0.0311,0.49213 0.0679,0.95214 0.16563,1.42839 0.091,0.49365 0.10687,0.9964 0.11914,1.49692 0.0297,0.52558 -0.0399,1.05801 0.049,1.57794 0.0628,0.53995 0.21468,1.05668 0.33434,1.58466 0.14733,0.58849 0.27716,1.17716 0.35214,1.78108 0.17495,0.5517 0.19855,1.1363 0.34218,1.69287 0.12811,0.5337 0.20176,1.07276 0.33226,1.60551 0.0793,0.54237 0.21196,1.06999 0.32349,1.60595 0.10391,0.53922 0.12523,1.08871 0.1388,1.63618 0.009,0.53641 0.006,1.07292 0.006,1.60938 -10e-4,0.53449 -0.002,1.06898 -0.002,1.60347 -0.002,0.63862 -0.006,1.27723 -0.005,1.91586 0.002,0.60538 0.003,1.21076 0.004,1.81615 5.3e-4,0.53871 8e-4,1.07743 8e-4,1.61614 1e-5,0.5337 -10e-6,1.06739 -2e-5,1.60109 -1e-5,0.53442 -1e-5,1.06884 -1e-5,1.60326 0,0.53454 0,1.06909 0,1.60364 0,0.53454 0,1.06908 0,1.60362 -0.005,0.60721 -0.002,1.21445 -0.002,1.82168 0.034,0.53021 -0.0645,1.07728 0.0471,1.59898 0.12522,0.4602 0.17059,0.93426 0.19927,1.40855 0.0246,0.5273 0.0238,1.05535 0.0244,1.5831 -5.3e-4,0.58837 -0.004,1.17671 -0.004,1.76508 0.006,0.57825 0.15122,1.14344 0.20277,1.71986 0.0494,0.60924 0.0598,1.22061 0.0658,1.83153 0.003,0.59884 -8e-4,1.19769 -8e-4,1.79655 2.7e-4,0.56865 8e-4,1.13729 0.001,1.70595 2.2e-4,0.53605 2.4e-4,1.0721 2.5e-4,1.60815 1e-5,0.5341 1e-5,1.0682 0,1.6023 -5.3e-4,0.54482 0.002,1.08965 -0.002,1.63446 -0.002,0.60309 -4e-5,1.20618 7.9e-4,1.80927 0.002,0.58523 -0.002,1.17044 -0.002,1.75567 8e-4,0.58032 0.002,1.16065 0.002,1.74097 5.3e-4,0.53796 5.3e-4,1.07591 5.3e-4,1.61386 2e-5,0.53404 0,1.06808 0,1.60212 -1e-5,0.53445 -1e-5,1.06891 -1e-5,1.60336 -0.0182,0.53211 0.0436,1.0697 -0.0425,1.59641 -0.11304,0.4557 -0.16958,0.91967 -0.2003,1.3872 -0.0263,0.5191 -0.0256,1.03906 -0.0264,1.55867 10e-6,0.0889 2e-5,0.17785 3e-5,0.26677 0,0 -3.5399,-1.80387 -3.5399,-1.80387 v 0 c 9e-5,-0.0892 1.8e-4,-0.17835 2.6e-4,-0.26753 0.002,-0.52841 0.003,-1.05735 0.0373,-1.58487 0.0387,-0.4748 0.10896,-0.9439 0.21016,-1.40959 0.0522,-0.51316 0.006,-1.03185 0.0214,-1.54689 0,-0.53446 0,-1.06892 -1e-5,-1.60338 -10e-6,-0.53404 -2e-5,-1.06808 0,-1.60212 3e-5,-0.53778 7e-5,-1.07556 5.3e-4,-1.61334 5.2e-4,-0.57956 0.002,-1.15913 0.002,-1.73869 2e-5,-0.58578 -0.004,-1.17155 -0.002,-1.75733 8e-4,-0.60281 0.003,-1.20563 8e-4,-1.80844 -0.003,-0.54547 -0.001,-1.09094 -0.002,-1.63642 -1e-5,-0.5341 -2e-5,-1.06821 -2e-5,-1.60232 10e-6,-0.53597 10e-6,-1.07194 5.2e-4,-1.60791 5.3e-4,-0.56802 0.002,-1.13604 0.003,-1.70405 0.001,-0.59793 2.6e-4,-1.19584 -0.004,-1.79376 -0.007,-0.59932 -0.0176,-1.19958 -0.0804,-1.79617 -0.0735,-0.58447 -0.20444,-1.1659 -0.18344,-1.75795 10e-4,-0.58881 -5.3e-4,-1.17761 -0.002,-1.76642 -0.002,-0.51976 -0.003,-1.04011 -0.0393,-1.55887 -0.0411,-0.46762 -0.12307,-0.92692 -0.21119,-1.38765 -0.0382,-0.54674 -0.009,-1.09567 -0.0168,-1.64341 0.001,-0.60774 0.003,-1.21549 -0.002,-1.82322 0,-0.53454 0,-1.06908 0,-1.60362 0,-0.53455 0,-1.06909 0,-1.60364 0,-0.53442 0,-1.06885 -1e-5,-1.60327 -10e-6,-0.5337 -3e-5,-1.06741 -10e-6,-1.60111 3e-5,-0.53846 7e-5,-1.07693 7.9e-4,-1.6154 7.9e-4,-0.60404 0.002,-1.20807 0.004,-1.81211 7.9e-4,-0.64028 -0.003,-1.28054 -0.004,-1.92081 2.7e-4,-0.53459 0.001,-1.06918 0.002,-1.60377 5.3e-4,-0.53263 0.003,-1.06539 -0.0113,-1.59788 -0.0197,-0.52686 -0.0526,-1.05502 -0.17025,-1.57073 -0.12029,-0.53124 -0.21508,-1.06584 -0.32682,-1.5987 -0.12382,-0.53455 -0.19004,-1.08005 -0.3286,-1.61168 -0.10583,-0.57384 -0.20243,-1.14897 -0.32439,-1.71981 -0.0879,-0.59165 -0.23849,-1.16661 -0.37322,-1.74865 -0.1321,-0.53692 -0.25145,-1.07528 -0.3152,-1.62556 -0.0397,-0.5355 -0.0129,-1.07283 -0.0349,-1.60932 -0.0188,-0.48214 -0.0477,-0.9655 -0.15329,-1.43789 -0.10051,-0.48773 -0.1279,-0.97567 -0.14013,-1.4731 -0.041,-0.4677 -0.12271,-0.92712 -0.21139,-1.38782 -0.0373,-0.53058 -0.01,-1.0632 -0.0181,-1.59477 0,-0.53444 -1e-5,-1.06889 1e-4,-1.60333 1.4e-4,-0.53371 2.6e-4,-1.06742 0.001,-1.601137 8e-4,-0.537345 0.002,-1.074703 -0.002,-1.61204 -0.007,-0.600908 -0.0197,-1.202251 -0.0742,-1.801079 -0.0659,-0.677196 -0.19107,-1.348804 -0.20935,-2.029598 -0.028,-0.606518 -0.0775,-1.211725 -0.20561,-1.806646 -0.11545,-0.663401 -0.14186,-1.335974 -0.24565,-2.001298 -0.077,-0.590066 -0.0745,-1.179968 -0.0629,-1.77441 0.003,-0.687525 0.008,-1.375095 7.9e-4,-2.062609 -0.007,-0.633143 -0.0139,-1.267844 -0.0865,-1.897597 -0.0855,-0.68062 -0.22515,-1.354815 -0.25824,-2.041287 -0.07,-0.711242 -0.19851,-1.41482 -0.24736,-2.127832 -0.0525,-0.568383 -0.16798,-1.12694 -0.21404,-1.695461 2.6e-4,-0.534545 7.9e-4,-1.069091 0.002,-1.603637 1.5e-4,-0.532675 0.002,-1.065466 -0.0131,-1.597988 -0.0195,-0.528881 -0.053,-1.057878 -0.14764,-1.579525 -0.0901,-0.540459 -0.13272,-1.078968 -0.11993,-1.627616 -0.0198,-0.528921 -0.0539,-1.057905 -0.14912,-1.57951 -0.0905,-0.542382 -0.13408,-1.082638 -0.10648,-1.633331 0,-0.53454 0,-1.069078 0,-1.603618 0,-0.534541 0,-1.069081 0,-1.603624 0,-0.534554 0,-1.069107 0,-1.603661 0,-0.534474 0,-1.068948 -1e-5,-1.60342 -2e-5,-0.533326 -4e-5,-1.066651 -8e-5,-1.599975 -1e-5,-0.533802 -8e-5,-1.067601 5.3e-4,-1.601404 8e-4,-0.609256 0.003,-1.218509 0.007,-1.827754 0.005,-0.884177 0.0142,-1.768587 -0.006,-2.652634 0,0 3.53751,1.802456 3.53751,1.802456 z"
       inkscape:connector-curvature="0"
       style="stroke-width:0.26458332" />
    <text
       xml:space="preserve"
       style="font-style:normal;font-weight:normal;font-size:10.58333302px;line-height:1.25;font-family:sans-serif;letter-spacing:0px;word-spacing:0px;fill:#000000;fill-opacity:1;stroke:none;stroke-width:0.26458332"
       x="22.717911"
       y="157.75258"
       id="text123"><tspan
         sodipodi:role="line"
         id="tspan121"
         x="22.717911"
         y="157.75258"
         style="stroke-width:0.26458332">Salty Water</tspan></text>
    <text
       xml:space="preserve"
       style="font-style:normal;font-weight:normal;font-size:10.58333302px;line-height:1.25;font-family:sans-serif;letter-spacing:0px;word-spacing:0px;fill:#000000;fill-opacity:1;stroke:none;stroke-width:0.26458332"
       x="131.22934"
       y="158.28711"
       id="text127"><tspan
         sodipodi:role="line"
         id="tspan125"
         x="131.22934"
         y="158.28711"
         style="stroke-width:0.26458332">Fresh Water</tspan><tspan
         sodipodi:role="line"
         x="131.22934"
         y="171.51628"
         style="stroke-width:0.26458332"
         id="tspan129" /></text>
  </g>
</svg>
