# 3ds Max Wavefront OBJ Exporter v0.97b - (c)2007 guruware
# File Created: 04.05.2016 17:12:50

mtllib switch.mtl

#
# object Box001
#

v  -13.4259 -5.8757 5.6519
v  13.4259 -5.8757 5.6519
v  13.4259 -5.8757 -5.6519
v  -13.4259 -5.8757 -5.6519
v  -13.4259 -7.7021 5.6519
v  13.4259 -7.7021 5.6519
v  13.4259 -7.7021 -5.6519
v  -13.4259 -7.7021 -5.6519
v  -10.3686 -4.3379 3.5917
v  -7.7978 -4.3379 3.5917
v  -7.7978 -4.3379 2.3791
v  -10.3686 -4.3379 2.3791
v  7.9119 -4.3379 3.5917
v  10.4827 -4.3379 3.5917
v  10.4827 -4.3379 2.3791
v  7.9119 -4.3379 2.3791
v  -1.1794 -4.3379 3.5917
v  1.3914 -4.3379 3.5917
v  1.3914 -4.3379 2.3791
v  -1.1794 -4.3379 2.3791
v  -10.3686 -4.3379 -1.8702
v  -7.7978 -4.3379 -1.8702
v  -7.7978 -4.3379 -3.0828
v  -10.3686 -4.3379 -3.0828
v  7.9119 -4.3379 -1.8702
v  10.4827 -4.3379 -1.8702
v  10.4827 -4.3379 -3.0828
v  7.9119 -4.3379 -3.0828
v  -1.1794 -4.3379 -1.8702
v  1.3914 -4.3379 -1.8702
v  1.3914 -4.3379 -3.0828
v  -1.1794 -4.3379 -3.0828
v  -10.7043 -6.0446 4.0066
v  -7.4621 -6.0446 4.0066
v  -7.4621 -6.0446 1.9641
v  -10.7043 -6.0446 1.9641
v  7.5762 -6.0446 4.0066
v  10.8185 -6.0446 4.0066
v  10.8185 -6.0446 1.9641
v  7.5762 -6.0446 1.9641
v  -1.5152 -6.0446 4.0066
v  1.7271 -6.0446 4.0066
v  1.7271 -6.0446 1.9641
v  -1.5152 -6.0446 1.9641
v  -10.7043 -6.0446 -1.4553
v  -7.4621 -6.0446 -1.4553
v  -7.4621 -6.0446 -3.4978
v  -10.7043 -6.0446 -3.4978
v  7.5762 -6.0446 -1.4553
v  10.8185 -6.0446 -1.4553
v  10.8185 -6.0446 -3.4978
v  7.5762 -6.0446 -3.4978
v  -1.5152 -6.0446 -1.4553
v  1.7271 -6.0446 -1.4553
v  1.7271 -6.0446 -3.4978
v  -1.5152 -6.0446 -3.4978
v  5.9571 0.1756 4.7906
v  7.7104 0.1756 4.7906
v  7.7104 2.0019 4.7906
v  5.9571 2.0019 4.7906
v  5.9571 0.1756 -5.1231
v  7.7104 0.1756 -5.1231
v  7.7104 2.0019 -5.1231
v  5.9571 2.0019 -5.1231
v  -0.6333 -4.4140 3.4118
v  -0.0635 -4.9011 3.4118
v  6.6951 0.7691 3.4118
v  6.1253 1.2562 3.4118
v  -0.6333 -4.4140 2.6928
v  -0.0635 -4.9011 2.6928
v  6.6951 0.7691 2.6928
v  6.1253 1.2562 2.6928
v  -0.6333 -4.4140 -2.1588
v  -0.0635 -4.9011 -2.1588
v  6.6951 0.7691 -2.1588
v  6.1253 1.2562 -2.1588
v  -0.6333 -4.4140 -2.8778
v  -0.0635 -4.9011 -2.8778
v  6.6951 0.7691 -2.8778
v  6.1253 1.2562 -2.8778
v  9.6351 2.4632 -0.2188
v  9.3858 2.7125 -1.0700
v  12.7920 5.4898 -1.5147
v  13.1716 5.1103 -0.2188
v  8.7840 3.3144 -1.4226
v  11.8757 6.4062 -2.0515
v  8.1821 3.9163 -1.0700
v  10.9594 7.3225 -1.5147
v  7.9328 4.1656 -0.2188
v  10.5798 7.7021 -0.2188
v  8.1821 3.9163 0.6323
v  10.9594 7.3225 1.0771
v  8.7840 3.3144 0.9849
v  11.8757 6.4062 1.6138
v  9.3858 2.7125 0.6323
v  12.7920 5.4898 1.0771
v  7.1900 1.0538 0.3055
v  6.5003 1.7435 0.3055
v  8.5205 3.7636 0.3055
v  9.2101 3.0740 0.3055
v  7.1900 1.0538 -0.6381
v  9.2101 3.0740 -0.6381
v  6.5003 1.7435 -0.6381
v  8.5205 3.7636 -0.6381
# 104 vertices

vn 0.0000 1.0000 -0.0000
vn 0.0000 0.0000 1.0000
vn 1.0000 0.0000 -0.0000
vn 0.0000 0.0000 -1.0000
vn -1.0000 0.0000 -0.0000
vn 0.0000 0.2362 0.9717
vn 0.9812 0.1930 -0.0000
vn 0.0000 0.2362 -0.9717
vn -0.9812 0.1930 -0.0000
vn 0.0000 -1.0000 -0.0000
vn -0.0000 -0.0000 1.0000
vn -0.6498 -0.7601 -0.0000
vn 0.6427 -0.7661 -0.0000
vn 0.6498 0.7601 -0.0000
vn -0.6427 0.7661 -0.0000
vn -0.0000 0.0000 -1.0000
vn 0.5992 -0.8006 0.0000
vn 0.3942 -0.5956 -0.6999
vn 0.5992 -0.8006 -0.0000
vn -0.1007 -0.1007 -0.9898
vn -0.5956 0.3942 -0.6999
vn -0.8006 0.5992 0.0000
vn -0.5956 0.3942 0.6999
vn -0.1007 -0.1007 0.9898
vn 0.3942 -0.5956 0.6999
vn -0.7071 -0.7071 0.0000
vn -0.7071 -0.7071 -0.0000
vn 0.7071 0.7071 -0.0000
vn -0.7071 0.7071 -0.0000
vn 0.7071 -0.7071 -0.0000
# 30 vertex normals

vt 0.0000 0.0000 0.0000
vt 1.0000 0.0000 0.0000
vt 1.0000 1.0000 0.0000
vt 0.0000 1.0000 0.0000
vt 0.0630 0.3102 0.0000
vt 0.0630 0.9711 0.0000
vt 0.0077 0.9711 0.0000
vt 0.0077 0.3102 0.0000
vt 0.0860 0.9119 0.0000
vt 0.3642 0.9119 0.0000
vt 0.3642 0.9757 0.0000
vt 0.0860 0.9757 0.0000
vt 0.6709 0.0590 0.0000
vt 0.0100 0.0590 0.0000
vt 0.0100 0.0060 0.0000
vt 0.6709 0.0060 0.0000
vt 0.4405 0.9088 0.0000
vt 0.7187 0.9088 0.0000
vt 0.7187 0.9726 0.0000
vt 0.4405 0.9726 0.0000
vt 0.5763 0.7021 0.0000
vt 0.5194 0.7021 0.0000
vt 0.5119 0.6643 0.0000
vt 0.5838 0.6643 0.0000
vt 0.5453 0.6696 0.0000
vt 0.5733 0.6696 0.0000
vt 0.5829 0.7091 0.0000
vt 0.5356 0.7091 0.0000
vt 0.5955 0.6912 0.0000
vt 0.5385 0.6912 0.0000
vt 0.5311 0.6534 0.0000
vt 0.6029 0.6534 0.0000
vt 0.5427 0.6589 0.0000
vt 0.5708 0.6589 0.0000
vt 0.5804 0.6992 0.0000
vt 0.5331 0.6992 0.0000
vt 0.5897 0.7050 0.0000
vt 0.5328 0.7050 0.0000
vt 0.5253 0.6672 0.0000
vt 0.5972 0.6672 0.0000
vt 0.5423 0.6644 0.0000
vt 0.5704 0.6644 0.0000
vt 0.5800 0.7039 0.0000
vt 0.5327 0.7039 0.0000
vt 0.5994 0.7013 0.0000
vt 0.5425 0.7013 0.0000
vt 0.5350 0.6635 0.0000
vt 0.6069 0.6635 0.0000
vt 0.5473 0.6569 0.0000
vt 0.5754 0.6569 0.0000
vt 0.5850 0.6972 0.0000
vt 0.5377 0.6972 0.0000
vt 0.5689 0.7007 0.0000
vt 0.5120 0.7007 0.0000
vt 0.5045 0.6628 0.0000
vt 0.5764 0.6628 0.0000
vt 0.5445 0.6559 0.0000
vt 0.5726 0.6559 0.0000
vt 0.5822 0.6962 0.0000
vt 0.5349 0.6962 0.0000
vt 0.5581 0.6941 0.0000
vt 0.5011 0.6941 0.0000
vt 0.4937 0.6563 0.0000
vt 0.5655 0.6563 0.0000
vt 0.5445 0.6617 0.0000
vt 0.5726 0.6617 0.0000
vt 0.5822 0.7019 0.0000
vt 0.5349 0.7019 0.0000
vt 0.5470 0.6506 0.0000
vt 0.6065 0.6506 0.0000
vt 0.6142 0.6913 0.0000
vt 0.5392 0.6913 0.0000
vt 0.5416 0.6673 0.0000
vt 0.5696 0.6673 0.0000
vt 0.5792 0.7076 0.0000
vt 0.5320 0.7076 0.0000
vt 0.5384 0.6699 0.0000
vt 0.5979 0.6699 0.0000
vt 0.6056 0.7106 0.0000
vt 0.5306 0.7106 0.0000
vt 0.5496 0.6690 0.0000
vt 0.5777 0.6690 0.0000
vt 0.5873 0.7085 0.0000
vt 0.5400 0.7085 0.0000
vt 0.5224 0.6367 0.0000
vt 0.5819 0.6367 0.0000
vt 0.5897 0.6774 0.0000
vt 0.5146 0.6774 0.0000
vt 0.5561 0.6632 0.0000
vt 0.5841 0.6632 0.0000
vt 0.5937 0.7035 0.0000
vt 0.5465 0.7035 0.0000
vt 0.5080 0.6579 0.0000
vt 0.5675 0.6579 0.0000
vt 0.5752 0.6985 0.0000
vt 0.5002 0.6985 0.0000
vt 0.5503 0.6546 0.0000
vt 0.5784 0.6546 0.0000
vt 0.5880 0.6948 0.0000
vt 0.5407 0.6948 0.0000
vt 0.5311 0.6856 0.0000
vt 0.5906 0.6856 0.0000
vt 0.5984 0.7262 0.0000
vt 0.5233 0.7262 0.0000
vt 0.5531 0.6495 0.0000
vt 0.5812 0.6495 0.0000
vt 0.5908 0.6897 0.0000
vt 0.5435 0.6897 0.0000
vt 0.5514 0.6774 0.0000
vt 0.6109 0.6774 0.0000
vt 0.6186 0.7181 0.0000
vt 0.5436 0.7181 0.0000
vt 0.5470 0.6630 0.0000
vt 0.5751 0.6630 0.0000
vt 0.5847 0.7025 0.0000
vt 0.5374 0.7025 0.0000
vt 0.2405 0.1768 0.0000
vt 0.2405 0.1458 0.0000
vt 0.2727 0.1458 0.0000
vt 0.2727 0.1768 0.0000
vt 0.2323 0.1458 0.0000
vt 0.2323 0.1768 0.0000
vt 0.0575 0.1768 0.0000
vt 0.0575 0.1458 0.0000
vt 0.2323 0.1075 0.0000
vt 0.2323 0.1397 0.0000
vt 0.0575 0.1397 0.0000
vt 0.0575 0.1075 0.0000
vt 0.0575 0.2159 0.0000
vt 0.0575 0.1850 0.0000
vt 0.2323 0.1850 0.0000
vt 0.2323 0.2159 0.0000
vt 0.0575 0.1014 0.0000
vt 0.0575 0.0691 0.0000
vt 0.2323 0.0691 0.0000
vt 0.2323 0.1014 0.0000
vt 0.2727 0.1850 0.0000
vt 0.2727 0.2159 0.0000
vt 0.2405 0.2159 0.0000
vt 0.2405 0.1850 0.0000
vt 0.6459 0.7347 0.0000
vt 0.6487 0.7191 0.0000
vt 0.8357 0.7207 0.0000
vt 0.8329 0.7364 0.0000
vt 0.8129 0.7345 0.0000
vt 0.8249 0.7345 0.0000
vt 0.8249 0.7497 0.0000
vt 0.8129 0.7497 0.0000
vt 0.6696 0.7345 0.0000
vt 0.6696 0.7497 0.0000
vt 0.7784 0.6410 0.0000
vt 0.7625 0.6410 0.0000
vt 0.7625 0.6257 0.0000
vt 0.7784 0.6257 0.0000
vt 0.6459 0.7713 0.0000
vt 0.8330 0.7713 0.0000
vt 0.8330 0.7865 0.0000
vt 0.6459 0.7865 0.0000
vt 0.6481 0.6501 0.0000
vt 0.6459 0.6343 0.0000
vt 0.8329 0.6400 0.0000
vt 0.8350 0.6557 0.0000
vt 0.6459 0.7076 0.0000
vt 0.6487 0.6919 0.0000
vt 0.8357 0.6936 0.0000
vt 0.8329 0.7092 0.0000
vt 0.8129 0.7056 0.0000
vt 0.8249 0.7056 0.0000
vt 0.8249 0.7209 0.0000
vt 0.8129 0.7209 0.0000
vt 0.6696 0.7056 0.0000
vt 0.6696 0.7209 0.0000
vt 0.7784 0.6871 0.0000
vt 0.7625 0.6871 0.0000
vt 0.7625 0.6718 0.0000
vt 0.7784 0.6718 0.0000
vt 0.6459 0.7462 0.0000
vt 0.8330 0.7462 0.0000
vt 0.8330 0.7615 0.0000
vt 0.6459 0.7615 0.0000
vt 0.6481 0.6789 0.0000
vt 0.6459 0.6631 0.0000
vt 0.8329 0.6688 0.0000
vt 0.8350 0.6845 0.0000
vt 0.2772 0.2213 1.0000
vt 0.3155 0.2213 1.0000
vt 0.3155 0.5280 1.0000
vt 0.2772 0.5280 1.0000
vt 0.3538 0.2213 1.0000
vt 0.3538 0.5280 1.0000
vt 0.0471 0.2213 1.0000
vt 0.0855 0.2213 1.0000
vt 0.0855 0.5280 1.0000
vt 0.0471 0.5280 1.0000
vt 0.1238 0.2213 1.0000
vt 0.1238 0.5280 1.0000
vt 0.1621 0.2213 1.0000
vt 0.1621 0.5280 1.0000
vt 0.2005 0.2213 1.0000
vt 0.2005 0.5280 1.0000
vt 0.2388 0.2213 1.0000
vt 0.2388 0.5280 1.0000
vt 0.3538 0.3746 -0.2500
vt 0.3089 0.2662 -0.2500
vt 0.2005 0.2213 -0.2500
vt 0.2005 0.5280 -0.2500
vt 0.0920 0.2662 -0.2500
vt 0.0471 0.3746 -0.2500
vt 0.0920 0.4831 -0.2500
vt 0.3089 0.4831 -0.2500
vt 0.0920 0.4831 0.2500
vt 0.0471 0.3746 0.2500
vt 0.0920 0.2662 0.2500
vt 0.3089 0.4831 0.2500
vt 0.2005 0.2213 0.2500
vt 0.3089 0.2662 0.2500
vt 0.3538 0.3746 0.2500
vt 0.2005 0.5280 0.2500
vt 0.6708 0.6753 0.0000
vt 0.6708 0.6611 0.0000
vt 0.7125 0.6611 0.0000
vt 0.7125 0.6753 0.0000
vt 0.6708 0.7072 0.0000
vt 0.6708 0.6934 0.0000
vt 0.7125 0.6934 0.0000
vt 0.7125 0.7072 0.0000
vt 0.6708 0.6915 0.0000
vt 0.6708 0.6773 0.0000
vt 0.7125 0.6773 0.0000
vt 0.7125 0.6915 0.0000
vt 0.6708 0.7229 0.0000
vt 0.6708 0.7091 0.0000
vt 0.7125 0.7091 0.0000
vt 0.7125 0.7229 0.0000
# 234 texture coords

g Box001
usemtl 01___Default
s 4
f 1/1/1 2/2/1 3/3/1 4/4/1 
s 8
f 5/5/2 6/6/2 2/7/2 1/8/2 
s 16
f 6/9/3 7/10/3 3/11/3 2/12/3 
s 32
f 7/13/4 8/14/4 4/15/4 3/16/4 
s 64
f 8/17/5 5/18/5 1/19/5 4/20/5 
s 4
f 9/1/1 10/2/1 11/3/1 12/4/1 
f 13/1/1 14/2/1 15/3/1 16/4/1 
f 17/1/1 18/2/1 19/3/1 20/4/1 
f 21/1/1 22/2/1 23/3/1 24/4/1 
f 25/1/1 26/2/1 27/3/1 28/4/1 
f 29/1/1 30/2/1 31/3/1 32/4/1 
s off
f 10/21/6 9/22/6 33/23/6 34/24/6 
f 11/25/7 10/26/7 34/27/7 35/28/7 
f 12/29/8 11/30/8 35/31/8 36/32/8 
f 9/33/9 12/34/9 36/35/9 33/36/9 
f 14/37/6 13/38/6 37/39/6 38/40/6 
f 15/41/7 14/42/7 38/43/7 39/44/7 
f 16/45/8 15/46/8 39/47/8 40/48/8 
f 13/49/9 16/50/9 40/51/9 37/52/9 
f 18/53/6 17/54/6 41/55/6 42/56/6 
f 19/57/7 18/58/7 42/59/7 43/60/7 
f 20/61/8 19/62/8 43/63/8 44/64/8 
f 17/65/9 20/66/9 44/67/9 41/68/9 
f 22/69/6 21/70/6 45/71/6 46/72/6 
f 23/73/7 22/74/7 46/75/7 47/76/7 
f 24/77/8 23/78/8 47/79/8 48/80/8 
f 21/81/9 24/82/9 48/83/9 45/84/9 
f 26/85/6 25/86/6 49/87/6 50/88/6 
f 27/89/7 26/90/7 50/91/7 51/92/7 
f 28/93/8 27/94/8 51/95/8 52/96/8 
f 25/97/9 28/98/9 52/99/9 49/100/9 
f 30/101/6 29/102/6 53/103/6 54/104/6 
f 31/105/7 30/106/7 54/107/7 55/108/7 
f 32/109/8 31/110/8 55/111/8 56/112/8 
f 29/113/9 32/114/9 56/115/9 53/116/9 
s 8
f 57/117/2 58/118/2 59/119/2 60/120/2 
s off
f 58/121/10 57/122/10 61/123/10 62/124/10 
f 59/125/3 58/126/3 62/127/3 63/128/3 
f 60/129/1 59/130/1 63/131/1 64/132/1 
f 57/133/5 60/134/5 64/135/5 61/136/5 
f 64/137/4 63/138/4 62/139/4 61/140/4 
s 8
f 65/141/11 66/142/11 67/143/11 68/144/11 
s off
f 66/145/12 65/146/12 69/147/12 70/148/12 
f 67/149/13 66/145/13 70/148/13 71/150/13 
f 68/151/14 67/152/14 71/153/14 72/154/14 
f 65/155/15 68/156/15 72/157/15 69/158/15 
f 72/159/16 71/160/16 70/161/16 69/162/16 
s 8
f 73/163/11 74/164/11 75/165/11 76/166/11 
s off
f 74/167/12 73/168/12 77/169/12 78/170/12 
f 75/171/13 74/167/13 78/170/13 79/172/13 
f 76/173/14 75/174/14 79/175/14 80/176/14 
f 73/177/15 76/178/15 80/179/15 77/180/15 
f 80/181/16 79/182/16 78/183/16 77/184/16 
s 8
f 81/185/17 82/186/18 83/187/18 84/188/19 
f 82/186/18 85/189/20 86/190/20 83/187/18 
f 85/191/20 87/192/21 88/193/21 86/194/20 
f 87/192/21 89/195/22 90/196/22 88/193/21 
f 89/195/22 91/197/23 92/198/23 90/196/22 
f 91/197/23 93/199/24 94/200/24 92/198/23 
f 93/199/24 95/201/25 96/202/25 94/200/24 
f 95/201/25 81/185/17 84/188/19 96/202/25 
s 1
f 93/203/26 91/204/27 89/205/27 81/206/27 
f 89/205/27 87/207/27 85/208/27 81/206/27 
f 85/208/27 82/209/27 81/206/27 
f 95/210/26 93/203/26 81/206/27 
f 83/211/28 86/212/28 88/213/28 96/214/28 
f 88/213/28 90/215/28 92/216/28 96/214/28 
f 92/216/28 94/217/28 96/214/28 
f 84/218/28 83/211/28 96/214/28 
s off
f 97/219/4 98/220/4 99/221/4 100/222/4 
f 101/223/29 97/224/29 100/225/29 102/226/29 
f 103/227/2 101/228/2 102/229/2 104/230/2 
f 98/231/30 103/232/30 104/233/30 99/234/30 
# 69 polygons - 4 triangles

